%TF.GenerationSoftware,KiCad,Pcbnew,10.0.6*%
%TF.CreationDate,2026-09-16T22:28:45-05:00*%
%TF.ProjectId,Horns_v1.0,486f726e-735f-4763-912e-302e6b696361,0.0*%
%TF.SameCoordinates,Original*%
%TF.FileFunction,Copper,L1,Top*%
%TF.FilePolarity,Positive*%
%FSLAX46Y46*%
G04 Gerber Fmt 4.6, Leading zero omitted, Abs format (unit mm)*
G04 Created by KiCad (PCBNEW 10.0.6) date 2026-09-16 22:28:45*
%MOMM*%
%LPD*%
G01*
G04 APERTURE LIST*
G04 Aperture macros list*
%AMRoundRect*
0 Rectangle with rounded corners*
0 $1 Rounding radius*
0 $2 $3 $4 $5 $6 $7 $8 $9 X,Y pos of 4 corners*
0 Add a 4 corners polygon primitive as box body*
4,1,4,$2,$3,$4,$5,$6,$7,$8,$9,$2,$3,0*
0 Add four circle primitives for the rounded corners*
1,1,$1+$1,$2,$3*
1,1,$1+$1,$4,$5*
1,1,$1+$1,$6,$7*
1,1,$1+$1,$8,$9*
0 Add four rect primitives between the rounded corners*
20,1,$1+$1,$2,$3,$4,$5,0*
20,1,$1+$1,$4,$5,$6,$7,0*
20,1,$1+$1,$6,$7,$8,$9,0*
20,1,$1+$1,$8,$9,$2,$3,0*%
G04 Aperture macros list end*
%TA.AperFunction,SMDPad,CuDef*%
%ADD10RoundRect,0.150000X-0.150000X-0.700000X0.150000X-0.700000X0.150000X0.700000X-0.150000X0.700000X0*%
%TD*%
%TA.AperFunction,SMDPad,CuDef*%
%ADD11RoundRect,0.250000X-0.250000X-1.150000X0.250000X-1.150000X0.250000X1.150000X-0.250000X1.150000X0*%
%TD*%
%TA.AperFunction,SMDPad,CuDef*%
%ADD12RoundRect,0.237500X-0.300000X-0.237500X0.300000X-0.237500X0.300000X0.237500X-0.300000X0.237500X0*%
%TD*%
%TA.AperFunction,SMDPad,CuDef*%
%ADD13RoundRect,0.237500X0.300000X0.237500X-0.300000X0.237500X-0.300000X-0.237500X0.300000X-0.237500X0*%
%TD*%
%TA.AperFunction,SMDPad,CuDef*%
%ADD14R,2.286000X1.397000*%
%TD*%
%TA.AperFunction,SMDPad,CuDef*%
%ADD15R,6.180000X5.690000*%
%TD*%
%TA.AperFunction,SMDPad,CuDef*%
%ADD16RoundRect,0.150000X0.150000X0.700000X-0.150000X0.700000X-0.150000X-0.700000X0.150000X-0.700000X0*%
%TD*%
%TA.AperFunction,SMDPad,CuDef*%
%ADD17RoundRect,0.250000X0.250000X1.150000X-0.250000X1.150000X-0.250000X-1.150000X0.250000X-1.150000X0*%
%TD*%
%TA.AperFunction,SMDPad,CuDef*%
%ADD18RoundRect,0.237500X0.287500X0.237500X-0.287500X0.237500X-0.287500X-0.237500X0.287500X-0.237500X0*%
%TD*%
%TA.AperFunction,SMDPad,CuDef*%
%ADD19RoundRect,0.160000X-0.197500X-0.160000X0.197500X-0.160000X0.197500X0.160000X-0.197500X0.160000X0*%
%TD*%
%TA.AperFunction,SMDPad,CuDef*%
%ADD20R,1.676400X1.879600*%
%TD*%
%TA.AperFunction,ViaPad*%
%ADD21C,0.800000*%
%TD*%
%TA.AperFunction,Conductor*%
%ADD22C,0.250000*%
%TD*%
G04 APERTURE END LIST*
D10*
%TO.P,J4,1,Pin_1_1*%
%TO.N,Net-(J3-Pin_2)*%
X131375000Y-75950000D03*
%TO.P,J4,2,Pin_2_2*%
%TO.N,/HORN_IN*%
X132625000Y-75950000D03*
D11*
%TO.P,J4,MP*%
%TO.N,N/C*%
X129525000Y-72600000D03*
X134475000Y-72600000D03*
%TD*%
D12*
%TO.P,C2,1*%
%TO.N,GND*%
X115275000Y-79980000D03*
%TO.P,C2,2*%
%TO.N,+24V*%
X117000000Y-79980000D03*
%TD*%
%TO.P,C5,1*%
%TO.N,GND*%
X115275000Y-87510000D03*
%TO.P,C5,2*%
%TO.N,+24V*%
X117000000Y-87510000D03*
%TD*%
D13*
%TO.P,C8,1*%
%TO.N,GND*%
X120862500Y-85000000D03*
%TO.P,C8,2*%
%TO.N,+24V*%
X119137500Y-85000000D03*
%TD*%
D10*
%TO.P,J3,1,Pin_1_1*%
%TO.N,+24V*%
X123375000Y-75950000D03*
%TO.P,J3,2,Pin_2_2*%
%TO.N,Net-(J3-Pin_2)*%
X124625000Y-75950000D03*
D11*
%TO.P,J3,MP*%
%TO.N,N/C*%
X121525000Y-72600000D03*
X126475000Y-72600000D03*
%TD*%
D14*
%TO.P,Q1,1,G_1*%
%TO.N,/HORN_CTRL*%
X139500000Y-85000000D03*
D15*
%TO.P,Q1,2,D_2*%
%TO.N,Net-(Q1-D)*%
X133065000Y-83413000D03*
D14*
%TO.P,Q1,3,S_3*%
%TO.N,GND*%
X139500000Y-81826000D03*
%TD*%
D12*
%TO.P,C9,1*%
%TO.N,+24V*%
X119137500Y-87500000D03*
%TO.P,C9,2*%
%TO.N,GND*%
X120862500Y-87500000D03*
%TD*%
D13*
%TO.P,C6,1*%
%TO.N,GND*%
X120862500Y-80000000D03*
%TO.P,C6,2*%
%TO.N,+24V*%
X119137500Y-80000000D03*
%TD*%
D16*
%TO.P,J2,1,Pin_1_1*%
%TO.N,/HORN_CTRL*%
X133125000Y-92550000D03*
%TO.P,J2,2,Pin_2_2*%
%TO.N,GND*%
X131875000Y-92550000D03*
D17*
%TO.P,J2,MP*%
%TO.N,N/C*%
X134975000Y-95900000D03*
X130025000Y-95900000D03*
%TD*%
D18*
%TO.P,F1,1*%
%TO.N,Net-(Q1-D)*%
X130000000Y-89500000D03*
%TO.P,F1,2*%
%TO.N,/HORN_IN*%
X128250000Y-89500000D03*
%TD*%
D12*
%TO.P,C4,1*%
%TO.N,GND*%
X115275000Y-85000000D03*
%TO.P,C4,2*%
%TO.N,+24V*%
X117000000Y-85000000D03*
%TD*%
%TO.P,C1,1*%
%TO.N,GND*%
X134702500Y-89413000D03*
%TO.P,C1,2*%
%TO.N,Net-(C1-Pad2)*%
X136427500Y-89413000D03*
%TD*%
D13*
%TO.P,C7,1*%
%TO.N,GND*%
X120862500Y-82500000D03*
%TO.P,C7,2*%
%TO.N,+24V*%
X119137500Y-82500000D03*
%TD*%
D19*
%TO.P,R1,1*%
%TO.N,Net-(C1-Pad2)*%
X139902500Y-89413000D03*
%TO.P,R1,2*%
%TO.N,/HORN_CTRL*%
X141097500Y-89413000D03*
%TD*%
D16*
%TO.P,J1,1,Pin_1_1*%
%TO.N,GND*%
X125750000Y-92550000D03*
%TO.P,J1,2,Pin_2_2*%
%TO.N,+24V*%
X124500000Y-92550000D03*
%TO.P,J1,3,Pin_3_3*%
%TO.N,GND*%
X123250000Y-92550000D03*
D17*
%TO.P,J1,MP*%
%TO.N,N/C*%
X127600000Y-95900000D03*
X121400000Y-95900000D03*
%TD*%
D20*
%TO.P,CR2,1*%
%TO.N,+24V*%
X125500000Y-85209800D03*
%TO.P,CR2,2*%
%TO.N,/HORN_IN*%
X125500000Y-80790200D03*
%TD*%
D12*
%TO.P,C3,1*%
%TO.N,GND*%
X115275000Y-82490000D03*
%TO.P,C3,2*%
%TO.N,+24V*%
X117000000Y-82490000D03*
%TD*%
D21*
%TO.N,GND*%
X122500000Y-85000000D03*
X122500000Y-87500000D03*
X132250000Y-90500000D03*
X113750000Y-85000000D03*
X113750000Y-87500000D03*
X122500000Y-82500000D03*
X123250000Y-90250000D03*
X122500000Y-80000000D03*
X131750000Y-88750000D03*
X139500000Y-77750000D03*
X113750000Y-80000000D03*
X113750000Y-82500000D03*
X125750000Y-90250000D03*
%TD*%
%TO.N,Net-(J3-Pin_2)*%
D22*
X131000000Y-77500000D02*
X125000000Y-77500000D01*
X124625000Y-77125000D02*
X124625000Y-75950000D01*
X131375000Y-75950000D02*
X131375000Y-77125000D01*
X125000000Y-77500000D02*
X124625000Y-77125000D01*
X131375000Y-77125000D02*
X131000000Y-77500000D01*
%TO.N,/HORN_IN*%
X132625000Y-77375000D02*
X131500000Y-78500000D01*
X125500000Y-80790200D02*
X127290200Y-80790200D01*
X126000000Y-78500000D02*
X125500000Y-79000000D01*
X127290200Y-80790200D02*
X128250000Y-81750000D01*
X128250000Y-81750000D02*
X128250000Y-89500000D01*
X125500000Y-79000000D02*
X125500000Y-80790200D01*
X131500000Y-78500000D02*
X126000000Y-78500000D01*
X132625000Y-75950000D02*
X132625000Y-77375000D01*
%TO.N,GND*%
X131875000Y-90875000D02*
X132250000Y-90500000D01*
X125750000Y-92550000D02*
X125750000Y-90250000D01*
X115275000Y-85000000D02*
X113750000Y-85000000D01*
X115275000Y-79980000D02*
X113770000Y-79980000D01*
X131875000Y-92550000D02*
X131875000Y-90875000D01*
X113770000Y-79980000D02*
X113750000Y-80000000D01*
X123250000Y-92550000D02*
X123250000Y-90250000D01*
X134702500Y-89413000D02*
X132413000Y-89413000D01*
X139500000Y-81826000D02*
X139500000Y-77750000D01*
X132413000Y-89413000D02*
X131750000Y-88750000D01*
X115275000Y-87510000D02*
X113760000Y-87510000D01*
X113760000Y-87510000D02*
X113750000Y-87500000D01*
X120862500Y-80000000D02*
X122500000Y-80000000D01*
X120862500Y-87500000D02*
X122500000Y-87500000D01*
X120862500Y-82500000D02*
X122500000Y-82500000D01*
X115275000Y-82490000D02*
X113760000Y-82490000D01*
X120862500Y-85000000D02*
X122500000Y-85000000D01*
X113760000Y-82490000D02*
X113750000Y-82500000D01*
%TO.N,/HORN_CTRL*%
X141097500Y-89097500D02*
X139500000Y-87500000D01*
X141097500Y-90402500D02*
X141097500Y-89413000D01*
X133125000Y-92550000D02*
X133125000Y-91375000D01*
X133500000Y-91000000D02*
X140500000Y-91000000D01*
X139500000Y-87500000D02*
X139500000Y-85000000D01*
X133125000Y-91375000D02*
X133500000Y-91000000D01*
X140500000Y-91000000D02*
X141097500Y-90402500D01*
X141097500Y-89413000D02*
X141097500Y-89097500D01*
%TO.N,Net-(Q1-D)*%
X130000000Y-89500000D02*
X130000000Y-88750000D01*
X133065000Y-85685000D02*
X133065000Y-83413000D01*
X130000000Y-88750000D02*
X133065000Y-85685000D01*
%TO.N,Net-(C1-Pad2)*%
X139902500Y-89413000D02*
X136427500Y-89413000D01*
%TD*%
%TA.AperFunction,Conductor*%
%TO.N,+24V*%
G36*
X140003032Y-69254649D02*
G01*
X140082396Y-69258547D01*
X140361043Y-69272237D01*
X140373147Y-69273429D01*
X140724687Y-69325575D01*
X140736619Y-69327949D01*
X141081349Y-69414299D01*
X141092988Y-69417829D01*
X141427616Y-69537560D01*
X141438837Y-69542208D01*
X141760117Y-69694163D01*
X141770845Y-69699898D01*
X142075658Y-69882596D01*
X142085775Y-69889356D01*
X142371225Y-70101059D01*
X142380633Y-70108779D01*
X142643954Y-70347441D01*
X142652558Y-70356045D01*
X142867376Y-70593059D01*
X142891220Y-70619366D01*
X142898940Y-70628774D01*
X143110643Y-70914224D01*
X143117403Y-70924341D01*
X143300101Y-71229154D01*
X143305838Y-71239886D01*
X143381312Y-71399462D01*
X143426344Y-71494674D01*
X143457786Y-71561151D01*
X143462443Y-71572394D01*
X143582168Y-71907005D01*
X143585700Y-71918650D01*
X143672050Y-72263380D01*
X143674424Y-72275314D01*
X143726569Y-72626848D01*
X143727762Y-72638958D01*
X143745351Y-72996967D01*
X143745500Y-73003052D01*
X143745500Y-94996947D01*
X143745351Y-95003032D01*
X143727762Y-95361041D01*
X143726569Y-95373151D01*
X143674424Y-95724685D01*
X143672050Y-95736619D01*
X143585700Y-96081349D01*
X143582168Y-96092994D01*
X143462443Y-96427605D01*
X143457786Y-96438848D01*
X143305838Y-96760113D01*
X143300101Y-96770845D01*
X143117403Y-97075658D01*
X143110643Y-97085775D01*
X142898940Y-97371225D01*
X142891220Y-97380633D01*
X142652558Y-97643954D01*
X142643954Y-97652558D01*
X142380633Y-97891220D01*
X142371225Y-97898940D01*
X142085775Y-98110643D01*
X142075658Y-98117403D01*
X141770845Y-98300101D01*
X141760113Y-98305838D01*
X141438848Y-98457786D01*
X141427605Y-98462443D01*
X141092994Y-98582168D01*
X141081349Y-98585700D01*
X140736619Y-98672050D01*
X140724685Y-98674424D01*
X140373151Y-98726569D01*
X140361041Y-98727762D01*
X140003033Y-98745351D01*
X139996948Y-98745500D01*
X116003052Y-98745500D01*
X115996967Y-98745351D01*
X115638958Y-98727762D01*
X115626848Y-98726569D01*
X115275314Y-98674424D01*
X115263380Y-98672050D01*
X114918650Y-98585700D01*
X114907005Y-98582168D01*
X114572394Y-98462443D01*
X114561151Y-98457786D01*
X114239886Y-98305838D01*
X114229154Y-98300101D01*
X113924341Y-98117403D01*
X113914224Y-98110643D01*
X113628774Y-97898940D01*
X113619366Y-97891220D01*
X113356045Y-97652558D01*
X113347441Y-97643954D01*
X113238405Y-97523652D01*
X113108775Y-97380628D01*
X113101059Y-97371225D01*
X112889356Y-97085775D01*
X112882596Y-97075658D01*
X112747641Y-96850500D01*
X112699896Y-96770842D01*
X112694161Y-96760113D01*
X112692241Y-96756054D01*
X112542208Y-96438837D01*
X112537560Y-96427616D01*
X112417829Y-96092988D01*
X112414299Y-96081349D01*
X112327949Y-95736619D01*
X112325575Y-95724685D01*
X112273430Y-95373151D01*
X112272237Y-95361040D01*
X112254649Y-95003031D01*
X112254500Y-94996947D01*
X112254500Y-94878711D01*
X114149500Y-94878711D01*
X114149500Y-95121288D01*
X114181063Y-95361041D01*
X114181162Y-95361789D01*
X114212554Y-95478944D01*
X114243947Y-95596104D01*
X114336773Y-95820205D01*
X114336776Y-95820212D01*
X114458064Y-96030289D01*
X114458066Y-96030292D01*
X114458067Y-96030293D01*
X114605733Y-96222736D01*
X114605739Y-96222743D01*
X114777256Y-96394260D01*
X114777263Y-96394266D01*
X114828187Y-96433341D01*
X114969711Y-96541936D01*
X115179788Y-96663224D01*
X115403900Y-96756054D01*
X115638211Y-96818838D01*
X115818586Y-96842584D01*
X115878711Y-96850500D01*
X115878712Y-96850500D01*
X116121289Y-96850500D01*
X116169388Y-96844167D01*
X116361789Y-96818838D01*
X116596100Y-96756054D01*
X116820212Y-96663224D01*
X117030289Y-96541936D01*
X117222738Y-96394265D01*
X117394265Y-96222738D01*
X117541936Y-96030289D01*
X117663224Y-95820212D01*
X117756054Y-95596100D01*
X117818838Y-95361789D01*
X117850500Y-95121288D01*
X117850500Y-94878712D01*
X117826900Y-94699447D01*
X120391500Y-94699447D01*
X120391500Y-97100537D01*
X120391501Y-97100553D01*
X120402113Y-97204427D01*
X120457884Y-97372735D01*
X120457886Y-97372740D01*
X120478982Y-97406941D01*
X120550970Y-97523652D01*
X120676348Y-97649030D01*
X120827262Y-97742115D01*
X120995574Y-97797887D01*
X121099455Y-97808500D01*
X121700544Y-97808499D01*
X121804426Y-97797887D01*
X121972738Y-97742115D01*
X122123652Y-97649030D01*
X122249030Y-97523652D01*
X122342115Y-97372738D01*
X122397887Y-97204426D01*
X122408500Y-97100545D01*
X122408499Y-94699456D01*
X122408498Y-94699447D01*
X126591500Y-94699447D01*
X126591500Y-97100537D01*
X126591501Y-97100553D01*
X126602113Y-97204427D01*
X126657884Y-97372735D01*
X126657886Y-97372740D01*
X126678982Y-97406941D01*
X126750970Y-97523652D01*
X126876348Y-97649030D01*
X127027262Y-97742115D01*
X127195574Y-97797887D01*
X127299455Y-97808500D01*
X127900544Y-97808499D01*
X128004426Y-97797887D01*
X128172738Y-97742115D01*
X128323652Y-97649030D01*
X128449030Y-97523652D01*
X128542115Y-97372738D01*
X128597887Y-97204426D01*
X128608500Y-97100545D01*
X128608499Y-94699456D01*
X128608498Y-94699447D01*
X129016500Y-94699447D01*
X129016500Y-97100537D01*
X129016501Y-97100553D01*
X129027113Y-97204427D01*
X129082884Y-97372735D01*
X129082886Y-97372740D01*
X129103982Y-97406941D01*
X129175970Y-97523652D01*
X129301348Y-97649030D01*
X129452262Y-97742115D01*
X129620574Y-97797887D01*
X129724455Y-97808500D01*
X130325544Y-97808499D01*
X130429426Y-97797887D01*
X130597738Y-97742115D01*
X130748652Y-97649030D01*
X130874030Y-97523652D01*
X130967115Y-97372738D01*
X131022887Y-97204426D01*
X131033500Y-97100545D01*
X131033499Y-94699456D01*
X131033498Y-94699447D01*
X133966500Y-94699447D01*
X133966500Y-97100537D01*
X133966501Y-97100553D01*
X133977113Y-97204427D01*
X134032884Y-97372735D01*
X134032886Y-97372740D01*
X134053982Y-97406941D01*
X134125970Y-97523652D01*
X134251348Y-97649030D01*
X134402262Y-97742115D01*
X134570574Y-97797887D01*
X134674455Y-97808500D01*
X135275544Y-97808499D01*
X135379426Y-97797887D01*
X135547738Y-97742115D01*
X135698652Y-97649030D01*
X135824030Y-97523652D01*
X135917115Y-97372738D01*
X135972887Y-97204426D01*
X135983500Y-97100545D01*
X135983499Y-94878711D01*
X138149500Y-94878711D01*
X138149500Y-95121288D01*
X138181063Y-95361041D01*
X138181162Y-95361789D01*
X138212554Y-95478944D01*
X138243947Y-95596104D01*
X138336773Y-95820205D01*
X138336776Y-95820212D01*
X138458064Y-96030289D01*
X138458066Y-96030292D01*
X138458067Y-96030293D01*
X138605733Y-96222736D01*
X138605739Y-96222743D01*
X138777256Y-96394260D01*
X138777263Y-96394266D01*
X138828187Y-96433341D01*
X138969711Y-96541936D01*
X139179788Y-96663224D01*
X139403900Y-96756054D01*
X139638211Y-96818838D01*
X139818586Y-96842584D01*
X139878711Y-96850500D01*
X139878712Y-96850500D01*
X140121289Y-96850500D01*
X140169388Y-96844167D01*
X140361789Y-96818838D01*
X140596100Y-96756054D01*
X140820212Y-96663224D01*
X141030289Y-96541936D01*
X141222738Y-96394265D01*
X141394265Y-96222738D01*
X141541936Y-96030289D01*
X141663224Y-95820212D01*
X141756054Y-95596100D01*
X141818838Y-95361789D01*
X141850500Y-95121288D01*
X141850500Y-94878712D01*
X141818838Y-94638211D01*
X141756054Y-94403900D01*
X141663224Y-94179788D01*
X141541936Y-93969711D01*
X141394265Y-93777262D01*
X141394260Y-93777256D01*
X141222743Y-93605739D01*
X141222736Y-93605733D01*
X141030293Y-93458067D01*
X141030292Y-93458066D01*
X141030289Y-93458064D01*
X140820212Y-93336776D01*
X140820205Y-93336773D01*
X140596104Y-93243947D01*
X140361785Y-93181161D01*
X140121289Y-93149500D01*
X140121288Y-93149500D01*
X139878712Y-93149500D01*
X139878711Y-93149500D01*
X139638214Y-93181161D01*
X139403895Y-93243947D01*
X139179794Y-93336773D01*
X139179785Y-93336777D01*
X138969706Y-93458067D01*
X138777263Y-93605733D01*
X138777256Y-93605739D01*
X138605739Y-93777256D01*
X138605733Y-93777263D01*
X138458067Y-93969706D01*
X138336777Y-94179785D01*
X138336773Y-94179794D01*
X138243947Y-94403895D01*
X138181161Y-94638214D01*
X138149500Y-94878711D01*
X135983499Y-94878711D01*
X135983499Y-94699456D01*
X135972887Y-94595574D01*
X135917115Y-94427262D01*
X135824030Y-94276348D01*
X135698652Y-94150970D01*
X135547738Y-94057885D01*
X135547735Y-94057884D01*
X135379427Y-94002113D01*
X135275546Y-93991500D01*
X134674462Y-93991500D01*
X134674446Y-93991501D01*
X134570572Y-94002113D01*
X134402264Y-94057884D01*
X134402259Y-94057886D01*
X134251346Y-94150971D01*
X134125971Y-94276346D01*
X134032886Y-94427259D01*
X134032884Y-94427264D01*
X133977113Y-94595572D01*
X133966500Y-94699447D01*
X131033498Y-94699447D01*
X131022887Y-94595574D01*
X130967115Y-94427262D01*
X130874030Y-94276348D01*
X130748652Y-94150970D01*
X130597738Y-94057885D01*
X130597735Y-94057884D01*
X130429427Y-94002113D01*
X130325546Y-93991500D01*
X129724462Y-93991500D01*
X129724446Y-93991501D01*
X129620572Y-94002113D01*
X129452264Y-94057884D01*
X129452259Y-94057886D01*
X129301346Y-94150971D01*
X129175971Y-94276346D01*
X129082886Y-94427259D01*
X129082884Y-94427264D01*
X129027113Y-94595572D01*
X129016500Y-94699447D01*
X128608498Y-94699447D01*
X128597887Y-94595574D01*
X128542115Y-94427262D01*
X128449030Y-94276348D01*
X128323652Y-94150970D01*
X128172738Y-94057885D01*
X128172735Y-94057884D01*
X128004427Y-94002113D01*
X127900546Y-93991500D01*
X127299462Y-93991500D01*
X127299446Y-93991501D01*
X127195572Y-94002113D01*
X127027264Y-94057884D01*
X127027259Y-94057886D01*
X126876346Y-94150971D01*
X126750971Y-94276346D01*
X126657886Y-94427259D01*
X126657884Y-94427264D01*
X126602113Y-94595572D01*
X126591500Y-94699447D01*
X122408498Y-94699447D01*
X122397887Y-94595574D01*
X122342115Y-94427262D01*
X122249030Y-94276348D01*
X122123652Y-94150970D01*
X121972738Y-94057885D01*
X121972735Y-94057884D01*
X121804427Y-94002113D01*
X121700546Y-93991500D01*
X121099462Y-93991500D01*
X121099446Y-93991501D01*
X120995572Y-94002113D01*
X120827264Y-94057884D01*
X120827259Y-94057886D01*
X120676346Y-94150971D01*
X120550971Y-94276346D01*
X120457886Y-94427259D01*
X120457884Y-94427264D01*
X120402113Y-94595572D01*
X120391500Y-94699447D01*
X117826900Y-94699447D01*
X117818838Y-94638211D01*
X117756054Y-94403900D01*
X117663224Y-94179788D01*
X117541936Y-93969711D01*
X117394265Y-93777262D01*
X117394260Y-93777256D01*
X117222743Y-93605739D01*
X117222736Y-93605733D01*
X117030293Y-93458067D01*
X117030292Y-93458066D01*
X117030289Y-93458064D01*
X116820212Y-93336776D01*
X116820205Y-93336773D01*
X116596104Y-93243947D01*
X116361785Y-93181161D01*
X116121289Y-93149500D01*
X116121288Y-93149500D01*
X115878712Y-93149500D01*
X115878711Y-93149500D01*
X115638214Y-93181161D01*
X115403895Y-93243947D01*
X115179794Y-93336773D01*
X115179785Y-93336777D01*
X114969706Y-93458067D01*
X114777263Y-93605733D01*
X114777256Y-93605739D01*
X114605739Y-93777256D01*
X114605733Y-93777263D01*
X114458067Y-93969706D01*
X114336777Y-94179785D01*
X114336773Y-94179794D01*
X114243947Y-94403895D01*
X114181161Y-94638214D01*
X114149500Y-94878711D01*
X112254500Y-94878711D01*
X112254500Y-90160516D01*
X122341500Y-90160516D01*
X122341500Y-90339483D01*
X122376411Y-90514992D01*
X122376413Y-90515000D01*
X122444896Y-90680332D01*
X122444901Y-90680342D01*
X122544321Y-90829134D01*
X122544324Y-90829138D01*
X122580180Y-90864993D01*
X122613666Y-90926315D01*
X122616500Y-90952675D01*
X122616500Y-91350877D01*
X122596815Y-91417916D01*
X122580181Y-91438558D01*
X122575551Y-91443187D01*
X122575544Y-91443196D01*
X122490855Y-91586398D01*
X122490853Y-91586403D01*
X122444438Y-91746164D01*
X122444437Y-91746170D01*
X122441500Y-91783492D01*
X122441500Y-93316507D01*
X122444437Y-93353829D01*
X122444438Y-93353835D01*
X122490853Y-93513596D01*
X122490855Y-93513601D01*
X122575544Y-93656803D01*
X122575551Y-93656812D01*
X122693187Y-93774448D01*
X122693196Y-93774455D01*
X122697944Y-93777263D01*
X122836399Y-93859145D01*
X122878530Y-93871385D01*
X122996164Y-93905561D01*
X122996167Y-93905561D01*
X122996169Y-93905562D01*
X123033498Y-93908500D01*
X123033504Y-93908500D01*
X123466496Y-93908500D01*
X123466502Y-93908500D01*
X123503831Y-93905562D01*
X123503833Y-93905561D01*
X123503835Y-93905561D01*
X123545962Y-93893321D01*
X123663601Y-93859145D01*
X123802056Y-93777263D01*
X123813522Y-93770482D01*
X123814229Y-93771678D01*
X123871474Y-93749199D01*
X123939992Y-93762875D01*
X123945566Y-93765981D01*
X124089801Y-93851281D01*
X124247514Y-93897100D01*
X124247511Y-93897100D01*
X124249998Y-93897295D01*
X124250000Y-93897295D01*
X124250000Y-91202703D01*
X124750000Y-91202703D01*
X124750000Y-93897295D01*
X124750001Y-93897295D01*
X124752486Y-93897100D01*
X124910198Y-93851281D01*
X125054433Y-93765981D01*
X125122157Y-93748798D01*
X125188419Y-93770958D01*
X125193089Y-93774392D01*
X125197944Y-93777263D01*
X125336399Y-93859145D01*
X125378530Y-93871385D01*
X125496164Y-93905561D01*
X125496167Y-93905561D01*
X125496169Y-93905562D01*
X125533498Y-93908500D01*
X125533504Y-93908500D01*
X125966496Y-93908500D01*
X125966502Y-93908500D01*
X126003831Y-93905562D01*
X126003833Y-93905561D01*
X126003835Y-93905561D01*
X126045962Y-93893321D01*
X126163601Y-93859145D01*
X126306807Y-93774453D01*
X126424453Y-93656807D01*
X126509145Y-93513601D01*
X126555562Y-93353831D01*
X126558500Y-93316502D01*
X126558500Y-91783498D01*
X126555562Y-91746169D01*
X126541814Y-91698849D01*
X126509146Y-91586403D01*
X126509145Y-91586399D01*
X126424453Y-91443193D01*
X126424451Y-91443191D01*
X126424448Y-91443187D01*
X126419819Y-91438558D01*
X126386334Y-91377235D01*
X126383500Y-91350877D01*
X126383500Y-90952675D01*
X126403185Y-90885636D01*
X126419820Y-90864993D01*
X126455675Y-90829138D01*
X126455678Y-90829135D01*
X126555102Y-90680336D01*
X126623587Y-90515000D01*
X126658500Y-90339479D01*
X126658500Y-90160521D01*
X126623587Y-89985000D01*
X126555102Y-89819664D01*
X126555100Y-89819661D01*
X126555098Y-89819657D01*
X126455678Y-89670865D01*
X126455675Y-89670861D01*
X126329138Y-89544324D01*
X126329134Y-89544321D01*
X126180342Y-89444901D01*
X126180332Y-89444896D01*
X126015000Y-89376413D01*
X126014992Y-89376411D01*
X125839483Y-89341500D01*
X125839479Y-89341500D01*
X125660521Y-89341500D01*
X125660516Y-89341500D01*
X125485007Y-89376411D01*
X125484999Y-89376413D01*
X125319667Y-89444896D01*
X125319657Y-89444901D01*
X125170865Y-89544321D01*
X125170861Y-89544324D01*
X125044324Y-89670861D01*
X125044321Y-89670865D01*
X124944901Y-89819657D01*
X124944896Y-89819667D01*
X124876413Y-89984999D01*
X124876411Y-89985007D01*
X124841500Y-90160516D01*
X124841500Y-90339483D01*
X124876411Y-90514992D01*
X124876413Y-90515000D01*
X124944896Y-90680332D01*
X124944901Y-90680342D01*
X125044321Y-90829134D01*
X125044324Y-90829138D01*
X125080180Y-90864993D01*
X125113666Y-90926315D01*
X125116500Y-90952675D01*
X125116500Y-91153329D01*
X125096815Y-91220368D01*
X125044011Y-91266123D01*
X124974853Y-91276067D01*
X124929381Y-91260063D01*
X124910193Y-91248715D01*
X124752494Y-91202900D01*
X124752497Y-91202900D01*
X124750000Y-91202703D01*
X124250000Y-91202703D01*
X124247503Y-91202900D01*
X124089806Y-91248715D01*
X124070619Y-91260063D01*
X124002894Y-91277243D01*
X123936632Y-91255082D01*
X123892870Y-91200615D01*
X123883500Y-91153329D01*
X123883500Y-90952675D01*
X123903185Y-90885636D01*
X123919820Y-90864993D01*
X123955675Y-90829138D01*
X123955678Y-90829135D01*
X124055102Y-90680336D01*
X124123587Y-90515000D01*
X124158500Y-90339479D01*
X124158500Y-90160521D01*
X124123587Y-89985000D01*
X124055102Y-89819664D01*
X124055100Y-89819661D01*
X124055098Y-89819657D01*
X123955678Y-89670865D01*
X123955675Y-89670861D01*
X123829138Y-89544324D01*
X123829134Y-89544321D01*
X123680342Y-89444901D01*
X123680332Y-89444896D01*
X123515000Y-89376413D01*
X123514992Y-89376411D01*
X123339483Y-89341500D01*
X123339479Y-89341500D01*
X123160521Y-89341500D01*
X123160516Y-89341500D01*
X122985007Y-89376411D01*
X122984999Y-89376413D01*
X122819667Y-89444896D01*
X122819657Y-89444901D01*
X122670865Y-89544321D01*
X122670861Y-89544324D01*
X122544324Y-89670861D01*
X122544321Y-89670865D01*
X122444901Y-89819657D01*
X122444896Y-89819667D01*
X122376413Y-89984999D01*
X122376411Y-89985007D01*
X122341500Y-90160516D01*
X112254500Y-90160516D01*
X112254500Y-87410516D01*
X112841500Y-87410516D01*
X112841500Y-87589483D01*
X112876411Y-87764992D01*
X112876413Y-87765000D01*
X112944896Y-87930332D01*
X112944901Y-87930342D01*
X113044321Y-88079134D01*
X113044324Y-88079138D01*
X113170861Y-88205675D01*
X113170865Y-88205678D01*
X113319657Y-88305098D01*
X113319661Y-88305100D01*
X113319664Y-88305102D01*
X113485000Y-88373587D01*
X113660516Y-88408499D01*
X113660520Y-88408500D01*
X113660521Y-88408500D01*
X113839480Y-88408500D01*
X113839481Y-88408499D01*
X114015000Y-88373587D01*
X114180336Y-88305102D01*
X114273918Y-88242572D01*
X114340594Y-88221695D01*
X114407974Y-88240179D01*
X114430489Y-88257993D01*
X114509154Y-88336658D01*
X114509156Y-88336659D01*
X114509157Y-88336660D01*
X114657571Y-88428204D01*
X114657574Y-88428205D01*
X114657580Y-88428209D01*
X114823119Y-88483062D01*
X114925287Y-88493500D01*
X115624712Y-88493499D01*
X115726881Y-88483062D01*
X115892420Y-88428209D01*
X116040846Y-88336658D01*
X116055828Y-88321675D01*
X116117146Y-88288190D01*
X116186838Y-88293171D01*
X116231191Y-88321674D01*
X116239461Y-88329944D01*
X116239465Y-88329947D01*
X116386188Y-88420448D01*
X116386199Y-88420453D01*
X116549847Y-88474680D01*
X116650851Y-88484999D01*
X116750000Y-88484998D01*
X116750000Y-87760000D01*
X117250000Y-87760000D01*
X117250000Y-88484999D01*
X117349140Y-88484999D01*
X117349154Y-88484998D01*
X117450152Y-88474680D01*
X117613800Y-88420453D01*
X117613811Y-88420448D01*
X117760534Y-88329947D01*
X117760538Y-88329944D01*
X117882444Y-88208038D01*
X117882447Y-88208034D01*
X117966296Y-88072096D01*
X118018244Y-88025371D01*
X118087206Y-88014150D01*
X118151288Y-88041993D01*
X118177372Y-88072096D01*
X118255052Y-88198034D01*
X118255055Y-88198038D01*
X118376961Y-88319944D01*
X118376965Y-88319947D01*
X118523688Y-88410448D01*
X118523699Y-88410453D01*
X118687347Y-88464680D01*
X118788351Y-88474999D01*
X118887500Y-88474998D01*
X118887500Y-87750000D01*
X118145620Y-87750000D01*
X118132496Y-87757166D01*
X118106138Y-87760000D01*
X117250000Y-87760000D01*
X116750000Y-87760000D01*
X116750000Y-86535000D01*
X117250000Y-86535000D01*
X117250000Y-87260000D01*
X117991880Y-87260000D01*
X118005004Y-87252834D01*
X118031362Y-87250000D01*
X118887500Y-87250000D01*
X118887500Y-86525000D01*
X119387500Y-86525000D01*
X119387500Y-88474999D01*
X119486640Y-88474999D01*
X119486654Y-88474998D01*
X119587652Y-88464680D01*
X119751300Y-88410453D01*
X119751311Y-88410448D01*
X119898034Y-88319947D01*
X119906301Y-88311680D01*
X119967622Y-88278191D01*
X120037314Y-88283170D01*
X120081670Y-88311674D01*
X120096653Y-88326657D01*
X120096657Y-88326660D01*
X120245071Y-88418204D01*
X120245074Y-88418205D01*
X120245080Y-88418209D01*
X120410619Y-88473062D01*
X120512787Y-88483500D01*
X121212212Y-88483499D01*
X121314381Y-88473062D01*
X121479920Y-88418209D01*
X121628346Y-88326658D01*
X121747417Y-88207586D01*
X121808736Y-88174104D01*
X121878428Y-88179088D01*
X121915335Y-88202811D01*
X121916155Y-88201813D01*
X121920865Y-88205678D01*
X122069657Y-88305098D01*
X122069661Y-88305100D01*
X122069664Y-88305102D01*
X122235000Y-88373587D01*
X122410516Y-88408499D01*
X122410520Y-88408500D01*
X122410521Y-88408500D01*
X122589480Y-88408500D01*
X122589481Y-88408499D01*
X122765000Y-88373587D01*
X122930336Y-88305102D01*
X123079135Y-88205678D01*
X123205678Y-88079135D01*
X123305102Y-87930336D01*
X123373587Y-87765000D01*
X123408500Y-87589479D01*
X123408500Y-87410521D01*
X123373587Y-87235000D01*
X123305102Y-87069664D01*
X123305100Y-87069661D01*
X123305098Y-87069657D01*
X123205678Y-86920865D01*
X123205675Y-86920861D01*
X123079138Y-86794324D01*
X123079134Y-86794321D01*
X122930342Y-86694901D01*
X122930332Y-86694896D01*
X122765000Y-86626413D01*
X122764992Y-86626411D01*
X122589483Y-86591500D01*
X122589479Y-86591500D01*
X122410521Y-86591500D01*
X122410516Y-86591500D01*
X122235007Y-86626411D01*
X122234999Y-86626413D01*
X122069667Y-86694896D01*
X122069657Y-86694901D01*
X121920865Y-86794321D01*
X121916155Y-86798187D01*
X121914929Y-86796694D01*
X121861453Y-86825895D01*
X121791761Y-86820911D01*
X121747414Y-86792410D01*
X121628346Y-86673342D01*
X121628342Y-86673339D01*
X121479928Y-86581795D01*
X121479922Y-86581792D01*
X121479920Y-86581791D01*
X121479917Y-86581790D01*
X121314382Y-86526938D01*
X121212214Y-86516500D01*
X120512794Y-86516500D01*
X120512778Y-86516501D01*
X120410617Y-86526938D01*
X120245082Y-86581790D01*
X120245071Y-86581795D01*
X120096657Y-86673339D01*
X120096652Y-86673343D01*
X120081668Y-86688327D01*
X120020344Y-86721811D01*
X119950653Y-86716825D01*
X119906308Y-86688325D01*
X119898038Y-86680055D01*
X119898034Y-86680052D01*
X119751311Y-86589551D01*
X119751300Y-86589546D01*
X119587652Y-86535319D01*
X119486654Y-86525000D01*
X119387500Y-86525000D01*
X118887500Y-86525000D01*
X118887500Y-86524999D01*
X118788360Y-86525000D01*
X118788344Y-86525001D01*
X118687347Y-86535319D01*
X118523699Y-86589546D01*
X118523688Y-86589551D01*
X118376965Y-86680052D01*
X118376961Y-86680055D01*
X118255054Y-86801962D01*
X118171203Y-86937904D01*
X118119254Y-86984628D01*
X118050292Y-86995849D01*
X117986210Y-86968005D01*
X117960126Y-86937903D01*
X117882443Y-86811960D01*
X117760538Y-86690055D01*
X117760534Y-86690052D01*
X117613811Y-86599551D01*
X117613800Y-86599546D01*
X117450152Y-86545319D01*
X117349154Y-86535000D01*
X117250000Y-86535000D01*
X116750000Y-86535000D01*
X116750000Y-86534999D01*
X116650860Y-86535000D01*
X116650844Y-86535001D01*
X116549847Y-86545319D01*
X116386199Y-86599546D01*
X116386188Y-86599551D01*
X116239465Y-86690052D01*
X116231188Y-86698329D01*
X116169864Y-86731811D01*
X116100172Y-86726824D01*
X116055829Y-86698325D01*
X116040846Y-86683342D01*
X116040842Y-86683339D01*
X115892428Y-86591795D01*
X115892422Y-86591792D01*
X115892420Y-86591791D01*
X115885645Y-86589546D01*
X115726882Y-86536938D01*
X115624714Y-86526500D01*
X114925294Y-86526500D01*
X114925278Y-86526501D01*
X114823117Y-86536938D01*
X114657582Y-86591790D01*
X114657571Y-86591795D01*
X114509157Y-86683339D01*
X114442479Y-86750017D01*
X114381155Y-86783501D01*
X114311464Y-86778516D01*
X114285908Y-86765437D01*
X114180347Y-86694904D01*
X114180332Y-86694896D01*
X114015000Y-86626413D01*
X114014992Y-86626411D01*
X113839483Y-86591500D01*
X113839479Y-86591500D01*
X113660521Y-86591500D01*
X113660516Y-86591500D01*
X113485007Y-86626411D01*
X113484999Y-86626413D01*
X113319667Y-86694896D01*
X113319657Y-86694901D01*
X113170865Y-86794321D01*
X113170861Y-86794324D01*
X113044324Y-86920861D01*
X113044321Y-86920865D01*
X112944901Y-87069657D01*
X112944896Y-87069667D01*
X112876413Y-87234999D01*
X112876411Y-87235007D01*
X112841500Y-87410516D01*
X112254500Y-87410516D01*
X112254500Y-86197444D01*
X124161800Y-86197444D01*
X124168201Y-86256972D01*
X124168203Y-86256979D01*
X124218445Y-86391686D01*
X124218449Y-86391693D01*
X124304609Y-86506787D01*
X124304612Y-86506790D01*
X124419706Y-86592950D01*
X124419713Y-86592954D01*
X124554420Y-86643196D01*
X124554427Y-86643198D01*
X124613955Y-86649599D01*
X124613972Y-86649600D01*
X125250000Y-86649600D01*
X125750000Y-86649600D01*
X126386028Y-86649600D01*
X126386044Y-86649599D01*
X126445572Y-86643198D01*
X126445579Y-86643196D01*
X126580286Y-86592954D01*
X126580293Y-86592950D01*
X126695387Y-86506790D01*
X126695390Y-86506787D01*
X126781550Y-86391693D01*
X126781554Y-86391686D01*
X126831796Y-86256979D01*
X126831798Y-86256972D01*
X126838199Y-86197444D01*
X126838200Y-86197427D01*
X126838200Y-85459800D01*
X125750000Y-85459800D01*
X125750000Y-86649600D01*
X125250000Y-86649600D01*
X125250000Y-85459800D01*
X124161800Y-85459800D01*
X124161800Y-86197444D01*
X112254500Y-86197444D01*
X112254500Y-84910516D01*
X112841500Y-84910516D01*
X112841500Y-85089483D01*
X112876411Y-85264992D01*
X112876413Y-85265000D01*
X112944896Y-85430332D01*
X112944901Y-85430342D01*
X113044321Y-85579134D01*
X113044324Y-85579138D01*
X113170861Y-85705675D01*
X113170865Y-85705678D01*
X113319657Y-85805098D01*
X113319661Y-85805100D01*
X113319664Y-85805102D01*
X113485000Y-85873587D01*
X113660516Y-85908499D01*
X113660520Y-85908500D01*
X113660521Y-85908500D01*
X113839480Y-85908500D01*
X113839481Y-85908499D01*
X114015000Y-85873587D01*
X114180336Y-85805102D01*
X114279913Y-85738566D01*
X114346589Y-85717689D01*
X114413969Y-85736173D01*
X114436484Y-85753988D01*
X114509153Y-85826657D01*
X114509157Y-85826660D01*
X114657571Y-85918204D01*
X114657574Y-85918205D01*
X114657580Y-85918209D01*
X114823119Y-85973062D01*
X114925287Y-85983500D01*
X115624712Y-85983499D01*
X115726881Y-85973062D01*
X115892420Y-85918209D01*
X116040846Y-85826658D01*
X116055828Y-85811675D01*
X116117146Y-85778190D01*
X116186838Y-85783171D01*
X116231191Y-85811674D01*
X116239461Y-85819944D01*
X116239465Y-85819947D01*
X116386188Y-85910448D01*
X116386199Y-85910453D01*
X116549847Y-85964680D01*
X116650851Y-85974999D01*
X117250000Y-85974999D01*
X117349140Y-85974999D01*
X117349154Y-85974998D01*
X117450152Y-85964680D01*
X117613800Y-85910453D01*
X117613811Y-85910448D01*
X117760534Y-85819947D01*
X117760538Y-85819944D01*
X117882444Y-85698038D01*
X117882447Y-85698034D01*
X117963212Y-85567096D01*
X118015160Y-85520371D01*
X118084122Y-85509150D01*
X118148204Y-85536993D01*
X118174288Y-85567096D01*
X118255052Y-85698034D01*
X118255055Y-85698038D01*
X118376961Y-85819944D01*
X118376965Y-85819947D01*
X118523688Y-85910448D01*
X118523699Y-85910453D01*
X118687347Y-85964680D01*
X118788351Y-85974999D01*
X118887500Y-85974998D01*
X118887500Y-85250000D01*
X117250000Y-85250000D01*
X117250000Y-85974999D01*
X116650851Y-85974999D01*
X116750000Y-85974998D01*
X116750000Y-84025000D01*
X117250000Y-84025000D01*
X117250000Y-84750000D01*
X118887500Y-84750000D01*
X118887500Y-84025000D01*
X119387500Y-84025000D01*
X119387500Y-85974999D01*
X119486640Y-85974999D01*
X119486654Y-85974998D01*
X119587652Y-85964680D01*
X119751300Y-85910453D01*
X119751311Y-85910448D01*
X119898034Y-85819947D01*
X119906301Y-85811680D01*
X119967622Y-85778191D01*
X120037314Y-85783170D01*
X120081670Y-85811674D01*
X120096653Y-85826657D01*
X120096657Y-85826660D01*
X120245071Y-85918204D01*
X120245074Y-85918205D01*
X120245080Y-85918209D01*
X120410619Y-85973062D01*
X120512787Y-85983500D01*
X121212212Y-85983499D01*
X121314381Y-85973062D01*
X121479920Y-85918209D01*
X121628346Y-85826658D01*
X121747417Y-85707586D01*
X121808736Y-85674104D01*
X121878428Y-85679088D01*
X121915335Y-85702811D01*
X121916155Y-85701813D01*
X121920865Y-85705678D01*
X122069657Y-85805098D01*
X122069661Y-85805100D01*
X122069664Y-85805102D01*
X122235000Y-85873587D01*
X122410516Y-85908499D01*
X122410520Y-85908500D01*
X122410521Y-85908500D01*
X122589480Y-85908500D01*
X122589481Y-85908499D01*
X122765000Y-85873587D01*
X122930336Y-85805102D01*
X123079135Y-85705678D01*
X123205678Y-85579135D01*
X123305102Y-85430336D01*
X123373587Y-85265000D01*
X123408500Y-85089479D01*
X123408500Y-84910521D01*
X123373587Y-84735000D01*
X123305102Y-84569664D01*
X123305100Y-84569661D01*
X123305098Y-84569657D01*
X123205678Y-84420865D01*
X123205675Y-84420861D01*
X123079138Y-84294324D01*
X123079134Y-84294321D01*
X122930342Y-84194901D01*
X122930332Y-84194896D01*
X122765000Y-84126413D01*
X122764992Y-84126411D01*
X122589483Y-84091500D01*
X122589479Y-84091500D01*
X122410521Y-84091500D01*
X122410516Y-84091500D01*
X122235007Y-84126411D01*
X122234999Y-84126413D01*
X122069667Y-84194896D01*
X122069657Y-84194901D01*
X121920865Y-84294321D01*
X121916155Y-84298187D01*
X121914929Y-84296694D01*
X121861453Y-84325895D01*
X121791761Y-84320911D01*
X121747414Y-84292410D01*
X121628346Y-84173342D01*
X121628342Y-84173339D01*
X121479928Y-84081795D01*
X121479922Y-84081792D01*
X121479920Y-84081791D01*
X121399959Y-84055295D01*
X121314382Y-84026938D01*
X121212214Y-84016500D01*
X120512794Y-84016500D01*
X120512778Y-84016501D01*
X120410617Y-84026938D01*
X120245082Y-84081790D01*
X120245071Y-84081795D01*
X120096657Y-84173339D01*
X120096652Y-84173343D01*
X120081668Y-84188327D01*
X120020344Y-84221811D01*
X119950653Y-84216825D01*
X119906308Y-84188325D01*
X119898038Y-84180055D01*
X119898034Y-84180052D01*
X119751311Y-84089551D01*
X119751300Y-84089546D01*
X119587652Y-84035319D01*
X119486654Y-84025000D01*
X119387500Y-84025000D01*
X118887500Y-84025000D01*
X118887500Y-84024999D01*
X118788360Y-84025000D01*
X118788344Y-84025001D01*
X118687347Y-84035319D01*
X118523699Y-84089546D01*
X118523688Y-84089551D01*
X118376965Y-84180052D01*
X118376961Y-84180055D01*
X118255054Y-84301962D01*
X118174288Y-84432904D01*
X118122340Y-84479628D01*
X118053377Y-84490849D01*
X117989295Y-84463006D01*
X117963212Y-84432904D01*
X117882445Y-84301962D01*
X117760538Y-84180055D01*
X117760534Y-84180052D01*
X117613811Y-84089551D01*
X117613800Y-84089546D01*
X117450152Y-84035319D01*
X117349154Y-84025000D01*
X117250000Y-84025000D01*
X116750000Y-84025000D01*
X116750000Y-84024999D01*
X116650860Y-84025000D01*
X116650844Y-84025001D01*
X116549847Y-84035319D01*
X116386199Y-84089546D01*
X116386188Y-84089551D01*
X116239465Y-84180052D01*
X116231188Y-84188329D01*
X116169864Y-84221811D01*
X116100172Y-84216824D01*
X116055829Y-84188325D01*
X116040846Y-84173342D01*
X116040842Y-84173339D01*
X115892428Y-84081795D01*
X115892422Y-84081792D01*
X115892420Y-84081791D01*
X115812459Y-84055295D01*
X115726882Y-84026938D01*
X115624714Y-84016500D01*
X114925294Y-84016500D01*
X114925278Y-84016501D01*
X114823117Y-84026938D01*
X114657582Y-84081790D01*
X114657571Y-84081795D01*
X114509157Y-84173339D01*
X114436484Y-84246012D01*
X114375160Y-84279496D01*
X114305469Y-84274511D01*
X114279912Y-84261432D01*
X114180342Y-84194901D01*
X114180332Y-84194896D01*
X114015000Y-84126413D01*
X114014992Y-84126411D01*
X113839483Y-84091500D01*
X113839479Y-84091500D01*
X113660521Y-84091500D01*
X113660516Y-84091500D01*
X113485007Y-84126411D01*
X113484999Y-84126413D01*
X113319667Y-84194896D01*
X113319657Y-84194901D01*
X113170865Y-84294321D01*
X113170861Y-84294324D01*
X113044324Y-84420861D01*
X113044321Y-84420865D01*
X112944901Y-84569657D01*
X112944896Y-84569667D01*
X112876413Y-84734999D01*
X112876411Y-84735007D01*
X112841500Y-84910516D01*
X112254500Y-84910516D01*
X112254500Y-82410516D01*
X112841500Y-82410516D01*
X112841500Y-82589483D01*
X112876411Y-82764992D01*
X112876413Y-82765000D01*
X112944896Y-82930332D01*
X112944901Y-82930342D01*
X113044321Y-83079134D01*
X113044324Y-83079138D01*
X113170861Y-83205675D01*
X113170865Y-83205678D01*
X113319657Y-83305098D01*
X113319661Y-83305100D01*
X113319664Y-83305102D01*
X113485000Y-83373587D01*
X113620041Y-83400448D01*
X113660516Y-83408499D01*
X113660520Y-83408500D01*
X113660521Y-83408500D01*
X113839480Y-83408500D01*
X113839481Y-83408499D01*
X114015000Y-83373587D01*
X114180336Y-83305102D01*
X114285907Y-83234562D01*
X114352584Y-83213684D01*
X114419965Y-83232168D01*
X114442479Y-83249983D01*
X114509153Y-83316657D01*
X114509157Y-83316660D01*
X114657571Y-83408204D01*
X114657574Y-83408205D01*
X114657580Y-83408209D01*
X114823119Y-83463062D01*
X114925287Y-83473500D01*
X115624712Y-83473499D01*
X115726881Y-83463062D01*
X115892420Y-83408209D01*
X116024629Y-83326661D01*
X116040843Y-83316660D01*
X116040843Y-83316659D01*
X116040846Y-83316658D01*
X116055828Y-83301675D01*
X116117146Y-83268190D01*
X116186838Y-83273171D01*
X116231191Y-83301674D01*
X116239461Y-83309944D01*
X116239465Y-83309947D01*
X116386188Y-83400448D01*
X116386199Y-83400453D01*
X116549847Y-83454680D01*
X116650851Y-83464999D01*
X117250000Y-83464999D01*
X117349140Y-83464999D01*
X117349154Y-83464998D01*
X117450152Y-83454680D01*
X117613800Y-83400453D01*
X117613811Y-83400448D01*
X117760534Y-83309947D01*
X117760538Y-83309944D01*
X117882443Y-83188039D01*
X117960126Y-83062096D01*
X118012074Y-83015372D01*
X118081037Y-83004149D01*
X118145119Y-83031993D01*
X118171203Y-83062095D01*
X118255054Y-83198037D01*
X118376961Y-83319944D01*
X118376965Y-83319947D01*
X118523688Y-83410448D01*
X118523699Y-83410453D01*
X118687347Y-83464680D01*
X118788351Y-83474999D01*
X118887500Y-83474998D01*
X118887500Y-82750000D01*
X118031362Y-82750000D01*
X117997306Y-82740000D01*
X117250000Y-82740000D01*
X117250000Y-83464999D01*
X116650851Y-83464999D01*
X116750000Y-83464998D01*
X116750000Y-82240000D01*
X117250000Y-82240000D01*
X118106138Y-82240000D01*
X118140194Y-82250000D01*
X118887500Y-82250000D01*
X118887500Y-81525000D01*
X119387500Y-81525000D01*
X119387500Y-83474999D01*
X119486640Y-83474999D01*
X119486654Y-83474998D01*
X119587652Y-83464680D01*
X119751300Y-83410453D01*
X119751311Y-83410448D01*
X119898034Y-83319947D01*
X119906301Y-83311680D01*
X119967622Y-83278191D01*
X120037314Y-83283170D01*
X120081670Y-83311674D01*
X120096653Y-83326657D01*
X120096657Y-83326660D01*
X120245071Y-83418204D01*
X120245074Y-83418205D01*
X120245080Y-83418209D01*
X120410619Y-83473062D01*
X120512787Y-83483500D01*
X121212212Y-83483499D01*
X121314381Y-83473062D01*
X121479920Y-83418209D01*
X121628346Y-83326658D01*
X121747417Y-83207586D01*
X121808736Y-83174104D01*
X121878428Y-83179088D01*
X121915335Y-83202811D01*
X121916155Y-83201813D01*
X121920865Y-83205678D01*
X122069657Y-83305098D01*
X122069661Y-83305100D01*
X122069664Y-83305102D01*
X122235000Y-83373587D01*
X122370041Y-83400448D01*
X122410516Y-83408499D01*
X122410520Y-83408500D01*
X122410521Y-83408500D01*
X122589480Y-83408500D01*
X122589481Y-83408499D01*
X122765000Y-83373587D01*
X122930336Y-83305102D01*
X123079135Y-83205678D01*
X123205678Y-83079135D01*
X123305102Y-82930336D01*
X123373587Y-82765000D01*
X123408500Y-82589479D01*
X123408500Y-82410521D01*
X123373587Y-82235000D01*
X123305102Y-82069664D01*
X123305100Y-82069661D01*
X123305098Y-82069657D01*
X123205678Y-81920865D01*
X123205675Y-81920861D01*
X123079138Y-81794324D01*
X123079134Y-81794321D01*
X122930342Y-81694901D01*
X122930332Y-81694896D01*
X122765000Y-81626413D01*
X122764992Y-81626411D01*
X122589483Y-81591500D01*
X122589479Y-81591500D01*
X122410521Y-81591500D01*
X122410516Y-81591500D01*
X122235007Y-81626411D01*
X122234999Y-81626413D01*
X122069667Y-81694896D01*
X122069657Y-81694901D01*
X121920865Y-81794321D01*
X121916155Y-81798187D01*
X121914929Y-81796694D01*
X121861453Y-81825895D01*
X121791761Y-81820911D01*
X121747414Y-81792410D01*
X121628346Y-81673342D01*
X121628342Y-81673339D01*
X121479928Y-81581795D01*
X121479922Y-81581792D01*
X121479920Y-81581791D01*
X121473145Y-81579546D01*
X121314382Y-81526938D01*
X121212214Y-81516500D01*
X120512794Y-81516500D01*
X120512778Y-81516501D01*
X120410617Y-81526938D01*
X120245082Y-81581790D01*
X120245071Y-81581795D01*
X120096657Y-81673339D01*
X120096652Y-81673343D01*
X120081668Y-81688327D01*
X120020344Y-81721811D01*
X119950653Y-81716825D01*
X119906308Y-81688325D01*
X119898038Y-81680055D01*
X119898034Y-81680052D01*
X119751311Y-81589551D01*
X119751300Y-81589546D01*
X119587652Y-81535319D01*
X119486654Y-81525000D01*
X119387500Y-81525000D01*
X118887500Y-81525000D01*
X118887500Y-81524999D01*
X118788360Y-81525000D01*
X118788344Y-81525001D01*
X118687347Y-81535319D01*
X118523699Y-81589546D01*
X118523688Y-81589551D01*
X118376965Y-81680052D01*
X118376961Y-81680055D01*
X118255054Y-81801962D01*
X118177372Y-81927904D01*
X118125424Y-81974628D01*
X118056461Y-81985849D01*
X117992379Y-81958006D01*
X117966296Y-81927904D01*
X117882445Y-81791962D01*
X117760538Y-81670055D01*
X117760534Y-81670052D01*
X117613811Y-81579551D01*
X117613800Y-81579546D01*
X117450152Y-81525319D01*
X117349154Y-81515000D01*
X117250000Y-81515000D01*
X117250000Y-82240000D01*
X116750000Y-82240000D01*
X116750000Y-81514999D01*
X116650860Y-81515000D01*
X116650844Y-81515001D01*
X116549847Y-81525319D01*
X116386199Y-81579546D01*
X116386188Y-81579551D01*
X116239465Y-81670052D01*
X116231188Y-81678329D01*
X116169864Y-81711811D01*
X116100172Y-81706824D01*
X116055829Y-81678325D01*
X116040846Y-81663342D01*
X116040842Y-81663339D01*
X115892428Y-81571795D01*
X115892422Y-81571792D01*
X115892420Y-81571791D01*
X115872575Y-81565215D01*
X115726882Y-81516938D01*
X115624714Y-81506500D01*
X114925294Y-81506500D01*
X114925278Y-81506501D01*
X114823117Y-81516938D01*
X114657582Y-81571790D01*
X114657571Y-81571795D01*
X114509157Y-81663339D01*
X114430490Y-81742006D01*
X114369166Y-81775490D01*
X114299475Y-81770506D01*
X114273919Y-81757427D01*
X114180340Y-81694900D01*
X114180332Y-81694896D01*
X114015000Y-81626413D01*
X114014992Y-81626411D01*
X113839483Y-81591500D01*
X113839479Y-81591500D01*
X113660521Y-81591500D01*
X113660516Y-81591500D01*
X113485007Y-81626411D01*
X113484999Y-81626413D01*
X113319667Y-81694896D01*
X113319657Y-81694901D01*
X113170865Y-81794321D01*
X113170861Y-81794324D01*
X113044324Y-81920861D01*
X113044321Y-81920865D01*
X112944901Y-82069657D01*
X112944896Y-82069667D01*
X112876413Y-82234999D01*
X112876411Y-82235007D01*
X112841500Y-82410516D01*
X112254500Y-82410516D01*
X112254500Y-79910516D01*
X112841500Y-79910516D01*
X112841500Y-80089483D01*
X112876411Y-80264992D01*
X112876413Y-80265000D01*
X112944896Y-80430332D01*
X112944901Y-80430342D01*
X113044321Y-80579134D01*
X113044324Y-80579138D01*
X113170861Y-80705675D01*
X113170865Y-80705678D01*
X113319657Y-80805098D01*
X113319661Y-80805100D01*
X113319664Y-80805102D01*
X113485000Y-80873587D01*
X113660516Y-80908499D01*
X113660520Y-80908500D01*
X113660521Y-80908500D01*
X113839480Y-80908500D01*
X113839481Y-80908499D01*
X114015000Y-80873587D01*
X114180336Y-80805102D01*
X114291904Y-80730554D01*
X114358578Y-80709678D01*
X114425958Y-80728162D01*
X114448473Y-80745977D01*
X114509153Y-80806657D01*
X114509157Y-80806660D01*
X114657571Y-80898204D01*
X114657574Y-80898205D01*
X114657580Y-80898209D01*
X114823119Y-80953062D01*
X114925287Y-80963500D01*
X115624712Y-80963499D01*
X115726881Y-80953062D01*
X115892420Y-80898209D01*
X115937629Y-80870322D01*
X116040843Y-80806660D01*
X116040843Y-80806659D01*
X116040846Y-80806658D01*
X116055828Y-80791675D01*
X116117146Y-80758190D01*
X116186838Y-80763171D01*
X116231191Y-80791674D01*
X116239461Y-80799944D01*
X116239465Y-80799947D01*
X116386188Y-80890448D01*
X116386199Y-80890453D01*
X116549847Y-80944680D01*
X116650851Y-80954999D01*
X117250000Y-80954999D01*
X117349140Y-80954999D01*
X117349154Y-80954998D01*
X117450152Y-80944680D01*
X117613800Y-80890453D01*
X117613811Y-80890448D01*
X117760534Y-80799947D01*
X117760538Y-80799944D01*
X117882443Y-80678039D01*
X117957042Y-80557096D01*
X118008990Y-80510372D01*
X118077953Y-80499149D01*
X118142035Y-80526993D01*
X118168119Y-80557095D01*
X118255054Y-80698037D01*
X118376961Y-80819944D01*
X118376965Y-80819947D01*
X118523688Y-80910448D01*
X118523699Y-80910453D01*
X118687347Y-80964680D01*
X118788351Y-80974999D01*
X118887500Y-80974998D01*
X118887500Y-80250000D01*
X118041362Y-80250000D01*
X117974323Y-80230315D01*
X117973932Y-80230000D01*
X117250000Y-80230000D01*
X117250000Y-80954999D01*
X116650851Y-80954999D01*
X116750000Y-80954998D01*
X116750000Y-79730000D01*
X117250000Y-79730000D01*
X118096138Y-79730000D01*
X118163177Y-79749685D01*
X118163568Y-79750000D01*
X118887500Y-79750000D01*
X118887500Y-79025000D01*
X119387500Y-79025000D01*
X119387500Y-80974999D01*
X119486640Y-80974999D01*
X119486654Y-80974998D01*
X119587652Y-80964680D01*
X119751300Y-80910453D01*
X119751311Y-80910448D01*
X119898034Y-80819947D01*
X119906301Y-80811680D01*
X119967622Y-80778191D01*
X120037314Y-80783170D01*
X120081670Y-80811674D01*
X120096653Y-80826657D01*
X120096657Y-80826660D01*
X120245071Y-80918204D01*
X120245074Y-80918205D01*
X120245080Y-80918209D01*
X120410619Y-80973062D01*
X120512787Y-80983500D01*
X121212212Y-80983499D01*
X121314381Y-80973062D01*
X121479920Y-80918209D01*
X121628346Y-80826658D01*
X121747417Y-80707586D01*
X121808736Y-80674104D01*
X121878428Y-80679088D01*
X121915335Y-80702811D01*
X121916155Y-80701813D01*
X121920865Y-80705678D01*
X122069657Y-80805098D01*
X122069661Y-80805100D01*
X122069664Y-80805102D01*
X122235000Y-80873587D01*
X122410516Y-80908499D01*
X122410520Y-80908500D01*
X122410521Y-80908500D01*
X122589480Y-80908500D01*
X122589481Y-80908499D01*
X122765000Y-80873587D01*
X122930336Y-80805102D01*
X123079135Y-80705678D01*
X123205678Y-80579135D01*
X123305102Y-80430336D01*
X123373587Y-80265000D01*
X123408500Y-80089479D01*
X123408500Y-79910521D01*
X123373587Y-79735000D01*
X123305102Y-79569664D01*
X123305100Y-79569661D01*
X123305098Y-79569657D01*
X123205678Y-79420865D01*
X123205675Y-79420861D01*
X123079138Y-79294324D01*
X123079134Y-79294321D01*
X122930342Y-79194901D01*
X122930332Y-79194896D01*
X122765000Y-79126413D01*
X122764992Y-79126411D01*
X122589483Y-79091500D01*
X122589479Y-79091500D01*
X122410521Y-79091500D01*
X122410516Y-79091500D01*
X122235007Y-79126411D01*
X122234999Y-79126413D01*
X122069667Y-79194896D01*
X122069657Y-79194901D01*
X121920865Y-79294321D01*
X121916155Y-79298187D01*
X121914929Y-79296694D01*
X121861453Y-79325895D01*
X121791761Y-79320911D01*
X121747414Y-79292410D01*
X121628346Y-79173342D01*
X121628342Y-79173339D01*
X121479928Y-79081795D01*
X121479922Y-79081792D01*
X121479920Y-79081791D01*
X121479917Y-79081790D01*
X121314382Y-79026938D01*
X121212214Y-79016500D01*
X120512794Y-79016500D01*
X120512778Y-79016501D01*
X120410617Y-79026938D01*
X120245082Y-79081790D01*
X120245071Y-79081795D01*
X120096657Y-79173339D01*
X120096652Y-79173343D01*
X120081668Y-79188327D01*
X120020344Y-79221811D01*
X119950653Y-79216825D01*
X119906308Y-79188325D01*
X119898038Y-79180055D01*
X119898034Y-79180052D01*
X119751311Y-79089551D01*
X119751300Y-79089546D01*
X119587652Y-79035319D01*
X119486654Y-79025000D01*
X119387500Y-79025000D01*
X118887500Y-79025000D01*
X118887500Y-79024999D01*
X118788360Y-79025000D01*
X118788344Y-79025001D01*
X118687347Y-79035319D01*
X118523699Y-79089546D01*
X118523688Y-79089551D01*
X118376965Y-79180052D01*
X118376961Y-79180055D01*
X118255054Y-79301962D01*
X118180456Y-79422904D01*
X118128508Y-79469628D01*
X118059545Y-79480849D01*
X117995463Y-79453006D01*
X117969380Y-79422903D01*
X117882447Y-79281965D01*
X117882444Y-79281961D01*
X117760538Y-79160055D01*
X117760534Y-79160052D01*
X117613811Y-79069551D01*
X117613800Y-79069546D01*
X117450152Y-79015319D01*
X117349154Y-79005000D01*
X117250000Y-79005000D01*
X117250000Y-79730000D01*
X116750000Y-79730000D01*
X116750000Y-79004999D01*
X116650860Y-79005000D01*
X116650844Y-79005001D01*
X116549847Y-79015319D01*
X116386199Y-79069546D01*
X116386188Y-79069551D01*
X116239465Y-79160052D01*
X116231188Y-79168329D01*
X116169864Y-79201811D01*
X116100172Y-79196824D01*
X116055829Y-79168325D01*
X116040846Y-79153342D01*
X116040842Y-79153339D01*
X115892428Y-79061795D01*
X115892422Y-79061792D01*
X115892420Y-79061791D01*
X115891228Y-79061396D01*
X115726882Y-79006938D01*
X115624714Y-78996500D01*
X114925294Y-78996500D01*
X114925278Y-78996501D01*
X114823117Y-79006938D01*
X114657582Y-79061790D01*
X114657571Y-79061795D01*
X114509157Y-79153339D01*
X114424495Y-79238001D01*
X114363171Y-79271485D01*
X114293480Y-79266501D01*
X114267923Y-79253421D01*
X114180342Y-79194901D01*
X114180332Y-79194896D01*
X114015000Y-79126413D01*
X114014992Y-79126411D01*
X113839483Y-79091500D01*
X113839479Y-79091500D01*
X113660521Y-79091500D01*
X113660516Y-79091500D01*
X113485007Y-79126411D01*
X113484999Y-79126413D01*
X113319667Y-79194896D01*
X113319657Y-79194901D01*
X113170865Y-79294321D01*
X113170861Y-79294324D01*
X113044324Y-79420861D01*
X113044321Y-79420865D01*
X112944901Y-79569657D01*
X112944896Y-79569667D01*
X112876413Y-79734999D01*
X112876411Y-79735007D01*
X112841500Y-79910516D01*
X112254500Y-79910516D01*
X112254500Y-76715649D01*
X122575000Y-76715649D01*
X122577899Y-76752489D01*
X122577900Y-76752495D01*
X122623716Y-76910193D01*
X122623717Y-76910196D01*
X122707314Y-77051552D01*
X122707321Y-77051561D01*
X122823438Y-77167678D01*
X122823447Y-77167685D01*
X122964801Y-77251281D01*
X123122514Y-77297100D01*
X123122511Y-77297100D01*
X123124998Y-77297295D01*
X123125000Y-77297295D01*
X123125000Y-76200000D01*
X122575000Y-76200000D01*
X122575000Y-76715649D01*
X112254500Y-76715649D01*
X112254500Y-75184350D01*
X122575000Y-75184350D01*
X122575000Y-75700000D01*
X123125000Y-75700000D01*
X123125000Y-74602703D01*
X123625000Y-74602703D01*
X123625000Y-77297295D01*
X123625001Y-77297295D01*
X123627486Y-77297100D01*
X123785196Y-77251282D01*
X123830551Y-77224459D01*
X123898275Y-77207276D01*
X123964538Y-77229435D01*
X124008301Y-77283901D01*
X124015289Y-77306993D01*
X124015843Y-77309778D01*
X124015845Y-77309785D01*
X124063598Y-77425072D01*
X124063603Y-77425081D01*
X124132928Y-77528832D01*
X124132931Y-77528836D01*
X124596163Y-77992068D01*
X124596167Y-77992071D01*
X124699918Y-78061396D01*
X124699924Y-78061399D01*
X124699925Y-78061400D01*
X124815215Y-78109155D01*
X124937601Y-78133499D01*
X124937605Y-78133500D01*
X124937606Y-78133500D01*
X125062394Y-78133500D01*
X125171234Y-78133500D01*
X125238273Y-78153185D01*
X125284028Y-78205989D01*
X125293972Y-78275147D01*
X125264947Y-78338703D01*
X125258920Y-78345174D01*
X125096167Y-78507929D01*
X125052047Y-78552049D01*
X125007927Y-78596168D01*
X124938603Y-78699918D01*
X124938598Y-78699927D01*
X124890845Y-78815214D01*
X124890843Y-78815222D01*
X124866500Y-78937601D01*
X124866500Y-79217900D01*
X124846815Y-79284939D01*
X124794011Y-79330694D01*
X124742500Y-79341900D01*
X124613145Y-79341900D01*
X124552597Y-79348411D01*
X124552595Y-79348411D01*
X124415595Y-79399511D01*
X124298539Y-79487139D01*
X124210911Y-79604195D01*
X124159811Y-79741195D01*
X124159811Y-79741197D01*
X124153300Y-79801745D01*
X124153300Y-81666438D01*
X124133615Y-81733477D01*
X124116981Y-81754119D01*
X124090300Y-81780800D01*
X124090300Y-84219200D01*
X124125481Y-84254381D01*
X124158966Y-84315704D01*
X124161800Y-84342062D01*
X124161800Y-84959800D01*
X126838200Y-84959800D01*
X126838200Y-84342062D01*
X126857885Y-84275023D01*
X126874519Y-84254381D01*
X126909700Y-84219200D01*
X126909700Y-81780800D01*
X126883019Y-81754119D01*
X126849534Y-81692796D01*
X126846700Y-81666438D01*
X126846700Y-81547700D01*
X126866385Y-81480661D01*
X126919189Y-81434906D01*
X126970700Y-81423700D01*
X126976434Y-81423700D01*
X127043473Y-81443385D01*
X127064115Y-81460019D01*
X127580181Y-81976085D01*
X127613666Y-82037408D01*
X127616500Y-82063766D01*
X127616500Y-88530212D01*
X127596815Y-88597251D01*
X127557599Y-88635750D01*
X127496652Y-88673343D01*
X127373339Y-88796657D01*
X127281795Y-88945071D01*
X127281790Y-88945082D01*
X127226938Y-89110617D01*
X127216500Y-89212779D01*
X127216500Y-89787205D01*
X127216501Y-89787221D01*
X127226938Y-89889382D01*
X127281790Y-90054917D01*
X127281795Y-90054928D01*
X127373339Y-90203342D01*
X127373342Y-90203346D01*
X127496653Y-90326657D01*
X127496657Y-90326660D01*
X127645071Y-90418204D01*
X127645074Y-90418205D01*
X127645080Y-90418209D01*
X127810619Y-90473062D01*
X127912787Y-90483500D01*
X128587212Y-90483499D01*
X128689381Y-90473062D01*
X128854920Y-90418209D01*
X129003346Y-90326658D01*
X129037319Y-90292685D01*
X129098642Y-90259200D01*
X129168334Y-90264184D01*
X129212681Y-90292685D01*
X129246653Y-90326657D01*
X129246657Y-90326660D01*
X129395071Y-90418204D01*
X129395074Y-90418205D01*
X129395080Y-90418209D01*
X129560619Y-90473062D01*
X129662787Y-90483500D01*
X130337212Y-90483499D01*
X130439381Y-90473062D01*
X130604920Y-90418209D01*
X130753346Y-90326658D01*
X130876658Y-90203346D01*
X130968209Y-90054920D01*
X131023062Y-89889381D01*
X131033500Y-89787213D01*
X131033499Y-89595879D01*
X131053183Y-89528842D01*
X131105987Y-89483087D01*
X131175145Y-89473143D01*
X131226390Y-89492779D01*
X131319657Y-89555098D01*
X131319661Y-89555100D01*
X131319664Y-89555102D01*
X131485000Y-89623587D01*
X131554906Y-89637492D01*
X131616816Y-89669876D01*
X131651390Y-89730592D01*
X131647651Y-89800361D01*
X131618396Y-89846790D01*
X131544321Y-89920865D01*
X131444901Y-90069657D01*
X131444896Y-90069667D01*
X131376413Y-90234999D01*
X131376411Y-90235007D01*
X131341500Y-90410516D01*
X131341500Y-90495554D01*
X131321815Y-90562593D01*
X131320604Y-90564442D01*
X131313599Y-90574925D01*
X131265845Y-90690214D01*
X131265843Y-90690222D01*
X131241500Y-90812601D01*
X131241500Y-91350877D01*
X131221815Y-91417916D01*
X131205181Y-91438558D01*
X131200551Y-91443187D01*
X131200544Y-91443196D01*
X131115855Y-91586398D01*
X131115853Y-91586403D01*
X131069438Y-91746164D01*
X131069437Y-91746170D01*
X131066500Y-91783492D01*
X131066500Y-93316507D01*
X131069437Y-93353829D01*
X131069438Y-93353835D01*
X131115853Y-93513596D01*
X131115855Y-93513601D01*
X131200544Y-93656803D01*
X131200551Y-93656812D01*
X131318187Y-93774448D01*
X131318196Y-93774455D01*
X131322944Y-93777263D01*
X131461399Y-93859145D01*
X131503530Y-93871385D01*
X131621164Y-93905561D01*
X131621167Y-93905561D01*
X131621169Y-93905562D01*
X131658498Y-93908500D01*
X131658504Y-93908500D01*
X132091496Y-93908500D01*
X132091502Y-93908500D01*
X132128831Y-93905562D01*
X132128833Y-93905561D01*
X132128835Y-93905561D01*
X132170962Y-93893321D01*
X132288601Y-93859145D01*
X132431807Y-93774453D01*
X132431808Y-93774451D01*
X132436879Y-93771453D01*
X132504603Y-93754270D01*
X132563121Y-93771453D01*
X132568191Y-93774451D01*
X132568193Y-93774453D01*
X132711399Y-93859145D01*
X132753530Y-93871385D01*
X132871164Y-93905561D01*
X132871167Y-93905561D01*
X132871169Y-93905562D01*
X132908498Y-93908500D01*
X132908504Y-93908500D01*
X133341496Y-93908500D01*
X133341502Y-93908500D01*
X133378831Y-93905562D01*
X133378833Y-93905561D01*
X133378835Y-93905561D01*
X133420962Y-93893321D01*
X133538601Y-93859145D01*
X133681807Y-93774453D01*
X133799453Y-93656807D01*
X133884145Y-93513601D01*
X133930562Y-93353831D01*
X133933500Y-93316502D01*
X133933500Y-91783498D01*
X133933499Y-91783484D01*
X133932220Y-91767226D01*
X133946586Y-91698849D01*
X133995638Y-91649094D01*
X134055838Y-91633500D01*
X140562395Y-91633500D01*
X140562396Y-91633499D01*
X140684785Y-91609155D01*
X140800075Y-91561400D01*
X140903833Y-91492071D01*
X141589572Y-90806333D01*
X141658901Y-90702575D01*
X141706655Y-90587284D01*
X141709114Y-90574925D01*
X141731000Y-90464894D01*
X141731000Y-90133764D01*
X141750685Y-90066725D01*
X141767319Y-90046083D01*
X141825097Y-89988305D01*
X141909082Y-89849376D01*
X141957379Y-89694386D01*
X141963500Y-89627030D01*
X141963500Y-89198970D01*
X141957379Y-89131614D01*
X141909082Y-88976624D01*
X141909081Y-88976622D01*
X141825100Y-88837699D01*
X141825097Y-88837695D01*
X141710304Y-88722902D01*
X141710300Y-88722899D01*
X141571377Y-88638918D01*
X141571375Y-88638917D01*
X141547453Y-88631463D01*
X141496663Y-88600759D01*
X140169819Y-87273915D01*
X140136334Y-87212592D01*
X140133500Y-87186234D01*
X140133500Y-86331000D01*
X140153185Y-86263961D01*
X140205989Y-86218206D01*
X140257500Y-86207000D01*
X140691638Y-86207000D01*
X140691654Y-86206999D01*
X140718692Y-86204091D01*
X140752201Y-86200489D01*
X140760411Y-86197427D01*
X140766768Y-86195055D01*
X140889204Y-86149389D01*
X141006261Y-86061761D01*
X141093889Y-85944704D01*
X141144989Y-85807701D01*
X141150764Y-85753988D01*
X141151499Y-85747154D01*
X141151500Y-85747137D01*
X141151500Y-84252862D01*
X141151499Y-84252845D01*
X141147626Y-84216825D01*
X141144989Y-84192299D01*
X141143508Y-84188329D01*
X141122522Y-84132064D01*
X141093889Y-84055296D01*
X141006261Y-83938239D01*
X140889204Y-83850611D01*
X140752203Y-83799511D01*
X140691654Y-83793000D01*
X140691638Y-83793000D01*
X138308362Y-83793000D01*
X138308345Y-83793000D01*
X138247797Y-83799511D01*
X138247795Y-83799511D01*
X138110795Y-83850611D01*
X137993739Y-83938239D01*
X137906111Y-84055295D01*
X137855011Y-84192295D01*
X137855011Y-84192297D01*
X137848500Y-84252845D01*
X137848500Y-85747154D01*
X137855011Y-85807702D01*
X137855011Y-85807704D01*
X137892607Y-85908499D01*
X137906111Y-85944704D01*
X137993739Y-86061761D01*
X138110796Y-86149389D01*
X138225949Y-86192339D01*
X138239589Y-86197427D01*
X138247799Y-86200489D01*
X138275050Y-86203418D01*
X138308345Y-86206999D01*
X138308362Y-86207000D01*
X138742500Y-86207000D01*
X138809539Y-86226685D01*
X138855294Y-86279489D01*
X138866500Y-86331000D01*
X138866500Y-87562398D01*
X138890843Y-87684777D01*
X138890845Y-87684785D01*
X138938598Y-87800072D01*
X138938603Y-87800081D01*
X139007928Y-87903832D01*
X139007931Y-87903836D01*
X139523278Y-88419183D01*
X139556763Y-88480506D01*
X139551779Y-88550198D01*
X139509907Y-88606131D01*
X139472488Y-88625249D01*
X139428624Y-88638917D01*
X139428622Y-88638918D01*
X139289699Y-88722899D01*
X139289695Y-88722902D01*
X139269417Y-88743181D01*
X139208094Y-88776666D01*
X139181736Y-88779500D01*
X137428946Y-88779500D01*
X137361907Y-88759815D01*
X137323407Y-88720596D01*
X137316658Y-88709654D01*
X137193346Y-88586342D01*
X137193342Y-88586339D01*
X137044928Y-88494795D01*
X137044922Y-88494792D01*
X137044920Y-88494791D01*
X137010839Y-88483498D01*
X136879382Y-88439938D01*
X136777214Y-88429500D01*
X136077794Y-88429500D01*
X136077778Y-88429501D01*
X135975617Y-88439938D01*
X135810082Y-88494790D01*
X135810071Y-88494795D01*
X135661657Y-88586339D01*
X135661653Y-88586342D01*
X135652681Y-88595315D01*
X135591358Y-88628800D01*
X135521666Y-88623816D01*
X135477319Y-88595315D01*
X135468346Y-88586342D01*
X135468342Y-88586339D01*
X135319928Y-88494795D01*
X135319922Y-88494792D01*
X135319920Y-88494791D01*
X135285839Y-88483498D01*
X135154382Y-88439938D01*
X135052214Y-88429500D01*
X134352794Y-88429500D01*
X134352778Y-88429501D01*
X134250617Y-88439938D01*
X134085082Y-88494790D01*
X134085071Y-88494795D01*
X133936657Y-88586339D01*
X133936653Y-88586342D01*
X133813341Y-88709654D01*
X133806593Y-88720596D01*
X133754646Y-88767321D01*
X133701054Y-88779500D01*
X132782500Y-88779500D01*
X132715461Y-88759815D01*
X132669706Y-88707011D01*
X132660872Y-88666407D01*
X132659097Y-88666582D01*
X132658500Y-88660526D01*
X132658500Y-88660521D01*
X132623587Y-88485000D01*
X132555102Y-88319664D01*
X132555100Y-88319661D01*
X132555098Y-88319657D01*
X132455678Y-88170865D01*
X132455675Y-88170861D01*
X132329138Y-88044324D01*
X132329134Y-88044321D01*
X132180342Y-87944901D01*
X132180332Y-87944896D01*
X132012851Y-87875523D01*
X131958448Y-87831682D01*
X131936383Y-87765388D01*
X131953662Y-87697688D01*
X131972623Y-87673281D01*
X132371990Y-87273915D01*
X132843086Y-86802819D01*
X132904409Y-86769334D01*
X132930767Y-86766500D01*
X136203638Y-86766500D01*
X136203654Y-86766499D01*
X136230692Y-86763591D01*
X136264201Y-86759989D01*
X136401204Y-86708889D01*
X136518261Y-86621261D01*
X136605889Y-86504204D01*
X136656989Y-86367201D01*
X136660881Y-86331000D01*
X136663499Y-86306654D01*
X136663500Y-86306637D01*
X136663500Y-81078845D01*
X137848500Y-81078845D01*
X137848500Y-82573154D01*
X137855011Y-82633702D01*
X137855011Y-82633704D01*
X137903983Y-82765000D01*
X137906111Y-82770704D01*
X137993739Y-82887761D01*
X138110796Y-82975389D01*
X138247799Y-83026489D01*
X138275050Y-83029418D01*
X138308345Y-83032999D01*
X138308362Y-83033000D01*
X140691638Y-83033000D01*
X140691654Y-83032999D01*
X140718692Y-83030091D01*
X140752201Y-83026489D01*
X140889204Y-82975389D01*
X141006261Y-82887761D01*
X141093889Y-82770704D01*
X141144989Y-82633701D01*
X141149743Y-82589479D01*
X141151499Y-82573154D01*
X141151500Y-82573137D01*
X141151500Y-81078862D01*
X141151499Y-81078845D01*
X141148157Y-81047770D01*
X141144989Y-81018299D01*
X141128838Y-80974998D01*
X141104762Y-80910448D01*
X141093889Y-80881296D01*
X141006261Y-80764239D01*
X140889204Y-80676611D01*
X140850259Y-80662085D01*
X140752203Y-80625511D01*
X140691654Y-80619000D01*
X140691638Y-80619000D01*
X140257500Y-80619000D01*
X140190461Y-80599315D01*
X140144706Y-80546511D01*
X140133500Y-80495000D01*
X140133500Y-78452675D01*
X140153185Y-78385636D01*
X140169820Y-78364993D01*
X140205675Y-78329138D01*
X140205678Y-78329135D01*
X140305102Y-78180336D01*
X140373587Y-78015000D01*
X140408500Y-77839479D01*
X140408500Y-77660521D01*
X140373587Y-77485000D01*
X140305102Y-77319664D01*
X140305100Y-77319661D01*
X140305098Y-77319657D01*
X140205678Y-77170865D01*
X140205675Y-77170861D01*
X140079138Y-77044324D01*
X140079134Y-77044321D01*
X139930342Y-76944901D01*
X139930332Y-76944896D01*
X139765000Y-76876413D01*
X139764992Y-76876411D01*
X139589483Y-76841500D01*
X139589479Y-76841500D01*
X139410521Y-76841500D01*
X139410516Y-76841500D01*
X139235007Y-76876411D01*
X139234999Y-76876413D01*
X139069667Y-76944896D01*
X139069657Y-76944901D01*
X138920865Y-77044321D01*
X138920861Y-77044324D01*
X138794324Y-77170861D01*
X138794321Y-77170865D01*
X138694901Y-77319657D01*
X138694896Y-77319667D01*
X138626413Y-77484999D01*
X138626411Y-77485007D01*
X138591500Y-77660516D01*
X138591500Y-77839483D01*
X138626411Y-78014992D01*
X138626413Y-78015000D01*
X138694896Y-78180332D01*
X138694901Y-78180342D01*
X138794321Y-78329134D01*
X138794324Y-78329138D01*
X138830180Y-78364993D01*
X138863666Y-78426315D01*
X138866500Y-78452675D01*
X138866500Y-80495000D01*
X138846815Y-80562039D01*
X138794011Y-80607794D01*
X138742500Y-80619000D01*
X138308345Y-80619000D01*
X138247797Y-80625511D01*
X138247795Y-80625511D01*
X138110795Y-80676611D01*
X137993739Y-80764239D01*
X137906111Y-80881295D01*
X137855011Y-81018295D01*
X137855011Y-81018297D01*
X137848500Y-81078845D01*
X136663500Y-81078845D01*
X136663500Y-80519362D01*
X136663499Y-80519345D01*
X136660157Y-80488270D01*
X136656989Y-80458799D01*
X136646371Y-80430332D01*
X136623637Y-80369381D01*
X136605889Y-80321796D01*
X136518261Y-80204739D01*
X136401204Y-80117111D01*
X136264203Y-80066011D01*
X136203654Y-80059500D01*
X136203638Y-80059500D01*
X129926362Y-80059500D01*
X129926345Y-80059500D01*
X129865797Y-80066011D01*
X129865795Y-80066011D01*
X129728795Y-80117111D01*
X129611739Y-80204739D01*
X129524111Y-80321795D01*
X129473011Y-80458795D01*
X129473011Y-80458797D01*
X129466500Y-80519345D01*
X129466500Y-86306654D01*
X129473011Y-86367202D01*
X129473011Y-86367204D01*
X129524111Y-86504204D01*
X129611739Y-86621261D01*
X129728796Y-86708889D01*
X129865799Y-86759989D01*
X129893050Y-86762918D01*
X129926345Y-86766499D01*
X129926362Y-86766500D01*
X130788233Y-86766500D01*
X130855272Y-86786185D01*
X130901027Y-86838989D01*
X130910971Y-86908147D01*
X130881946Y-86971703D01*
X130875914Y-86978181D01*
X130180815Y-87673281D01*
X129596167Y-88257929D01*
X129570926Y-88283170D01*
X129507927Y-88346168D01*
X129438603Y-88449918D01*
X129438600Y-88449924D01*
X129395511Y-88553949D01*
X129351669Y-88608352D01*
X129346048Y-88612033D01*
X129246653Y-88673341D01*
X129246652Y-88673342D01*
X129212681Y-88707314D01*
X129151358Y-88740799D01*
X129081666Y-88735815D01*
X129037319Y-88707314D01*
X129003350Y-88673345D01*
X129003347Y-88673343D01*
X129003346Y-88673342D01*
X128942401Y-88635750D01*
X128895678Y-88583801D01*
X128883500Y-88530212D01*
X128883500Y-81687605D01*
X128883499Y-81687601D01*
X128871328Y-81626413D01*
X128859155Y-81565215D01*
X128811400Y-81449925D01*
X128811399Y-81449924D01*
X128811396Y-81449918D01*
X128742072Y-81346168D01*
X128742071Y-81346167D01*
X128653833Y-81257929D01*
X128174095Y-80778191D01*
X127694036Y-80298131D01*
X127694032Y-80298128D01*
X127590281Y-80228803D01*
X127590272Y-80228798D01*
X127474985Y-80181045D01*
X127474977Y-80181043D01*
X127352598Y-80156700D01*
X127352594Y-80156700D01*
X126970700Y-80156700D01*
X126903661Y-80137015D01*
X126857906Y-80084211D01*
X126846700Y-80032700D01*
X126846700Y-79801762D01*
X126846699Y-79801745D01*
X126841101Y-79749685D01*
X126840189Y-79741199D01*
X126837879Y-79735007D01*
X126817722Y-79680964D01*
X126789089Y-79604196D01*
X126701461Y-79487139D01*
X126584404Y-79399511D01*
X126515153Y-79373681D01*
X126459220Y-79331809D01*
X126434804Y-79266345D01*
X126449656Y-79198072D01*
X126499062Y-79148667D01*
X126558488Y-79133500D01*
X131562395Y-79133500D01*
X131562396Y-79133499D01*
X131684785Y-79109155D01*
X131800075Y-79061400D01*
X131903833Y-78992071D01*
X133117071Y-77778833D01*
X133186400Y-77675075D01*
X133234155Y-77559785D01*
X133258500Y-77437394D01*
X133258500Y-77312606D01*
X133258500Y-77149122D01*
X133278185Y-77082083D01*
X133294818Y-77061441D01*
X133299453Y-77056807D01*
X133384145Y-76913601D01*
X133430562Y-76753831D01*
X133433500Y-76716502D01*
X133433500Y-75183498D01*
X133430562Y-75146169D01*
X133384145Y-74986399D01*
X133329598Y-74894165D01*
X133299455Y-74843196D01*
X133299448Y-74843187D01*
X133181812Y-74725551D01*
X133181803Y-74725544D01*
X133038601Y-74640855D01*
X133038596Y-74640853D01*
X132878835Y-74594438D01*
X132878829Y-74594437D01*
X132841507Y-74591500D01*
X132841502Y-74591500D01*
X132408498Y-74591500D01*
X132408492Y-74591500D01*
X132371170Y-74594437D01*
X132371164Y-74594438D01*
X132211403Y-74640853D01*
X132211398Y-74640855D01*
X132063121Y-74728546D01*
X131995397Y-74745729D01*
X131936879Y-74728546D01*
X131788601Y-74640855D01*
X131788596Y-74640853D01*
X131628835Y-74594438D01*
X131628829Y-74594437D01*
X131591507Y-74591500D01*
X131591502Y-74591500D01*
X131158498Y-74591500D01*
X131158492Y-74591500D01*
X131121170Y-74594437D01*
X131121164Y-74594438D01*
X130961403Y-74640853D01*
X130961398Y-74640855D01*
X130818196Y-74725544D01*
X130818187Y-74725551D01*
X130700551Y-74843187D01*
X130700544Y-74843196D01*
X130615855Y-74986398D01*
X130615853Y-74986403D01*
X130569438Y-75146164D01*
X130569437Y-75146170D01*
X130566500Y-75183492D01*
X130566500Y-76716515D01*
X130567780Y-76732774D01*
X130553414Y-76801151D01*
X130504362Y-76850906D01*
X130444162Y-76866500D01*
X125555838Y-76866500D01*
X125488799Y-76846815D01*
X125443044Y-76794011D01*
X125432220Y-76732774D01*
X125433499Y-76716515D01*
X125433499Y-76716514D01*
X125433500Y-76716502D01*
X125433500Y-75183498D01*
X125430562Y-75146169D01*
X125384145Y-74986399D01*
X125329598Y-74894165D01*
X125299455Y-74843196D01*
X125299448Y-74843187D01*
X125181812Y-74725551D01*
X125181803Y-74725544D01*
X125038601Y-74640855D01*
X125038596Y-74640853D01*
X124878835Y-74594438D01*
X124878829Y-74594437D01*
X124841507Y-74591500D01*
X124841502Y-74591500D01*
X124408498Y-74591500D01*
X124408492Y-74591500D01*
X124371170Y-74594437D01*
X124371164Y-74594438D01*
X124211403Y-74640853D01*
X124211398Y-74640855D01*
X124061478Y-74729518D01*
X124060772Y-74728324D01*
X124003501Y-74750802D01*
X123934986Y-74737113D01*
X123929433Y-74734018D01*
X123785196Y-74648717D01*
X123785193Y-74648716D01*
X123627494Y-74602900D01*
X123627497Y-74602900D01*
X123625000Y-74602703D01*
X123125000Y-74602703D01*
X123122503Y-74602900D01*
X122964806Y-74648716D01*
X122964803Y-74648717D01*
X122823447Y-74732314D01*
X122823438Y-74732321D01*
X122707321Y-74848438D01*
X122707314Y-74848447D01*
X122623717Y-74989803D01*
X122623716Y-74989806D01*
X122577900Y-75147504D01*
X122577899Y-75147510D01*
X122575000Y-75184350D01*
X112254500Y-75184350D01*
X112254500Y-73003052D01*
X112254649Y-72996967D01*
X112260459Y-72878711D01*
X114149500Y-72878711D01*
X114149500Y-73121288D01*
X114181161Y-73361785D01*
X114243947Y-73596104D01*
X114328633Y-73800553D01*
X114336776Y-73820212D01*
X114458064Y-74030289D01*
X114458066Y-74030292D01*
X114458067Y-74030293D01*
X114605733Y-74222736D01*
X114605739Y-74222743D01*
X114777256Y-74394260D01*
X114777262Y-74394265D01*
X114969711Y-74541936D01*
X115179788Y-74663224D01*
X115346603Y-74732321D01*
X115391220Y-74750802D01*
X115403900Y-74756054D01*
X115638211Y-74818838D01*
X115818586Y-74842584D01*
X115878711Y-74850500D01*
X115878712Y-74850500D01*
X116121289Y-74850500D01*
X116176837Y-74843187D01*
X116361789Y-74818838D01*
X116596100Y-74756054D01*
X116820212Y-74663224D01*
X117030289Y-74541936D01*
X117222738Y-74394265D01*
X117394265Y-74222738D01*
X117541936Y-74030289D01*
X117663224Y-73820212D01*
X117756054Y-73596100D01*
X117818838Y-73361789D01*
X117850500Y-73121288D01*
X117850500Y-72878712D01*
X117849164Y-72868567D01*
X117818838Y-72638214D01*
X117818838Y-72638211D01*
X117756054Y-72403900D01*
X117663224Y-72179788D01*
X117541936Y-71969711D01*
X117394265Y-71777262D01*
X117394260Y-71777256D01*
X117222743Y-71605739D01*
X117222736Y-71605733D01*
X117078001Y-71494674D01*
X117030293Y-71458067D01*
X117030292Y-71458066D01*
X117030289Y-71458064D01*
X116928761Y-71399447D01*
X120516500Y-71399447D01*
X120516500Y-73800537D01*
X120516501Y-73800553D01*
X120518510Y-73820214D01*
X120527113Y-73904426D01*
X120582885Y-74072738D01*
X120675970Y-74223652D01*
X120801348Y-74349030D01*
X120952262Y-74442115D01*
X121120574Y-74497887D01*
X121224455Y-74508500D01*
X121825544Y-74508499D01*
X121929426Y-74497887D01*
X122097738Y-74442115D01*
X122248652Y-74349030D01*
X122374030Y-74223652D01*
X122467115Y-74072738D01*
X122522887Y-73904426D01*
X122533500Y-73800545D01*
X122533499Y-71399456D01*
X122533498Y-71399447D01*
X125466500Y-71399447D01*
X125466500Y-73800537D01*
X125466501Y-73800553D01*
X125468510Y-73820214D01*
X125477113Y-73904426D01*
X125532885Y-74072738D01*
X125625970Y-74223652D01*
X125751348Y-74349030D01*
X125902262Y-74442115D01*
X126070574Y-74497887D01*
X126174455Y-74508500D01*
X126775544Y-74508499D01*
X126879426Y-74497887D01*
X127047738Y-74442115D01*
X127198652Y-74349030D01*
X127324030Y-74223652D01*
X127417115Y-74072738D01*
X127472887Y-73904426D01*
X127483500Y-73800545D01*
X127483499Y-71399456D01*
X127483498Y-71399447D01*
X128516500Y-71399447D01*
X128516500Y-73800537D01*
X128516501Y-73800553D01*
X128518510Y-73820214D01*
X128527113Y-73904426D01*
X128582885Y-74072738D01*
X128675970Y-74223652D01*
X128801348Y-74349030D01*
X128952262Y-74442115D01*
X129120574Y-74497887D01*
X129224455Y-74508500D01*
X129825544Y-74508499D01*
X129929426Y-74497887D01*
X130097738Y-74442115D01*
X130248652Y-74349030D01*
X130374030Y-74223652D01*
X130467115Y-74072738D01*
X130522887Y-73904426D01*
X130533500Y-73800545D01*
X130533499Y-71399456D01*
X130533498Y-71399447D01*
X133466500Y-71399447D01*
X133466500Y-73800537D01*
X133466501Y-73800553D01*
X133468510Y-73820214D01*
X133477113Y-73904426D01*
X133532885Y-74072738D01*
X133625970Y-74223652D01*
X133751348Y-74349030D01*
X133902262Y-74442115D01*
X134070574Y-74497887D01*
X134174455Y-74508500D01*
X134775544Y-74508499D01*
X134879426Y-74497887D01*
X135047738Y-74442115D01*
X135198652Y-74349030D01*
X135324030Y-74223652D01*
X135417115Y-74072738D01*
X135472887Y-73904426D01*
X135483500Y-73800545D01*
X135483499Y-72878711D01*
X138149500Y-72878711D01*
X138149500Y-73121288D01*
X138181161Y-73361785D01*
X138243947Y-73596104D01*
X138328633Y-73800553D01*
X138336776Y-73820212D01*
X138458064Y-74030289D01*
X138458066Y-74030292D01*
X138458067Y-74030293D01*
X138605733Y-74222736D01*
X138605739Y-74222743D01*
X138777256Y-74394260D01*
X138777262Y-74394265D01*
X138969711Y-74541936D01*
X139179788Y-74663224D01*
X139346603Y-74732321D01*
X139391220Y-74750802D01*
X139403900Y-74756054D01*
X139638211Y-74818838D01*
X139818586Y-74842584D01*
X139878711Y-74850500D01*
X139878712Y-74850500D01*
X140121289Y-74850500D01*
X140176837Y-74843187D01*
X140361789Y-74818838D01*
X140596100Y-74756054D01*
X140820212Y-74663224D01*
X141030289Y-74541936D01*
X141222738Y-74394265D01*
X141394265Y-74222738D01*
X141541936Y-74030289D01*
X141663224Y-73820212D01*
X141756054Y-73596100D01*
X141818838Y-73361789D01*
X141850500Y-73121288D01*
X141850500Y-72878712D01*
X141849164Y-72868567D01*
X141818838Y-72638214D01*
X141818838Y-72638211D01*
X141756054Y-72403900D01*
X141663224Y-72179788D01*
X141541936Y-71969711D01*
X141394265Y-71777262D01*
X141394260Y-71777256D01*
X141222743Y-71605739D01*
X141222736Y-71605733D01*
X141030293Y-71458067D01*
X141030292Y-71458066D01*
X141030289Y-71458064D01*
X140820212Y-71336776D01*
X140820205Y-71336773D01*
X140596104Y-71243947D01*
X140361785Y-71181161D01*
X140121289Y-71149500D01*
X140121288Y-71149500D01*
X139878712Y-71149500D01*
X139878711Y-71149500D01*
X139638214Y-71181161D01*
X139403895Y-71243947D01*
X139179794Y-71336773D01*
X139179785Y-71336777D01*
X138969706Y-71458067D01*
X138777263Y-71605733D01*
X138777256Y-71605739D01*
X138605739Y-71777256D01*
X138605733Y-71777263D01*
X138458067Y-71969706D01*
X138336777Y-72179785D01*
X138336773Y-72179794D01*
X138243947Y-72403895D01*
X138181161Y-72638214D01*
X138149500Y-72878711D01*
X135483499Y-72878711D01*
X135483499Y-72411586D01*
X135483499Y-71399462D01*
X135483498Y-71399446D01*
X135477096Y-71336777D01*
X135472887Y-71295574D01*
X135417115Y-71127262D01*
X135324030Y-70976348D01*
X135198652Y-70850970D01*
X135047738Y-70757885D01*
X135047735Y-70757884D01*
X134879427Y-70702113D01*
X134775546Y-70691500D01*
X134174462Y-70691500D01*
X134174446Y-70691501D01*
X134070572Y-70702113D01*
X133902264Y-70757884D01*
X133902259Y-70757886D01*
X133751346Y-70850971D01*
X133625971Y-70976346D01*
X133532886Y-71127259D01*
X133532884Y-71127264D01*
X133477113Y-71295572D01*
X133466500Y-71399447D01*
X130533498Y-71399447D01*
X130522887Y-71295574D01*
X130467115Y-71127262D01*
X130374030Y-70976348D01*
X130248652Y-70850970D01*
X130097738Y-70757885D01*
X130097735Y-70757884D01*
X129929427Y-70702113D01*
X129825546Y-70691500D01*
X129224462Y-70691500D01*
X129224446Y-70691501D01*
X129120572Y-70702113D01*
X128952264Y-70757884D01*
X128952259Y-70757886D01*
X128801346Y-70850971D01*
X128675971Y-70976346D01*
X128582886Y-71127259D01*
X128582884Y-71127264D01*
X128527113Y-71295572D01*
X128516500Y-71399447D01*
X127483498Y-71399447D01*
X127472887Y-71295574D01*
X127417115Y-71127262D01*
X127324030Y-70976348D01*
X127198652Y-70850970D01*
X127047738Y-70757885D01*
X127047735Y-70757884D01*
X126879427Y-70702113D01*
X126775546Y-70691500D01*
X126174462Y-70691500D01*
X126174446Y-70691501D01*
X126070572Y-70702113D01*
X125902264Y-70757884D01*
X125902259Y-70757886D01*
X125751346Y-70850971D01*
X125625971Y-70976346D01*
X125532886Y-71127259D01*
X125532884Y-71127264D01*
X125477113Y-71295572D01*
X125466500Y-71399447D01*
X122533498Y-71399447D01*
X122522887Y-71295574D01*
X122467115Y-71127262D01*
X122374030Y-70976348D01*
X122248652Y-70850970D01*
X122097738Y-70757885D01*
X122097735Y-70757884D01*
X121929427Y-70702113D01*
X121825546Y-70691500D01*
X121224462Y-70691500D01*
X121224446Y-70691501D01*
X121120572Y-70702113D01*
X120952264Y-70757884D01*
X120952259Y-70757886D01*
X120801346Y-70850971D01*
X120675971Y-70976346D01*
X120582886Y-71127259D01*
X120582884Y-71127264D01*
X120527113Y-71295572D01*
X120516500Y-71399447D01*
X116928761Y-71399447D01*
X116820212Y-71336776D01*
X116820205Y-71336773D01*
X116596104Y-71243947D01*
X116361785Y-71181161D01*
X116121289Y-71149500D01*
X116121288Y-71149500D01*
X115878712Y-71149500D01*
X115878711Y-71149500D01*
X115638214Y-71181161D01*
X115403895Y-71243947D01*
X115179794Y-71336773D01*
X115179785Y-71336777D01*
X114969706Y-71458067D01*
X114777263Y-71605733D01*
X114777256Y-71605739D01*
X114605739Y-71777256D01*
X114605733Y-71777263D01*
X114458067Y-71969706D01*
X114336777Y-72179785D01*
X114336773Y-72179794D01*
X114243947Y-72403895D01*
X114181161Y-72638214D01*
X114149500Y-72878711D01*
X112260459Y-72878711D01*
X112260957Y-72868568D01*
X112260957Y-72868567D01*
X112272237Y-72638959D01*
X112273430Y-72626848D01*
X112325575Y-72275314D01*
X112327949Y-72263380D01*
X112348888Y-72179788D01*
X112414301Y-71918642D01*
X112417827Y-71907016D01*
X112537563Y-71572376D01*
X112542205Y-71561169D01*
X112694167Y-71239874D01*
X112699891Y-71229165D01*
X112882604Y-70924328D01*
X112889356Y-70914224D01*
X113101062Y-70628769D01*
X113108766Y-70619380D01*
X113347447Y-70356038D01*
X113356038Y-70347447D01*
X113619380Y-70108766D01*
X113628769Y-70101062D01*
X113914226Y-69889354D01*
X113924328Y-69882604D01*
X114229165Y-69699891D01*
X114239874Y-69694167D01*
X114561169Y-69542205D01*
X114572376Y-69537563D01*
X114907016Y-69417827D01*
X114918642Y-69414301D01*
X115263382Y-69327948D01*
X115275308Y-69325576D01*
X115626854Y-69273429D01*
X115638954Y-69272237D01*
X115933332Y-69257775D01*
X115996968Y-69254649D01*
X116003052Y-69254500D01*
X116044875Y-69254500D01*
X139955125Y-69254500D01*
X139996948Y-69254500D01*
X140003032Y-69254649D01*
G37*
%TD.AperFunction*%
%TD*%
M02*
