%TF.GenerationSoftware,KiCad,Pcbnew,10.0.6*%
%TF.CreationDate,2026-09-16T22:28:45-05:00*%
%TF.ProjectId,Horns_v1.0,486f726e-735f-4763-912e-302e6b696361,0.0*%
%TF.SameCoordinates,Original*%
%TF.FileFunction,Legend,Top*%
%TF.FilePolarity,Positive*%
%FSLAX46Y46*%
G04 Gerber Fmt 4.6, Leading zero omitted, Abs format (unit mm)*
G04 Created by KiCad (PCBNEW 10.0.6) date 2026-09-16 22:28:45*
%MOMM*%
%LPD*%
G01*
G04 APERTURE LIST*
%ADD10C,0.150000*%
%ADD11C,0.254000*%
%ADD12C,0.120000*%
%ADD13C,0.100000*%
%ADD14C,0.200000*%
%ADD15C,0.152400*%
G04 APERTURE END LIST*
D10*
X136166666Y-69454819D02*
X136166666Y-70169104D01*
X136166666Y-70169104D02*
X136119047Y-70311961D01*
X136119047Y-70311961D02*
X136023809Y-70407200D01*
X136023809Y-70407200D02*
X135880952Y-70454819D01*
X135880952Y-70454819D02*
X135785714Y-70454819D01*
X137071428Y-69788152D02*
X137071428Y-70454819D01*
X136833333Y-69407200D02*
X136595238Y-70121485D01*
X136595238Y-70121485D02*
X137214285Y-70121485D01*
X115970833Y-78909580D02*
X115923214Y-78957200D01*
X115923214Y-78957200D02*
X115780357Y-79004819D01*
X115780357Y-79004819D02*
X115685119Y-79004819D01*
X115685119Y-79004819D02*
X115542262Y-78957200D01*
X115542262Y-78957200D02*
X115447024Y-78861961D01*
X115447024Y-78861961D02*
X115399405Y-78766723D01*
X115399405Y-78766723D02*
X115351786Y-78576247D01*
X115351786Y-78576247D02*
X115351786Y-78433390D01*
X115351786Y-78433390D02*
X115399405Y-78242914D01*
X115399405Y-78242914D02*
X115447024Y-78147676D01*
X115447024Y-78147676D02*
X115542262Y-78052438D01*
X115542262Y-78052438D02*
X115685119Y-78004819D01*
X115685119Y-78004819D02*
X115780357Y-78004819D01*
X115780357Y-78004819D02*
X115923214Y-78052438D01*
X115923214Y-78052438D02*
X115970833Y-78100057D01*
X116351786Y-78100057D02*
X116399405Y-78052438D01*
X116399405Y-78052438D02*
X116494643Y-78004819D01*
X116494643Y-78004819D02*
X116732738Y-78004819D01*
X116732738Y-78004819D02*
X116827976Y-78052438D01*
X116827976Y-78052438D02*
X116875595Y-78100057D01*
X116875595Y-78100057D02*
X116923214Y-78195295D01*
X116923214Y-78195295D02*
X116923214Y-78290533D01*
X116923214Y-78290533D02*
X116875595Y-78433390D01*
X116875595Y-78433390D02*
X116304167Y-79004819D01*
X116304167Y-79004819D02*
X116923214Y-79004819D01*
X116083333Y-86609580D02*
X116035714Y-86657200D01*
X116035714Y-86657200D02*
X115892857Y-86704819D01*
X115892857Y-86704819D02*
X115797619Y-86704819D01*
X115797619Y-86704819D02*
X115654762Y-86657200D01*
X115654762Y-86657200D02*
X115559524Y-86561961D01*
X115559524Y-86561961D02*
X115511905Y-86466723D01*
X115511905Y-86466723D02*
X115464286Y-86276247D01*
X115464286Y-86276247D02*
X115464286Y-86133390D01*
X115464286Y-86133390D02*
X115511905Y-85942914D01*
X115511905Y-85942914D02*
X115559524Y-85847676D01*
X115559524Y-85847676D02*
X115654762Y-85752438D01*
X115654762Y-85752438D02*
X115797619Y-85704819D01*
X115797619Y-85704819D02*
X115892857Y-85704819D01*
X115892857Y-85704819D02*
X116035714Y-85752438D01*
X116035714Y-85752438D02*
X116083333Y-85800057D01*
X116988095Y-85704819D02*
X116511905Y-85704819D01*
X116511905Y-85704819D02*
X116464286Y-86181009D01*
X116464286Y-86181009D02*
X116511905Y-86133390D01*
X116511905Y-86133390D02*
X116607143Y-86085771D01*
X116607143Y-86085771D02*
X116845238Y-86085771D01*
X116845238Y-86085771D02*
X116940476Y-86133390D01*
X116940476Y-86133390D02*
X116988095Y-86181009D01*
X116988095Y-86181009D02*
X117035714Y-86276247D01*
X117035714Y-86276247D02*
X117035714Y-86514342D01*
X117035714Y-86514342D02*
X116988095Y-86609580D01*
X116988095Y-86609580D02*
X116940476Y-86657200D01*
X116940476Y-86657200D02*
X116845238Y-86704819D01*
X116845238Y-86704819D02*
X116607143Y-86704819D01*
X116607143Y-86704819D02*
X116511905Y-86657200D01*
X116511905Y-86657200D02*
X116464286Y-86609580D01*
X119833333Y-84109580D02*
X119785714Y-84157200D01*
X119785714Y-84157200D02*
X119642857Y-84204819D01*
X119642857Y-84204819D02*
X119547619Y-84204819D01*
X119547619Y-84204819D02*
X119404762Y-84157200D01*
X119404762Y-84157200D02*
X119309524Y-84061961D01*
X119309524Y-84061961D02*
X119261905Y-83966723D01*
X119261905Y-83966723D02*
X119214286Y-83776247D01*
X119214286Y-83776247D02*
X119214286Y-83633390D01*
X119214286Y-83633390D02*
X119261905Y-83442914D01*
X119261905Y-83442914D02*
X119309524Y-83347676D01*
X119309524Y-83347676D02*
X119404762Y-83252438D01*
X119404762Y-83252438D02*
X119547619Y-83204819D01*
X119547619Y-83204819D02*
X119642857Y-83204819D01*
X119642857Y-83204819D02*
X119785714Y-83252438D01*
X119785714Y-83252438D02*
X119833333Y-83300057D01*
X120404762Y-83633390D02*
X120309524Y-83585771D01*
X120309524Y-83585771D02*
X120261905Y-83538152D01*
X120261905Y-83538152D02*
X120214286Y-83442914D01*
X120214286Y-83442914D02*
X120214286Y-83395295D01*
X120214286Y-83395295D02*
X120261905Y-83300057D01*
X120261905Y-83300057D02*
X120309524Y-83252438D01*
X120309524Y-83252438D02*
X120404762Y-83204819D01*
X120404762Y-83204819D02*
X120595238Y-83204819D01*
X120595238Y-83204819D02*
X120690476Y-83252438D01*
X120690476Y-83252438D02*
X120738095Y-83300057D01*
X120738095Y-83300057D02*
X120785714Y-83395295D01*
X120785714Y-83395295D02*
X120785714Y-83442914D01*
X120785714Y-83442914D02*
X120738095Y-83538152D01*
X120738095Y-83538152D02*
X120690476Y-83585771D01*
X120690476Y-83585771D02*
X120595238Y-83633390D01*
X120595238Y-83633390D02*
X120404762Y-83633390D01*
X120404762Y-83633390D02*
X120309524Y-83681009D01*
X120309524Y-83681009D02*
X120261905Y-83728628D01*
X120261905Y-83728628D02*
X120214286Y-83823866D01*
X120214286Y-83823866D02*
X120214286Y-84014342D01*
X120214286Y-84014342D02*
X120261905Y-84109580D01*
X120261905Y-84109580D02*
X120309524Y-84157200D01*
X120309524Y-84157200D02*
X120404762Y-84204819D01*
X120404762Y-84204819D02*
X120595238Y-84204819D01*
X120595238Y-84204819D02*
X120690476Y-84157200D01*
X120690476Y-84157200D02*
X120738095Y-84109580D01*
X120738095Y-84109580D02*
X120785714Y-84014342D01*
X120785714Y-84014342D02*
X120785714Y-83823866D01*
X120785714Y-83823866D02*
X120738095Y-83728628D01*
X120738095Y-83728628D02*
X120690476Y-83681009D01*
X120690476Y-83681009D02*
X120595238Y-83633390D01*
X119166666Y-69704819D02*
X119166666Y-70419104D01*
X119166666Y-70419104D02*
X119119047Y-70561961D01*
X119119047Y-70561961D02*
X119023809Y-70657200D01*
X119023809Y-70657200D02*
X118880952Y-70704819D01*
X118880952Y-70704819D02*
X118785714Y-70704819D01*
X119547619Y-69704819D02*
X120166666Y-69704819D01*
X120166666Y-69704819D02*
X119833333Y-70085771D01*
X119833333Y-70085771D02*
X119976190Y-70085771D01*
X119976190Y-70085771D02*
X120071428Y-70133390D01*
X120071428Y-70133390D02*
X120119047Y-70181009D01*
X120119047Y-70181009D02*
X120166666Y-70276247D01*
X120166666Y-70276247D02*
X120166666Y-70514342D01*
X120166666Y-70514342D02*
X120119047Y-70609580D01*
X120119047Y-70609580D02*
X120071428Y-70657200D01*
X120071428Y-70657200D02*
X119976190Y-70704819D01*
X119976190Y-70704819D02*
X119690476Y-70704819D01*
X119690476Y-70704819D02*
X119595238Y-70657200D01*
X119595238Y-70657200D02*
X119547619Y-70609580D01*
D11*
X136552270Y-83533952D02*
X136491794Y-83654904D01*
X136491794Y-83654904D02*
X136370842Y-83775857D01*
X136370842Y-83775857D02*
X136189413Y-83957285D01*
X136189413Y-83957285D02*
X136128937Y-84078238D01*
X136128937Y-84078238D02*
X136128937Y-84199190D01*
X136431318Y-84138714D02*
X136370842Y-84259666D01*
X136370842Y-84259666D02*
X136249889Y-84380619D01*
X136249889Y-84380619D02*
X136007984Y-84441095D01*
X136007984Y-84441095D02*
X135584651Y-84441095D01*
X135584651Y-84441095D02*
X135342746Y-84380619D01*
X135342746Y-84380619D02*
X135221794Y-84259666D01*
X135221794Y-84259666D02*
X135161318Y-84138714D01*
X135161318Y-84138714D02*
X135161318Y-83896809D01*
X135161318Y-83896809D02*
X135221794Y-83775857D01*
X135221794Y-83775857D02*
X135342746Y-83654904D01*
X135342746Y-83654904D02*
X135584651Y-83594428D01*
X135584651Y-83594428D02*
X136007984Y-83594428D01*
X136007984Y-83594428D02*
X136249889Y-83654904D01*
X136249889Y-83654904D02*
X136370842Y-83775857D01*
X136370842Y-83775857D02*
X136431318Y-83896809D01*
X136431318Y-83896809D02*
X136431318Y-84138714D01*
X136431318Y-82384904D02*
X136431318Y-83110619D01*
X136431318Y-82747762D02*
X135161318Y-82747762D01*
X135161318Y-82747762D02*
X135342746Y-82868714D01*
X135342746Y-82868714D02*
X135463699Y-82989666D01*
X135463699Y-82989666D02*
X135524175Y-83110619D01*
D10*
X119833333Y-86609580D02*
X119785714Y-86657200D01*
X119785714Y-86657200D02*
X119642857Y-86704819D01*
X119642857Y-86704819D02*
X119547619Y-86704819D01*
X119547619Y-86704819D02*
X119404762Y-86657200D01*
X119404762Y-86657200D02*
X119309524Y-86561961D01*
X119309524Y-86561961D02*
X119261905Y-86466723D01*
X119261905Y-86466723D02*
X119214286Y-86276247D01*
X119214286Y-86276247D02*
X119214286Y-86133390D01*
X119214286Y-86133390D02*
X119261905Y-85942914D01*
X119261905Y-85942914D02*
X119309524Y-85847676D01*
X119309524Y-85847676D02*
X119404762Y-85752438D01*
X119404762Y-85752438D02*
X119547619Y-85704819D01*
X119547619Y-85704819D02*
X119642857Y-85704819D01*
X119642857Y-85704819D02*
X119785714Y-85752438D01*
X119785714Y-85752438D02*
X119833333Y-85800057D01*
X120309524Y-86704819D02*
X120500000Y-86704819D01*
X120500000Y-86704819D02*
X120595238Y-86657200D01*
X120595238Y-86657200D02*
X120642857Y-86609580D01*
X120642857Y-86609580D02*
X120738095Y-86466723D01*
X120738095Y-86466723D02*
X120785714Y-86276247D01*
X120785714Y-86276247D02*
X120785714Y-85895295D01*
X120785714Y-85895295D02*
X120738095Y-85800057D01*
X120738095Y-85800057D02*
X120690476Y-85752438D01*
X120690476Y-85752438D02*
X120595238Y-85704819D01*
X120595238Y-85704819D02*
X120404762Y-85704819D01*
X120404762Y-85704819D02*
X120309524Y-85752438D01*
X120309524Y-85752438D02*
X120261905Y-85800057D01*
X120261905Y-85800057D02*
X120214286Y-85895295D01*
X120214286Y-85895295D02*
X120214286Y-86133390D01*
X120214286Y-86133390D02*
X120261905Y-86228628D01*
X120261905Y-86228628D02*
X120309524Y-86276247D01*
X120309524Y-86276247D02*
X120404762Y-86323866D01*
X120404762Y-86323866D02*
X120595238Y-86323866D01*
X120595238Y-86323866D02*
X120690476Y-86276247D01*
X120690476Y-86276247D02*
X120738095Y-86228628D01*
X120738095Y-86228628D02*
X120785714Y-86133390D01*
X119833333Y-78859580D02*
X119785714Y-78907200D01*
X119785714Y-78907200D02*
X119642857Y-78954819D01*
X119642857Y-78954819D02*
X119547619Y-78954819D01*
X119547619Y-78954819D02*
X119404762Y-78907200D01*
X119404762Y-78907200D02*
X119309524Y-78811961D01*
X119309524Y-78811961D02*
X119261905Y-78716723D01*
X119261905Y-78716723D02*
X119214286Y-78526247D01*
X119214286Y-78526247D02*
X119214286Y-78383390D01*
X119214286Y-78383390D02*
X119261905Y-78192914D01*
X119261905Y-78192914D02*
X119309524Y-78097676D01*
X119309524Y-78097676D02*
X119404762Y-78002438D01*
X119404762Y-78002438D02*
X119547619Y-77954819D01*
X119547619Y-77954819D02*
X119642857Y-77954819D01*
X119642857Y-77954819D02*
X119785714Y-78002438D01*
X119785714Y-78002438D02*
X119833333Y-78050057D01*
X120690476Y-77954819D02*
X120500000Y-77954819D01*
X120500000Y-77954819D02*
X120404762Y-78002438D01*
X120404762Y-78002438D02*
X120357143Y-78050057D01*
X120357143Y-78050057D02*
X120261905Y-78192914D01*
X120261905Y-78192914D02*
X120214286Y-78383390D01*
X120214286Y-78383390D02*
X120214286Y-78764342D01*
X120214286Y-78764342D02*
X120261905Y-78859580D01*
X120261905Y-78859580D02*
X120309524Y-78907200D01*
X120309524Y-78907200D02*
X120404762Y-78954819D01*
X120404762Y-78954819D02*
X120595238Y-78954819D01*
X120595238Y-78954819D02*
X120690476Y-78907200D01*
X120690476Y-78907200D02*
X120738095Y-78859580D01*
X120738095Y-78859580D02*
X120785714Y-78764342D01*
X120785714Y-78764342D02*
X120785714Y-78526247D01*
X120785714Y-78526247D02*
X120738095Y-78431009D01*
X120738095Y-78431009D02*
X120690476Y-78383390D01*
X120690476Y-78383390D02*
X120595238Y-78335771D01*
X120595238Y-78335771D02*
X120404762Y-78335771D01*
X120404762Y-78335771D02*
X120309524Y-78383390D01*
X120309524Y-78383390D02*
X120261905Y-78431009D01*
X120261905Y-78431009D02*
X120214286Y-78526247D01*
X136416666Y-91204819D02*
X136416666Y-91919104D01*
X136416666Y-91919104D02*
X136369047Y-92061961D01*
X136369047Y-92061961D02*
X136273809Y-92157200D01*
X136273809Y-92157200D02*
X136130952Y-92204819D01*
X136130952Y-92204819D02*
X136035714Y-92204819D01*
X136845238Y-91300057D02*
X136892857Y-91252438D01*
X136892857Y-91252438D02*
X136988095Y-91204819D01*
X136988095Y-91204819D02*
X137226190Y-91204819D01*
X137226190Y-91204819D02*
X137321428Y-91252438D01*
X137321428Y-91252438D02*
X137369047Y-91300057D01*
X137369047Y-91300057D02*
X137416666Y-91395295D01*
X137416666Y-91395295D02*
X137416666Y-91490533D01*
X137416666Y-91490533D02*
X137369047Y-91633390D01*
X137369047Y-91633390D02*
X136797619Y-92204819D01*
X136797619Y-92204819D02*
X137416666Y-92204819D01*
X126416666Y-89181009D02*
X126083333Y-89181009D01*
X126083333Y-89704819D02*
X126083333Y-88704819D01*
X126083333Y-88704819D02*
X126559523Y-88704819D01*
X127464285Y-89704819D02*
X126892857Y-89704819D01*
X127178571Y-89704819D02*
X127178571Y-88704819D01*
X127178571Y-88704819D02*
X127083333Y-88847676D01*
X127083333Y-88847676D02*
X126988095Y-88942914D01*
X126988095Y-88942914D02*
X126892857Y-88990533D01*
X116083333Y-84109580D02*
X116035714Y-84157200D01*
X116035714Y-84157200D02*
X115892857Y-84204819D01*
X115892857Y-84204819D02*
X115797619Y-84204819D01*
X115797619Y-84204819D02*
X115654762Y-84157200D01*
X115654762Y-84157200D02*
X115559524Y-84061961D01*
X115559524Y-84061961D02*
X115511905Y-83966723D01*
X115511905Y-83966723D02*
X115464286Y-83776247D01*
X115464286Y-83776247D02*
X115464286Y-83633390D01*
X115464286Y-83633390D02*
X115511905Y-83442914D01*
X115511905Y-83442914D02*
X115559524Y-83347676D01*
X115559524Y-83347676D02*
X115654762Y-83252438D01*
X115654762Y-83252438D02*
X115797619Y-83204819D01*
X115797619Y-83204819D02*
X115892857Y-83204819D01*
X115892857Y-83204819D02*
X116035714Y-83252438D01*
X116035714Y-83252438D02*
X116083333Y-83300057D01*
X116940476Y-83538152D02*
X116940476Y-84204819D01*
X116702381Y-83157200D02*
X116464286Y-83871485D01*
X116464286Y-83871485D02*
X117083333Y-83871485D01*
X132833333Y-88859580D02*
X132785714Y-88907200D01*
X132785714Y-88907200D02*
X132642857Y-88954819D01*
X132642857Y-88954819D02*
X132547619Y-88954819D01*
X132547619Y-88954819D02*
X132404762Y-88907200D01*
X132404762Y-88907200D02*
X132309524Y-88811961D01*
X132309524Y-88811961D02*
X132261905Y-88716723D01*
X132261905Y-88716723D02*
X132214286Y-88526247D01*
X132214286Y-88526247D02*
X132214286Y-88383390D01*
X132214286Y-88383390D02*
X132261905Y-88192914D01*
X132261905Y-88192914D02*
X132309524Y-88097676D01*
X132309524Y-88097676D02*
X132404762Y-88002438D01*
X132404762Y-88002438D02*
X132547619Y-87954819D01*
X132547619Y-87954819D02*
X132642857Y-87954819D01*
X132642857Y-87954819D02*
X132785714Y-88002438D01*
X132785714Y-88002438D02*
X132833333Y-88050057D01*
X133785714Y-88954819D02*
X133214286Y-88954819D01*
X133500000Y-88954819D02*
X133500000Y-87954819D01*
X133500000Y-87954819D02*
X133404762Y-88097676D01*
X133404762Y-88097676D02*
X133309524Y-88192914D01*
X133309524Y-88192914D02*
X133214286Y-88240533D01*
X119833333Y-81609580D02*
X119785714Y-81657200D01*
X119785714Y-81657200D02*
X119642857Y-81704819D01*
X119642857Y-81704819D02*
X119547619Y-81704819D01*
X119547619Y-81704819D02*
X119404762Y-81657200D01*
X119404762Y-81657200D02*
X119309524Y-81561961D01*
X119309524Y-81561961D02*
X119261905Y-81466723D01*
X119261905Y-81466723D02*
X119214286Y-81276247D01*
X119214286Y-81276247D02*
X119214286Y-81133390D01*
X119214286Y-81133390D02*
X119261905Y-80942914D01*
X119261905Y-80942914D02*
X119309524Y-80847676D01*
X119309524Y-80847676D02*
X119404762Y-80752438D01*
X119404762Y-80752438D02*
X119547619Y-80704819D01*
X119547619Y-80704819D02*
X119642857Y-80704819D01*
X119642857Y-80704819D02*
X119785714Y-80752438D01*
X119785714Y-80752438D02*
X119833333Y-80800057D01*
X120166667Y-80704819D02*
X120833333Y-80704819D01*
X120833333Y-80704819D02*
X120404762Y-81704819D01*
X138333333Y-88954819D02*
X138000000Y-88478628D01*
X137761905Y-88954819D02*
X137761905Y-87954819D01*
X137761905Y-87954819D02*
X138142857Y-87954819D01*
X138142857Y-87954819D02*
X138238095Y-88002438D01*
X138238095Y-88002438D02*
X138285714Y-88050057D01*
X138285714Y-88050057D02*
X138333333Y-88145295D01*
X138333333Y-88145295D02*
X138333333Y-88288152D01*
X138333333Y-88288152D02*
X138285714Y-88383390D01*
X138285714Y-88383390D02*
X138238095Y-88431009D01*
X138238095Y-88431009D02*
X138142857Y-88478628D01*
X138142857Y-88478628D02*
X137761905Y-88478628D01*
X139285714Y-88954819D02*
X138714286Y-88954819D01*
X139000000Y-88954819D02*
X139000000Y-87954819D01*
X139000000Y-87954819D02*
X138904762Y-88097676D01*
X138904762Y-88097676D02*
X138809524Y-88192914D01*
X138809524Y-88192914D02*
X138714286Y-88240533D01*
X119166666Y-91204819D02*
X119166666Y-91919104D01*
X119166666Y-91919104D02*
X119119047Y-92061961D01*
X119119047Y-92061961D02*
X119023809Y-92157200D01*
X119023809Y-92157200D02*
X118880952Y-92204819D01*
X118880952Y-92204819D02*
X118785714Y-92204819D01*
X120166666Y-92204819D02*
X119595238Y-92204819D01*
X119880952Y-92204819D02*
X119880952Y-91204819D01*
X119880952Y-91204819D02*
X119785714Y-91347676D01*
X119785714Y-91347676D02*
X119690476Y-91442914D01*
X119690476Y-91442914D02*
X119595238Y-91490533D01*
X125859580Y-83666666D02*
X125907200Y-83714285D01*
X125907200Y-83714285D02*
X125954819Y-83857142D01*
X125954819Y-83857142D02*
X125954819Y-83952380D01*
X125954819Y-83952380D02*
X125907200Y-84095237D01*
X125907200Y-84095237D02*
X125811961Y-84190475D01*
X125811961Y-84190475D02*
X125716723Y-84238094D01*
X125716723Y-84238094D02*
X125526247Y-84285713D01*
X125526247Y-84285713D02*
X125383390Y-84285713D01*
X125383390Y-84285713D02*
X125192914Y-84238094D01*
X125192914Y-84238094D02*
X125097676Y-84190475D01*
X125097676Y-84190475D02*
X125002438Y-84095237D01*
X125002438Y-84095237D02*
X124954819Y-83952380D01*
X124954819Y-83952380D02*
X124954819Y-83857142D01*
X124954819Y-83857142D02*
X125002438Y-83714285D01*
X125002438Y-83714285D02*
X125050057Y-83666666D01*
X125954819Y-82666666D02*
X125478628Y-82999999D01*
X125954819Y-83238094D02*
X124954819Y-83238094D01*
X124954819Y-83238094D02*
X124954819Y-82857142D01*
X124954819Y-82857142D02*
X125002438Y-82761904D01*
X125002438Y-82761904D02*
X125050057Y-82714285D01*
X125050057Y-82714285D02*
X125145295Y-82666666D01*
X125145295Y-82666666D02*
X125288152Y-82666666D01*
X125288152Y-82666666D02*
X125383390Y-82714285D01*
X125383390Y-82714285D02*
X125431009Y-82761904D01*
X125431009Y-82761904D02*
X125478628Y-82857142D01*
X125478628Y-82857142D02*
X125478628Y-83238094D01*
X125050057Y-82285713D02*
X125002438Y-82238094D01*
X125002438Y-82238094D02*
X124954819Y-82142856D01*
X124954819Y-82142856D02*
X124954819Y-81904761D01*
X124954819Y-81904761D02*
X125002438Y-81809523D01*
X125002438Y-81809523D02*
X125050057Y-81761904D01*
X125050057Y-81761904D02*
X125145295Y-81714285D01*
X125145295Y-81714285D02*
X125240533Y-81714285D01*
X125240533Y-81714285D02*
X125383390Y-81761904D01*
X125383390Y-81761904D02*
X125954819Y-82333332D01*
X125954819Y-82333332D02*
X125954819Y-81714285D01*
X116083333Y-81609580D02*
X116035714Y-81657200D01*
X116035714Y-81657200D02*
X115892857Y-81704819D01*
X115892857Y-81704819D02*
X115797619Y-81704819D01*
X115797619Y-81704819D02*
X115654762Y-81657200D01*
X115654762Y-81657200D02*
X115559524Y-81561961D01*
X115559524Y-81561961D02*
X115511905Y-81466723D01*
X115511905Y-81466723D02*
X115464286Y-81276247D01*
X115464286Y-81276247D02*
X115464286Y-81133390D01*
X115464286Y-81133390D02*
X115511905Y-80942914D01*
X115511905Y-80942914D02*
X115559524Y-80847676D01*
X115559524Y-80847676D02*
X115654762Y-80752438D01*
X115654762Y-80752438D02*
X115797619Y-80704819D01*
X115797619Y-80704819D02*
X115892857Y-80704819D01*
X115892857Y-80704819D02*
X116035714Y-80752438D01*
X116035714Y-80752438D02*
X116083333Y-80800057D01*
X116416667Y-80704819D02*
X117035714Y-80704819D01*
X117035714Y-80704819D02*
X116702381Y-81085771D01*
X116702381Y-81085771D02*
X116845238Y-81085771D01*
X116845238Y-81085771D02*
X116940476Y-81133390D01*
X116940476Y-81133390D02*
X116988095Y-81181009D01*
X116988095Y-81181009D02*
X117035714Y-81276247D01*
X117035714Y-81276247D02*
X117035714Y-81514342D01*
X117035714Y-81514342D02*
X116988095Y-81609580D01*
X116988095Y-81609580D02*
X116940476Y-81657200D01*
X116940476Y-81657200D02*
X116845238Y-81704819D01*
X116845238Y-81704819D02*
X116559524Y-81704819D01*
X116559524Y-81704819D02*
X116464286Y-81657200D01*
X116464286Y-81657200D02*
X116416667Y-81609580D01*
%TO.C,J4*%
D12*
X128965000Y-70390000D02*
X135035000Y-70390000D01*
X128965000Y-70940000D02*
X128965000Y-70390000D01*
X128965000Y-74260000D02*
X128965000Y-76060000D01*
X128965000Y-76060000D02*
X130815000Y-76060000D01*
X130815000Y-76060000D02*
X130815000Y-76800000D01*
X135035000Y-70390000D02*
X135035000Y-70940000D01*
X135035000Y-74260000D02*
X135035000Y-76060000D01*
X135035000Y-76060000D02*
X133185000Y-76060000D01*
%TO.C,C2*%
X115991233Y-79470000D02*
X116283767Y-79470000D01*
X115991233Y-80490000D02*
X116283767Y-80490000D01*
%TO.C,C5*%
X115991233Y-87000000D02*
X116283767Y-87000000D01*
X115991233Y-88020000D02*
X116283767Y-88020000D01*
%TO.C,C8*%
X120146267Y-84490000D02*
X119853733Y-84490000D01*
X120146267Y-85510000D02*
X119853733Y-85510000D01*
%TO.C,J3*%
X120965000Y-70390000D02*
X127035000Y-70390000D01*
X120965000Y-70940000D02*
X120965000Y-70390000D01*
X120965000Y-74260000D02*
X120965000Y-76060000D01*
X120965000Y-76060000D02*
X122815000Y-76060000D01*
X122815000Y-76060000D02*
X122815000Y-76800000D01*
X127035000Y-70390000D02*
X127035000Y-70940000D01*
X127035000Y-74260000D02*
X127035000Y-76060000D01*
X127035000Y-76060000D02*
X125185000Y-76060000D01*
%TO.C,Q1*%
D13*
X136663000Y-86683000D02*
X137163000Y-86683000D01*
X137163000Y-80143000D02*
X136663000Y-80143000D01*
X137163000Y-86683000D02*
X137163000Y-80143000D01*
D14*
X141663000Y-85613000D02*
X141663000Y-85613000D01*
X141663000Y-85813000D02*
X141663000Y-85813000D01*
X141663000Y-85613000D02*
G75*
G02*
X141663000Y-85813000I0J-100000D01*
G01*
X141663000Y-85813000D02*
G75*
G02*
X141663000Y-85613000I0J100000D01*
G01*
%TO.C,C9*%
D12*
X119853733Y-86990000D02*
X120146267Y-86990000D01*
X119853733Y-88010000D02*
X120146267Y-88010000D01*
%TO.C,C6*%
X120146267Y-79490000D02*
X119853733Y-79490000D01*
X120146267Y-80510000D02*
X119853733Y-80510000D01*
%TO.C,J2*%
X129465000Y-92440000D02*
X131315000Y-92440000D01*
X129465000Y-94240000D02*
X129465000Y-92440000D01*
X129465000Y-98110000D02*
X129465000Y-97560000D01*
X133685000Y-92440000D02*
X133685000Y-91700000D01*
X135535000Y-92440000D02*
X133685000Y-92440000D01*
X135535000Y-94240000D02*
X135535000Y-92440000D01*
X135535000Y-97560000D02*
X135535000Y-98110000D01*
X135535000Y-98110000D02*
X129465000Y-98110000D01*
%TO.C,F1*%
X129296267Y-88990000D02*
X128953733Y-88990000D01*
X129296267Y-90010000D02*
X128953733Y-90010000D01*
%TO.C,C4*%
X115991233Y-84490000D02*
X116283767Y-84490000D01*
X115991233Y-85510000D02*
X116283767Y-85510000D01*
%TO.C,C1*%
X135418733Y-88903000D02*
X135711267Y-88903000D01*
X135418733Y-89923000D02*
X135711267Y-89923000D01*
%TO.C,C7*%
X120146267Y-81990000D02*
X119853733Y-81990000D01*
X120146267Y-83010000D02*
X119853733Y-83010000D01*
%TO.C,R1*%
X140332379Y-89033000D02*
X140667621Y-89033000D01*
X140332379Y-89793000D02*
X140667621Y-89793000D01*
%TO.C,J1*%
X120840000Y-92440000D02*
X122690000Y-92440000D01*
X120840000Y-94240000D02*
X120840000Y-92440000D01*
X120840000Y-98110000D02*
X120840000Y-97560000D01*
X126310000Y-92440000D02*
X126310000Y-91700000D01*
X128160000Y-92440000D02*
X126310000Y-92440000D01*
X128160000Y-94240000D02*
X128160000Y-92440000D01*
X128160000Y-97560000D02*
X128160000Y-98110000D01*
X128160000Y-98110000D02*
X120840000Y-98110000D01*
%TO.C,CR2*%
D15*
X123912500Y-80574300D02*
X123912500Y-85425700D01*
X123912500Y-85425700D02*
X124329060Y-85425700D01*
X124329060Y-80574300D02*
X123912500Y-80574300D01*
X126670940Y-85425700D02*
X127087500Y-85425700D01*
X127087500Y-80574300D02*
X126670940Y-80574300D01*
X127087500Y-85425700D02*
X127087500Y-80574300D01*
X125576200Y-87038600D02*
G75*
G02*
X125423800Y-87038600I-76200J0D01*
G01*
X125423800Y-87038600D02*
G75*
G02*
X125576200Y-87038600I76200J0D01*
G01*
%TO.C,C3*%
D12*
X115991233Y-81980000D02*
X116283767Y-81980000D01*
X115991233Y-83000000D02*
X116283767Y-83000000D01*
%TD*%
M02*
