%TF.GenerationSoftware,KiCad,Pcbnew,10.0.6*%
%TF.CreationDate,2026-09-16T22:28:45-05:00*%
%TF.ProjectId,Horns_v1.0,486f726e-735f-4763-912e-302e6b696361,0.0*%
%TF.SameCoordinates,Original*%
%TF.FileFunction,Soldermask,Top*%
%TF.FilePolarity,Negative*%
%FSLAX46Y46*%
G04 Gerber Fmt 4.6, Leading zero omitted, Abs format (unit mm)*
G04 Created by KiCad (PCBNEW 10.0.6) date 2026-09-16 22:28:45*
%MOMM*%
%LPD*%
G01*
G04 APERTURE LIST*
G04 Aperture macros list*
%AMRoundRect*
0 Rectangle with rounded corners*
0 $1 Rounding radius*
0 $2 $3 $4 $5 $6 $7 $8 $9 X,Y pos of 4 corners*
0 Add a 4 corners polygon primitive as box body*
4,1,4,$2,$3,$4,$5,$6,$7,$8,$9,$2,$3,0*
0 Add four circle primitives for the rounded corners*
1,1,$1+$1,$2,$3*
1,1,$1+$1,$4,$5*
1,1,$1+$1,$6,$7*
1,1,$1+$1,$8,$9*
0 Add four rect primitives between the rounded corners*
20,1,$1+$1,$2,$3,$4,$5,0*
20,1,$1+$1,$4,$5,$6,$7,0*
20,1,$1+$1,$6,$7,$8,$9,0*
20,1,$1+$1,$8,$9,$2,$3,0*%
G04 Aperture macros list end*
%ADD10RoundRect,0.150000X-0.150000X-0.700000X0.150000X-0.700000X0.150000X0.700000X-0.150000X0.700000X0*%
%ADD11RoundRect,0.250000X-0.250000X-1.150000X0.250000X-1.150000X0.250000X1.150000X-0.250000X1.150000X0*%
%ADD12RoundRect,0.237500X-0.300000X-0.237500X0.300000X-0.237500X0.300000X0.237500X-0.300000X0.237500X0*%
%ADD13C,3.200000*%
%ADD14RoundRect,0.237500X0.300000X0.237500X-0.300000X0.237500X-0.300000X-0.237500X0.300000X-0.237500X0*%
%ADD15R,2.286000X1.397000*%
%ADD16R,6.180000X5.690000*%
%ADD17RoundRect,0.150000X0.150000X0.700000X-0.150000X0.700000X-0.150000X-0.700000X0.150000X-0.700000X0*%
%ADD18RoundRect,0.250000X0.250000X1.150000X-0.250000X1.150000X-0.250000X-1.150000X0.250000X-1.150000X0*%
%ADD19RoundRect,0.237500X0.287500X0.237500X-0.287500X0.237500X-0.287500X-0.237500X0.287500X-0.237500X0*%
%ADD20RoundRect,0.160000X-0.197500X-0.160000X0.197500X-0.160000X0.197500X0.160000X-0.197500X0.160000X0*%
%ADD21R,1.676400X1.879600*%
G04 APERTURE END LIST*
D10*
%TO.C,J4*%
X131375000Y-75950000D03*
X132625000Y-75950000D03*
D11*
X129525000Y-72600000D03*
X134475000Y-72600000D03*
%TD*%
D12*
%TO.C,C2*%
X115275000Y-79980000D03*
X117000000Y-79980000D03*
%TD*%
%TO.C,C5*%
X115275000Y-87510000D03*
X117000000Y-87510000D03*
%TD*%
D13*
%TO.C,REF\u002A\u002A*%
X140000000Y-95000000D03*
%TD*%
D14*
%TO.C,C8*%
X120862500Y-85000000D03*
X119137500Y-85000000D03*
%TD*%
D10*
%TO.C,J3*%
X123375000Y-75950000D03*
X124625000Y-75950000D03*
D11*
X121525000Y-72600000D03*
X126475000Y-72600000D03*
%TD*%
D15*
%TO.C,Q1*%
X139500000Y-85000000D03*
D16*
X133065000Y-83413000D03*
D15*
X139500000Y-81826000D03*
%TD*%
D12*
%TO.C,C9*%
X119137500Y-87500000D03*
X120862500Y-87500000D03*
%TD*%
D14*
%TO.C,C6*%
X120862500Y-80000000D03*
X119137500Y-80000000D03*
%TD*%
D17*
%TO.C,J2*%
X133125000Y-92550000D03*
X131875000Y-92550000D03*
D18*
X134975000Y-95900000D03*
X130025000Y-95900000D03*
%TD*%
D13*
%TO.C,REF\u002A\u002A*%
X116000000Y-73000000D03*
%TD*%
D19*
%TO.C,F1*%
X130000000Y-89500000D03*
X128250000Y-89500000D03*
%TD*%
D12*
%TO.C,C4*%
X115275000Y-85000000D03*
X117000000Y-85000000D03*
%TD*%
%TO.C,C1*%
X134702500Y-89413000D03*
X136427500Y-89413000D03*
%TD*%
D13*
%TO.C,REF\u002A\u002A*%
X116000000Y-95000000D03*
%TD*%
D14*
%TO.C,C7*%
X120862500Y-82500000D03*
X119137500Y-82500000D03*
%TD*%
D20*
%TO.C,R1*%
X139902500Y-89413000D03*
X141097500Y-89413000D03*
%TD*%
D17*
%TO.C,J1*%
X125750000Y-92550000D03*
X124500000Y-92550000D03*
X123250000Y-92550000D03*
D18*
X127600000Y-95900000D03*
X121400000Y-95900000D03*
%TD*%
D21*
%TO.C,CR2*%
X125500000Y-85209800D03*
X125500000Y-80790200D03*
%TD*%
D12*
%TO.C,C3*%
X115275000Y-82490000D03*
X117000000Y-82490000D03*
%TD*%
D13*
%TO.C,REF\u002A\u002A*%
X140000000Y-73000000D03*
%TD*%
M02*
