%TF.GenerationSoftware,KiCad,Pcbnew,9.0.9*%
%TF.CreationDate,2026-09-25T17:54:25-05:00*%
%TF.ProjectId,hardproj,68617264-7072-46f6-9a2e-6b696361645f,0.0*%
%TF.SameCoordinates,Original*%
%TF.FileFunction,Legend,Top*%
%TF.FilePolarity,Positive*%
%FSLAX46Y46*%
G04 Gerber Fmt 4.6, Leading zero omitted, Abs format (unit mm)*
G04 Created by KiCad (PCBNEW 9.0.9) date 2026-09-25 17:54:25*
%MOMM*%
%LPD*%
G01*
G04 APERTURE LIST*
%ADD10C,0.150000*%
%ADD11C,0.120000*%
G04 APERTURE END LIST*
D10*
X115252666Y-84646819D02*
X114919333Y-84170628D01*
X114681238Y-84646819D02*
X114681238Y-83646819D01*
X114681238Y-83646819D02*
X115062190Y-83646819D01*
X115062190Y-83646819D02*
X115157428Y-83694438D01*
X115157428Y-83694438D02*
X115205047Y-83742057D01*
X115205047Y-83742057D02*
X115252666Y-83837295D01*
X115252666Y-83837295D02*
X115252666Y-83980152D01*
X115252666Y-83980152D02*
X115205047Y-84075390D01*
X115205047Y-84075390D02*
X115157428Y-84123009D01*
X115157428Y-84123009D02*
X115062190Y-84170628D01*
X115062190Y-84170628D02*
X114681238Y-84170628D01*
X115681238Y-84123009D02*
X116014571Y-84123009D01*
X116157428Y-84646819D02*
X115681238Y-84646819D01*
X115681238Y-84646819D02*
X115681238Y-83646819D01*
X115681238Y-83646819D02*
X116157428Y-83646819D01*
X116919333Y-84123009D02*
X116586000Y-84123009D01*
X116586000Y-84646819D02*
X116586000Y-83646819D01*
X116586000Y-83646819D02*
X117062190Y-83646819D01*
X117586000Y-83646819D02*
X117586000Y-83884914D01*
X117347905Y-83789676D02*
X117586000Y-83884914D01*
X117586000Y-83884914D02*
X117824095Y-83789676D01*
X117443143Y-84075390D02*
X117586000Y-83884914D01*
X117586000Y-83884914D02*
X117728857Y-84075390D01*
X118347905Y-83646819D02*
X118347905Y-83884914D01*
X118109810Y-83789676D02*
X118347905Y-83884914D01*
X118347905Y-83884914D02*
X118586000Y-83789676D01*
X118205048Y-84075390D02*
X118347905Y-83884914D01*
X118347905Y-83884914D02*
X118490762Y-84075390D01*
X113666666Y-107254819D02*
X113333333Y-106778628D01*
X113095238Y-107254819D02*
X113095238Y-106254819D01*
X113095238Y-106254819D02*
X113476190Y-106254819D01*
X113476190Y-106254819D02*
X113571428Y-106302438D01*
X113571428Y-106302438D02*
X113619047Y-106350057D01*
X113619047Y-106350057D02*
X113666666Y-106445295D01*
X113666666Y-106445295D02*
X113666666Y-106588152D01*
X113666666Y-106588152D02*
X113619047Y-106683390D01*
X113619047Y-106683390D02*
X113571428Y-106731009D01*
X113571428Y-106731009D02*
X113476190Y-106778628D01*
X113476190Y-106778628D02*
X113095238Y-106778628D01*
X114095238Y-106731009D02*
X114428571Y-106731009D01*
X114571428Y-107254819D02*
X114095238Y-107254819D01*
X114095238Y-107254819D02*
X114095238Y-106254819D01*
X114095238Y-106254819D02*
X114571428Y-106254819D01*
X115333333Y-106731009D02*
X115000000Y-106731009D01*
X115000000Y-107254819D02*
X115000000Y-106254819D01*
X115000000Y-106254819D02*
X115476190Y-106254819D01*
X116000000Y-106254819D02*
X116000000Y-106492914D01*
X115761905Y-106397676D02*
X116000000Y-106492914D01*
X116000000Y-106492914D02*
X116238095Y-106397676D01*
X115857143Y-106683390D02*
X116000000Y-106492914D01*
X116000000Y-106492914D02*
X116142857Y-106683390D01*
X116761905Y-106254819D02*
X116761905Y-106492914D01*
X116523810Y-106397676D02*
X116761905Y-106492914D01*
X116761905Y-106492914D02*
X117000000Y-106397676D01*
X116619048Y-106683390D02*
X116761905Y-106492914D01*
X116761905Y-106492914D02*
X116904762Y-106683390D01*
X156654666Y-84528819D02*
X156321333Y-84052628D01*
X156083238Y-84528819D02*
X156083238Y-83528819D01*
X156083238Y-83528819D02*
X156464190Y-83528819D01*
X156464190Y-83528819D02*
X156559428Y-83576438D01*
X156559428Y-83576438D02*
X156607047Y-83624057D01*
X156607047Y-83624057D02*
X156654666Y-83719295D01*
X156654666Y-83719295D02*
X156654666Y-83862152D01*
X156654666Y-83862152D02*
X156607047Y-83957390D01*
X156607047Y-83957390D02*
X156559428Y-84005009D01*
X156559428Y-84005009D02*
X156464190Y-84052628D01*
X156464190Y-84052628D02*
X156083238Y-84052628D01*
X157083238Y-84005009D02*
X157416571Y-84005009D01*
X157559428Y-84528819D02*
X157083238Y-84528819D01*
X157083238Y-84528819D02*
X157083238Y-83528819D01*
X157083238Y-83528819D02*
X157559428Y-83528819D01*
X158321333Y-84005009D02*
X157988000Y-84005009D01*
X157988000Y-84528819D02*
X157988000Y-83528819D01*
X157988000Y-83528819D02*
X158464190Y-83528819D01*
X158988000Y-83528819D02*
X158988000Y-83766914D01*
X158749905Y-83671676D02*
X158988000Y-83766914D01*
X158988000Y-83766914D02*
X159226095Y-83671676D01*
X158845143Y-83957390D02*
X158988000Y-83766914D01*
X158988000Y-83766914D02*
X159130857Y-83957390D01*
X159749905Y-83528819D02*
X159749905Y-83766914D01*
X159511810Y-83671676D02*
X159749905Y-83766914D01*
X159749905Y-83766914D02*
X159988000Y-83671676D01*
X159607048Y-83957390D02*
X159749905Y-83766914D01*
X159749905Y-83766914D02*
X159892762Y-83957390D01*
X157666666Y-107254819D02*
X157333333Y-106778628D01*
X157095238Y-107254819D02*
X157095238Y-106254819D01*
X157095238Y-106254819D02*
X157476190Y-106254819D01*
X157476190Y-106254819D02*
X157571428Y-106302438D01*
X157571428Y-106302438D02*
X157619047Y-106350057D01*
X157619047Y-106350057D02*
X157666666Y-106445295D01*
X157666666Y-106445295D02*
X157666666Y-106588152D01*
X157666666Y-106588152D02*
X157619047Y-106683390D01*
X157619047Y-106683390D02*
X157571428Y-106731009D01*
X157571428Y-106731009D02*
X157476190Y-106778628D01*
X157476190Y-106778628D02*
X157095238Y-106778628D01*
X158095238Y-106731009D02*
X158428571Y-106731009D01*
X158571428Y-107254819D02*
X158095238Y-107254819D01*
X158095238Y-107254819D02*
X158095238Y-106254819D01*
X158095238Y-106254819D02*
X158571428Y-106254819D01*
X159333333Y-106731009D02*
X159000000Y-106731009D01*
X159000000Y-107254819D02*
X159000000Y-106254819D01*
X159000000Y-106254819D02*
X159476190Y-106254819D01*
X160000000Y-106254819D02*
X160000000Y-106492914D01*
X159761905Y-106397676D02*
X160000000Y-106492914D01*
X160000000Y-106492914D02*
X160238095Y-106397676D01*
X159857143Y-106683390D02*
X160000000Y-106492914D01*
X160000000Y-106492914D02*
X160142857Y-106683390D01*
X160761905Y-106254819D02*
X160761905Y-106492914D01*
X160523810Y-106397676D02*
X160761905Y-106492914D01*
X160761905Y-106492914D02*
X161000000Y-106397676D01*
X160619048Y-106683390D02*
X160761905Y-106492914D01*
X160761905Y-106492914D02*
X160904762Y-106683390D01*
X126920833Y-95024819D02*
X126587500Y-94548628D01*
X126349405Y-95024819D02*
X126349405Y-94024819D01*
X126349405Y-94024819D02*
X126730357Y-94024819D01*
X126730357Y-94024819D02*
X126825595Y-94072438D01*
X126825595Y-94072438D02*
X126873214Y-94120057D01*
X126873214Y-94120057D02*
X126920833Y-94215295D01*
X126920833Y-94215295D02*
X126920833Y-94358152D01*
X126920833Y-94358152D02*
X126873214Y-94453390D01*
X126873214Y-94453390D02*
X126825595Y-94501009D01*
X126825595Y-94501009D02*
X126730357Y-94548628D01*
X126730357Y-94548628D02*
X126349405Y-94548628D01*
X127873214Y-95024819D02*
X127301786Y-95024819D01*
X127587500Y-95024819D02*
X127587500Y-94024819D01*
X127587500Y-94024819D02*
X127492262Y-94167676D01*
X127492262Y-94167676D02*
X127397024Y-94262914D01*
X127397024Y-94262914D02*
X127301786Y-94310533D01*
X128479761Y-85575057D02*
X128384523Y-85527438D01*
X128384523Y-85527438D02*
X128289285Y-85432200D01*
X128289285Y-85432200D02*
X128146428Y-85289342D01*
X128146428Y-85289342D02*
X128051190Y-85241723D01*
X128051190Y-85241723D02*
X127955952Y-85241723D01*
X128003571Y-85479819D02*
X127908333Y-85432200D01*
X127908333Y-85432200D02*
X127813095Y-85336961D01*
X127813095Y-85336961D02*
X127765476Y-85146485D01*
X127765476Y-85146485D02*
X127765476Y-84813152D01*
X127765476Y-84813152D02*
X127813095Y-84622676D01*
X127813095Y-84622676D02*
X127908333Y-84527438D01*
X127908333Y-84527438D02*
X128003571Y-84479819D01*
X128003571Y-84479819D02*
X128194047Y-84479819D01*
X128194047Y-84479819D02*
X128289285Y-84527438D01*
X128289285Y-84527438D02*
X128384523Y-84622676D01*
X128384523Y-84622676D02*
X128432142Y-84813152D01*
X128432142Y-84813152D02*
X128432142Y-85146485D01*
X128432142Y-85146485D02*
X128384523Y-85336961D01*
X128384523Y-85336961D02*
X128289285Y-85432200D01*
X128289285Y-85432200D02*
X128194047Y-85479819D01*
X128194047Y-85479819D02*
X128003571Y-85479819D01*
X129384523Y-85479819D02*
X128813095Y-85479819D01*
X129098809Y-85479819D02*
X129098809Y-84479819D01*
X129098809Y-84479819D02*
X129003571Y-84622676D01*
X129003571Y-84622676D02*
X128908333Y-84717914D01*
X128908333Y-84717914D02*
X128813095Y-84765533D01*
X149936666Y-84334819D02*
X149936666Y-85049104D01*
X149936666Y-85049104D02*
X149889047Y-85191961D01*
X149889047Y-85191961D02*
X149793809Y-85287200D01*
X149793809Y-85287200D02*
X149650952Y-85334819D01*
X149650952Y-85334819D02*
X149555714Y-85334819D01*
X150841428Y-84668152D02*
X150841428Y-85334819D01*
X150603333Y-84287200D02*
X150365238Y-85001485D01*
X150365238Y-85001485D02*
X150984285Y-85001485D01*
X141396666Y-84334819D02*
X141396666Y-85049104D01*
X141396666Y-85049104D02*
X141349047Y-85191961D01*
X141349047Y-85191961D02*
X141253809Y-85287200D01*
X141253809Y-85287200D02*
X141110952Y-85334819D01*
X141110952Y-85334819D02*
X141015714Y-85334819D01*
X141777619Y-84334819D02*
X142396666Y-84334819D01*
X142396666Y-84334819D02*
X142063333Y-84715771D01*
X142063333Y-84715771D02*
X142206190Y-84715771D01*
X142206190Y-84715771D02*
X142301428Y-84763390D01*
X142301428Y-84763390D02*
X142349047Y-84811009D01*
X142349047Y-84811009D02*
X142396666Y-84906247D01*
X142396666Y-84906247D02*
X142396666Y-85144342D01*
X142396666Y-85144342D02*
X142349047Y-85239580D01*
X142349047Y-85239580D02*
X142301428Y-85287200D01*
X142301428Y-85287200D02*
X142206190Y-85334819D01*
X142206190Y-85334819D02*
X141920476Y-85334819D01*
X141920476Y-85334819D02*
X141825238Y-85287200D01*
X141825238Y-85287200D02*
X141777619Y-85239580D01*
X132396666Y-96334819D02*
X132396666Y-97049104D01*
X132396666Y-97049104D02*
X132349047Y-97191961D01*
X132349047Y-97191961D02*
X132253809Y-97287200D01*
X132253809Y-97287200D02*
X132110952Y-97334819D01*
X132110952Y-97334819D02*
X132015714Y-97334819D01*
X132825238Y-96430057D02*
X132872857Y-96382438D01*
X132872857Y-96382438D02*
X132968095Y-96334819D01*
X132968095Y-96334819D02*
X133206190Y-96334819D01*
X133206190Y-96334819D02*
X133301428Y-96382438D01*
X133301428Y-96382438D02*
X133349047Y-96430057D01*
X133349047Y-96430057D02*
X133396666Y-96525295D01*
X133396666Y-96525295D02*
X133396666Y-96620533D01*
X133396666Y-96620533D02*
X133349047Y-96763390D01*
X133349047Y-96763390D02*
X132777619Y-97334819D01*
X132777619Y-97334819D02*
X133396666Y-97334819D01*
X139126666Y-104334819D02*
X139126666Y-105049104D01*
X139126666Y-105049104D02*
X139079047Y-105191961D01*
X139079047Y-105191961D02*
X138983809Y-105287200D01*
X138983809Y-105287200D02*
X138840952Y-105334819D01*
X138840952Y-105334819D02*
X138745714Y-105334819D01*
X140126666Y-105334819D02*
X139555238Y-105334819D01*
X139840952Y-105334819D02*
X139840952Y-104334819D01*
X139840952Y-104334819D02*
X139745714Y-104477676D01*
X139745714Y-104477676D02*
X139650476Y-104572914D01*
X139650476Y-104572914D02*
X139555238Y-104620533D01*
X149791666Y-98577009D02*
X149458333Y-98577009D01*
X149458333Y-99100819D02*
X149458333Y-98100819D01*
X149458333Y-98100819D02*
X149934523Y-98100819D01*
X150267857Y-98196057D02*
X150315476Y-98148438D01*
X150315476Y-98148438D02*
X150410714Y-98100819D01*
X150410714Y-98100819D02*
X150648809Y-98100819D01*
X150648809Y-98100819D02*
X150744047Y-98148438D01*
X150744047Y-98148438D02*
X150791666Y-98196057D01*
X150791666Y-98196057D02*
X150839285Y-98291295D01*
X150839285Y-98291295D02*
X150839285Y-98386533D01*
X150839285Y-98386533D02*
X150791666Y-98529390D01*
X150791666Y-98529390D02*
X150220238Y-99100819D01*
X150220238Y-99100819D02*
X150839285Y-99100819D01*
X149375905Y-93672819D02*
X149375905Y-92672819D01*
X149375905Y-92672819D02*
X149614000Y-92672819D01*
X149614000Y-92672819D02*
X149756857Y-92720438D01*
X149756857Y-92720438D02*
X149852095Y-92815676D01*
X149852095Y-92815676D02*
X149899714Y-92910914D01*
X149899714Y-92910914D02*
X149947333Y-93101390D01*
X149947333Y-93101390D02*
X149947333Y-93244247D01*
X149947333Y-93244247D02*
X149899714Y-93434723D01*
X149899714Y-93434723D02*
X149852095Y-93529961D01*
X149852095Y-93529961D02*
X149756857Y-93625200D01*
X149756857Y-93625200D02*
X149614000Y-93672819D01*
X149614000Y-93672819D02*
X149375905Y-93672819D01*
X150899714Y-93672819D02*
X150328286Y-93672819D01*
X150614000Y-93672819D02*
X150614000Y-92672819D01*
X150614000Y-92672819D02*
X150518762Y-92815676D01*
X150518762Y-92815676D02*
X150423524Y-92910914D01*
X150423524Y-92910914D02*
X150328286Y-92958533D01*
X149833333Y-104109580D02*
X149785714Y-104157200D01*
X149785714Y-104157200D02*
X149642857Y-104204819D01*
X149642857Y-104204819D02*
X149547619Y-104204819D01*
X149547619Y-104204819D02*
X149404762Y-104157200D01*
X149404762Y-104157200D02*
X149309524Y-104061961D01*
X149309524Y-104061961D02*
X149261905Y-103966723D01*
X149261905Y-103966723D02*
X149214286Y-103776247D01*
X149214286Y-103776247D02*
X149214286Y-103633390D01*
X149214286Y-103633390D02*
X149261905Y-103442914D01*
X149261905Y-103442914D02*
X149309524Y-103347676D01*
X149309524Y-103347676D02*
X149404762Y-103252438D01*
X149404762Y-103252438D02*
X149547619Y-103204819D01*
X149547619Y-103204819D02*
X149642857Y-103204819D01*
X149642857Y-103204819D02*
X149785714Y-103252438D01*
X149785714Y-103252438D02*
X149833333Y-103300057D01*
X150309524Y-104204819D02*
X150500000Y-104204819D01*
X150500000Y-104204819D02*
X150595238Y-104157200D01*
X150595238Y-104157200D02*
X150642857Y-104109580D01*
X150642857Y-104109580D02*
X150738095Y-103966723D01*
X150738095Y-103966723D02*
X150785714Y-103776247D01*
X150785714Y-103776247D02*
X150785714Y-103395295D01*
X150785714Y-103395295D02*
X150738095Y-103300057D01*
X150738095Y-103300057D02*
X150690476Y-103252438D01*
X150690476Y-103252438D02*
X150595238Y-103204819D01*
X150595238Y-103204819D02*
X150404762Y-103204819D01*
X150404762Y-103204819D02*
X150309524Y-103252438D01*
X150309524Y-103252438D02*
X150261905Y-103300057D01*
X150261905Y-103300057D02*
X150214286Y-103395295D01*
X150214286Y-103395295D02*
X150214286Y-103633390D01*
X150214286Y-103633390D02*
X150261905Y-103728628D01*
X150261905Y-103728628D02*
X150309524Y-103776247D01*
X150309524Y-103776247D02*
X150404762Y-103823866D01*
X150404762Y-103823866D02*
X150595238Y-103823866D01*
X150595238Y-103823866D02*
X150690476Y-103776247D01*
X150690476Y-103776247D02*
X150738095Y-103728628D01*
X150738095Y-103728628D02*
X150785714Y-103633390D01*
X131970833Y-110929580D02*
X131923214Y-110977200D01*
X131923214Y-110977200D02*
X131780357Y-111024819D01*
X131780357Y-111024819D02*
X131685119Y-111024819D01*
X131685119Y-111024819D02*
X131542262Y-110977200D01*
X131542262Y-110977200D02*
X131447024Y-110881961D01*
X131447024Y-110881961D02*
X131399405Y-110786723D01*
X131399405Y-110786723D02*
X131351786Y-110596247D01*
X131351786Y-110596247D02*
X131351786Y-110453390D01*
X131351786Y-110453390D02*
X131399405Y-110262914D01*
X131399405Y-110262914D02*
X131447024Y-110167676D01*
X131447024Y-110167676D02*
X131542262Y-110072438D01*
X131542262Y-110072438D02*
X131685119Y-110024819D01*
X131685119Y-110024819D02*
X131780357Y-110024819D01*
X131780357Y-110024819D02*
X131923214Y-110072438D01*
X131923214Y-110072438D02*
X131970833Y-110120057D01*
X132542262Y-110453390D02*
X132447024Y-110405771D01*
X132447024Y-110405771D02*
X132399405Y-110358152D01*
X132399405Y-110358152D02*
X132351786Y-110262914D01*
X132351786Y-110262914D02*
X132351786Y-110215295D01*
X132351786Y-110215295D02*
X132399405Y-110120057D01*
X132399405Y-110120057D02*
X132447024Y-110072438D01*
X132447024Y-110072438D02*
X132542262Y-110024819D01*
X132542262Y-110024819D02*
X132732738Y-110024819D01*
X132732738Y-110024819D02*
X132827976Y-110072438D01*
X132827976Y-110072438D02*
X132875595Y-110120057D01*
X132875595Y-110120057D02*
X132923214Y-110215295D01*
X132923214Y-110215295D02*
X132923214Y-110262914D01*
X132923214Y-110262914D02*
X132875595Y-110358152D01*
X132875595Y-110358152D02*
X132827976Y-110405771D01*
X132827976Y-110405771D02*
X132732738Y-110453390D01*
X132732738Y-110453390D02*
X132542262Y-110453390D01*
X132542262Y-110453390D02*
X132447024Y-110501009D01*
X132447024Y-110501009D02*
X132399405Y-110548628D01*
X132399405Y-110548628D02*
X132351786Y-110643866D01*
X132351786Y-110643866D02*
X132351786Y-110834342D01*
X132351786Y-110834342D02*
X132399405Y-110929580D01*
X132399405Y-110929580D02*
X132447024Y-110977200D01*
X132447024Y-110977200D02*
X132542262Y-111024819D01*
X132542262Y-111024819D02*
X132732738Y-111024819D01*
X132732738Y-111024819D02*
X132827976Y-110977200D01*
X132827976Y-110977200D02*
X132875595Y-110929580D01*
X132875595Y-110929580D02*
X132923214Y-110834342D01*
X132923214Y-110834342D02*
X132923214Y-110643866D01*
X132923214Y-110643866D02*
X132875595Y-110548628D01*
X132875595Y-110548628D02*
X132827976Y-110501009D01*
X132827976Y-110501009D02*
X132732738Y-110453390D01*
X127970833Y-110929580D02*
X127923214Y-110977200D01*
X127923214Y-110977200D02*
X127780357Y-111024819D01*
X127780357Y-111024819D02*
X127685119Y-111024819D01*
X127685119Y-111024819D02*
X127542262Y-110977200D01*
X127542262Y-110977200D02*
X127447024Y-110881961D01*
X127447024Y-110881961D02*
X127399405Y-110786723D01*
X127399405Y-110786723D02*
X127351786Y-110596247D01*
X127351786Y-110596247D02*
X127351786Y-110453390D01*
X127351786Y-110453390D02*
X127399405Y-110262914D01*
X127399405Y-110262914D02*
X127447024Y-110167676D01*
X127447024Y-110167676D02*
X127542262Y-110072438D01*
X127542262Y-110072438D02*
X127685119Y-110024819D01*
X127685119Y-110024819D02*
X127780357Y-110024819D01*
X127780357Y-110024819D02*
X127923214Y-110072438D01*
X127923214Y-110072438D02*
X127970833Y-110120057D01*
X128304167Y-110024819D02*
X128970833Y-110024819D01*
X128970833Y-110024819D02*
X128542262Y-111024819D01*
X123970833Y-110929580D02*
X123923214Y-110977200D01*
X123923214Y-110977200D02*
X123780357Y-111024819D01*
X123780357Y-111024819D02*
X123685119Y-111024819D01*
X123685119Y-111024819D02*
X123542262Y-110977200D01*
X123542262Y-110977200D02*
X123447024Y-110881961D01*
X123447024Y-110881961D02*
X123399405Y-110786723D01*
X123399405Y-110786723D02*
X123351786Y-110596247D01*
X123351786Y-110596247D02*
X123351786Y-110453390D01*
X123351786Y-110453390D02*
X123399405Y-110262914D01*
X123399405Y-110262914D02*
X123447024Y-110167676D01*
X123447024Y-110167676D02*
X123542262Y-110072438D01*
X123542262Y-110072438D02*
X123685119Y-110024819D01*
X123685119Y-110024819D02*
X123780357Y-110024819D01*
X123780357Y-110024819D02*
X123923214Y-110072438D01*
X123923214Y-110072438D02*
X123970833Y-110120057D01*
X124827976Y-110024819D02*
X124637500Y-110024819D01*
X124637500Y-110024819D02*
X124542262Y-110072438D01*
X124542262Y-110072438D02*
X124494643Y-110120057D01*
X124494643Y-110120057D02*
X124399405Y-110262914D01*
X124399405Y-110262914D02*
X124351786Y-110453390D01*
X124351786Y-110453390D02*
X124351786Y-110834342D01*
X124351786Y-110834342D02*
X124399405Y-110929580D01*
X124399405Y-110929580D02*
X124447024Y-110977200D01*
X124447024Y-110977200D02*
X124542262Y-111024819D01*
X124542262Y-111024819D02*
X124732738Y-111024819D01*
X124732738Y-111024819D02*
X124827976Y-110977200D01*
X124827976Y-110977200D02*
X124875595Y-110929580D01*
X124875595Y-110929580D02*
X124923214Y-110834342D01*
X124923214Y-110834342D02*
X124923214Y-110596247D01*
X124923214Y-110596247D02*
X124875595Y-110501009D01*
X124875595Y-110501009D02*
X124827976Y-110453390D01*
X124827976Y-110453390D02*
X124732738Y-110405771D01*
X124732738Y-110405771D02*
X124542262Y-110405771D01*
X124542262Y-110405771D02*
X124447024Y-110453390D01*
X124447024Y-110453390D02*
X124399405Y-110501009D01*
X124399405Y-110501009D02*
X124351786Y-110596247D01*
X123970833Y-107929580D02*
X123923214Y-107977200D01*
X123923214Y-107977200D02*
X123780357Y-108024819D01*
X123780357Y-108024819D02*
X123685119Y-108024819D01*
X123685119Y-108024819D02*
X123542262Y-107977200D01*
X123542262Y-107977200D02*
X123447024Y-107881961D01*
X123447024Y-107881961D02*
X123399405Y-107786723D01*
X123399405Y-107786723D02*
X123351786Y-107596247D01*
X123351786Y-107596247D02*
X123351786Y-107453390D01*
X123351786Y-107453390D02*
X123399405Y-107262914D01*
X123399405Y-107262914D02*
X123447024Y-107167676D01*
X123447024Y-107167676D02*
X123542262Y-107072438D01*
X123542262Y-107072438D02*
X123685119Y-107024819D01*
X123685119Y-107024819D02*
X123780357Y-107024819D01*
X123780357Y-107024819D02*
X123923214Y-107072438D01*
X123923214Y-107072438D02*
X123970833Y-107120057D01*
X124875595Y-107024819D02*
X124399405Y-107024819D01*
X124399405Y-107024819D02*
X124351786Y-107501009D01*
X124351786Y-107501009D02*
X124399405Y-107453390D01*
X124399405Y-107453390D02*
X124494643Y-107405771D01*
X124494643Y-107405771D02*
X124732738Y-107405771D01*
X124732738Y-107405771D02*
X124827976Y-107453390D01*
X124827976Y-107453390D02*
X124875595Y-107501009D01*
X124875595Y-107501009D02*
X124923214Y-107596247D01*
X124923214Y-107596247D02*
X124923214Y-107834342D01*
X124923214Y-107834342D02*
X124875595Y-107929580D01*
X124875595Y-107929580D02*
X124827976Y-107977200D01*
X124827976Y-107977200D02*
X124732738Y-108024819D01*
X124732738Y-108024819D02*
X124494643Y-108024819D01*
X124494643Y-108024819D02*
X124399405Y-107977200D01*
X124399405Y-107977200D02*
X124351786Y-107929580D01*
X123970833Y-104929580D02*
X123923214Y-104977200D01*
X123923214Y-104977200D02*
X123780357Y-105024819D01*
X123780357Y-105024819D02*
X123685119Y-105024819D01*
X123685119Y-105024819D02*
X123542262Y-104977200D01*
X123542262Y-104977200D02*
X123447024Y-104881961D01*
X123447024Y-104881961D02*
X123399405Y-104786723D01*
X123399405Y-104786723D02*
X123351786Y-104596247D01*
X123351786Y-104596247D02*
X123351786Y-104453390D01*
X123351786Y-104453390D02*
X123399405Y-104262914D01*
X123399405Y-104262914D02*
X123447024Y-104167676D01*
X123447024Y-104167676D02*
X123542262Y-104072438D01*
X123542262Y-104072438D02*
X123685119Y-104024819D01*
X123685119Y-104024819D02*
X123780357Y-104024819D01*
X123780357Y-104024819D02*
X123923214Y-104072438D01*
X123923214Y-104072438D02*
X123970833Y-104120057D01*
X124827976Y-104358152D02*
X124827976Y-105024819D01*
X124589881Y-103977200D02*
X124351786Y-104691485D01*
X124351786Y-104691485D02*
X124970833Y-104691485D01*
X123970833Y-101929580D02*
X123923214Y-101977200D01*
X123923214Y-101977200D02*
X123780357Y-102024819D01*
X123780357Y-102024819D02*
X123685119Y-102024819D01*
X123685119Y-102024819D02*
X123542262Y-101977200D01*
X123542262Y-101977200D02*
X123447024Y-101881961D01*
X123447024Y-101881961D02*
X123399405Y-101786723D01*
X123399405Y-101786723D02*
X123351786Y-101596247D01*
X123351786Y-101596247D02*
X123351786Y-101453390D01*
X123351786Y-101453390D02*
X123399405Y-101262914D01*
X123399405Y-101262914D02*
X123447024Y-101167676D01*
X123447024Y-101167676D02*
X123542262Y-101072438D01*
X123542262Y-101072438D02*
X123685119Y-101024819D01*
X123685119Y-101024819D02*
X123780357Y-101024819D01*
X123780357Y-101024819D02*
X123923214Y-101072438D01*
X123923214Y-101072438D02*
X123970833Y-101120057D01*
X124304167Y-101024819D02*
X124923214Y-101024819D01*
X124923214Y-101024819D02*
X124589881Y-101405771D01*
X124589881Y-101405771D02*
X124732738Y-101405771D01*
X124732738Y-101405771D02*
X124827976Y-101453390D01*
X124827976Y-101453390D02*
X124875595Y-101501009D01*
X124875595Y-101501009D02*
X124923214Y-101596247D01*
X124923214Y-101596247D02*
X124923214Y-101834342D01*
X124923214Y-101834342D02*
X124875595Y-101929580D01*
X124875595Y-101929580D02*
X124827976Y-101977200D01*
X124827976Y-101977200D02*
X124732738Y-102024819D01*
X124732738Y-102024819D02*
X124447024Y-102024819D01*
X124447024Y-102024819D02*
X124351786Y-101977200D01*
X124351786Y-101977200D02*
X124304167Y-101929580D01*
X123970833Y-98929580D02*
X123923214Y-98977200D01*
X123923214Y-98977200D02*
X123780357Y-99024819D01*
X123780357Y-99024819D02*
X123685119Y-99024819D01*
X123685119Y-99024819D02*
X123542262Y-98977200D01*
X123542262Y-98977200D02*
X123447024Y-98881961D01*
X123447024Y-98881961D02*
X123399405Y-98786723D01*
X123399405Y-98786723D02*
X123351786Y-98596247D01*
X123351786Y-98596247D02*
X123351786Y-98453390D01*
X123351786Y-98453390D02*
X123399405Y-98262914D01*
X123399405Y-98262914D02*
X123447024Y-98167676D01*
X123447024Y-98167676D02*
X123542262Y-98072438D01*
X123542262Y-98072438D02*
X123685119Y-98024819D01*
X123685119Y-98024819D02*
X123780357Y-98024819D01*
X123780357Y-98024819D02*
X123923214Y-98072438D01*
X123923214Y-98072438D02*
X123970833Y-98120057D01*
X124351786Y-98120057D02*
X124399405Y-98072438D01*
X124399405Y-98072438D02*
X124494643Y-98024819D01*
X124494643Y-98024819D02*
X124732738Y-98024819D01*
X124732738Y-98024819D02*
X124827976Y-98072438D01*
X124827976Y-98072438D02*
X124875595Y-98120057D01*
X124875595Y-98120057D02*
X124923214Y-98215295D01*
X124923214Y-98215295D02*
X124923214Y-98310533D01*
X124923214Y-98310533D02*
X124875595Y-98453390D01*
X124875595Y-98453390D02*
X124304167Y-99024819D01*
X124304167Y-99024819D02*
X124923214Y-99024819D01*
X134970833Y-94929580D02*
X134923214Y-94977200D01*
X134923214Y-94977200D02*
X134780357Y-95024819D01*
X134780357Y-95024819D02*
X134685119Y-95024819D01*
X134685119Y-95024819D02*
X134542262Y-94977200D01*
X134542262Y-94977200D02*
X134447024Y-94881961D01*
X134447024Y-94881961D02*
X134399405Y-94786723D01*
X134399405Y-94786723D02*
X134351786Y-94596247D01*
X134351786Y-94596247D02*
X134351786Y-94453390D01*
X134351786Y-94453390D02*
X134399405Y-94262914D01*
X134399405Y-94262914D02*
X134447024Y-94167676D01*
X134447024Y-94167676D02*
X134542262Y-94072438D01*
X134542262Y-94072438D02*
X134685119Y-94024819D01*
X134685119Y-94024819D02*
X134780357Y-94024819D01*
X134780357Y-94024819D02*
X134923214Y-94072438D01*
X134923214Y-94072438D02*
X134970833Y-94120057D01*
X135923214Y-95024819D02*
X135351786Y-95024819D01*
X135637500Y-95024819D02*
X135637500Y-94024819D01*
X135637500Y-94024819D02*
X135542262Y-94167676D01*
X135542262Y-94167676D02*
X135447024Y-94262914D01*
X135447024Y-94262914D02*
X135351786Y-94310533D01*
D11*
%TO.C,R1*%
X126832776Y-95477500D02*
X127342224Y-95477500D01*
X126832776Y-96522500D02*
X127342224Y-96522500D01*
%TO.C,Q1*%
X127605000Y-86075000D02*
X126105000Y-86075000D01*
X126105000Y-86345000D02*
X123275000Y-86345000D01*
X126105000Y-92705000D02*
X125005000Y-92705000D01*
X127605000Y-92975000D02*
X126105000Y-92975000D01*
X126105000Y-86075000D02*
X126105000Y-86345000D01*
X126105000Y-92975000D02*
X126105000Y-92705000D01*
%TO.C,J4*%
X147620000Y-91990000D02*
X152920000Y-91990000D01*
X149800000Y-86570000D02*
X149800000Y-85970000D01*
X147330000Y-87000000D02*
X147330000Y-91000000D01*
X147620000Y-85970000D02*
X147620000Y-91990000D01*
X150740000Y-85970000D02*
X150740000Y-86570000D01*
X151540000Y-90990000D02*
X151540000Y-91990000D01*
X151290000Y-91990000D02*
X151290000Y-90990000D01*
X148200000Y-86570000D02*
X149800000Y-86570000D01*
X150740000Y-86570000D02*
X152340000Y-86570000D01*
X151290000Y-90460000D02*
X151540000Y-90990000D01*
X149000000Y-90990000D02*
X151540000Y-90990000D01*
X149000000Y-91990000D02*
X149000000Y-90990000D01*
X149250000Y-91990000D02*
X149250000Y-90990000D01*
X149000000Y-90990000D02*
X149250000Y-90460000D01*
X152920000Y-85970000D02*
X147620000Y-85970000D01*
X148200000Y-85970000D02*
X148200000Y-86570000D01*
X152920000Y-91990000D02*
X152920000Y-85970000D01*
X152340000Y-86570000D02*
X152340000Y-85970000D01*
X149250000Y-90460000D02*
X151290000Y-90460000D01*
%TO.C,J3*%
X139080000Y-91990000D02*
X144380000Y-91990000D01*
X141260000Y-86570000D02*
X141260000Y-85970000D01*
X138790000Y-87000000D02*
X138790000Y-91000000D01*
X139080000Y-85970000D02*
X139080000Y-91990000D01*
X142200000Y-85970000D02*
X142200000Y-86570000D01*
X143000000Y-90990000D02*
X143000000Y-91990000D01*
X142750000Y-91990000D02*
X142750000Y-90990000D01*
X139660000Y-86570000D02*
X141260000Y-86570000D01*
X142200000Y-86570000D02*
X143800000Y-86570000D01*
X142750000Y-90460000D02*
X143000000Y-90990000D01*
X140460000Y-90990000D02*
X143000000Y-90990000D01*
X140460000Y-91990000D02*
X140460000Y-90990000D01*
X140710000Y-91990000D02*
X140710000Y-90990000D01*
X140460000Y-90990000D02*
X140710000Y-90460000D01*
X144380000Y-85970000D02*
X139080000Y-85970000D01*
X139660000Y-85970000D02*
X139660000Y-86570000D01*
X144380000Y-91990000D02*
X144380000Y-85970000D01*
X143800000Y-86570000D02*
X143800000Y-85970000D01*
X140710000Y-90460000D02*
X142750000Y-90460000D01*
%TO.C,J2*%
X130080000Y-103990000D02*
X135380000Y-103990000D01*
X132260000Y-98570000D02*
X132260000Y-97970000D01*
X129790000Y-99000000D02*
X129790000Y-103000000D01*
X130080000Y-97970000D02*
X130080000Y-103990000D01*
X133200000Y-97970000D02*
X133200000Y-98570000D01*
X134000000Y-102990000D02*
X134000000Y-103990000D01*
X133750000Y-103990000D02*
X133750000Y-102990000D01*
X130660000Y-98570000D02*
X132260000Y-98570000D01*
X133200000Y-98570000D02*
X134800000Y-98570000D01*
X133750000Y-102460000D02*
X134000000Y-102990000D01*
X131460000Y-102990000D02*
X134000000Y-102990000D01*
X131460000Y-103990000D02*
X131460000Y-102990000D01*
X131710000Y-103990000D02*
X131710000Y-102990000D01*
X131460000Y-102990000D02*
X131710000Y-102460000D01*
X135380000Y-97970000D02*
X130080000Y-97970000D01*
X130660000Y-97970000D02*
X130660000Y-98570000D01*
X135380000Y-103990000D02*
X135380000Y-97970000D01*
X134800000Y-98570000D02*
X134800000Y-97970000D01*
X131710000Y-102460000D02*
X133750000Y-102460000D01*
%TO.C,J1*%
X142000000Y-110990000D02*
X142000000Y-111990000D01*
X141200000Y-106570000D02*
X142800000Y-106570000D01*
X138660000Y-106570000D02*
X140260000Y-106570000D01*
X136920000Y-110990000D02*
X142000000Y-110990000D01*
X135250000Y-107000000D02*
X135250000Y-111000000D01*
X141200000Y-105970000D02*
X141200000Y-106570000D01*
X135540000Y-105970000D02*
X135540000Y-111990000D01*
X136920000Y-110990000D02*
X137170000Y-110460000D01*
X137170000Y-110460000D02*
X141750000Y-110460000D01*
X142800000Y-106570000D02*
X142800000Y-105970000D01*
X138660000Y-105970000D02*
X138660000Y-106570000D01*
X141750000Y-111990000D02*
X141750000Y-110990000D01*
X143380000Y-105970000D02*
X135540000Y-105970000D01*
X141750000Y-110460000D02*
X142000000Y-110990000D01*
X137170000Y-111990000D02*
X137170000Y-110990000D01*
X136120000Y-106570000D02*
X137720000Y-106570000D01*
X135540000Y-111990000D02*
X143380000Y-111990000D01*
X136120000Y-105970000D02*
X136120000Y-106570000D01*
X140260000Y-106570000D02*
X140260000Y-105970000D01*
X137720000Y-106570000D02*
X137720000Y-105970000D01*
X143380000Y-111990000D02*
X143380000Y-105970000D01*
X136920000Y-111990000D02*
X136920000Y-110990000D01*
%TO.C,F2*%
X149953733Y-99566000D02*
X150296267Y-99566000D01*
X149953733Y-100586000D02*
X150296267Y-100586000D01*
%TO.C,D1*%
X146600000Y-94108000D02*
X152000000Y-94108000D01*
X146600000Y-97408000D02*
X152000000Y-97408000D01*
X146600000Y-94108000D02*
X146600000Y-97408000D01*
%TO.C,C9*%
X154120000Y-109000000D02*
G75*
G02*
X145880000Y-109000000I-4120000J0D01*
G01*
X145880000Y-109000000D02*
G75*
G02*
X154120000Y-109000000I4120000J0D01*
G01*
%TO.C,C8*%
X131991233Y-111490000D02*
X132283767Y-111490000D01*
X131991233Y-112510000D02*
X132283767Y-112510000D01*
%TO.C,C7*%
X127991233Y-111490000D02*
X128283767Y-111490000D01*
X127991233Y-112510000D02*
X128283767Y-112510000D01*
%TO.C,C6*%
X123991233Y-111490000D02*
X124283767Y-111490000D01*
X123991233Y-112510000D02*
X124283767Y-112510000D01*
%TO.C,C5*%
X123991233Y-108490000D02*
X124283767Y-108490000D01*
X123991233Y-109510000D02*
X124283767Y-109510000D01*
%TO.C,C4*%
X123991233Y-105490000D02*
X124283767Y-105490000D01*
X123991233Y-106510000D02*
X124283767Y-106510000D01*
%TO.C,C3*%
X123991233Y-102490000D02*
X124283767Y-102490000D01*
X123991233Y-103510000D02*
X124283767Y-103510000D01*
%TO.C,C2*%
X123991233Y-99490000D02*
X124283767Y-99490000D01*
X123991233Y-100510000D02*
X124283767Y-100510000D01*
%TO.C,C1*%
X134991233Y-95490000D02*
X135283767Y-95490000D01*
X134991233Y-96510000D02*
X135283767Y-96510000D01*
%TD*%
M02*
