%TF.GenerationSoftware,KiCad,Pcbnew,9.0.9*%
%TF.CreationDate,2026-09-25T17:54:25-05:00*%
%TF.ProjectId,hardproj,68617264-7072-46f6-9a2e-6b696361645f,0.0*%
%TF.SameCoordinates,Original*%
%TF.FileFunction,Copper,L2,Bot*%
%TF.FilePolarity,Positive*%
%FSLAX46Y46*%
G04 Gerber Fmt 4.6, Leading zero omitted, Abs format (unit mm)*
G04 Created by KiCad (PCBNEW 9.0.9) date 2026-09-25 17:54:25*
%MOMM*%
%LPD*%
G01*
G04 APERTURE LIST*
G04 Aperture macros list*
%AMRoundRect*
0 Rectangle with rounded corners*
0 $1 Rounding radius*
0 $2 $3 $4 $5 $6 $7 $8 $9 X,Y pos of 4 corners*
0 Add a 4 corners polygon primitive as box body*
4,1,4,$2,$3,$4,$5,$6,$7,$8,$9,$2,$3,0*
0 Add four circle primitives for the rounded corners*
1,1,$1+$1,$2,$3*
1,1,$1+$1,$4,$5*
1,1,$1+$1,$6,$7*
1,1,$1+$1,$8,$9*
0 Add four rect primitives between the rounded corners*
20,1,$1+$1,$2,$3,$4,$5,0*
20,1,$1+$1,$4,$5,$6,$7,0*
20,1,$1+$1,$6,$7,$8,$9,0*
20,1,$1+$1,$8,$9,$2,$3,0*%
G04 Aperture macros list end*
%TA.AperFunction,ComponentPad*%
%ADD10RoundRect,0.250000X-0.620000X-0.845000X0.620000X-0.845000X0.620000X0.845000X-0.620000X0.845000X0*%
%TD*%
%TA.AperFunction,ComponentPad*%
%ADD11O,1.740000X2.190000*%
%TD*%
%TA.AperFunction,ComponentPad*%
%ADD12C,1.600000*%
%TD*%
%TA.AperFunction,ViaPad*%
%ADD13C,0.800000*%
%TD*%
G04 APERTURE END LIST*
D10*
%TO.P,J4,1,Pin_1*%
%TO.N,Net-(J3-Pin_2)*%
X149000000Y-89000000D03*
D11*
%TO.P,J4,2,Pin_2*%
%TO.N,/HornIn*%
X151540000Y-89000000D03*
%TD*%
D10*
%TO.P,J3,1,Pin_1*%
%TO.N,+24V*%
X140460000Y-89000000D03*
D11*
%TO.P,J3,2,Pin_2*%
%TO.N,Net-(J3-Pin_2)*%
X143000000Y-89000000D03*
%TD*%
D10*
%TO.P,J2,1,Pin_1*%
%TO.N,/HornCTL*%
X131460000Y-101000000D03*
D11*
%TO.P,J2,2,Pin_2*%
%TO.N,GND*%
X134000000Y-101000000D03*
%TD*%
D10*
%TO.P,J1,1,Pin_1*%
%TO.N,GND*%
X136920000Y-109000000D03*
D11*
%TO.P,J1,2,Pin_2*%
%TO.N,+24V*%
X139460000Y-109000000D03*
%TO.P,J1,3,Pin_3*%
%TO.N,GND*%
X142000000Y-109000000D03*
%TD*%
D12*
%TO.P,C9,1*%
%TO.N,+24V*%
X148250000Y-109000000D03*
%TO.P,C9,2*%
%TO.N,GND*%
X151750000Y-109000000D03*
%TD*%
D13*
%TO.N,GND*%
X132080000Y-106680000D03*
X124460000Y-93980000D03*
X138000000Y-101000000D03*
%TD*%
%TA.AperFunction,Conductor*%
%TO.N,GND*%
G36*
X159003032Y-83254649D02*
G01*
X159082396Y-83258547D01*
X159361043Y-83272237D01*
X159373147Y-83273429D01*
X159724687Y-83325575D01*
X159736619Y-83327949D01*
X160081349Y-83414299D01*
X160092988Y-83417829D01*
X160427616Y-83537560D01*
X160438837Y-83542208D01*
X160760117Y-83694163D01*
X160770845Y-83699898D01*
X161075658Y-83882596D01*
X161085775Y-83889356D01*
X161371225Y-84101059D01*
X161380633Y-84108779D01*
X161643954Y-84347441D01*
X161652558Y-84356045D01*
X161867376Y-84593059D01*
X161891220Y-84619366D01*
X161898940Y-84628774D01*
X162110643Y-84914224D01*
X162117403Y-84924341D01*
X162300101Y-85229154D01*
X162305838Y-85239886D01*
X162457786Y-85561151D01*
X162462443Y-85572394D01*
X162582168Y-85907005D01*
X162585700Y-85918650D01*
X162672050Y-86263380D01*
X162674424Y-86275314D01*
X162726569Y-86626848D01*
X162727762Y-86638958D01*
X162745351Y-86996967D01*
X162745500Y-87003052D01*
X162745500Y-110996947D01*
X162745351Y-111003032D01*
X162727762Y-111361041D01*
X162726569Y-111373151D01*
X162674424Y-111724685D01*
X162672050Y-111736619D01*
X162585700Y-112081349D01*
X162582168Y-112092994D01*
X162462443Y-112427605D01*
X162457786Y-112438848D01*
X162305838Y-112760113D01*
X162300101Y-112770845D01*
X162117403Y-113075658D01*
X162110643Y-113085775D01*
X161898940Y-113371225D01*
X161891220Y-113380633D01*
X161652558Y-113643954D01*
X161643954Y-113652558D01*
X161380633Y-113891220D01*
X161371225Y-113898940D01*
X161085775Y-114110643D01*
X161075658Y-114117403D01*
X160770845Y-114300101D01*
X160760113Y-114305838D01*
X160438848Y-114457786D01*
X160427605Y-114462443D01*
X160092994Y-114582168D01*
X160081349Y-114585700D01*
X159736619Y-114672050D01*
X159724685Y-114674424D01*
X159373151Y-114726569D01*
X159361041Y-114727762D01*
X159003033Y-114745351D01*
X158996948Y-114745500D01*
X115003052Y-114745500D01*
X114996967Y-114745351D01*
X114638958Y-114727762D01*
X114626848Y-114726569D01*
X114275314Y-114674424D01*
X114263380Y-114672050D01*
X113918650Y-114585700D01*
X113907005Y-114582168D01*
X113572394Y-114462443D01*
X113561151Y-114457786D01*
X113239886Y-114305838D01*
X113229154Y-114300101D01*
X112924341Y-114117403D01*
X112914224Y-114110643D01*
X112628774Y-113898940D01*
X112619366Y-113891220D01*
X112356045Y-113652558D01*
X112347441Y-113643954D01*
X112245725Y-113531729D01*
X112108775Y-113380628D01*
X112101059Y-113371225D01*
X111889356Y-113085775D01*
X111882596Y-113075658D01*
X111747641Y-112850500D01*
X111699896Y-112770842D01*
X111694161Y-112760113D01*
X111692241Y-112756054D01*
X111542208Y-112438837D01*
X111537560Y-112427616D01*
X111417829Y-112092988D01*
X111414299Y-112081349D01*
X111327949Y-111736619D01*
X111325575Y-111724685D01*
X111273430Y-111373151D01*
X111272237Y-111361040D01*
X111254649Y-111003031D01*
X111254500Y-110996947D01*
X111254500Y-110878711D01*
X113149500Y-110878711D01*
X113149500Y-111121288D01*
X113181063Y-111361041D01*
X113181162Y-111361789D01*
X113212554Y-111478944D01*
X113243947Y-111596104D01*
X113336773Y-111820205D01*
X113336776Y-111820212D01*
X113458064Y-112030289D01*
X113458066Y-112030292D01*
X113458067Y-112030293D01*
X113605733Y-112222736D01*
X113605739Y-112222743D01*
X113777256Y-112394260D01*
X113777263Y-112394266D01*
X113828187Y-112433341D01*
X113969711Y-112541936D01*
X114179788Y-112663224D01*
X114403900Y-112756054D01*
X114638211Y-112818838D01*
X114818586Y-112842584D01*
X114878711Y-112850500D01*
X114878712Y-112850500D01*
X115121289Y-112850500D01*
X115169388Y-112844167D01*
X115361789Y-112818838D01*
X115596100Y-112756054D01*
X115820212Y-112663224D01*
X116030289Y-112541936D01*
X116222738Y-112394265D01*
X116394265Y-112222738D01*
X116541936Y-112030289D01*
X116663224Y-111820212D01*
X116756054Y-111596100D01*
X116818838Y-111361789D01*
X116850500Y-111121288D01*
X116850500Y-110878712D01*
X116850500Y-110878711D01*
X157149500Y-110878711D01*
X157149500Y-111121288D01*
X157181063Y-111361041D01*
X157181162Y-111361789D01*
X157212554Y-111478944D01*
X157243947Y-111596104D01*
X157336773Y-111820205D01*
X157336776Y-111820212D01*
X157458064Y-112030289D01*
X157458066Y-112030292D01*
X157458067Y-112030293D01*
X157605733Y-112222736D01*
X157605739Y-112222743D01*
X157777256Y-112394260D01*
X157777263Y-112394266D01*
X157828187Y-112433341D01*
X157969711Y-112541936D01*
X158179788Y-112663224D01*
X158403900Y-112756054D01*
X158638211Y-112818838D01*
X158818586Y-112842584D01*
X158878711Y-112850500D01*
X158878712Y-112850500D01*
X159121289Y-112850500D01*
X159169388Y-112844167D01*
X159361789Y-112818838D01*
X159596100Y-112756054D01*
X159820212Y-112663224D01*
X160030289Y-112541936D01*
X160222738Y-112394265D01*
X160394265Y-112222738D01*
X160541936Y-112030289D01*
X160663224Y-111820212D01*
X160756054Y-111596100D01*
X160818838Y-111361789D01*
X160850500Y-111121288D01*
X160850500Y-110878712D01*
X160818838Y-110638211D01*
X160756054Y-110403900D01*
X160663224Y-110179788D01*
X160541936Y-109969711D01*
X160394265Y-109777262D01*
X160394260Y-109777256D01*
X160222743Y-109605739D01*
X160222736Y-109605733D01*
X160030293Y-109458067D01*
X160030292Y-109458066D01*
X160030289Y-109458064D01*
X159820212Y-109336776D01*
X159820205Y-109336773D01*
X159596104Y-109243947D01*
X159361785Y-109181161D01*
X159121289Y-109149500D01*
X159121288Y-109149500D01*
X158878712Y-109149500D01*
X158878711Y-109149500D01*
X158638214Y-109181161D01*
X158403895Y-109243947D01*
X158179794Y-109336773D01*
X158179785Y-109336777D01*
X157969706Y-109458067D01*
X157777263Y-109605733D01*
X157777256Y-109605739D01*
X157605739Y-109777256D01*
X157605733Y-109777263D01*
X157458067Y-109969706D01*
X157336777Y-110179785D01*
X157336773Y-110179794D01*
X157243947Y-110403895D01*
X157181161Y-110638214D01*
X157149500Y-110878711D01*
X116850500Y-110878711D01*
X116818838Y-110638211D01*
X116756054Y-110403900D01*
X116663224Y-110179788D01*
X116541936Y-109969711D01*
X116394265Y-109777262D01*
X116394260Y-109777256D01*
X116222743Y-109605739D01*
X116222736Y-109605733D01*
X116030293Y-109458067D01*
X116030292Y-109458066D01*
X116030289Y-109458064D01*
X115820212Y-109336776D01*
X115820205Y-109336772D01*
X115763293Y-109313199D01*
X115596104Y-109243947D01*
X115361785Y-109181161D01*
X115121289Y-109149500D01*
X115121288Y-109149500D01*
X114878712Y-109149500D01*
X114878711Y-109149500D01*
X114638214Y-109181161D01*
X114403895Y-109243947D01*
X114179794Y-109336773D01*
X114179785Y-109336777D01*
X113969706Y-109458067D01*
X113777263Y-109605733D01*
X113777256Y-109605739D01*
X113605739Y-109777256D01*
X113605733Y-109777263D01*
X113458067Y-109969706D01*
X113336777Y-110179785D01*
X113336773Y-110179794D01*
X113243947Y-110403895D01*
X113181161Y-110638214D01*
X113149500Y-110878711D01*
X111254500Y-110878711D01*
X111254500Y-108105013D01*
X135550000Y-108105013D01*
X135550000Y-108750000D01*
X136377291Y-108750000D01*
X136365548Y-108770339D01*
X136325000Y-108921667D01*
X136325000Y-109078333D01*
X136365548Y-109229661D01*
X136377291Y-109250000D01*
X135550001Y-109250000D01*
X135550001Y-109894986D01*
X135560494Y-109997697D01*
X135615641Y-110164119D01*
X135615643Y-110164124D01*
X135707684Y-110313345D01*
X135831654Y-110437315D01*
X135980875Y-110529356D01*
X135980880Y-110529358D01*
X136147302Y-110584505D01*
X136147309Y-110584506D01*
X136250019Y-110594999D01*
X136669999Y-110594999D01*
X136670000Y-110594998D01*
X136670000Y-109542709D01*
X136690339Y-109554452D01*
X136841667Y-109595000D01*
X136998333Y-109595000D01*
X137149661Y-109554452D01*
X137170000Y-109542709D01*
X137170000Y-110594999D01*
X137589972Y-110594999D01*
X137589986Y-110594998D01*
X137692697Y-110584505D01*
X137859119Y-110529358D01*
X137859124Y-110529356D01*
X138008345Y-110437315D01*
X138132317Y-110313343D01*
X138227968Y-110158267D01*
X138279916Y-110111542D01*
X138348878Y-110100319D01*
X138412960Y-110128162D01*
X138421188Y-110135682D01*
X138561967Y-110276461D01*
X138737508Y-110403999D01*
X138930840Y-110502506D01*
X139137200Y-110569557D01*
X139217566Y-110582285D01*
X139351505Y-110603500D01*
X139351510Y-110603500D01*
X139568495Y-110603500D01*
X139688421Y-110584505D01*
X139782800Y-110569557D01*
X139989160Y-110502506D01*
X140182492Y-110403999D01*
X140358033Y-110276461D01*
X140511461Y-110123033D01*
X140634936Y-109953084D01*
X140690265Y-109910419D01*
X140759878Y-109904440D01*
X140821673Y-109937046D01*
X140835571Y-109953084D01*
X140955025Y-110117496D01*
X140955025Y-110117497D01*
X141107502Y-110269974D01*
X141281963Y-110396728D01*
X141474098Y-110494627D01*
X141679190Y-110561266D01*
X141750000Y-110572481D01*
X141750000Y-109542709D01*
X141770339Y-109554452D01*
X141921667Y-109595000D01*
X142078333Y-109595000D01*
X142229661Y-109554452D01*
X142250000Y-109542709D01*
X142250000Y-110572480D01*
X142320809Y-110561266D01*
X142525901Y-110494627D01*
X142718036Y-110396728D01*
X142892496Y-110269974D01*
X142892497Y-110269974D01*
X143044974Y-110117497D01*
X143044974Y-110117496D01*
X143171728Y-109943036D01*
X143269627Y-109750901D01*
X143336265Y-109545809D01*
X143370000Y-109332820D01*
X143370000Y-109250000D01*
X142542709Y-109250000D01*
X142554452Y-109229661D01*
X142595000Y-109078333D01*
X142595000Y-108921667D01*
X142588396Y-108897019D01*
X146941500Y-108897019D01*
X146941500Y-109102980D01*
X146973719Y-109306408D01*
X147037367Y-109502294D01*
X147084604Y-109595000D01*
X147128602Y-109681350D01*
X147130873Y-109685806D01*
X147251926Y-109852423D01*
X147251930Y-109852428D01*
X147397571Y-109998069D01*
X147397576Y-109998073D01*
X147509616Y-110079474D01*
X147564197Y-110119129D01*
X147681128Y-110178709D01*
X147747705Y-110212632D01*
X147747707Y-110212632D01*
X147747710Y-110212634D01*
X147852707Y-110246749D01*
X147943591Y-110276280D01*
X148045305Y-110292390D01*
X148147019Y-110308500D01*
X148147020Y-110308500D01*
X148352980Y-110308500D01*
X148352981Y-110308500D01*
X148556408Y-110276280D01*
X148752290Y-110212634D01*
X148935803Y-110119129D01*
X149102430Y-109998068D01*
X149248068Y-109852430D01*
X149369129Y-109685803D01*
X149462634Y-109502290D01*
X149526280Y-109306408D01*
X149558500Y-109102981D01*
X149558500Y-108897682D01*
X150450000Y-108897682D01*
X150450000Y-109102317D01*
X150482009Y-109304417D01*
X150545244Y-109499031D01*
X150638141Y-109681350D01*
X150638147Y-109681359D01*
X150670523Y-109725921D01*
X150670524Y-109725922D01*
X151350000Y-109046446D01*
X151350000Y-109052661D01*
X151377259Y-109154394D01*
X151429920Y-109245606D01*
X151504394Y-109320080D01*
X151595606Y-109372741D01*
X151697339Y-109400000D01*
X151703553Y-109400000D01*
X151024076Y-110079474D01*
X151068650Y-110111859D01*
X151250968Y-110204755D01*
X151445582Y-110267990D01*
X151647683Y-110300000D01*
X151852317Y-110300000D01*
X152054417Y-110267990D01*
X152249031Y-110204755D01*
X152431349Y-110111859D01*
X152475921Y-110079474D01*
X151796447Y-109400000D01*
X151802661Y-109400000D01*
X151904394Y-109372741D01*
X151995606Y-109320080D01*
X152070080Y-109245606D01*
X152122741Y-109154394D01*
X152150000Y-109052661D01*
X152150000Y-109046447D01*
X152829474Y-109725921D01*
X152861859Y-109681349D01*
X152954755Y-109499031D01*
X153017990Y-109304417D01*
X153050000Y-109102317D01*
X153050000Y-108897682D01*
X153017990Y-108695582D01*
X152954755Y-108500968D01*
X152861859Y-108318650D01*
X152829474Y-108274077D01*
X152829474Y-108274076D01*
X152150000Y-108953551D01*
X152150000Y-108947339D01*
X152122741Y-108845606D01*
X152070080Y-108754394D01*
X151995606Y-108679920D01*
X151904394Y-108627259D01*
X151802661Y-108600000D01*
X151796446Y-108600000D01*
X152475922Y-107920524D01*
X152475921Y-107920523D01*
X152431359Y-107888147D01*
X152431350Y-107888141D01*
X152249031Y-107795244D01*
X152054417Y-107732009D01*
X151852317Y-107700000D01*
X151647683Y-107700000D01*
X151445582Y-107732009D01*
X151250968Y-107795244D01*
X151068644Y-107888143D01*
X151024077Y-107920523D01*
X151024077Y-107920524D01*
X151703554Y-108600000D01*
X151697339Y-108600000D01*
X151595606Y-108627259D01*
X151504394Y-108679920D01*
X151429920Y-108754394D01*
X151377259Y-108845606D01*
X151350000Y-108947339D01*
X151350000Y-108953553D01*
X150670524Y-108274077D01*
X150670523Y-108274077D01*
X150638143Y-108318644D01*
X150545244Y-108500968D01*
X150482009Y-108695582D01*
X150450000Y-108897682D01*
X149558500Y-108897682D01*
X149558500Y-108897019D01*
X149526280Y-108693592D01*
X149507132Y-108634662D01*
X149471138Y-108523882D01*
X149462634Y-108497710D01*
X149462632Y-108497707D01*
X149462632Y-108497705D01*
X149428709Y-108431128D01*
X149369129Y-108314197D01*
X149319465Y-108245840D01*
X149248073Y-108147576D01*
X149248069Y-108147571D01*
X149102428Y-108001930D01*
X149102423Y-108001926D01*
X148935806Y-107880873D01*
X148935805Y-107880872D01*
X148935803Y-107880871D01*
X148847494Y-107835875D01*
X148752294Y-107787367D01*
X148556408Y-107723719D01*
X148380794Y-107695905D01*
X148352981Y-107691500D01*
X148147019Y-107691500D01*
X148122550Y-107695375D01*
X147943591Y-107723719D01*
X147747705Y-107787367D01*
X147564193Y-107880873D01*
X147397576Y-108001926D01*
X147397571Y-108001930D01*
X147251930Y-108147571D01*
X147251926Y-108147576D01*
X147130873Y-108314193D01*
X147037367Y-108497705D01*
X146973719Y-108693591D01*
X146941500Y-108897019D01*
X142588396Y-108897019D01*
X142554452Y-108770339D01*
X142542709Y-108750000D01*
X143370000Y-108750000D01*
X143370000Y-108667179D01*
X143336265Y-108454190D01*
X143269627Y-108249098D01*
X143171728Y-108056963D01*
X143044974Y-107882503D01*
X143044974Y-107882502D01*
X142892497Y-107730025D01*
X142718036Y-107603271D01*
X142525899Y-107505372D01*
X142320805Y-107438733D01*
X142250000Y-107427518D01*
X142250000Y-108457290D01*
X142229661Y-108445548D01*
X142078333Y-108405000D01*
X141921667Y-108405000D01*
X141770339Y-108445548D01*
X141750000Y-108457290D01*
X141750000Y-107427518D01*
X141749999Y-107427518D01*
X141679194Y-107438733D01*
X141474100Y-107505372D01*
X141281963Y-107603271D01*
X141107503Y-107730025D01*
X141107502Y-107730025D01*
X140955024Y-107882503D01*
X140835571Y-108046915D01*
X140780240Y-108089580D01*
X140710627Y-108095559D01*
X140648832Y-108062953D01*
X140634935Y-108046914D01*
X140543106Y-107920523D01*
X140511461Y-107876967D01*
X140358033Y-107723539D01*
X140182492Y-107596001D01*
X139989160Y-107497494D01*
X139782800Y-107430443D01*
X139782798Y-107430442D01*
X139782796Y-107430442D01*
X139568495Y-107396500D01*
X139568490Y-107396500D01*
X139351510Y-107396500D01*
X139351505Y-107396500D01*
X139137203Y-107430442D01*
X138930837Y-107497495D01*
X138737507Y-107596001D01*
X138561968Y-107723538D01*
X138421188Y-107864318D01*
X138359865Y-107897802D01*
X138290173Y-107892818D01*
X138234240Y-107850946D01*
X138227968Y-107841732D01*
X138132317Y-107686656D01*
X138008345Y-107562684D01*
X137859124Y-107470643D01*
X137859119Y-107470641D01*
X137692697Y-107415494D01*
X137692690Y-107415493D01*
X137589986Y-107405000D01*
X137170000Y-107405000D01*
X137170000Y-108457290D01*
X137149661Y-108445548D01*
X136998333Y-108405000D01*
X136841667Y-108405000D01*
X136690339Y-108445548D01*
X136670000Y-108457290D01*
X136670000Y-107405000D01*
X136250028Y-107405000D01*
X136250012Y-107405001D01*
X136147302Y-107415494D01*
X135980880Y-107470641D01*
X135980875Y-107470643D01*
X135831654Y-107562684D01*
X135707684Y-107686654D01*
X135615643Y-107835875D01*
X135615641Y-107835880D01*
X135560494Y-108002302D01*
X135560493Y-108002309D01*
X135550000Y-108105013D01*
X111254500Y-108105013D01*
X111254500Y-100104447D01*
X130081500Y-100104447D01*
X130081500Y-101895537D01*
X130081501Y-101895553D01*
X130092113Y-101999426D01*
X130147885Y-102167738D01*
X130240970Y-102318652D01*
X130366348Y-102444030D01*
X130517262Y-102537115D01*
X130685574Y-102592887D01*
X130789455Y-102603500D01*
X132130544Y-102603499D01*
X132234426Y-102592887D01*
X132402738Y-102537115D01*
X132553652Y-102444030D01*
X132679030Y-102318652D01*
X132772115Y-102167738D01*
X132772116Y-102167735D01*
X132775906Y-102161591D01*
X132777358Y-102162486D01*
X132817587Y-102116794D01*
X132884780Y-102097639D01*
X132951662Y-102117852D01*
X132971482Y-102133954D01*
X133107502Y-102269974D01*
X133281963Y-102396728D01*
X133474098Y-102494627D01*
X133679190Y-102561266D01*
X133750000Y-102572481D01*
X133750000Y-101542709D01*
X133770339Y-101554452D01*
X133921667Y-101595000D01*
X134078333Y-101595000D01*
X134229661Y-101554452D01*
X134250000Y-101542709D01*
X134250000Y-102572480D01*
X134320809Y-102561266D01*
X134525901Y-102494627D01*
X134718036Y-102396728D01*
X134892496Y-102269974D01*
X134892497Y-102269974D01*
X135044974Y-102117497D01*
X135044974Y-102117496D01*
X135171728Y-101943036D01*
X135269627Y-101750901D01*
X135336265Y-101545809D01*
X135370000Y-101332820D01*
X135370000Y-101250000D01*
X134542709Y-101250000D01*
X134554452Y-101229661D01*
X134595000Y-101078333D01*
X134595000Y-100921667D01*
X134554452Y-100770339D01*
X134542709Y-100750000D01*
X135370000Y-100750000D01*
X135370000Y-100667179D01*
X135336265Y-100454190D01*
X135269627Y-100249098D01*
X135171728Y-100056963D01*
X135044974Y-99882503D01*
X135044974Y-99882502D01*
X134892497Y-99730025D01*
X134718036Y-99603271D01*
X134525899Y-99505372D01*
X134320805Y-99438733D01*
X134250000Y-99427518D01*
X134250000Y-100457290D01*
X134229661Y-100445548D01*
X134078333Y-100405000D01*
X133921667Y-100405000D01*
X133770339Y-100445548D01*
X133750000Y-100457290D01*
X133750000Y-99427518D01*
X133749999Y-99427518D01*
X133679194Y-99438733D01*
X133474100Y-99505372D01*
X133281963Y-99603271D01*
X133107506Y-99730022D01*
X132971482Y-99866046D01*
X132910159Y-99899530D01*
X132840467Y-99894546D01*
X132784534Y-99852674D01*
X132775969Y-99838369D01*
X132775906Y-99838409D01*
X132772115Y-99832263D01*
X132772115Y-99832262D01*
X132679030Y-99681348D01*
X132553652Y-99555970D01*
X132402738Y-99462885D01*
X132329851Y-99438733D01*
X132234427Y-99407113D01*
X132130545Y-99396500D01*
X130789462Y-99396500D01*
X130789446Y-99396501D01*
X130685572Y-99407113D01*
X130517264Y-99462884D01*
X130517259Y-99462886D01*
X130366346Y-99555971D01*
X130240971Y-99681346D01*
X130147886Y-99832259D01*
X130147884Y-99832264D01*
X130092113Y-100000572D01*
X130081500Y-100104447D01*
X111254500Y-100104447D01*
X111254500Y-88270711D01*
X113149500Y-88270711D01*
X113149500Y-88513288D01*
X113181161Y-88753785D01*
X113243947Y-88988104D01*
X113318584Y-89168293D01*
X113336776Y-89212212D01*
X113458064Y-89422289D01*
X113458066Y-89422292D01*
X113458067Y-89422293D01*
X113605733Y-89614736D01*
X113605739Y-89614743D01*
X113777256Y-89786260D01*
X113777263Y-89786266D01*
X113890321Y-89873018D01*
X113969711Y-89933936D01*
X114179788Y-90055224D01*
X114403900Y-90148054D01*
X114638211Y-90210838D01*
X114818586Y-90234584D01*
X114878711Y-90242500D01*
X114878712Y-90242500D01*
X115121289Y-90242500D01*
X115169388Y-90236167D01*
X115361789Y-90210838D01*
X115596100Y-90148054D01*
X115820212Y-90055224D01*
X116030289Y-89933936D01*
X116222738Y-89786265D01*
X116394265Y-89614738D01*
X116541936Y-89422289D01*
X116663224Y-89212212D01*
X116756054Y-88988100D01*
X116818838Y-88753789D01*
X116850500Y-88513288D01*
X116850500Y-88270712D01*
X116828611Y-88104447D01*
X139081500Y-88104447D01*
X139081500Y-89895537D01*
X139081501Y-89895553D01*
X139092113Y-89999427D01*
X139139310Y-90141860D01*
X139147885Y-90167738D01*
X139240970Y-90318652D01*
X139366348Y-90444030D01*
X139517262Y-90537115D01*
X139685574Y-90592887D01*
X139789455Y-90603500D01*
X141130544Y-90603499D01*
X141234426Y-90592887D01*
X141402738Y-90537115D01*
X141553652Y-90444030D01*
X141679030Y-90318652D01*
X141772115Y-90167738D01*
X141772115Y-90167735D01*
X141774146Y-90164444D01*
X141826094Y-90117720D01*
X141895057Y-90106497D01*
X141959139Y-90134341D01*
X141967366Y-90141860D01*
X142101967Y-90276461D01*
X142277508Y-90403999D01*
X142470840Y-90502506D01*
X142677200Y-90569557D01*
X142757566Y-90582285D01*
X142891505Y-90603500D01*
X142891510Y-90603500D01*
X143108495Y-90603500D01*
X143227551Y-90584642D01*
X143322800Y-90569557D01*
X143529160Y-90502506D01*
X143722492Y-90403999D01*
X143898033Y-90276461D01*
X144051461Y-90123033D01*
X144178999Y-89947492D01*
X144277506Y-89754160D01*
X144344557Y-89547800D01*
X144374184Y-89360743D01*
X144378500Y-89333495D01*
X144378500Y-88666504D01*
X144352094Y-88499789D01*
X144344557Y-88452200D01*
X144277506Y-88245840D01*
X144205463Y-88104447D01*
X147621500Y-88104447D01*
X147621500Y-89895537D01*
X147621501Y-89895553D01*
X147632113Y-89999427D01*
X147679310Y-90141860D01*
X147687885Y-90167738D01*
X147780970Y-90318652D01*
X147906348Y-90444030D01*
X148057262Y-90537115D01*
X148225574Y-90592887D01*
X148329455Y-90603500D01*
X149670544Y-90603499D01*
X149774426Y-90592887D01*
X149942738Y-90537115D01*
X150093652Y-90444030D01*
X150219030Y-90318652D01*
X150312115Y-90167738D01*
X150312115Y-90167735D01*
X150314146Y-90164444D01*
X150366094Y-90117720D01*
X150435057Y-90106497D01*
X150499139Y-90134341D01*
X150507366Y-90141860D01*
X150641967Y-90276461D01*
X150817508Y-90403999D01*
X151010840Y-90502506D01*
X151217200Y-90569557D01*
X151297566Y-90582285D01*
X151431505Y-90603500D01*
X151431510Y-90603500D01*
X151648495Y-90603500D01*
X151767551Y-90584642D01*
X151862800Y-90569557D01*
X152069160Y-90502506D01*
X152262492Y-90403999D01*
X152438033Y-90276461D01*
X152591461Y-90123033D01*
X152718999Y-89947492D01*
X152817506Y-89754160D01*
X152884557Y-89547800D01*
X152914184Y-89360743D01*
X152918500Y-89333495D01*
X152918500Y-88666504D01*
X152892094Y-88499789D01*
X152884557Y-88452200D01*
X152817506Y-88245840D01*
X152718999Y-88052508D01*
X152692991Y-88016711D01*
X157149500Y-88016711D01*
X157149500Y-88259288D01*
X157181161Y-88499785D01*
X157243947Y-88734104D01*
X157252101Y-88753789D01*
X157336776Y-88958212D01*
X157458064Y-89168289D01*
X157458066Y-89168292D01*
X157458067Y-89168293D01*
X157605733Y-89360736D01*
X157605739Y-89360743D01*
X157777256Y-89532260D01*
X157777263Y-89532266D01*
X157884741Y-89614736D01*
X157969711Y-89679936D01*
X158179788Y-89801224D01*
X158403900Y-89894054D01*
X158638211Y-89956838D01*
X158818586Y-89980584D01*
X158878711Y-89988500D01*
X158878712Y-89988500D01*
X159121289Y-89988500D01*
X159169388Y-89982167D01*
X159361789Y-89956838D01*
X159596100Y-89894054D01*
X159820212Y-89801224D01*
X160030289Y-89679936D01*
X160222738Y-89532265D01*
X160394265Y-89360738D01*
X160541936Y-89168289D01*
X160663224Y-88958212D01*
X160756054Y-88734100D01*
X160818838Y-88499789D01*
X160850500Y-88259288D01*
X160850500Y-88016712D01*
X160848375Y-88000574D01*
X160833376Y-87886640D01*
X160818838Y-87776211D01*
X160756054Y-87541900D01*
X160663224Y-87317788D01*
X160541936Y-87107711D01*
X160481018Y-87028321D01*
X160394266Y-86915263D01*
X160394260Y-86915256D01*
X160222743Y-86743739D01*
X160222736Y-86743733D01*
X160030293Y-86596067D01*
X160030292Y-86596066D01*
X160030289Y-86596064D01*
X159820212Y-86474776D01*
X159820205Y-86474773D01*
X159596104Y-86381947D01*
X159361785Y-86319161D01*
X159121289Y-86287500D01*
X159121288Y-86287500D01*
X158878712Y-86287500D01*
X158878711Y-86287500D01*
X158638214Y-86319161D01*
X158403895Y-86381947D01*
X158179794Y-86474773D01*
X158179785Y-86474777D01*
X157969706Y-86596067D01*
X157777263Y-86743733D01*
X157777256Y-86743739D01*
X157605739Y-86915256D01*
X157605733Y-86915263D01*
X157458067Y-87107706D01*
X157336777Y-87317785D01*
X157336773Y-87317794D01*
X157243947Y-87541895D01*
X157181161Y-87776214D01*
X157149500Y-88016711D01*
X152692991Y-88016711D01*
X152591461Y-87876967D01*
X152438033Y-87723539D01*
X152262492Y-87596001D01*
X152069160Y-87497494D01*
X151862800Y-87430443D01*
X151862798Y-87430442D01*
X151862796Y-87430442D01*
X151648495Y-87396500D01*
X151648490Y-87396500D01*
X151431510Y-87396500D01*
X151431505Y-87396500D01*
X151217203Y-87430442D01*
X151010837Y-87497495D01*
X150817507Y-87596001D01*
X150641968Y-87723538D01*
X150507366Y-87858140D01*
X150446043Y-87891624D01*
X150376351Y-87886640D01*
X150320418Y-87844768D01*
X150314147Y-87835555D01*
X150219032Y-87681351D01*
X150219029Y-87681347D01*
X150093653Y-87555971D01*
X150093652Y-87555970D01*
X149942738Y-87462885D01*
X149844830Y-87430442D01*
X149774427Y-87407113D01*
X149670545Y-87396500D01*
X148329462Y-87396500D01*
X148329446Y-87396501D01*
X148225572Y-87407113D01*
X148057264Y-87462884D01*
X148057259Y-87462886D01*
X147906346Y-87555971D01*
X147780971Y-87681346D01*
X147687886Y-87832259D01*
X147687884Y-87832264D01*
X147632113Y-88000572D01*
X147621500Y-88104447D01*
X144205463Y-88104447D01*
X144178999Y-88052508D01*
X144051461Y-87876967D01*
X143898033Y-87723539D01*
X143722492Y-87596001D01*
X143529160Y-87497494D01*
X143322800Y-87430443D01*
X143322798Y-87430442D01*
X143322796Y-87430442D01*
X143108495Y-87396500D01*
X143108490Y-87396500D01*
X142891510Y-87396500D01*
X142891505Y-87396500D01*
X142677203Y-87430442D01*
X142470837Y-87497495D01*
X142277507Y-87596001D01*
X142101968Y-87723538D01*
X141967366Y-87858140D01*
X141906043Y-87891624D01*
X141836351Y-87886640D01*
X141780418Y-87844768D01*
X141774147Y-87835555D01*
X141679032Y-87681351D01*
X141679029Y-87681347D01*
X141553653Y-87555971D01*
X141553652Y-87555970D01*
X141402738Y-87462885D01*
X141304830Y-87430442D01*
X141234427Y-87407113D01*
X141130545Y-87396500D01*
X139789462Y-87396500D01*
X139789446Y-87396501D01*
X139685572Y-87407113D01*
X139517264Y-87462884D01*
X139517259Y-87462886D01*
X139366346Y-87555971D01*
X139240971Y-87681346D01*
X139147886Y-87832259D01*
X139147884Y-87832264D01*
X139092113Y-88000572D01*
X139081500Y-88104447D01*
X116828611Y-88104447D01*
X116818838Y-88030211D01*
X116756054Y-87795900D01*
X116663224Y-87571788D01*
X116541936Y-87361711D01*
X116394265Y-87169262D01*
X116394260Y-87169256D01*
X116222743Y-86997739D01*
X116222736Y-86997733D01*
X116030293Y-86850067D01*
X116030292Y-86850066D01*
X116030289Y-86850064D01*
X115820212Y-86728776D01*
X115820205Y-86728773D01*
X115596104Y-86635947D01*
X115361785Y-86573161D01*
X115121289Y-86541500D01*
X115121288Y-86541500D01*
X114878712Y-86541500D01*
X114878711Y-86541500D01*
X114638214Y-86573161D01*
X114403895Y-86635947D01*
X114179794Y-86728773D01*
X114179785Y-86728777D01*
X113969706Y-86850067D01*
X113777263Y-86997733D01*
X113777256Y-86997739D01*
X113605739Y-87169256D01*
X113605733Y-87169263D01*
X113458067Y-87361706D01*
X113336777Y-87571785D01*
X113336773Y-87571794D01*
X113243947Y-87795895D01*
X113181161Y-88030214D01*
X113149500Y-88270711D01*
X111254500Y-88270711D01*
X111254500Y-87003052D01*
X111254649Y-86996968D01*
X111264163Y-86803303D01*
X111272237Y-86638954D01*
X111273430Y-86626848D01*
X111277997Y-86596064D01*
X111325576Y-86275308D01*
X111327949Y-86263380D01*
X111414299Y-85918650D01*
X111417827Y-85907016D01*
X111537563Y-85572376D01*
X111542205Y-85561169D01*
X111694167Y-85239874D01*
X111699891Y-85229165D01*
X111882604Y-84924328D01*
X111889356Y-84914224D01*
X112101059Y-84628774D01*
X112108766Y-84619380D01*
X112347447Y-84356038D01*
X112356038Y-84347447D01*
X112619380Y-84108766D01*
X112628769Y-84101062D01*
X112914226Y-83889354D01*
X112924328Y-83882604D01*
X113229165Y-83699891D01*
X113239874Y-83694167D01*
X113561169Y-83542205D01*
X113572376Y-83537563D01*
X113907016Y-83417827D01*
X113918642Y-83414301D01*
X114263382Y-83327948D01*
X114275308Y-83325576D01*
X114626854Y-83273429D01*
X114638954Y-83272237D01*
X114933332Y-83257775D01*
X114996968Y-83254649D01*
X115003052Y-83254500D01*
X115044875Y-83254500D01*
X158955125Y-83254500D01*
X158996948Y-83254500D01*
X159003032Y-83254649D01*
G37*
%TD.AperFunction*%
%TD*%
M02*
