%TF.GenerationSoftware,KiCad,Pcbnew,9.0.9*%
%TF.CreationDate,2026-09-25T22:23:53-05:00*%
%TF.ProjectId,ntf3_Horns_v1.0,6e746633-5f48-46f7-926e-735f76312e30,0.0*%
%TF.SameCoordinates,Original*%
%TF.FileFunction,Legend,Top*%
%TF.FilePolarity,Positive*%
%FSLAX46Y46*%
G04 Gerber Fmt 4.6, Leading zero omitted, Abs format (unit mm)*
G04 Created by KiCad (PCBNEW 9.0.9) date 2026-09-25 22:23:53*
%MOMM*%
%LPD*%
G01*
G04 APERTURE LIST*
%ADD10C,0.150000*%
%ADD11C,0.120000*%
G04 APERTURE END LIST*
D10*
X87666666Y-51454819D02*
X87666666Y-52169104D01*
X87666666Y-52169104D02*
X87619047Y-52311961D01*
X87619047Y-52311961D02*
X87523809Y-52407200D01*
X87523809Y-52407200D02*
X87380952Y-52454819D01*
X87380952Y-52454819D02*
X87285714Y-52454819D01*
X88666666Y-52454819D02*
X88095238Y-52454819D01*
X88380952Y-52454819D02*
X88380952Y-51454819D01*
X88380952Y-51454819D02*
X88285714Y-51597676D01*
X88285714Y-51597676D02*
X88190476Y-51692914D01*
X88190476Y-51692914D02*
X88095238Y-51740533D01*
X87804761Y-62050057D02*
X87709523Y-62002438D01*
X87709523Y-62002438D02*
X87614285Y-61907200D01*
X87614285Y-61907200D02*
X87471428Y-61764342D01*
X87471428Y-61764342D02*
X87376190Y-61716723D01*
X87376190Y-61716723D02*
X87280952Y-61716723D01*
X87328571Y-61954819D02*
X87233333Y-61907200D01*
X87233333Y-61907200D02*
X87138095Y-61811961D01*
X87138095Y-61811961D02*
X87090476Y-61621485D01*
X87090476Y-61621485D02*
X87090476Y-61288152D01*
X87090476Y-61288152D02*
X87138095Y-61097676D01*
X87138095Y-61097676D02*
X87233333Y-61002438D01*
X87233333Y-61002438D02*
X87328571Y-60954819D01*
X87328571Y-60954819D02*
X87519047Y-60954819D01*
X87519047Y-60954819D02*
X87614285Y-61002438D01*
X87614285Y-61002438D02*
X87709523Y-61097676D01*
X87709523Y-61097676D02*
X87757142Y-61288152D01*
X87757142Y-61288152D02*
X87757142Y-61621485D01*
X87757142Y-61621485D02*
X87709523Y-61811961D01*
X87709523Y-61811961D02*
X87614285Y-61907200D01*
X87614285Y-61907200D02*
X87519047Y-61954819D01*
X87519047Y-61954819D02*
X87328571Y-61954819D01*
X88709523Y-61954819D02*
X88138095Y-61954819D01*
X88423809Y-61954819D02*
X88423809Y-60954819D01*
X88423809Y-60954819D02*
X88328571Y-61097676D01*
X88328571Y-61097676D02*
X88233333Y-61192914D01*
X88233333Y-61192914D02*
X88138095Y-61240533D01*
X76916666Y-70904819D02*
X76916666Y-71619104D01*
X76916666Y-71619104D02*
X76869047Y-71761961D01*
X76869047Y-71761961D02*
X76773809Y-71857200D01*
X76773809Y-71857200D02*
X76630952Y-71904819D01*
X76630952Y-71904819D02*
X76535714Y-71904819D01*
X77345238Y-71000057D02*
X77392857Y-70952438D01*
X77392857Y-70952438D02*
X77488095Y-70904819D01*
X77488095Y-70904819D02*
X77726190Y-70904819D01*
X77726190Y-70904819D02*
X77821428Y-70952438D01*
X77821428Y-70952438D02*
X77869047Y-71000057D01*
X77869047Y-71000057D02*
X77916666Y-71095295D01*
X77916666Y-71095295D02*
X77916666Y-71190533D01*
X77916666Y-71190533D02*
X77869047Y-71333390D01*
X77869047Y-71333390D02*
X77297619Y-71904819D01*
X77297619Y-71904819D02*
X77916666Y-71904819D01*
X76916666Y-51404819D02*
X76916666Y-52119104D01*
X76916666Y-52119104D02*
X76869047Y-52261961D01*
X76869047Y-52261961D02*
X76773809Y-52357200D01*
X76773809Y-52357200D02*
X76630952Y-52404819D01*
X76630952Y-52404819D02*
X76535714Y-52404819D01*
X77821428Y-51738152D02*
X77821428Y-52404819D01*
X77583333Y-51357200D02*
X77345238Y-52071485D01*
X77345238Y-52071485D02*
X77964285Y-52071485D01*
X81920833Y-81804819D02*
X81587500Y-81328628D01*
X81349405Y-81804819D02*
X81349405Y-80804819D01*
X81349405Y-80804819D02*
X81730357Y-80804819D01*
X81730357Y-80804819D02*
X81825595Y-80852438D01*
X81825595Y-80852438D02*
X81873214Y-80900057D01*
X81873214Y-80900057D02*
X81920833Y-80995295D01*
X81920833Y-80995295D02*
X81920833Y-81138152D01*
X81920833Y-81138152D02*
X81873214Y-81233390D01*
X81873214Y-81233390D02*
X81825595Y-81281009D01*
X81825595Y-81281009D02*
X81730357Y-81328628D01*
X81730357Y-81328628D02*
X81349405Y-81328628D01*
X82873214Y-81804819D02*
X82301786Y-81804819D01*
X82587500Y-81804819D02*
X82587500Y-80804819D01*
X82587500Y-80804819D02*
X82492262Y-80947676D01*
X82492262Y-80947676D02*
X82397024Y-81042914D01*
X82397024Y-81042914D02*
X82301786Y-81090533D01*
X88083333Y-72359580D02*
X88035714Y-72407200D01*
X88035714Y-72407200D02*
X87892857Y-72454819D01*
X87892857Y-72454819D02*
X87797619Y-72454819D01*
X87797619Y-72454819D02*
X87654762Y-72407200D01*
X87654762Y-72407200D02*
X87559524Y-72311961D01*
X87559524Y-72311961D02*
X87511905Y-72216723D01*
X87511905Y-72216723D02*
X87464286Y-72026247D01*
X87464286Y-72026247D02*
X87464286Y-71883390D01*
X87464286Y-71883390D02*
X87511905Y-71692914D01*
X87511905Y-71692914D02*
X87559524Y-71597676D01*
X87559524Y-71597676D02*
X87654762Y-71502438D01*
X87654762Y-71502438D02*
X87797619Y-71454819D01*
X87797619Y-71454819D02*
X87892857Y-71454819D01*
X87892857Y-71454819D02*
X88035714Y-71502438D01*
X88035714Y-71502438D02*
X88083333Y-71550057D01*
X88416667Y-71454819D02*
X89035714Y-71454819D01*
X89035714Y-71454819D02*
X88702381Y-71835771D01*
X88702381Y-71835771D02*
X88845238Y-71835771D01*
X88845238Y-71835771D02*
X88940476Y-71883390D01*
X88940476Y-71883390D02*
X88988095Y-71931009D01*
X88988095Y-71931009D02*
X89035714Y-72026247D01*
X89035714Y-72026247D02*
X89035714Y-72264342D01*
X89035714Y-72264342D02*
X88988095Y-72359580D01*
X88988095Y-72359580D02*
X88940476Y-72407200D01*
X88940476Y-72407200D02*
X88845238Y-72454819D01*
X88845238Y-72454819D02*
X88559524Y-72454819D01*
X88559524Y-72454819D02*
X88464286Y-72407200D01*
X88464286Y-72407200D02*
X88416667Y-72359580D01*
X69930833Y-58329580D02*
X69883214Y-58377200D01*
X69883214Y-58377200D02*
X69740357Y-58424819D01*
X69740357Y-58424819D02*
X69645119Y-58424819D01*
X69645119Y-58424819D02*
X69502262Y-58377200D01*
X69502262Y-58377200D02*
X69407024Y-58281961D01*
X69407024Y-58281961D02*
X69359405Y-58186723D01*
X69359405Y-58186723D02*
X69311786Y-57996247D01*
X69311786Y-57996247D02*
X69311786Y-57853390D01*
X69311786Y-57853390D02*
X69359405Y-57662914D01*
X69359405Y-57662914D02*
X69407024Y-57567676D01*
X69407024Y-57567676D02*
X69502262Y-57472438D01*
X69502262Y-57472438D02*
X69645119Y-57424819D01*
X69645119Y-57424819D02*
X69740357Y-57424819D01*
X69740357Y-57424819D02*
X69883214Y-57472438D01*
X69883214Y-57472438D02*
X69930833Y-57520057D01*
X70787976Y-57758152D02*
X70787976Y-58424819D01*
X70549881Y-57377200D02*
X70311786Y-58091485D01*
X70311786Y-58091485D02*
X70930833Y-58091485D01*
X76714166Y-61404819D02*
X76714166Y-62119104D01*
X76714166Y-62119104D02*
X76666547Y-62261961D01*
X76666547Y-62261961D02*
X76571309Y-62357200D01*
X76571309Y-62357200D02*
X76428452Y-62404819D01*
X76428452Y-62404819D02*
X76333214Y-62404819D01*
X77095119Y-61404819D02*
X77714166Y-61404819D01*
X77714166Y-61404819D02*
X77380833Y-61785771D01*
X77380833Y-61785771D02*
X77523690Y-61785771D01*
X77523690Y-61785771D02*
X77618928Y-61833390D01*
X77618928Y-61833390D02*
X77666547Y-61881009D01*
X77666547Y-61881009D02*
X77714166Y-61976247D01*
X77714166Y-61976247D02*
X77714166Y-62214342D01*
X77714166Y-62214342D02*
X77666547Y-62309580D01*
X77666547Y-62309580D02*
X77618928Y-62357200D01*
X77618928Y-62357200D02*
X77523690Y-62404819D01*
X77523690Y-62404819D02*
X77237976Y-62404819D01*
X77237976Y-62404819D02*
X77142738Y-62357200D01*
X77142738Y-62357200D02*
X77095119Y-62309580D01*
X69930833Y-52309580D02*
X69883214Y-52357200D01*
X69883214Y-52357200D02*
X69740357Y-52404819D01*
X69740357Y-52404819D02*
X69645119Y-52404819D01*
X69645119Y-52404819D02*
X69502262Y-52357200D01*
X69502262Y-52357200D02*
X69407024Y-52261961D01*
X69407024Y-52261961D02*
X69359405Y-52166723D01*
X69359405Y-52166723D02*
X69311786Y-51976247D01*
X69311786Y-51976247D02*
X69311786Y-51833390D01*
X69311786Y-51833390D02*
X69359405Y-51642914D01*
X69359405Y-51642914D02*
X69407024Y-51547676D01*
X69407024Y-51547676D02*
X69502262Y-51452438D01*
X69502262Y-51452438D02*
X69645119Y-51404819D01*
X69645119Y-51404819D02*
X69740357Y-51404819D01*
X69740357Y-51404819D02*
X69883214Y-51452438D01*
X69883214Y-51452438D02*
X69930833Y-51500057D01*
X70883214Y-52404819D02*
X70311786Y-52404819D01*
X70597500Y-52404819D02*
X70597500Y-51404819D01*
X70597500Y-51404819D02*
X70502262Y-51547676D01*
X70502262Y-51547676D02*
X70407024Y-51642914D01*
X70407024Y-51642914D02*
X70311786Y-51690533D01*
X69930833Y-55319580D02*
X69883214Y-55367200D01*
X69883214Y-55367200D02*
X69740357Y-55414819D01*
X69740357Y-55414819D02*
X69645119Y-55414819D01*
X69645119Y-55414819D02*
X69502262Y-55367200D01*
X69502262Y-55367200D02*
X69407024Y-55271961D01*
X69407024Y-55271961D02*
X69359405Y-55176723D01*
X69359405Y-55176723D02*
X69311786Y-54986247D01*
X69311786Y-54986247D02*
X69311786Y-54843390D01*
X69311786Y-54843390D02*
X69359405Y-54652914D01*
X69359405Y-54652914D02*
X69407024Y-54557676D01*
X69407024Y-54557676D02*
X69502262Y-54462438D01*
X69502262Y-54462438D02*
X69645119Y-54414819D01*
X69645119Y-54414819D02*
X69740357Y-54414819D01*
X69740357Y-54414819D02*
X69883214Y-54462438D01*
X69883214Y-54462438D02*
X69930833Y-54510057D01*
X70311786Y-54510057D02*
X70359405Y-54462438D01*
X70359405Y-54462438D02*
X70454643Y-54414819D01*
X70454643Y-54414819D02*
X70692738Y-54414819D01*
X70692738Y-54414819D02*
X70787976Y-54462438D01*
X70787976Y-54462438D02*
X70835595Y-54510057D01*
X70835595Y-54510057D02*
X70883214Y-54605295D01*
X70883214Y-54605295D02*
X70883214Y-54700533D01*
X70883214Y-54700533D02*
X70835595Y-54843390D01*
X70835595Y-54843390D02*
X70264167Y-55414819D01*
X70264167Y-55414819D02*
X70883214Y-55414819D01*
X76266666Y-81111009D02*
X75933333Y-81111009D01*
X75933333Y-81634819D02*
X75933333Y-80634819D01*
X75933333Y-80634819D02*
X76409523Y-80634819D01*
X77314285Y-81634819D02*
X76742857Y-81634819D01*
X77028571Y-81634819D02*
X77028571Y-80634819D01*
X77028571Y-80634819D02*
X76933333Y-80777676D01*
X76933333Y-80777676D02*
X76838095Y-80872914D01*
X76838095Y-80872914D02*
X76742857Y-80920533D01*
X69930833Y-67359580D02*
X69883214Y-67407200D01*
X69883214Y-67407200D02*
X69740357Y-67454819D01*
X69740357Y-67454819D02*
X69645119Y-67454819D01*
X69645119Y-67454819D02*
X69502262Y-67407200D01*
X69502262Y-67407200D02*
X69407024Y-67311961D01*
X69407024Y-67311961D02*
X69359405Y-67216723D01*
X69359405Y-67216723D02*
X69311786Y-67026247D01*
X69311786Y-67026247D02*
X69311786Y-66883390D01*
X69311786Y-66883390D02*
X69359405Y-66692914D01*
X69359405Y-66692914D02*
X69407024Y-66597676D01*
X69407024Y-66597676D02*
X69502262Y-66502438D01*
X69502262Y-66502438D02*
X69645119Y-66454819D01*
X69645119Y-66454819D02*
X69740357Y-66454819D01*
X69740357Y-66454819D02*
X69883214Y-66502438D01*
X69883214Y-66502438D02*
X69930833Y-66550057D01*
X70264167Y-66454819D02*
X70930833Y-66454819D01*
X70930833Y-66454819D02*
X70502262Y-67454819D01*
X69454819Y-82238094D02*
X68454819Y-82238094D01*
X68454819Y-82238094D02*
X68454819Y-81999999D01*
X68454819Y-81999999D02*
X68502438Y-81857142D01*
X68502438Y-81857142D02*
X68597676Y-81761904D01*
X68597676Y-81761904D02*
X68692914Y-81714285D01*
X68692914Y-81714285D02*
X68883390Y-81666666D01*
X68883390Y-81666666D02*
X69026247Y-81666666D01*
X69026247Y-81666666D02*
X69216723Y-81714285D01*
X69216723Y-81714285D02*
X69311961Y-81761904D01*
X69311961Y-81761904D02*
X69407200Y-81857142D01*
X69407200Y-81857142D02*
X69454819Y-81999999D01*
X69454819Y-81999999D02*
X69454819Y-82238094D01*
X69454819Y-80714285D02*
X69454819Y-81285713D01*
X69454819Y-80999999D02*
X68454819Y-80999999D01*
X68454819Y-80999999D02*
X68597676Y-81095237D01*
X68597676Y-81095237D02*
X68692914Y-81190475D01*
X68692914Y-81190475D02*
X68740533Y-81285713D01*
X69930833Y-73379580D02*
X69883214Y-73427200D01*
X69883214Y-73427200D02*
X69740357Y-73474819D01*
X69740357Y-73474819D02*
X69645119Y-73474819D01*
X69645119Y-73474819D02*
X69502262Y-73427200D01*
X69502262Y-73427200D02*
X69407024Y-73331961D01*
X69407024Y-73331961D02*
X69359405Y-73236723D01*
X69359405Y-73236723D02*
X69311786Y-73046247D01*
X69311786Y-73046247D02*
X69311786Y-72903390D01*
X69311786Y-72903390D02*
X69359405Y-72712914D01*
X69359405Y-72712914D02*
X69407024Y-72617676D01*
X69407024Y-72617676D02*
X69502262Y-72522438D01*
X69502262Y-72522438D02*
X69645119Y-72474819D01*
X69645119Y-72474819D02*
X69740357Y-72474819D01*
X69740357Y-72474819D02*
X69883214Y-72522438D01*
X69883214Y-72522438D02*
X69930833Y-72570057D01*
X70407024Y-73474819D02*
X70597500Y-73474819D01*
X70597500Y-73474819D02*
X70692738Y-73427200D01*
X70692738Y-73427200D02*
X70740357Y-73379580D01*
X70740357Y-73379580D02*
X70835595Y-73236723D01*
X70835595Y-73236723D02*
X70883214Y-73046247D01*
X70883214Y-73046247D02*
X70883214Y-72665295D01*
X70883214Y-72665295D02*
X70835595Y-72570057D01*
X70835595Y-72570057D02*
X70787976Y-72522438D01*
X70787976Y-72522438D02*
X70692738Y-72474819D01*
X70692738Y-72474819D02*
X70502262Y-72474819D01*
X70502262Y-72474819D02*
X70407024Y-72522438D01*
X70407024Y-72522438D02*
X70359405Y-72570057D01*
X70359405Y-72570057D02*
X70311786Y-72665295D01*
X70311786Y-72665295D02*
X70311786Y-72903390D01*
X70311786Y-72903390D02*
X70359405Y-72998628D01*
X70359405Y-72998628D02*
X70407024Y-73046247D01*
X70407024Y-73046247D02*
X70502262Y-73093866D01*
X70502262Y-73093866D02*
X70692738Y-73093866D01*
X70692738Y-73093866D02*
X70787976Y-73046247D01*
X70787976Y-73046247D02*
X70835595Y-72998628D01*
X70835595Y-72998628D02*
X70883214Y-72903390D01*
X69930833Y-64349580D02*
X69883214Y-64397200D01*
X69883214Y-64397200D02*
X69740357Y-64444819D01*
X69740357Y-64444819D02*
X69645119Y-64444819D01*
X69645119Y-64444819D02*
X69502262Y-64397200D01*
X69502262Y-64397200D02*
X69407024Y-64301961D01*
X69407024Y-64301961D02*
X69359405Y-64206723D01*
X69359405Y-64206723D02*
X69311786Y-64016247D01*
X69311786Y-64016247D02*
X69311786Y-63873390D01*
X69311786Y-63873390D02*
X69359405Y-63682914D01*
X69359405Y-63682914D02*
X69407024Y-63587676D01*
X69407024Y-63587676D02*
X69502262Y-63492438D01*
X69502262Y-63492438D02*
X69645119Y-63444819D01*
X69645119Y-63444819D02*
X69740357Y-63444819D01*
X69740357Y-63444819D02*
X69883214Y-63492438D01*
X69883214Y-63492438D02*
X69930833Y-63540057D01*
X70787976Y-63444819D02*
X70597500Y-63444819D01*
X70597500Y-63444819D02*
X70502262Y-63492438D01*
X70502262Y-63492438D02*
X70454643Y-63540057D01*
X70454643Y-63540057D02*
X70359405Y-63682914D01*
X70359405Y-63682914D02*
X70311786Y-63873390D01*
X70311786Y-63873390D02*
X70311786Y-64254342D01*
X70311786Y-64254342D02*
X70359405Y-64349580D01*
X70359405Y-64349580D02*
X70407024Y-64397200D01*
X70407024Y-64397200D02*
X70502262Y-64444819D01*
X70502262Y-64444819D02*
X70692738Y-64444819D01*
X70692738Y-64444819D02*
X70787976Y-64397200D01*
X70787976Y-64397200D02*
X70835595Y-64349580D01*
X70835595Y-64349580D02*
X70883214Y-64254342D01*
X70883214Y-64254342D02*
X70883214Y-64016247D01*
X70883214Y-64016247D02*
X70835595Y-63921009D01*
X70835595Y-63921009D02*
X70787976Y-63873390D01*
X70787976Y-63873390D02*
X70692738Y-63825771D01*
X70692738Y-63825771D02*
X70502262Y-63825771D01*
X70502262Y-63825771D02*
X70407024Y-63873390D01*
X70407024Y-63873390D02*
X70359405Y-63921009D01*
X70359405Y-63921009D02*
X70311786Y-64016247D01*
X69930833Y-61339580D02*
X69883214Y-61387200D01*
X69883214Y-61387200D02*
X69740357Y-61434819D01*
X69740357Y-61434819D02*
X69645119Y-61434819D01*
X69645119Y-61434819D02*
X69502262Y-61387200D01*
X69502262Y-61387200D02*
X69407024Y-61291961D01*
X69407024Y-61291961D02*
X69359405Y-61196723D01*
X69359405Y-61196723D02*
X69311786Y-61006247D01*
X69311786Y-61006247D02*
X69311786Y-60863390D01*
X69311786Y-60863390D02*
X69359405Y-60672914D01*
X69359405Y-60672914D02*
X69407024Y-60577676D01*
X69407024Y-60577676D02*
X69502262Y-60482438D01*
X69502262Y-60482438D02*
X69645119Y-60434819D01*
X69645119Y-60434819D02*
X69740357Y-60434819D01*
X69740357Y-60434819D02*
X69883214Y-60482438D01*
X69883214Y-60482438D02*
X69930833Y-60530057D01*
X70835595Y-60434819D02*
X70359405Y-60434819D01*
X70359405Y-60434819D02*
X70311786Y-60911009D01*
X70311786Y-60911009D02*
X70359405Y-60863390D01*
X70359405Y-60863390D02*
X70454643Y-60815771D01*
X70454643Y-60815771D02*
X70692738Y-60815771D01*
X70692738Y-60815771D02*
X70787976Y-60863390D01*
X70787976Y-60863390D02*
X70835595Y-60911009D01*
X70835595Y-60911009D02*
X70883214Y-61006247D01*
X70883214Y-61006247D02*
X70883214Y-61244342D01*
X70883214Y-61244342D02*
X70835595Y-61339580D01*
X70835595Y-61339580D02*
X70787976Y-61387200D01*
X70787976Y-61387200D02*
X70692738Y-61434819D01*
X70692738Y-61434819D02*
X70454643Y-61434819D01*
X70454643Y-61434819D02*
X70359405Y-61387200D01*
X70359405Y-61387200D02*
X70311786Y-61339580D01*
X69930833Y-70369580D02*
X69883214Y-70417200D01*
X69883214Y-70417200D02*
X69740357Y-70464819D01*
X69740357Y-70464819D02*
X69645119Y-70464819D01*
X69645119Y-70464819D02*
X69502262Y-70417200D01*
X69502262Y-70417200D02*
X69407024Y-70321961D01*
X69407024Y-70321961D02*
X69359405Y-70226723D01*
X69359405Y-70226723D02*
X69311786Y-70036247D01*
X69311786Y-70036247D02*
X69311786Y-69893390D01*
X69311786Y-69893390D02*
X69359405Y-69702914D01*
X69359405Y-69702914D02*
X69407024Y-69607676D01*
X69407024Y-69607676D02*
X69502262Y-69512438D01*
X69502262Y-69512438D02*
X69645119Y-69464819D01*
X69645119Y-69464819D02*
X69740357Y-69464819D01*
X69740357Y-69464819D02*
X69883214Y-69512438D01*
X69883214Y-69512438D02*
X69930833Y-69560057D01*
X70502262Y-69893390D02*
X70407024Y-69845771D01*
X70407024Y-69845771D02*
X70359405Y-69798152D01*
X70359405Y-69798152D02*
X70311786Y-69702914D01*
X70311786Y-69702914D02*
X70311786Y-69655295D01*
X70311786Y-69655295D02*
X70359405Y-69560057D01*
X70359405Y-69560057D02*
X70407024Y-69512438D01*
X70407024Y-69512438D02*
X70502262Y-69464819D01*
X70502262Y-69464819D02*
X70692738Y-69464819D01*
X70692738Y-69464819D02*
X70787976Y-69512438D01*
X70787976Y-69512438D02*
X70835595Y-69560057D01*
X70835595Y-69560057D02*
X70883214Y-69655295D01*
X70883214Y-69655295D02*
X70883214Y-69702914D01*
X70883214Y-69702914D02*
X70835595Y-69798152D01*
X70835595Y-69798152D02*
X70787976Y-69845771D01*
X70787976Y-69845771D02*
X70692738Y-69893390D01*
X70692738Y-69893390D02*
X70502262Y-69893390D01*
X70502262Y-69893390D02*
X70407024Y-69941009D01*
X70407024Y-69941009D02*
X70359405Y-69988628D01*
X70359405Y-69988628D02*
X70311786Y-70083866D01*
X70311786Y-70083866D02*
X70311786Y-70274342D01*
X70311786Y-70274342D02*
X70359405Y-70369580D01*
X70359405Y-70369580D02*
X70407024Y-70417200D01*
X70407024Y-70417200D02*
X70502262Y-70464819D01*
X70502262Y-70464819D02*
X70692738Y-70464819D01*
X70692738Y-70464819D02*
X70787976Y-70417200D01*
X70787976Y-70417200D02*
X70835595Y-70369580D01*
X70835595Y-70369580D02*
X70883214Y-70274342D01*
X70883214Y-70274342D02*
X70883214Y-70083866D01*
X70883214Y-70083866D02*
X70835595Y-69988628D01*
X70835595Y-69988628D02*
X70787976Y-69941009D01*
X70787976Y-69941009D02*
X70692738Y-69893390D01*
D11*
%TO.C,J1*%
X82397500Y-52750000D02*
X82397500Y-54000000D01*
X82687500Y-53040000D02*
X82687500Y-59010000D01*
X82687500Y-59010000D02*
X92807500Y-59010000D01*
X82697500Y-53050000D02*
X82697500Y-53800000D01*
X82697500Y-53800000D02*
X84497500Y-53800000D01*
X82697500Y-55300000D02*
X83447500Y-55300000D01*
X83447500Y-55300000D02*
X83447500Y-58250000D01*
X83447500Y-58250000D02*
X87747500Y-58250000D01*
X83647500Y-52750000D02*
X82397500Y-52750000D01*
X84497500Y-53050000D02*
X82697500Y-53050000D01*
X84497500Y-53800000D02*
X84497500Y-53050000D01*
X85997500Y-53050000D02*
X85997500Y-53800000D01*
X85997500Y-53800000D02*
X89497500Y-53800000D01*
X89497500Y-53050000D02*
X85997500Y-53050000D01*
X89497500Y-53800000D02*
X89497500Y-53050000D01*
X90997500Y-53050000D02*
X90997500Y-53800000D01*
X90997500Y-53800000D02*
X92797500Y-53800000D01*
X92047500Y-55300000D02*
X92047500Y-58250000D01*
X92047500Y-58250000D02*
X87747500Y-58250000D01*
X92797500Y-53050000D02*
X90997500Y-53050000D01*
X92797500Y-53800000D02*
X92797500Y-53050000D01*
X92797500Y-55300000D02*
X92047500Y-55300000D01*
X92807500Y-53040000D02*
X82687500Y-53040000D01*
X92807500Y-59010000D02*
X92807500Y-53040000D01*
%TO.C,Q1*%
X85430000Y-62550000D02*
X85430000Y-62820000D01*
X85430000Y-62820000D02*
X82600000Y-62820000D01*
X85430000Y-69180000D02*
X84330000Y-69180000D01*
X85430000Y-69450000D02*
X85430000Y-69180000D01*
X86930000Y-62550000D02*
X85430000Y-62550000D01*
X86930000Y-69450000D02*
X85430000Y-69450000D01*
%TO.C,J2*%
X73150000Y-72250000D02*
X73150000Y-73500000D01*
X73440000Y-72540000D02*
X73440000Y-78510000D01*
X73440000Y-78510000D02*
X81060000Y-78510000D01*
X73450000Y-72550000D02*
X73450000Y-73300000D01*
X73450000Y-73300000D02*
X75250000Y-73300000D01*
X73450000Y-74800000D02*
X74200000Y-74800000D01*
X74200000Y-74800000D02*
X74200000Y-77750000D01*
X74200000Y-77750000D02*
X77250000Y-77750000D01*
X74400000Y-72250000D02*
X73150000Y-72250000D01*
X75250000Y-72550000D02*
X73450000Y-72550000D01*
X75250000Y-73300000D02*
X75250000Y-72550000D01*
X76750000Y-72550000D02*
X76750000Y-73300000D01*
X76750000Y-73300000D02*
X77750000Y-73300000D01*
X77750000Y-72550000D02*
X76750000Y-72550000D01*
X77750000Y-73300000D02*
X77750000Y-72550000D01*
X79250000Y-72550000D02*
X79250000Y-73300000D01*
X79250000Y-73300000D02*
X81050000Y-73300000D01*
X80300000Y-74800000D02*
X80300000Y-77750000D01*
X80300000Y-77750000D02*
X77250000Y-77750000D01*
X81050000Y-72550000D02*
X79250000Y-72550000D01*
X81050000Y-73300000D02*
X81050000Y-72550000D01*
X81050000Y-74800000D02*
X80300000Y-74800000D01*
X81060000Y-72540000D02*
X73440000Y-72540000D01*
X81060000Y-78510000D02*
X81060000Y-72540000D01*
%TO.C,J4*%
X73150000Y-52750000D02*
X73150000Y-54000000D01*
X73440000Y-53040000D02*
X73440000Y-59010000D01*
X73440000Y-59010000D02*
X81060000Y-59010000D01*
X73450000Y-53050000D02*
X73450000Y-53800000D01*
X73450000Y-53800000D02*
X75250000Y-53800000D01*
X73450000Y-55300000D02*
X74200000Y-55300000D01*
X74200000Y-55300000D02*
X74200000Y-58250000D01*
X74200000Y-58250000D02*
X77250000Y-58250000D01*
X74400000Y-52750000D02*
X73150000Y-52750000D01*
X75250000Y-53050000D02*
X73450000Y-53050000D01*
X75250000Y-53800000D02*
X75250000Y-53050000D01*
X76750000Y-53050000D02*
X76750000Y-53800000D01*
X76750000Y-53800000D02*
X77750000Y-53800000D01*
X77750000Y-53050000D02*
X76750000Y-53050000D01*
X77750000Y-53800000D02*
X77750000Y-53050000D01*
X79250000Y-53050000D02*
X79250000Y-53800000D01*
X79250000Y-53800000D02*
X81050000Y-53800000D01*
X80300000Y-55300000D02*
X80300000Y-58250000D01*
X80300000Y-58250000D02*
X77250000Y-58250000D01*
X81050000Y-53050000D02*
X79250000Y-53050000D01*
X81050000Y-53800000D02*
X81050000Y-53050000D01*
X81050000Y-55300000D02*
X80300000Y-55300000D01*
X81060000Y-53040000D02*
X73440000Y-53040000D01*
X81060000Y-59010000D02*
X81060000Y-53040000D01*
%TO.C,R1*%
X81860436Y-82265000D02*
X82314564Y-82265000D01*
X81860436Y-83735000D02*
X82314564Y-83735000D01*
%TO.C,C3*%
X83840302Y-75185000D02*
X84640302Y-75185000D01*
X84240302Y-74785000D02*
X84240302Y-75585000D01*
X88250000Y-73420000D02*
X88250000Y-81580000D01*
X88290000Y-73420000D02*
X88290000Y-81580000D01*
X88330000Y-73420000D02*
X88330000Y-81580000D01*
X88370000Y-73421000D02*
X88370000Y-81579000D01*
X88410000Y-73423000D02*
X88410000Y-81577000D01*
X88450000Y-73424000D02*
X88450000Y-81576000D01*
X88490000Y-73426000D02*
X88490000Y-81574000D01*
X88530000Y-73429000D02*
X88530000Y-81571000D01*
X88570000Y-73432000D02*
X88570000Y-81568000D01*
X88610000Y-73435000D02*
X88610000Y-81565000D01*
X88650000Y-73439000D02*
X88650000Y-81561000D01*
X88690000Y-73443000D02*
X88690000Y-81557000D01*
X88730000Y-73448000D02*
X88730000Y-81552000D01*
X88770000Y-73452000D02*
X88770000Y-81548000D01*
X88810000Y-73458000D02*
X88810000Y-81542000D01*
X88850000Y-73463000D02*
X88850000Y-81537000D01*
X88890000Y-73470000D02*
X88890000Y-81530000D01*
X88930000Y-73476000D02*
X88930000Y-81524000D01*
X88971000Y-73483000D02*
X88971000Y-76460000D01*
X88971000Y-78540000D02*
X88971000Y-81517000D01*
X89011000Y-73490000D02*
X89011000Y-76460000D01*
X89011000Y-78540000D02*
X89011000Y-81510000D01*
X89051000Y-73498000D02*
X89051000Y-76460000D01*
X89051000Y-78540000D02*
X89051000Y-81502000D01*
X89091000Y-73506000D02*
X89091000Y-76460000D01*
X89091000Y-78540000D02*
X89091000Y-81494000D01*
X89131000Y-73515000D02*
X89131000Y-76460000D01*
X89131000Y-78540000D02*
X89131000Y-81485000D01*
X89171000Y-73524000D02*
X89171000Y-76460000D01*
X89171000Y-78540000D02*
X89171000Y-81476000D01*
X89211000Y-73533000D02*
X89211000Y-76460000D01*
X89211000Y-78540000D02*
X89211000Y-81467000D01*
X89251000Y-73543000D02*
X89251000Y-76460000D01*
X89251000Y-78540000D02*
X89251000Y-81457000D01*
X89291000Y-73553000D02*
X89291000Y-76460000D01*
X89291000Y-78540000D02*
X89291000Y-81447000D01*
X89331000Y-73564000D02*
X89331000Y-76460000D01*
X89331000Y-78540000D02*
X89331000Y-81436000D01*
X89371000Y-73575000D02*
X89371000Y-76460000D01*
X89371000Y-78540000D02*
X89371000Y-81425000D01*
X89411000Y-73586000D02*
X89411000Y-76460000D01*
X89411000Y-78540000D02*
X89411000Y-81414000D01*
X89451000Y-73598000D02*
X89451000Y-76460000D01*
X89451000Y-78540000D02*
X89451000Y-81402000D01*
X89491000Y-73611000D02*
X89491000Y-76460000D01*
X89491000Y-78540000D02*
X89491000Y-81389000D01*
X89531000Y-73623000D02*
X89531000Y-76460000D01*
X89531000Y-78540000D02*
X89531000Y-81377000D01*
X89571000Y-73637000D02*
X89571000Y-76460000D01*
X89571000Y-78540000D02*
X89571000Y-81363000D01*
X89611000Y-73650000D02*
X89611000Y-76460000D01*
X89611000Y-78540000D02*
X89611000Y-81350000D01*
X89651000Y-73665000D02*
X89651000Y-76460000D01*
X89651000Y-78540000D02*
X89651000Y-81335000D01*
X89691000Y-73679000D02*
X89691000Y-76460000D01*
X89691000Y-78540000D02*
X89691000Y-81321000D01*
X89731000Y-73695000D02*
X89731000Y-76460000D01*
X89731000Y-78540000D02*
X89731000Y-81305000D01*
X89771000Y-73710000D02*
X89771000Y-76460000D01*
X89771000Y-78540000D02*
X89771000Y-81290000D01*
X89811000Y-73726000D02*
X89811000Y-76460000D01*
X89811000Y-78540000D02*
X89811000Y-81274000D01*
X89851000Y-73743000D02*
X89851000Y-76460000D01*
X89851000Y-78540000D02*
X89851000Y-81257000D01*
X89891000Y-73760000D02*
X89891000Y-76460000D01*
X89891000Y-78540000D02*
X89891000Y-81240000D01*
X89931000Y-73778000D02*
X89931000Y-76460000D01*
X89931000Y-78540000D02*
X89931000Y-81222000D01*
X89971000Y-73796000D02*
X89971000Y-76460000D01*
X89971000Y-78540000D02*
X89971000Y-81204000D01*
X90011000Y-73814000D02*
X90011000Y-76460000D01*
X90011000Y-78540000D02*
X90011000Y-81186000D01*
X90051000Y-73834000D02*
X90051000Y-76460000D01*
X90051000Y-78540000D02*
X90051000Y-81166000D01*
X90091000Y-73853000D02*
X90091000Y-76460000D01*
X90091000Y-78540000D02*
X90091000Y-81147000D01*
X90131000Y-73873000D02*
X90131000Y-76460000D01*
X90131000Y-78540000D02*
X90131000Y-81127000D01*
X90171000Y-73894000D02*
X90171000Y-76460000D01*
X90171000Y-78540000D02*
X90171000Y-81106000D01*
X90211000Y-73916000D02*
X90211000Y-76460000D01*
X90211000Y-78540000D02*
X90211000Y-81084000D01*
X90251000Y-73938000D02*
X90251000Y-76460000D01*
X90251000Y-78540000D02*
X90251000Y-81062000D01*
X90291000Y-73960000D02*
X90291000Y-76460000D01*
X90291000Y-78540000D02*
X90291000Y-81040000D01*
X90331000Y-73983000D02*
X90331000Y-76460000D01*
X90331000Y-78540000D02*
X90331000Y-81017000D01*
X90371000Y-74007000D02*
X90371000Y-76460000D01*
X90371000Y-78540000D02*
X90371000Y-80993000D01*
X90411000Y-74031000D02*
X90411000Y-76460000D01*
X90411000Y-78540000D02*
X90411000Y-80969000D01*
X90451000Y-74056000D02*
X90451000Y-76460000D01*
X90451000Y-78540000D02*
X90451000Y-80944000D01*
X90491000Y-74082000D02*
X90491000Y-76460000D01*
X90491000Y-78540000D02*
X90491000Y-80918000D01*
X90531000Y-74108000D02*
X90531000Y-76460000D01*
X90531000Y-78540000D02*
X90531000Y-80892000D01*
X90571000Y-74135000D02*
X90571000Y-76460000D01*
X90571000Y-78540000D02*
X90571000Y-80865000D01*
X90611000Y-74162000D02*
X90611000Y-76460000D01*
X90611000Y-78540000D02*
X90611000Y-80838000D01*
X90651000Y-74191000D02*
X90651000Y-76460000D01*
X90651000Y-78540000D02*
X90651000Y-80809000D01*
X90691000Y-74220000D02*
X90691000Y-76460000D01*
X90691000Y-78540000D02*
X90691000Y-80780000D01*
X90731000Y-74250000D02*
X90731000Y-76460000D01*
X90731000Y-78540000D02*
X90731000Y-80750000D01*
X90771000Y-74280000D02*
X90771000Y-76460000D01*
X90771000Y-78540000D02*
X90771000Y-80720000D01*
X90811000Y-74311000D02*
X90811000Y-76460000D01*
X90811000Y-78540000D02*
X90811000Y-80689000D01*
X90851000Y-74344000D02*
X90851000Y-76460000D01*
X90851000Y-78540000D02*
X90851000Y-80656000D01*
X90891000Y-74376000D02*
X90891000Y-76460000D01*
X90891000Y-78540000D02*
X90891000Y-80624000D01*
X90931000Y-74410000D02*
X90931000Y-76460000D01*
X90931000Y-78540000D02*
X90931000Y-80590000D01*
X90971000Y-74445000D02*
X90971000Y-76460000D01*
X90971000Y-78540000D02*
X90971000Y-80555000D01*
X91011000Y-74481000D02*
X91011000Y-76460000D01*
X91011000Y-78540000D02*
X91011000Y-80519000D01*
X91051000Y-74517000D02*
X91051000Y-80483000D01*
X91091000Y-74555000D02*
X91091000Y-80445000D01*
X91131000Y-74593000D02*
X91131000Y-80407000D01*
X91171000Y-74633000D02*
X91171000Y-80367000D01*
X91211000Y-74674000D02*
X91211000Y-80326000D01*
X91251000Y-74716000D02*
X91251000Y-80284000D01*
X91291000Y-74759000D02*
X91291000Y-80241000D01*
X91331000Y-74803000D02*
X91331000Y-80197000D01*
X91371000Y-74849000D02*
X91371000Y-80151000D01*
X91411000Y-74896000D02*
X91411000Y-80104000D01*
X91451000Y-74944000D02*
X91451000Y-80056000D01*
X91491000Y-74995000D02*
X91491000Y-80005000D01*
X91531000Y-75046000D02*
X91531000Y-79954000D01*
X91571000Y-75100000D02*
X91571000Y-79900000D01*
X91611000Y-75155000D02*
X91611000Y-79845000D01*
X91651000Y-75213000D02*
X91651000Y-79787000D01*
X91691000Y-75272000D02*
X91691000Y-79728000D01*
X91731000Y-75334000D02*
X91731000Y-79666000D01*
X91771000Y-75398000D02*
X91771000Y-79602000D01*
X91811000Y-75466000D02*
X91811000Y-79534000D01*
X91851000Y-75536000D02*
X91851000Y-79464000D01*
X91891000Y-75610000D02*
X91891000Y-79390000D01*
X91931000Y-75687000D02*
X91931000Y-79313000D01*
X91971000Y-75769000D02*
X91971000Y-79231000D01*
X92011000Y-75855000D02*
X92011000Y-79145000D01*
X92051000Y-75948000D02*
X92051000Y-79052000D01*
X92091000Y-76047000D02*
X92091000Y-78953000D01*
X92131000Y-76154000D02*
X92131000Y-78846000D01*
X92171000Y-76271000D02*
X92171000Y-78729000D01*
X92211000Y-76402000D02*
X92211000Y-78598000D01*
X92251000Y-76552000D02*
X92251000Y-78448000D01*
X92291000Y-76732000D02*
X92291000Y-78268000D01*
X92331000Y-76967000D02*
X92331000Y-78033000D01*
X92370000Y-77500000D02*
G75*
G02*
X84130000Y-77500000I-4120000J0D01*
G01*
X84130000Y-77500000D02*
G75*
G02*
X92370000Y-77500000I4120000J0D01*
G01*
%TO.C,C4*%
X69836248Y-58915000D02*
X70358752Y-58915000D01*
X69836248Y-60385000D02*
X70358752Y-60385000D01*
%TO.C,J3*%
X72947500Y-62750000D02*
X72947500Y-64000000D01*
X73237500Y-63040000D02*
X73237500Y-69010000D01*
X73237500Y-69010000D02*
X80857500Y-69010000D01*
X73247500Y-63050000D02*
X73247500Y-63800000D01*
X73247500Y-63800000D02*
X75047500Y-63800000D01*
X73247500Y-65300000D02*
X73997500Y-65300000D01*
X73997500Y-65300000D02*
X73997500Y-68250000D01*
X73997500Y-68250000D02*
X77047500Y-68250000D01*
X74197500Y-62750000D02*
X72947500Y-62750000D01*
X75047500Y-63050000D02*
X73247500Y-63050000D01*
X75047500Y-63800000D02*
X75047500Y-63050000D01*
X76547500Y-63050000D02*
X76547500Y-63800000D01*
X76547500Y-63800000D02*
X77547500Y-63800000D01*
X77547500Y-63050000D02*
X76547500Y-63050000D01*
X77547500Y-63800000D02*
X77547500Y-63050000D01*
X79047500Y-63050000D02*
X79047500Y-63800000D01*
X79047500Y-63800000D02*
X80847500Y-63800000D01*
X80097500Y-65300000D02*
X80097500Y-68250000D01*
X80097500Y-68250000D02*
X77047500Y-68250000D01*
X80847500Y-63050000D02*
X79047500Y-63050000D01*
X80847500Y-63800000D02*
X80847500Y-63050000D01*
X80847500Y-65300000D02*
X80097500Y-65300000D01*
X80857500Y-63040000D02*
X73237500Y-63040000D01*
X80857500Y-69010000D02*
X80857500Y-63040000D01*
%TO.C,C1*%
X69836248Y-52895000D02*
X70358752Y-52895000D01*
X69836248Y-54365000D02*
X70358752Y-54365000D01*
%TO.C,C2*%
X69836248Y-55905000D02*
X70358752Y-55905000D01*
X69836248Y-57375000D02*
X70358752Y-57375000D01*
%TO.C,F1*%
X75997936Y-82090000D02*
X77202064Y-82090000D01*
X75997936Y-83910000D02*
X77202064Y-83910000D01*
%TO.C,C7*%
X69836248Y-67945000D02*
X70358752Y-67945000D01*
X69836248Y-69415000D02*
X70358752Y-69415000D01*
%TO.C,D1*%
X68350000Y-84900000D02*
X68350000Y-79500000D01*
X68350000Y-84900000D02*
X71650000Y-84900000D01*
X71650000Y-84900000D02*
X71650000Y-79500000D01*
%TO.C,C9*%
X69836248Y-73965000D02*
X70358752Y-73965000D01*
X69836248Y-75435000D02*
X70358752Y-75435000D01*
%TO.C,C6*%
X69836248Y-64935000D02*
X70358752Y-64935000D01*
X69836248Y-66405000D02*
X70358752Y-66405000D01*
%TO.C,C5*%
X69836248Y-61925000D02*
X70358752Y-61925000D01*
X69836248Y-63395000D02*
X70358752Y-63395000D01*
%TO.C,C8*%
X69836248Y-70955000D02*
X70358752Y-70955000D01*
X69836248Y-72425000D02*
X70358752Y-72425000D01*
%TD*%
M02*
