%TF.GenerationSoftware,KiCad,Pcbnew,9.0.9*%
%TF.CreationDate,2026-09-25T22:23:53-05:00*%
%TF.ProjectId,ntf3_Horns_v1.0,6e746633-5f48-46f7-926e-735f76312e30,0.0*%
%TF.SameCoordinates,Original*%
%TF.FileFunction,Copper,L2,Bot*%
%TF.FilePolarity,Positive*%
%FSLAX46Y46*%
G04 Gerber Fmt 4.6, Leading zero omitted, Abs format (unit mm)*
G04 Created by KiCad (PCBNEW 9.0.9) date 2026-09-25 22:23:53*
%MOMM*%
%LPD*%
G01*
G04 APERTURE LIST*
G04 Aperture macros list*
%AMRoundRect*
0 Rectangle with rounded corners*
0 $1 Rounding radius*
0 $2 $3 $4 $5 $6 $7 $8 $9 X,Y pos of 4 corners*
0 Add a 4 corners polygon primitive as box body*
4,1,4,$2,$3,$4,$5,$6,$7,$8,$9,$2,$3,0*
0 Add four circle primitives for the rounded corners*
1,1,$1+$1,$2,$3*
1,1,$1+$1,$4,$5*
1,1,$1+$1,$6,$7*
1,1,$1+$1,$8,$9*
0 Add four rect primitives between the rounded corners*
20,1,$1+$1,$2,$3,$4,$5,0*
20,1,$1+$1,$4,$5,$6,$7,0*
20,1,$1+$1,$6,$7,$8,$9,0*
20,1,$1+$1,$8,$9,$2,$3,0*%
G04 Aperture macros list end*
%TA.AperFunction,ComponentPad*%
%ADD10RoundRect,0.250000X-0.600000X-0.725000X0.600000X-0.725000X0.600000X0.725000X-0.600000X0.725000X0*%
%TD*%
%TA.AperFunction,ComponentPad*%
%ADD11O,1.700000X1.950000*%
%TD*%
%TA.AperFunction,ComponentPad*%
%ADD12RoundRect,0.250000X-0.600000X-0.750000X0.600000X-0.750000X0.600000X0.750000X-0.600000X0.750000X0*%
%TD*%
%TA.AperFunction,ComponentPad*%
%ADD13O,1.700000X2.000000*%
%TD*%
%TA.AperFunction,ComponentPad*%
%ADD14R,1.600000X1.600000*%
%TD*%
%TA.AperFunction,ComponentPad*%
%ADD15C,1.600000*%
%TD*%
%TA.AperFunction,ViaPad*%
%ADD16C,0.800000*%
%TD*%
%TA.AperFunction,Conductor*%
%ADD17C,0.250000*%
%TD*%
G04 APERTURE END LIST*
D10*
%TO.P,J1,1,Pin_1*%
%TO.N,GND*%
X85247500Y-55500000D03*
D11*
%TO.P,J1,2,Pin_2*%
%TO.N,+24V*%
X87747500Y-55500000D03*
%TO.P,J1,3,Pin_3*%
%TO.N,GND*%
X90247500Y-55500000D03*
%TD*%
D12*
%TO.P,J2,1,Pin_1*%
%TO.N,/HORN_CTL*%
X76000000Y-75000000D03*
D13*
%TO.P,J2,2,Pin_2*%
%TO.N,GND*%
X78500000Y-75000000D03*
%TD*%
D12*
%TO.P,J4,1,Pin_1*%
%TO.N,/HORN_MID*%
X76000000Y-55500000D03*
D13*
%TO.P,J4,2,Pin_2*%
%TO.N,/HORN_IN*%
X78500000Y-55500000D03*
%TD*%
D14*
%TO.P,C3,1*%
%TO.N,+24V*%
X86500000Y-77500000D03*
D15*
%TO.P,C3,2*%
%TO.N,GND*%
X90000000Y-77500000D03*
%TD*%
D12*
%TO.P,J3,1,Pin_1*%
%TO.N,+24V*%
X75797500Y-65500000D03*
D13*
%TO.P,J3,2,Pin_2*%
%TO.N,/HORN_MID*%
X78297500Y-65500000D03*
%TD*%
D16*
%TO.N,GND*%
X67500000Y-73500000D03*
X71500000Y-77000000D03*
%TO.N,+24V*%
X68000000Y-67000000D03*
X86500000Y-72000000D03*
%TD*%
D17*
%TO.N,GND*%
X71500000Y-77000000D02*
X71000000Y-76500000D01*
X71000000Y-76500000D02*
X67500000Y-76500000D01*
X67500000Y-76500000D02*
X67500000Y-73500000D01*
%TO.N,+24V*%
X74297500Y-67000000D02*
X68000000Y-67000000D01*
X86500000Y-72000000D02*
X82297500Y-72000000D01*
X75797500Y-65500000D02*
X74297500Y-67000000D01*
X82297500Y-72000000D02*
X75797500Y-65500000D01*
%TD*%
%TA.AperFunction,Conductor*%
%TO.N,GND*%
G36*
X90002702Y-50000617D02*
G01*
X90351403Y-50015842D01*
X90357416Y-50016252D01*
X90437243Y-50023649D01*
X90441945Y-50024176D01*
X90747394Y-50064389D01*
X90753976Y-50065436D01*
X90828061Y-50079285D01*
X90831974Y-50080084D01*
X91138399Y-50148017D01*
X91145409Y-50149790D01*
X91209105Y-50167913D01*
X91212373Y-50168892D01*
X91520984Y-50266197D01*
X91528454Y-50268820D01*
X91575700Y-50287123D01*
X91578331Y-50288177D01*
X91892033Y-50418117D01*
X91899802Y-50421655D01*
X91918871Y-50431150D01*
X91921268Y-50432344D01*
X91923249Y-50433353D01*
X92244942Y-50600815D01*
X92254310Y-50606223D01*
X92576239Y-50811314D01*
X92585098Y-50817517D01*
X92887942Y-51049898D01*
X92896222Y-51056847D01*
X93177635Y-51314715D01*
X93185284Y-51322364D01*
X93443152Y-51603777D01*
X93450106Y-51612063D01*
X93682480Y-51914898D01*
X93688685Y-51923760D01*
X93893770Y-52245680D01*
X93899178Y-52255048D01*
X94066667Y-52576793D01*
X94067676Y-52578774D01*
X94078331Y-52600170D01*
X94081894Y-52607994D01*
X94211810Y-52921641D01*
X94212875Y-52924298D01*
X94231174Y-52971532D01*
X94233809Y-52979039D01*
X94331093Y-53287584D01*
X94332098Y-53290937D01*
X94350197Y-53354546D01*
X94351992Y-53361643D01*
X94419899Y-53667953D01*
X94420727Y-53672008D01*
X94434560Y-53746014D01*
X94435610Y-53752612D01*
X94475819Y-54058032D01*
X94476351Y-54062776D01*
X94483745Y-54142573D01*
X94484156Y-54148605D01*
X94499382Y-54497297D01*
X94499500Y-54502706D01*
X94499500Y-82997293D01*
X94499382Y-83002702D01*
X94484156Y-83351393D01*
X94483745Y-83357425D01*
X94476351Y-83437222D01*
X94475819Y-83441966D01*
X94435610Y-83747386D01*
X94434560Y-83753984D01*
X94420727Y-83827990D01*
X94419899Y-83832045D01*
X94351992Y-84138355D01*
X94350197Y-84145452D01*
X94332098Y-84209061D01*
X94331093Y-84212414D01*
X94233809Y-84520959D01*
X94231174Y-84528466D01*
X94212875Y-84575700D01*
X94211810Y-84578357D01*
X94081894Y-84892004D01*
X94078332Y-84899826D01*
X94067666Y-84921245D01*
X94066656Y-84923228D01*
X93899181Y-85244946D01*
X93893773Y-85254314D01*
X93688685Y-85576239D01*
X93682480Y-85585101D01*
X93450106Y-85887936D01*
X93443152Y-85896222D01*
X93185284Y-86177635D01*
X93177635Y-86185284D01*
X92896222Y-86443152D01*
X92887936Y-86450106D01*
X92585101Y-86682480D01*
X92576239Y-86688685D01*
X92254314Y-86893773D01*
X92244946Y-86899181D01*
X91923228Y-87066656D01*
X91921245Y-87067666D01*
X91899826Y-87078332D01*
X91892004Y-87081894D01*
X91578357Y-87211810D01*
X91575700Y-87212875D01*
X91528466Y-87231174D01*
X91520959Y-87233809D01*
X91212414Y-87331093D01*
X91209061Y-87332098D01*
X91145452Y-87350197D01*
X91138355Y-87351992D01*
X90832045Y-87419899D01*
X90827990Y-87420727D01*
X90753984Y-87434560D01*
X90747386Y-87435610D01*
X90441966Y-87475819D01*
X90437222Y-87476351D01*
X90357425Y-87483745D01*
X90351393Y-87484156D01*
X90002702Y-87499382D01*
X89997293Y-87499500D01*
X70502707Y-87499500D01*
X70497298Y-87499382D01*
X70148605Y-87484156D01*
X70142573Y-87483745D01*
X70062776Y-87476351D01*
X70058032Y-87475819D01*
X69752612Y-87435610D01*
X69746014Y-87434560D01*
X69672008Y-87420727D01*
X69667953Y-87419899D01*
X69361643Y-87351992D01*
X69354546Y-87350197D01*
X69290937Y-87332098D01*
X69287584Y-87331093D01*
X68979039Y-87233809D01*
X68971532Y-87231174D01*
X68924298Y-87212875D01*
X68921641Y-87211810D01*
X68607994Y-87081894D01*
X68600170Y-87078331D01*
X68578774Y-87067676D01*
X68576793Y-87066667D01*
X68255048Y-86899178D01*
X68245680Y-86893770D01*
X67923760Y-86688685D01*
X67914898Y-86682480D01*
X67612063Y-86450106D01*
X67603777Y-86443152D01*
X67322364Y-86185284D01*
X67314715Y-86177635D01*
X67056847Y-85896222D01*
X67049893Y-85887936D01*
X66817519Y-85585101D01*
X66811314Y-85576239D01*
X66606223Y-85254310D01*
X66600815Y-85244942D01*
X66433353Y-84923249D01*
X66432344Y-84921268D01*
X66431150Y-84918871D01*
X66421655Y-84899802D01*
X66418117Y-84892033D01*
X66288177Y-84578331D01*
X66287123Y-84575700D01*
X66268824Y-84528466D01*
X66266197Y-84520984D01*
X66168892Y-84212373D01*
X66167913Y-84209105D01*
X66149790Y-84145409D01*
X66148017Y-84138399D01*
X66080084Y-83831974D01*
X66079285Y-83828061D01*
X66065436Y-83753976D01*
X66064388Y-83747386D01*
X66024179Y-83441966D01*
X66023647Y-83437222D01*
X66016253Y-83357426D01*
X66016253Y-83357425D01*
X66015842Y-83351394D01*
X66000618Y-83002702D01*
X66000500Y-82997293D01*
X66000500Y-76651345D01*
X85191500Y-76651345D01*
X85191500Y-78348654D01*
X85198011Y-78409202D01*
X85198011Y-78409204D01*
X85227730Y-78488880D01*
X85249111Y-78546204D01*
X85336739Y-78663261D01*
X85453796Y-78750889D01*
X85590799Y-78801989D01*
X85618050Y-78804918D01*
X85651345Y-78808499D01*
X85651362Y-78808500D01*
X87348638Y-78808500D01*
X87348654Y-78808499D01*
X87375692Y-78805591D01*
X87409201Y-78801989D01*
X87546204Y-78750889D01*
X87663261Y-78663261D01*
X87750889Y-78546204D01*
X87801989Y-78409201D01*
X87805591Y-78375692D01*
X87808499Y-78348654D01*
X87808500Y-78348637D01*
X87808500Y-77397682D01*
X88700000Y-77397682D01*
X88700000Y-77602317D01*
X88732009Y-77804417D01*
X88795244Y-77999031D01*
X88888141Y-78181350D01*
X88888147Y-78181359D01*
X88920523Y-78225921D01*
X88920524Y-78225922D01*
X89600000Y-77546446D01*
X89600000Y-77552661D01*
X89627259Y-77654394D01*
X89679920Y-77745606D01*
X89754394Y-77820080D01*
X89845606Y-77872741D01*
X89947339Y-77900000D01*
X89953553Y-77900000D01*
X89274076Y-78579474D01*
X89318650Y-78611859D01*
X89500968Y-78704755D01*
X89695582Y-78767990D01*
X89897683Y-78800000D01*
X90102317Y-78800000D01*
X90304417Y-78767990D01*
X90499031Y-78704755D01*
X90681349Y-78611859D01*
X90725921Y-78579474D01*
X90046447Y-77900000D01*
X90052661Y-77900000D01*
X90154394Y-77872741D01*
X90245606Y-77820080D01*
X90320080Y-77745606D01*
X90372741Y-77654394D01*
X90400000Y-77552661D01*
X90400000Y-77546447D01*
X91079474Y-78225921D01*
X91111859Y-78181349D01*
X91204755Y-77999031D01*
X91267990Y-77804417D01*
X91300000Y-77602317D01*
X91300000Y-77397682D01*
X91267990Y-77195582D01*
X91204755Y-77000968D01*
X91111859Y-76818650D01*
X91079474Y-76774077D01*
X91079474Y-76774076D01*
X90400000Y-77453551D01*
X90400000Y-77447339D01*
X90372741Y-77345606D01*
X90320080Y-77254394D01*
X90245606Y-77179920D01*
X90154394Y-77127259D01*
X90052661Y-77100000D01*
X90046446Y-77100000D01*
X90725922Y-76420524D01*
X90725921Y-76420523D01*
X90681359Y-76388147D01*
X90681350Y-76388141D01*
X90499031Y-76295244D01*
X90304417Y-76232009D01*
X90102317Y-76200000D01*
X89897683Y-76200000D01*
X89695582Y-76232009D01*
X89500968Y-76295244D01*
X89318644Y-76388143D01*
X89274077Y-76420523D01*
X89274077Y-76420524D01*
X89953554Y-77100000D01*
X89947339Y-77100000D01*
X89845606Y-77127259D01*
X89754394Y-77179920D01*
X89679920Y-77254394D01*
X89627259Y-77345606D01*
X89600000Y-77447339D01*
X89600000Y-77453553D01*
X88920524Y-76774077D01*
X88920523Y-76774077D01*
X88888143Y-76818644D01*
X88795244Y-77000968D01*
X88732009Y-77195582D01*
X88700000Y-77397682D01*
X87808500Y-77397682D01*
X87808500Y-76651362D01*
X87808499Y-76651345D01*
X87805157Y-76620270D01*
X87801989Y-76590799D01*
X87750889Y-76453796D01*
X87663261Y-76336739D01*
X87546204Y-76249111D01*
X87409203Y-76198011D01*
X87348654Y-76191500D01*
X87348638Y-76191500D01*
X85651362Y-76191500D01*
X85651345Y-76191500D01*
X85590797Y-76198011D01*
X85590795Y-76198011D01*
X85453795Y-76249111D01*
X85336739Y-76336739D01*
X85249111Y-76453795D01*
X85198011Y-76590795D01*
X85198011Y-76590797D01*
X85191500Y-76651345D01*
X66000500Y-76651345D01*
X66000500Y-74199447D01*
X74641500Y-74199447D01*
X74641500Y-75800537D01*
X74641501Y-75800553D01*
X74647325Y-75857557D01*
X74652113Y-75904426D01*
X74707885Y-76072738D01*
X74800970Y-76223652D01*
X74926348Y-76349030D01*
X75077262Y-76442115D01*
X75245574Y-76497887D01*
X75349455Y-76508500D01*
X76650544Y-76508499D01*
X76754426Y-76497887D01*
X76922738Y-76442115D01*
X77073652Y-76349030D01*
X77199030Y-76223652D01*
X77292115Y-76072738D01*
X77292116Y-76072733D01*
X77294262Y-76069255D01*
X77346210Y-76022530D01*
X77415172Y-76011307D01*
X77479254Y-76039150D01*
X77487482Y-76046670D01*
X77620535Y-76179723D01*
X77620540Y-76179727D01*
X77792442Y-76304620D01*
X77981782Y-76401095D01*
X78183871Y-76466757D01*
X78250000Y-76477231D01*
X78250000Y-75433012D01*
X78307007Y-75465925D01*
X78434174Y-75500000D01*
X78565826Y-75500000D01*
X78692993Y-75465925D01*
X78750000Y-75433012D01*
X78750000Y-76477230D01*
X78816126Y-76466757D01*
X78816129Y-76466757D01*
X79018217Y-76401095D01*
X79207557Y-76304620D01*
X79379459Y-76179727D01*
X79379464Y-76179723D01*
X79529723Y-76029464D01*
X79529727Y-76029459D01*
X79654620Y-75857557D01*
X79751095Y-75668217D01*
X79816757Y-75466130D01*
X79816757Y-75466127D01*
X79850000Y-75256246D01*
X79850000Y-75250000D01*
X78933012Y-75250000D01*
X78965925Y-75192993D01*
X79000000Y-75065826D01*
X79000000Y-74934174D01*
X78965925Y-74807007D01*
X78933012Y-74750000D01*
X79850000Y-74750000D01*
X79850000Y-74743753D01*
X79816757Y-74533872D01*
X79816757Y-74533869D01*
X79751095Y-74331782D01*
X79654620Y-74142442D01*
X79529727Y-73970540D01*
X79529723Y-73970535D01*
X79379464Y-73820276D01*
X79379459Y-73820272D01*
X79207557Y-73695379D01*
X79018215Y-73598903D01*
X78816124Y-73533241D01*
X78750000Y-73522768D01*
X78750000Y-74566988D01*
X78692993Y-74534075D01*
X78565826Y-74500000D01*
X78434174Y-74500000D01*
X78307007Y-74534075D01*
X78250000Y-74566988D01*
X78250000Y-73522768D01*
X78249999Y-73522768D01*
X78183875Y-73533241D01*
X77981784Y-73598903D01*
X77792442Y-73695379D01*
X77620541Y-73820271D01*
X77487482Y-73953330D01*
X77426159Y-73986814D01*
X77356467Y-73981830D01*
X77300534Y-73939958D01*
X77294262Y-73930745D01*
X77292116Y-73927266D01*
X77292115Y-73927262D01*
X77199030Y-73776348D01*
X77073652Y-73650970D01*
X76922738Y-73557885D01*
X76848366Y-73533241D01*
X76754427Y-73502113D01*
X76650545Y-73491500D01*
X75349462Y-73491500D01*
X75349446Y-73491501D01*
X75245572Y-73502113D01*
X75077264Y-73557884D01*
X75077259Y-73557886D01*
X74926346Y-73650971D01*
X74800971Y-73776346D01*
X74707886Y-73927259D01*
X74707884Y-73927264D01*
X74652113Y-74095572D01*
X74641500Y-74199447D01*
X66000500Y-74199447D01*
X66000500Y-66910516D01*
X67091500Y-66910516D01*
X67091500Y-67089483D01*
X67126411Y-67264992D01*
X67126413Y-67265000D01*
X67194896Y-67430332D01*
X67194901Y-67430342D01*
X67294321Y-67579134D01*
X67294324Y-67579138D01*
X67420861Y-67705675D01*
X67420865Y-67705678D01*
X67569657Y-67805098D01*
X67569661Y-67805100D01*
X67569664Y-67805102D01*
X67735000Y-67873587D01*
X67910516Y-67908499D01*
X67910520Y-67908500D01*
X67910521Y-67908500D01*
X68089480Y-67908500D01*
X68089481Y-67908499D01*
X68265000Y-67873587D01*
X68430336Y-67805102D01*
X68579135Y-67705678D01*
X68614993Y-67669820D01*
X68676315Y-67636334D01*
X68702675Y-67633500D01*
X74359895Y-67633500D01*
X74359896Y-67633499D01*
X74482285Y-67609155D01*
X74597575Y-67561400D01*
X74701333Y-67492071D01*
X75148585Y-67044817D01*
X75209908Y-67011333D01*
X75236266Y-67008499D01*
X76358733Y-67008499D01*
X76425772Y-67028184D01*
X76446414Y-67044818D01*
X81893663Y-72492068D01*
X81893667Y-72492071D01*
X81997418Y-72561396D01*
X81997424Y-72561399D01*
X81997425Y-72561400D01*
X82112715Y-72609155D01*
X82235101Y-72633499D01*
X82235105Y-72633500D01*
X82235106Y-72633500D01*
X82359894Y-72633500D01*
X85797325Y-72633500D01*
X85864364Y-72653185D01*
X85885007Y-72669820D01*
X85920861Y-72705675D01*
X85920865Y-72705678D01*
X86069657Y-72805098D01*
X86069661Y-72805100D01*
X86069664Y-72805102D01*
X86235000Y-72873587D01*
X86410516Y-72908499D01*
X86410520Y-72908500D01*
X86410521Y-72908500D01*
X86589480Y-72908500D01*
X86589481Y-72908499D01*
X86765000Y-72873587D01*
X86930336Y-72805102D01*
X87079135Y-72705678D01*
X87205678Y-72579135D01*
X87305102Y-72430336D01*
X87373587Y-72265000D01*
X87408500Y-72089479D01*
X87408500Y-71910521D01*
X87373587Y-71735000D01*
X87305102Y-71569664D01*
X87305100Y-71569661D01*
X87305098Y-71569657D01*
X87205678Y-71420865D01*
X87205675Y-71420861D01*
X87079138Y-71294324D01*
X87079134Y-71294321D01*
X86930342Y-71194901D01*
X86930332Y-71194896D01*
X86765000Y-71126413D01*
X86764992Y-71126411D01*
X86589483Y-71091500D01*
X86589479Y-71091500D01*
X86410521Y-71091500D01*
X86410516Y-71091500D01*
X86235007Y-71126411D01*
X86234999Y-71126413D01*
X86069667Y-71194896D01*
X86069657Y-71194901D01*
X85920865Y-71294321D01*
X85920861Y-71294324D01*
X85885007Y-71330180D01*
X85823685Y-71363666D01*
X85797325Y-71366500D01*
X82611266Y-71366500D01*
X82544227Y-71346815D01*
X82523585Y-71330181D01*
X78401676Y-67208272D01*
X78368191Y-67146949D01*
X78373175Y-67077257D01*
X78415047Y-67021324D01*
X78469957Y-66998119D01*
X78615616Y-66975049D01*
X78818983Y-66908972D01*
X79009509Y-66811894D01*
X79182504Y-66686206D01*
X79333706Y-66535004D01*
X79459394Y-66362009D01*
X79556472Y-66171483D01*
X79622549Y-65968116D01*
X79656000Y-65756916D01*
X79656000Y-65243084D01*
X79622549Y-65031884D01*
X79556472Y-64828517D01*
X79556472Y-64828516D01*
X79507007Y-64731438D01*
X79459394Y-64637991D01*
X79333706Y-64464996D01*
X79182504Y-64313794D01*
X79009509Y-64188106D01*
X78936626Y-64150970D01*
X78818983Y-64091027D01*
X78818980Y-64091026D01*
X78615617Y-64024951D01*
X78471423Y-64002113D01*
X78404416Y-63991500D01*
X78190584Y-63991500D01*
X78123577Y-64002113D01*
X77979382Y-64024951D01*
X77776019Y-64091026D01*
X77776016Y-64091027D01*
X77585490Y-64188106D01*
X77412497Y-64313793D01*
X77280396Y-64445894D01*
X77219073Y-64479378D01*
X77149381Y-64474394D01*
X77093448Y-64432522D01*
X77087184Y-64423320D01*
X76996530Y-64276348D01*
X76871152Y-64150970D01*
X76720238Y-64057885D01*
X76620848Y-64024951D01*
X76551927Y-64002113D01*
X76448045Y-63991500D01*
X75146962Y-63991500D01*
X75146946Y-63991501D01*
X75043072Y-64002113D01*
X74874764Y-64057884D01*
X74874759Y-64057886D01*
X74723846Y-64150971D01*
X74598471Y-64276346D01*
X74505386Y-64427259D01*
X74505384Y-64427264D01*
X74449613Y-64595572D01*
X74439000Y-64699447D01*
X74439000Y-65911233D01*
X74419315Y-65978272D01*
X74402681Y-65998914D01*
X74071415Y-66330181D01*
X74010092Y-66363666D01*
X73983734Y-66366500D01*
X68702675Y-66366500D01*
X68635636Y-66346815D01*
X68614993Y-66330180D01*
X68579138Y-66294324D01*
X68579134Y-66294321D01*
X68430342Y-66194901D01*
X68430332Y-66194896D01*
X68265000Y-66126413D01*
X68264992Y-66126411D01*
X68089483Y-66091500D01*
X68089479Y-66091500D01*
X67910521Y-66091500D01*
X67910516Y-66091500D01*
X67735007Y-66126411D01*
X67734999Y-66126413D01*
X67569667Y-66194896D01*
X67569657Y-66194901D01*
X67420865Y-66294321D01*
X67420861Y-66294324D01*
X67294324Y-66420861D01*
X67294321Y-66420865D01*
X67194901Y-66569657D01*
X67194896Y-66569667D01*
X67126413Y-66734999D01*
X67126411Y-66735007D01*
X67091500Y-66910516D01*
X66000500Y-66910516D01*
X66000500Y-54699447D01*
X74641500Y-54699447D01*
X74641500Y-56300537D01*
X74641501Y-56300553D01*
X74652113Y-56404427D01*
X74707884Y-56572735D01*
X74707886Y-56572740D01*
X74743142Y-56629898D01*
X74800970Y-56723652D01*
X74926348Y-56849030D01*
X75077262Y-56942115D01*
X75245574Y-56997887D01*
X75349455Y-57008500D01*
X76650544Y-57008499D01*
X76754426Y-56997887D01*
X76922738Y-56942115D01*
X77073652Y-56849030D01*
X77199030Y-56723652D01*
X77289679Y-56576687D01*
X77341624Y-56529966D01*
X77410587Y-56518743D01*
X77474669Y-56546587D01*
X77482896Y-56554106D01*
X77614996Y-56686206D01*
X77787991Y-56811894D01*
X77881438Y-56859507D01*
X77978516Y-56908972D01*
X77978519Y-56908973D01*
X78079420Y-56941757D01*
X78181884Y-56975049D01*
X78393084Y-57008500D01*
X78393085Y-57008500D01*
X78606915Y-57008500D01*
X78606916Y-57008500D01*
X78818116Y-56975049D01*
X79021483Y-56908972D01*
X79212009Y-56811894D01*
X79385004Y-56686206D01*
X79536206Y-56535004D01*
X79661894Y-56362009D01*
X79758972Y-56171483D01*
X79825049Y-55968116D01*
X79858500Y-55756916D01*
X79858500Y-55243084D01*
X79825049Y-55031884D01*
X79758972Y-54828517D01*
X79758970Y-54828511D01*
X79733314Y-54778160D01*
X79733313Y-54778159D01*
X79706234Y-54725013D01*
X83897500Y-54725013D01*
X83897500Y-55250000D01*
X84843354Y-55250000D01*
X84804870Y-55316657D01*
X84772500Y-55437465D01*
X84772500Y-55562535D01*
X84804870Y-55683343D01*
X84843354Y-55750000D01*
X83897501Y-55750000D01*
X83897501Y-56274986D01*
X83907994Y-56377697D01*
X83963141Y-56544119D01*
X83963143Y-56544124D01*
X84055184Y-56693345D01*
X84179154Y-56817315D01*
X84328375Y-56909356D01*
X84328380Y-56909358D01*
X84494802Y-56964505D01*
X84494809Y-56964506D01*
X84597519Y-56974999D01*
X84997499Y-56974999D01*
X84997500Y-56974998D01*
X84997500Y-55904145D01*
X85064157Y-55942630D01*
X85184965Y-55975000D01*
X85310035Y-55975000D01*
X85430843Y-55942630D01*
X85497500Y-55904145D01*
X85497500Y-56974999D01*
X85897472Y-56974999D01*
X85897486Y-56974998D01*
X86000197Y-56964505D01*
X86166619Y-56909358D01*
X86166624Y-56909356D01*
X86315845Y-56817315D01*
X86439815Y-56693345D01*
X86530999Y-56545513D01*
X86582947Y-56498789D01*
X86651910Y-56487566D01*
X86715992Y-56515410D01*
X86724219Y-56522929D01*
X86862496Y-56661206D01*
X87035491Y-56786894D01*
X87128938Y-56834507D01*
X87226016Y-56883972D01*
X87226019Y-56883973D01*
X87302960Y-56908972D01*
X87429384Y-56950049D01*
X87640584Y-56983500D01*
X87640585Y-56983500D01*
X87854415Y-56983500D01*
X87854416Y-56983500D01*
X88065616Y-56950049D01*
X88268983Y-56883972D01*
X88459509Y-56786894D01*
X88632504Y-56661206D01*
X88783706Y-56510004D01*
X88902435Y-56346586D01*
X88957765Y-56303921D01*
X89027378Y-56297942D01*
X89089173Y-56330548D01*
X89103071Y-56346587D01*
X89217772Y-56504459D01*
X89217776Y-56504464D01*
X89368035Y-56654723D01*
X89368040Y-56654727D01*
X89539942Y-56779620D01*
X89729282Y-56876095D01*
X89931371Y-56941757D01*
X89997500Y-56952231D01*
X89997500Y-55904145D01*
X90064157Y-55942630D01*
X90184965Y-55975000D01*
X90310035Y-55975000D01*
X90430843Y-55942630D01*
X90497500Y-55904145D01*
X90497500Y-56952230D01*
X90563626Y-56941757D01*
X90563629Y-56941757D01*
X90765717Y-56876095D01*
X90955057Y-56779620D01*
X91126959Y-56654727D01*
X91126964Y-56654723D01*
X91277223Y-56504464D01*
X91277227Y-56504459D01*
X91402120Y-56332557D01*
X91498595Y-56143217D01*
X91564257Y-55941130D01*
X91564257Y-55941127D01*
X91594530Y-55750000D01*
X90651646Y-55750000D01*
X90690130Y-55683343D01*
X90722500Y-55562535D01*
X90722500Y-55437465D01*
X90690130Y-55316657D01*
X90651646Y-55250000D01*
X91594530Y-55250000D01*
X91564257Y-55058872D01*
X91564257Y-55058869D01*
X91498595Y-54856782D01*
X91402120Y-54667442D01*
X91277227Y-54495540D01*
X91277223Y-54495535D01*
X91126964Y-54345276D01*
X91126959Y-54345272D01*
X90955057Y-54220379D01*
X90765715Y-54123903D01*
X90563624Y-54058241D01*
X90497500Y-54047768D01*
X90497500Y-55095854D01*
X90430843Y-55057370D01*
X90310035Y-55025000D01*
X90184965Y-55025000D01*
X90064157Y-55057370D01*
X89997500Y-55095854D01*
X89997500Y-54047768D01*
X89997499Y-54047768D01*
X89931375Y-54058241D01*
X89729284Y-54123903D01*
X89539942Y-54220379D01*
X89368040Y-54345272D01*
X89368035Y-54345276D01*
X89217776Y-54495535D01*
X89103071Y-54653413D01*
X89047741Y-54696078D01*
X88978127Y-54702057D01*
X88916332Y-54669451D01*
X88902435Y-54653412D01*
X88792940Y-54502706D01*
X88783706Y-54489996D01*
X88632504Y-54338794D01*
X88459509Y-54213106D01*
X88399803Y-54182684D01*
X88268983Y-54116027D01*
X88268980Y-54116026D01*
X88065617Y-54049951D01*
X87960016Y-54033225D01*
X87854416Y-54016500D01*
X87640584Y-54016500D01*
X87586911Y-54025001D01*
X87429382Y-54049951D01*
X87226019Y-54116026D01*
X87226016Y-54116027D01*
X87035490Y-54213106D01*
X86862497Y-54338793D01*
X86724219Y-54477071D01*
X86662896Y-54510555D01*
X86593204Y-54505571D01*
X86537271Y-54463699D01*
X86530999Y-54454486D01*
X86439815Y-54306654D01*
X86315845Y-54182684D01*
X86166624Y-54090643D01*
X86166619Y-54090641D01*
X86000197Y-54035494D01*
X86000190Y-54035493D01*
X85897486Y-54025000D01*
X85497500Y-54025000D01*
X85497500Y-55095854D01*
X85430843Y-55057370D01*
X85310035Y-55025000D01*
X85184965Y-55025000D01*
X85064157Y-55057370D01*
X84997500Y-55095854D01*
X84997500Y-54025000D01*
X84597528Y-54025000D01*
X84597512Y-54025001D01*
X84494802Y-54035494D01*
X84328380Y-54090641D01*
X84328375Y-54090643D01*
X84179154Y-54182684D01*
X84055184Y-54306654D01*
X83963143Y-54455875D01*
X83963141Y-54455880D01*
X83907994Y-54622302D01*
X83907993Y-54622309D01*
X83897500Y-54725013D01*
X79706234Y-54725013D01*
X79694537Y-54702057D01*
X79661894Y-54637991D01*
X79536206Y-54464996D01*
X79385004Y-54313794D01*
X79212009Y-54188106D01*
X79139126Y-54150970D01*
X79021483Y-54091027D01*
X79021480Y-54091026D01*
X78818117Y-54024951D01*
X78673923Y-54002113D01*
X78606916Y-53991500D01*
X78393084Y-53991500D01*
X78326077Y-54002113D01*
X78181882Y-54024951D01*
X77978519Y-54091026D01*
X77978516Y-54091027D01*
X77787990Y-54188106D01*
X77614997Y-54313793D01*
X77482896Y-54445894D01*
X77421573Y-54479378D01*
X77351881Y-54474394D01*
X77295948Y-54432522D01*
X77289684Y-54423320D01*
X77199030Y-54276348D01*
X77073652Y-54150970D01*
X76930616Y-54062744D01*
X76922740Y-54057886D01*
X76922735Y-54057884D01*
X76754427Y-54002113D01*
X76650545Y-53991500D01*
X75349462Y-53991500D01*
X75349446Y-53991501D01*
X75245572Y-54002113D01*
X75077264Y-54057884D01*
X75077259Y-54057886D01*
X74926346Y-54150971D01*
X74800971Y-54276346D01*
X74707886Y-54427259D01*
X74707884Y-54427264D01*
X74652113Y-54595572D01*
X74641500Y-54699447D01*
X66000500Y-54699447D01*
X66000500Y-54502706D01*
X66000618Y-54497297D01*
X66002426Y-54455880D01*
X66015842Y-54148590D01*
X66016253Y-54142572D01*
X66018713Y-54116026D01*
X66023650Y-54062744D01*
X66024175Y-54058066D01*
X66064390Y-53752593D01*
X66065434Y-53746034D01*
X66079290Y-53671914D01*
X66080079Y-53668048D01*
X66148020Y-53361584D01*
X66149785Y-53354606D01*
X66167924Y-53290854D01*
X66168880Y-53287666D01*
X66266204Y-52978996D01*
X66268812Y-52971564D01*
X66287146Y-52924239D01*
X66288152Y-52921730D01*
X66418126Y-52607944D01*
X66421644Y-52600218D01*
X66432382Y-52578654D01*
X66433331Y-52576793D01*
X66600821Y-52255045D01*
X66606216Y-52245700D01*
X66811323Y-51923746D01*
X66817509Y-51914911D01*
X67049907Y-51612045D01*
X67056832Y-51603794D01*
X67314726Y-51322352D01*
X67322352Y-51314726D01*
X67603794Y-51056832D01*
X67612045Y-51049907D01*
X67914911Y-50817509D01*
X67923746Y-50811323D01*
X68245700Y-50606216D01*
X68255045Y-50600821D01*
X68576828Y-50433312D01*
X68578654Y-50432382D01*
X68600218Y-50421644D01*
X68607944Y-50418126D01*
X68921730Y-50288152D01*
X68924239Y-50287146D01*
X68971564Y-50268812D01*
X68978996Y-50266204D01*
X69287666Y-50168880D01*
X69290854Y-50167924D01*
X69354606Y-50149785D01*
X69361584Y-50148020D01*
X69668048Y-50080079D01*
X69671914Y-50079290D01*
X69746034Y-50065434D01*
X69752593Y-50064390D01*
X70058066Y-50024175D01*
X70062744Y-50023650D01*
X70142588Y-50016251D01*
X70148590Y-50015842D01*
X70497297Y-50000617D01*
X70502706Y-50000500D01*
X89997294Y-50000500D01*
X90002702Y-50000617D01*
G37*
%TD.AperFunction*%
%TD*%
M02*
