%TF.GenerationSoftware,KiCad,Pcbnew,9.0.9*%
%TF.CreationDate,2026-09-25T22:23:53-05:00*%
%TF.ProjectId,ntf3_Horns_v1.0,6e746633-5f48-46f7-926e-735f76312e30,0.0*%
%TF.SameCoordinates,Original*%
%TF.FileFunction,Copper,L1,Top*%
%TF.FilePolarity,Positive*%
%FSLAX46Y46*%
G04 Gerber Fmt 4.6, Leading zero omitted, Abs format (unit mm)*
G04 Created by KiCad (PCBNEW 9.0.9) date 2026-09-25 22:23:53*
%MOMM*%
%LPD*%
G01*
G04 APERTURE LIST*
G04 Aperture macros list*
%AMRoundRect*
0 Rectangle with rounded corners*
0 $1 Rounding radius*
0 $2 $3 $4 $5 $6 $7 $8 $9 X,Y pos of 4 corners*
0 Add a 4 corners polygon primitive as box body*
4,1,4,$2,$3,$4,$5,$6,$7,$8,$9,$2,$3,0*
0 Add four circle primitives for the rounded corners*
1,1,$1+$1,$2,$3*
1,1,$1+$1,$4,$5*
1,1,$1+$1,$6,$7*
1,1,$1+$1,$8,$9*
0 Add four rect primitives between the rounded corners*
20,1,$1+$1,$2,$3,$4,$5,0*
20,1,$1+$1,$4,$5,$6,$7,0*
20,1,$1+$1,$6,$7,$8,$9,0*
20,1,$1+$1,$8,$9,$2,$3,0*%
G04 Aperture macros list end*
%TA.AperFunction,ComponentPad*%
%ADD10RoundRect,0.250000X-0.600000X-0.725000X0.600000X-0.725000X0.600000X0.725000X-0.600000X0.725000X0*%
%TD*%
%TA.AperFunction,ComponentPad*%
%ADD11O,1.700000X1.950000*%
%TD*%
%TA.AperFunction,SMDPad,CuDef*%
%ADD12R,2.200000X1.200000*%
%TD*%
%TA.AperFunction,SMDPad,CuDef*%
%ADD13R,6.400000X5.800000*%
%TD*%
%TA.AperFunction,ComponentPad*%
%ADD14RoundRect,0.250000X-0.600000X-0.750000X0.600000X-0.750000X0.600000X0.750000X-0.600000X0.750000X0*%
%TD*%
%TA.AperFunction,ComponentPad*%
%ADD15O,1.700000X2.000000*%
%TD*%
%TA.AperFunction,SMDPad,CuDef*%
%ADD16RoundRect,0.250000X-0.262500X-0.450000X0.262500X-0.450000X0.262500X0.450000X-0.262500X0.450000X0*%
%TD*%
%TA.AperFunction,ComponentPad*%
%ADD17R,1.600000X1.600000*%
%TD*%
%TA.AperFunction,ComponentPad*%
%ADD18C,1.600000*%
%TD*%
%TA.AperFunction,SMDPad,CuDef*%
%ADD19RoundRect,0.250000X-0.250000X-0.475000X0.250000X-0.475000X0.250000X0.475000X-0.250000X0.475000X0*%
%TD*%
%TA.AperFunction,SMDPad,CuDef*%
%ADD20RoundRect,0.250000X-0.375000X-0.625000X0.375000X-0.625000X0.375000X0.625000X-0.375000X0.625000X0*%
%TD*%
%TA.AperFunction,SMDPad,CuDef*%
%ADD21R,1.800000X2.500000*%
%TD*%
%TA.AperFunction,ViaPad*%
%ADD22C,0.800000*%
%TD*%
%TA.AperFunction,Conductor*%
%ADD23C,0.250000*%
%TD*%
G04 APERTURE END LIST*
D10*
%TO.P,J1,1,Pin_1*%
%TO.N,GND*%
X85247500Y-55500000D03*
D11*
%TO.P,J1,2,Pin_2*%
%TO.N,+24V*%
X87747500Y-55500000D03*
%TO.P,J1,3,Pin_3*%
%TO.N,GND*%
X90247500Y-55500000D03*
%TD*%
D12*
%TO.P,Q1,1,G*%
%TO.N,Net-(Q1-G)*%
X83700000Y-63720000D03*
%TO.P,Q1,2,D*%
%TO.N,Net-(Q1-D)*%
X83700000Y-66000000D03*
D13*
X90000000Y-66000000D03*
D12*
%TO.P,Q1,3,S*%
%TO.N,GND*%
X83700000Y-68280000D03*
%TD*%
D14*
%TO.P,J2,1,Pin_1*%
%TO.N,/HORN_CTL*%
X76000000Y-75000000D03*
D15*
%TO.P,J2,2,Pin_2*%
%TO.N,GND*%
X78500000Y-75000000D03*
%TD*%
D14*
%TO.P,J4,1,Pin_1*%
%TO.N,/HORN_MID*%
X76000000Y-55500000D03*
D15*
%TO.P,J4,2,Pin_2*%
%TO.N,/HORN_IN*%
X78500000Y-55500000D03*
%TD*%
D16*
%TO.P,R1,1*%
%TO.N,/HORN_CTL*%
X81175000Y-83000000D03*
%TO.P,R1,2*%
%TO.N,Net-(Q1-G)*%
X83000000Y-83000000D03*
%TD*%
D17*
%TO.P,C3,1*%
%TO.N,+24V*%
X86500000Y-77500000D03*
D18*
%TO.P,C3,2*%
%TO.N,GND*%
X90000000Y-77500000D03*
%TD*%
D19*
%TO.P,C4,1*%
%TO.N,+24V*%
X69147500Y-59650000D03*
%TO.P,C4,2*%
%TO.N,GND*%
X71047500Y-59650000D03*
%TD*%
D14*
%TO.P,J3,1,Pin_1*%
%TO.N,+24V*%
X75797500Y-65500000D03*
D15*
%TO.P,J3,2,Pin_2*%
%TO.N,/HORN_MID*%
X78297500Y-65500000D03*
%TD*%
D19*
%TO.P,C1,1*%
%TO.N,Net-(Q1-G)*%
X69147500Y-53630000D03*
%TO.P,C1,2*%
%TO.N,GND*%
X71047500Y-53630000D03*
%TD*%
%TO.P,C2,1*%
%TO.N,+24V*%
X69147500Y-56640000D03*
%TO.P,C2,2*%
%TO.N,GND*%
X71047500Y-56640000D03*
%TD*%
D20*
%TO.P,F1,1*%
%TO.N,/HORN_IN*%
X75200000Y-83000000D03*
%TO.P,F1,2*%
%TO.N,Net-(Q1-D)*%
X78000000Y-83000000D03*
%TD*%
D19*
%TO.P,C7,1*%
%TO.N,+24V*%
X69147500Y-68680000D03*
%TO.P,C7,2*%
%TO.N,GND*%
X71047500Y-68680000D03*
%TD*%
D21*
%TO.P,D1,1,K*%
%TO.N,+24V*%
X70000000Y-83500000D03*
%TO.P,D1,2,A*%
%TO.N,/HORN_IN*%
X70000000Y-79500000D03*
%TD*%
D19*
%TO.P,C9,1*%
%TO.N,+24V*%
X69147500Y-74700000D03*
%TO.P,C9,2*%
%TO.N,GND*%
X71047500Y-74700000D03*
%TD*%
%TO.P,C6,1*%
%TO.N,+24V*%
X69147500Y-65670000D03*
%TO.P,C6,2*%
%TO.N,GND*%
X71047500Y-65670000D03*
%TD*%
%TO.P,C5,1*%
%TO.N,+24V*%
X69147500Y-62660000D03*
%TO.P,C5,2*%
%TO.N,GND*%
X71047500Y-62660000D03*
%TD*%
%TO.P,C8,1*%
%TO.N,+24V*%
X69147500Y-71690000D03*
%TO.P,C8,2*%
%TO.N,GND*%
X71047500Y-71690000D03*
%TD*%
D22*
%TO.N,GND*%
X67500000Y-73500000D03*
X71500000Y-77000000D03*
%TO.N,+24V*%
X68000000Y-67000000D03*
X86500000Y-72000000D03*
%TD*%
D23*
%TO.N,GND*%
X71047500Y-56640000D02*
X71047500Y-53630000D01*
X71047500Y-62660000D02*
X71047500Y-59650000D01*
X83700000Y-69800000D02*
X78500000Y-75000000D01*
X71047500Y-68680000D02*
X71047500Y-65670000D01*
X71047500Y-71690000D02*
X71047500Y-68680000D01*
X67500000Y-73500000D02*
X69237500Y-73500000D01*
X71047500Y-74700000D02*
X72072500Y-73675000D01*
X83700000Y-68280000D02*
X83700000Y-69800000D01*
X77175000Y-73675000D02*
X78500000Y-75000000D01*
X71047500Y-65670000D02*
X71047500Y-62660000D01*
X69237500Y-73500000D02*
X71047500Y-71690000D01*
X72072500Y-73675000D02*
X77175000Y-73675000D01*
X72072500Y-73675000D02*
X72072500Y-76427500D01*
X72072500Y-76427500D02*
X71500000Y-77000000D01*
X71047500Y-59650000D02*
X71047500Y-56640000D01*
%TO.N,Net-(Q1-G)*%
X78629900Y-85450000D02*
X85186396Y-85450000D01*
X82000000Y-52000000D02*
X82000000Y-62020000D01*
X87625000Y-83011396D02*
X91488604Y-83011396D01*
X83000000Y-83000000D02*
X81450000Y-84550000D01*
X81450000Y-84550000D02*
X80186396Y-84550000D01*
X93000000Y-61500000D02*
X85920000Y-61500000D01*
X69147500Y-53630000D02*
X70777500Y-52000000D01*
X78620100Y-81800000D02*
X77379900Y-81800000D01*
X77379900Y-81800000D02*
X77050000Y-82129900D01*
X78950000Y-83313604D02*
X78950000Y-82129900D01*
X85920000Y-61500000D02*
X83700000Y-63720000D01*
X77050000Y-83870100D02*
X78629900Y-85450000D01*
X85186396Y-85450000D02*
X87625000Y-83011396D01*
X82000000Y-62020000D02*
X83700000Y-63720000D01*
X70777500Y-52000000D02*
X82000000Y-52000000D01*
X80186396Y-84550000D02*
X78950000Y-83313604D01*
X77050000Y-82129900D02*
X77050000Y-83870100D01*
X91488604Y-83011396D02*
X93500000Y-81000000D01*
X93525000Y-73475000D02*
X93525000Y-62025000D01*
X93500000Y-73500000D02*
X93525000Y-73475000D01*
X93525000Y-62025000D02*
X93000000Y-61500000D01*
X93500000Y-81000000D02*
X93500000Y-73500000D01*
X78950000Y-82129900D02*
X78620100Y-81800000D01*
%TO.N,+24V*%
X86500000Y-77500000D02*
X86500000Y-72000000D01*
X68000000Y-67000000D02*
X68000000Y-63000000D01*
X68807500Y-63000000D02*
X69147500Y-62660000D01*
X68000000Y-63000000D02*
X68807500Y-63000000D01*
%TO.N,/HORN_IN*%
X72500000Y-60500000D02*
X73500000Y-60500000D01*
X71542600Y-72740000D02*
X72500000Y-71782600D01*
X70000000Y-73717400D02*
X70977400Y-72740000D01*
X73500000Y-60500000D02*
X78500000Y-55500000D01*
X73500000Y-83000000D02*
X70000000Y-79500000D01*
X70000000Y-79500000D02*
X70000000Y-73717400D01*
X75200000Y-83000000D02*
X73500000Y-83000000D01*
X70977400Y-72740000D02*
X71542600Y-72740000D01*
X72500000Y-71782600D02*
X72500000Y-60500000D01*
%TO.N,Net-(Q1-D)*%
X85125000Y-77875000D02*
X85125000Y-67425000D01*
X78000000Y-83000000D02*
X80000000Y-85000000D01*
X83500000Y-79500000D02*
X85125000Y-77875000D01*
X85000000Y-85000000D02*
X85000000Y-81000000D01*
X85125000Y-67425000D02*
X83700000Y-66000000D01*
X90000000Y-66000000D02*
X86550000Y-66000000D01*
X85000000Y-81000000D02*
X83500000Y-79500000D01*
X86550000Y-66000000D02*
X85125000Y-67425000D01*
X80000000Y-85000000D02*
X85000000Y-85000000D01*
%TO.N,/HORN_CTL*%
X76000000Y-76000000D02*
X76000000Y-75000000D01*
X81175000Y-81175000D02*
X76000000Y-76000000D01*
X81175000Y-83000000D02*
X81175000Y-81175000D01*
%TO.N,/HORN_MID*%
X80500000Y-54500000D02*
X80500000Y-63297500D01*
X80500000Y-63297500D02*
X78297500Y-65500000D01*
X76000000Y-55500000D02*
X78500000Y-53000000D01*
X79000000Y-53000000D02*
X80500000Y-54500000D01*
X78500000Y-53000000D02*
X79000000Y-53000000D01*
%TD*%
%TA.AperFunction,Conductor*%
%TO.N,+24V*%
G36*
X86210834Y-67337584D02*
G01*
X86266767Y-67379456D01*
X86291184Y-67444920D01*
X86291500Y-67453766D01*
X86291500Y-68948654D01*
X86298011Y-69009202D01*
X86298011Y-69009204D01*
X86341651Y-69126204D01*
X86349111Y-69146204D01*
X86436739Y-69263261D01*
X86553796Y-69350889D01*
X86690799Y-69401989D01*
X86718050Y-69404918D01*
X86751345Y-69408499D01*
X86751362Y-69408500D01*
X92767500Y-69408500D01*
X92834539Y-69428185D01*
X92880294Y-69480989D01*
X92891500Y-69532500D01*
X92891500Y-73299708D01*
X92889117Y-73323899D01*
X92866500Y-73437601D01*
X92866500Y-80686233D01*
X92846815Y-80753272D01*
X92830181Y-80773914D01*
X91262519Y-82341577D01*
X91201196Y-82375062D01*
X91174838Y-82377896D01*
X87562601Y-82377896D01*
X87440222Y-82402239D01*
X87440214Y-82402241D01*
X87324927Y-82449994D01*
X87324918Y-82449999D01*
X87221167Y-82519324D01*
X87221163Y-82519327D01*
X85845181Y-83895310D01*
X85783858Y-83928795D01*
X85714166Y-83923811D01*
X85658233Y-83881939D01*
X85633816Y-83816475D01*
X85633500Y-83807629D01*
X85633500Y-80937605D01*
X85633499Y-80937601D01*
X85621032Y-80874925D01*
X85609155Y-80815215D01*
X85561400Y-80699925D01*
X85561399Y-80699924D01*
X85561396Y-80699918D01*
X85492072Y-80596168D01*
X85492071Y-80596167D01*
X85403833Y-80507929D01*
X85403832Y-80507928D01*
X84483584Y-79587680D01*
X84450099Y-79526357D01*
X84455083Y-79456665D01*
X84483580Y-79412323D01*
X85207306Y-78688597D01*
X85268625Y-78655115D01*
X85338317Y-78660099D01*
X85369294Y-78677014D01*
X85457911Y-78743353D01*
X85457913Y-78743354D01*
X85592620Y-78793596D01*
X85592627Y-78793598D01*
X85652155Y-78799999D01*
X85652172Y-78800000D01*
X86250000Y-78800000D01*
X86250000Y-77815686D01*
X86254394Y-77820080D01*
X86345606Y-77872741D01*
X86447339Y-77900000D01*
X86552661Y-77900000D01*
X86654394Y-77872741D01*
X86745606Y-77820080D01*
X86750000Y-77815686D01*
X86750000Y-78800000D01*
X87347828Y-78800000D01*
X87347844Y-78799999D01*
X87407372Y-78793598D01*
X87407379Y-78793596D01*
X87542086Y-78743354D01*
X87542093Y-78743350D01*
X87657187Y-78657190D01*
X87657190Y-78657187D01*
X87743350Y-78542093D01*
X87743354Y-78542086D01*
X87793596Y-78407379D01*
X87793598Y-78407372D01*
X87799999Y-78347844D01*
X87800000Y-78347827D01*
X87800000Y-77750000D01*
X86815686Y-77750000D01*
X86820080Y-77745606D01*
X86872741Y-77654394D01*
X86900000Y-77552661D01*
X86900000Y-77447339D01*
X86886517Y-77397019D01*
X88691500Y-77397019D01*
X88691500Y-77602980D01*
X88723719Y-77806408D01*
X88787367Y-78002294D01*
X88880873Y-78185806D01*
X89001926Y-78352423D01*
X89001930Y-78352428D01*
X89147571Y-78498069D01*
X89147576Y-78498073D01*
X89292908Y-78603661D01*
X89314197Y-78619129D01*
X89388890Y-78657187D01*
X89497705Y-78712632D01*
X89497707Y-78712632D01*
X89497710Y-78712634D01*
X89592244Y-78743350D01*
X89693591Y-78776280D01*
X89795305Y-78792390D01*
X89897019Y-78808500D01*
X89897020Y-78808500D01*
X90102980Y-78808500D01*
X90102981Y-78808500D01*
X90306408Y-78776280D01*
X90502290Y-78712634D01*
X90685803Y-78619129D01*
X90852430Y-78498068D01*
X90998068Y-78352430D01*
X91119129Y-78185803D01*
X91212634Y-78002290D01*
X91276280Y-77806408D01*
X91308500Y-77602981D01*
X91308500Y-77397019D01*
X91276280Y-77193592D01*
X91212634Y-76997710D01*
X91212632Y-76997707D01*
X91212632Y-76997705D01*
X91178709Y-76931128D01*
X91119129Y-76814197D01*
X91056193Y-76727572D01*
X90998073Y-76647576D01*
X90998069Y-76647571D01*
X90852428Y-76501930D01*
X90852423Y-76501926D01*
X90685806Y-76380873D01*
X90685805Y-76380872D01*
X90685803Y-76380871D01*
X90623308Y-76349028D01*
X90502294Y-76287367D01*
X90306408Y-76223719D01*
X90124435Y-76194898D01*
X90102981Y-76191500D01*
X89897019Y-76191500D01*
X89875565Y-76194898D01*
X89693591Y-76223719D01*
X89497705Y-76287367D01*
X89314193Y-76380873D01*
X89147576Y-76501926D01*
X89147571Y-76501930D01*
X89001930Y-76647571D01*
X89001926Y-76647576D01*
X88880873Y-76814193D01*
X88787367Y-76997705D01*
X88723719Y-77193591D01*
X88691500Y-77397019D01*
X86886517Y-77397019D01*
X86872741Y-77345606D01*
X86820080Y-77254394D01*
X86815686Y-77250000D01*
X87800000Y-77250000D01*
X87800000Y-76652172D01*
X87799999Y-76652155D01*
X87793598Y-76592627D01*
X87793596Y-76592620D01*
X87743354Y-76457913D01*
X87743350Y-76457906D01*
X87657190Y-76342812D01*
X87657187Y-76342809D01*
X87542093Y-76256649D01*
X87542086Y-76256645D01*
X87407379Y-76206403D01*
X87407372Y-76206401D01*
X87347844Y-76200000D01*
X86750000Y-76200000D01*
X86750000Y-77184314D01*
X86745606Y-77179920D01*
X86654394Y-77127259D01*
X86552661Y-77100000D01*
X86447339Y-77100000D01*
X86345606Y-77127259D01*
X86254394Y-77179920D01*
X86250000Y-77184314D01*
X86250000Y-76200000D01*
X85882500Y-76200000D01*
X85815461Y-76180315D01*
X85769706Y-76127511D01*
X85758500Y-76076000D01*
X85758500Y-67738766D01*
X85778185Y-67671727D01*
X85794819Y-67651085D01*
X86079819Y-67366085D01*
X86141142Y-67332600D01*
X86210834Y-67337584D01*
G37*
%TD.AperFunction*%
%TA.AperFunction,Conductor*%
G36*
X79828920Y-56373102D02*
G01*
X79863278Y-56433941D01*
X79866500Y-56462026D01*
X79866500Y-62983733D01*
X79846815Y-63050772D01*
X79830181Y-63071414D01*
X78866362Y-64035232D01*
X78805039Y-64068717D01*
X78740364Y-64065482D01*
X78615619Y-64024951D01*
X78457216Y-63999862D01*
X78404416Y-63991500D01*
X78190584Y-63991500D01*
X78120184Y-64002650D01*
X77979382Y-64024951D01*
X77776019Y-64091026D01*
X77776016Y-64091027D01*
X77585490Y-64188106D01*
X77412493Y-64313796D01*
X77261296Y-64464993D01*
X77135606Y-64637990D01*
X77038527Y-64828516D01*
X77038526Y-64828519D01*
X76972451Y-65031882D01*
X76939000Y-65243084D01*
X76939000Y-65756915D01*
X76972451Y-65968117D01*
X77038526Y-66171480D01*
X77038527Y-66171483D01*
X77102837Y-66297697D01*
X77135606Y-66362009D01*
X77261294Y-66535004D01*
X77412496Y-66686206D01*
X77585491Y-66811894D01*
X77652828Y-66846204D01*
X77776016Y-66908972D01*
X77776019Y-66908973D01*
X77877700Y-66942010D01*
X77979384Y-66975049D01*
X78190584Y-67008500D01*
X78190585Y-67008500D01*
X78404415Y-67008500D01*
X78404416Y-67008500D01*
X78615616Y-66975049D01*
X78818983Y-66908972D01*
X79009509Y-66811894D01*
X79182504Y-66686206D01*
X79333706Y-66535004D01*
X79459394Y-66362009D01*
X79556472Y-66171483D01*
X79622549Y-65968116D01*
X79656000Y-65756916D01*
X79656000Y-65243084D01*
X79637760Y-65127926D01*
X79646714Y-65058636D01*
X79672549Y-65020853D01*
X80992071Y-63701333D01*
X81061400Y-63597575D01*
X81109155Y-63482285D01*
X81133500Y-63359894D01*
X81133500Y-63235107D01*
X81133500Y-62170017D01*
X81153185Y-62102978D01*
X81205989Y-62057223D01*
X81275147Y-62047279D01*
X81338703Y-62076304D01*
X81376477Y-62135082D01*
X81379117Y-62145826D01*
X81390843Y-62204777D01*
X81390845Y-62204785D01*
X81438598Y-62320072D01*
X81438603Y-62320081D01*
X81507928Y-62423832D01*
X81507931Y-62423836D01*
X82055758Y-62971662D01*
X82089243Y-63032985D01*
X82091122Y-63068008D01*
X82091678Y-63068038D01*
X82091500Y-63071363D01*
X82091500Y-64368654D01*
X82098011Y-64429202D01*
X82098011Y-64429204D01*
X82149111Y-64566204D01*
X82236739Y-64683261D01*
X82301283Y-64731578D01*
X82340229Y-64760733D01*
X82382100Y-64816667D01*
X82387084Y-64886359D01*
X82353599Y-64947682D01*
X82340229Y-64959267D01*
X82236739Y-65036739D01*
X82149111Y-65153795D01*
X82098011Y-65290795D01*
X82098011Y-65290797D01*
X82091500Y-65351345D01*
X82091500Y-66648654D01*
X82098011Y-66709202D01*
X82098011Y-66709204D01*
X82136314Y-66811894D01*
X82149111Y-66846204D01*
X82236739Y-66963261D01*
X82326314Y-67030316D01*
X82340229Y-67040733D01*
X82382100Y-67096667D01*
X82387084Y-67166359D01*
X82353599Y-67227682D01*
X82340229Y-67239267D01*
X82236739Y-67316739D01*
X82149111Y-67433795D01*
X82098011Y-67570795D01*
X82098011Y-67570797D01*
X82091500Y-67631345D01*
X82091500Y-68928654D01*
X82098011Y-68989202D01*
X82098011Y-68989204D01*
X82149111Y-69126204D01*
X82236739Y-69243261D01*
X82353796Y-69330889D01*
X82490799Y-69381989D01*
X82518050Y-69384918D01*
X82551345Y-69388499D01*
X82551362Y-69388500D01*
X82916233Y-69388500D01*
X82983272Y-69408185D01*
X83029027Y-69460989D01*
X83038971Y-69530147D01*
X83009946Y-69593703D01*
X83003914Y-69600181D01*
X79068862Y-73535232D01*
X79007539Y-73568717D01*
X78942864Y-73565482D01*
X78818119Y-73524951D01*
X78659716Y-73499862D01*
X78606916Y-73491500D01*
X78393084Y-73491500D01*
X78350844Y-73498190D01*
X78181880Y-73524951D01*
X78057135Y-73565483D01*
X77987294Y-73567478D01*
X77931137Y-73535233D01*
X77578836Y-73182931D01*
X77578832Y-73182928D01*
X77475081Y-73113603D01*
X77475072Y-73113598D01*
X77359785Y-73065845D01*
X77359777Y-73065843D01*
X77237398Y-73041500D01*
X77237394Y-73041500D01*
X72436366Y-73041500D01*
X72369327Y-73021815D01*
X72323572Y-72969011D01*
X72313628Y-72899853D01*
X72342653Y-72836297D01*
X72348685Y-72829819D01*
X72992068Y-72186436D01*
X72992071Y-72186433D01*
X73061400Y-72082675D01*
X73109155Y-71967385D01*
X73133500Y-71844994D01*
X73133500Y-71720206D01*
X73133500Y-61257500D01*
X73153185Y-61190461D01*
X73205989Y-61144706D01*
X73257500Y-61133500D01*
X73562395Y-61133500D01*
X73562396Y-61133499D01*
X73684785Y-61109155D01*
X73800075Y-61061400D01*
X73903833Y-60992071D01*
X77931138Y-56964764D01*
X77992459Y-56931281D01*
X78057135Y-56934516D01*
X78079421Y-56941757D01*
X78181884Y-56975049D01*
X78393084Y-57008500D01*
X78393085Y-57008500D01*
X78606915Y-57008500D01*
X78606916Y-57008500D01*
X78818116Y-56975049D01*
X79021483Y-56908972D01*
X79212009Y-56811894D01*
X79385004Y-56686206D01*
X79536206Y-56535004D01*
X79642182Y-56389139D01*
X79697512Y-56346475D01*
X79767125Y-56340496D01*
X79828920Y-56373102D01*
G37*
%TD.AperFunction*%
%TA.AperFunction,Conductor*%
G36*
X90002702Y-50000617D02*
G01*
X90351403Y-50015842D01*
X90357416Y-50016252D01*
X90437243Y-50023649D01*
X90441945Y-50024176D01*
X90747394Y-50064389D01*
X90753976Y-50065436D01*
X90828061Y-50079285D01*
X90831974Y-50080084D01*
X91138399Y-50148017D01*
X91145409Y-50149790D01*
X91209105Y-50167913D01*
X91212373Y-50168892D01*
X91520984Y-50266197D01*
X91528454Y-50268820D01*
X91575700Y-50287123D01*
X91578331Y-50288177D01*
X91892033Y-50418117D01*
X91899802Y-50421655D01*
X91918871Y-50431150D01*
X91921268Y-50432344D01*
X91923249Y-50433353D01*
X92244942Y-50600815D01*
X92254310Y-50606223D01*
X92576239Y-50811314D01*
X92585098Y-50817517D01*
X92887942Y-51049898D01*
X92896222Y-51056847D01*
X93177635Y-51314715D01*
X93185284Y-51322364D01*
X93436178Y-51596167D01*
X93443152Y-51603777D01*
X93450103Y-51612059D01*
X93561825Y-51757658D01*
X93682480Y-51914898D01*
X93688685Y-51923760D01*
X93893770Y-52245680D01*
X93899178Y-52255048D01*
X94066667Y-52576793D01*
X94067676Y-52578774D01*
X94078331Y-52600170D01*
X94081894Y-52607994D01*
X94211810Y-52921641D01*
X94212875Y-52924298D01*
X94231174Y-52971532D01*
X94233809Y-52979039D01*
X94331093Y-53287584D01*
X94332098Y-53290937D01*
X94350197Y-53354546D01*
X94351992Y-53361643D01*
X94419899Y-53667953D01*
X94420727Y-53672008D01*
X94434560Y-53746014D01*
X94435610Y-53752612D01*
X94475819Y-54058032D01*
X94476351Y-54062776D01*
X94483745Y-54142573D01*
X94484156Y-54148605D01*
X94499382Y-54497297D01*
X94499500Y-54502706D01*
X94499500Y-82997293D01*
X94499382Y-83002702D01*
X94484156Y-83351393D01*
X94483745Y-83357425D01*
X94476351Y-83437222D01*
X94475819Y-83441966D01*
X94435610Y-83747386D01*
X94434560Y-83753984D01*
X94420727Y-83827990D01*
X94419899Y-83832045D01*
X94351992Y-84138355D01*
X94350197Y-84145452D01*
X94332098Y-84209061D01*
X94331093Y-84212414D01*
X94233809Y-84520959D01*
X94231174Y-84528466D01*
X94212875Y-84575700D01*
X94211810Y-84578357D01*
X94081894Y-84892004D01*
X94078332Y-84899826D01*
X94067666Y-84921245D01*
X94066656Y-84923228D01*
X93899181Y-85244946D01*
X93893773Y-85254314D01*
X93688685Y-85576239D01*
X93682480Y-85585101D01*
X93450106Y-85887936D01*
X93443152Y-85896222D01*
X93185284Y-86177635D01*
X93177635Y-86185284D01*
X92896222Y-86443152D01*
X92887936Y-86450106D01*
X92585101Y-86682480D01*
X92576239Y-86688685D01*
X92254314Y-86893773D01*
X92244946Y-86899181D01*
X91923228Y-87066656D01*
X91921245Y-87067666D01*
X91899826Y-87078332D01*
X91892004Y-87081894D01*
X91578357Y-87211810D01*
X91575700Y-87212875D01*
X91528466Y-87231174D01*
X91520959Y-87233809D01*
X91212414Y-87331093D01*
X91209061Y-87332098D01*
X91145452Y-87350197D01*
X91138355Y-87351992D01*
X90832045Y-87419899D01*
X90827990Y-87420727D01*
X90753984Y-87434560D01*
X90747386Y-87435610D01*
X90441966Y-87475819D01*
X90437222Y-87476351D01*
X90357425Y-87483745D01*
X90351393Y-87484156D01*
X90002702Y-87499382D01*
X89997293Y-87499500D01*
X70502707Y-87499500D01*
X70497298Y-87499382D01*
X70148605Y-87484156D01*
X70142573Y-87483745D01*
X70062776Y-87476351D01*
X70058032Y-87475819D01*
X69752612Y-87435610D01*
X69746014Y-87434560D01*
X69672008Y-87420727D01*
X69667953Y-87419899D01*
X69361643Y-87351992D01*
X69354546Y-87350197D01*
X69290937Y-87332098D01*
X69287584Y-87331093D01*
X68979039Y-87233809D01*
X68971532Y-87231174D01*
X68924298Y-87212875D01*
X68921641Y-87211810D01*
X68607994Y-87081894D01*
X68600170Y-87078331D01*
X68578774Y-87067676D01*
X68576793Y-87066667D01*
X68255048Y-86899178D01*
X68245680Y-86893770D01*
X67923760Y-86688685D01*
X67914898Y-86682480D01*
X67612063Y-86450106D01*
X67603777Y-86443152D01*
X67322364Y-86185284D01*
X67314715Y-86177635D01*
X67191703Y-86043391D01*
X67056842Y-85896216D01*
X67049893Y-85887936D01*
X66817519Y-85585101D01*
X66811314Y-85576239D01*
X66606223Y-85254310D01*
X66600815Y-85244942D01*
X66433353Y-84923249D01*
X66432344Y-84921268D01*
X66431150Y-84918871D01*
X66421655Y-84899802D01*
X66418117Y-84892033D01*
X66379103Y-84797844D01*
X68600000Y-84797844D01*
X68606401Y-84857372D01*
X68606403Y-84857379D01*
X68656645Y-84992086D01*
X68656649Y-84992093D01*
X68742809Y-85107187D01*
X68742812Y-85107190D01*
X68857906Y-85193350D01*
X68857913Y-85193354D01*
X68992620Y-85243596D01*
X68992627Y-85243598D01*
X69052155Y-85249999D01*
X69052172Y-85250000D01*
X69750000Y-85250000D01*
X70250000Y-85250000D01*
X70947828Y-85250000D01*
X70947844Y-85249999D01*
X71007372Y-85243598D01*
X71007379Y-85243596D01*
X71142086Y-85193354D01*
X71142093Y-85193350D01*
X71257187Y-85107190D01*
X71257190Y-85107187D01*
X71343350Y-84992093D01*
X71343354Y-84992086D01*
X71393596Y-84857379D01*
X71393598Y-84857372D01*
X71399999Y-84797844D01*
X71400000Y-84797827D01*
X71400000Y-83750000D01*
X70250000Y-83750000D01*
X70250000Y-85250000D01*
X69750000Y-85250000D01*
X69750000Y-83750000D01*
X68600000Y-83750000D01*
X68600000Y-84797844D01*
X66379103Y-84797844D01*
X66288177Y-84578331D01*
X66287123Y-84575700D01*
X66268824Y-84528466D01*
X66266197Y-84520984D01*
X66168892Y-84212373D01*
X66167913Y-84209105D01*
X66149790Y-84145409D01*
X66148017Y-84138399D01*
X66080084Y-83831974D01*
X66079285Y-83828061D01*
X66065436Y-83753976D01*
X66064388Y-83747386D01*
X66060101Y-83714823D01*
X66058938Y-83705989D01*
X66024176Y-83441945D01*
X66023647Y-83437222D01*
X66023453Y-83435132D01*
X66016252Y-83357419D01*
X66015842Y-83351394D01*
X66014573Y-83322338D01*
X66000618Y-83002702D01*
X66000500Y-82997293D01*
X66000500Y-82202155D01*
X68600000Y-82202155D01*
X68600000Y-83250000D01*
X69750000Y-83250000D01*
X69750000Y-81750000D01*
X69052155Y-81750000D01*
X68992627Y-81756401D01*
X68992620Y-81756403D01*
X68857913Y-81806645D01*
X68857906Y-81806649D01*
X68742812Y-81892809D01*
X68742809Y-81892812D01*
X68656649Y-82007906D01*
X68656645Y-82007913D01*
X68606403Y-82142620D01*
X68606401Y-82142627D01*
X68600000Y-82202155D01*
X66000500Y-82202155D01*
X66000500Y-73410516D01*
X66591500Y-73410516D01*
X66591500Y-73589483D01*
X66626411Y-73764992D01*
X66626413Y-73765000D01*
X66694896Y-73930332D01*
X66694901Y-73930342D01*
X66794321Y-74079134D01*
X66794324Y-74079138D01*
X66920861Y-74205675D01*
X66920865Y-74205678D01*
X67069657Y-74305098D01*
X67069661Y-74305100D01*
X67069664Y-74305102D01*
X67235000Y-74373587D01*
X67410516Y-74408499D01*
X67410520Y-74408500D01*
X67410521Y-74408500D01*
X67589480Y-74408500D01*
X67589481Y-74408499D01*
X67765000Y-74373587D01*
X67930336Y-74305102D01*
X68079135Y-74205678D01*
X68114993Y-74169820D01*
X68176315Y-74136334D01*
X68202675Y-74133500D01*
X69242500Y-74133500D01*
X69309539Y-74153185D01*
X69355294Y-74205989D01*
X69366500Y-74257500D01*
X69366500Y-77617500D01*
X69346815Y-77684539D01*
X69294011Y-77730294D01*
X69242500Y-77741500D01*
X69051345Y-77741500D01*
X68990797Y-77748011D01*
X68990795Y-77748011D01*
X68853795Y-77799111D01*
X68736739Y-77886739D01*
X68649111Y-78003795D01*
X68598011Y-78140795D01*
X68598011Y-78140797D01*
X68591500Y-78201345D01*
X68591500Y-80798654D01*
X68598011Y-80859202D01*
X68598011Y-80859204D01*
X68646877Y-80990214D01*
X68649111Y-80996204D01*
X68736739Y-81113261D01*
X68853796Y-81200889D01*
X68990799Y-81251989D01*
X69018050Y-81254918D01*
X69051345Y-81258499D01*
X69051362Y-81258500D01*
X70811234Y-81258500D01*
X70878273Y-81278185D01*
X70898915Y-81294819D01*
X71167487Y-81563391D01*
X71200972Y-81624714D01*
X71195988Y-81694406D01*
X71154116Y-81750339D01*
X71088652Y-81774756D01*
X71036474Y-81767254D01*
X71007382Y-81756403D01*
X71007372Y-81756401D01*
X70947844Y-81750000D01*
X70250000Y-81750000D01*
X70250000Y-83250000D01*
X71400000Y-83250000D01*
X71400000Y-82202172D01*
X71399999Y-82202155D01*
X71393598Y-82142627D01*
X71393597Y-82142623D01*
X71382745Y-82113527D01*
X71377761Y-82043835D01*
X71411245Y-81982512D01*
X71472568Y-81949027D01*
X71542260Y-81954011D01*
X71586608Y-81982512D01*
X73007929Y-83403833D01*
X73096167Y-83492071D01*
X73096168Y-83492072D01*
X73199918Y-83561396D01*
X73199924Y-83561399D01*
X73199925Y-83561400D01*
X73315215Y-83609155D01*
X73437601Y-83633499D01*
X73437605Y-83633500D01*
X73437606Y-83633500D01*
X73950228Y-83633500D01*
X74017267Y-83653185D01*
X74063022Y-83705989D01*
X74073586Y-83744899D01*
X74077113Y-83779427D01*
X74126608Y-83928795D01*
X74132885Y-83947738D01*
X74225970Y-84098652D01*
X74351348Y-84224030D01*
X74502262Y-84317115D01*
X74670574Y-84372887D01*
X74774455Y-84383500D01*
X75625544Y-84383499D01*
X75729426Y-84372887D01*
X75897738Y-84317115D01*
X76048652Y-84224030D01*
X76174030Y-84098652D01*
X76217414Y-84028314D01*
X76269360Y-83981591D01*
X76338323Y-83970368D01*
X76402405Y-83998211D01*
X76436986Y-84049889D01*
X76438514Y-84049257D01*
X76488598Y-84170172D01*
X76488603Y-84170181D01*
X76557928Y-84273932D01*
X76557931Y-84273936D01*
X78226063Y-85942068D01*
X78226067Y-85942071D01*
X78329818Y-86011396D01*
X78329824Y-86011399D01*
X78329825Y-86011400D01*
X78445115Y-86059155D01*
X78567501Y-86083499D01*
X78567505Y-86083500D01*
X78567506Y-86083500D01*
X85248791Y-86083500D01*
X85248792Y-86083499D01*
X85371181Y-86059155D01*
X85486471Y-86011400D01*
X85590229Y-85942071D01*
X87851085Y-83681215D01*
X87912408Y-83647730D01*
X87938766Y-83644896D01*
X91550999Y-83644896D01*
X91551000Y-83644895D01*
X91673389Y-83620551D01*
X91788679Y-83572796D01*
X91892437Y-83503467D01*
X93992072Y-81403833D01*
X94061401Y-81300075D01*
X94109155Y-81184784D01*
X94133500Y-81062393D01*
X94133500Y-80937606D01*
X94133500Y-73675293D01*
X94135883Y-73651102D01*
X94158499Y-73537398D01*
X94158500Y-73537395D01*
X94158500Y-61962605D01*
X94158499Y-61962601D01*
X94134156Y-61840222D01*
X94134155Y-61840215D01*
X94086400Y-61724925D01*
X94086399Y-61724924D01*
X94086396Y-61724918D01*
X94017072Y-61621168D01*
X93981871Y-61585967D01*
X93928833Y-61532929D01*
X93830903Y-61434999D01*
X93403836Y-61007931D01*
X93403832Y-61007928D01*
X93300081Y-60938603D01*
X93300072Y-60938598D01*
X93184785Y-60890845D01*
X93184777Y-60890843D01*
X93062398Y-60866500D01*
X93062394Y-60866500D01*
X85982394Y-60866500D01*
X85857606Y-60866500D01*
X85857601Y-60866500D01*
X85735222Y-60890843D01*
X85735214Y-60890845D01*
X85619927Y-60938598D01*
X85619918Y-60938603D01*
X85516167Y-61007928D01*
X85516163Y-61007931D01*
X83948915Y-62575181D01*
X83887592Y-62608666D01*
X83861234Y-62611500D01*
X83538766Y-62611500D01*
X83471727Y-62591815D01*
X83451085Y-62575181D01*
X82669819Y-61793915D01*
X82636334Y-61732592D01*
X82633500Y-61706234D01*
X82633500Y-54724447D01*
X83889000Y-54724447D01*
X83889000Y-56275537D01*
X83889001Y-56275553D01*
X83899613Y-56379427D01*
X83907897Y-56404426D01*
X83955385Y-56547738D01*
X84048470Y-56698652D01*
X84173848Y-56824030D01*
X84324762Y-56917115D01*
X84493074Y-56972887D01*
X84596955Y-56983500D01*
X85898044Y-56983499D01*
X86001926Y-56972887D01*
X86170238Y-56917115D01*
X86321152Y-56824030D01*
X86446530Y-56698652D01*
X86539615Y-56547738D01*
X86539616Y-56547733D01*
X86541762Y-56544255D01*
X86593710Y-56497530D01*
X86662672Y-56486307D01*
X86726754Y-56514150D01*
X86734982Y-56521670D01*
X86868035Y-56654723D01*
X86868040Y-56654727D01*
X87039942Y-56779620D01*
X87229282Y-56876095D01*
X87431371Y-56941757D01*
X87497500Y-56952231D01*
X87497500Y-55904145D01*
X87564157Y-55942630D01*
X87684965Y-55975000D01*
X87810035Y-55975000D01*
X87930843Y-55942630D01*
X87997500Y-55904145D01*
X87997500Y-56952230D01*
X88063626Y-56941757D01*
X88063629Y-56941757D01*
X88265717Y-56876095D01*
X88455057Y-56779620D01*
X88626959Y-56654727D01*
X88626964Y-56654723D01*
X88777223Y-56504464D01*
X88777227Y-56504459D01*
X88891928Y-56346587D01*
X88947257Y-56303921D01*
X89016871Y-56297942D01*
X89078666Y-56330547D01*
X89092564Y-56346586D01*
X89211294Y-56510004D01*
X89362496Y-56661206D01*
X89535491Y-56786894D01*
X89628938Y-56834507D01*
X89726016Y-56883972D01*
X89726019Y-56883973D01*
X89827700Y-56917010D01*
X89929384Y-56950049D01*
X90140584Y-56983500D01*
X90140585Y-56983500D01*
X90354415Y-56983500D01*
X90354416Y-56983500D01*
X90565616Y-56950049D01*
X90768983Y-56883972D01*
X90959509Y-56786894D01*
X91132504Y-56661206D01*
X91283706Y-56510004D01*
X91409394Y-56337009D01*
X91506472Y-56146483D01*
X91572549Y-55943116D01*
X91606000Y-55731916D01*
X91606000Y-55268084D01*
X91572549Y-55056884D01*
X91509716Y-54863500D01*
X91506473Y-54853519D01*
X91506472Y-54853516D01*
X91440712Y-54724456D01*
X91409394Y-54662991D01*
X91283706Y-54489996D01*
X91132504Y-54338794D01*
X90959509Y-54213106D01*
X90886626Y-54175970D01*
X90768983Y-54116027D01*
X90768980Y-54116026D01*
X90565617Y-54049951D01*
X90407773Y-54024951D01*
X90354416Y-54016500D01*
X90140584Y-54016500D01*
X90087227Y-54024951D01*
X89929382Y-54049951D01*
X89726019Y-54116026D01*
X89726016Y-54116027D01*
X89535490Y-54213106D01*
X89362493Y-54338796D01*
X89211296Y-54489993D01*
X89211296Y-54489994D01*
X89211294Y-54489996D01*
X89163506Y-54555769D01*
X89092564Y-54653413D01*
X89037234Y-54696078D01*
X88967620Y-54702057D01*
X88905825Y-54669451D01*
X88891928Y-54653412D01*
X88777227Y-54495540D01*
X88777223Y-54495535D01*
X88626964Y-54345276D01*
X88626959Y-54345272D01*
X88455057Y-54220379D01*
X88265715Y-54123903D01*
X88063624Y-54058241D01*
X87997500Y-54047768D01*
X87997500Y-55095854D01*
X87930843Y-55057370D01*
X87810035Y-55025000D01*
X87684965Y-55025000D01*
X87564157Y-55057370D01*
X87497500Y-55095854D01*
X87497500Y-54047768D01*
X87497499Y-54047768D01*
X87431375Y-54058241D01*
X87229284Y-54123903D01*
X87039942Y-54220379D01*
X86868041Y-54345271D01*
X86734982Y-54478330D01*
X86673659Y-54511814D01*
X86603967Y-54506830D01*
X86548034Y-54464958D01*
X86541762Y-54455745D01*
X86539616Y-54452266D01*
X86539615Y-54452262D01*
X86446530Y-54301348D01*
X86321152Y-54175970D01*
X86191773Y-54096168D01*
X86170240Y-54082886D01*
X86170235Y-54082884D01*
X86001927Y-54027113D01*
X85898045Y-54016500D01*
X84596962Y-54016500D01*
X84596946Y-54016501D01*
X84493072Y-54027113D01*
X84324764Y-54082884D01*
X84324759Y-54082886D01*
X84173846Y-54175971D01*
X84048471Y-54301346D01*
X83955386Y-54452259D01*
X83955384Y-54452264D01*
X83899613Y-54620572D01*
X83889000Y-54724447D01*
X82633500Y-54724447D01*
X82633500Y-51937605D01*
X82633499Y-51937601D01*
X82609156Y-51815222D01*
X82609155Y-51815215D01*
X82561400Y-51699925D01*
X82561399Y-51699924D01*
X82561396Y-51699918D01*
X82492071Y-51596167D01*
X82492068Y-51596163D01*
X82403836Y-51507931D01*
X82403832Y-51507928D01*
X82300081Y-51438603D01*
X82300072Y-51438598D01*
X82184785Y-51390845D01*
X82184777Y-51390843D01*
X82062398Y-51366500D01*
X82062394Y-51366500D01*
X70839894Y-51366500D01*
X70715106Y-51366500D01*
X70715101Y-51366500D01*
X70592722Y-51390843D01*
X70592714Y-51390845D01*
X70477427Y-51438598D01*
X70477418Y-51438603D01*
X70373667Y-51507928D01*
X70373663Y-51507931D01*
X69521413Y-52360181D01*
X69460090Y-52393666D01*
X69433732Y-52396500D01*
X68846962Y-52396500D01*
X68846946Y-52396501D01*
X68743072Y-52407113D01*
X68574764Y-52462884D01*
X68574759Y-52462886D01*
X68423846Y-52555971D01*
X68298471Y-52681346D01*
X68205386Y-52832259D01*
X68205384Y-52832264D01*
X68149613Y-53000572D01*
X68139000Y-53104447D01*
X68139000Y-54155537D01*
X68139001Y-54155553D01*
X68149613Y-54259427D01*
X68205384Y-54427735D01*
X68205386Y-54427740D01*
X68220513Y-54452264D01*
X68298470Y-54578652D01*
X68423848Y-54704030D01*
X68574762Y-54797115D01*
X68743074Y-54852887D01*
X68846955Y-54863500D01*
X69448044Y-54863499D01*
X69551926Y-54852887D01*
X69720238Y-54797115D01*
X69871152Y-54704030D01*
X69996530Y-54578652D01*
X69996532Y-54578647D01*
X70000232Y-54573970D01*
X70057253Y-54533591D01*
X70127052Y-54530451D01*
X70187468Y-54565545D01*
X70194768Y-54573970D01*
X70198469Y-54578651D01*
X70198470Y-54578652D01*
X70323848Y-54704030D01*
X70355097Y-54723305D01*
X70401821Y-54775252D01*
X70414000Y-54828843D01*
X70414000Y-55441156D01*
X70394315Y-55508195D01*
X70355099Y-55546693D01*
X70323850Y-55565967D01*
X70198470Y-55691347D01*
X70198468Y-55691350D01*
X70198041Y-55692043D01*
X70197623Y-55692418D01*
X70193989Y-55697015D01*
X70193203Y-55696393D01*
X70146091Y-55738764D01*
X70077127Y-55749983D01*
X70013047Y-55722136D01*
X69995239Y-55701578D01*
X69994298Y-55702323D01*
X69989816Y-55696655D01*
X69865845Y-55572684D01*
X69716624Y-55480643D01*
X69716619Y-55480641D01*
X69550197Y-55425494D01*
X69550190Y-55425493D01*
X69447486Y-55415000D01*
X69397500Y-55415000D01*
X69397500Y-57864999D01*
X69447472Y-57864999D01*
X69447486Y-57864998D01*
X69550197Y-57854505D01*
X69716619Y-57799358D01*
X69716624Y-57799356D01*
X69865845Y-57707315D01*
X69989816Y-57583344D01*
X69994298Y-57577677D01*
X69996491Y-57579411D01*
X70038857Y-57541265D01*
X70107814Y-57530008D01*
X70171910Y-57557818D01*
X70193834Y-57583106D01*
X70193989Y-57582985D01*
X70196683Y-57586392D01*
X70198045Y-57587963D01*
X70198470Y-57588652D01*
X70323848Y-57714030D01*
X70355097Y-57733305D01*
X70401821Y-57785252D01*
X70414000Y-57838843D01*
X70414000Y-58451156D01*
X70394315Y-58518195D01*
X70355099Y-58556693D01*
X70323850Y-58575967D01*
X70198470Y-58701347D01*
X70198468Y-58701350D01*
X70198041Y-58702043D01*
X70197623Y-58702418D01*
X70193989Y-58707015D01*
X70193203Y-58706393D01*
X70146091Y-58748764D01*
X70077127Y-58759983D01*
X70013047Y-58732136D01*
X69995239Y-58711578D01*
X69994298Y-58712323D01*
X69989816Y-58706655D01*
X69865845Y-58582684D01*
X69716624Y-58490643D01*
X69716619Y-58490641D01*
X69550197Y-58435494D01*
X69550190Y-58435493D01*
X69447486Y-58425000D01*
X69397500Y-58425000D01*
X69397500Y-60874999D01*
X69447472Y-60874999D01*
X69447486Y-60874998D01*
X69550197Y-60864505D01*
X69716619Y-60809358D01*
X69716624Y-60809356D01*
X69865845Y-60717315D01*
X69989816Y-60593344D01*
X69994298Y-60587677D01*
X69996491Y-60589411D01*
X70038857Y-60551265D01*
X70107814Y-60540008D01*
X70171910Y-60567818D01*
X70193834Y-60593106D01*
X70193989Y-60592985D01*
X70196683Y-60596392D01*
X70198045Y-60597963D01*
X70198470Y-60598652D01*
X70323848Y-60724030D01*
X70355097Y-60743305D01*
X70401821Y-60795252D01*
X70414000Y-60848843D01*
X70414000Y-61461156D01*
X70394315Y-61528195D01*
X70355099Y-61566693D01*
X70323850Y-61585967D01*
X70198470Y-61711347D01*
X70198468Y-61711350D01*
X70198041Y-61712043D01*
X70197623Y-61712418D01*
X70193989Y-61717015D01*
X70193203Y-61716393D01*
X70146091Y-61758764D01*
X70077127Y-61769983D01*
X70013047Y-61742136D01*
X69995239Y-61721578D01*
X69994298Y-61722323D01*
X69989816Y-61716655D01*
X69865845Y-61592684D01*
X69716624Y-61500643D01*
X69716619Y-61500641D01*
X69550197Y-61445494D01*
X69550190Y-61445493D01*
X69447486Y-61435000D01*
X69397500Y-61435000D01*
X69397500Y-63884999D01*
X69447472Y-63884999D01*
X69447486Y-63884998D01*
X69550197Y-63874505D01*
X69716619Y-63819358D01*
X69716624Y-63819356D01*
X69865845Y-63727315D01*
X69989816Y-63603344D01*
X69994298Y-63597677D01*
X69996491Y-63599411D01*
X70038857Y-63561265D01*
X70107814Y-63550008D01*
X70171910Y-63577818D01*
X70193834Y-63603106D01*
X70193989Y-63602985D01*
X70196683Y-63606392D01*
X70198045Y-63607963D01*
X70198470Y-63608652D01*
X70323848Y-63734030D01*
X70355097Y-63753305D01*
X70401821Y-63805252D01*
X70414000Y-63858843D01*
X70414000Y-64471156D01*
X70394315Y-64538195D01*
X70355099Y-64576693D01*
X70323850Y-64595967D01*
X70198470Y-64721347D01*
X70198468Y-64721350D01*
X70198041Y-64722043D01*
X70197623Y-64722418D01*
X70193989Y-64727015D01*
X70193203Y-64726393D01*
X70146091Y-64768764D01*
X70077127Y-64779983D01*
X70013047Y-64752136D01*
X69995239Y-64731578D01*
X69994298Y-64732323D01*
X69989816Y-64726655D01*
X69865845Y-64602684D01*
X69716624Y-64510643D01*
X69716619Y-64510641D01*
X69550197Y-64455494D01*
X69550190Y-64455493D01*
X69447486Y-64445000D01*
X69397500Y-64445000D01*
X69397500Y-66894999D01*
X69447472Y-66894999D01*
X69447486Y-66894998D01*
X69550197Y-66884505D01*
X69716619Y-66829358D01*
X69716624Y-66829356D01*
X69865845Y-66737315D01*
X69989816Y-66613344D01*
X69994298Y-66607677D01*
X69996491Y-66609411D01*
X70038857Y-66571265D01*
X70107814Y-66560008D01*
X70171910Y-66587818D01*
X70193834Y-66613106D01*
X70193989Y-66612985D01*
X70196683Y-66616392D01*
X70198045Y-66617963D01*
X70198470Y-66618652D01*
X70323848Y-66744030D01*
X70355097Y-66763305D01*
X70401821Y-66815252D01*
X70414000Y-66868843D01*
X70414000Y-67481156D01*
X70394315Y-67548195D01*
X70355099Y-67586693D01*
X70323850Y-67605967D01*
X70198470Y-67731347D01*
X70198468Y-67731350D01*
X70198041Y-67732043D01*
X70197623Y-67732418D01*
X70193989Y-67737015D01*
X70193203Y-67736393D01*
X70146091Y-67778764D01*
X70077127Y-67789983D01*
X70013047Y-67762136D01*
X69995239Y-67741578D01*
X69994298Y-67742323D01*
X69989816Y-67736655D01*
X69865845Y-67612684D01*
X69716624Y-67520643D01*
X69716619Y-67520641D01*
X69550197Y-67465494D01*
X69550190Y-67465493D01*
X69447486Y-67455000D01*
X69397500Y-67455000D01*
X69397500Y-69904999D01*
X69447472Y-69904999D01*
X69447486Y-69904998D01*
X69550197Y-69894505D01*
X69716619Y-69839358D01*
X69716624Y-69839356D01*
X69865845Y-69747315D01*
X69989816Y-69623344D01*
X69994298Y-69617677D01*
X69996491Y-69619411D01*
X70038857Y-69581265D01*
X70107814Y-69570008D01*
X70171910Y-69597818D01*
X70193834Y-69623106D01*
X70193989Y-69622985D01*
X70196683Y-69626392D01*
X70198045Y-69627963D01*
X70198470Y-69628652D01*
X70323848Y-69754030D01*
X70355097Y-69773305D01*
X70401821Y-69825252D01*
X70414000Y-69878843D01*
X70414000Y-70491156D01*
X70394315Y-70558195D01*
X70355099Y-70596693D01*
X70323850Y-70615967D01*
X70198470Y-70741347D01*
X70198468Y-70741350D01*
X70198041Y-70742043D01*
X70197623Y-70742418D01*
X70193989Y-70747015D01*
X70193203Y-70746393D01*
X70146091Y-70788764D01*
X70077127Y-70799983D01*
X70013047Y-70772136D01*
X69995239Y-70751578D01*
X69994298Y-70752323D01*
X69989816Y-70746655D01*
X69865845Y-70622684D01*
X69716624Y-70530643D01*
X69716619Y-70530641D01*
X69550197Y-70475494D01*
X69550190Y-70475493D01*
X69447486Y-70465000D01*
X69397500Y-70465000D01*
X69397500Y-71566000D01*
X69377815Y-71633039D01*
X69325011Y-71678794D01*
X69273500Y-71690000D01*
X69147500Y-71690000D01*
X69147500Y-71816000D01*
X69127815Y-71883039D01*
X69075011Y-71928794D01*
X69023500Y-71940000D01*
X68147501Y-71940000D01*
X68147501Y-72214986D01*
X68157994Y-72317697D01*
X68213141Y-72484119D01*
X68213143Y-72484124D01*
X68305184Y-72633345D01*
X68326658Y-72654819D01*
X68337270Y-72674255D01*
X68351771Y-72690989D01*
X68353687Y-72704320D01*
X68360143Y-72716142D01*
X68358563Y-72738228D01*
X68361715Y-72760147D01*
X68356119Y-72772398D01*
X68355159Y-72785834D01*
X68341888Y-72803560D01*
X68332690Y-72823703D01*
X68321358Y-72830985D01*
X68313287Y-72841767D01*
X68292541Y-72849504D01*
X68273912Y-72861477D01*
X68251993Y-72864628D01*
X68247823Y-72866184D01*
X68238977Y-72866500D01*
X68202675Y-72866500D01*
X68135636Y-72846815D01*
X68114993Y-72830180D01*
X68079138Y-72794324D01*
X68079134Y-72794321D01*
X67930342Y-72694901D01*
X67930332Y-72694896D01*
X67765000Y-72626413D01*
X67764992Y-72626411D01*
X67589483Y-72591500D01*
X67589479Y-72591500D01*
X67410521Y-72591500D01*
X67410516Y-72591500D01*
X67235007Y-72626411D01*
X67234999Y-72626413D01*
X67069667Y-72694896D01*
X67069657Y-72694901D01*
X66920865Y-72794321D01*
X66920861Y-72794324D01*
X66794324Y-72920861D01*
X66794321Y-72920865D01*
X66694901Y-73069657D01*
X66694896Y-73069667D01*
X66626413Y-73234999D01*
X66626411Y-73235007D01*
X66591500Y-73410516D01*
X66000500Y-73410516D01*
X66000500Y-71165013D01*
X68147500Y-71165013D01*
X68147500Y-71440000D01*
X68897500Y-71440000D01*
X68897500Y-70465000D01*
X68897499Y-70464999D01*
X68847529Y-70465000D01*
X68847511Y-70465001D01*
X68744802Y-70475494D01*
X68578380Y-70530641D01*
X68578375Y-70530643D01*
X68429154Y-70622684D01*
X68305184Y-70746654D01*
X68213143Y-70895875D01*
X68213141Y-70895880D01*
X68157994Y-71062302D01*
X68157993Y-71062309D01*
X68147500Y-71165013D01*
X66000500Y-71165013D01*
X66000500Y-69204986D01*
X68147501Y-69204986D01*
X68157994Y-69307697D01*
X68213141Y-69474119D01*
X68213143Y-69474124D01*
X68305184Y-69623345D01*
X68429154Y-69747315D01*
X68578375Y-69839356D01*
X68578380Y-69839358D01*
X68744802Y-69894505D01*
X68744809Y-69894506D01*
X68847519Y-69904999D01*
X68897499Y-69904998D01*
X68897500Y-69904998D01*
X68897500Y-68930000D01*
X68147501Y-68930000D01*
X68147501Y-69204986D01*
X66000500Y-69204986D01*
X66000500Y-68155013D01*
X68147500Y-68155013D01*
X68147500Y-68430000D01*
X68897500Y-68430000D01*
X68897500Y-67455000D01*
X68897499Y-67454999D01*
X68847529Y-67455000D01*
X68847511Y-67455001D01*
X68744802Y-67465494D01*
X68578380Y-67520641D01*
X68578375Y-67520643D01*
X68429154Y-67612684D01*
X68305184Y-67736654D01*
X68213143Y-67885875D01*
X68213141Y-67885880D01*
X68157994Y-68052302D01*
X68157993Y-68052309D01*
X68147500Y-68155013D01*
X66000500Y-68155013D01*
X66000500Y-66194986D01*
X68147501Y-66194986D01*
X68157994Y-66297697D01*
X68213141Y-66464119D01*
X68213143Y-66464124D01*
X68305184Y-66613345D01*
X68429154Y-66737315D01*
X68578375Y-66829356D01*
X68578380Y-66829358D01*
X68744802Y-66884505D01*
X68744809Y-66884506D01*
X68847519Y-66894999D01*
X68897499Y-66894998D01*
X68897500Y-66894998D01*
X68897500Y-65920000D01*
X68147501Y-65920000D01*
X68147501Y-66194986D01*
X66000500Y-66194986D01*
X66000500Y-65145013D01*
X68147500Y-65145013D01*
X68147500Y-65420000D01*
X68897500Y-65420000D01*
X68897500Y-64445000D01*
X68897499Y-64444999D01*
X68847529Y-64445000D01*
X68847511Y-64445001D01*
X68744802Y-64455494D01*
X68578380Y-64510641D01*
X68578375Y-64510643D01*
X68429154Y-64602684D01*
X68305184Y-64726654D01*
X68213143Y-64875875D01*
X68213141Y-64875880D01*
X68157994Y-65042302D01*
X68157993Y-65042309D01*
X68147500Y-65145013D01*
X66000500Y-65145013D01*
X66000500Y-63184986D01*
X68147501Y-63184986D01*
X68157994Y-63287697D01*
X68213141Y-63454119D01*
X68213143Y-63454124D01*
X68305184Y-63603345D01*
X68429154Y-63727315D01*
X68578375Y-63819356D01*
X68578380Y-63819358D01*
X68744802Y-63874505D01*
X68744809Y-63874506D01*
X68847519Y-63884999D01*
X68897499Y-63884998D01*
X68897500Y-63884998D01*
X68897500Y-62910000D01*
X68147501Y-62910000D01*
X68147501Y-63184986D01*
X66000500Y-63184986D01*
X66000500Y-62135013D01*
X68147500Y-62135013D01*
X68147500Y-62410000D01*
X68897500Y-62410000D01*
X68897500Y-61435000D01*
X68897499Y-61434999D01*
X68847529Y-61435000D01*
X68847511Y-61435001D01*
X68744802Y-61445494D01*
X68578380Y-61500641D01*
X68578375Y-61500643D01*
X68429154Y-61592684D01*
X68305184Y-61716654D01*
X68213143Y-61865875D01*
X68213141Y-61865880D01*
X68157994Y-62032302D01*
X68157993Y-62032309D01*
X68147500Y-62135013D01*
X66000500Y-62135013D01*
X66000500Y-60174986D01*
X68147501Y-60174986D01*
X68157994Y-60277697D01*
X68213141Y-60444119D01*
X68213143Y-60444124D01*
X68305184Y-60593345D01*
X68429154Y-60717315D01*
X68578375Y-60809356D01*
X68578380Y-60809358D01*
X68744802Y-60864505D01*
X68744809Y-60864506D01*
X68847519Y-60874999D01*
X68897499Y-60874998D01*
X68897500Y-60874998D01*
X68897500Y-59900000D01*
X68147501Y-59900000D01*
X68147501Y-60174986D01*
X66000500Y-60174986D01*
X66000500Y-59125013D01*
X68147500Y-59125013D01*
X68147500Y-59400000D01*
X68897500Y-59400000D01*
X68897500Y-58425000D01*
X68897499Y-58424999D01*
X68847529Y-58425000D01*
X68847511Y-58425001D01*
X68744802Y-58435494D01*
X68578380Y-58490641D01*
X68578375Y-58490643D01*
X68429154Y-58582684D01*
X68305184Y-58706654D01*
X68213143Y-58855875D01*
X68213141Y-58855880D01*
X68157994Y-59022302D01*
X68157993Y-59022309D01*
X68147500Y-59125013D01*
X66000500Y-59125013D01*
X66000500Y-57164986D01*
X68147501Y-57164986D01*
X68157994Y-57267697D01*
X68213141Y-57434119D01*
X68213143Y-57434124D01*
X68305184Y-57583345D01*
X68429154Y-57707315D01*
X68578375Y-57799356D01*
X68578380Y-57799358D01*
X68744802Y-57854505D01*
X68744809Y-57854506D01*
X68847519Y-57864999D01*
X68897499Y-57864998D01*
X68897500Y-57864998D01*
X68897500Y-56890000D01*
X68147501Y-56890000D01*
X68147501Y-57164986D01*
X66000500Y-57164986D01*
X66000500Y-56115013D01*
X68147500Y-56115013D01*
X68147500Y-56390000D01*
X68897500Y-56390000D01*
X68897500Y-55415000D01*
X68897499Y-55414999D01*
X68847529Y-55415000D01*
X68847511Y-55415001D01*
X68744802Y-55425494D01*
X68578380Y-55480641D01*
X68578375Y-55480643D01*
X68429154Y-55572684D01*
X68305184Y-55696654D01*
X68213143Y-55845875D01*
X68213141Y-55845880D01*
X68157994Y-56012302D01*
X68157993Y-56012309D01*
X68147500Y-56115013D01*
X66000500Y-56115013D01*
X66000500Y-54502706D01*
X66000618Y-54497297D01*
X66007255Y-54345276D01*
X66015842Y-54148590D01*
X66016253Y-54142572D01*
X66021784Y-54082884D01*
X66023650Y-54062744D01*
X66024175Y-54058066D01*
X66064390Y-53752593D01*
X66065434Y-53746034D01*
X66079290Y-53671914D01*
X66080079Y-53668048D01*
X66148020Y-53361584D01*
X66149785Y-53354606D01*
X66167924Y-53290854D01*
X66168880Y-53287666D01*
X66266204Y-52978996D01*
X66268812Y-52971564D01*
X66287146Y-52924239D01*
X66288152Y-52921730D01*
X66418126Y-52607944D01*
X66421644Y-52600218D01*
X66432382Y-52578654D01*
X66433331Y-52576793D01*
X66600821Y-52255045D01*
X66606216Y-52245700D01*
X66811323Y-51923746D01*
X66817509Y-51914911D01*
X67049907Y-51612045D01*
X67056832Y-51603794D01*
X67314726Y-51322352D01*
X67322352Y-51314726D01*
X67603794Y-51056832D01*
X67612045Y-51049907D01*
X67914911Y-50817509D01*
X67923746Y-50811323D01*
X68245700Y-50606216D01*
X68255045Y-50600821D01*
X68576828Y-50433312D01*
X68578654Y-50432382D01*
X68600218Y-50421644D01*
X68607944Y-50418126D01*
X68921730Y-50288152D01*
X68924239Y-50287146D01*
X68971564Y-50268812D01*
X68978996Y-50266204D01*
X69287666Y-50168880D01*
X69290854Y-50167924D01*
X69354606Y-50149785D01*
X69361584Y-50148020D01*
X69668048Y-50080079D01*
X69671914Y-50079290D01*
X69746034Y-50065434D01*
X69752593Y-50064390D01*
X70058066Y-50024175D01*
X70062744Y-50023650D01*
X70142588Y-50016251D01*
X70148590Y-50015842D01*
X70497297Y-50000617D01*
X70502706Y-50000500D01*
X89997294Y-50000500D01*
X90002702Y-50000617D01*
G37*
%TD.AperFunction*%
%TD*%
M02*
