%TF.GenerationSoftware,KiCad,Pcbnew,9.0.9*%
%TF.CreationDate,2026-09-25T14:14:34-05:00*%
%TF.ProjectId,Horns_v1.0,486f726e-735f-4763-912e-302e6b696361,0.0*%
%TF.SameCoordinates,Original*%
%TF.FileFunction,Copper,L1,Top*%
%TF.FilePolarity,Positive*%
%FSLAX46Y46*%
G04 Gerber Fmt 4.6, Leading zero omitted, Abs format (unit mm)*
G04 Created by KiCad (PCBNEW 9.0.9) date 2026-09-25 14:14:34*
%MOMM*%
%LPD*%
G01*
G04 APERTURE LIST*
G04 Aperture macros list*
%AMRoundRect*
0 Rectangle with rounded corners*
0 $1 Rounding radius*
0 $2 $3 $4 $5 $6 $7 $8 $9 X,Y pos of 4 corners*
0 Add a 4 corners polygon primitive as box body*
4,1,4,$2,$3,$4,$5,$6,$7,$8,$9,$2,$3,0*
0 Add four circle primitives for the rounded corners*
1,1,$1+$1,$2,$3*
1,1,$1+$1,$4,$5*
1,1,$1+$1,$6,$7*
1,1,$1+$1,$8,$9*
0 Add four rect primitives between the rounded corners*
20,1,$1+$1,$2,$3,$4,$5,0*
20,1,$1+$1,$4,$5,$6,$7,0*
20,1,$1+$1,$6,$7,$8,$9,0*
20,1,$1+$1,$8,$9,$2,$3,0*%
G04 Aperture macros list end*
%TA.AperFunction,SMDPad,CuDef*%
%ADD10RoundRect,0.250001X0.624999X-0.462499X0.624999X0.462499X-0.624999X0.462499X-0.624999X-0.462499X0*%
%TD*%
%TA.AperFunction,ComponentPad*%
%ADD11RoundRect,0.250000X-0.620000X-0.845000X0.620000X-0.845000X0.620000X0.845000X-0.620000X0.845000X0*%
%TD*%
%TA.AperFunction,ComponentPad*%
%ADD12O,1.740000X2.190000*%
%TD*%
%TA.AperFunction,SMDPad,CuDef*%
%ADD13R,2.200000X1.200000*%
%TD*%
%TA.AperFunction,SMDPad,CuDef*%
%ADD14R,6.400000X5.800000*%
%TD*%
%TA.AperFunction,SMDPad,CuDef*%
%ADD15RoundRect,0.237500X-0.300000X-0.237500X0.300000X-0.237500X0.300000X0.237500X-0.300000X0.237500X0*%
%TD*%
%TA.AperFunction,SMDPad,CuDef*%
%ADD16RoundRect,0.250000X-1.500000X-1.000000X1.500000X-1.000000X1.500000X1.000000X-1.500000X1.000000X0*%
%TD*%
%TA.AperFunction,SMDPad,CuDef*%
%ADD17RoundRect,0.237500X-0.250000X-0.237500X0.250000X-0.237500X0.250000X0.237500X-0.250000X0.237500X0*%
%TD*%
%TA.AperFunction,SMDPad,CuDef*%
%ADD18R,2.500000X2.300000*%
%TD*%
%TA.AperFunction,ViaPad*%
%ADD19C,0.800000*%
%TD*%
%TA.AperFunction,Conductor*%
%ADD20C,0.250000*%
%TD*%
G04 APERTURE END LIST*
D10*
%TO.P,F1,1*%
%TO.N,Net-(Q1-S)*%
X137000000Y-68000000D03*
%TO.P,F1,2*%
%TO.N,/Horn_In*%
X137000000Y-65025000D03*
%TD*%
D11*
%TO.P,J1,1,Pin_1*%
%TO.N,GND*%
X147460000Y-80000000D03*
D12*
%TO.P,J1,2,Pin_2*%
%TO.N,+24V*%
X150000000Y-80000000D03*
%TO.P,J1,3,Pin_3*%
%TO.N,GND*%
X152540000Y-80000000D03*
%TD*%
D10*
%TO.P,F2,1*%
%TO.N,/Horn_Ctl*%
X134000000Y-73000000D03*
%TO.P,F2,2*%
%TO.N,Net-(Q1-G)*%
X134000000Y-70025000D03*
%TD*%
D13*
%TO.P,Q1,1,G*%
%TO.N,Net-(Q1-G)*%
X140025000Y-68440000D03*
D14*
%TO.P,Q1,2,D*%
%TO.N,GND*%
X146325000Y-70720000D03*
D13*
%TO.P,Q1,3,S*%
%TO.N,Net-(Q1-S)*%
X140025000Y-73000000D03*
%TD*%
D15*
%TO.P,C7,1*%
%TO.N,+24V*%
X144275000Y-97000000D03*
%TO.P,C7,2*%
%TO.N,GND*%
X146000000Y-97000000D03*
%TD*%
%TO.P,C2,1*%
%TO.N,+24V*%
X129275000Y-89000000D03*
%TO.P,C2,2*%
%TO.N,GND*%
X131000000Y-89000000D03*
%TD*%
D11*
%TO.P,J2,1,Pin_1*%
%TO.N,/Horn_Ctl*%
X143460000Y-90000000D03*
D12*
%TO.P,J2,2,Pin_2*%
%TO.N,GND*%
X146000000Y-90000000D03*
%TD*%
D15*
%TO.P,C4,1*%
%TO.N,+24V*%
X134275000Y-91000000D03*
%TO.P,C4,2*%
%TO.N,GND*%
X136000000Y-91000000D03*
%TD*%
D11*
%TO.P,J3,1,Pin_1*%
%TO.N,Net-(J3-Pin_1)*%
X158460000Y-79000000D03*
D12*
%TO.P,J3,2,Pin_2*%
%TO.N,/Horn_In*%
X161000000Y-79000000D03*
%TD*%
D15*
%TO.P,C6,1*%
%TO.N,+24V*%
X139275000Y-97000000D03*
%TO.P,C6,2*%
%TO.N,GND*%
X141000000Y-97000000D03*
%TD*%
%TO.P,C8,1*%
%TO.N,+24V*%
X150000000Y-97000000D03*
%TO.P,C8,2*%
%TO.N,GND*%
X151725000Y-97000000D03*
%TD*%
%TO.P,C1,1*%
%TO.N,Net-(C1-Pad1)*%
X129275000Y-84000000D03*
%TO.P,C1,2*%
%TO.N,GND*%
X131000000Y-84000000D03*
%TD*%
D16*
%TO.P,C9,1*%
%TO.N,+24V*%
X134750000Y-80000000D03*
%TO.P,C9,2*%
%TO.N,GND*%
X141250000Y-80000000D03*
%TD*%
D11*
%TO.P,J4,1,Pin_1*%
%TO.N,+24V*%
X153460000Y-69000000D03*
D12*
%TO.P,J4,2,Pin_2*%
%TO.N,Net-(J3-Pin_1)*%
X156000000Y-69000000D03*
%TD*%
D15*
%TO.P,C3,1*%
%TO.N,+24V*%
X138275000Y-88000000D03*
%TO.P,C3,2*%
%TO.N,GND*%
X140000000Y-88000000D03*
%TD*%
D17*
%TO.P,R1,1*%
%TO.N,Net-(Q1-G)*%
X129175000Y-79000000D03*
%TO.P,R1,2*%
%TO.N,Net-(C1-Pad1)*%
X131000000Y-79000000D03*
%TD*%
D18*
%TO.P,D1,1,K*%
%TO.N,+24V*%
X158000000Y-88000000D03*
%TO.P,D1,2,A*%
%TO.N,/Horn_In*%
X162300000Y-88000000D03*
%TD*%
D15*
%TO.P,C5,1*%
%TO.N,+24V*%
X134275000Y-97000000D03*
%TO.P,C5,2*%
%TO.N,GND*%
X136000000Y-97000000D03*
%TD*%
D19*
%TO.N,+24V*%
X138000000Y-85000000D03*
X136000000Y-88000000D03*
X138000000Y-87000000D03*
X133000000Y-90000000D03*
%TO.N,Net-(Q1-S)*%
X137000000Y-73000000D03*
X134000000Y-66000000D03*
%TD*%
D20*
%TO.N,GND*%
X151000000Y-99000000D02*
X147000000Y-99000000D01*
X148000000Y-84000000D02*
X147460000Y-83460000D01*
X152540000Y-83460000D02*
X152000000Y-84000000D01*
X136000000Y-90000000D02*
X136000000Y-91000000D01*
X151725000Y-97000000D02*
X151725000Y-98275000D01*
X144000000Y-79000000D02*
X144000000Y-77000000D01*
X146000000Y-98000000D02*
X146000000Y-97000000D01*
X135000000Y-89000000D02*
X136000000Y-90000000D01*
X131000000Y-89000000D02*
X135000000Y-89000000D01*
X131000000Y-89000000D02*
X131000000Y-84000000D01*
X140000000Y-95000000D02*
X136000000Y-95000000D01*
X136000000Y-91000000D02*
X139000000Y-91000000D01*
X146000000Y-80000000D02*
X145000000Y-79000000D01*
X148000000Y-86000000D02*
X148000000Y-84000000D01*
X139000000Y-91000000D02*
X140000000Y-90000000D01*
X141000000Y-96000000D02*
X140000000Y-95000000D01*
X145000000Y-79000000D02*
X144000000Y-79000000D01*
X144000000Y-79000000D02*
X142250000Y-79000000D01*
X147460000Y-83460000D02*
X147460000Y-80000000D01*
X146000000Y-95000000D02*
X146000000Y-97000000D01*
X141000000Y-97000000D02*
X141000000Y-96000000D01*
X141000000Y-96000000D02*
X142000000Y-95000000D01*
X136000000Y-95000000D02*
X136000000Y-97000000D01*
X152000000Y-84000000D02*
X148000000Y-84000000D01*
X144000000Y-77000000D02*
X146325000Y-74675000D01*
X147460000Y-80000000D02*
X146000000Y-80000000D01*
X149000000Y-87000000D02*
X148000000Y-86000000D01*
X146325000Y-74675000D02*
X146325000Y-70720000D01*
X140000000Y-90000000D02*
X140000000Y-88000000D01*
X152540000Y-80000000D02*
X152540000Y-83460000D01*
X147000000Y-99000000D02*
X146000000Y-98000000D01*
X146000000Y-90000000D02*
X146000000Y-95000000D01*
X136000000Y-95000000D02*
X136000000Y-91000000D01*
X146000000Y-90000000D02*
X148000000Y-90000000D01*
X142000000Y-95000000D02*
X146000000Y-95000000D01*
X151725000Y-98275000D02*
X151000000Y-99000000D01*
X148000000Y-90000000D02*
X149000000Y-89000000D01*
X149000000Y-89000000D02*
X149000000Y-87000000D01*
%TO.N,Net-(C1-Pad1)*%
X129275000Y-82725000D02*
X131000000Y-81000000D01*
X131000000Y-81000000D02*
X131000000Y-79000000D01*
X129275000Y-84000000D02*
X129275000Y-82725000D01*
%TO.N,+24V*%
X144275000Y-97000000D02*
X143000000Y-97000000D01*
X150000000Y-95000000D02*
X150000000Y-97000000D01*
X153460000Y-69000000D02*
X151000000Y-69000000D01*
X134275000Y-98275000D02*
X134275000Y-97000000D01*
X138000000Y-97000000D02*
X136000000Y-99000000D01*
X138275000Y-87275000D02*
X138000000Y-87000000D01*
X138275000Y-88000000D02*
X138275000Y-87275000D01*
X152000000Y-93000000D02*
X150000000Y-95000000D01*
X154550000Y-75550000D02*
X154000000Y-75000000D01*
X155000000Y-83000000D02*
X154550000Y-82550000D01*
X144275000Y-98275000D02*
X144275000Y-97000000D01*
X133000000Y-91000000D02*
X130000000Y-91000000D01*
X150000000Y-70000000D02*
X150000000Y-75000000D01*
X156000000Y-90000000D02*
X156000000Y-95000000D01*
X154000000Y-75000000D02*
X150000000Y-75000000D01*
X129275000Y-90275000D02*
X129275000Y-89000000D01*
X149450000Y-87000000D02*
X151450000Y-85000000D01*
X151450000Y-85000000D02*
X153000000Y-85000000D01*
X149450000Y-90450000D02*
X149450000Y-87000000D01*
X154550000Y-82550000D02*
X154550000Y-75550000D01*
X155000000Y-90000000D02*
X156000000Y-90000000D01*
X156000000Y-89000000D02*
X156000000Y-90000000D01*
X151000000Y-69000000D02*
X150000000Y-70000000D01*
X136000000Y-99000000D02*
X135000000Y-99000000D01*
X146000000Y-100000000D02*
X144275000Y-98275000D01*
X143000000Y-97000000D02*
X141000000Y-99000000D01*
X140000000Y-99000000D02*
X139275000Y-98275000D01*
X141000000Y-99000000D02*
X140000000Y-99000000D01*
X138275000Y-88000000D02*
X136000000Y-88000000D01*
X134275000Y-91000000D02*
X133000000Y-91000000D01*
X130000000Y-91000000D02*
X129275000Y-90275000D01*
X152000000Y-93000000D02*
X149450000Y-90450000D01*
X134275000Y-97000000D02*
X134275000Y-91000000D01*
X150000000Y-75000000D02*
X150000000Y-80000000D01*
X138000000Y-81000000D02*
X138000000Y-85000000D01*
X156000000Y-88000000D02*
X156000000Y-89000000D01*
X134750000Y-80000000D02*
X137000000Y-80000000D01*
X139275000Y-97000000D02*
X138000000Y-97000000D01*
X133000000Y-90000000D02*
X133000000Y-91000000D01*
X153000000Y-85000000D02*
X155000000Y-83000000D01*
X139275000Y-98275000D02*
X139275000Y-97000000D01*
X135000000Y-99000000D02*
X134275000Y-98275000D01*
X151000000Y-100000000D02*
X146000000Y-100000000D01*
X158000000Y-88000000D02*
X156000000Y-88000000D01*
X137000000Y-80000000D02*
X138000000Y-81000000D01*
X152000000Y-93000000D02*
X155000000Y-90000000D01*
X156000000Y-95000000D02*
X151000000Y-100000000D01*
%TO.N,/Horn_In*%
X166000000Y-84000000D02*
X166000000Y-85000000D01*
X163000000Y-79000000D02*
X164000000Y-80000000D01*
X157000000Y-65000000D02*
X156975000Y-65025000D01*
X164000000Y-78000000D02*
X164000000Y-76000000D01*
X166000000Y-87000000D02*
X165000000Y-88000000D01*
X164000000Y-80000000D02*
X164000000Y-82000000D01*
X166000000Y-85000000D02*
X166000000Y-87000000D01*
X160000000Y-70000000D02*
X158000000Y-68000000D01*
X158000000Y-66000000D02*
X157000000Y-65000000D01*
X156975000Y-65025000D02*
X137000000Y-65025000D01*
X158000000Y-68000000D02*
X158000000Y-66000000D01*
X161000000Y-79000000D02*
X163000000Y-79000000D01*
X165000000Y-88000000D02*
X162300000Y-88000000D01*
X164000000Y-76000000D02*
X160000000Y-72000000D01*
X164000000Y-82000000D02*
X166000000Y-84000000D01*
X160000000Y-72000000D02*
X160000000Y-70000000D01*
X163000000Y-79000000D02*
X164000000Y-78000000D01*
%TO.N,Net-(Q1-S)*%
X134000000Y-67000000D02*
X134000000Y-66000000D01*
X140025000Y-73000000D02*
X137000000Y-73000000D01*
X135000000Y-68000000D02*
X134000000Y-67000000D01*
X137000000Y-68000000D02*
X135000000Y-68000000D01*
%TO.N,/Horn_Ctl*%
X143460000Y-86460000D02*
X143460000Y-90000000D01*
X134000000Y-73000000D02*
X134000000Y-75000000D01*
X132000000Y-82000000D02*
X136000000Y-86000000D01*
X132000000Y-77000000D02*
X132000000Y-82000000D01*
X136000000Y-86000000D02*
X140000000Y-86000000D01*
X141000000Y-85000000D02*
X142000000Y-85000000D01*
X134000000Y-75000000D02*
X132000000Y-77000000D01*
X140000000Y-86000000D02*
X141000000Y-85000000D01*
X142000000Y-85000000D02*
X143460000Y-86460000D01*
%TO.N,Net-(Q1-G)*%
X129175000Y-72825000D02*
X129175000Y-79000000D01*
X132025000Y-70025000D02*
X132000000Y-70000000D01*
X132000000Y-70000000D02*
X129175000Y-72825000D01*
X134000000Y-70025000D02*
X132025000Y-70025000D01*
X140025000Y-68440000D02*
X138560000Y-68440000D01*
X136975000Y-70025000D02*
X134000000Y-70025000D01*
X138560000Y-68440000D02*
X136975000Y-70025000D01*
%TO.N,Net-(J3-Pin_1)*%
X156000000Y-69000000D02*
X158000000Y-69000000D01*
X159000000Y-74000000D02*
X158460000Y-74540000D01*
X158460000Y-79000000D02*
X158460000Y-74540000D01*
X158000000Y-69000000D02*
X159000000Y-70000000D01*
X159000000Y-70000000D02*
X159000000Y-74000000D01*
%TD*%
%TA.AperFunction,Conductor*%
%TO.N,+24V*%
G36*
X131285834Y-81712584D02*
G01*
X131341767Y-81754456D01*
X131366184Y-81819920D01*
X131366500Y-81828766D01*
X131366500Y-82062398D01*
X131390843Y-82184777D01*
X131390845Y-82184785D01*
X131438598Y-82300072D01*
X131438603Y-82300081D01*
X131507928Y-82403832D01*
X131507931Y-82403836D01*
X135507929Y-86403833D01*
X135590835Y-86486739D01*
X135596168Y-86492072D01*
X135699918Y-86561396D01*
X135699924Y-86561399D01*
X135699925Y-86561400D01*
X135815215Y-86609155D01*
X135937601Y-86633499D01*
X135937605Y-86633500D01*
X135937606Y-86633500D01*
X140062395Y-86633500D01*
X140062396Y-86633499D01*
X140184785Y-86609155D01*
X140300075Y-86561400D01*
X140403833Y-86492071D01*
X141226086Y-85669819D01*
X141287409Y-85636334D01*
X141313767Y-85633500D01*
X141686234Y-85633500D01*
X141753273Y-85653185D01*
X141773915Y-85669819D01*
X142790181Y-86686085D01*
X142823666Y-86747408D01*
X142826500Y-86773766D01*
X142826500Y-88280738D01*
X142806815Y-88347777D01*
X142754011Y-88393532D01*
X142715104Y-88404096D01*
X142685572Y-88407113D01*
X142517264Y-88462884D01*
X142517259Y-88462886D01*
X142366346Y-88555971D01*
X142240971Y-88681346D01*
X142147886Y-88832259D01*
X142147884Y-88832264D01*
X142092113Y-89000572D01*
X142081500Y-89104447D01*
X142081500Y-90895537D01*
X142081501Y-90895553D01*
X142092113Y-90999427D01*
X142139310Y-91141860D01*
X142147885Y-91167738D01*
X142240970Y-91318652D01*
X142366348Y-91444030D01*
X142517262Y-91537115D01*
X142685574Y-91592887D01*
X142789455Y-91603500D01*
X144130544Y-91603499D01*
X144234426Y-91592887D01*
X144402738Y-91537115D01*
X144553652Y-91444030D01*
X144679030Y-91318652D01*
X144772115Y-91167738D01*
X144772115Y-91167735D01*
X144774146Y-91164444D01*
X144826094Y-91117720D01*
X144895057Y-91106497D01*
X144959139Y-91134341D01*
X144967366Y-91141860D01*
X145101967Y-91276461D01*
X145277508Y-91403999D01*
X145298795Y-91414845D01*
X145349590Y-91462817D01*
X145366500Y-91525329D01*
X145366500Y-94242500D01*
X145346815Y-94309539D01*
X145294011Y-94355294D01*
X145242500Y-94366500D01*
X141937602Y-94366500D01*
X141815219Y-94390843D01*
X141815214Y-94390845D01*
X141781448Y-94404829D01*
X141781449Y-94404830D01*
X141699926Y-94438598D01*
X141699922Y-94438600D01*
X141596171Y-94507924D01*
X141596163Y-94507930D01*
X141087680Y-95016413D01*
X141026357Y-95049898D01*
X140956665Y-95044914D01*
X140912318Y-95016413D01*
X140403836Y-94507931D01*
X140403832Y-94507928D01*
X140300081Y-94438603D01*
X140300072Y-94438598D01*
X140184785Y-94390845D01*
X140184777Y-94390843D01*
X140062398Y-94366500D01*
X140062394Y-94366500D01*
X136757500Y-94366500D01*
X136690461Y-94346815D01*
X136644706Y-94294011D01*
X136633500Y-94242500D01*
X136633500Y-91977496D01*
X136653185Y-91910457D01*
X136692402Y-91871958D01*
X136765846Y-91826658D01*
X136889158Y-91703346D01*
X136895907Y-91692403D01*
X136947854Y-91645679D01*
X137001446Y-91633500D01*
X139062395Y-91633500D01*
X139062396Y-91633499D01*
X139184785Y-91609155D01*
X139300075Y-91561400D01*
X139403833Y-91492071D01*
X140492072Y-90403833D01*
X140561401Y-90300075D01*
X140609155Y-90184784D01*
X140610097Y-90180052D01*
X140633499Y-90062397D01*
X140633500Y-90062394D01*
X140633500Y-88977496D01*
X140653185Y-88910457D01*
X140692402Y-88871958D01*
X140765846Y-88826658D01*
X140889158Y-88703346D01*
X140980709Y-88554920D01*
X141035562Y-88389381D01*
X141046000Y-88287213D01*
X141045999Y-87712788D01*
X141035562Y-87610619D01*
X140980709Y-87445080D01*
X140980705Y-87445074D01*
X140980704Y-87445071D01*
X140889160Y-87296657D01*
X140889157Y-87296653D01*
X140765846Y-87173342D01*
X140765842Y-87173339D01*
X140617428Y-87081795D01*
X140617422Y-87081792D01*
X140617420Y-87081791D01*
X140558892Y-87062397D01*
X140451882Y-87026938D01*
X140349714Y-87016500D01*
X139650294Y-87016500D01*
X139650278Y-87016501D01*
X139548117Y-87026938D01*
X139382582Y-87081790D01*
X139382571Y-87081795D01*
X139234157Y-87173339D01*
X139234152Y-87173343D01*
X139219168Y-87188327D01*
X139157844Y-87221811D01*
X139088153Y-87216825D01*
X139043808Y-87188325D01*
X139035538Y-87180055D01*
X139035534Y-87180052D01*
X138888811Y-87089551D01*
X138888800Y-87089546D01*
X138725152Y-87035319D01*
X138624154Y-87025000D01*
X138525000Y-87025000D01*
X138525000Y-88974999D01*
X138624140Y-88974999D01*
X138624154Y-88974998D01*
X138725152Y-88964680D01*
X138888800Y-88910453D01*
X138888811Y-88910448D01*
X139035534Y-88819947D01*
X139043801Y-88811680D01*
X139105122Y-88778191D01*
X139174814Y-88783170D01*
X139202864Y-88797957D01*
X139211607Y-88804111D01*
X139234154Y-88826658D01*
X139310803Y-88873936D01*
X139313875Y-88876098D01*
X139333374Y-88900616D01*
X139354321Y-88923905D01*
X139355291Y-88928176D01*
X139357364Y-88930782D01*
X139358548Y-88942504D01*
X139366500Y-88977496D01*
X139366500Y-89686233D01*
X139346815Y-89753272D01*
X139330181Y-89773914D01*
X138773915Y-90330181D01*
X138712592Y-90363666D01*
X138686234Y-90366500D01*
X137001446Y-90366500D01*
X136934407Y-90346815D01*
X136895907Y-90307596D01*
X136889158Y-90296654D01*
X136765845Y-90173341D01*
X136692402Y-90128040D01*
X136645678Y-90076091D01*
X136633500Y-90022502D01*
X136633500Y-89937605D01*
X136633499Y-89937601D01*
X136609157Y-89815222D01*
X136609154Y-89815213D01*
X136595168Y-89781447D01*
X136577004Y-89737595D01*
X136561401Y-89699925D01*
X136561399Y-89699923D01*
X136561399Y-89699921D01*
X136492072Y-89596167D01*
X136492069Y-89596163D01*
X135403836Y-88507931D01*
X135403832Y-88507928D01*
X135300081Y-88438603D01*
X135300072Y-88438598D01*
X135184785Y-88390845D01*
X135184777Y-88390843D01*
X135062398Y-88366500D01*
X135062394Y-88366500D01*
X132001446Y-88366500D01*
X131998899Y-88365752D01*
X131996325Y-88366394D01*
X131965559Y-88355962D01*
X131934407Y-88346815D01*
X131931898Y-88344549D01*
X131930155Y-88343958D01*
X131923945Y-88337364D01*
X131904459Y-88319763D01*
X131899820Y-88313940D01*
X131889158Y-88296654D01*
X131879158Y-88286654D01*
X137237501Y-88286654D01*
X137247819Y-88387652D01*
X137302046Y-88551300D01*
X137302051Y-88551311D01*
X137392552Y-88698034D01*
X137392555Y-88698038D01*
X137514461Y-88819944D01*
X137514465Y-88819947D01*
X137661188Y-88910448D01*
X137661199Y-88910453D01*
X137824847Y-88964680D01*
X137925851Y-88974999D01*
X138025000Y-88974998D01*
X138025000Y-88250000D01*
X137237501Y-88250000D01*
X137237501Y-88286654D01*
X131879158Y-88286654D01*
X131765846Y-88173342D01*
X131765845Y-88173341D01*
X131692402Y-88128040D01*
X131645678Y-88076091D01*
X131633500Y-88022502D01*
X131633500Y-87713345D01*
X137237500Y-87713345D01*
X137237500Y-87750000D01*
X138025000Y-87750000D01*
X138025000Y-87024999D01*
X137925860Y-87025000D01*
X137925844Y-87025001D01*
X137824847Y-87035319D01*
X137661199Y-87089546D01*
X137661188Y-87089551D01*
X137514465Y-87180052D01*
X137514461Y-87180055D01*
X137392555Y-87301961D01*
X137392552Y-87301965D01*
X137302051Y-87448688D01*
X137302046Y-87448699D01*
X137247819Y-87612347D01*
X137237500Y-87713345D01*
X131633500Y-87713345D01*
X131633500Y-84977496D01*
X131653185Y-84910457D01*
X131692402Y-84871958D01*
X131765846Y-84826658D01*
X131889158Y-84703346D01*
X131980709Y-84554920D01*
X132035562Y-84389381D01*
X132046000Y-84287213D01*
X132045999Y-83712788D01*
X132035562Y-83610619D01*
X131980709Y-83445080D01*
X131980705Y-83445074D01*
X131980704Y-83445071D01*
X131889160Y-83296657D01*
X131889157Y-83296653D01*
X131765846Y-83173342D01*
X131765842Y-83173339D01*
X131617428Y-83081795D01*
X131617422Y-83081792D01*
X131617420Y-83081791D01*
X131600408Y-83076154D01*
X131451882Y-83026938D01*
X131349714Y-83016500D01*
X130650294Y-83016500D01*
X130650278Y-83016501D01*
X130548117Y-83026938D01*
X130382582Y-83081790D01*
X130382571Y-83081795D01*
X130234157Y-83173339D01*
X130234153Y-83173342D01*
X130225181Y-83182315D01*
X130163858Y-83215800D01*
X130094166Y-83210816D01*
X130066774Y-83196486D01*
X130057664Y-83190160D01*
X130040846Y-83173342D01*
X129974592Y-83132475D01*
X129971832Y-83130559D01*
X129951933Y-83105863D01*
X129930736Y-83082297D01*
X129930177Y-83078863D01*
X129927994Y-83076154D01*
X129924605Y-83044619D01*
X129919515Y-83013335D01*
X129920900Y-83010145D01*
X129920529Y-83006684D01*
X129934725Y-82978327D01*
X129947358Y-82949253D01*
X129951610Y-82944599D01*
X129951808Y-82944206D01*
X129952163Y-82943995D01*
X129954866Y-82941037D01*
X131154819Y-81741085D01*
X131216142Y-81707600D01*
X131285834Y-81712584D01*
G37*
%TD.AperFunction*%
%TA.AperFunction,Conductor*%
G36*
X150250000Y-81572480D02*
G01*
X150320809Y-81561266D01*
X150525901Y-81494627D01*
X150718036Y-81396728D01*
X150892496Y-81269974D01*
X150892497Y-81269974D01*
X151044974Y-81117497D01*
X151044979Y-81117491D01*
X151164428Y-80953085D01*
X151219758Y-80910419D01*
X151289371Y-80904440D01*
X151351166Y-80937046D01*
X151365062Y-80953082D01*
X151488539Y-81123033D01*
X151641967Y-81276461D01*
X151817508Y-81403999D01*
X151838795Y-81414845D01*
X151889590Y-81462817D01*
X151906500Y-81525329D01*
X151906500Y-83146234D01*
X151897855Y-83175674D01*
X151891332Y-83205661D01*
X151887577Y-83210676D01*
X151886815Y-83213273D01*
X151870181Y-83233915D01*
X151773915Y-83330181D01*
X151712592Y-83363666D01*
X151686234Y-83366500D01*
X148313766Y-83366500D01*
X148246727Y-83346815D01*
X148226085Y-83330181D01*
X148129819Y-83233915D01*
X148096334Y-83172592D01*
X148093500Y-83146234D01*
X148093500Y-81719261D01*
X148113185Y-81652222D01*
X148165989Y-81606467D01*
X148204898Y-81595903D01*
X148234426Y-81592887D01*
X148402738Y-81537115D01*
X148553652Y-81444030D01*
X148679030Y-81318652D01*
X148772115Y-81167738D01*
X148772116Y-81167735D01*
X148775906Y-81161591D01*
X148777358Y-81162486D01*
X148817587Y-81116794D01*
X148884780Y-81097639D01*
X148951662Y-81117852D01*
X148971482Y-81133954D01*
X149107502Y-81269974D01*
X149281963Y-81396728D01*
X149474098Y-81494627D01*
X149679190Y-81561266D01*
X149750000Y-81572481D01*
X149750000Y-80542709D01*
X149770339Y-80554452D01*
X149921667Y-80595000D01*
X150078333Y-80595000D01*
X150229661Y-80554452D01*
X150250000Y-80542709D01*
X150250000Y-81572480D01*
G37*
%TD.AperFunction*%
%TA.AperFunction,Conductor*%
G36*
X135675328Y-64020185D02*
G01*
X135721083Y-64072989D01*
X135731027Y-64142147D01*
X135713827Y-64189597D01*
X135682884Y-64239761D01*
X135682883Y-64239764D01*
X135627113Y-64408071D01*
X135616500Y-64511948D01*
X135616500Y-65538051D01*
X135627113Y-65641928D01*
X135682883Y-65810235D01*
X135682884Y-65810238D01*
X135775967Y-65961147D01*
X135775970Y-65961151D01*
X135901348Y-66086529D01*
X135901352Y-66086532D01*
X136052261Y-66179615D01*
X136052264Y-66179616D01*
X136220571Y-66235386D01*
X136220572Y-66235386D01*
X136220575Y-66235387D01*
X136324456Y-66246000D01*
X136324461Y-66246000D01*
X137675539Y-66246000D01*
X137675544Y-66246000D01*
X137779425Y-66235387D01*
X137947738Y-66179615D01*
X138098651Y-66086530D01*
X138224030Y-65961151D01*
X138317115Y-65810238D01*
X138339230Y-65743496D01*
X138379002Y-65686052D01*
X138443517Y-65659228D01*
X138456936Y-65658500D01*
X156711234Y-65658500D01*
X156778273Y-65678185D01*
X156798915Y-65694819D01*
X157330181Y-66226085D01*
X157363666Y-66287408D01*
X157366500Y-66313766D01*
X157366500Y-67928948D01*
X157346815Y-67995987D01*
X157294011Y-68041742D01*
X157224853Y-68051686D01*
X157161297Y-68022661D01*
X157142182Y-68001834D01*
X157137934Y-67995987D01*
X157051461Y-67876967D01*
X156898033Y-67723539D01*
X156722492Y-67596001D01*
X156529160Y-67497494D01*
X156322800Y-67430443D01*
X156322798Y-67430442D01*
X156322796Y-67430442D01*
X156108495Y-67396500D01*
X156108490Y-67396500D01*
X155891510Y-67396500D01*
X155891505Y-67396500D01*
X155677203Y-67430442D01*
X155470837Y-67497495D01*
X155277507Y-67596001D01*
X155101968Y-67723538D01*
X154961188Y-67864318D01*
X154899865Y-67897802D01*
X154830173Y-67892818D01*
X154774240Y-67850946D01*
X154767968Y-67841732D01*
X154672317Y-67686656D01*
X154548345Y-67562684D01*
X154399124Y-67470643D01*
X154399119Y-67470641D01*
X154232697Y-67415494D01*
X154232690Y-67415493D01*
X154129986Y-67405000D01*
X153710000Y-67405000D01*
X153710000Y-68457290D01*
X153689661Y-68445548D01*
X153538333Y-68405000D01*
X153381667Y-68405000D01*
X153230339Y-68445548D01*
X153210000Y-68457290D01*
X153210000Y-67405000D01*
X152790028Y-67405000D01*
X152790012Y-67405001D01*
X152687302Y-67415494D01*
X152520880Y-67470641D01*
X152520875Y-67470643D01*
X152371654Y-67562684D01*
X152247684Y-67686654D01*
X152155643Y-67835875D01*
X152155641Y-67835880D01*
X152100494Y-68002302D01*
X152100493Y-68002309D01*
X152090000Y-68105013D01*
X152090000Y-68750000D01*
X152917291Y-68750000D01*
X152905548Y-68770339D01*
X152865000Y-68921667D01*
X152865000Y-69078333D01*
X152905548Y-69229661D01*
X152917291Y-69250000D01*
X152090001Y-69250000D01*
X152090001Y-69894986D01*
X152100494Y-69997697D01*
X152155641Y-70164119D01*
X152155643Y-70164124D01*
X152247684Y-70313345D01*
X152371654Y-70437315D01*
X152520875Y-70529356D01*
X152520880Y-70529358D01*
X152687302Y-70584505D01*
X152687309Y-70584506D01*
X152790019Y-70594999D01*
X153209999Y-70594999D01*
X153210000Y-70594998D01*
X153210000Y-69542709D01*
X153230339Y-69554452D01*
X153381667Y-69595000D01*
X153538333Y-69595000D01*
X153689661Y-69554452D01*
X153710000Y-69542709D01*
X153710000Y-70594999D01*
X154129972Y-70594999D01*
X154129986Y-70594998D01*
X154232697Y-70584505D01*
X154399119Y-70529358D01*
X154399124Y-70529356D01*
X154548345Y-70437315D01*
X154672317Y-70313343D01*
X154767968Y-70158267D01*
X154819916Y-70111542D01*
X154888878Y-70100319D01*
X154952960Y-70128162D01*
X154961188Y-70135682D01*
X155101967Y-70276461D01*
X155277508Y-70403999D01*
X155470840Y-70502506D01*
X155677200Y-70569557D01*
X155757566Y-70582285D01*
X155891505Y-70603500D01*
X155891510Y-70603500D01*
X156108495Y-70603500D01*
X156228421Y-70584505D01*
X156322800Y-70569557D01*
X156529160Y-70502506D01*
X156722492Y-70403999D01*
X156898033Y-70276461D01*
X157051461Y-70123033D01*
X157178999Y-69947492D01*
X157277506Y-69754160D01*
X157288871Y-69719179D01*
X157328309Y-69661506D01*
X157392668Y-69634308D01*
X157406802Y-69633500D01*
X157686234Y-69633500D01*
X157753273Y-69653185D01*
X157773915Y-69669819D01*
X158330181Y-70226085D01*
X158363666Y-70287408D01*
X158366500Y-70313766D01*
X158366500Y-73686234D01*
X158346815Y-73753273D01*
X158330181Y-73773915D01*
X158056167Y-74047929D01*
X158033208Y-74070888D01*
X157967927Y-74136168D01*
X157898603Y-74239918D01*
X157898598Y-74239927D01*
X157850845Y-74355214D01*
X157850843Y-74355222D01*
X157826500Y-74477601D01*
X157826500Y-77280738D01*
X157806815Y-77347777D01*
X157754011Y-77393532D01*
X157715104Y-77404096D01*
X157685572Y-77407113D01*
X157517264Y-77462884D01*
X157517259Y-77462886D01*
X157366346Y-77555971D01*
X157240971Y-77681346D01*
X157147886Y-77832259D01*
X157147884Y-77832264D01*
X157092113Y-78000572D01*
X157081500Y-78104447D01*
X157081500Y-79895537D01*
X157081501Y-79895553D01*
X157092113Y-79999427D01*
X157139310Y-80141860D01*
X157147885Y-80167738D01*
X157240970Y-80318652D01*
X157366348Y-80444030D01*
X157517262Y-80537115D01*
X157685574Y-80592887D01*
X157789455Y-80603500D01*
X159130544Y-80603499D01*
X159234426Y-80592887D01*
X159402738Y-80537115D01*
X159553652Y-80444030D01*
X159679030Y-80318652D01*
X159772115Y-80167738D01*
X159772115Y-80167735D01*
X159774146Y-80164444D01*
X159826094Y-80117720D01*
X159895057Y-80106497D01*
X159959139Y-80134341D01*
X159967366Y-80141860D01*
X160101967Y-80276461D01*
X160277508Y-80403999D01*
X160470840Y-80502506D01*
X160677200Y-80569557D01*
X160757566Y-80582285D01*
X160891505Y-80603500D01*
X160891510Y-80603500D01*
X161108495Y-80603500D01*
X161227551Y-80584642D01*
X161322800Y-80569557D01*
X161529160Y-80502506D01*
X161722492Y-80403999D01*
X161898033Y-80276461D01*
X162051461Y-80123033D01*
X162178999Y-79947492D01*
X162277506Y-79754160D01*
X162288871Y-79719179D01*
X162328309Y-79661506D01*
X162392668Y-79634308D01*
X162406802Y-79633500D01*
X162686234Y-79633500D01*
X162753273Y-79653185D01*
X162773915Y-79669819D01*
X163330181Y-80226085D01*
X163363666Y-80287408D01*
X163366500Y-80313766D01*
X163366500Y-82062398D01*
X163390843Y-82184777D01*
X163390845Y-82184785D01*
X163438598Y-82300072D01*
X163438603Y-82300081D01*
X163507928Y-82403832D01*
X163507931Y-82403836D01*
X165330181Y-84226085D01*
X165363666Y-84287408D01*
X165366500Y-84313766D01*
X165366500Y-86686233D01*
X165346815Y-86753272D01*
X165330181Y-86773914D01*
X164773915Y-87330181D01*
X164712592Y-87363666D01*
X164686234Y-87366500D01*
X164182500Y-87366500D01*
X164115461Y-87346815D01*
X164069706Y-87294011D01*
X164058500Y-87242500D01*
X164058500Y-86801362D01*
X164058499Y-86801345D01*
X164055157Y-86770270D01*
X164051989Y-86740799D01*
X164051237Y-86738784D01*
X164011968Y-86633500D01*
X164000889Y-86603796D01*
X163913261Y-86486739D01*
X163796204Y-86399111D01*
X163792156Y-86397601D01*
X163659203Y-86348011D01*
X163598654Y-86341500D01*
X163598638Y-86341500D01*
X161001362Y-86341500D01*
X161001345Y-86341500D01*
X160940797Y-86348011D01*
X160940795Y-86348011D01*
X160803795Y-86399111D01*
X160686739Y-86486739D01*
X160599111Y-86603795D01*
X160548011Y-86740795D01*
X160548011Y-86740797D01*
X160541500Y-86801345D01*
X160541500Y-89198654D01*
X160548011Y-89259202D01*
X160548011Y-89259204D01*
X160586975Y-89363666D01*
X160599111Y-89396204D01*
X160686739Y-89513261D01*
X160803796Y-89600889D01*
X160891229Y-89633500D01*
X160935463Y-89649999D01*
X160940799Y-89651989D01*
X160968050Y-89654918D01*
X161001345Y-89658499D01*
X161001362Y-89658500D01*
X163598638Y-89658500D01*
X163598654Y-89658499D01*
X163625692Y-89655591D01*
X163659201Y-89651989D01*
X163664537Y-89649999D01*
X163708771Y-89633500D01*
X163796204Y-89600889D01*
X163913261Y-89513261D01*
X164000889Y-89396204D01*
X164051989Y-89259201D01*
X164055591Y-89225692D01*
X164058499Y-89198654D01*
X164058500Y-89198637D01*
X164058500Y-88757500D01*
X164078185Y-88690461D01*
X164130989Y-88644706D01*
X164182500Y-88633500D01*
X165062395Y-88633500D01*
X165062396Y-88633499D01*
X165184785Y-88609155D01*
X165300075Y-88561400D01*
X165403833Y-88492071D01*
X166492072Y-87403833D01*
X166561401Y-87300075D01*
X166609155Y-87184784D01*
X166610097Y-87180052D01*
X166627313Y-87093500D01*
X166633499Y-87062397D01*
X166633500Y-87062394D01*
X166633500Y-83937605D01*
X166633499Y-83937601D01*
X166618826Y-83863836D01*
X166609155Y-83815215D01*
X166561400Y-83699925D01*
X166561399Y-83699924D01*
X166561396Y-83699918D01*
X166492072Y-83596168D01*
X166492071Y-83596167D01*
X166403833Y-83507929D01*
X164669819Y-81773915D01*
X164636334Y-81712592D01*
X164633500Y-81686234D01*
X164633500Y-79937605D01*
X164633499Y-79937601D01*
X164631371Y-79926905D01*
X164609155Y-79815215D01*
X164583865Y-79754160D01*
X164561401Y-79699925D01*
X164535730Y-79661506D01*
X164492072Y-79596166D01*
X164492069Y-79596163D01*
X163983585Y-79087681D01*
X163950100Y-79026358D01*
X163955084Y-78956667D01*
X163983585Y-78912319D01*
X164214557Y-78681348D01*
X164492072Y-78403833D01*
X164561401Y-78300075D01*
X164609155Y-78184784D01*
X164614424Y-78158298D01*
X164633500Y-78062394D01*
X164633500Y-75937606D01*
X164609155Y-75815215D01*
X164561400Y-75699925D01*
X164561399Y-75699924D01*
X164561396Y-75699918D01*
X164492072Y-75596168D01*
X164492071Y-75596167D01*
X164403833Y-75507929D01*
X160669819Y-71773915D01*
X160636334Y-71712592D01*
X160633500Y-71686234D01*
X160633500Y-69937605D01*
X160633499Y-69937601D01*
X160625022Y-69894986D01*
X160609155Y-69815215D01*
X160561400Y-69699925D01*
X160561399Y-69699924D01*
X160561396Y-69699918D01*
X160492072Y-69596168D01*
X160450356Y-69554452D01*
X160403833Y-69507929D01*
X158774615Y-67878711D01*
X161149500Y-67878711D01*
X161149500Y-68121288D01*
X161160758Y-68206807D01*
X161181162Y-68361789D01*
X161203605Y-68445548D01*
X161243947Y-68596104D01*
X161324628Y-68790884D01*
X161336776Y-68820212D01*
X161458064Y-69030289D01*
X161458066Y-69030292D01*
X161458067Y-69030293D01*
X161605733Y-69222736D01*
X161605739Y-69222743D01*
X161777256Y-69394260D01*
X161777263Y-69394266D01*
X161849449Y-69449656D01*
X161969711Y-69541936D01*
X162179788Y-69663224D01*
X162403900Y-69756054D01*
X162638211Y-69818838D01*
X162818586Y-69842584D01*
X162878711Y-69850500D01*
X162878712Y-69850500D01*
X163121289Y-69850500D01*
X163169388Y-69844167D01*
X163361789Y-69818838D01*
X163596100Y-69756054D01*
X163820212Y-69663224D01*
X164030289Y-69541936D01*
X164222738Y-69394265D01*
X164394265Y-69222738D01*
X164541936Y-69030289D01*
X164663224Y-68820212D01*
X164756054Y-68596100D01*
X164818838Y-68361789D01*
X164850500Y-68121288D01*
X164850500Y-67878712D01*
X164818838Y-67638211D01*
X164756054Y-67403900D01*
X164756027Y-67403836D01*
X164727882Y-67335886D01*
X164663224Y-67179788D01*
X164541936Y-66969711D01*
X164394265Y-66777262D01*
X164394260Y-66777256D01*
X164222743Y-66605739D01*
X164222736Y-66605733D01*
X164030293Y-66458067D01*
X164030292Y-66458066D01*
X164030289Y-66458064D01*
X163820212Y-66336776D01*
X163764661Y-66313766D01*
X163596104Y-66243947D01*
X163361785Y-66181161D01*
X163121289Y-66149500D01*
X163121288Y-66149500D01*
X162878712Y-66149500D01*
X162878711Y-66149500D01*
X162638214Y-66181161D01*
X162403895Y-66243947D01*
X162179794Y-66336773D01*
X162179785Y-66336777D01*
X161969706Y-66458067D01*
X161777263Y-66605733D01*
X161777256Y-66605739D01*
X161605739Y-66777256D01*
X161605733Y-66777263D01*
X161458067Y-66969706D01*
X161336777Y-67179785D01*
X161336773Y-67179794D01*
X161243947Y-67403895D01*
X161181161Y-67638214D01*
X161149500Y-67878711D01*
X158774615Y-67878711D01*
X158669819Y-67773915D01*
X158636334Y-67712592D01*
X158633500Y-67686234D01*
X158633500Y-65937605D01*
X158633499Y-65937601D01*
X158632667Y-65933418D01*
X158609155Y-65815215D01*
X158607097Y-65810246D01*
X158575929Y-65734999D01*
X158561404Y-65699932D01*
X158561403Y-65699931D01*
X158561401Y-65699925D01*
X158522647Y-65641925D01*
X158492072Y-65596166D01*
X158492069Y-65596163D01*
X157403836Y-64507931D01*
X157403832Y-64507928D01*
X157300081Y-64438603D01*
X157300072Y-64438598D01*
X157184785Y-64390845D01*
X157184777Y-64390843D01*
X157062398Y-64366500D01*
X157062394Y-64366500D01*
X157062393Y-64366500D01*
X156937606Y-64366500D01*
X156937601Y-64366500D01*
X156823898Y-64389117D01*
X156799707Y-64391500D01*
X138456936Y-64391500D01*
X138439803Y-64386469D01*
X138421945Y-64386461D01*
X138406973Y-64376829D01*
X138389897Y-64371815D01*
X138378205Y-64358321D01*
X138363185Y-64348659D01*
X138350519Y-64326370D01*
X138344142Y-64319011D01*
X138344118Y-64318959D01*
X138341338Y-64312865D01*
X138317115Y-64239762D01*
X138282107Y-64183006D01*
X138278893Y-64175959D01*
X138274991Y-64148734D01*
X138267732Y-64122205D01*
X138270105Y-64114642D01*
X138268981Y-64106795D01*
X138280418Y-64081781D01*
X138288654Y-64055541D01*
X138294739Y-64050461D01*
X138298036Y-64043253D01*
X138321181Y-64028394D01*
X138342296Y-64010772D01*
X138351664Y-64008824D01*
X138356832Y-64005507D01*
X138367600Y-64005511D01*
X138391711Y-64000500D01*
X161997439Y-64000500D01*
X162002562Y-64000605D01*
X162370277Y-64015814D01*
X162375906Y-64016177D01*
X162459956Y-64023530D01*
X162464429Y-64024004D01*
X162787028Y-64064216D01*
X162793169Y-64065140D01*
X162871766Y-64078999D01*
X162875594Y-64079737D01*
X163199008Y-64147549D01*
X163205622Y-64149128D01*
X163274576Y-64167604D01*
X163277787Y-64168512D01*
X163603169Y-64265383D01*
X163610157Y-64267692D01*
X163664056Y-64287310D01*
X163666678Y-64288299D01*
X163996425Y-64416967D01*
X164003729Y-64420089D01*
X164034837Y-64434595D01*
X164036641Y-64435458D01*
X164374902Y-64600823D01*
X164383883Y-64605683D01*
X164712999Y-64801794D01*
X164730070Y-64811966D01*
X164738649Y-64817572D01*
X165066587Y-65051714D01*
X165074664Y-65058001D01*
X165155438Y-65126413D01*
X165382155Y-65318433D01*
X165389695Y-65325374D01*
X165674625Y-65610304D01*
X165681566Y-65617844D01*
X165780792Y-65735000D01*
X165929450Y-65910520D01*
X165941994Y-65925330D01*
X165948287Y-65933416D01*
X165951278Y-65937605D01*
X166182427Y-66261350D01*
X166188033Y-66269929D01*
X166394309Y-66616105D01*
X166399186Y-66625119D01*
X166564467Y-66963206D01*
X166565450Y-66965262D01*
X166579902Y-66996255D01*
X166583036Y-67003584D01*
X166711691Y-67333300D01*
X166712696Y-67335964D01*
X166732299Y-67389822D01*
X166734622Y-67396851D01*
X166831475Y-67722173D01*
X166832405Y-67725462D01*
X166850867Y-67794364D01*
X166852453Y-67801010D01*
X166920250Y-68124350D01*
X166921005Y-68128265D01*
X166934854Y-68206807D01*
X166935786Y-68213001D01*
X166975990Y-68535538D01*
X166976470Y-68540069D01*
X166983819Y-68624067D01*
X166984185Y-68629749D01*
X166999394Y-68997437D01*
X166999500Y-69002562D01*
X166999500Y-95997437D01*
X166999394Y-96002562D01*
X166984185Y-96370249D01*
X166983819Y-96375930D01*
X166983819Y-96375931D01*
X166976470Y-96459929D01*
X166975990Y-96464460D01*
X166935786Y-96786997D01*
X166934854Y-96793191D01*
X166921005Y-96871733D01*
X166920250Y-96875648D01*
X166852453Y-97198988D01*
X166850867Y-97205634D01*
X166832405Y-97274536D01*
X166831475Y-97277825D01*
X166734622Y-97603147D01*
X166732299Y-97610176D01*
X166712696Y-97664034D01*
X166711691Y-97666698D01*
X166583036Y-97996414D01*
X166579903Y-98003741D01*
X166579902Y-98003743D01*
X166565471Y-98034691D01*
X166564489Y-98036747D01*
X166399182Y-98374889D01*
X166394304Y-98383903D01*
X166188033Y-98730070D01*
X166182427Y-98738649D01*
X165948289Y-99066581D01*
X165941994Y-99074669D01*
X165681566Y-99382155D01*
X165674625Y-99389695D01*
X165389695Y-99674625D01*
X165382155Y-99681566D01*
X165074669Y-99941994D01*
X165066581Y-99948289D01*
X164738649Y-100182427D01*
X164730070Y-100188033D01*
X164383903Y-100394304D01*
X164374889Y-100399182D01*
X164036747Y-100564489D01*
X164034691Y-100565471D01*
X164003743Y-100579902D01*
X163996414Y-100583036D01*
X163666698Y-100711691D01*
X163664034Y-100712696D01*
X163610176Y-100732299D01*
X163603147Y-100734622D01*
X163277825Y-100831475D01*
X163274536Y-100832405D01*
X163205634Y-100850867D01*
X163198988Y-100852453D01*
X162875648Y-100920250D01*
X162871733Y-100921005D01*
X162793191Y-100934854D01*
X162786997Y-100935786D01*
X162464460Y-100975990D01*
X162459929Y-100976470D01*
X162375931Y-100983819D01*
X162370249Y-100984185D01*
X162002563Y-100999394D01*
X161997438Y-100999500D01*
X130002562Y-100999500D01*
X129997437Y-100999394D01*
X129629749Y-100984185D01*
X129624067Y-100983819D01*
X129540069Y-100976470D01*
X129535538Y-100975990D01*
X129213001Y-100935786D01*
X129206807Y-100934854D01*
X129128265Y-100921005D01*
X129124350Y-100920250D01*
X128801010Y-100852453D01*
X128794364Y-100850867D01*
X128725462Y-100832405D01*
X128722173Y-100831475D01*
X128396851Y-100734622D01*
X128389822Y-100732299D01*
X128335964Y-100712696D01*
X128333300Y-100711691D01*
X128003584Y-100583036D01*
X127996255Y-100579902D01*
X127965262Y-100565450D01*
X127963206Y-100564467D01*
X127625119Y-100399186D01*
X127616105Y-100394309D01*
X127269929Y-100188033D01*
X127261350Y-100182427D01*
X126933418Y-99948289D01*
X126925330Y-99941994D01*
X126617844Y-99681566D01*
X126610304Y-99674625D01*
X126325374Y-99389695D01*
X126318433Y-99382155D01*
X126058005Y-99074669D01*
X126051710Y-99066581D01*
X125817572Y-98738649D01*
X125811966Y-98730070D01*
X125781435Y-98678832D01*
X125605683Y-98383883D01*
X125600817Y-98374889D01*
X125435458Y-98036641D01*
X125434595Y-98034837D01*
X125420089Y-98003729D01*
X125416962Y-97996414D01*
X125414679Y-97990564D01*
X125288299Y-97666679D01*
X125287302Y-97664034D01*
X125267692Y-97610157D01*
X125265383Y-97603169D01*
X125168512Y-97277787D01*
X125167604Y-97274576D01*
X125149128Y-97205622D01*
X125147549Y-97199008D01*
X125080391Y-96878711D01*
X127149500Y-96878711D01*
X127149500Y-97121288D01*
X127181161Y-97361785D01*
X127243947Y-97596104D01*
X127336773Y-97820205D01*
X127336777Y-97820214D01*
X127340499Y-97826660D01*
X127458064Y-98030289D01*
X127458066Y-98030292D01*
X127458067Y-98030293D01*
X127605733Y-98222736D01*
X127605739Y-98222743D01*
X127777256Y-98394260D01*
X127777263Y-98394266D01*
X127890321Y-98481018D01*
X127969711Y-98541936D01*
X128179788Y-98663224D01*
X128403900Y-98756054D01*
X128638211Y-98818838D01*
X128818586Y-98842584D01*
X128878711Y-98850500D01*
X128878712Y-98850500D01*
X129121289Y-98850500D01*
X129169388Y-98844167D01*
X129361789Y-98818838D01*
X129596100Y-98756054D01*
X129820212Y-98663224D01*
X130030289Y-98541936D01*
X130222738Y-98394265D01*
X130394265Y-98222738D01*
X130541936Y-98030289D01*
X130663224Y-97820212D01*
X130756054Y-97596100D01*
X130818838Y-97361789D01*
X130828730Y-97286654D01*
X133237501Y-97286654D01*
X133247819Y-97387652D01*
X133302046Y-97551300D01*
X133302051Y-97551311D01*
X133392552Y-97698034D01*
X133392555Y-97698038D01*
X133514461Y-97819944D01*
X133514465Y-97819947D01*
X133661188Y-97910448D01*
X133661199Y-97910453D01*
X133824847Y-97964680D01*
X133925851Y-97974999D01*
X134025000Y-97974998D01*
X134025000Y-97250000D01*
X133237501Y-97250000D01*
X133237501Y-97286654D01*
X130828730Y-97286654D01*
X130839396Y-97205634D01*
X130842448Y-97182453D01*
X130842448Y-97182452D01*
X130850500Y-97121289D01*
X130850500Y-96878711D01*
X130830446Y-96726381D01*
X130828730Y-96713345D01*
X133237500Y-96713345D01*
X133237500Y-96750000D01*
X134025000Y-96750000D01*
X134025000Y-96024999D01*
X133925860Y-96025000D01*
X133925844Y-96025001D01*
X133824847Y-96035319D01*
X133661199Y-96089546D01*
X133661188Y-96089551D01*
X133514465Y-96180052D01*
X133514461Y-96180055D01*
X133392555Y-96301961D01*
X133392552Y-96301965D01*
X133302051Y-96448688D01*
X133302046Y-96448699D01*
X133247819Y-96612347D01*
X133237500Y-96713345D01*
X130828730Y-96713345D01*
X130818838Y-96638214D01*
X130818838Y-96638211D01*
X130756054Y-96403900D01*
X130663224Y-96179788D01*
X130541936Y-95969711D01*
X130394265Y-95777262D01*
X130394260Y-95777256D01*
X130222743Y-95605739D01*
X130222736Y-95605733D01*
X130030293Y-95458067D01*
X130030292Y-95458066D01*
X130030289Y-95458064D01*
X129820212Y-95336776D01*
X129820205Y-95336773D01*
X129596104Y-95243947D01*
X129361785Y-95181161D01*
X129121289Y-95149500D01*
X129121288Y-95149500D01*
X128878712Y-95149500D01*
X128878711Y-95149500D01*
X128638214Y-95181161D01*
X128403895Y-95243947D01*
X128179794Y-95336773D01*
X128179785Y-95336777D01*
X127969706Y-95458067D01*
X127777263Y-95605733D01*
X127777256Y-95605739D01*
X127605739Y-95777256D01*
X127605733Y-95777263D01*
X127458067Y-95969706D01*
X127336777Y-96179785D01*
X127336773Y-96179794D01*
X127243947Y-96403895D01*
X127181161Y-96638214D01*
X127149500Y-96878711D01*
X125080391Y-96878711D01*
X125079740Y-96875606D01*
X125078999Y-96871766D01*
X125065140Y-96793169D01*
X125064216Y-96787028D01*
X125024004Y-96464429D01*
X125023530Y-96459956D01*
X125016177Y-96375906D01*
X125015814Y-96370277D01*
X125000606Y-96002562D01*
X125000500Y-95997438D01*
X125000500Y-91286654D01*
X133237501Y-91286654D01*
X133247819Y-91387652D01*
X133302046Y-91551300D01*
X133302051Y-91551311D01*
X133392552Y-91698034D01*
X133392555Y-91698038D01*
X133514461Y-91819944D01*
X133514465Y-91819947D01*
X133661188Y-91910448D01*
X133661199Y-91910453D01*
X133824847Y-91964680D01*
X133925851Y-91974999D01*
X134025000Y-91974998D01*
X134025000Y-91250000D01*
X133237501Y-91250000D01*
X133237501Y-91286654D01*
X125000500Y-91286654D01*
X125000500Y-90713345D01*
X133237500Y-90713345D01*
X133237500Y-90750000D01*
X134025000Y-90750000D01*
X134025000Y-90024999D01*
X133925860Y-90025000D01*
X133925844Y-90025001D01*
X133824847Y-90035319D01*
X133661199Y-90089546D01*
X133661188Y-90089551D01*
X133514465Y-90180052D01*
X133514461Y-90180055D01*
X133392555Y-90301961D01*
X133392552Y-90301965D01*
X133302051Y-90448688D01*
X133302046Y-90448699D01*
X133247819Y-90612347D01*
X133237500Y-90713345D01*
X125000500Y-90713345D01*
X125000500Y-89286654D01*
X128237501Y-89286654D01*
X128247819Y-89387652D01*
X128302046Y-89551300D01*
X128302051Y-89551311D01*
X128392552Y-89698034D01*
X128392555Y-89698038D01*
X128514461Y-89819944D01*
X128514465Y-89819947D01*
X128661188Y-89910448D01*
X128661199Y-89910453D01*
X128824847Y-89964680D01*
X128925851Y-89974999D01*
X129025000Y-89974998D01*
X129025000Y-89250000D01*
X128237501Y-89250000D01*
X128237501Y-89286654D01*
X125000500Y-89286654D01*
X125000500Y-88713345D01*
X128237500Y-88713345D01*
X128237500Y-88750000D01*
X129025000Y-88750000D01*
X129025000Y-88024999D01*
X128925860Y-88025000D01*
X128925844Y-88025001D01*
X128824847Y-88035319D01*
X128661199Y-88089546D01*
X128661188Y-88089551D01*
X128514465Y-88180052D01*
X128514461Y-88180055D01*
X128392555Y-88301961D01*
X128392552Y-88301965D01*
X128302051Y-88448688D01*
X128302046Y-88448699D01*
X128247819Y-88612347D01*
X128237500Y-88713345D01*
X125000500Y-88713345D01*
X125000500Y-78712779D01*
X128179000Y-78712779D01*
X128179000Y-79287205D01*
X128179001Y-79287221D01*
X128189438Y-79389382D01*
X128244290Y-79554917D01*
X128244295Y-79554928D01*
X128335839Y-79703342D01*
X128335842Y-79703346D01*
X128459153Y-79826657D01*
X128459157Y-79826660D01*
X128607571Y-79918204D01*
X128607574Y-79918205D01*
X128607580Y-79918209D01*
X128773119Y-79973062D01*
X128875287Y-79983500D01*
X129474712Y-79983499D01*
X129576881Y-79973062D01*
X129742420Y-79918209D01*
X129890846Y-79826658D01*
X129999819Y-79717685D01*
X130005222Y-79714734D01*
X130008681Y-79709640D01*
X130035527Y-79698186D01*
X130061142Y-79684200D01*
X130067282Y-79684639D01*
X130072946Y-79682223D01*
X130101722Y-79687102D01*
X130130834Y-79689184D01*
X130137306Y-79693135D01*
X130141833Y-79693903D01*
X130161272Y-79707765D01*
X130171035Y-79713726D01*
X130173149Y-79715653D01*
X130284154Y-79826658D01*
X130317467Y-79847205D01*
X130326035Y-79855016D01*
X130338398Y-79875362D01*
X130354321Y-79893064D01*
X130357406Y-79906643D01*
X130362318Y-79914725D01*
X130362011Y-79926905D01*
X130366500Y-79946656D01*
X130366500Y-80686234D01*
X130346815Y-80753273D01*
X130330181Y-80773915D01*
X128871167Y-82232929D01*
X128827047Y-82277049D01*
X128782927Y-82321168D01*
X128713603Y-82424918D01*
X128713598Y-82424927D01*
X128665845Y-82540214D01*
X128665843Y-82540222D01*
X128641500Y-82662601D01*
X128641500Y-83022502D01*
X128621815Y-83089541D01*
X128582598Y-83128040D01*
X128509154Y-83173341D01*
X128385842Y-83296653D01*
X128385839Y-83296657D01*
X128294295Y-83445071D01*
X128294290Y-83445082D01*
X128239438Y-83610617D01*
X128229000Y-83712779D01*
X128229000Y-84287205D01*
X128229001Y-84287221D01*
X128239438Y-84389382D01*
X128294290Y-84554917D01*
X128294295Y-84554928D01*
X128385839Y-84703342D01*
X128385842Y-84703346D01*
X128509153Y-84826657D01*
X128509157Y-84826660D01*
X128657571Y-84918204D01*
X128657574Y-84918205D01*
X128657580Y-84918209D01*
X128823119Y-84973062D01*
X128925287Y-84983500D01*
X129624712Y-84983499D01*
X129726881Y-84973062D01*
X129892420Y-84918209D01*
X130040846Y-84826658D01*
X130049819Y-84817685D01*
X130111142Y-84784200D01*
X130180834Y-84789184D01*
X130207712Y-84803159D01*
X130217113Y-84809617D01*
X130234154Y-84826658D01*
X130310205Y-84873566D01*
X130312712Y-84875289D01*
X130332921Y-84900113D01*
X130354321Y-84923905D01*
X130355107Y-84927365D01*
X130356823Y-84929473D01*
X130358036Y-84940254D01*
X130366500Y-84977496D01*
X130366500Y-88022502D01*
X130346815Y-88089541D01*
X130307598Y-88128040D01*
X130234154Y-88173341D01*
X130219168Y-88188327D01*
X130157844Y-88221811D01*
X130088153Y-88216825D01*
X130043808Y-88188325D01*
X130035538Y-88180055D01*
X130035534Y-88180052D01*
X129888811Y-88089551D01*
X129888800Y-88089546D01*
X129725152Y-88035319D01*
X129624154Y-88025000D01*
X129525000Y-88025000D01*
X129525000Y-89974999D01*
X129624140Y-89974999D01*
X129624154Y-89974998D01*
X129725152Y-89964680D01*
X129888800Y-89910453D01*
X129888811Y-89910448D01*
X130035534Y-89819947D01*
X130043801Y-89811680D01*
X130105122Y-89778191D01*
X130174814Y-89783170D01*
X130219170Y-89811674D01*
X130234153Y-89826657D01*
X130234157Y-89826660D01*
X130382571Y-89918204D01*
X130382574Y-89918205D01*
X130382580Y-89918209D01*
X130548119Y-89973062D01*
X130650287Y-89983500D01*
X131349712Y-89983499D01*
X131451881Y-89973062D01*
X131617420Y-89918209D01*
X131765846Y-89826658D01*
X131889158Y-89703346D01*
X131895907Y-89692403D01*
X131947854Y-89645679D01*
X132001446Y-89633500D01*
X134686234Y-89633500D01*
X134753273Y-89653185D01*
X134773915Y-89669819D01*
X134974760Y-89870664D01*
X135008245Y-89931987D01*
X135003261Y-90001679D01*
X134961389Y-90057612D01*
X134895925Y-90082029D01*
X134848076Y-90076051D01*
X134725153Y-90035319D01*
X134624154Y-90025000D01*
X134525000Y-90025000D01*
X134525000Y-91974999D01*
X134624140Y-91974999D01*
X134624154Y-91974998D01*
X134725152Y-91964680D01*
X134888800Y-91910453D01*
X134888811Y-91910448D01*
X135035534Y-91819947D01*
X135043801Y-91811680D01*
X135105122Y-91778191D01*
X135174814Y-91783170D01*
X135202864Y-91797957D01*
X135211607Y-91804111D01*
X135234154Y-91826658D01*
X135310803Y-91873936D01*
X135313875Y-91876098D01*
X135333374Y-91900616D01*
X135354321Y-91923905D01*
X135355291Y-91928176D01*
X135357364Y-91930782D01*
X135358548Y-91942504D01*
X135366500Y-91977496D01*
X135366500Y-96022502D01*
X135346815Y-96089541D01*
X135307598Y-96128040D01*
X135234154Y-96173341D01*
X135219168Y-96188327D01*
X135157844Y-96221811D01*
X135088153Y-96216825D01*
X135043808Y-96188325D01*
X135035538Y-96180055D01*
X135035534Y-96180052D01*
X134888811Y-96089551D01*
X134888800Y-96089546D01*
X134725152Y-96035319D01*
X134624154Y-96025000D01*
X134525000Y-96025000D01*
X134525000Y-97974999D01*
X134624140Y-97974999D01*
X134624154Y-97974998D01*
X134725152Y-97964680D01*
X134888800Y-97910453D01*
X134888811Y-97910448D01*
X135035534Y-97819947D01*
X135043801Y-97811680D01*
X135105122Y-97778191D01*
X135174814Y-97783170D01*
X135219170Y-97811674D01*
X135234153Y-97826657D01*
X135234157Y-97826660D01*
X135382571Y-97918204D01*
X135382574Y-97918205D01*
X135382580Y-97918209D01*
X135548119Y-97973062D01*
X135650287Y-97983500D01*
X136349712Y-97983499D01*
X136451881Y-97973062D01*
X136617420Y-97918209D01*
X136765846Y-97826658D01*
X136889158Y-97703346D01*
X136980709Y-97554920D01*
X137035562Y-97389381D01*
X137046000Y-97287213D01*
X137046000Y-97286654D01*
X138237501Y-97286654D01*
X138247819Y-97387652D01*
X138302046Y-97551300D01*
X138302051Y-97551311D01*
X138392552Y-97698034D01*
X138392555Y-97698038D01*
X138514461Y-97819944D01*
X138514465Y-97819947D01*
X138661188Y-97910448D01*
X138661199Y-97910453D01*
X138824847Y-97964680D01*
X138925851Y-97974999D01*
X139025000Y-97974998D01*
X139025000Y-97250000D01*
X138237501Y-97250000D01*
X138237501Y-97286654D01*
X137046000Y-97286654D01*
X137045999Y-96713345D01*
X138237500Y-96713345D01*
X138237500Y-96750000D01*
X139025000Y-96750000D01*
X139025000Y-96024999D01*
X138925860Y-96025000D01*
X138925844Y-96025001D01*
X138824847Y-96035319D01*
X138661199Y-96089546D01*
X138661188Y-96089551D01*
X138514465Y-96180052D01*
X138514461Y-96180055D01*
X138392555Y-96301961D01*
X138392552Y-96301965D01*
X138302051Y-96448688D01*
X138302046Y-96448699D01*
X138247819Y-96612347D01*
X138237500Y-96713345D01*
X137045999Y-96713345D01*
X137045999Y-96712788D01*
X137035562Y-96610619D01*
X136980709Y-96445080D01*
X136980705Y-96445074D01*
X136980704Y-96445071D01*
X136889160Y-96296657D01*
X136889157Y-96296653D01*
X136765845Y-96173341D01*
X136692402Y-96128040D01*
X136645678Y-96076091D01*
X136633500Y-96022502D01*
X136633500Y-95757500D01*
X136653185Y-95690461D01*
X136705989Y-95644706D01*
X136757500Y-95633500D01*
X139686234Y-95633500D01*
X139753273Y-95653185D01*
X139773915Y-95669819D01*
X139974760Y-95870664D01*
X140008245Y-95931987D01*
X140003261Y-96001679D01*
X139961389Y-96057612D01*
X139895925Y-96082029D01*
X139848076Y-96076051D01*
X139725153Y-96035319D01*
X139624154Y-96025000D01*
X139525000Y-96025000D01*
X139525000Y-97974999D01*
X139624140Y-97974999D01*
X139624154Y-97974998D01*
X139725152Y-97964680D01*
X139888800Y-97910453D01*
X139888811Y-97910448D01*
X140035534Y-97819947D01*
X140043801Y-97811680D01*
X140105122Y-97778191D01*
X140174814Y-97783170D01*
X140219170Y-97811674D01*
X140234153Y-97826657D01*
X140234157Y-97826660D01*
X140382571Y-97918204D01*
X140382574Y-97918205D01*
X140382580Y-97918209D01*
X140548119Y-97973062D01*
X140650287Y-97983500D01*
X141349712Y-97983499D01*
X141451881Y-97973062D01*
X141617420Y-97918209D01*
X141765846Y-97826658D01*
X141889158Y-97703346D01*
X141980709Y-97554920D01*
X142035562Y-97389381D01*
X142046000Y-97287213D01*
X142046000Y-97286654D01*
X143237501Y-97286654D01*
X143247819Y-97387652D01*
X143302046Y-97551300D01*
X143302051Y-97551311D01*
X143392552Y-97698034D01*
X143392555Y-97698038D01*
X143514461Y-97819944D01*
X143514465Y-97819947D01*
X143661188Y-97910448D01*
X143661199Y-97910453D01*
X143824847Y-97964680D01*
X143925851Y-97974999D01*
X144025000Y-97974998D01*
X144025000Y-97250000D01*
X143237501Y-97250000D01*
X143237501Y-97286654D01*
X142046000Y-97286654D01*
X142045999Y-96713345D01*
X143237500Y-96713345D01*
X143237500Y-96750000D01*
X144025000Y-96750000D01*
X144025000Y-96024999D01*
X143925860Y-96025000D01*
X143925844Y-96025001D01*
X143824847Y-96035319D01*
X143661199Y-96089546D01*
X143661188Y-96089551D01*
X143514465Y-96180052D01*
X143514461Y-96180055D01*
X143392555Y-96301961D01*
X143392552Y-96301965D01*
X143302051Y-96448688D01*
X143302046Y-96448699D01*
X143247819Y-96612347D01*
X143237500Y-96713345D01*
X142045999Y-96713345D01*
X142045999Y-96712788D01*
X142035562Y-96610619D01*
X141980709Y-96445080D01*
X141980705Y-96445074D01*
X141980704Y-96445071D01*
X141889160Y-96296657D01*
X141889157Y-96296653D01*
X141831884Y-96239380D01*
X141798399Y-96178057D01*
X141803383Y-96108365D01*
X141831879Y-96064023D01*
X142226087Y-95669816D01*
X142287409Y-95636334D01*
X142313767Y-95633500D01*
X145242500Y-95633500D01*
X145309539Y-95653185D01*
X145355294Y-95705989D01*
X145366500Y-95757500D01*
X145366500Y-96022502D01*
X145364692Y-96028657D01*
X145365872Y-96034962D01*
X145354968Y-96061772D01*
X145346815Y-96089541D01*
X145341363Y-96095227D01*
X145339551Y-96099684D01*
X145323064Y-96114314D01*
X145313875Y-96123900D01*
X145310787Y-96126073D01*
X145234154Y-96173342D01*
X145211611Y-96195884D01*
X145202864Y-96202042D01*
X145179501Y-96209985D01*
X145157844Y-96221811D01*
X145147003Y-96221035D01*
X145136714Y-96224534D01*
X145112765Y-96218585D01*
X145088153Y-96216825D01*
X145077115Y-96209731D01*
X145068904Y-96207692D01*
X145061150Y-96199470D01*
X145043808Y-96188325D01*
X145035538Y-96180055D01*
X145035534Y-96180052D01*
X144888811Y-96089551D01*
X144888800Y-96089546D01*
X144725152Y-96035319D01*
X144624154Y-96025000D01*
X144525000Y-96025000D01*
X144525000Y-97974999D01*
X144624140Y-97974999D01*
X144624154Y-97974998D01*
X144725152Y-97964680D01*
X144888800Y-97910453D01*
X144888811Y-97910448D01*
X145035534Y-97819947D01*
X145043801Y-97811680D01*
X145105122Y-97778191D01*
X145174814Y-97783170D01*
X145202864Y-97797957D01*
X145211607Y-97804111D01*
X145234154Y-97826658D01*
X145310803Y-97873936D01*
X145313875Y-97876098D01*
X145333374Y-97900616D01*
X145354321Y-97923905D01*
X145355291Y-97928176D01*
X145357364Y-97930782D01*
X145358548Y-97942504D01*
X145366500Y-97977496D01*
X145366500Y-98062398D01*
X145390843Y-98184777D01*
X145390845Y-98184785D01*
X145438598Y-98300072D01*
X145438603Y-98300081D01*
X145507928Y-98403832D01*
X145507931Y-98403836D01*
X146596163Y-99492069D01*
X146596167Y-99492072D01*
X146699921Y-99561399D01*
X146699923Y-99561399D01*
X146699925Y-99561401D01*
X146781447Y-99595168D01*
X146815215Y-99609155D01*
X146815217Y-99609155D01*
X146815222Y-99609157D01*
X146937601Y-99633499D01*
X146937605Y-99633500D01*
X146937606Y-99633500D01*
X151062395Y-99633500D01*
X151062396Y-99633499D01*
X151184785Y-99609155D01*
X151300075Y-99561400D01*
X151403833Y-99492071D01*
X152217071Y-98678833D01*
X152286400Y-98575075D01*
X152334155Y-98459785D01*
X152358500Y-98337394D01*
X152358500Y-98212606D01*
X152358500Y-97977496D01*
X152378185Y-97910457D01*
X152417402Y-97871958D01*
X152490846Y-97826658D01*
X152614158Y-97703346D01*
X152705709Y-97554920D01*
X152760562Y-97389381D01*
X152771000Y-97287213D01*
X152770999Y-96878711D01*
X161149500Y-96878711D01*
X161149500Y-97121288D01*
X161181161Y-97361785D01*
X161243947Y-97596104D01*
X161336773Y-97820205D01*
X161336777Y-97820214D01*
X161340499Y-97826660D01*
X161458064Y-98030289D01*
X161458066Y-98030292D01*
X161458067Y-98030293D01*
X161605733Y-98222736D01*
X161605739Y-98222743D01*
X161777256Y-98394260D01*
X161777263Y-98394266D01*
X161890321Y-98481018D01*
X161969711Y-98541936D01*
X162179788Y-98663224D01*
X162403900Y-98756054D01*
X162638211Y-98818838D01*
X162818586Y-98842584D01*
X162878711Y-98850500D01*
X162878712Y-98850500D01*
X163121289Y-98850500D01*
X163169388Y-98844167D01*
X163361789Y-98818838D01*
X163596100Y-98756054D01*
X163820212Y-98663224D01*
X164030289Y-98541936D01*
X164222738Y-98394265D01*
X164394265Y-98222738D01*
X164541936Y-98030289D01*
X164663224Y-97820212D01*
X164756054Y-97596100D01*
X164818838Y-97361789D01*
X164850500Y-97121288D01*
X164850500Y-96878712D01*
X164850096Y-96875647D01*
X164833555Y-96750000D01*
X164818838Y-96638211D01*
X164756054Y-96403900D01*
X164663224Y-96179788D01*
X164541936Y-95969711D01*
X164394265Y-95777262D01*
X164394260Y-95777256D01*
X164222743Y-95605739D01*
X164222736Y-95605733D01*
X164030293Y-95458067D01*
X164030292Y-95458066D01*
X164030289Y-95458064D01*
X163820212Y-95336776D01*
X163820205Y-95336773D01*
X163596104Y-95243947D01*
X163361785Y-95181161D01*
X163121289Y-95149500D01*
X163121288Y-95149500D01*
X162878712Y-95149500D01*
X162878711Y-95149500D01*
X162638214Y-95181161D01*
X162403895Y-95243947D01*
X162179794Y-95336773D01*
X162179785Y-95336777D01*
X161969706Y-95458067D01*
X161777263Y-95605733D01*
X161777256Y-95605739D01*
X161605739Y-95777256D01*
X161605733Y-95777263D01*
X161458067Y-95969706D01*
X161336777Y-96179785D01*
X161336773Y-96179794D01*
X161243947Y-96403895D01*
X161181161Y-96638214D01*
X161149500Y-96878711D01*
X152770999Y-96878711D01*
X152770999Y-96712788D01*
X152760562Y-96610619D01*
X152705709Y-96445080D01*
X152705705Y-96445074D01*
X152705704Y-96445071D01*
X152614160Y-96296657D01*
X152614157Y-96296653D01*
X152490846Y-96173342D01*
X152490842Y-96173339D01*
X152342428Y-96081795D01*
X152342422Y-96081792D01*
X152342420Y-96081791D01*
X152325218Y-96076091D01*
X152176882Y-96026938D01*
X152074714Y-96016500D01*
X151375294Y-96016500D01*
X151375278Y-96016501D01*
X151273117Y-96026938D01*
X151107582Y-96081790D01*
X151107571Y-96081795D01*
X150959157Y-96173339D01*
X150959152Y-96173343D01*
X150944168Y-96188327D01*
X150882844Y-96221811D01*
X150813153Y-96216825D01*
X150768808Y-96188325D01*
X150760538Y-96180055D01*
X150760534Y-96180052D01*
X150613811Y-96089551D01*
X150613800Y-96089546D01*
X150450152Y-96035319D01*
X150349154Y-96025000D01*
X150250000Y-96025000D01*
X150250000Y-97974999D01*
X150349140Y-97974999D01*
X150349154Y-97974998D01*
X150450152Y-97964680D01*
X150613800Y-97910453D01*
X150613811Y-97910448D01*
X150760534Y-97819947D01*
X150768801Y-97811680D01*
X150830122Y-97778191D01*
X150899814Y-97783170D01*
X150928449Y-97798371D01*
X150936861Y-97804365D01*
X150959154Y-97826658D01*
X151026048Y-97867918D01*
X151029401Y-97870308D01*
X151048545Y-97894668D01*
X151069262Y-97917701D01*
X151069944Y-97921897D01*
X151072574Y-97925243D01*
X151075509Y-97956090D01*
X151080485Y-97986664D01*
X151078790Y-97990564D01*
X151079193Y-97994799D01*
X151064986Y-98022332D01*
X151052641Y-98050746D01*
X151047326Y-98056561D01*
X151047156Y-98056891D01*
X151046878Y-98057051D01*
X151045122Y-98058973D01*
X150773915Y-98330181D01*
X150712592Y-98363666D01*
X150686234Y-98366500D01*
X147313767Y-98366500D01*
X147246728Y-98346815D01*
X147226086Y-98330181D01*
X146831885Y-97935981D01*
X146798400Y-97874658D01*
X146803384Y-97804967D01*
X146831885Y-97760619D01*
X146889158Y-97703346D01*
X146980709Y-97554920D01*
X147035562Y-97389381D01*
X147046000Y-97287213D01*
X147046000Y-97286654D01*
X148962501Y-97286654D01*
X148972819Y-97387652D01*
X149027046Y-97551300D01*
X149027051Y-97551311D01*
X149117552Y-97698034D01*
X149117555Y-97698038D01*
X149239461Y-97819944D01*
X149239465Y-97819947D01*
X149386188Y-97910448D01*
X149386199Y-97910453D01*
X149549847Y-97964680D01*
X149650851Y-97974999D01*
X149750000Y-97974998D01*
X149750000Y-97250000D01*
X148962501Y-97250000D01*
X148962501Y-97286654D01*
X147046000Y-97286654D01*
X147045999Y-96713345D01*
X148962500Y-96713345D01*
X148962500Y-96750000D01*
X149750000Y-96750000D01*
X149750000Y-96024999D01*
X149650860Y-96025000D01*
X149650844Y-96025001D01*
X149549847Y-96035319D01*
X149386199Y-96089546D01*
X149386188Y-96089551D01*
X149239465Y-96180052D01*
X149239461Y-96180055D01*
X149117555Y-96301961D01*
X149117552Y-96301965D01*
X149027051Y-96448688D01*
X149027046Y-96448699D01*
X148972819Y-96612347D01*
X148962500Y-96713345D01*
X147045999Y-96713345D01*
X147045999Y-96712788D01*
X147035562Y-96610619D01*
X146980709Y-96445080D01*
X146980705Y-96445074D01*
X146980704Y-96445071D01*
X146889160Y-96296657D01*
X146889157Y-96296653D01*
X146765845Y-96173341D01*
X146692402Y-96128040D01*
X146645678Y-96076091D01*
X146633500Y-96022502D01*
X146633500Y-91525329D01*
X146653185Y-91458290D01*
X146701204Y-91414845D01*
X146722492Y-91403999D01*
X146898033Y-91276461D01*
X147051461Y-91123033D01*
X147178999Y-90947492D01*
X147277506Y-90754160D01*
X147288871Y-90719179D01*
X147328309Y-90661506D01*
X147392668Y-90634308D01*
X147406802Y-90633500D01*
X148062395Y-90633500D01*
X148062396Y-90633499D01*
X148184785Y-90609155D01*
X148300075Y-90561400D01*
X148403833Y-90492071D01*
X149492072Y-89403833D01*
X149561401Y-89300075D01*
X149603745Y-89197844D01*
X156250000Y-89197844D01*
X156256401Y-89257372D01*
X156256403Y-89257379D01*
X156306645Y-89392086D01*
X156306649Y-89392093D01*
X156392809Y-89507187D01*
X156392812Y-89507190D01*
X156507906Y-89593350D01*
X156507913Y-89593354D01*
X156642620Y-89643596D01*
X156642627Y-89643598D01*
X156702155Y-89649999D01*
X156702172Y-89650000D01*
X157750000Y-89650000D01*
X158250000Y-89650000D01*
X159297828Y-89650000D01*
X159297844Y-89649999D01*
X159357372Y-89643598D01*
X159357379Y-89643596D01*
X159492086Y-89593354D01*
X159492093Y-89593350D01*
X159607187Y-89507190D01*
X159607190Y-89507187D01*
X159693350Y-89392093D01*
X159693354Y-89392086D01*
X159743596Y-89257379D01*
X159743598Y-89257372D01*
X159749999Y-89197844D01*
X159750000Y-89197827D01*
X159750000Y-88250000D01*
X158250000Y-88250000D01*
X158250000Y-89650000D01*
X157750000Y-89650000D01*
X157750000Y-88250000D01*
X156250000Y-88250000D01*
X156250000Y-89197844D01*
X149603745Y-89197844D01*
X149609155Y-89184784D01*
X149614424Y-89158298D01*
X149633500Y-89062394D01*
X149633500Y-86937606D01*
X149609155Y-86815215D01*
X149603745Y-86802155D01*
X156250000Y-86802155D01*
X156250000Y-87750000D01*
X157750000Y-87750000D01*
X158250000Y-87750000D01*
X159750000Y-87750000D01*
X159750000Y-86802172D01*
X159749999Y-86802155D01*
X159743598Y-86742627D01*
X159743596Y-86742620D01*
X159693354Y-86607913D01*
X159693350Y-86607906D01*
X159607190Y-86492812D01*
X159607187Y-86492809D01*
X159492093Y-86406649D01*
X159492086Y-86406645D01*
X159357379Y-86356403D01*
X159357372Y-86356401D01*
X159297844Y-86350000D01*
X158250000Y-86350000D01*
X158250000Y-87750000D01*
X157750000Y-87750000D01*
X157750000Y-86350000D01*
X156702155Y-86350000D01*
X156642627Y-86356401D01*
X156642620Y-86356403D01*
X156507913Y-86406645D01*
X156507906Y-86406649D01*
X156392812Y-86492809D01*
X156392809Y-86492812D01*
X156306649Y-86607906D01*
X156306645Y-86607913D01*
X156256403Y-86742620D01*
X156256401Y-86742627D01*
X156250000Y-86802155D01*
X149603745Y-86802155D01*
X149578331Y-86740799D01*
X149561401Y-86699925D01*
X149552153Y-86686085D01*
X149492072Y-86596166D01*
X148669819Y-85773913D01*
X148636334Y-85712590D01*
X148633500Y-85686232D01*
X148633500Y-84757500D01*
X148653185Y-84690461D01*
X148705989Y-84644706D01*
X148757500Y-84633500D01*
X152062395Y-84633500D01*
X152062396Y-84633499D01*
X152184785Y-84609155D01*
X152300075Y-84561400D01*
X152403833Y-84492071D01*
X153032071Y-83863833D01*
X153101400Y-83760075D01*
X153149155Y-83644785D01*
X153173500Y-83522394D01*
X153173500Y-83397607D01*
X153173500Y-83397606D01*
X153173500Y-81525329D01*
X153193185Y-81458290D01*
X153241204Y-81414845D01*
X153262492Y-81403999D01*
X153438033Y-81276461D01*
X153591461Y-81123033D01*
X153718999Y-80947492D01*
X153817506Y-80754160D01*
X153884557Y-80547800D01*
X153913456Y-80365338D01*
X153918500Y-80333495D01*
X153918500Y-79666504D01*
X153884557Y-79452203D01*
X153884557Y-79452200D01*
X153817506Y-79245840D01*
X153718999Y-79052508D01*
X153591461Y-78876967D01*
X153438033Y-78723539D01*
X153262492Y-78596001D01*
X153136203Y-78531654D01*
X153069162Y-78497495D01*
X153069161Y-78497494D01*
X153069160Y-78497494D01*
X152862800Y-78430443D01*
X152862798Y-78430442D01*
X152862796Y-78430442D01*
X152648495Y-78396500D01*
X152648490Y-78396500D01*
X152431510Y-78396500D01*
X152431505Y-78396500D01*
X152217203Y-78430442D01*
X152010837Y-78497495D01*
X151817507Y-78596001D01*
X151717355Y-78668766D01*
X151641967Y-78723539D01*
X151641965Y-78723541D01*
X151641964Y-78723541D01*
X151488541Y-78876964D01*
X151488541Y-78876965D01*
X151488539Y-78876967D01*
X151435879Y-78949447D01*
X151365064Y-79046915D01*
X151309734Y-79089580D01*
X151240120Y-79095559D01*
X151178325Y-79062953D01*
X151164428Y-79046915D01*
X151044974Y-78882503D01*
X151044974Y-78882502D01*
X150892497Y-78730025D01*
X150718036Y-78603271D01*
X150525899Y-78505372D01*
X150320805Y-78438733D01*
X150250000Y-78427518D01*
X150250000Y-79457290D01*
X150229661Y-79445548D01*
X150078333Y-79405000D01*
X149921667Y-79405000D01*
X149770339Y-79445548D01*
X149750000Y-79457290D01*
X149750000Y-78427518D01*
X149749999Y-78427518D01*
X149679194Y-78438733D01*
X149474100Y-78505372D01*
X149281963Y-78603271D01*
X149107506Y-78730022D01*
X148971482Y-78866046D01*
X148910159Y-78899530D01*
X148840467Y-78894546D01*
X148784534Y-78852674D01*
X148775969Y-78838369D01*
X148775906Y-78838409D01*
X148772115Y-78832263D01*
X148772115Y-78832262D01*
X148679030Y-78681348D01*
X148553652Y-78555970D01*
X148402738Y-78462885D01*
X148329851Y-78438733D01*
X148234427Y-78407113D01*
X148130545Y-78396500D01*
X146789462Y-78396500D01*
X146789446Y-78396501D01*
X146685572Y-78407113D01*
X146517264Y-78462884D01*
X146517259Y-78462886D01*
X146366346Y-78555971D01*
X146240971Y-78681346D01*
X146147886Y-78832259D01*
X146147884Y-78832264D01*
X146106655Y-78956686D01*
X146066882Y-79014131D01*
X146002366Y-79040954D01*
X145933590Y-79028639D01*
X145901268Y-79005363D01*
X145403836Y-78507931D01*
X145403832Y-78507928D01*
X145300081Y-78438603D01*
X145300072Y-78438598D01*
X145184785Y-78390845D01*
X145184777Y-78390843D01*
X145062398Y-78366500D01*
X145062394Y-78366500D01*
X144757500Y-78366500D01*
X144690461Y-78346815D01*
X144644706Y-78294011D01*
X144633500Y-78242500D01*
X144633500Y-77313766D01*
X144653185Y-77246727D01*
X144669819Y-77226085D01*
X146817069Y-75078836D01*
X146817072Y-75078833D01*
X146886401Y-74975075D01*
X146934155Y-74859784D01*
X146938076Y-74840075D01*
X146958500Y-74737394D01*
X146958500Y-74252500D01*
X146978185Y-74185461D01*
X147030989Y-74139706D01*
X147082500Y-74128500D01*
X149573638Y-74128500D01*
X149573654Y-74128499D01*
X149600692Y-74125591D01*
X149634201Y-74121989D01*
X149771204Y-74070889D01*
X149888261Y-73983261D01*
X149975889Y-73866204D01*
X150026989Y-73729201D01*
X150030591Y-73695692D01*
X150033499Y-73668654D01*
X150033500Y-73668637D01*
X150033500Y-67771362D01*
X150033499Y-67771345D01*
X150029139Y-67730797D01*
X150026989Y-67710799D01*
X150017983Y-67686654D01*
X149984171Y-67596001D01*
X149975889Y-67573796D01*
X149888261Y-67456739D01*
X149771204Y-67369111D01*
X149750737Y-67361477D01*
X149634203Y-67318011D01*
X149573654Y-67311500D01*
X149573638Y-67311500D01*
X143076362Y-67311500D01*
X143076345Y-67311500D01*
X143015797Y-67318011D01*
X143015795Y-67318011D01*
X142878795Y-67369111D01*
X142761739Y-67456739D01*
X142674111Y-67573795D01*
X142623011Y-67710795D01*
X142623011Y-67710797D01*
X142616500Y-67771345D01*
X142616500Y-73668654D01*
X142623011Y-73729202D01*
X142623011Y-73729204D01*
X142651321Y-73805103D01*
X142674111Y-73866204D01*
X142761739Y-73983261D01*
X142878796Y-74070889D01*
X143015799Y-74121989D01*
X143043050Y-74124918D01*
X143076345Y-74128499D01*
X143076362Y-74128500D01*
X145567500Y-74128500D01*
X145576185Y-74131050D01*
X145585147Y-74129762D01*
X145609187Y-74140740D01*
X145634539Y-74148185D01*
X145640466Y-74155025D01*
X145648703Y-74158787D01*
X145662992Y-74181021D01*
X145680294Y-74200989D01*
X145682581Y-74211503D01*
X145686477Y-74217565D01*
X145691500Y-74252500D01*
X145691500Y-74361233D01*
X145671815Y-74428272D01*
X145655180Y-74448914D01*
X143596167Y-76507929D01*
X143552047Y-76552049D01*
X143507927Y-76596168D01*
X143438603Y-76699918D01*
X143438598Y-76699927D01*
X143390845Y-76815214D01*
X143390843Y-76815222D01*
X143366500Y-76937601D01*
X143366500Y-78242500D01*
X143363949Y-78251185D01*
X143365238Y-78260147D01*
X143354259Y-78284187D01*
X143346815Y-78309539D01*
X143339974Y-78315466D01*
X143336213Y-78323703D01*
X143313978Y-78337992D01*
X143294011Y-78355294D01*
X143283496Y-78357581D01*
X143277435Y-78361477D01*
X143242500Y-78366500D01*
X143202935Y-78366500D01*
X143137839Y-78348039D01*
X143072735Y-78307883D01*
X142904428Y-78252113D01*
X142800545Y-78241500D01*
X139699462Y-78241500D01*
X139699446Y-78241501D01*
X139595572Y-78252113D01*
X139427264Y-78307884D01*
X139427259Y-78307886D01*
X139276346Y-78400971D01*
X139150971Y-78526346D01*
X139057886Y-78677259D01*
X139057884Y-78677264D01*
X139002113Y-78845572D01*
X138991500Y-78949447D01*
X138991500Y-81050537D01*
X138991501Y-81050553D01*
X139002113Y-81154427D01*
X139040401Y-81269974D01*
X139057885Y-81322738D01*
X139150970Y-81473652D01*
X139276348Y-81599030D01*
X139427262Y-81692115D01*
X139595574Y-81747887D01*
X139699455Y-81758500D01*
X142800544Y-81758499D01*
X142904426Y-81747887D01*
X143072738Y-81692115D01*
X143223652Y-81599030D01*
X143349030Y-81473652D01*
X143442115Y-81322738D01*
X143497887Y-81154426D01*
X143508500Y-81050545D01*
X143508499Y-79757499D01*
X143528184Y-79690461D01*
X143580987Y-79644706D01*
X143632499Y-79633500D01*
X143937606Y-79633500D01*
X144686234Y-79633500D01*
X144753273Y-79653185D01*
X144773915Y-79669819D01*
X145596163Y-80492069D01*
X145596166Y-80492072D01*
X145689525Y-80554452D01*
X145699925Y-80561401D01*
X145775941Y-80592887D01*
X145815215Y-80609155D01*
X145937606Y-80633500D01*
X145937607Y-80633500D01*
X145970896Y-80633500D01*
X145983977Y-80636359D01*
X146003353Y-80646963D01*
X146024540Y-80653185D01*
X146033397Y-80663407D01*
X146045268Y-80669904D01*
X146055835Y-80689301D01*
X146070295Y-80705989D01*
X146073864Y-80722396D01*
X146078693Y-80731260D01*
X146077968Y-80741259D01*
X146081501Y-80757500D01*
X146081501Y-80895553D01*
X146092113Y-80999427D01*
X146133072Y-81123034D01*
X146147885Y-81167738D01*
X146240970Y-81318652D01*
X146366348Y-81444030D01*
X146517262Y-81537115D01*
X146685574Y-81592887D01*
X146685573Y-81592887D01*
X146690397Y-81593379D01*
X146715101Y-81595903D01*
X146779792Y-81622297D01*
X146819945Y-81679477D01*
X146826500Y-81719261D01*
X146826500Y-83522398D01*
X146850843Y-83644777D01*
X146850845Y-83644785D01*
X146898598Y-83760072D01*
X146898603Y-83760081D01*
X146967928Y-83863832D01*
X146967931Y-83863836D01*
X147330181Y-84226085D01*
X147363666Y-84287408D01*
X147366500Y-84313766D01*
X147366500Y-86062398D01*
X147390843Y-86184777D01*
X147390845Y-86184785D01*
X147438598Y-86300072D01*
X147438603Y-86300081D01*
X147507928Y-86403832D01*
X147507931Y-86403836D01*
X148330181Y-87226085D01*
X148363666Y-87287408D01*
X148366500Y-87313766D01*
X148366500Y-88686233D01*
X148346815Y-88753272D01*
X148330181Y-88773914D01*
X147773915Y-89330181D01*
X147712592Y-89363666D01*
X147686234Y-89366500D01*
X147406802Y-89366500D01*
X147339763Y-89346815D01*
X147294008Y-89294011D01*
X147288871Y-89280819D01*
X147281847Y-89259202D01*
X147277506Y-89245840D01*
X147277504Y-89245837D01*
X147277504Y-89245835D01*
X147184038Y-89062398D01*
X147178999Y-89052508D01*
X147051461Y-88876967D01*
X146898033Y-88723539D01*
X146722492Y-88596001D01*
X146529160Y-88497494D01*
X146322800Y-88430443D01*
X146322798Y-88430442D01*
X146322796Y-88430442D01*
X146108495Y-88396500D01*
X146108490Y-88396500D01*
X145891510Y-88396500D01*
X145891505Y-88396500D01*
X145677203Y-88430442D01*
X145470837Y-88497495D01*
X145277507Y-88596001D01*
X145101968Y-88723538D01*
X144967366Y-88858140D01*
X144906043Y-88891624D01*
X144836351Y-88886640D01*
X144780418Y-88844768D01*
X144774147Y-88835555D01*
X144679032Y-88681351D01*
X144679029Y-88681347D01*
X144553653Y-88555971D01*
X144553652Y-88555970D01*
X144402738Y-88462885D01*
X144359927Y-88448699D01*
X144234426Y-88407112D01*
X144204897Y-88404096D01*
X144140205Y-88377699D01*
X144100054Y-88320518D01*
X144093500Y-88280738D01*
X144093500Y-86397605D01*
X144093499Y-86397601D01*
X144085304Y-86356401D01*
X144069155Y-86275215D01*
X144021400Y-86159925D01*
X144021399Y-86159923D01*
X144021399Y-86159922D01*
X143952073Y-86056168D01*
X143952067Y-86056161D01*
X142403836Y-84507931D01*
X142403832Y-84507928D01*
X142300081Y-84438603D01*
X142300072Y-84438598D01*
X142184785Y-84390845D01*
X142184777Y-84390843D01*
X142062398Y-84366500D01*
X142062394Y-84366500D01*
X140937606Y-84366500D01*
X140937601Y-84366500D01*
X140815222Y-84390843D01*
X140815214Y-84390845D01*
X140799537Y-84397339D01*
X140783859Y-84403833D01*
X140699924Y-84438599D01*
X140699921Y-84438600D01*
X140596167Y-84507927D01*
X140596163Y-84507930D01*
X139773915Y-85330181D01*
X139712592Y-85363666D01*
X139686234Y-85366500D01*
X136313766Y-85366500D01*
X136246727Y-85346815D01*
X136226085Y-85330181D01*
X132766047Y-81870143D01*
X132732562Y-81808820D01*
X132737546Y-81739128D01*
X132779418Y-81683195D01*
X132844882Y-81658778D01*
X132913155Y-81673630D01*
X132918825Y-81676924D01*
X132930869Y-81684353D01*
X132930880Y-81684358D01*
X133097302Y-81739505D01*
X133097309Y-81739506D01*
X133200019Y-81749999D01*
X134499999Y-81749999D01*
X135000000Y-81749999D01*
X136299972Y-81749999D01*
X136299986Y-81749998D01*
X136402697Y-81739505D01*
X136569119Y-81684358D01*
X136569124Y-81684356D01*
X136718345Y-81592315D01*
X136842315Y-81468345D01*
X136934356Y-81319124D01*
X136934358Y-81319119D01*
X136989505Y-81152697D01*
X136989506Y-81152690D01*
X136999999Y-81049986D01*
X137000000Y-81049973D01*
X137000000Y-80250000D01*
X135000000Y-80250000D01*
X135000000Y-81749999D01*
X134499999Y-81749999D01*
X134500000Y-81749998D01*
X134500000Y-79750000D01*
X135000000Y-79750000D01*
X136999999Y-79750000D01*
X136999999Y-78950028D01*
X136999998Y-78950013D01*
X136989505Y-78847302D01*
X136934358Y-78680880D01*
X136934356Y-78680875D01*
X136842315Y-78531654D01*
X136718345Y-78407684D01*
X136569124Y-78315643D01*
X136569119Y-78315641D01*
X136402697Y-78260494D01*
X136402690Y-78260493D01*
X136299986Y-78250000D01*
X135000000Y-78250000D01*
X135000000Y-79750000D01*
X134500000Y-79750000D01*
X134500000Y-78250000D01*
X133200028Y-78250000D01*
X133200012Y-78250001D01*
X133097302Y-78260494D01*
X132930880Y-78315641D01*
X132930871Y-78315645D01*
X132822596Y-78382430D01*
X132755204Y-78400870D01*
X132688540Y-78379947D01*
X132643771Y-78326305D01*
X132633500Y-78276891D01*
X132633500Y-77313766D01*
X132653185Y-77246727D01*
X132669819Y-77226085D01*
X134492068Y-75403836D01*
X134492071Y-75403833D01*
X134561400Y-75300075D01*
X134609155Y-75184785D01*
X134633500Y-75062394D01*
X134633500Y-74937606D01*
X134633500Y-74337272D01*
X134653185Y-74270233D01*
X134705989Y-74224478D01*
X134744896Y-74213914D01*
X134779425Y-74210387D01*
X134947738Y-74154615D01*
X135098651Y-74061530D01*
X135224030Y-73936151D01*
X135317115Y-73785238D01*
X135372887Y-73616925D01*
X135383500Y-73513044D01*
X135383500Y-72910516D01*
X136091500Y-72910516D01*
X136091500Y-73089483D01*
X136126411Y-73264992D01*
X136126413Y-73265000D01*
X136194896Y-73430332D01*
X136194901Y-73430342D01*
X136294321Y-73579134D01*
X136294324Y-73579138D01*
X136420861Y-73705675D01*
X136420865Y-73705678D01*
X136569657Y-73805098D01*
X136569661Y-73805100D01*
X136569664Y-73805102D01*
X136735000Y-73873587D01*
X136910516Y-73908499D01*
X136910520Y-73908500D01*
X136910521Y-73908500D01*
X137089480Y-73908500D01*
X137089481Y-73908499D01*
X137265000Y-73873587D01*
X137430336Y-73805102D01*
X137579135Y-73705678D01*
X137614993Y-73669820D01*
X137676315Y-73636334D01*
X137702675Y-73633500D01*
X138308681Y-73633500D01*
X138375720Y-73653185D01*
X138421475Y-73705989D01*
X138424862Y-73714166D01*
X138474110Y-73846203D01*
X138474111Y-73846204D01*
X138561739Y-73963261D01*
X138678796Y-74050889D01*
X138815799Y-74101989D01*
X138843050Y-74104918D01*
X138876345Y-74108499D01*
X138876362Y-74108500D01*
X141173638Y-74108500D01*
X141173654Y-74108499D01*
X141200692Y-74105591D01*
X141234201Y-74101989D01*
X141371204Y-74050889D01*
X141488261Y-73963261D01*
X141575889Y-73846204D01*
X141626989Y-73709201D01*
X141631350Y-73668637D01*
X141633499Y-73648654D01*
X141633500Y-73648637D01*
X141633500Y-72351362D01*
X141633499Y-72351345D01*
X141630157Y-72320270D01*
X141626989Y-72290799D01*
X141625137Y-72285834D01*
X141598628Y-72214761D01*
X141575889Y-72153796D01*
X141488261Y-72036739D01*
X141371204Y-71949111D01*
X141342667Y-71938467D01*
X141234203Y-71898011D01*
X141173654Y-71891500D01*
X141173638Y-71891500D01*
X138876362Y-71891500D01*
X138876345Y-71891500D01*
X138815797Y-71898011D01*
X138815795Y-71898011D01*
X138678795Y-71949111D01*
X138561739Y-72036739D01*
X138474110Y-72153796D01*
X138424862Y-72285834D01*
X138382991Y-72341768D01*
X138317526Y-72366184D01*
X138308681Y-72366500D01*
X137702675Y-72366500D01*
X137635636Y-72346815D01*
X137614993Y-72330180D01*
X137579138Y-72294324D01*
X137579134Y-72294321D01*
X137430342Y-72194901D01*
X137430332Y-72194896D01*
X137265000Y-72126413D01*
X137264992Y-72126411D01*
X137089483Y-72091500D01*
X137089479Y-72091500D01*
X136910521Y-72091500D01*
X136910516Y-72091500D01*
X136735007Y-72126411D01*
X136734999Y-72126413D01*
X136569667Y-72194896D01*
X136569657Y-72194901D01*
X136420865Y-72294321D01*
X136420861Y-72294324D01*
X136294324Y-72420861D01*
X136294321Y-72420865D01*
X136194901Y-72569657D01*
X136194896Y-72569667D01*
X136126413Y-72734999D01*
X136126411Y-72735007D01*
X136091500Y-72910516D01*
X135383500Y-72910516D01*
X135383500Y-72486956D01*
X135372887Y-72383075D01*
X135342310Y-72290797D01*
X135317116Y-72214764D01*
X135317115Y-72214761D01*
X135224032Y-72063852D01*
X135224029Y-72063848D01*
X135098651Y-71938470D01*
X135098647Y-71938467D01*
X134947738Y-71845384D01*
X134947735Y-71845383D01*
X134779428Y-71789613D01*
X134675551Y-71779000D01*
X134675544Y-71779000D01*
X133324456Y-71779000D01*
X133324448Y-71779000D01*
X133220571Y-71789613D01*
X133052264Y-71845383D01*
X133052261Y-71845384D01*
X132901352Y-71938467D01*
X132901348Y-71938470D01*
X132775970Y-72063848D01*
X132775967Y-72063852D01*
X132682884Y-72214761D01*
X132682883Y-72214764D01*
X132627113Y-72383071D01*
X132616500Y-72486948D01*
X132616500Y-73513051D01*
X132627113Y-73616928D01*
X132682883Y-73785235D01*
X132682884Y-73785238D01*
X132775967Y-73936147D01*
X132775970Y-73936151D01*
X132901348Y-74061529D01*
X132901352Y-74061532D01*
X133052261Y-74154615D01*
X133052264Y-74154616D01*
X133131952Y-74181021D01*
X133220575Y-74210387D01*
X133255102Y-74213914D01*
X133319793Y-74240309D01*
X133359945Y-74297490D01*
X133366500Y-74337272D01*
X133366500Y-74686234D01*
X133346815Y-74753273D01*
X133330181Y-74773915D01*
X131596167Y-76507929D01*
X131552047Y-76552049D01*
X131507927Y-76596168D01*
X131438603Y-76699918D01*
X131438598Y-76699927D01*
X131390845Y-76815214D01*
X131390843Y-76815222D01*
X131366500Y-76937601D01*
X131366500Y-77892500D01*
X131346815Y-77959539D01*
X131294011Y-78005294D01*
X131242500Y-78016500D01*
X130700294Y-78016500D01*
X130700278Y-78016501D01*
X130598117Y-78026938D01*
X130432582Y-78081790D01*
X130432571Y-78081795D01*
X130284157Y-78173339D01*
X130175181Y-78282315D01*
X130169776Y-78285266D01*
X130166319Y-78290359D01*
X130139476Y-78301810D01*
X130113858Y-78315799D01*
X130107717Y-78315359D01*
X130102054Y-78317776D01*
X130073277Y-78312896D01*
X130044166Y-78310815D01*
X130037693Y-78306863D01*
X130033167Y-78306096D01*
X130013727Y-78292233D01*
X130003965Y-78286273D01*
X130001839Y-78284335D01*
X129890846Y-78173342D01*
X129857535Y-78152794D01*
X129848965Y-78144983D01*
X129836600Y-78124635D01*
X129820677Y-78106931D01*
X129817591Y-78093353D01*
X129812682Y-78085274D01*
X129812988Y-78073095D01*
X129808500Y-78053343D01*
X129808500Y-73138766D01*
X129828185Y-73071727D01*
X129844819Y-73051085D01*
X132201085Y-70694819D01*
X132262408Y-70661334D01*
X132288766Y-70658500D01*
X132543064Y-70658500D01*
X132610103Y-70678185D01*
X132655858Y-70730989D01*
X132660770Y-70743497D01*
X132682883Y-70810233D01*
X132682889Y-70810246D01*
X132775967Y-70961147D01*
X132775970Y-70961151D01*
X132901348Y-71086529D01*
X132901352Y-71086532D01*
X133052261Y-71179615D01*
X133052264Y-71179616D01*
X133220571Y-71235386D01*
X133220572Y-71235386D01*
X133220575Y-71235387D01*
X133324456Y-71246000D01*
X133324461Y-71246000D01*
X134675539Y-71246000D01*
X134675544Y-71246000D01*
X134779425Y-71235387D01*
X134947738Y-71179615D01*
X135098651Y-71086530D01*
X135224030Y-70961151D01*
X135317115Y-70810238D01*
X135339230Y-70743496D01*
X135379002Y-70686052D01*
X135443517Y-70659228D01*
X135456936Y-70658500D01*
X137037395Y-70658500D01*
X137037396Y-70658499D01*
X137159785Y-70634155D01*
X137275075Y-70586400D01*
X137378833Y-70517071D01*
X138446247Y-69449655D01*
X138507570Y-69416171D01*
X138577261Y-69421155D01*
X138608236Y-69438068D01*
X138678796Y-69490889D01*
X138815799Y-69541989D01*
X138843050Y-69544918D01*
X138876345Y-69548499D01*
X138876362Y-69548500D01*
X141173638Y-69548500D01*
X141173654Y-69548499D01*
X141200692Y-69545591D01*
X141234201Y-69541989D01*
X141371204Y-69490889D01*
X141488261Y-69403261D01*
X141575889Y-69286204D01*
X141626989Y-69149201D01*
X141630591Y-69115692D01*
X141633499Y-69088654D01*
X141633500Y-69088637D01*
X141633500Y-67791362D01*
X141633499Y-67791345D01*
X141630157Y-67760270D01*
X141626989Y-67730799D01*
X141624998Y-67725462D01*
X141576711Y-67596001D01*
X141575889Y-67593796D01*
X141488261Y-67476739D01*
X141371204Y-67389111D01*
X141357112Y-67383855D01*
X141234203Y-67338011D01*
X141173654Y-67331500D01*
X141173638Y-67331500D01*
X138876362Y-67331500D01*
X138876345Y-67331500D01*
X138815797Y-67338011D01*
X138815795Y-67338011D01*
X138678793Y-67389111D01*
X138678792Y-67389112D01*
X138570592Y-67470110D01*
X138505128Y-67494527D01*
X138436855Y-67479675D01*
X138387450Y-67430269D01*
X138374829Y-67389579D01*
X138374304Y-67389692D01*
X138373054Y-67383855D01*
X138372923Y-67383431D01*
X138372886Y-67383070D01*
X138317116Y-67214764D01*
X138317115Y-67214761D01*
X138224032Y-67063852D01*
X138224029Y-67063848D01*
X138098651Y-66938470D01*
X138098647Y-66938467D01*
X137947738Y-66845384D01*
X137947735Y-66845383D01*
X137779428Y-66789613D01*
X137675551Y-66779000D01*
X137675544Y-66779000D01*
X136324456Y-66779000D01*
X136324448Y-66779000D01*
X136220571Y-66789613D01*
X136052264Y-66845383D01*
X136052261Y-66845384D01*
X135901352Y-66938467D01*
X135901348Y-66938470D01*
X135775970Y-67063848D01*
X135775967Y-67063852D01*
X135682889Y-67214753D01*
X135682883Y-67214766D01*
X135660770Y-67281503D01*
X135646900Y-67301535D01*
X135636777Y-67323703D01*
X135627365Y-67329751D01*
X135620998Y-67338948D01*
X135598498Y-67348302D01*
X135577999Y-67361477D01*
X135560899Y-67363935D01*
X135556483Y-67365772D01*
X135543064Y-67366500D01*
X135313767Y-67366500D01*
X135246728Y-67346815D01*
X135226086Y-67330181D01*
X134678040Y-66782135D01*
X134644555Y-66720812D01*
X134649539Y-66651120D01*
X134678039Y-66606773D01*
X134705678Y-66579135D01*
X134805102Y-66430336D01*
X134873587Y-66265000D01*
X134908500Y-66089479D01*
X134908500Y-65910521D01*
X134873587Y-65735000D01*
X134805102Y-65569664D01*
X134805100Y-65569661D01*
X134805098Y-65569657D01*
X134705678Y-65420865D01*
X134705675Y-65420861D01*
X134579138Y-65294324D01*
X134579134Y-65294321D01*
X134430342Y-65194901D01*
X134430332Y-65194896D01*
X134265000Y-65126413D01*
X134264992Y-65126411D01*
X134089483Y-65091500D01*
X134089479Y-65091500D01*
X133910521Y-65091500D01*
X133910516Y-65091500D01*
X133735007Y-65126411D01*
X133734999Y-65126413D01*
X133569667Y-65194896D01*
X133569657Y-65194901D01*
X133420865Y-65294321D01*
X133420861Y-65294324D01*
X133294324Y-65420861D01*
X133294321Y-65420865D01*
X133194901Y-65569657D01*
X133194896Y-65569667D01*
X133126413Y-65734999D01*
X133126411Y-65735007D01*
X133091500Y-65910516D01*
X133091500Y-66089483D01*
X133126411Y-66264992D01*
X133126413Y-66265000D01*
X133194896Y-66430332D01*
X133194901Y-66430342D01*
X133294321Y-66579134D01*
X133294324Y-66579138D01*
X133330180Y-66614993D01*
X133363666Y-66676315D01*
X133366500Y-66702675D01*
X133366500Y-67062398D01*
X133390843Y-67184777D01*
X133390845Y-67184785D01*
X133438598Y-67300072D01*
X133438603Y-67300081D01*
X133507928Y-67403832D01*
X133507931Y-67403836D01*
X134596163Y-68492069D01*
X134596167Y-68492072D01*
X134699921Y-68561399D01*
X134699923Y-68561400D01*
X134699925Y-68561401D01*
X134709674Y-68565439D01*
X134764077Y-68609280D01*
X134786142Y-68675575D01*
X134768863Y-68743274D01*
X134717725Y-68790884D01*
X134662221Y-68804000D01*
X133324448Y-68804000D01*
X133220571Y-68814613D01*
X133052264Y-68870383D01*
X133052261Y-68870384D01*
X132901352Y-68963467D01*
X132901348Y-68963470D01*
X132775970Y-69088848D01*
X132775967Y-69088852D01*
X132682889Y-69239753D01*
X132682883Y-69239766D01*
X132660770Y-69306503D01*
X132620998Y-69363948D01*
X132556483Y-69390772D01*
X132543064Y-69391500D01*
X132200293Y-69391500D01*
X132176102Y-69389117D01*
X132062398Y-69366500D01*
X132062394Y-69366500D01*
X132062393Y-69366500D01*
X131937606Y-69366500D01*
X131937601Y-69366500D01*
X131815222Y-69390843D01*
X131815214Y-69390845D01*
X131699927Y-69438598D01*
X131699918Y-69438603D01*
X131596167Y-69507928D01*
X131596165Y-69507930D01*
X130142949Y-70961147D01*
X128771167Y-72332929D01*
X128737912Y-72366184D01*
X128682927Y-72421168D01*
X128613603Y-72524918D01*
X128613598Y-72524927D01*
X128565845Y-72640214D01*
X128565843Y-72640222D01*
X128541500Y-72762601D01*
X128541500Y-78053343D01*
X128521815Y-78120382D01*
X128482600Y-78158880D01*
X128459152Y-78173343D01*
X128335839Y-78296657D01*
X128244295Y-78445071D01*
X128244290Y-78445082D01*
X128189438Y-78610617D01*
X128179000Y-78712779D01*
X125000500Y-78712779D01*
X125000500Y-69002561D01*
X125000606Y-68997437D01*
X125006049Y-68865832D01*
X125015815Y-68629716D01*
X125016177Y-68624098D01*
X125023531Y-68540031D01*
X125024003Y-68535582D01*
X125064218Y-68212959D01*
X125065138Y-68206842D01*
X125079003Y-68128210D01*
X125079735Y-68124417D01*
X125131254Y-67878711D01*
X127149500Y-67878711D01*
X127149500Y-68121288D01*
X127160758Y-68206807D01*
X127181162Y-68361789D01*
X127203605Y-68445548D01*
X127243947Y-68596104D01*
X127324628Y-68790884D01*
X127336776Y-68820212D01*
X127458064Y-69030289D01*
X127458066Y-69030292D01*
X127458067Y-69030293D01*
X127605733Y-69222736D01*
X127605739Y-69222743D01*
X127777256Y-69394260D01*
X127777263Y-69394266D01*
X127849449Y-69449656D01*
X127969711Y-69541936D01*
X128179788Y-69663224D01*
X128403900Y-69756054D01*
X128638211Y-69818838D01*
X128818586Y-69842584D01*
X128878711Y-69850500D01*
X128878712Y-69850500D01*
X129121289Y-69850500D01*
X129169388Y-69844167D01*
X129361789Y-69818838D01*
X129596100Y-69756054D01*
X129820212Y-69663224D01*
X130030289Y-69541936D01*
X130222738Y-69394265D01*
X130394265Y-69222738D01*
X130541936Y-69030289D01*
X130663224Y-68820212D01*
X130756054Y-68596100D01*
X130818838Y-68361789D01*
X130850500Y-68121288D01*
X130850500Y-67878712D01*
X130818838Y-67638211D01*
X130756054Y-67403900D01*
X130756027Y-67403836D01*
X130727882Y-67335886D01*
X130663224Y-67179788D01*
X130541936Y-66969711D01*
X130394265Y-66777262D01*
X130394260Y-66777256D01*
X130222743Y-66605739D01*
X130222736Y-66605733D01*
X130030293Y-66458067D01*
X130030292Y-66458066D01*
X130030289Y-66458064D01*
X129820212Y-66336776D01*
X129764661Y-66313766D01*
X129596104Y-66243947D01*
X129361785Y-66181161D01*
X129121289Y-66149500D01*
X129121288Y-66149500D01*
X128878712Y-66149500D01*
X128878711Y-66149500D01*
X128638214Y-66181161D01*
X128403895Y-66243947D01*
X128179794Y-66336773D01*
X128179785Y-66336777D01*
X127969706Y-66458067D01*
X127777263Y-66605733D01*
X127777256Y-66605739D01*
X127605739Y-66777256D01*
X127605733Y-66777263D01*
X127458067Y-66969706D01*
X127336777Y-67179785D01*
X127336773Y-67179794D01*
X127243947Y-67403895D01*
X127181161Y-67638214D01*
X127149500Y-67878711D01*
X125131254Y-67878711D01*
X125147555Y-67800966D01*
X125149123Y-67794394D01*
X125167614Y-67725385D01*
X125168500Y-67722251D01*
X125265389Y-67396810D01*
X125267685Y-67389862D01*
X125287331Y-67335886D01*
X125288276Y-67333380D01*
X125416976Y-67003551D01*
X125420079Y-66996292D01*
X125434634Y-66965080D01*
X125435415Y-66963445D01*
X125600823Y-66625097D01*
X125605690Y-66616105D01*
X125811972Y-66269919D01*
X125817565Y-66261359D01*
X126051723Y-65933400D01*
X126057992Y-65925346D01*
X126318443Y-65617832D01*
X126325362Y-65610316D01*
X126610316Y-65325362D01*
X126617832Y-65318443D01*
X126925346Y-65057992D01*
X126933400Y-65051723D01*
X127261359Y-64817565D01*
X127269919Y-64811972D01*
X127616116Y-64605683D01*
X127625097Y-64600823D01*
X127963445Y-64435415D01*
X127965080Y-64434634D01*
X127996292Y-64420079D01*
X128003551Y-64416976D01*
X128333380Y-64288276D01*
X128335886Y-64287331D01*
X128389862Y-64267685D01*
X128396810Y-64265389D01*
X128722251Y-64168500D01*
X128725385Y-64167614D01*
X128794394Y-64149123D01*
X128800974Y-64147553D01*
X129124428Y-64079732D01*
X129128210Y-64079003D01*
X129206842Y-64065138D01*
X129212959Y-64064218D01*
X129535582Y-64024003D01*
X129540031Y-64023531D01*
X129624098Y-64016177D01*
X129629716Y-64015815D01*
X129997437Y-64000605D01*
X130002561Y-64000500D01*
X135608289Y-64000500D01*
X135675328Y-64020185D01*
G37*
%TD.AperFunction*%
%TD*%
M02*
