%TF.GenerationSoftware,KiCad,Pcbnew,9.0.9*%
%TF.CreationDate,2026-09-25T14:14:34-05:00*%
%TF.ProjectId,Horns_v1.0,486f726e-735f-4763-912e-302e6b696361,0.0*%
%TF.SameCoordinates,Original*%
%TF.FileFunction,Copper,L2,Bot*%
%TF.FilePolarity,Positive*%
%FSLAX46Y46*%
G04 Gerber Fmt 4.6, Leading zero omitted, Abs format (unit mm)*
G04 Created by KiCad (PCBNEW 9.0.9) date 2026-09-25 14:14:34*
%MOMM*%
%LPD*%
G01*
G04 APERTURE LIST*
G04 Aperture macros list*
%AMRoundRect*
0 Rectangle with rounded corners*
0 $1 Rounding radius*
0 $2 $3 $4 $5 $6 $7 $8 $9 X,Y pos of 4 corners*
0 Add a 4 corners polygon primitive as box body*
4,1,4,$2,$3,$4,$5,$6,$7,$8,$9,$2,$3,0*
0 Add four circle primitives for the rounded corners*
1,1,$1+$1,$2,$3*
1,1,$1+$1,$4,$5*
1,1,$1+$1,$6,$7*
1,1,$1+$1,$8,$9*
0 Add four rect primitives between the rounded corners*
20,1,$1+$1,$2,$3,$4,$5,0*
20,1,$1+$1,$4,$5,$6,$7,0*
20,1,$1+$1,$6,$7,$8,$9,0*
20,1,$1+$1,$8,$9,$2,$3,0*%
G04 Aperture macros list end*
%TA.AperFunction,ComponentPad*%
%ADD10RoundRect,0.250000X-0.620000X-0.845000X0.620000X-0.845000X0.620000X0.845000X-0.620000X0.845000X0*%
%TD*%
%TA.AperFunction,ComponentPad*%
%ADD11O,1.740000X2.190000*%
%TD*%
%TA.AperFunction,ViaPad*%
%ADD12C,0.800000*%
%TD*%
%TA.AperFunction,Conductor*%
%ADD13C,0.250000*%
%TD*%
G04 APERTURE END LIST*
D10*
%TO.P,J1,1,Pin_1*%
%TO.N,GND*%
X147460000Y-80000000D03*
D11*
%TO.P,J1,2,Pin_2*%
%TO.N,+24V*%
X150000000Y-80000000D03*
%TO.P,J1,3,Pin_3*%
%TO.N,GND*%
X152540000Y-80000000D03*
%TD*%
D10*
%TO.P,J2,1,Pin_1*%
%TO.N,/Horn_Ctl*%
X143460000Y-90000000D03*
D11*
%TO.P,J2,2,Pin_2*%
%TO.N,GND*%
X146000000Y-90000000D03*
%TD*%
D10*
%TO.P,J3,1,Pin_1*%
%TO.N,Net-(J3-Pin_1)*%
X158460000Y-79000000D03*
D11*
%TO.P,J3,2,Pin_2*%
%TO.N,/Horn_In*%
X161000000Y-79000000D03*
%TD*%
D10*
%TO.P,J4,1,Pin_1*%
%TO.N,+24V*%
X153460000Y-69000000D03*
D11*
%TO.P,J4,2,Pin_2*%
%TO.N,Net-(J3-Pin_1)*%
X156000000Y-69000000D03*
%TD*%
D12*
%TO.N,+24V*%
X138000000Y-85000000D03*
X136000000Y-88000000D03*
X138000000Y-87000000D03*
X133000000Y-90000000D03*
%TO.N,Net-(Q1-S)*%
X137000000Y-73000000D03*
X134000000Y-66000000D03*
%TD*%
D13*
%TO.N,+24V*%
X134000000Y-90000000D02*
X133000000Y-90000000D01*
X138000000Y-85000000D02*
X138000000Y-87000000D01*
X136000000Y-88000000D02*
X134000000Y-90000000D01*
%TO.N,Net-(Q1-S)*%
X136000000Y-72000000D02*
X137000000Y-73000000D01*
X136000000Y-68000000D02*
X136000000Y-72000000D01*
X134000000Y-66000000D02*
X136000000Y-68000000D01*
%TD*%
%TA.AperFunction,Conductor*%
%TO.N,GND*%
G36*
X162002562Y-64000605D02*
G01*
X162370277Y-64015814D01*
X162375906Y-64016177D01*
X162459956Y-64023530D01*
X162464429Y-64024004D01*
X162787028Y-64064216D01*
X162793169Y-64065140D01*
X162871766Y-64078999D01*
X162875594Y-64079737D01*
X163199008Y-64147549D01*
X163205622Y-64149128D01*
X163274576Y-64167604D01*
X163277787Y-64168512D01*
X163603169Y-64265383D01*
X163610157Y-64267692D01*
X163664056Y-64287310D01*
X163666678Y-64288299D01*
X163996425Y-64416967D01*
X164003729Y-64420089D01*
X164034837Y-64434595D01*
X164036641Y-64435458D01*
X164374902Y-64600823D01*
X164383883Y-64605683D01*
X164712999Y-64801794D01*
X164730070Y-64811966D01*
X164738649Y-64817572D01*
X165066587Y-65051714D01*
X165074664Y-65058001D01*
X165155438Y-65126413D01*
X165382155Y-65318433D01*
X165389695Y-65325374D01*
X165674625Y-65610304D01*
X165681566Y-65617844D01*
X165780792Y-65735000D01*
X165929450Y-65910520D01*
X165941994Y-65925330D01*
X165948289Y-65933418D01*
X166182427Y-66261350D01*
X166188033Y-66269929D01*
X166394309Y-66616105D01*
X166399186Y-66625119D01*
X166564467Y-66963206D01*
X166565450Y-66965262D01*
X166579902Y-66996255D01*
X166583036Y-67003584D01*
X166711691Y-67333300D01*
X166712696Y-67335964D01*
X166732299Y-67389822D01*
X166734622Y-67396851D01*
X166831475Y-67722173D01*
X166832405Y-67725462D01*
X166850867Y-67794364D01*
X166852453Y-67801010D01*
X166920250Y-68124350D01*
X166921005Y-68128265D01*
X166934854Y-68206807D01*
X166935786Y-68213001D01*
X166975990Y-68535538D01*
X166976470Y-68540069D01*
X166983819Y-68624067D01*
X166984185Y-68629749D01*
X166999394Y-68997437D01*
X166999500Y-69002562D01*
X166999500Y-95997437D01*
X166999394Y-96002562D01*
X166984185Y-96370249D01*
X166983819Y-96375930D01*
X166983819Y-96375931D01*
X166976470Y-96459929D01*
X166975990Y-96464460D01*
X166935786Y-96786997D01*
X166934854Y-96793191D01*
X166921005Y-96871733D01*
X166920250Y-96875648D01*
X166852453Y-97198988D01*
X166850867Y-97205634D01*
X166832405Y-97274536D01*
X166831475Y-97277825D01*
X166734622Y-97603147D01*
X166732299Y-97610176D01*
X166712696Y-97664034D01*
X166711691Y-97666698D01*
X166583036Y-97996414D01*
X166579903Y-98003741D01*
X166579902Y-98003743D01*
X166565471Y-98034691D01*
X166564489Y-98036747D01*
X166399182Y-98374889D01*
X166394304Y-98383903D01*
X166188033Y-98730070D01*
X166182427Y-98738649D01*
X165948289Y-99066581D01*
X165941994Y-99074669D01*
X165681566Y-99382155D01*
X165674625Y-99389695D01*
X165389695Y-99674625D01*
X165382155Y-99681566D01*
X165074669Y-99941994D01*
X165066581Y-99948289D01*
X164738649Y-100182427D01*
X164730070Y-100188033D01*
X164383903Y-100394304D01*
X164374889Y-100399182D01*
X164036747Y-100564489D01*
X164034691Y-100565471D01*
X164003743Y-100579902D01*
X163996414Y-100583036D01*
X163666698Y-100711691D01*
X163664034Y-100712696D01*
X163610176Y-100732299D01*
X163603147Y-100734622D01*
X163277825Y-100831475D01*
X163274536Y-100832405D01*
X163205634Y-100850867D01*
X163198988Y-100852453D01*
X162875648Y-100920250D01*
X162871733Y-100921005D01*
X162793191Y-100934854D01*
X162786997Y-100935786D01*
X162464460Y-100975990D01*
X162459929Y-100976470D01*
X162375931Y-100983819D01*
X162370249Y-100984185D01*
X162002563Y-100999394D01*
X161997438Y-100999500D01*
X130002562Y-100999500D01*
X129997437Y-100999394D01*
X129629749Y-100984185D01*
X129624067Y-100983819D01*
X129540069Y-100976470D01*
X129535538Y-100975990D01*
X129213001Y-100935786D01*
X129206807Y-100934854D01*
X129128265Y-100921005D01*
X129124350Y-100920250D01*
X128801010Y-100852453D01*
X128794364Y-100850867D01*
X128725462Y-100832405D01*
X128722173Y-100831475D01*
X128396851Y-100734622D01*
X128389822Y-100732299D01*
X128335964Y-100712696D01*
X128333300Y-100711691D01*
X128003584Y-100583036D01*
X127996255Y-100579902D01*
X127965262Y-100565450D01*
X127963206Y-100564467D01*
X127625119Y-100399186D01*
X127616105Y-100394309D01*
X127269929Y-100188033D01*
X127261350Y-100182427D01*
X126933418Y-99948289D01*
X126925330Y-99941994D01*
X126617844Y-99681566D01*
X126610304Y-99674625D01*
X126325374Y-99389695D01*
X126318433Y-99382155D01*
X126058005Y-99074669D01*
X126051710Y-99066581D01*
X125817572Y-98738649D01*
X125811966Y-98730070D01*
X125801794Y-98712999D01*
X125605683Y-98383883D01*
X125600817Y-98374889D01*
X125435458Y-98036641D01*
X125434595Y-98034837D01*
X125420089Y-98003729D01*
X125416962Y-97996414D01*
X125348205Y-97820205D01*
X125288299Y-97666679D01*
X125287302Y-97664034D01*
X125267692Y-97610157D01*
X125265383Y-97603169D01*
X125168512Y-97277787D01*
X125167604Y-97274576D01*
X125149128Y-97205622D01*
X125147549Y-97199008D01*
X125080391Y-96878711D01*
X127149500Y-96878711D01*
X127149500Y-97121288D01*
X127181161Y-97361785D01*
X127243947Y-97596104D01*
X127336388Y-97819276D01*
X127336776Y-97820212D01*
X127458064Y-98030289D01*
X127458066Y-98030292D01*
X127458067Y-98030293D01*
X127605733Y-98222736D01*
X127605739Y-98222743D01*
X127777256Y-98394260D01*
X127777262Y-98394265D01*
X127969711Y-98541936D01*
X128179788Y-98663224D01*
X128403900Y-98756054D01*
X128638211Y-98818838D01*
X128818586Y-98842584D01*
X128878711Y-98850500D01*
X128878712Y-98850500D01*
X129121289Y-98850500D01*
X129169388Y-98844167D01*
X129361789Y-98818838D01*
X129596100Y-98756054D01*
X129820212Y-98663224D01*
X130030289Y-98541936D01*
X130222738Y-98394265D01*
X130394265Y-98222738D01*
X130541936Y-98030289D01*
X130663224Y-97820212D01*
X130756054Y-97596100D01*
X130818838Y-97361789D01*
X130850500Y-97121288D01*
X130850500Y-96878712D01*
X130850500Y-96878711D01*
X161149500Y-96878711D01*
X161149500Y-97121288D01*
X161181161Y-97361785D01*
X161243947Y-97596104D01*
X161336388Y-97819276D01*
X161336776Y-97820212D01*
X161458064Y-98030289D01*
X161458066Y-98030292D01*
X161458067Y-98030293D01*
X161605733Y-98222736D01*
X161605739Y-98222743D01*
X161777256Y-98394260D01*
X161777262Y-98394265D01*
X161969711Y-98541936D01*
X162179788Y-98663224D01*
X162403900Y-98756054D01*
X162638211Y-98818838D01*
X162818586Y-98842584D01*
X162878711Y-98850500D01*
X162878712Y-98850500D01*
X163121289Y-98850500D01*
X163169388Y-98844167D01*
X163361789Y-98818838D01*
X163596100Y-98756054D01*
X163820212Y-98663224D01*
X164030289Y-98541936D01*
X164222738Y-98394265D01*
X164394265Y-98222738D01*
X164541936Y-98030289D01*
X164663224Y-97820212D01*
X164756054Y-97596100D01*
X164818838Y-97361789D01*
X164850500Y-97121288D01*
X164850500Y-96878712D01*
X164850096Y-96875647D01*
X164818838Y-96638214D01*
X164818838Y-96638211D01*
X164756054Y-96403900D01*
X164663224Y-96179788D01*
X164541936Y-95969711D01*
X164394265Y-95777262D01*
X164394260Y-95777256D01*
X164222743Y-95605739D01*
X164222736Y-95605733D01*
X164030293Y-95458067D01*
X164030292Y-95458066D01*
X164030289Y-95458064D01*
X163820212Y-95336776D01*
X163820205Y-95336773D01*
X163596104Y-95243947D01*
X163361785Y-95181161D01*
X163121289Y-95149500D01*
X163121288Y-95149500D01*
X162878712Y-95149500D01*
X162878711Y-95149500D01*
X162638214Y-95181161D01*
X162403895Y-95243947D01*
X162179794Y-95336773D01*
X162179785Y-95336777D01*
X161969706Y-95458067D01*
X161777263Y-95605733D01*
X161777256Y-95605739D01*
X161605739Y-95777256D01*
X161605733Y-95777263D01*
X161458067Y-95969706D01*
X161336777Y-96179785D01*
X161336773Y-96179794D01*
X161243947Y-96403895D01*
X161181161Y-96638214D01*
X161149500Y-96878711D01*
X130850500Y-96878711D01*
X130850096Y-96875647D01*
X130818838Y-96638214D01*
X130818838Y-96638211D01*
X130756054Y-96403900D01*
X130663224Y-96179788D01*
X130541936Y-95969711D01*
X130394265Y-95777262D01*
X130394260Y-95777256D01*
X130222743Y-95605739D01*
X130222736Y-95605733D01*
X130030293Y-95458067D01*
X130030292Y-95458066D01*
X130030289Y-95458064D01*
X129820212Y-95336776D01*
X129820205Y-95336773D01*
X129596104Y-95243947D01*
X129361785Y-95181161D01*
X129121289Y-95149500D01*
X129121288Y-95149500D01*
X128878712Y-95149500D01*
X128878711Y-95149500D01*
X128638214Y-95181161D01*
X128403895Y-95243947D01*
X128179794Y-95336773D01*
X128179785Y-95336777D01*
X127969706Y-95458067D01*
X127777263Y-95605733D01*
X127777256Y-95605739D01*
X127605739Y-95777256D01*
X127605733Y-95777263D01*
X127458067Y-95969706D01*
X127336777Y-96179785D01*
X127336773Y-96179794D01*
X127243947Y-96403895D01*
X127181161Y-96638214D01*
X127149500Y-96878711D01*
X125080391Y-96878711D01*
X125079740Y-96875606D01*
X125078999Y-96871766D01*
X125065140Y-96793169D01*
X125064216Y-96787028D01*
X125024004Y-96464429D01*
X125023530Y-96459956D01*
X125016177Y-96375906D01*
X125015814Y-96370277D01*
X125000606Y-96002562D01*
X125000500Y-95997438D01*
X125000500Y-89910516D01*
X132091500Y-89910516D01*
X132091500Y-90089483D01*
X132126411Y-90264992D01*
X132126413Y-90265000D01*
X132194896Y-90430332D01*
X132194901Y-90430342D01*
X132294321Y-90579134D01*
X132294324Y-90579138D01*
X132420861Y-90705675D01*
X132420865Y-90705678D01*
X132569657Y-90805098D01*
X132569661Y-90805100D01*
X132569664Y-90805102D01*
X132735000Y-90873587D01*
X132910516Y-90908499D01*
X132910520Y-90908500D01*
X132910521Y-90908500D01*
X133089480Y-90908500D01*
X133089481Y-90908499D01*
X133265000Y-90873587D01*
X133430336Y-90805102D01*
X133579135Y-90705678D01*
X133614993Y-90669820D01*
X133676315Y-90636334D01*
X133702675Y-90633500D01*
X134062395Y-90633500D01*
X134062396Y-90633499D01*
X134184785Y-90609155D01*
X134300075Y-90561400D01*
X134403833Y-90492071D01*
X135791457Y-89104447D01*
X142081500Y-89104447D01*
X142081500Y-90895537D01*
X142081501Y-90895553D01*
X142092113Y-90999426D01*
X142147885Y-91167738D01*
X142240970Y-91318652D01*
X142366348Y-91444030D01*
X142517262Y-91537115D01*
X142685574Y-91592887D01*
X142789455Y-91603500D01*
X144130544Y-91603499D01*
X144234426Y-91592887D01*
X144402738Y-91537115D01*
X144553652Y-91444030D01*
X144679030Y-91318652D01*
X144772115Y-91167738D01*
X144772116Y-91167735D01*
X144775906Y-91161591D01*
X144777358Y-91162486D01*
X144817587Y-91116794D01*
X144884780Y-91097639D01*
X144951662Y-91117852D01*
X144971482Y-91133954D01*
X145107502Y-91269974D01*
X145281963Y-91396728D01*
X145474098Y-91494627D01*
X145679190Y-91561266D01*
X145750000Y-91572481D01*
X145750000Y-90542709D01*
X145770339Y-90554452D01*
X145921667Y-90595000D01*
X146078333Y-90595000D01*
X146229661Y-90554452D01*
X146250000Y-90542709D01*
X146250000Y-91572480D01*
X146320809Y-91561266D01*
X146525901Y-91494627D01*
X146718036Y-91396728D01*
X146892496Y-91269974D01*
X146892497Y-91269974D01*
X147044974Y-91117497D01*
X147044974Y-91117496D01*
X147171728Y-90943036D01*
X147269627Y-90750901D01*
X147336265Y-90545809D01*
X147370000Y-90332820D01*
X147370000Y-90250000D01*
X146542709Y-90250000D01*
X146554452Y-90229661D01*
X146595000Y-90078333D01*
X146595000Y-89921667D01*
X146554452Y-89770339D01*
X146542709Y-89750000D01*
X147370000Y-89750000D01*
X147370000Y-89667179D01*
X147336265Y-89454190D01*
X147269627Y-89249098D01*
X147171728Y-89056963D01*
X147044974Y-88882503D01*
X147044974Y-88882502D01*
X146892497Y-88730025D01*
X146718036Y-88603271D01*
X146525899Y-88505372D01*
X146320805Y-88438733D01*
X146250000Y-88427518D01*
X146250000Y-89457290D01*
X146229661Y-89445548D01*
X146078333Y-89405000D01*
X145921667Y-89405000D01*
X145770339Y-89445548D01*
X145750000Y-89457290D01*
X145750000Y-88427518D01*
X145749999Y-88427518D01*
X145679194Y-88438733D01*
X145474100Y-88505372D01*
X145281963Y-88603271D01*
X145107506Y-88730022D01*
X144971482Y-88866046D01*
X144910159Y-88899530D01*
X144840467Y-88894546D01*
X144784534Y-88852674D01*
X144775969Y-88838369D01*
X144775906Y-88838409D01*
X144772115Y-88832263D01*
X144772115Y-88832262D01*
X144679030Y-88681348D01*
X144553652Y-88555970D01*
X144402738Y-88462885D01*
X144304498Y-88430332D01*
X144234427Y-88407113D01*
X144130545Y-88396500D01*
X142789462Y-88396500D01*
X142789446Y-88396501D01*
X142685572Y-88407113D01*
X142517264Y-88462884D01*
X142517259Y-88462886D01*
X142366346Y-88555971D01*
X142240971Y-88681346D01*
X142147886Y-88832259D01*
X142147884Y-88832264D01*
X142092113Y-89000572D01*
X142081500Y-89104447D01*
X135791457Y-89104447D01*
X135951085Y-88944819D01*
X136012408Y-88911334D01*
X136038766Y-88908500D01*
X136089480Y-88908500D01*
X136089481Y-88908499D01*
X136265000Y-88873587D01*
X136430336Y-88805102D01*
X136579135Y-88705678D01*
X136705678Y-88579135D01*
X136805102Y-88430336D01*
X136873587Y-88265000D01*
X136908500Y-88089479D01*
X136908500Y-87910521D01*
X136873587Y-87735000D01*
X136805102Y-87569664D01*
X136805100Y-87569661D01*
X136805098Y-87569657D01*
X136705678Y-87420865D01*
X136705675Y-87420861D01*
X136579138Y-87294324D01*
X136579134Y-87294321D01*
X136430342Y-87194901D01*
X136430332Y-87194896D01*
X136265000Y-87126413D01*
X136264992Y-87126411D01*
X136089483Y-87091500D01*
X136089479Y-87091500D01*
X135910521Y-87091500D01*
X135910516Y-87091500D01*
X135735007Y-87126411D01*
X135734999Y-87126413D01*
X135569667Y-87194896D01*
X135569657Y-87194901D01*
X135420865Y-87294321D01*
X135420861Y-87294324D01*
X135294324Y-87420861D01*
X135294321Y-87420865D01*
X135194901Y-87569657D01*
X135194896Y-87569667D01*
X135126413Y-87734999D01*
X135126411Y-87735007D01*
X135091500Y-87910516D01*
X135091500Y-87961234D01*
X135071815Y-88028273D01*
X135055181Y-88048915D01*
X133782135Y-89321960D01*
X133720812Y-89355445D01*
X133651120Y-89350461D01*
X133606773Y-89321960D01*
X133579135Y-89294322D01*
X133579134Y-89294321D01*
X133579133Y-89294320D01*
X133430342Y-89194901D01*
X133430332Y-89194896D01*
X133265000Y-89126413D01*
X133264992Y-89126411D01*
X133089483Y-89091500D01*
X133089479Y-89091500D01*
X132910521Y-89091500D01*
X132910516Y-89091500D01*
X132735007Y-89126411D01*
X132734999Y-89126413D01*
X132569667Y-89194896D01*
X132569657Y-89194901D01*
X132420865Y-89294321D01*
X132420861Y-89294324D01*
X132294324Y-89420861D01*
X132294321Y-89420865D01*
X132194901Y-89569657D01*
X132194896Y-89569667D01*
X132126413Y-89734999D01*
X132126411Y-89735007D01*
X132091500Y-89910516D01*
X125000500Y-89910516D01*
X125000500Y-84910516D01*
X137091500Y-84910516D01*
X137091500Y-85089483D01*
X137126411Y-85264992D01*
X137126413Y-85265000D01*
X137194896Y-85430332D01*
X137194901Y-85430342D01*
X137294321Y-85579134D01*
X137294324Y-85579138D01*
X137330180Y-85614993D01*
X137363666Y-85676315D01*
X137366500Y-85702675D01*
X137366500Y-86297324D01*
X137346815Y-86364363D01*
X137330181Y-86385005D01*
X137294324Y-86420861D01*
X137294321Y-86420865D01*
X137194901Y-86569657D01*
X137194896Y-86569667D01*
X137126413Y-86734999D01*
X137126411Y-86735007D01*
X137091500Y-86910516D01*
X137091500Y-87089483D01*
X137126411Y-87264992D01*
X137126413Y-87265000D01*
X137194896Y-87430332D01*
X137194901Y-87430342D01*
X137294321Y-87579134D01*
X137294324Y-87579138D01*
X137420861Y-87705675D01*
X137420865Y-87705678D01*
X137569657Y-87805098D01*
X137569661Y-87805100D01*
X137569664Y-87805102D01*
X137735000Y-87873587D01*
X137910516Y-87908499D01*
X137910520Y-87908500D01*
X137910521Y-87908500D01*
X138089480Y-87908500D01*
X138089481Y-87908499D01*
X138265000Y-87873587D01*
X138430336Y-87805102D01*
X138579135Y-87705678D01*
X138705678Y-87579135D01*
X138805102Y-87430336D01*
X138873587Y-87265000D01*
X138908500Y-87089479D01*
X138908500Y-86910521D01*
X138873587Y-86735000D01*
X138805102Y-86569664D01*
X138805100Y-86569661D01*
X138805098Y-86569657D01*
X138705678Y-86420865D01*
X138705675Y-86420861D01*
X138669819Y-86385005D01*
X138636334Y-86323682D01*
X138633500Y-86297324D01*
X138633500Y-85702675D01*
X138653185Y-85635636D01*
X138669820Y-85614993D01*
X138705675Y-85579138D01*
X138705678Y-85579135D01*
X138805102Y-85430336D01*
X138873587Y-85265000D01*
X138908500Y-85089479D01*
X138908500Y-84910521D01*
X138873587Y-84735000D01*
X138805102Y-84569664D01*
X138805100Y-84569661D01*
X138805098Y-84569657D01*
X138705678Y-84420865D01*
X138705675Y-84420861D01*
X138579138Y-84294324D01*
X138579134Y-84294321D01*
X138430342Y-84194901D01*
X138430332Y-84194896D01*
X138265000Y-84126413D01*
X138264992Y-84126411D01*
X138089483Y-84091500D01*
X138089479Y-84091500D01*
X137910521Y-84091500D01*
X137910516Y-84091500D01*
X137735007Y-84126411D01*
X137734999Y-84126413D01*
X137569667Y-84194896D01*
X137569657Y-84194901D01*
X137420865Y-84294321D01*
X137420861Y-84294324D01*
X137294324Y-84420861D01*
X137294321Y-84420865D01*
X137194901Y-84569657D01*
X137194896Y-84569667D01*
X137126413Y-84734999D01*
X137126411Y-84735007D01*
X137091500Y-84910516D01*
X125000500Y-84910516D01*
X125000500Y-79105013D01*
X146090000Y-79105013D01*
X146090000Y-79750000D01*
X146917291Y-79750000D01*
X146905548Y-79770339D01*
X146865000Y-79921667D01*
X146865000Y-80078333D01*
X146905548Y-80229661D01*
X146917291Y-80250000D01*
X146090001Y-80250000D01*
X146090001Y-80894986D01*
X146100494Y-80997697D01*
X146155641Y-81164119D01*
X146155643Y-81164124D01*
X146247684Y-81313345D01*
X146371654Y-81437315D01*
X146520875Y-81529356D01*
X146520880Y-81529358D01*
X146687302Y-81584505D01*
X146687309Y-81584506D01*
X146790019Y-81594999D01*
X147209999Y-81594999D01*
X147210000Y-81594998D01*
X147210000Y-80542709D01*
X147230339Y-80554452D01*
X147381667Y-80595000D01*
X147538333Y-80595000D01*
X147689661Y-80554452D01*
X147710000Y-80542709D01*
X147710000Y-81594999D01*
X148129972Y-81594999D01*
X148129986Y-81594998D01*
X148232697Y-81584505D01*
X148399119Y-81529358D01*
X148399124Y-81529356D01*
X148548345Y-81437315D01*
X148672317Y-81313343D01*
X148767968Y-81158267D01*
X148819916Y-81111542D01*
X148888878Y-81100319D01*
X148952960Y-81128162D01*
X148961188Y-81135682D01*
X149101967Y-81276461D01*
X149277508Y-81403999D01*
X149470840Y-81502506D01*
X149677200Y-81569557D01*
X149757566Y-81582285D01*
X149891505Y-81603500D01*
X149891510Y-81603500D01*
X150108495Y-81603500D01*
X150228421Y-81584505D01*
X150322800Y-81569557D01*
X150529160Y-81502506D01*
X150722492Y-81403999D01*
X150898033Y-81276461D01*
X151051461Y-81123033D01*
X151174936Y-80953084D01*
X151230265Y-80910419D01*
X151299878Y-80904440D01*
X151361673Y-80937046D01*
X151375571Y-80953084D01*
X151495025Y-81117496D01*
X151495025Y-81117497D01*
X151647502Y-81269974D01*
X151821963Y-81396728D01*
X152014098Y-81494627D01*
X152219190Y-81561266D01*
X152290000Y-81572481D01*
X152290000Y-80542709D01*
X152310339Y-80554452D01*
X152461667Y-80595000D01*
X152618333Y-80595000D01*
X152769661Y-80554452D01*
X152790000Y-80542709D01*
X152790000Y-81572480D01*
X152860809Y-81561266D01*
X153065901Y-81494627D01*
X153258036Y-81396728D01*
X153432496Y-81269974D01*
X153432497Y-81269974D01*
X153584974Y-81117497D01*
X153584974Y-81117496D01*
X153711728Y-80943036D01*
X153809627Y-80750901D01*
X153876265Y-80545809D01*
X153910000Y-80332820D01*
X153910000Y-80250000D01*
X153082709Y-80250000D01*
X153094452Y-80229661D01*
X153135000Y-80078333D01*
X153135000Y-79921667D01*
X153094452Y-79770339D01*
X153082709Y-79750000D01*
X153910000Y-79750000D01*
X153910000Y-79667179D01*
X153876265Y-79454190D01*
X153809627Y-79249098D01*
X153711728Y-79056963D01*
X153584974Y-78882503D01*
X153584974Y-78882502D01*
X153432497Y-78730025D01*
X153258036Y-78603271D01*
X153065899Y-78505372D01*
X152860805Y-78438733D01*
X152790000Y-78427518D01*
X152790000Y-79457290D01*
X152769661Y-79445548D01*
X152618333Y-79405000D01*
X152461667Y-79405000D01*
X152310339Y-79445548D01*
X152290000Y-79457290D01*
X152290000Y-78427518D01*
X152289999Y-78427518D01*
X152219194Y-78438733D01*
X152014100Y-78505372D01*
X151821963Y-78603271D01*
X151647503Y-78730025D01*
X151647502Y-78730025D01*
X151495024Y-78882503D01*
X151375571Y-79046915D01*
X151320240Y-79089580D01*
X151250627Y-79095559D01*
X151188832Y-79062953D01*
X151174935Y-79046914D01*
X151099839Y-78943553D01*
X151051461Y-78876967D01*
X150898033Y-78723539D01*
X150722492Y-78596001D01*
X150529160Y-78497494D01*
X150322800Y-78430443D01*
X150322798Y-78430442D01*
X150322796Y-78430442D01*
X150108495Y-78396500D01*
X150108490Y-78396500D01*
X149891510Y-78396500D01*
X149891505Y-78396500D01*
X149677203Y-78430442D01*
X149470837Y-78497495D01*
X149277507Y-78596001D01*
X149101968Y-78723538D01*
X148961188Y-78864318D01*
X148899865Y-78897802D01*
X148830173Y-78892818D01*
X148774240Y-78850946D01*
X148767968Y-78841732D01*
X148672317Y-78686656D01*
X148548345Y-78562684D01*
X148399124Y-78470643D01*
X148399119Y-78470641D01*
X148232697Y-78415494D01*
X148232690Y-78415493D01*
X148129986Y-78405000D01*
X147710000Y-78405000D01*
X147710000Y-79457290D01*
X147689661Y-79445548D01*
X147538333Y-79405000D01*
X147381667Y-79405000D01*
X147230339Y-79445548D01*
X147210000Y-79457290D01*
X147210000Y-78405000D01*
X146790028Y-78405000D01*
X146790012Y-78405001D01*
X146687302Y-78415494D01*
X146520880Y-78470641D01*
X146520875Y-78470643D01*
X146371654Y-78562684D01*
X146247684Y-78686654D01*
X146155643Y-78835875D01*
X146155641Y-78835880D01*
X146100494Y-79002302D01*
X146100493Y-79002309D01*
X146090000Y-79105013D01*
X125000500Y-79105013D01*
X125000500Y-78104447D01*
X157081500Y-78104447D01*
X157081500Y-79895537D01*
X157081501Y-79895553D01*
X157092113Y-79999427D01*
X157139310Y-80141860D01*
X157147885Y-80167738D01*
X157240970Y-80318652D01*
X157366348Y-80444030D01*
X157517262Y-80537115D01*
X157685574Y-80592887D01*
X157789455Y-80603500D01*
X159130544Y-80603499D01*
X159234426Y-80592887D01*
X159402738Y-80537115D01*
X159553652Y-80444030D01*
X159679030Y-80318652D01*
X159772115Y-80167738D01*
X159772115Y-80167735D01*
X159774146Y-80164444D01*
X159826094Y-80117720D01*
X159895057Y-80106497D01*
X159959139Y-80134341D01*
X159967366Y-80141860D01*
X160101967Y-80276461D01*
X160277508Y-80403999D01*
X160470840Y-80502506D01*
X160677200Y-80569557D01*
X160757566Y-80582285D01*
X160891505Y-80603500D01*
X160891510Y-80603500D01*
X161108495Y-80603500D01*
X161227551Y-80584642D01*
X161322800Y-80569557D01*
X161529160Y-80502506D01*
X161722492Y-80403999D01*
X161898033Y-80276461D01*
X162051461Y-80123033D01*
X162178999Y-79947492D01*
X162277506Y-79754160D01*
X162344557Y-79547800D01*
X162367174Y-79405000D01*
X162378500Y-79333495D01*
X162378500Y-78666504D01*
X162355871Y-78523636D01*
X162344557Y-78452200D01*
X162277506Y-78245840D01*
X162178999Y-78052508D01*
X162051461Y-77876967D01*
X161898033Y-77723539D01*
X161722492Y-77596001D01*
X161529160Y-77497494D01*
X161322800Y-77430443D01*
X161322798Y-77430442D01*
X161322796Y-77430442D01*
X161108495Y-77396500D01*
X161108490Y-77396500D01*
X160891510Y-77396500D01*
X160891505Y-77396500D01*
X160677203Y-77430442D01*
X160470837Y-77497495D01*
X160277507Y-77596001D01*
X160101968Y-77723538D01*
X159967366Y-77858140D01*
X159906043Y-77891624D01*
X159836351Y-77886640D01*
X159780418Y-77844768D01*
X159774147Y-77835555D01*
X159679032Y-77681351D01*
X159679029Y-77681347D01*
X159553653Y-77555971D01*
X159553652Y-77555970D01*
X159402738Y-77462885D01*
X159304830Y-77430442D01*
X159234427Y-77407113D01*
X159130545Y-77396500D01*
X157789462Y-77396500D01*
X157789446Y-77396501D01*
X157685572Y-77407113D01*
X157517264Y-77462884D01*
X157517259Y-77462886D01*
X157366346Y-77555971D01*
X157240971Y-77681346D01*
X157147886Y-77832259D01*
X157147884Y-77832264D01*
X157092113Y-78000572D01*
X157081500Y-78104447D01*
X125000500Y-78104447D01*
X125000500Y-69002561D01*
X125000606Y-68997437D01*
X125014293Y-68666510D01*
X125015815Y-68629716D01*
X125016177Y-68624098D01*
X125023531Y-68540031D01*
X125024003Y-68535582D01*
X125064218Y-68212959D01*
X125065138Y-68206842D01*
X125079003Y-68128210D01*
X125079735Y-68124417D01*
X125131254Y-67878711D01*
X127149500Y-67878711D01*
X127149500Y-68121288D01*
X127181161Y-68361785D01*
X127243947Y-68596104D01*
X127325578Y-68793178D01*
X127336776Y-68820212D01*
X127458064Y-69030289D01*
X127458066Y-69030292D01*
X127458067Y-69030293D01*
X127605733Y-69222736D01*
X127605739Y-69222743D01*
X127777256Y-69394260D01*
X127777262Y-69394265D01*
X127969711Y-69541936D01*
X128179788Y-69663224D01*
X128403900Y-69756054D01*
X128638211Y-69818838D01*
X128818586Y-69842584D01*
X128878711Y-69850500D01*
X128878712Y-69850500D01*
X129121289Y-69850500D01*
X129169388Y-69844167D01*
X129361789Y-69818838D01*
X129596100Y-69756054D01*
X129820212Y-69663224D01*
X130030289Y-69541936D01*
X130222738Y-69394265D01*
X130394265Y-69222738D01*
X130541936Y-69030289D01*
X130663224Y-68820212D01*
X130756054Y-68596100D01*
X130818838Y-68361789D01*
X130850500Y-68121288D01*
X130850500Y-67878712D01*
X130818838Y-67638211D01*
X130756054Y-67403900D01*
X130663224Y-67179788D01*
X130541936Y-66969711D01*
X130415628Y-66805103D01*
X130394266Y-66777263D01*
X130394260Y-66777256D01*
X130222743Y-66605739D01*
X130222736Y-66605733D01*
X130030293Y-66458067D01*
X130030292Y-66458066D01*
X130030289Y-66458064D01*
X129820212Y-66336776D01*
X129820205Y-66336773D01*
X129596104Y-66243947D01*
X129361785Y-66181161D01*
X129121289Y-66149500D01*
X129121288Y-66149500D01*
X128878712Y-66149500D01*
X128878711Y-66149500D01*
X128638214Y-66181161D01*
X128403895Y-66243947D01*
X128179794Y-66336773D01*
X128179785Y-66336777D01*
X127969706Y-66458067D01*
X127777263Y-66605733D01*
X127777256Y-66605739D01*
X127605739Y-66777256D01*
X127605733Y-66777263D01*
X127458067Y-66969706D01*
X127336777Y-67179785D01*
X127336773Y-67179794D01*
X127243947Y-67403895D01*
X127181161Y-67638214D01*
X127149500Y-67878711D01*
X125131254Y-67878711D01*
X125147555Y-67800966D01*
X125149123Y-67794394D01*
X125167614Y-67725385D01*
X125168500Y-67722251D01*
X125265389Y-67396810D01*
X125267685Y-67389862D01*
X125287331Y-67335886D01*
X125288276Y-67333380D01*
X125416976Y-67003551D01*
X125420079Y-66996292D01*
X125434634Y-66965080D01*
X125435415Y-66963445D01*
X125600823Y-66625097D01*
X125605690Y-66616105D01*
X125811972Y-66269919D01*
X125817565Y-66261359D01*
X126051723Y-65933400D01*
X126057979Y-65925361D01*
X126070552Y-65910516D01*
X133091500Y-65910516D01*
X133091500Y-66089483D01*
X133126411Y-66264992D01*
X133126413Y-66265000D01*
X133194896Y-66430332D01*
X133194901Y-66430342D01*
X133294321Y-66579134D01*
X133294324Y-66579138D01*
X133420861Y-66705675D01*
X133420865Y-66705678D01*
X133569657Y-66805098D01*
X133569661Y-66805100D01*
X133569664Y-66805102D01*
X133735000Y-66873587D01*
X133910516Y-66908499D01*
X133910520Y-66908500D01*
X133910521Y-66908500D01*
X133961234Y-66908500D01*
X134028273Y-66928185D01*
X134048915Y-66944819D01*
X135330181Y-68226085D01*
X135363666Y-68287408D01*
X135366500Y-68313766D01*
X135366500Y-72062398D01*
X135390843Y-72184777D01*
X135390845Y-72184785D01*
X135438598Y-72300072D01*
X135438603Y-72300081D01*
X135507928Y-72403832D01*
X135507931Y-72403836D01*
X136055181Y-72951085D01*
X136088666Y-73012408D01*
X136091500Y-73038766D01*
X136091500Y-73089483D01*
X136126411Y-73264992D01*
X136126413Y-73265000D01*
X136194896Y-73430332D01*
X136194901Y-73430342D01*
X136294321Y-73579134D01*
X136294324Y-73579138D01*
X136420861Y-73705675D01*
X136420865Y-73705678D01*
X136569657Y-73805098D01*
X136569661Y-73805100D01*
X136569664Y-73805102D01*
X136735000Y-73873587D01*
X136910516Y-73908499D01*
X136910520Y-73908500D01*
X136910521Y-73908500D01*
X137089480Y-73908500D01*
X137089481Y-73908499D01*
X137265000Y-73873587D01*
X137430336Y-73805102D01*
X137579135Y-73705678D01*
X137705678Y-73579135D01*
X137805102Y-73430336D01*
X137873587Y-73265000D01*
X137908500Y-73089479D01*
X137908500Y-72910521D01*
X137873587Y-72735000D01*
X137805102Y-72569664D01*
X137805100Y-72569661D01*
X137805098Y-72569657D01*
X137705678Y-72420865D01*
X137705675Y-72420861D01*
X137579138Y-72294324D01*
X137579134Y-72294321D01*
X137430342Y-72194901D01*
X137430332Y-72194896D01*
X137265000Y-72126413D01*
X137264992Y-72126411D01*
X137089483Y-72091500D01*
X137089479Y-72091500D01*
X137038767Y-72091500D01*
X136971728Y-72071815D01*
X136951086Y-72055181D01*
X136669819Y-71773914D01*
X136636334Y-71712591D01*
X136633500Y-71686233D01*
X136633500Y-68104447D01*
X152081500Y-68104447D01*
X152081500Y-69895537D01*
X152081501Y-69895553D01*
X152092113Y-69999427D01*
X152139310Y-70141860D01*
X152147885Y-70167738D01*
X152240970Y-70318652D01*
X152366348Y-70444030D01*
X152517262Y-70537115D01*
X152685574Y-70592887D01*
X152789455Y-70603500D01*
X154130544Y-70603499D01*
X154234426Y-70592887D01*
X154402738Y-70537115D01*
X154553652Y-70444030D01*
X154679030Y-70318652D01*
X154772115Y-70167738D01*
X154772115Y-70167735D01*
X154774146Y-70164444D01*
X154826094Y-70117720D01*
X154895057Y-70106497D01*
X154959139Y-70134341D01*
X154967366Y-70141860D01*
X155101967Y-70276461D01*
X155277508Y-70403999D01*
X155470840Y-70502506D01*
X155677200Y-70569557D01*
X155757566Y-70582285D01*
X155891505Y-70603500D01*
X155891510Y-70603500D01*
X156108495Y-70603500D01*
X156227551Y-70584642D01*
X156322800Y-70569557D01*
X156529160Y-70502506D01*
X156722492Y-70403999D01*
X156898033Y-70276461D01*
X157051461Y-70123033D01*
X157178999Y-69947492D01*
X157277506Y-69754160D01*
X157344557Y-69547800D01*
X157359642Y-69452551D01*
X157378500Y-69333495D01*
X157378500Y-68666504D01*
X157344557Y-68452203D01*
X157344557Y-68452200D01*
X157277506Y-68245840D01*
X157178999Y-68052508D01*
X157052728Y-67878711D01*
X161149500Y-67878711D01*
X161149500Y-68121288D01*
X161181161Y-68361785D01*
X161243947Y-68596104D01*
X161325578Y-68793178D01*
X161336776Y-68820212D01*
X161458064Y-69030289D01*
X161458066Y-69030292D01*
X161458067Y-69030293D01*
X161605733Y-69222736D01*
X161605739Y-69222743D01*
X161777256Y-69394260D01*
X161777262Y-69394265D01*
X161969711Y-69541936D01*
X162179788Y-69663224D01*
X162403900Y-69756054D01*
X162638211Y-69818838D01*
X162818586Y-69842584D01*
X162878711Y-69850500D01*
X162878712Y-69850500D01*
X163121289Y-69850500D01*
X163169388Y-69844167D01*
X163361789Y-69818838D01*
X163596100Y-69756054D01*
X163820212Y-69663224D01*
X164030289Y-69541936D01*
X164222738Y-69394265D01*
X164394265Y-69222738D01*
X164541936Y-69030289D01*
X164663224Y-68820212D01*
X164756054Y-68596100D01*
X164818838Y-68361789D01*
X164850500Y-68121288D01*
X164850500Y-67878712D01*
X164818838Y-67638211D01*
X164756054Y-67403900D01*
X164663224Y-67179788D01*
X164541936Y-66969711D01*
X164415628Y-66805103D01*
X164394266Y-66777263D01*
X164394260Y-66777256D01*
X164222743Y-66605739D01*
X164222736Y-66605733D01*
X164030293Y-66458067D01*
X164030292Y-66458066D01*
X164030289Y-66458064D01*
X163820212Y-66336776D01*
X163820205Y-66336773D01*
X163596104Y-66243947D01*
X163361785Y-66181161D01*
X163121289Y-66149500D01*
X163121288Y-66149500D01*
X162878712Y-66149500D01*
X162878711Y-66149500D01*
X162638214Y-66181161D01*
X162403895Y-66243947D01*
X162179794Y-66336773D01*
X162179785Y-66336777D01*
X161969706Y-66458067D01*
X161777263Y-66605733D01*
X161777256Y-66605739D01*
X161605739Y-66777256D01*
X161605733Y-66777263D01*
X161458067Y-66969706D01*
X161336777Y-67179785D01*
X161336773Y-67179794D01*
X161243947Y-67403895D01*
X161181161Y-67638214D01*
X161149500Y-67878711D01*
X157052728Y-67878711D01*
X157051461Y-67876967D01*
X156898033Y-67723539D01*
X156722492Y-67596001D01*
X156529160Y-67497494D01*
X156322800Y-67430443D01*
X156322798Y-67430442D01*
X156322796Y-67430442D01*
X156108495Y-67396500D01*
X156108490Y-67396500D01*
X155891510Y-67396500D01*
X155891505Y-67396500D01*
X155677203Y-67430442D01*
X155470837Y-67497495D01*
X155277507Y-67596001D01*
X155101968Y-67723538D01*
X154967366Y-67858140D01*
X154906043Y-67891624D01*
X154836351Y-67886640D01*
X154780418Y-67844768D01*
X154774147Y-67835555D01*
X154679032Y-67681351D01*
X154679029Y-67681347D01*
X154553653Y-67555971D01*
X154553652Y-67555970D01*
X154402738Y-67462885D01*
X154304830Y-67430442D01*
X154234427Y-67407113D01*
X154130545Y-67396500D01*
X152789462Y-67396500D01*
X152789446Y-67396501D01*
X152685572Y-67407113D01*
X152517264Y-67462884D01*
X152517259Y-67462886D01*
X152366346Y-67555971D01*
X152240971Y-67681346D01*
X152147886Y-67832259D01*
X152147884Y-67832264D01*
X152092113Y-68000572D01*
X152081500Y-68104447D01*
X136633500Y-68104447D01*
X136633500Y-67937605D01*
X136633499Y-67937601D01*
X136609155Y-67815215D01*
X136571181Y-67723538D01*
X136561401Y-67699927D01*
X136561396Y-67699918D01*
X136492072Y-67596168D01*
X136451874Y-67555970D01*
X136403833Y-67507929D01*
X134944819Y-66048915D01*
X134911334Y-65987592D01*
X134908500Y-65961234D01*
X134908500Y-65910520D01*
X134908499Y-65910516D01*
X134873588Y-65735007D01*
X134873587Y-65735000D01*
X134805102Y-65569664D01*
X134805100Y-65569661D01*
X134805098Y-65569657D01*
X134705678Y-65420865D01*
X134705675Y-65420861D01*
X134579138Y-65294324D01*
X134579134Y-65294321D01*
X134430342Y-65194901D01*
X134430332Y-65194896D01*
X134265000Y-65126413D01*
X134264992Y-65126411D01*
X134089483Y-65091500D01*
X134089479Y-65091500D01*
X133910521Y-65091500D01*
X133910516Y-65091500D01*
X133735007Y-65126411D01*
X133734999Y-65126413D01*
X133569667Y-65194896D01*
X133569657Y-65194901D01*
X133420865Y-65294321D01*
X133420861Y-65294324D01*
X133294324Y-65420861D01*
X133294321Y-65420865D01*
X133194901Y-65569657D01*
X133194896Y-65569667D01*
X133126413Y-65734999D01*
X133126411Y-65735007D01*
X133091500Y-65910516D01*
X126070552Y-65910516D01*
X126318443Y-65617832D01*
X126325362Y-65610316D01*
X126610316Y-65325362D01*
X126617832Y-65318443D01*
X126925346Y-65057992D01*
X126933400Y-65051723D01*
X127261359Y-64817565D01*
X127269919Y-64811972D01*
X127616116Y-64605683D01*
X127625097Y-64600823D01*
X127963445Y-64435415D01*
X127965080Y-64434634D01*
X127996292Y-64420079D01*
X128003551Y-64416976D01*
X128333380Y-64288276D01*
X128335886Y-64287331D01*
X128389862Y-64267685D01*
X128396810Y-64265389D01*
X128722251Y-64168500D01*
X128725385Y-64167614D01*
X128794394Y-64149123D01*
X128800974Y-64147553D01*
X129124428Y-64079732D01*
X129128210Y-64079003D01*
X129206842Y-64065138D01*
X129212959Y-64064218D01*
X129535582Y-64024003D01*
X129540031Y-64023531D01*
X129624098Y-64016177D01*
X129629716Y-64015815D01*
X129997437Y-64000605D01*
X130002561Y-64000500D01*
X161997439Y-64000500D01*
X162002562Y-64000605D01*
G37*
%TD.AperFunction*%
%TD*%
M02*
