%TF.GenerationSoftware,KiCad,Pcbnew,9.0.9-rc1*%
%TF.CreationDate,2026-09-26T21:32:25-05:00*%
%TF.ProjectId,proj2_kicad_v0.0,70726f6a-325f-46b6-9963-61645f76302e,1.0*%
%TF.SameCoordinates,Original*%
%TF.FileFunction,Drillmap*%
%TF.FilePolarity,Positive*%
%FSLAX45Y45*%
G04 Gerber Fmt 4.5, Leading zero omitted, Abs format (unit mm)*
G04 Created by KiCad (PCBNEW 9.0.9-rc1) date 2026-09-26 21:32:25*
%MOMM*%
%LPD*%
G01*
G04 APERTURE LIST*
%ADD10C,0.100000*%
%ADD11C,0.200000*%
%ADD12C,0.320000*%
G04 APERTURE END LIST*
D10*
X11600000Y-8600000D02*
X11600000Y-10300000D01*
X11600000Y-8600000D02*
G75*
G02*
X12200000Y-8000000I600000J0D01*
G01*
X12200000Y-10900000D02*
G75*
G02*
X11600000Y-10300000I0J600000D01*
G01*
X12200000Y-10900000D02*
X15500000Y-10900000D01*
X15500000Y-8000000D02*
X12200000Y-8000000D01*
X15500000Y-8000000D02*
G75*
G02*
X16100000Y-8600000I0J-600000D01*
G01*
X16100000Y-8600000D02*
X16100000Y-10300000D01*
X16100000Y-10300000D02*
G75*
G02*
X15500000Y-10900000I-600000J0D01*
G01*
D11*
D12*
X12040000Y-8440000D02*
X12360000Y-8760000D01*
X12360000Y-8440000D02*
X12040000Y-8760000D01*
X12040000Y-10140000D02*
X12360000Y-10460000D01*
X12360000Y-10140000D02*
X12040000Y-10460000D01*
X15340000Y-8440000D02*
X15660000Y-8760000D01*
X15660000Y-8440000D02*
X15340000Y-8760000D01*
X15340000Y-10140000D02*
X15660000Y-10460000D01*
X15660000Y-10140000D02*
X15340000Y-10460000D01*
D11*
X11855777Y-11216484D02*
X11855777Y-11016484D01*
X11855777Y-11016484D02*
X11903396Y-11016484D01*
X11903396Y-11016484D02*
X11931967Y-11026008D01*
X11931967Y-11026008D02*
X11951015Y-11045055D01*
X11951015Y-11045055D02*
X11960539Y-11064103D01*
X11960539Y-11064103D02*
X11970062Y-11102198D01*
X11970062Y-11102198D02*
X11970062Y-11130770D01*
X11970062Y-11130770D02*
X11960539Y-11168865D01*
X11960539Y-11168865D02*
X11951015Y-11187912D01*
X11951015Y-11187912D02*
X11931967Y-11206960D01*
X11931967Y-11206960D02*
X11903396Y-11216484D01*
X11903396Y-11216484D02*
X11855777Y-11216484D01*
X12055777Y-11216484D02*
X12055777Y-11083150D01*
X12055777Y-11121246D02*
X12065301Y-11102198D01*
X12065301Y-11102198D02*
X12074824Y-11092674D01*
X12074824Y-11092674D02*
X12093872Y-11083150D01*
X12093872Y-11083150D02*
X12112920Y-11083150D01*
X12179586Y-11216484D02*
X12179586Y-11083150D01*
X12179586Y-11016484D02*
X12170062Y-11026008D01*
X12170062Y-11026008D02*
X12179586Y-11035531D01*
X12179586Y-11035531D02*
X12189110Y-11026008D01*
X12189110Y-11026008D02*
X12179586Y-11016484D01*
X12179586Y-11016484D02*
X12179586Y-11035531D01*
X12303396Y-11216484D02*
X12284348Y-11206960D01*
X12284348Y-11206960D02*
X12274824Y-11187912D01*
X12274824Y-11187912D02*
X12274824Y-11016484D01*
X12408158Y-11216484D02*
X12389110Y-11206960D01*
X12389110Y-11206960D02*
X12379586Y-11187912D01*
X12379586Y-11187912D02*
X12379586Y-11016484D01*
X12636729Y-11216484D02*
X12636729Y-11016484D01*
X12636729Y-11016484D02*
X12703396Y-11159341D01*
X12703396Y-11159341D02*
X12770062Y-11016484D01*
X12770062Y-11016484D02*
X12770062Y-11216484D01*
X12951015Y-11216484D02*
X12951015Y-11111722D01*
X12951015Y-11111722D02*
X12941491Y-11092674D01*
X12941491Y-11092674D02*
X12922443Y-11083150D01*
X12922443Y-11083150D02*
X12884348Y-11083150D01*
X12884348Y-11083150D02*
X12865301Y-11092674D01*
X12951015Y-11206960D02*
X12931967Y-11216484D01*
X12931967Y-11216484D02*
X12884348Y-11216484D01*
X12884348Y-11216484D02*
X12865301Y-11206960D01*
X12865301Y-11206960D02*
X12855777Y-11187912D01*
X12855777Y-11187912D02*
X12855777Y-11168865D01*
X12855777Y-11168865D02*
X12865301Y-11149817D01*
X12865301Y-11149817D02*
X12884348Y-11140293D01*
X12884348Y-11140293D02*
X12931967Y-11140293D01*
X12931967Y-11140293D02*
X12951015Y-11130770D01*
X13046253Y-11083150D02*
X13046253Y-11283150D01*
X13046253Y-11092674D02*
X13065301Y-11083150D01*
X13065301Y-11083150D02*
X13103396Y-11083150D01*
X13103396Y-11083150D02*
X13122443Y-11092674D01*
X13122443Y-11092674D02*
X13131967Y-11102198D01*
X13131967Y-11102198D02*
X13141491Y-11121246D01*
X13141491Y-11121246D02*
X13141491Y-11178389D01*
X13141491Y-11178389D02*
X13131967Y-11197436D01*
X13131967Y-11197436D02*
X13122443Y-11206960D01*
X13122443Y-11206960D02*
X13103396Y-11216484D01*
X13103396Y-11216484D02*
X13065301Y-11216484D01*
X13065301Y-11216484D02*
X13046253Y-11206960D01*
X13227205Y-11197436D02*
X13236729Y-11206960D01*
X13236729Y-11206960D02*
X13227205Y-11216484D01*
X13227205Y-11216484D02*
X13217682Y-11206960D01*
X13217682Y-11206960D02*
X13227205Y-11197436D01*
X13227205Y-11197436D02*
X13227205Y-11216484D01*
X13227205Y-11092674D02*
X13236729Y-11102198D01*
X13236729Y-11102198D02*
X13227205Y-11111722D01*
X13227205Y-11111722D02*
X13217682Y-11102198D01*
X13217682Y-11102198D02*
X13227205Y-11092674D01*
X13227205Y-11092674D02*
X13227205Y-11111722D01*
X11395000Y-11445000D02*
X11595000Y-11645000D01*
X11595000Y-11445000D02*
X11395000Y-11645000D01*
X11836729Y-11436484D02*
X11960539Y-11436484D01*
X11960539Y-11436484D02*
X11893872Y-11512674D01*
X11893872Y-11512674D02*
X11922443Y-11512674D01*
X11922443Y-11512674D02*
X11941491Y-11522198D01*
X11941491Y-11522198D02*
X11951015Y-11531722D01*
X11951015Y-11531722D02*
X11960539Y-11550769D01*
X11960539Y-11550769D02*
X11960539Y-11598388D01*
X11960539Y-11598388D02*
X11951015Y-11617436D01*
X11951015Y-11617436D02*
X11941491Y-11626960D01*
X11941491Y-11626960D02*
X11922443Y-11636484D01*
X11922443Y-11636484D02*
X11865301Y-11636484D01*
X11865301Y-11636484D02*
X11846253Y-11626960D01*
X11846253Y-11626960D02*
X11836729Y-11617436D01*
X12046253Y-11617436D02*
X12055777Y-11626960D01*
X12055777Y-11626960D02*
X12046253Y-11636484D01*
X12046253Y-11636484D02*
X12036729Y-11626960D01*
X12036729Y-11626960D02*
X12046253Y-11617436D01*
X12046253Y-11617436D02*
X12046253Y-11636484D01*
X12131967Y-11455531D02*
X12141491Y-11446008D01*
X12141491Y-11446008D02*
X12160539Y-11436484D01*
X12160539Y-11436484D02*
X12208158Y-11436484D01*
X12208158Y-11436484D02*
X12227205Y-11446008D01*
X12227205Y-11446008D02*
X12236729Y-11455531D01*
X12236729Y-11455531D02*
X12246253Y-11474579D01*
X12246253Y-11474579D02*
X12246253Y-11493627D01*
X12246253Y-11493627D02*
X12236729Y-11522198D01*
X12236729Y-11522198D02*
X12122443Y-11636484D01*
X12122443Y-11636484D02*
X12246253Y-11636484D01*
X12370062Y-11436484D02*
X12389110Y-11436484D01*
X12389110Y-11436484D02*
X12408158Y-11446008D01*
X12408158Y-11446008D02*
X12417682Y-11455531D01*
X12417682Y-11455531D02*
X12427205Y-11474579D01*
X12427205Y-11474579D02*
X12436729Y-11512674D01*
X12436729Y-11512674D02*
X12436729Y-11560293D01*
X12436729Y-11560293D02*
X12427205Y-11598388D01*
X12427205Y-11598388D02*
X12417682Y-11617436D01*
X12417682Y-11617436D02*
X12408158Y-11626960D01*
X12408158Y-11626960D02*
X12389110Y-11636484D01*
X12389110Y-11636484D02*
X12370062Y-11636484D01*
X12370062Y-11636484D02*
X12351015Y-11626960D01*
X12351015Y-11626960D02*
X12341491Y-11617436D01*
X12341491Y-11617436D02*
X12331967Y-11598388D01*
X12331967Y-11598388D02*
X12322443Y-11560293D01*
X12322443Y-11560293D02*
X12322443Y-11512674D01*
X12322443Y-11512674D02*
X12331967Y-11474579D01*
X12331967Y-11474579D02*
X12341491Y-11455531D01*
X12341491Y-11455531D02*
X12351015Y-11446008D01*
X12351015Y-11446008D02*
X12370062Y-11436484D01*
X12560539Y-11436484D02*
X12579586Y-11436484D01*
X12579586Y-11436484D02*
X12598634Y-11446008D01*
X12598634Y-11446008D02*
X12608158Y-11455531D01*
X12608158Y-11455531D02*
X12617682Y-11474579D01*
X12617682Y-11474579D02*
X12627205Y-11512674D01*
X12627205Y-11512674D02*
X12627205Y-11560293D01*
X12627205Y-11560293D02*
X12617682Y-11598388D01*
X12617682Y-11598388D02*
X12608158Y-11617436D01*
X12608158Y-11617436D02*
X12598634Y-11626960D01*
X12598634Y-11626960D02*
X12579586Y-11636484D01*
X12579586Y-11636484D02*
X12560539Y-11636484D01*
X12560539Y-11636484D02*
X12541491Y-11626960D01*
X12541491Y-11626960D02*
X12531967Y-11617436D01*
X12531967Y-11617436D02*
X12522443Y-11598388D01*
X12522443Y-11598388D02*
X12512920Y-11560293D01*
X12512920Y-11560293D02*
X12512920Y-11512674D01*
X12512920Y-11512674D02*
X12522443Y-11474579D01*
X12522443Y-11474579D02*
X12531967Y-11455531D01*
X12531967Y-11455531D02*
X12541491Y-11446008D01*
X12541491Y-11446008D02*
X12560539Y-11436484D01*
X12712920Y-11636484D02*
X12712920Y-11503150D01*
X12712920Y-11522198D02*
X12722443Y-11512674D01*
X12722443Y-11512674D02*
X12741491Y-11503150D01*
X12741491Y-11503150D02*
X12770063Y-11503150D01*
X12770063Y-11503150D02*
X12789110Y-11512674D01*
X12789110Y-11512674D02*
X12798634Y-11531722D01*
X12798634Y-11531722D02*
X12798634Y-11636484D01*
X12798634Y-11531722D02*
X12808158Y-11512674D01*
X12808158Y-11512674D02*
X12827205Y-11503150D01*
X12827205Y-11503150D02*
X12855777Y-11503150D01*
X12855777Y-11503150D02*
X12874824Y-11512674D01*
X12874824Y-11512674D02*
X12884348Y-11531722D01*
X12884348Y-11531722D02*
X12884348Y-11636484D01*
X12979586Y-11636484D02*
X12979586Y-11503150D01*
X12979586Y-11522198D02*
X12989110Y-11512674D01*
X12989110Y-11512674D02*
X13008158Y-11503150D01*
X13008158Y-11503150D02*
X13036729Y-11503150D01*
X13036729Y-11503150D02*
X13055777Y-11512674D01*
X13055777Y-11512674D02*
X13065301Y-11531722D01*
X13065301Y-11531722D02*
X13065301Y-11636484D01*
X13065301Y-11531722D02*
X13074824Y-11512674D01*
X13074824Y-11512674D02*
X13093872Y-11503150D01*
X13093872Y-11503150D02*
X13122443Y-11503150D01*
X13122443Y-11503150D02*
X13141491Y-11512674D01*
X13141491Y-11512674D02*
X13151015Y-11531722D01*
X13151015Y-11531722D02*
X13151015Y-11636484D01*
X13541491Y-11426960D02*
X13370063Y-11684103D01*
X13798634Y-11436484D02*
X13817682Y-11436484D01*
X13817682Y-11436484D02*
X13836729Y-11446008D01*
X13836729Y-11446008D02*
X13846253Y-11455531D01*
X13846253Y-11455531D02*
X13855777Y-11474579D01*
X13855777Y-11474579D02*
X13865301Y-11512674D01*
X13865301Y-11512674D02*
X13865301Y-11560293D01*
X13865301Y-11560293D02*
X13855777Y-11598388D01*
X13855777Y-11598388D02*
X13846253Y-11617436D01*
X13846253Y-11617436D02*
X13836729Y-11626960D01*
X13836729Y-11626960D02*
X13817682Y-11636484D01*
X13817682Y-11636484D02*
X13798634Y-11636484D01*
X13798634Y-11636484D02*
X13779586Y-11626960D01*
X13779586Y-11626960D02*
X13770063Y-11617436D01*
X13770063Y-11617436D02*
X13760539Y-11598388D01*
X13760539Y-11598388D02*
X13751015Y-11560293D01*
X13751015Y-11560293D02*
X13751015Y-11512674D01*
X13751015Y-11512674D02*
X13760539Y-11474579D01*
X13760539Y-11474579D02*
X13770063Y-11455531D01*
X13770063Y-11455531D02*
X13779586Y-11446008D01*
X13779586Y-11446008D02*
X13798634Y-11436484D01*
X13951015Y-11617436D02*
X13960539Y-11626960D01*
X13960539Y-11626960D02*
X13951015Y-11636484D01*
X13951015Y-11636484D02*
X13941491Y-11626960D01*
X13941491Y-11626960D02*
X13951015Y-11617436D01*
X13951015Y-11617436D02*
X13951015Y-11636484D01*
X14151015Y-11636484D02*
X14036729Y-11636484D01*
X14093872Y-11636484D02*
X14093872Y-11436484D01*
X14093872Y-11436484D02*
X14074825Y-11465055D01*
X14074825Y-11465055D02*
X14055777Y-11484103D01*
X14055777Y-11484103D02*
X14036729Y-11493627D01*
X14227206Y-11455531D02*
X14236729Y-11446008D01*
X14236729Y-11446008D02*
X14255777Y-11436484D01*
X14255777Y-11436484D02*
X14303396Y-11436484D01*
X14303396Y-11436484D02*
X14322444Y-11446008D01*
X14322444Y-11446008D02*
X14331967Y-11455531D01*
X14331967Y-11455531D02*
X14341491Y-11474579D01*
X14341491Y-11474579D02*
X14341491Y-11493627D01*
X14341491Y-11493627D02*
X14331967Y-11522198D01*
X14331967Y-11522198D02*
X14217682Y-11636484D01*
X14217682Y-11636484D02*
X14341491Y-11636484D01*
X14512920Y-11436484D02*
X14474825Y-11436484D01*
X14474825Y-11436484D02*
X14455777Y-11446008D01*
X14455777Y-11446008D02*
X14446253Y-11455531D01*
X14446253Y-11455531D02*
X14427206Y-11484103D01*
X14427206Y-11484103D02*
X14417682Y-11522198D01*
X14417682Y-11522198D02*
X14417682Y-11598388D01*
X14417682Y-11598388D02*
X14427206Y-11617436D01*
X14427206Y-11617436D02*
X14436729Y-11626960D01*
X14436729Y-11626960D02*
X14455777Y-11636484D01*
X14455777Y-11636484D02*
X14493872Y-11636484D01*
X14493872Y-11636484D02*
X14512920Y-11626960D01*
X14512920Y-11626960D02*
X14522444Y-11617436D01*
X14522444Y-11617436D02*
X14531967Y-11598388D01*
X14531967Y-11598388D02*
X14531967Y-11550769D01*
X14531967Y-11550769D02*
X14522444Y-11531722D01*
X14522444Y-11531722D02*
X14512920Y-11522198D01*
X14512920Y-11522198D02*
X14493872Y-11512674D01*
X14493872Y-11512674D02*
X14455777Y-11512674D01*
X14455777Y-11512674D02*
X14436729Y-11522198D01*
X14436729Y-11522198D02*
X14427206Y-11531722D01*
X14427206Y-11531722D02*
X14417682Y-11550769D01*
X14655777Y-11436484D02*
X14674825Y-11436484D01*
X14674825Y-11436484D02*
X14693872Y-11446008D01*
X14693872Y-11446008D02*
X14703396Y-11455531D01*
X14703396Y-11455531D02*
X14712920Y-11474579D01*
X14712920Y-11474579D02*
X14722444Y-11512674D01*
X14722444Y-11512674D02*
X14722444Y-11560293D01*
X14722444Y-11560293D02*
X14712920Y-11598388D01*
X14712920Y-11598388D02*
X14703396Y-11617436D01*
X14703396Y-11617436D02*
X14693872Y-11626960D01*
X14693872Y-11626960D02*
X14674825Y-11636484D01*
X14674825Y-11636484D02*
X14655777Y-11636484D01*
X14655777Y-11636484D02*
X14636729Y-11626960D01*
X14636729Y-11626960D02*
X14627206Y-11617436D01*
X14627206Y-11617436D02*
X14617682Y-11598388D01*
X14617682Y-11598388D02*
X14608158Y-11560293D01*
X14608158Y-11560293D02*
X14608158Y-11512674D01*
X14608158Y-11512674D02*
X14617682Y-11474579D01*
X14617682Y-11474579D02*
X14627206Y-11455531D01*
X14627206Y-11455531D02*
X14636729Y-11446008D01*
X14636729Y-11446008D02*
X14655777Y-11436484D01*
X14798634Y-11436484D02*
X14798634Y-11474579D01*
X14874825Y-11436484D02*
X14874825Y-11474579D01*
X15170063Y-11712674D02*
X15160539Y-11703150D01*
X15160539Y-11703150D02*
X15141491Y-11674579D01*
X15141491Y-11674579D02*
X15131968Y-11655531D01*
X15131968Y-11655531D02*
X15122444Y-11626960D01*
X15122444Y-11626960D02*
X15112920Y-11579341D01*
X15112920Y-11579341D02*
X15112920Y-11541246D01*
X15112920Y-11541246D02*
X15122444Y-11493627D01*
X15122444Y-11493627D02*
X15131968Y-11465055D01*
X15131968Y-11465055D02*
X15141491Y-11446008D01*
X15141491Y-11446008D02*
X15160539Y-11417436D01*
X15160539Y-11417436D02*
X15170063Y-11407912D01*
X15331968Y-11503150D02*
X15331968Y-11636484D01*
X15284348Y-11426960D02*
X15236729Y-11569817D01*
X15236729Y-11569817D02*
X15360539Y-11569817D01*
X15589110Y-11636484D02*
X15589110Y-11436484D01*
X15674825Y-11636484D02*
X15674825Y-11531722D01*
X15674825Y-11531722D02*
X15665301Y-11512674D01*
X15665301Y-11512674D02*
X15646253Y-11503150D01*
X15646253Y-11503150D02*
X15617682Y-11503150D01*
X15617682Y-11503150D02*
X15598634Y-11512674D01*
X15598634Y-11512674D02*
X15589110Y-11522198D01*
X15798634Y-11636484D02*
X15779587Y-11626960D01*
X15779587Y-11626960D02*
X15770063Y-11617436D01*
X15770063Y-11617436D02*
X15760539Y-11598388D01*
X15760539Y-11598388D02*
X15760539Y-11541246D01*
X15760539Y-11541246D02*
X15770063Y-11522198D01*
X15770063Y-11522198D02*
X15779587Y-11512674D01*
X15779587Y-11512674D02*
X15798634Y-11503150D01*
X15798634Y-11503150D02*
X15827206Y-11503150D01*
X15827206Y-11503150D02*
X15846253Y-11512674D01*
X15846253Y-11512674D02*
X15855777Y-11522198D01*
X15855777Y-11522198D02*
X15865301Y-11541246D01*
X15865301Y-11541246D02*
X15865301Y-11598388D01*
X15865301Y-11598388D02*
X15855777Y-11617436D01*
X15855777Y-11617436D02*
X15846253Y-11626960D01*
X15846253Y-11626960D02*
X15827206Y-11636484D01*
X15827206Y-11636484D02*
X15798634Y-11636484D01*
X15979587Y-11636484D02*
X15960539Y-11626960D01*
X15960539Y-11626960D02*
X15951015Y-11607912D01*
X15951015Y-11607912D02*
X15951015Y-11436484D01*
X16131968Y-11626960D02*
X16112920Y-11636484D01*
X16112920Y-11636484D02*
X16074825Y-11636484D01*
X16074825Y-11636484D02*
X16055777Y-11626960D01*
X16055777Y-11626960D02*
X16046253Y-11607912D01*
X16046253Y-11607912D02*
X16046253Y-11531722D01*
X16046253Y-11531722D02*
X16055777Y-11512674D01*
X16055777Y-11512674D02*
X16074825Y-11503150D01*
X16074825Y-11503150D02*
X16112920Y-11503150D01*
X16112920Y-11503150D02*
X16131968Y-11512674D01*
X16131968Y-11512674D02*
X16141491Y-11531722D01*
X16141491Y-11531722D02*
X16141491Y-11550769D01*
X16141491Y-11550769D02*
X16046253Y-11569817D01*
X16217682Y-11626960D02*
X16236730Y-11636484D01*
X16236730Y-11636484D02*
X16274825Y-11636484D01*
X16274825Y-11636484D02*
X16293872Y-11626960D01*
X16293872Y-11626960D02*
X16303396Y-11607912D01*
X16303396Y-11607912D02*
X16303396Y-11598388D01*
X16303396Y-11598388D02*
X16293872Y-11579341D01*
X16293872Y-11579341D02*
X16274825Y-11569817D01*
X16274825Y-11569817D02*
X16246253Y-11569817D01*
X16246253Y-11569817D02*
X16227206Y-11560293D01*
X16227206Y-11560293D02*
X16217682Y-11541246D01*
X16217682Y-11541246D02*
X16217682Y-11531722D01*
X16217682Y-11531722D02*
X16227206Y-11512674D01*
X16227206Y-11512674D02*
X16246253Y-11503150D01*
X16246253Y-11503150D02*
X16274825Y-11503150D01*
X16274825Y-11503150D02*
X16293872Y-11512674D01*
X16370063Y-11712674D02*
X16379587Y-11703150D01*
X16379587Y-11703150D02*
X16398634Y-11674579D01*
X16398634Y-11674579D02*
X16408158Y-11655531D01*
X16408158Y-11655531D02*
X16417682Y-11626960D01*
X16417682Y-11626960D02*
X16427206Y-11579341D01*
X16427206Y-11579341D02*
X16427206Y-11541246D01*
X16427206Y-11541246D02*
X16417682Y-11493627D01*
X16417682Y-11493627D02*
X16408158Y-11465055D01*
X16408158Y-11465055D02*
X16398634Y-11446008D01*
X16398634Y-11446008D02*
X16379587Y-11417436D01*
X16379587Y-11417436D02*
X16370063Y-11407912D01*
X16731968Y-11712674D02*
X16722444Y-11703150D01*
X16722444Y-11703150D02*
X16703396Y-11674579D01*
X16703396Y-11674579D02*
X16693872Y-11655531D01*
X16693872Y-11655531D02*
X16684349Y-11626960D01*
X16684349Y-11626960D02*
X16674825Y-11579341D01*
X16674825Y-11579341D02*
X16674825Y-11541246D01*
X16674825Y-11541246D02*
X16684349Y-11493627D01*
X16684349Y-11493627D02*
X16693872Y-11465055D01*
X16693872Y-11465055D02*
X16703396Y-11446008D01*
X16703396Y-11446008D02*
X16722444Y-11417436D01*
X16722444Y-11417436D02*
X16731968Y-11407912D01*
X16808158Y-11503150D02*
X16808158Y-11636484D01*
X16808158Y-11522198D02*
X16817682Y-11512674D01*
X16817682Y-11512674D02*
X16836730Y-11503150D01*
X16836730Y-11503150D02*
X16865301Y-11503150D01*
X16865301Y-11503150D02*
X16884349Y-11512674D01*
X16884349Y-11512674D02*
X16893873Y-11531722D01*
X16893873Y-11531722D02*
X16893873Y-11636484D01*
X17017682Y-11636484D02*
X16998634Y-11626960D01*
X16998634Y-11626960D02*
X16989111Y-11617436D01*
X16989111Y-11617436D02*
X16979587Y-11598388D01*
X16979587Y-11598388D02*
X16979587Y-11541246D01*
X16979587Y-11541246D02*
X16989111Y-11522198D01*
X16989111Y-11522198D02*
X16998634Y-11512674D01*
X16998634Y-11512674D02*
X17017682Y-11503150D01*
X17017682Y-11503150D02*
X17046254Y-11503150D01*
X17046254Y-11503150D02*
X17065301Y-11512674D01*
X17065301Y-11512674D02*
X17074825Y-11522198D01*
X17074825Y-11522198D02*
X17084349Y-11541246D01*
X17084349Y-11541246D02*
X17084349Y-11598388D01*
X17084349Y-11598388D02*
X17074825Y-11617436D01*
X17074825Y-11617436D02*
X17065301Y-11626960D01*
X17065301Y-11626960D02*
X17046254Y-11636484D01*
X17046254Y-11636484D02*
X17017682Y-11636484D01*
X17141492Y-11503150D02*
X17217682Y-11503150D01*
X17170063Y-11436484D02*
X17170063Y-11607912D01*
X17170063Y-11607912D02*
X17179587Y-11626960D01*
X17179587Y-11626960D02*
X17198634Y-11636484D01*
X17198634Y-11636484D02*
X17217682Y-11636484D01*
X17436730Y-11503150D02*
X17436730Y-11703150D01*
X17436730Y-11512674D02*
X17455777Y-11503150D01*
X17455777Y-11503150D02*
X17493873Y-11503150D01*
X17493873Y-11503150D02*
X17512920Y-11512674D01*
X17512920Y-11512674D02*
X17522444Y-11522198D01*
X17522444Y-11522198D02*
X17531968Y-11541246D01*
X17531968Y-11541246D02*
X17531968Y-11598388D01*
X17531968Y-11598388D02*
X17522444Y-11617436D01*
X17522444Y-11617436D02*
X17512920Y-11626960D01*
X17512920Y-11626960D02*
X17493873Y-11636484D01*
X17493873Y-11636484D02*
X17455777Y-11636484D01*
X17455777Y-11636484D02*
X17436730Y-11626960D01*
X17646254Y-11636484D02*
X17627206Y-11626960D01*
X17627206Y-11626960D02*
X17617682Y-11607912D01*
X17617682Y-11607912D02*
X17617682Y-11436484D01*
X17808158Y-11636484D02*
X17808158Y-11531722D01*
X17808158Y-11531722D02*
X17798635Y-11512674D01*
X17798635Y-11512674D02*
X17779587Y-11503150D01*
X17779587Y-11503150D02*
X17741492Y-11503150D01*
X17741492Y-11503150D02*
X17722444Y-11512674D01*
X17808158Y-11626960D02*
X17789111Y-11636484D01*
X17789111Y-11636484D02*
X17741492Y-11636484D01*
X17741492Y-11636484D02*
X17722444Y-11626960D01*
X17722444Y-11626960D02*
X17712920Y-11607912D01*
X17712920Y-11607912D02*
X17712920Y-11588865D01*
X17712920Y-11588865D02*
X17722444Y-11569817D01*
X17722444Y-11569817D02*
X17741492Y-11560293D01*
X17741492Y-11560293D02*
X17789111Y-11560293D01*
X17789111Y-11560293D02*
X17808158Y-11550769D01*
X17874825Y-11503150D02*
X17951015Y-11503150D01*
X17903396Y-11436484D02*
X17903396Y-11607912D01*
X17903396Y-11607912D02*
X17912920Y-11626960D01*
X17912920Y-11626960D02*
X17931968Y-11636484D01*
X17931968Y-11636484D02*
X17951015Y-11636484D01*
X18093873Y-11626960D02*
X18074825Y-11636484D01*
X18074825Y-11636484D02*
X18036730Y-11636484D01*
X18036730Y-11636484D02*
X18017682Y-11626960D01*
X18017682Y-11626960D02*
X18008158Y-11607912D01*
X18008158Y-11607912D02*
X18008158Y-11531722D01*
X18008158Y-11531722D02*
X18017682Y-11512674D01*
X18017682Y-11512674D02*
X18036730Y-11503150D01*
X18036730Y-11503150D02*
X18074825Y-11503150D01*
X18074825Y-11503150D02*
X18093873Y-11512674D01*
X18093873Y-11512674D02*
X18103396Y-11531722D01*
X18103396Y-11531722D02*
X18103396Y-11550769D01*
X18103396Y-11550769D02*
X18008158Y-11569817D01*
X18274825Y-11636484D02*
X18274825Y-11436484D01*
X18274825Y-11626960D02*
X18255777Y-11636484D01*
X18255777Y-11636484D02*
X18217682Y-11636484D01*
X18217682Y-11636484D02*
X18198635Y-11626960D01*
X18198635Y-11626960D02*
X18189111Y-11617436D01*
X18189111Y-11617436D02*
X18179587Y-11598388D01*
X18179587Y-11598388D02*
X18179587Y-11541246D01*
X18179587Y-11541246D02*
X18189111Y-11522198D01*
X18189111Y-11522198D02*
X18198635Y-11512674D01*
X18198635Y-11512674D02*
X18217682Y-11503150D01*
X18217682Y-11503150D02*
X18255777Y-11503150D01*
X18255777Y-11503150D02*
X18274825Y-11512674D01*
X18351016Y-11712674D02*
X18360539Y-11703150D01*
X18360539Y-11703150D02*
X18379587Y-11674579D01*
X18379587Y-11674579D02*
X18389111Y-11655531D01*
X18389111Y-11655531D02*
X18398635Y-11626960D01*
X18398635Y-11626960D02*
X18408158Y-11579341D01*
X18408158Y-11579341D02*
X18408158Y-11541246D01*
X18408158Y-11541246D02*
X18398635Y-11493627D01*
X18398635Y-11493627D02*
X18389111Y-11465055D01*
X18389111Y-11465055D02*
X18379587Y-11446008D01*
X18379587Y-11446008D02*
X18360539Y-11417436D01*
X18360539Y-11417436D02*
X18351016Y-11407912D01*
M02*
