%TF.GenerationSoftware,KiCad,Pcbnew,9.0.9*%
%TF.CreationDate,2026-09-18T13:51:00-05:00*%
%TF.ProjectId,PROJ1_v0.0,50524f4a-315f-4763-902e-302e6b696361,1.0*%
%TF.SameCoordinates,Original*%
%TF.FileFunction,Copper,L1,Top*%
%TF.FilePolarity,Positive*%
%FSLAX46Y46*%
G04 Gerber Fmt 4.6, Leading zero omitted, Abs format (unit mm)*
G04 Created by KiCad (PCBNEW 9.0.9) date 2026-09-18 13:51:00*
%MOMM*%
%LPD*%
G01*
G04 APERTURE LIST*
G04 Aperture macros list*
%AMRoundRect*
0 Rectangle with rounded corners*
0 $1 Rounding radius*
0 $2 $3 $4 $5 $6 $7 $8 $9 X,Y pos of 4 corners*
0 Add a 4 corners polygon primitive as box body*
4,1,4,$2,$3,$4,$5,$6,$7,$8,$9,$2,$3,0*
0 Add four circle primitives for the rounded corners*
1,1,$1+$1,$2,$3*
1,1,$1+$1,$4,$5*
1,1,$1+$1,$6,$7*
1,1,$1+$1,$8,$9*
0 Add four rect primitives between the rounded corners*
20,1,$1+$1,$2,$3,$4,$5,0*
20,1,$1+$1,$4,$5,$6,$7,0*
20,1,$1+$1,$6,$7,$8,$9,0*
20,1,$1+$1,$8,$9,$2,$3,0*%
G04 Aperture macros list end*
%TA.AperFunction,SMDPad,CuDef*%
%ADD10R,1.120000X2.440000*%
%TD*%
%TA.AperFunction,SMDPad,CuDef*%
%ADD11RoundRect,0.100000X-0.217500X-0.100000X0.217500X-0.100000X0.217500X0.100000X-0.217500X0.100000X0*%
%TD*%
%TA.AperFunction,SMDPad,CuDef*%
%ADD12R,0.800000X0.800000*%
%TD*%
%TA.AperFunction,ComponentPad*%
%ADD13O,1.740000X2.190000*%
%TD*%
%TA.AperFunction,ComponentPad*%
%ADD14RoundRect,0.250000X-0.620000X-0.845000X0.620000X-0.845000X0.620000X0.845000X-0.620000X0.845000X0*%
%TD*%
%TA.AperFunction,ViaPad*%
%ADD15C,0.800000*%
%TD*%
%TA.AperFunction,Conductor*%
%ADD16C,0.250000*%
%TD*%
G04 APERTURE END LIST*
D10*
%TO.P,SW1,1,1*%
%TO.N,+3V3*%
X82000000Y-59610000D03*
%TO.P,SW1,2,2*%
%TO.N,Net-(R2-Pad1)*%
X82000000Y-51000000D03*
%TD*%
D11*
%TO.P,R2,1*%
%TO.N,Net-(R2-Pad1)*%
X76592500Y-60000000D03*
%TO.P,R2,2*%
%TO.N,Net-(D1-A)*%
X77407500Y-60000000D03*
%TD*%
D12*
%TO.P,D1,1,K*%
%TO.N,GND*%
X73200000Y-60000000D03*
%TO.P,D1,2,A*%
%TO.N,Net-(D1-A)*%
X74800000Y-60000000D03*
%TD*%
D13*
%TO.P,J1,2,Pin_2*%
%TO.N,+3V3*%
X76000000Y-65000000D03*
D14*
%TO.P,J1,1,Pin_1*%
%TO.N,GND*%
X73460000Y-65000000D03*
%TD*%
D15*
%TO.N,GND*%
X72000000Y-61000000D03*
%TD*%
D16*
%TO.N,Net-(R2-Pad1)*%
X76592500Y-60000000D02*
X76592500Y-58407500D01*
X79000000Y-52000000D02*
X79805000Y-51195000D01*
X81805000Y-51195000D02*
X82000000Y-51000000D01*
X78000000Y-52000000D02*
X79000000Y-52000000D01*
X78000000Y-57000000D02*
X78000000Y-52000000D01*
X76592500Y-58407500D02*
X78000000Y-57000000D01*
X79805000Y-51195000D02*
X81805000Y-51195000D01*
X76592500Y-60000000D02*
X76815000Y-60000000D01*
%TO.N,Net-(D1-A)*%
X74800000Y-60000000D02*
X75800000Y-61000000D01*
X77407500Y-60592500D02*
X77407500Y-60000000D01*
X75800000Y-61000000D02*
X77000000Y-61000000D01*
X77000000Y-61000000D02*
X77407500Y-60592500D01*
%TO.N,GND*%
X73200000Y-60000000D02*
X73000000Y-60000000D01*
X73000000Y-60000000D02*
X72000000Y-61000000D01*
%TD*%
%TA.AperFunction,Conductor*%
%TO.N,+3V3*%
G36*
X84002855Y-47000632D02*
G01*
X84330403Y-47015775D01*
X84336794Y-47016237D01*
X84411695Y-47023614D01*
X84416651Y-47024204D01*
X84703199Y-47064176D01*
X84710207Y-47065360D01*
X84779026Y-47079049D01*
X84783093Y-47079932D01*
X85070629Y-47147560D01*
X85078174Y-47149589D01*
X85135880Y-47167094D01*
X85139134Y-47168132D01*
X85429219Y-47265359D01*
X85437180Y-47268338D01*
X85476927Y-47284802D01*
X85479352Y-47285839D01*
X85775546Y-47416623D01*
X85783882Y-47420683D01*
X85794023Y-47426104D01*
X85795724Y-47427032D01*
X86036130Y-47560937D01*
X86100452Y-47596765D01*
X86110190Y-47602794D01*
X86405512Y-47805093D01*
X86414649Y-47811994D01*
X86690035Y-48040671D01*
X86698499Y-48048387D01*
X86951612Y-48301500D01*
X86959328Y-48309964D01*
X87188003Y-48585347D01*
X87194906Y-48594487D01*
X87397205Y-48889809D01*
X87403234Y-48899547D01*
X87572925Y-49204199D01*
X87573958Y-49206093D01*
X87579307Y-49216102D01*
X87583379Y-49224460D01*
X87714114Y-49520542D01*
X87715232Y-49523156D01*
X87731648Y-49562788D01*
X87734651Y-49570812D01*
X87788456Y-49731345D01*
X87831840Y-49860785D01*
X87832929Y-49864196D01*
X87850401Y-49921794D01*
X87852446Y-49929399D01*
X87920051Y-50216838D01*
X87920963Y-50221038D01*
X87934633Y-50289764D01*
X87935826Y-50296823D01*
X87975793Y-50583341D01*
X87976385Y-50588318D01*
X87983759Y-50663186D01*
X87984224Y-50669613D01*
X87999368Y-50997145D01*
X87999500Y-51002872D01*
X87999500Y-55300500D01*
X87979815Y-55367539D01*
X87927011Y-55413294D01*
X87875500Y-55424500D01*
X82984982Y-55424500D01*
X82957231Y-55435995D01*
X82935995Y-55457231D01*
X82935994Y-55457232D01*
X82935994Y-55457233D01*
X82924500Y-55484982D01*
X82924500Y-55515018D01*
X82935994Y-55542767D01*
X82957233Y-55564006D01*
X82984982Y-55575500D01*
X87875500Y-55575500D01*
X87942539Y-55595185D01*
X87988294Y-55647989D01*
X87999500Y-55699500D01*
X87999500Y-64800500D01*
X87979815Y-64867539D01*
X87927011Y-64913294D01*
X87875500Y-64924500D01*
X84465273Y-64924500D01*
X84398234Y-64904815D01*
X84352479Y-64852011D01*
X84342334Y-64816685D01*
X84340203Y-64800500D01*
X84318838Y-64638211D01*
X84256054Y-64403900D01*
X84163224Y-64179788D01*
X84041936Y-63969711D01*
X83939697Y-63836470D01*
X83894266Y-63777263D01*
X83894260Y-63777256D01*
X83722743Y-63605739D01*
X83722736Y-63605733D01*
X83530293Y-63458067D01*
X83530292Y-63458066D01*
X83530289Y-63458064D01*
X83320212Y-63336776D01*
X83320205Y-63336773D01*
X83096104Y-63243947D01*
X82861785Y-63181161D01*
X82621289Y-63149500D01*
X82621288Y-63149500D01*
X82378712Y-63149500D01*
X82378711Y-63149500D01*
X82138214Y-63181161D01*
X81903895Y-63243947D01*
X81679794Y-63336773D01*
X81679785Y-63336777D01*
X81469706Y-63458067D01*
X81277263Y-63605733D01*
X81277256Y-63605739D01*
X81105739Y-63777256D01*
X81105733Y-63777263D01*
X80958067Y-63969706D01*
X80836777Y-64179785D01*
X80836773Y-64179794D01*
X80743947Y-64403895D01*
X80681161Y-64638214D01*
X80649500Y-64878711D01*
X80649500Y-65121288D01*
X80681161Y-65361785D01*
X80743947Y-65596104D01*
X80836773Y-65820205D01*
X80836776Y-65820212D01*
X80958064Y-66030289D01*
X80958066Y-66030292D01*
X80958067Y-66030293D01*
X81105733Y-66222736D01*
X81105739Y-66222743D01*
X81277256Y-66394260D01*
X81277263Y-66394266D01*
X81342117Y-66444030D01*
X81469711Y-66541936D01*
X81679788Y-66663224D01*
X81903900Y-66756054D01*
X82138211Y-66818838D01*
X82318586Y-66842584D01*
X82378711Y-66850500D01*
X82378712Y-66850500D01*
X82621289Y-66850500D01*
X82669388Y-66844167D01*
X82861789Y-66818838D01*
X83096100Y-66756054D01*
X83320212Y-66663224D01*
X83530289Y-66541936D01*
X83722738Y-66394265D01*
X83894265Y-66222738D01*
X84041936Y-66030289D01*
X84163224Y-65820212D01*
X84256054Y-65596100D01*
X84318838Y-65361789D01*
X84342334Y-65183314D01*
X84370600Y-65119418D01*
X84428925Y-65080947D01*
X84465273Y-65075500D01*
X87875500Y-65075500D01*
X87942539Y-65095185D01*
X87988294Y-65147989D01*
X87999500Y-65199500D01*
X87999500Y-65997437D01*
X87999394Y-66002562D01*
X87984185Y-66370249D01*
X87983819Y-66375931D01*
X87976470Y-66459929D01*
X87975990Y-66464460D01*
X87935786Y-66786997D01*
X87934854Y-66793191D01*
X87921005Y-66871733D01*
X87920250Y-66875648D01*
X87852453Y-67198988D01*
X87850867Y-67205634D01*
X87832405Y-67274536D01*
X87831475Y-67277825D01*
X87734622Y-67603147D01*
X87732299Y-67610176D01*
X87712696Y-67664034D01*
X87711691Y-67666698D01*
X87583036Y-67996414D01*
X87579902Y-68003743D01*
X87565471Y-68034691D01*
X87564489Y-68036747D01*
X87399182Y-68374889D01*
X87394304Y-68383903D01*
X87188033Y-68730070D01*
X87182427Y-68738649D01*
X86948289Y-69066581D01*
X86941994Y-69074669D01*
X86681566Y-69382155D01*
X86674625Y-69389695D01*
X86389695Y-69674625D01*
X86382155Y-69681566D01*
X86074669Y-69941994D01*
X86066581Y-69948289D01*
X85738649Y-70182427D01*
X85730070Y-70188033D01*
X85383903Y-70394304D01*
X85374889Y-70399182D01*
X85036747Y-70564489D01*
X85034691Y-70565471D01*
X85003743Y-70579902D01*
X84996414Y-70583036D01*
X84666698Y-70711691D01*
X84664034Y-70712696D01*
X84610176Y-70732299D01*
X84603147Y-70734622D01*
X84277825Y-70831475D01*
X84274536Y-70832405D01*
X84205634Y-70850867D01*
X84198988Y-70852453D01*
X83875648Y-70920250D01*
X83871733Y-70921005D01*
X83793191Y-70934854D01*
X83786997Y-70935786D01*
X83464460Y-70975990D01*
X83459929Y-70976470D01*
X83375931Y-70983819D01*
X83370249Y-70984185D01*
X83004859Y-70999298D01*
X83003192Y-70999368D01*
X83002563Y-70999394D01*
X82997438Y-70999500D01*
X73002872Y-70999500D01*
X72997145Y-70999368D01*
X72669613Y-70984224D01*
X72663186Y-70983759D01*
X72588318Y-70976385D01*
X72583341Y-70975793D01*
X72296823Y-70935826D01*
X72289764Y-70934633D01*
X72221038Y-70920963D01*
X72216838Y-70920051D01*
X71929399Y-70852446D01*
X71921794Y-70850401D01*
X71864196Y-70832929D01*
X71860785Y-70831840D01*
X71816274Y-70816921D01*
X71570812Y-70734651D01*
X71562788Y-70731648D01*
X71523156Y-70715232D01*
X71520563Y-70714123D01*
X71403432Y-70662404D01*
X71224460Y-70583379D01*
X71216102Y-70579307D01*
X71206093Y-70573958D01*
X71204241Y-70572948D01*
X71066533Y-70496245D01*
X70899547Y-70403234D01*
X70889809Y-70397205D01*
X70594487Y-70194906D01*
X70585347Y-70188003D01*
X70309964Y-69959328D01*
X70301500Y-69951612D01*
X70048387Y-69698499D01*
X70040671Y-69690035D01*
X69811994Y-69414649D01*
X69805093Y-69405512D01*
X69791774Y-69386069D01*
X69602794Y-69110190D01*
X69596765Y-69100452D01*
X69489658Y-68908159D01*
X69427032Y-68795724D01*
X69426104Y-68794023D01*
X69420683Y-68783882D01*
X69416619Y-68775538D01*
X69400331Y-68738649D01*
X69285839Y-68479352D01*
X69284802Y-68476927D01*
X69268338Y-68437180D01*
X69265359Y-68429219D01*
X69168132Y-68139134D01*
X69167094Y-68135880D01*
X69149589Y-68078174D01*
X69147560Y-68070629D01*
X69079932Y-67783093D01*
X69079049Y-67779026D01*
X69065360Y-67710207D01*
X69064176Y-67703199D01*
X69024204Y-67416651D01*
X69023613Y-67411680D01*
X69016239Y-67336812D01*
X69015774Y-67330385D01*
X69013344Y-67277825D01*
X69000632Y-67002855D01*
X69000500Y-66997128D01*
X69000500Y-64104447D01*
X72081500Y-64104447D01*
X72081500Y-65895537D01*
X72081501Y-65895553D01*
X72092113Y-65999427D01*
X72092303Y-66000000D01*
X72147885Y-66167738D01*
X72240970Y-66318652D01*
X72366348Y-66444030D01*
X72517262Y-66537115D01*
X72685574Y-66592887D01*
X72789455Y-66603500D01*
X74130544Y-66603499D01*
X74234426Y-66592887D01*
X74402738Y-66537115D01*
X74553652Y-66444030D01*
X74679030Y-66318652D01*
X74772115Y-66167738D01*
X74772116Y-66167735D01*
X74775906Y-66161591D01*
X74777358Y-66162486D01*
X74817587Y-66116794D01*
X74884780Y-66097639D01*
X74951662Y-66117852D01*
X74971482Y-66133954D01*
X75107502Y-66269974D01*
X75281963Y-66396728D01*
X75474098Y-66494627D01*
X75679190Y-66561266D01*
X75750000Y-66572481D01*
X75750000Y-65542709D01*
X75770339Y-65554452D01*
X75921667Y-65595000D01*
X76078333Y-65595000D01*
X76229661Y-65554452D01*
X76250000Y-65542709D01*
X76250000Y-66572480D01*
X76320809Y-66561266D01*
X76525901Y-66494627D01*
X76718036Y-66396728D01*
X76892496Y-66269974D01*
X76892497Y-66269974D01*
X77044974Y-66117497D01*
X77044974Y-66117496D01*
X77171728Y-65943036D01*
X77269627Y-65750901D01*
X77336265Y-65545809D01*
X77370000Y-65332820D01*
X77370000Y-65250000D01*
X76542709Y-65250000D01*
X76554452Y-65229661D01*
X76595000Y-65078333D01*
X76595000Y-64921667D01*
X76554452Y-64770339D01*
X76542709Y-64750000D01*
X77370000Y-64750000D01*
X77370000Y-64667179D01*
X77336265Y-64454190D01*
X77269627Y-64249098D01*
X77171728Y-64056963D01*
X77044974Y-63882503D01*
X77044974Y-63882502D01*
X76892497Y-63730025D01*
X76718036Y-63603271D01*
X76525899Y-63505372D01*
X76320805Y-63438733D01*
X76250000Y-63427518D01*
X76250000Y-64457290D01*
X76229661Y-64445548D01*
X76078333Y-64405000D01*
X75921667Y-64405000D01*
X75770339Y-64445548D01*
X75750000Y-64457290D01*
X75750000Y-63427518D01*
X75749999Y-63427518D01*
X75679194Y-63438733D01*
X75474100Y-63505372D01*
X75281963Y-63603271D01*
X75107506Y-63730022D01*
X74971482Y-63866046D01*
X74910159Y-63899530D01*
X74840467Y-63894546D01*
X74784534Y-63852674D01*
X74775969Y-63838369D01*
X74775906Y-63838409D01*
X74772115Y-63832263D01*
X74772115Y-63832262D01*
X74679030Y-63681348D01*
X74553652Y-63555970D01*
X74402738Y-63462885D01*
X74329851Y-63438733D01*
X74234427Y-63407113D01*
X74130545Y-63396500D01*
X72789462Y-63396500D01*
X72789446Y-63396501D01*
X72685572Y-63407113D01*
X72517264Y-63462884D01*
X72517259Y-63462886D01*
X72366346Y-63555971D01*
X72240971Y-63681346D01*
X72147886Y-63832259D01*
X72147884Y-63832264D01*
X72092113Y-64000572D01*
X72081500Y-64104447D01*
X69000500Y-64104447D01*
X69000500Y-60910516D01*
X71091500Y-60910516D01*
X71091500Y-61089483D01*
X71126411Y-61264992D01*
X71126413Y-61265000D01*
X71194896Y-61430332D01*
X71194901Y-61430342D01*
X71294321Y-61579134D01*
X71294324Y-61579138D01*
X71420861Y-61705675D01*
X71420865Y-61705678D01*
X71569657Y-61805098D01*
X71569661Y-61805100D01*
X71569664Y-61805102D01*
X71735000Y-61873587D01*
X71910516Y-61908499D01*
X71910520Y-61908500D01*
X71910521Y-61908500D01*
X72089480Y-61908500D01*
X72089481Y-61908499D01*
X72265000Y-61873587D01*
X72430336Y-61805102D01*
X72579135Y-61705678D01*
X72705678Y-61579135D01*
X72805102Y-61430336D01*
X72873587Y-61265000D01*
X72908500Y-61089479D01*
X72908500Y-61038767D01*
X72917146Y-61009322D01*
X72923673Y-60979331D01*
X72927423Y-60974322D01*
X72928185Y-60971728D01*
X72944826Y-60951079D01*
X72951094Y-60944812D01*
X73012420Y-60911332D01*
X73038768Y-60908500D01*
X73648638Y-60908500D01*
X73648654Y-60908499D01*
X73675692Y-60905591D01*
X73709201Y-60901989D01*
X73846204Y-60850889D01*
X73846204Y-60850888D01*
X73846206Y-60850888D01*
X73846207Y-60850887D01*
X73925689Y-60791387D01*
X73991153Y-60766969D01*
X74059426Y-60781820D01*
X74074311Y-60791387D01*
X74153792Y-60850887D01*
X74153793Y-60850888D01*
X74153796Y-60850889D01*
X74290799Y-60901989D01*
X74318050Y-60904918D01*
X74351345Y-60908499D01*
X74351362Y-60908500D01*
X74761234Y-60908500D01*
X74828273Y-60928185D01*
X74848915Y-60944819D01*
X75396163Y-61492069D01*
X75396167Y-61492072D01*
X75499921Y-61561399D01*
X75499923Y-61561399D01*
X75499925Y-61561401D01*
X75581447Y-61595168D01*
X75615215Y-61609155D01*
X75615217Y-61609155D01*
X75615222Y-61609157D01*
X75737601Y-61633499D01*
X75737605Y-61633500D01*
X75737606Y-61633500D01*
X77062395Y-61633500D01*
X77062396Y-61633499D01*
X77184785Y-61609155D01*
X77300075Y-61561400D01*
X77403833Y-61492071D01*
X77899571Y-60996333D01*
X77968900Y-60892575D01*
X77975002Y-60877844D01*
X80940000Y-60877844D01*
X80946401Y-60937372D01*
X80946403Y-60937379D01*
X80996645Y-61072086D01*
X80996649Y-61072093D01*
X81082809Y-61187187D01*
X81082812Y-61187190D01*
X81197906Y-61273350D01*
X81197913Y-61273354D01*
X81332620Y-61323596D01*
X81332627Y-61323598D01*
X81392155Y-61329999D01*
X81392172Y-61330000D01*
X81750000Y-61330000D01*
X82250000Y-61330000D01*
X82607828Y-61330000D01*
X82607844Y-61329999D01*
X82667372Y-61323598D01*
X82667379Y-61323596D01*
X82802086Y-61273354D01*
X82802093Y-61273350D01*
X82917187Y-61187190D01*
X82917190Y-61187187D01*
X83003350Y-61072093D01*
X83003354Y-61072086D01*
X83053596Y-60937379D01*
X83053598Y-60937372D01*
X83059999Y-60877844D01*
X83060000Y-60877827D01*
X83060000Y-59860000D01*
X82250000Y-59860000D01*
X82250000Y-61330000D01*
X81750000Y-61330000D01*
X81750000Y-59860000D01*
X80940000Y-59860000D01*
X80940000Y-60877844D01*
X77975002Y-60877844D01*
X78016655Y-60777285D01*
X78041000Y-60654894D01*
X78041000Y-60599521D01*
X78060685Y-60532482D01*
X78066624Y-60524034D01*
X78156524Y-60406876D01*
X78217838Y-60258850D01*
X78233500Y-60139885D01*
X78233499Y-59860116D01*
X78232024Y-59848914D01*
X78228853Y-59824822D01*
X78228853Y-59824821D01*
X78217840Y-59741158D01*
X78217838Y-59741153D01*
X78217838Y-59741150D01*
X78156524Y-59593124D01*
X78058987Y-59466013D01*
X77931876Y-59368476D01*
X77931872Y-59368474D01*
X77783853Y-59307163D01*
X77783851Y-59307162D01*
X77783850Y-59307162D01*
X77768979Y-59305204D01*
X77664892Y-59291500D01*
X77664885Y-59291500D01*
X77350000Y-59291500D01*
X77282961Y-59271815D01*
X77237206Y-59219011D01*
X77226000Y-59167500D01*
X77226000Y-58721266D01*
X77245685Y-58654227D01*
X77262319Y-58633585D01*
X77553750Y-58342155D01*
X80940000Y-58342155D01*
X80940000Y-59360000D01*
X81750000Y-59360000D01*
X82250000Y-59360000D01*
X83060000Y-59360000D01*
X83060000Y-58342172D01*
X83059999Y-58342155D01*
X83053598Y-58282627D01*
X83053596Y-58282620D01*
X83003354Y-58147913D01*
X83003350Y-58147906D01*
X82917190Y-58032812D01*
X82917187Y-58032809D01*
X82802093Y-57946649D01*
X82802086Y-57946645D01*
X82667379Y-57896403D01*
X82667372Y-57896401D01*
X82607844Y-57890000D01*
X82250000Y-57890000D01*
X82250000Y-59360000D01*
X81750000Y-59360000D01*
X81750000Y-57890000D01*
X81392155Y-57890000D01*
X81332627Y-57896401D01*
X81332620Y-57896403D01*
X81197913Y-57946645D01*
X81197906Y-57946649D01*
X81082812Y-58032809D01*
X81082809Y-58032812D01*
X80996649Y-58147906D01*
X80996645Y-58147913D01*
X80946403Y-58282620D01*
X80946401Y-58282627D01*
X80940000Y-58342155D01*
X77553750Y-58342155D01*
X77644735Y-58251170D01*
X78492072Y-57403833D01*
X78561401Y-57300075D01*
X78609155Y-57184784D01*
X78633500Y-57062393D01*
X78633500Y-56937606D01*
X78633500Y-52757500D01*
X78653185Y-52690461D01*
X78705989Y-52644706D01*
X78757500Y-52633500D01*
X79062395Y-52633500D01*
X79062396Y-52633499D01*
X79184785Y-52609155D01*
X79300075Y-52561400D01*
X79403833Y-52492071D01*
X80031085Y-51864819D01*
X80092408Y-51831334D01*
X80118766Y-51828500D01*
X80807500Y-51828500D01*
X80874539Y-51848185D01*
X80920294Y-51900989D01*
X80931500Y-51952500D01*
X80931500Y-52268654D01*
X80938011Y-52329202D01*
X80938011Y-52329204D01*
X80989111Y-52466204D01*
X81076739Y-52583261D01*
X81193796Y-52670889D01*
X81330799Y-52721989D01*
X81358050Y-52724918D01*
X81391345Y-52728499D01*
X81391362Y-52728500D01*
X82608638Y-52728500D01*
X82608654Y-52728499D01*
X82635692Y-52725591D01*
X82669201Y-52721989D01*
X82806204Y-52670889D01*
X82923261Y-52583261D01*
X83010889Y-52466204D01*
X83061989Y-52329201D01*
X83065591Y-52295692D01*
X83068499Y-52268654D01*
X83068500Y-52268637D01*
X83068500Y-49731362D01*
X83068499Y-49731345D01*
X83065157Y-49700270D01*
X83061989Y-49670799D01*
X83041587Y-49616101D01*
X83024699Y-49570823D01*
X83010889Y-49533796D01*
X82923261Y-49416739D01*
X82806204Y-49329111D01*
X82669203Y-49278011D01*
X82608654Y-49271500D01*
X82608638Y-49271500D01*
X81391362Y-49271500D01*
X81391345Y-49271500D01*
X81330797Y-49278011D01*
X81330795Y-49278011D01*
X81193795Y-49329111D01*
X81076739Y-49416739D01*
X80989111Y-49533795D01*
X80938011Y-49670795D01*
X80938011Y-49670797D01*
X80931500Y-49731345D01*
X80931500Y-50437500D01*
X80911815Y-50504539D01*
X80859011Y-50550294D01*
X80807500Y-50561500D01*
X79742601Y-50561500D01*
X79620222Y-50585843D01*
X79620214Y-50585845D01*
X79504927Y-50633598D01*
X79504918Y-50633603D01*
X79401167Y-50702928D01*
X79401163Y-50702931D01*
X78773915Y-51330181D01*
X78712592Y-51363666D01*
X78686234Y-51366500D01*
X77937601Y-51366500D01*
X77815222Y-51390843D01*
X77815214Y-51390845D01*
X77699927Y-51438598D01*
X77699918Y-51438603D01*
X77596167Y-51507928D01*
X77596163Y-51507931D01*
X77507931Y-51596163D01*
X77507928Y-51596167D01*
X77438603Y-51699918D01*
X77438598Y-51699927D01*
X77390845Y-51815214D01*
X77390843Y-51815222D01*
X77366500Y-51937601D01*
X77366500Y-56686233D01*
X77346815Y-56753272D01*
X77330180Y-56773914D01*
X76188667Y-57915429D01*
X76157451Y-57946645D01*
X76100427Y-58003668D01*
X76031103Y-58107418D01*
X76031098Y-58107427D01*
X75983345Y-58222714D01*
X75983343Y-58222722D01*
X75959000Y-58345101D01*
X75959000Y-59400479D01*
X75952559Y-59422412D01*
X75950657Y-59445194D01*
X75940624Y-59463058D01*
X75939315Y-59467518D01*
X75933375Y-59475967D01*
X75910257Y-59506094D01*
X75853828Y-59547296D01*
X75784082Y-59551450D01*
X75723162Y-59517236D01*
X75695702Y-59473943D01*
X75650889Y-59353796D01*
X75563261Y-59236739D01*
X75446204Y-59149111D01*
X75309203Y-59098011D01*
X75248654Y-59091500D01*
X75248638Y-59091500D01*
X74351362Y-59091500D01*
X74351345Y-59091500D01*
X74290797Y-59098011D01*
X74290795Y-59098011D01*
X74153795Y-59149111D01*
X74074311Y-59208613D01*
X74008846Y-59233030D01*
X73940573Y-59218178D01*
X73925689Y-59208613D01*
X73846204Y-59149111D01*
X73709203Y-59098011D01*
X73648654Y-59091500D01*
X73648638Y-59091500D01*
X72751362Y-59091500D01*
X72751345Y-59091500D01*
X72690797Y-59098011D01*
X72690795Y-59098011D01*
X72553795Y-59149111D01*
X72436739Y-59236739D01*
X72349111Y-59353795D01*
X72298011Y-59490795D01*
X72298011Y-59490797D01*
X72291500Y-59551345D01*
X72291500Y-59761233D01*
X72271815Y-59828272D01*
X72255181Y-59848914D01*
X72048915Y-60055181D01*
X71987592Y-60088666D01*
X71961234Y-60091500D01*
X71910516Y-60091500D01*
X71735007Y-60126411D01*
X71734999Y-60126413D01*
X71569667Y-60194896D01*
X71569657Y-60194901D01*
X71420865Y-60294321D01*
X71420861Y-60294324D01*
X71294324Y-60420861D01*
X71294321Y-60420865D01*
X71194901Y-60569657D01*
X71194896Y-60569667D01*
X71126413Y-60734999D01*
X71126411Y-60735007D01*
X71091500Y-60910516D01*
X69000500Y-60910516D01*
X69000500Y-52002561D01*
X69000606Y-51997437D01*
X69005517Y-51878711D01*
X72149500Y-51878711D01*
X72149500Y-52121288D01*
X72181161Y-52361785D01*
X72243947Y-52596104D01*
X72310800Y-52757500D01*
X72336776Y-52820212D01*
X72458064Y-53030289D01*
X72458066Y-53030292D01*
X72458067Y-53030293D01*
X72605733Y-53222736D01*
X72605739Y-53222743D01*
X72777256Y-53394260D01*
X72777262Y-53394265D01*
X72969711Y-53541936D01*
X73179788Y-53663224D01*
X73403900Y-53756054D01*
X73638211Y-53818838D01*
X73818586Y-53842584D01*
X73878711Y-53850500D01*
X73878712Y-53850500D01*
X74121289Y-53850500D01*
X74169388Y-53844167D01*
X74361789Y-53818838D01*
X74596100Y-53756054D01*
X74820212Y-53663224D01*
X75030289Y-53541936D01*
X75222738Y-53394265D01*
X75394265Y-53222738D01*
X75541936Y-53030289D01*
X75663224Y-52820212D01*
X75756054Y-52596100D01*
X75818838Y-52361789D01*
X75850500Y-52121288D01*
X75850500Y-51878712D01*
X75818838Y-51638211D01*
X75756054Y-51403900D01*
X75663224Y-51179788D01*
X75541936Y-50969711D01*
X75423258Y-50815046D01*
X75394266Y-50777263D01*
X75394260Y-50777256D01*
X75222743Y-50605739D01*
X75222736Y-50605733D01*
X75030293Y-50458067D01*
X75030292Y-50458066D01*
X75030289Y-50458064D01*
X74820212Y-50336776D01*
X74820205Y-50336773D01*
X74596104Y-50243947D01*
X74361785Y-50181161D01*
X74121289Y-50149500D01*
X74121288Y-50149500D01*
X73878712Y-50149500D01*
X73878711Y-50149500D01*
X73638214Y-50181161D01*
X73403895Y-50243947D01*
X73179794Y-50336773D01*
X73179785Y-50336777D01*
X72969706Y-50458067D01*
X72777263Y-50605733D01*
X72777256Y-50605739D01*
X72605739Y-50777256D01*
X72605733Y-50777263D01*
X72458067Y-50969706D01*
X72336777Y-51179785D01*
X72336773Y-51179794D01*
X72243947Y-51403895D01*
X72181161Y-51638214D01*
X72149500Y-51878711D01*
X69005517Y-51878711D01*
X69015815Y-51629716D01*
X69016177Y-51624098D01*
X69023531Y-51540031D01*
X69024003Y-51535582D01*
X69064218Y-51212959D01*
X69065138Y-51206842D01*
X69079003Y-51128210D01*
X69079732Y-51124428D01*
X69147553Y-50800974D01*
X69149123Y-50794394D01*
X69167614Y-50725385D01*
X69168500Y-50722251D01*
X69265389Y-50396810D01*
X69267685Y-50389862D01*
X69287331Y-50335886D01*
X69288276Y-50333380D01*
X69416976Y-50003551D01*
X69420079Y-49996292D01*
X69434634Y-49965080D01*
X69435415Y-49963445D01*
X69600823Y-49625097D01*
X69605683Y-49616116D01*
X69811972Y-49269919D01*
X69817565Y-49261359D01*
X70051723Y-48933400D01*
X70057992Y-48925346D01*
X70318443Y-48617832D01*
X70325362Y-48610316D01*
X70610316Y-48325362D01*
X70617832Y-48318443D01*
X70925346Y-48057992D01*
X70933400Y-48051723D01*
X71261359Y-47817565D01*
X71269919Y-47811972D01*
X71616116Y-47605683D01*
X71625097Y-47600823D01*
X71963445Y-47435415D01*
X71965080Y-47434634D01*
X71996292Y-47420079D01*
X72003551Y-47416976D01*
X72333380Y-47288276D01*
X72335886Y-47287331D01*
X72389862Y-47267685D01*
X72396810Y-47265389D01*
X72722251Y-47168500D01*
X72725385Y-47167614D01*
X72794394Y-47149123D01*
X72800981Y-47147552D01*
X73124428Y-47079732D01*
X73128210Y-47079003D01*
X73206842Y-47065138D01*
X73212959Y-47064218D01*
X73535582Y-47024003D01*
X73540031Y-47023531D01*
X73624098Y-47016177D01*
X73629716Y-47015815D01*
X73997437Y-47000605D01*
X74002561Y-47000500D01*
X83997128Y-47000500D01*
X84002855Y-47000632D01*
G37*
%TD.AperFunction*%
%TD*%
M02*
