%TF.GenerationSoftware,KiCad,Pcbnew,9.0.9*%
%TF.CreationDate,2026-09-18T13:51:00-05:00*%
%TF.ProjectId,PROJ1_v0.0,50524f4a-315f-4763-902e-302e6b696361,1.0*%
%TF.SameCoordinates,Original*%
%TF.FileFunction,Copper,L2,Bot*%
%TF.FilePolarity,Positive*%
%FSLAX46Y46*%
G04 Gerber Fmt 4.6, Leading zero omitted, Abs format (unit mm)*
G04 Created by KiCad (PCBNEW 9.0.9) date 2026-09-18 13:51:00*
%MOMM*%
%LPD*%
G01*
G04 APERTURE LIST*
G04 Aperture macros list*
%AMRoundRect*
0 Rectangle with rounded corners*
0 $1 Rounding radius*
0 $2 $3 $4 $5 $6 $7 $8 $9 X,Y pos of 4 corners*
0 Add a 4 corners polygon primitive as box body*
4,1,4,$2,$3,$4,$5,$6,$7,$8,$9,$2,$3,0*
0 Add four circle primitives for the rounded corners*
1,1,$1+$1,$2,$3*
1,1,$1+$1,$4,$5*
1,1,$1+$1,$6,$7*
1,1,$1+$1,$8,$9*
0 Add four rect primitives between the rounded corners*
20,1,$1+$1,$2,$3,$4,$5,0*
20,1,$1+$1,$4,$5,$6,$7,0*
20,1,$1+$1,$6,$7,$8,$9,0*
20,1,$1+$1,$8,$9,$2,$3,0*%
G04 Aperture macros list end*
%TA.AperFunction,ComponentPad*%
%ADD10O,1.740000X2.190000*%
%TD*%
%TA.AperFunction,ComponentPad*%
%ADD11RoundRect,0.250000X-0.620000X-0.845000X0.620000X-0.845000X0.620000X0.845000X-0.620000X0.845000X0*%
%TD*%
%TA.AperFunction,ViaPad*%
%ADD12C,0.800000*%
%TD*%
G04 APERTURE END LIST*
D10*
%TO.P,J1,2,Pin_2*%
%TO.N,+3V3*%
X76000000Y-65000000D03*
D11*
%TO.P,J1,1,Pin_1*%
%TO.N,GND*%
X73460000Y-65000000D03*
%TD*%
D12*
%TO.N,GND*%
X72000000Y-61000000D03*
%TD*%
%TA.AperFunction,Conductor*%
%TO.N,GND*%
G36*
X84002855Y-47000632D02*
G01*
X84330403Y-47015775D01*
X84336794Y-47016237D01*
X84411695Y-47023614D01*
X84416651Y-47024204D01*
X84703199Y-47064176D01*
X84710207Y-47065360D01*
X84779026Y-47079049D01*
X84783093Y-47079932D01*
X85070629Y-47147560D01*
X85078174Y-47149589D01*
X85135880Y-47167094D01*
X85139134Y-47168132D01*
X85429219Y-47265359D01*
X85437180Y-47268338D01*
X85476927Y-47284802D01*
X85479352Y-47285839D01*
X85775546Y-47416623D01*
X85783882Y-47420683D01*
X85794023Y-47426104D01*
X85795724Y-47427032D01*
X86036130Y-47560937D01*
X86100452Y-47596765D01*
X86110190Y-47602794D01*
X86405512Y-47805093D01*
X86414649Y-47811994D01*
X86690035Y-48040671D01*
X86698499Y-48048387D01*
X86951612Y-48301500D01*
X86959328Y-48309964D01*
X87188003Y-48585347D01*
X87194906Y-48594487D01*
X87397205Y-48889809D01*
X87403234Y-48899547D01*
X87572925Y-49204199D01*
X87573958Y-49206093D01*
X87579307Y-49216102D01*
X87583379Y-49224460D01*
X87714114Y-49520542D01*
X87715232Y-49523156D01*
X87731648Y-49562788D01*
X87734651Y-49570812D01*
X87812111Y-49801920D01*
X87831840Y-49860785D01*
X87832929Y-49864196D01*
X87850401Y-49921794D01*
X87852446Y-49929399D01*
X87920051Y-50216838D01*
X87920963Y-50221038D01*
X87934633Y-50289764D01*
X87935826Y-50296823D01*
X87975793Y-50583341D01*
X87976385Y-50588318D01*
X87983759Y-50663186D01*
X87984224Y-50669613D01*
X87999368Y-50997145D01*
X87999500Y-51002872D01*
X87999500Y-55300500D01*
X87979815Y-55367539D01*
X87927011Y-55413294D01*
X87875500Y-55424500D01*
X82984982Y-55424500D01*
X82957231Y-55435995D01*
X82935995Y-55457231D01*
X82935994Y-55457232D01*
X82935994Y-55457233D01*
X82924500Y-55484982D01*
X82924500Y-55515018D01*
X82935994Y-55542767D01*
X82957233Y-55564006D01*
X82984982Y-55575500D01*
X87875500Y-55575500D01*
X87942539Y-55595185D01*
X87988294Y-55647989D01*
X87999500Y-55699500D01*
X87999500Y-64800500D01*
X87979815Y-64867539D01*
X87927011Y-64913294D01*
X87875500Y-64924500D01*
X84465273Y-64924500D01*
X84398234Y-64904815D01*
X84352479Y-64852011D01*
X84342334Y-64816685D01*
X84340203Y-64800500D01*
X84318838Y-64638211D01*
X84256054Y-64403900D01*
X84163224Y-64179788D01*
X84041936Y-63969711D01*
X83950805Y-63850946D01*
X83894266Y-63777263D01*
X83894260Y-63777256D01*
X83722743Y-63605739D01*
X83722736Y-63605733D01*
X83530293Y-63458067D01*
X83530292Y-63458066D01*
X83530289Y-63458064D01*
X83320212Y-63336776D01*
X83320205Y-63336773D01*
X83096104Y-63243947D01*
X82861785Y-63181161D01*
X82621289Y-63149500D01*
X82621288Y-63149500D01*
X82378712Y-63149500D01*
X82378711Y-63149500D01*
X82138214Y-63181161D01*
X81903895Y-63243947D01*
X81679794Y-63336773D01*
X81679785Y-63336777D01*
X81469706Y-63458067D01*
X81277263Y-63605733D01*
X81277256Y-63605739D01*
X81105739Y-63777256D01*
X81105733Y-63777263D01*
X80958067Y-63969706D01*
X80836777Y-64179785D01*
X80836773Y-64179794D01*
X80743947Y-64403895D01*
X80681161Y-64638214D01*
X80649500Y-64878711D01*
X80649500Y-65121288D01*
X80681161Y-65361785D01*
X80743947Y-65596104D01*
X80809416Y-65754160D01*
X80836776Y-65820212D01*
X80958064Y-66030289D01*
X80958066Y-66030292D01*
X80958067Y-66030293D01*
X81105733Y-66222736D01*
X81105739Y-66222743D01*
X81277256Y-66394260D01*
X81277263Y-66394266D01*
X81301489Y-66412855D01*
X81469711Y-66541936D01*
X81679788Y-66663224D01*
X81903900Y-66756054D01*
X82138211Y-66818838D01*
X82318586Y-66842584D01*
X82378711Y-66850500D01*
X82378712Y-66850500D01*
X82621289Y-66850500D01*
X82669388Y-66844167D01*
X82861789Y-66818838D01*
X83096100Y-66756054D01*
X83320212Y-66663224D01*
X83530289Y-66541936D01*
X83722738Y-66394265D01*
X83894265Y-66222738D01*
X84041936Y-66030289D01*
X84163224Y-65820212D01*
X84256054Y-65596100D01*
X84318838Y-65361789D01*
X84342334Y-65183314D01*
X84370600Y-65119418D01*
X84428925Y-65080947D01*
X84465273Y-65075500D01*
X87875500Y-65075500D01*
X87942539Y-65095185D01*
X87988294Y-65147989D01*
X87999500Y-65199500D01*
X87999500Y-65997437D01*
X87999394Y-66002562D01*
X87984185Y-66370249D01*
X87983819Y-66375931D01*
X87976470Y-66459929D01*
X87975990Y-66464460D01*
X87935786Y-66786997D01*
X87934854Y-66793191D01*
X87921005Y-66871733D01*
X87920250Y-66875648D01*
X87852453Y-67198988D01*
X87850867Y-67205634D01*
X87832405Y-67274536D01*
X87831475Y-67277825D01*
X87734622Y-67603147D01*
X87732299Y-67610176D01*
X87712696Y-67664034D01*
X87711691Y-67666698D01*
X87583036Y-67996414D01*
X87579902Y-68003743D01*
X87565471Y-68034691D01*
X87564489Y-68036747D01*
X87399182Y-68374889D01*
X87394304Y-68383903D01*
X87188033Y-68730070D01*
X87182427Y-68738649D01*
X86948289Y-69066581D01*
X86941994Y-69074669D01*
X86681566Y-69382155D01*
X86674625Y-69389695D01*
X86389695Y-69674625D01*
X86382155Y-69681566D01*
X86074669Y-69941994D01*
X86066581Y-69948289D01*
X85738649Y-70182427D01*
X85730070Y-70188033D01*
X85383903Y-70394304D01*
X85374889Y-70399182D01*
X85036747Y-70564489D01*
X85034691Y-70565471D01*
X85003743Y-70579902D01*
X84996414Y-70583036D01*
X84666698Y-70711691D01*
X84664034Y-70712696D01*
X84610176Y-70732299D01*
X84603147Y-70734622D01*
X84277825Y-70831475D01*
X84274536Y-70832405D01*
X84205634Y-70850867D01*
X84198988Y-70852453D01*
X83875648Y-70920250D01*
X83871733Y-70921005D01*
X83793191Y-70934854D01*
X83786997Y-70935786D01*
X83464460Y-70975990D01*
X83459929Y-70976470D01*
X83375931Y-70983819D01*
X83370249Y-70984185D01*
X83004859Y-70999298D01*
X83003192Y-70999368D01*
X83002563Y-70999394D01*
X82997438Y-70999500D01*
X73002872Y-70999500D01*
X72997145Y-70999368D01*
X72669613Y-70984224D01*
X72663186Y-70983759D01*
X72588318Y-70976385D01*
X72583341Y-70975793D01*
X72296823Y-70935826D01*
X72289764Y-70934633D01*
X72221038Y-70920963D01*
X72216838Y-70920051D01*
X71929399Y-70852446D01*
X71921794Y-70850401D01*
X71864196Y-70832929D01*
X71860785Y-70831840D01*
X71816274Y-70816921D01*
X71570812Y-70734651D01*
X71562788Y-70731648D01*
X71523156Y-70715232D01*
X71520563Y-70714123D01*
X71403432Y-70662404D01*
X71224460Y-70583379D01*
X71216102Y-70579307D01*
X71206093Y-70573958D01*
X71204241Y-70572948D01*
X71066533Y-70496245D01*
X70899547Y-70403234D01*
X70889809Y-70397205D01*
X70594487Y-70194906D01*
X70585347Y-70188003D01*
X70309964Y-69959328D01*
X70301500Y-69951612D01*
X70048387Y-69698499D01*
X70040671Y-69690035D01*
X69811994Y-69414649D01*
X69805093Y-69405512D01*
X69791774Y-69386069D01*
X69602794Y-69110190D01*
X69596765Y-69100452D01*
X69489658Y-68908159D01*
X69427032Y-68795724D01*
X69426104Y-68794023D01*
X69420683Y-68783882D01*
X69416619Y-68775538D01*
X69400331Y-68738649D01*
X69285839Y-68479352D01*
X69284802Y-68476927D01*
X69268338Y-68437180D01*
X69265359Y-68429219D01*
X69168132Y-68139134D01*
X69167094Y-68135880D01*
X69149589Y-68078174D01*
X69147560Y-68070629D01*
X69079932Y-67783093D01*
X69079049Y-67779026D01*
X69065360Y-67710207D01*
X69064176Y-67703199D01*
X69024204Y-67416651D01*
X69023613Y-67411680D01*
X69016239Y-67336812D01*
X69015774Y-67330385D01*
X69013344Y-67277825D01*
X69000632Y-67002855D01*
X69000500Y-66997128D01*
X69000500Y-64105013D01*
X72090000Y-64105013D01*
X72090000Y-64750000D01*
X72917291Y-64750000D01*
X72905548Y-64770339D01*
X72865000Y-64921667D01*
X72865000Y-65078333D01*
X72905548Y-65229661D01*
X72917291Y-65250000D01*
X72090001Y-65250000D01*
X72090001Y-65894986D01*
X72100494Y-65997697D01*
X72155641Y-66164119D01*
X72155643Y-66164124D01*
X72247684Y-66313345D01*
X72371654Y-66437315D01*
X72520875Y-66529356D01*
X72520880Y-66529358D01*
X72687302Y-66584505D01*
X72687309Y-66584506D01*
X72790019Y-66594999D01*
X73209999Y-66594999D01*
X73210000Y-66594998D01*
X73210000Y-65542709D01*
X73230339Y-65554452D01*
X73381667Y-65595000D01*
X73538333Y-65595000D01*
X73689661Y-65554452D01*
X73710000Y-65542709D01*
X73710000Y-66594999D01*
X74129972Y-66594999D01*
X74129986Y-66594998D01*
X74232697Y-66584505D01*
X74399119Y-66529358D01*
X74399124Y-66529356D01*
X74548345Y-66437315D01*
X74672317Y-66313343D01*
X74767968Y-66158267D01*
X74819916Y-66111542D01*
X74888878Y-66100319D01*
X74952960Y-66128162D01*
X74961188Y-66135682D01*
X75101967Y-66276461D01*
X75277508Y-66403999D01*
X75470840Y-66502506D01*
X75677200Y-66569557D01*
X75757566Y-66582285D01*
X75891505Y-66603500D01*
X75891510Y-66603500D01*
X76108495Y-66603500D01*
X76228421Y-66584505D01*
X76322800Y-66569557D01*
X76529160Y-66502506D01*
X76722492Y-66403999D01*
X76898033Y-66276461D01*
X77051461Y-66123033D01*
X77178999Y-65947492D01*
X77277506Y-65754160D01*
X77344557Y-65547800D01*
X77373456Y-65365338D01*
X77378500Y-65333495D01*
X77378500Y-64666504D01*
X77344557Y-64452203D01*
X77344557Y-64452200D01*
X77277506Y-64245840D01*
X77178999Y-64052508D01*
X77051461Y-63876967D01*
X76898033Y-63723539D01*
X76722492Y-63596001D01*
X76529160Y-63497494D01*
X76322800Y-63430443D01*
X76322798Y-63430442D01*
X76322796Y-63430442D01*
X76108495Y-63396500D01*
X76108490Y-63396500D01*
X75891510Y-63396500D01*
X75891505Y-63396500D01*
X75677203Y-63430442D01*
X75470837Y-63497495D01*
X75277507Y-63596001D01*
X75101968Y-63723538D01*
X74961188Y-63864318D01*
X74899865Y-63897802D01*
X74830173Y-63892818D01*
X74774240Y-63850946D01*
X74767968Y-63841732D01*
X74672317Y-63686656D01*
X74548345Y-63562684D01*
X74399124Y-63470643D01*
X74399119Y-63470641D01*
X74232697Y-63415494D01*
X74232690Y-63415493D01*
X74129986Y-63405000D01*
X73710000Y-63405000D01*
X73710000Y-64457290D01*
X73689661Y-64445548D01*
X73538333Y-64405000D01*
X73381667Y-64405000D01*
X73230339Y-64445548D01*
X73210000Y-64457290D01*
X73210000Y-63405000D01*
X72790028Y-63405000D01*
X72790012Y-63405001D01*
X72687302Y-63415494D01*
X72520880Y-63470641D01*
X72520875Y-63470643D01*
X72371654Y-63562684D01*
X72247684Y-63686654D01*
X72155643Y-63835875D01*
X72155641Y-63835880D01*
X72100494Y-64002302D01*
X72100493Y-64002309D01*
X72090000Y-64105013D01*
X69000500Y-64105013D01*
X69000500Y-52002561D01*
X69000606Y-51997437D01*
X69005517Y-51878711D01*
X72149500Y-51878711D01*
X72149500Y-52121288D01*
X72181161Y-52361785D01*
X72243947Y-52596104D01*
X72336773Y-52820205D01*
X72336776Y-52820212D01*
X72458064Y-53030289D01*
X72458066Y-53030292D01*
X72458067Y-53030293D01*
X72605733Y-53222736D01*
X72605739Y-53222743D01*
X72777256Y-53394260D01*
X72777262Y-53394265D01*
X72969711Y-53541936D01*
X73179788Y-53663224D01*
X73403900Y-53756054D01*
X73638211Y-53818838D01*
X73818586Y-53842584D01*
X73878711Y-53850500D01*
X73878712Y-53850500D01*
X74121289Y-53850500D01*
X74169388Y-53844167D01*
X74361789Y-53818838D01*
X74596100Y-53756054D01*
X74820212Y-53663224D01*
X75030289Y-53541936D01*
X75222738Y-53394265D01*
X75394265Y-53222738D01*
X75541936Y-53030289D01*
X75663224Y-52820212D01*
X75756054Y-52596100D01*
X75818838Y-52361789D01*
X75850500Y-52121288D01*
X75850500Y-51878712D01*
X75818838Y-51638211D01*
X75756054Y-51403900D01*
X75663224Y-51179788D01*
X75541936Y-50969711D01*
X75423258Y-50815046D01*
X75394266Y-50777263D01*
X75394260Y-50777256D01*
X75222743Y-50605739D01*
X75222736Y-50605733D01*
X75030293Y-50458067D01*
X75030292Y-50458066D01*
X75030289Y-50458064D01*
X74820212Y-50336776D01*
X74820205Y-50336773D01*
X74596104Y-50243947D01*
X74361785Y-50181161D01*
X74121289Y-50149500D01*
X74121288Y-50149500D01*
X73878712Y-50149500D01*
X73878711Y-50149500D01*
X73638214Y-50181161D01*
X73403895Y-50243947D01*
X73179794Y-50336773D01*
X73179785Y-50336777D01*
X72969706Y-50458067D01*
X72777263Y-50605733D01*
X72777256Y-50605739D01*
X72605739Y-50777256D01*
X72605733Y-50777263D01*
X72458067Y-50969706D01*
X72336777Y-51179785D01*
X72336773Y-51179794D01*
X72243947Y-51403895D01*
X72181161Y-51638214D01*
X72149500Y-51878711D01*
X69005517Y-51878711D01*
X69015815Y-51629716D01*
X69016177Y-51624098D01*
X69023531Y-51540031D01*
X69024003Y-51535582D01*
X69064218Y-51212959D01*
X69065138Y-51206842D01*
X69079003Y-51128210D01*
X69079732Y-51124428D01*
X69147553Y-50800974D01*
X69149123Y-50794394D01*
X69167614Y-50725385D01*
X69168500Y-50722251D01*
X69265389Y-50396810D01*
X69267685Y-50389862D01*
X69287331Y-50335886D01*
X69288276Y-50333380D01*
X69416976Y-50003551D01*
X69420079Y-49996292D01*
X69434634Y-49965080D01*
X69435415Y-49963445D01*
X69600823Y-49625097D01*
X69605683Y-49616116D01*
X69811972Y-49269919D01*
X69817565Y-49261359D01*
X70051723Y-48933400D01*
X70057992Y-48925346D01*
X70318443Y-48617832D01*
X70325362Y-48610316D01*
X70610316Y-48325362D01*
X70617832Y-48318443D01*
X70925346Y-48057992D01*
X70933400Y-48051723D01*
X71261359Y-47817565D01*
X71269919Y-47811972D01*
X71616116Y-47605683D01*
X71625097Y-47600823D01*
X71963445Y-47435415D01*
X71965080Y-47434634D01*
X71996292Y-47420079D01*
X72003551Y-47416976D01*
X72333380Y-47288276D01*
X72335886Y-47287331D01*
X72389862Y-47267685D01*
X72396810Y-47265389D01*
X72722251Y-47168500D01*
X72725385Y-47167614D01*
X72794394Y-47149123D01*
X72800981Y-47147552D01*
X73124428Y-47079732D01*
X73128210Y-47079003D01*
X73206842Y-47065138D01*
X73212959Y-47064218D01*
X73535582Y-47024003D01*
X73540031Y-47023531D01*
X73624098Y-47016177D01*
X73629716Y-47015815D01*
X73997437Y-47000605D01*
X74002561Y-47000500D01*
X83997128Y-47000500D01*
X84002855Y-47000632D01*
G37*
%TD.AperFunction*%
%TD*%
M02*
