%TF.GenerationSoftware,KiCad,Pcbnew,9.0.9*%
%TF.CreationDate,2026-09-18T14:06:54-05:00*%
%TF.ProjectId,PROJ1_v0.0,50524f4a-315f-4763-902e-302e6b696361,1.0*%
%TF.SameCoordinates,Original*%
%TF.FileFunction,Copper,L2,Bot*%
%TF.FilePolarity,Positive*%
%FSLAX46Y46*%
G04 Gerber Fmt 4.6, Leading zero omitted, Abs format (unit mm)*
G04 Created by KiCad (PCBNEW 9.0.9) date 2026-09-18 14:06:54*
%MOMM*%
%LPD*%
G01*
G04 APERTURE LIST*
G04 Aperture macros list*
%AMRoundRect*
0 Rectangle with rounded corners*
0 $1 Rounding radius*
0 $2 $3 $4 $5 $6 $7 $8 $9 X,Y pos of 4 corners*
0 Add a 4 corners polygon primitive as box body*
4,1,4,$2,$3,$4,$5,$6,$7,$8,$9,$2,$3,0*
0 Add four circle primitives for the rounded corners*
1,1,$1+$1,$2,$3*
1,1,$1+$1,$4,$5*
1,1,$1+$1,$6,$7*
1,1,$1+$1,$8,$9*
0 Add four rect primitives between the rounded corners*
20,1,$1+$1,$2,$3,$4,$5,0*
20,1,$1+$1,$4,$5,$6,$7,0*
20,1,$1+$1,$6,$7,$8,$9,0*
20,1,$1+$1,$8,$9,$2,$3,0*%
G04 Aperture macros list end*
%TA.AperFunction,ComponentPad*%
%ADD10O,1.740000X2.190000*%
%TD*%
%TA.AperFunction,ComponentPad*%
%ADD11RoundRect,0.250000X-0.620000X-0.845000X0.620000X-0.845000X0.620000X0.845000X-0.620000X0.845000X0*%
%TD*%
%TA.AperFunction,ViaPad*%
%ADD12C,0.800000*%
%TD*%
G04 APERTURE END LIST*
D10*
%TO.P,J1,2,Pin_2*%
%TO.N,+3V3*%
X76000000Y-65000000D03*
D11*
%TO.P,J1,1,Pin_1*%
%TO.N,GND*%
X73460000Y-65000000D03*
%TD*%
D12*
%TO.N,GND*%
X72000000Y-61000000D03*
%TD*%
%TA.AperFunction,Conductor*%
%TO.N,GND*%
G36*
X84003032Y-47250648D02*
G01*
X84361433Y-47268256D01*
X84373541Y-47269448D01*
X84725475Y-47321653D01*
X84737393Y-47324024D01*
X85082516Y-47410472D01*
X85094160Y-47414005D01*
X85429130Y-47533860D01*
X85440371Y-47538516D01*
X85669005Y-47646650D01*
X85762003Y-47690635D01*
X85772720Y-47696363D01*
X86077885Y-47879273D01*
X86088000Y-47886031D01*
X86373768Y-48097970D01*
X86383166Y-48105683D01*
X86646790Y-48344618D01*
X86655381Y-48353209D01*
X86666369Y-48365332D01*
X86894312Y-48616828D01*
X86902032Y-48626235D01*
X87113966Y-48911997D01*
X87120726Y-48922114D01*
X87303629Y-49227267D01*
X87309366Y-49238000D01*
X87461483Y-49559628D01*
X87466139Y-49570869D01*
X87585994Y-49905839D01*
X87589527Y-49917485D01*
X87675973Y-50262598D01*
X87678347Y-50274532D01*
X87730550Y-50626457D01*
X87731743Y-50638567D01*
X87749351Y-50996966D01*
X87749500Y-51003051D01*
X87749500Y-55050500D01*
X87729815Y-55117539D01*
X87677011Y-55163294D01*
X87625500Y-55174500D01*
X82957147Y-55174500D01*
X82874362Y-55196682D01*
X82874355Y-55196685D01*
X82800144Y-55239530D01*
X82800136Y-55239536D01*
X82739536Y-55300136D01*
X82739530Y-55300144D01*
X82696685Y-55374355D01*
X82696682Y-55374362D01*
X82674500Y-55457147D01*
X82674500Y-55542852D01*
X82696682Y-55625637D01*
X82696685Y-55625644D01*
X82739530Y-55699855D01*
X82739534Y-55699860D01*
X82739535Y-55699862D01*
X82800138Y-55760465D01*
X82800140Y-55760466D01*
X82800144Y-55760469D01*
X82874355Y-55803314D01*
X82874362Y-55803318D01*
X82957147Y-55825500D01*
X87625500Y-55825500D01*
X87692539Y-55845185D01*
X87738294Y-55897989D01*
X87749500Y-55949500D01*
X87749500Y-64550500D01*
X87729815Y-64617539D01*
X87677011Y-64663294D01*
X87625500Y-64674500D01*
X84423710Y-64674500D01*
X84356671Y-64654815D01*
X84310916Y-64602011D01*
X84303935Y-64582594D01*
X84256054Y-64403900D01*
X84163224Y-64179788D01*
X84041936Y-63969711D01*
X83950805Y-63850946D01*
X83894266Y-63777263D01*
X83894260Y-63777256D01*
X83722743Y-63605739D01*
X83722736Y-63605733D01*
X83530293Y-63458067D01*
X83530292Y-63458066D01*
X83530289Y-63458064D01*
X83320212Y-63336776D01*
X83320205Y-63336773D01*
X83096104Y-63243947D01*
X82861785Y-63181161D01*
X82621289Y-63149500D01*
X82621288Y-63149500D01*
X82378712Y-63149500D01*
X82378711Y-63149500D01*
X82138214Y-63181161D01*
X81903895Y-63243947D01*
X81679794Y-63336773D01*
X81679785Y-63336777D01*
X81469706Y-63458067D01*
X81277263Y-63605733D01*
X81277256Y-63605739D01*
X81105739Y-63777256D01*
X81105733Y-63777263D01*
X80958067Y-63969706D01*
X80836777Y-64179785D01*
X80836773Y-64179794D01*
X80743947Y-64403895D01*
X80681161Y-64638214D01*
X80649500Y-64878711D01*
X80649500Y-65121288D01*
X80681161Y-65361785D01*
X80743947Y-65596104D01*
X80809416Y-65754160D01*
X80836776Y-65820212D01*
X80958064Y-66030289D01*
X80958066Y-66030292D01*
X80958067Y-66030293D01*
X81105733Y-66222736D01*
X81105739Y-66222743D01*
X81277256Y-66394260D01*
X81277263Y-66394266D01*
X81295864Y-66408539D01*
X81469711Y-66541936D01*
X81679788Y-66663224D01*
X81903900Y-66756054D01*
X82138211Y-66818838D01*
X82318586Y-66842584D01*
X82378711Y-66850500D01*
X82378712Y-66850500D01*
X82621289Y-66850500D01*
X82669388Y-66844167D01*
X82861789Y-66818838D01*
X83096100Y-66756054D01*
X83320212Y-66663224D01*
X83530289Y-66541936D01*
X83722738Y-66394265D01*
X83894265Y-66222738D01*
X84041936Y-66030289D01*
X84163224Y-65820212D01*
X84256054Y-65596100D01*
X84303935Y-65417405D01*
X84340300Y-65357746D01*
X84403147Y-65327217D01*
X84423710Y-65325500D01*
X87625500Y-65325500D01*
X87692539Y-65345185D01*
X87738294Y-65397989D01*
X87749500Y-65449500D01*
X87749500Y-65997293D01*
X87749382Y-66002702D01*
X87731663Y-66408539D01*
X87730720Y-66419316D01*
X87678051Y-66819370D01*
X87676173Y-66830022D01*
X87588837Y-67223974D01*
X87586037Y-67234424D01*
X87464697Y-67619264D01*
X87460997Y-67629429D01*
X87306579Y-68002226D01*
X87302007Y-68012030D01*
X87115690Y-68369942D01*
X87110282Y-68379310D01*
X86893469Y-68719638D01*
X86887264Y-68728499D01*
X86641621Y-69048627D01*
X86634667Y-69056914D01*
X86362061Y-69354412D01*
X86354412Y-69362061D01*
X86056914Y-69634667D01*
X86048627Y-69641621D01*
X85728499Y-69887264D01*
X85719638Y-69893469D01*
X85379310Y-70110282D01*
X85369942Y-70115690D01*
X85012030Y-70302007D01*
X85002226Y-70306579D01*
X84629429Y-70460997D01*
X84619264Y-70464697D01*
X84234424Y-70586037D01*
X84223974Y-70588837D01*
X83830022Y-70676173D01*
X83819370Y-70678051D01*
X83419316Y-70730720D01*
X83408539Y-70731663D01*
X83002703Y-70749382D01*
X82997294Y-70749500D01*
X73003051Y-70749500D01*
X72996968Y-70749351D01*
X72974856Y-70748264D01*
X72638567Y-70731743D01*
X72626457Y-70730550D01*
X72274532Y-70678347D01*
X72262598Y-70675973D01*
X71917485Y-70589527D01*
X71905839Y-70585994D01*
X71570869Y-70466139D01*
X71559628Y-70461483D01*
X71238000Y-70309366D01*
X71227272Y-70303631D01*
X70922114Y-70120726D01*
X70911997Y-70113966D01*
X70626235Y-69902032D01*
X70616828Y-69894312D01*
X70422650Y-69718319D01*
X70353209Y-69655381D01*
X70344618Y-69646790D01*
X70105683Y-69383166D01*
X70097967Y-69373764D01*
X70086575Y-69358404D01*
X69886031Y-69088000D01*
X69879273Y-69077885D01*
X69874859Y-69070521D01*
X69696363Y-68772720D01*
X69690633Y-68761999D01*
X69538516Y-68440371D01*
X69533860Y-68429130D01*
X69414005Y-68094160D01*
X69410472Y-68082514D01*
X69390361Y-68002226D01*
X69324024Y-67737393D01*
X69321652Y-67725467D01*
X69305898Y-67619264D01*
X69269448Y-67373541D01*
X69268256Y-67361431D01*
X69250649Y-67003032D01*
X69250500Y-66996948D01*
X69250500Y-64105013D01*
X72090000Y-64105013D01*
X72090000Y-64750000D01*
X72917291Y-64750000D01*
X72905548Y-64770339D01*
X72865000Y-64921667D01*
X72865000Y-65078333D01*
X72905548Y-65229661D01*
X72917291Y-65250000D01*
X72090001Y-65250000D01*
X72090001Y-65894986D01*
X72100494Y-65997697D01*
X72155641Y-66164119D01*
X72155643Y-66164124D01*
X72247684Y-66313345D01*
X72371654Y-66437315D01*
X72520875Y-66529356D01*
X72520880Y-66529358D01*
X72687302Y-66584505D01*
X72687309Y-66584506D01*
X72790019Y-66594999D01*
X73209999Y-66594999D01*
X73210000Y-66594998D01*
X73210000Y-65542709D01*
X73230339Y-65554452D01*
X73381667Y-65595000D01*
X73538333Y-65595000D01*
X73689661Y-65554452D01*
X73710000Y-65542709D01*
X73710000Y-66594999D01*
X74129972Y-66594999D01*
X74129986Y-66594998D01*
X74232697Y-66584505D01*
X74399119Y-66529358D01*
X74399124Y-66529356D01*
X74548345Y-66437315D01*
X74672317Y-66313343D01*
X74767968Y-66158267D01*
X74819916Y-66111542D01*
X74888878Y-66100319D01*
X74952960Y-66128162D01*
X74961188Y-66135682D01*
X75101967Y-66276461D01*
X75277508Y-66403999D01*
X75470840Y-66502506D01*
X75677200Y-66569557D01*
X75757566Y-66582285D01*
X75891505Y-66603500D01*
X75891510Y-66603500D01*
X76108495Y-66603500D01*
X76228421Y-66584505D01*
X76322800Y-66569557D01*
X76529160Y-66502506D01*
X76722492Y-66403999D01*
X76898033Y-66276461D01*
X77051461Y-66123033D01*
X77178999Y-65947492D01*
X77277506Y-65754160D01*
X77344557Y-65547800D01*
X77365209Y-65417406D01*
X77378500Y-65333495D01*
X77378500Y-64666504D01*
X77344557Y-64452203D01*
X77344557Y-64452200D01*
X77277506Y-64245840D01*
X77178999Y-64052508D01*
X77051461Y-63876967D01*
X76898033Y-63723539D01*
X76722492Y-63596001D01*
X76529160Y-63497494D01*
X76322800Y-63430443D01*
X76322798Y-63430442D01*
X76322796Y-63430442D01*
X76108495Y-63396500D01*
X76108490Y-63396500D01*
X75891510Y-63396500D01*
X75891505Y-63396500D01*
X75677203Y-63430442D01*
X75470837Y-63497495D01*
X75277507Y-63596001D01*
X75101968Y-63723538D01*
X74961188Y-63864318D01*
X74899865Y-63897802D01*
X74830173Y-63892818D01*
X74774240Y-63850946D01*
X74767968Y-63841732D01*
X74672317Y-63686656D01*
X74548345Y-63562684D01*
X74399124Y-63470643D01*
X74399119Y-63470641D01*
X74232697Y-63415494D01*
X74232690Y-63415493D01*
X74129986Y-63405000D01*
X73710000Y-63405000D01*
X73710000Y-64457290D01*
X73689661Y-64445548D01*
X73538333Y-64405000D01*
X73381667Y-64405000D01*
X73230339Y-64445548D01*
X73210000Y-64457290D01*
X73210000Y-63405000D01*
X72790028Y-63405000D01*
X72790012Y-63405001D01*
X72687302Y-63415494D01*
X72520880Y-63470641D01*
X72520875Y-63470643D01*
X72371654Y-63562684D01*
X72247684Y-63686654D01*
X72155643Y-63835875D01*
X72155641Y-63835880D01*
X72100494Y-64002302D01*
X72100493Y-64002309D01*
X72090000Y-64105013D01*
X69250500Y-64105013D01*
X69250500Y-52002706D01*
X69250618Y-51997297D01*
X69255796Y-51878711D01*
X72149500Y-51878711D01*
X72149500Y-52121288D01*
X72181161Y-52361785D01*
X72243947Y-52596104D01*
X72336773Y-52820205D01*
X72336776Y-52820212D01*
X72458064Y-53030289D01*
X72458066Y-53030292D01*
X72458067Y-53030293D01*
X72605733Y-53222736D01*
X72605739Y-53222743D01*
X72777256Y-53394260D01*
X72777262Y-53394265D01*
X72969711Y-53541936D01*
X73179788Y-53663224D01*
X73403900Y-53756054D01*
X73638211Y-53818838D01*
X73818586Y-53842584D01*
X73878711Y-53850500D01*
X73878712Y-53850500D01*
X74121289Y-53850500D01*
X74169388Y-53844167D01*
X74361789Y-53818838D01*
X74596100Y-53756054D01*
X74820212Y-53663224D01*
X75030289Y-53541936D01*
X75222738Y-53394265D01*
X75394265Y-53222738D01*
X75541936Y-53030289D01*
X75663224Y-52820212D01*
X75756054Y-52596100D01*
X75818838Y-52361789D01*
X75850500Y-52121288D01*
X75850500Y-51878712D01*
X75849253Y-51869243D01*
X75818838Y-51638214D01*
X75818838Y-51638211D01*
X75756054Y-51403900D01*
X75663224Y-51179788D01*
X75541936Y-50969711D01*
X75394265Y-50777262D01*
X75394260Y-50777256D01*
X75222743Y-50605739D01*
X75222736Y-50605733D01*
X75030293Y-50458067D01*
X75030292Y-50458066D01*
X75030289Y-50458064D01*
X74820212Y-50336776D01*
X74820205Y-50336773D01*
X74596104Y-50243947D01*
X74361785Y-50181161D01*
X74121289Y-50149500D01*
X74121288Y-50149500D01*
X73878712Y-50149500D01*
X73878711Y-50149500D01*
X73638214Y-50181161D01*
X73403895Y-50243947D01*
X73179794Y-50336773D01*
X73179785Y-50336777D01*
X72969706Y-50458067D01*
X72777263Y-50605733D01*
X72777256Y-50605739D01*
X72605739Y-50777256D01*
X72605733Y-50777263D01*
X72458067Y-50969706D01*
X72336777Y-51179785D01*
X72336773Y-51179794D01*
X72243947Y-51403895D01*
X72181161Y-51638214D01*
X72149500Y-51878711D01*
X69255796Y-51878711D01*
X69256209Y-51869244D01*
X69256209Y-51869243D01*
X69259981Y-51782838D01*
X69268337Y-51591439D01*
X69269276Y-51580708D01*
X69321951Y-51180609D01*
X69323823Y-51169993D01*
X69411168Y-50776000D01*
X69413955Y-50765600D01*
X69535309Y-50380713D01*
X69538993Y-50370592D01*
X69693426Y-49997758D01*
X69697984Y-49987984D01*
X69884315Y-49630045D01*
X69889710Y-49620700D01*
X70106537Y-49280350D01*
X70112727Y-49271511D01*
X70358385Y-48951363D01*
X70365323Y-48943094D01*
X70637949Y-48645575D01*
X70645575Y-48637949D01*
X70943094Y-48365323D01*
X70951363Y-48358385D01*
X71271511Y-48112727D01*
X71280350Y-48106537D01*
X71620700Y-47889710D01*
X71630045Y-47884315D01*
X71987984Y-47697984D01*
X71997758Y-47693426D01*
X72370592Y-47538993D01*
X72380713Y-47535309D01*
X72765600Y-47413955D01*
X72776000Y-47411168D01*
X73169993Y-47323823D01*
X73180609Y-47321951D01*
X73580708Y-47269276D01*
X73591439Y-47268337D01*
X73984636Y-47251170D01*
X73997298Y-47250618D01*
X74002706Y-47250500D01*
X74044170Y-47250500D01*
X83955830Y-47250500D01*
X83996949Y-47250500D01*
X84003032Y-47250648D01*
G37*
%TD.AperFunction*%
%TD*%
M02*
