%TF.GenerationSoftware,KiCad,Pcbnew,9.0.9*%
%TF.CreationDate,2026-09-26T19:37:41-05:00*%
%TF.ProjectId,proj2,70726f6a-322e-46b6-9963-61645f706362,0.0*%
%TF.SameCoordinates,Original*%
%TF.FileFunction,Legend,Top*%
%TF.FilePolarity,Positive*%
%FSLAX46Y46*%
G04 Gerber Fmt 4.6, Leading zero omitted, Abs format (unit mm)*
G04 Created by KiCad (PCBNEW 9.0.9) date 2026-09-26 19:37:41*
%MOMM*%
%LPD*%
G01*
G04 APERTURE LIST*
%ADD10C,0.150000*%
%ADD11C,0.120000*%
G04 APERTURE END LIST*
D10*
X149333333Y-77519580D02*
X149285714Y-77567200D01*
X149285714Y-77567200D02*
X149142857Y-77614819D01*
X149142857Y-77614819D02*
X149047619Y-77614819D01*
X149047619Y-77614819D02*
X148904762Y-77567200D01*
X148904762Y-77567200D02*
X148809524Y-77471961D01*
X148809524Y-77471961D02*
X148761905Y-77376723D01*
X148761905Y-77376723D02*
X148714286Y-77186247D01*
X148714286Y-77186247D02*
X148714286Y-77043390D01*
X148714286Y-77043390D02*
X148761905Y-76852914D01*
X148761905Y-76852914D02*
X148809524Y-76757676D01*
X148809524Y-76757676D02*
X148904762Y-76662438D01*
X148904762Y-76662438D02*
X149047619Y-76614819D01*
X149047619Y-76614819D02*
X149142857Y-76614819D01*
X149142857Y-76614819D02*
X149285714Y-76662438D01*
X149285714Y-76662438D02*
X149333333Y-76710057D01*
X149809524Y-77614819D02*
X150000000Y-77614819D01*
X150000000Y-77614819D02*
X150095238Y-77567200D01*
X150095238Y-77567200D02*
X150142857Y-77519580D01*
X150142857Y-77519580D02*
X150238095Y-77376723D01*
X150238095Y-77376723D02*
X150285714Y-77186247D01*
X150285714Y-77186247D02*
X150285714Y-76805295D01*
X150285714Y-76805295D02*
X150238095Y-76710057D01*
X150238095Y-76710057D02*
X150190476Y-76662438D01*
X150190476Y-76662438D02*
X150095238Y-76614819D01*
X150095238Y-76614819D02*
X149904762Y-76614819D01*
X149904762Y-76614819D02*
X149809524Y-76662438D01*
X149809524Y-76662438D02*
X149761905Y-76710057D01*
X149761905Y-76710057D02*
X149714286Y-76805295D01*
X149714286Y-76805295D02*
X149714286Y-77043390D01*
X149714286Y-77043390D02*
X149761905Y-77138628D01*
X149761905Y-77138628D02*
X149809524Y-77186247D01*
X149809524Y-77186247D02*
X149904762Y-77233866D01*
X149904762Y-77233866D02*
X150095238Y-77233866D01*
X150095238Y-77233866D02*
X150190476Y-77186247D01*
X150190476Y-77186247D02*
X150238095Y-77138628D01*
X150238095Y-77138628D02*
X150285714Y-77043390D01*
X143648333Y-87199580D02*
X143600714Y-87247200D01*
X143600714Y-87247200D02*
X143457857Y-87294819D01*
X143457857Y-87294819D02*
X143362619Y-87294819D01*
X143362619Y-87294819D02*
X143219762Y-87247200D01*
X143219762Y-87247200D02*
X143124524Y-87151961D01*
X143124524Y-87151961D02*
X143076905Y-87056723D01*
X143076905Y-87056723D02*
X143029286Y-86866247D01*
X143029286Y-86866247D02*
X143029286Y-86723390D01*
X143029286Y-86723390D02*
X143076905Y-86532914D01*
X143076905Y-86532914D02*
X143124524Y-86437676D01*
X143124524Y-86437676D02*
X143219762Y-86342438D01*
X143219762Y-86342438D02*
X143362619Y-86294819D01*
X143362619Y-86294819D02*
X143457857Y-86294819D01*
X143457857Y-86294819D02*
X143600714Y-86342438D01*
X143600714Y-86342438D02*
X143648333Y-86390057D01*
X144219762Y-86723390D02*
X144124524Y-86675771D01*
X144124524Y-86675771D02*
X144076905Y-86628152D01*
X144076905Y-86628152D02*
X144029286Y-86532914D01*
X144029286Y-86532914D02*
X144029286Y-86485295D01*
X144029286Y-86485295D02*
X144076905Y-86390057D01*
X144076905Y-86390057D02*
X144124524Y-86342438D01*
X144124524Y-86342438D02*
X144219762Y-86294819D01*
X144219762Y-86294819D02*
X144410238Y-86294819D01*
X144410238Y-86294819D02*
X144505476Y-86342438D01*
X144505476Y-86342438D02*
X144553095Y-86390057D01*
X144553095Y-86390057D02*
X144600714Y-86485295D01*
X144600714Y-86485295D02*
X144600714Y-86532914D01*
X144600714Y-86532914D02*
X144553095Y-86628152D01*
X144553095Y-86628152D02*
X144505476Y-86675771D01*
X144505476Y-86675771D02*
X144410238Y-86723390D01*
X144410238Y-86723390D02*
X144219762Y-86723390D01*
X144219762Y-86723390D02*
X144124524Y-86771009D01*
X144124524Y-86771009D02*
X144076905Y-86818628D01*
X144076905Y-86818628D02*
X144029286Y-86913866D01*
X144029286Y-86913866D02*
X144029286Y-87104342D01*
X144029286Y-87104342D02*
X144076905Y-87199580D01*
X144076905Y-87199580D02*
X144124524Y-87247200D01*
X144124524Y-87247200D02*
X144219762Y-87294819D01*
X144219762Y-87294819D02*
X144410238Y-87294819D01*
X144410238Y-87294819D02*
X144505476Y-87247200D01*
X144505476Y-87247200D02*
X144553095Y-87199580D01*
X144553095Y-87199580D02*
X144600714Y-87104342D01*
X144600714Y-87104342D02*
X144600714Y-86913866D01*
X144600714Y-86913866D02*
X144553095Y-86818628D01*
X144553095Y-86818628D02*
X144505476Y-86771009D01*
X144505476Y-86771009D02*
X144410238Y-86723390D01*
X143648333Y-85199580D02*
X143600714Y-85247200D01*
X143600714Y-85247200D02*
X143457857Y-85294819D01*
X143457857Y-85294819D02*
X143362619Y-85294819D01*
X143362619Y-85294819D02*
X143219762Y-85247200D01*
X143219762Y-85247200D02*
X143124524Y-85151961D01*
X143124524Y-85151961D02*
X143076905Y-85056723D01*
X143076905Y-85056723D02*
X143029286Y-84866247D01*
X143029286Y-84866247D02*
X143029286Y-84723390D01*
X143029286Y-84723390D02*
X143076905Y-84532914D01*
X143076905Y-84532914D02*
X143124524Y-84437676D01*
X143124524Y-84437676D02*
X143219762Y-84342438D01*
X143219762Y-84342438D02*
X143362619Y-84294819D01*
X143362619Y-84294819D02*
X143457857Y-84294819D01*
X143457857Y-84294819D02*
X143600714Y-84342438D01*
X143600714Y-84342438D02*
X143648333Y-84390057D01*
X143981667Y-84294819D02*
X144648333Y-84294819D01*
X144648333Y-84294819D02*
X144219762Y-85294819D01*
X143558333Y-82949580D02*
X143510714Y-82997200D01*
X143510714Y-82997200D02*
X143367857Y-83044819D01*
X143367857Y-83044819D02*
X143272619Y-83044819D01*
X143272619Y-83044819D02*
X143129762Y-82997200D01*
X143129762Y-82997200D02*
X143034524Y-82901961D01*
X143034524Y-82901961D02*
X142986905Y-82806723D01*
X142986905Y-82806723D02*
X142939286Y-82616247D01*
X142939286Y-82616247D02*
X142939286Y-82473390D01*
X142939286Y-82473390D02*
X142986905Y-82282914D01*
X142986905Y-82282914D02*
X143034524Y-82187676D01*
X143034524Y-82187676D02*
X143129762Y-82092438D01*
X143129762Y-82092438D02*
X143272619Y-82044819D01*
X143272619Y-82044819D02*
X143367857Y-82044819D01*
X143367857Y-82044819D02*
X143510714Y-82092438D01*
X143510714Y-82092438D02*
X143558333Y-82140057D01*
X144415476Y-82044819D02*
X144225000Y-82044819D01*
X144225000Y-82044819D02*
X144129762Y-82092438D01*
X144129762Y-82092438D02*
X144082143Y-82140057D01*
X144082143Y-82140057D02*
X143986905Y-82282914D01*
X143986905Y-82282914D02*
X143939286Y-82473390D01*
X143939286Y-82473390D02*
X143939286Y-82854342D01*
X143939286Y-82854342D02*
X143986905Y-82949580D01*
X143986905Y-82949580D02*
X144034524Y-82997200D01*
X144034524Y-82997200D02*
X144129762Y-83044819D01*
X144129762Y-83044819D02*
X144320238Y-83044819D01*
X144320238Y-83044819D02*
X144415476Y-82997200D01*
X144415476Y-82997200D02*
X144463095Y-82949580D01*
X144463095Y-82949580D02*
X144510714Y-82854342D01*
X144510714Y-82854342D02*
X144510714Y-82616247D01*
X144510714Y-82616247D02*
X144463095Y-82521009D01*
X144463095Y-82521009D02*
X144415476Y-82473390D01*
X144415476Y-82473390D02*
X144320238Y-82425771D01*
X144320238Y-82425771D02*
X144129762Y-82425771D01*
X144129762Y-82425771D02*
X144034524Y-82473390D01*
X144034524Y-82473390D02*
X143986905Y-82521009D01*
X143986905Y-82521009D02*
X143939286Y-82616247D01*
X143558333Y-80699580D02*
X143510714Y-80747200D01*
X143510714Y-80747200D02*
X143367857Y-80794819D01*
X143367857Y-80794819D02*
X143272619Y-80794819D01*
X143272619Y-80794819D02*
X143129762Y-80747200D01*
X143129762Y-80747200D02*
X143034524Y-80651961D01*
X143034524Y-80651961D02*
X142986905Y-80556723D01*
X142986905Y-80556723D02*
X142939286Y-80366247D01*
X142939286Y-80366247D02*
X142939286Y-80223390D01*
X142939286Y-80223390D02*
X142986905Y-80032914D01*
X142986905Y-80032914D02*
X143034524Y-79937676D01*
X143034524Y-79937676D02*
X143129762Y-79842438D01*
X143129762Y-79842438D02*
X143272619Y-79794819D01*
X143272619Y-79794819D02*
X143367857Y-79794819D01*
X143367857Y-79794819D02*
X143510714Y-79842438D01*
X143510714Y-79842438D02*
X143558333Y-79890057D01*
X144463095Y-79794819D02*
X143986905Y-79794819D01*
X143986905Y-79794819D02*
X143939286Y-80271009D01*
X143939286Y-80271009D02*
X143986905Y-80223390D01*
X143986905Y-80223390D02*
X144082143Y-80175771D01*
X144082143Y-80175771D02*
X144320238Y-80175771D01*
X144320238Y-80175771D02*
X144415476Y-80223390D01*
X144415476Y-80223390D02*
X144463095Y-80271009D01*
X144463095Y-80271009D02*
X144510714Y-80366247D01*
X144510714Y-80366247D02*
X144510714Y-80604342D01*
X144510714Y-80604342D02*
X144463095Y-80699580D01*
X144463095Y-80699580D02*
X144415476Y-80747200D01*
X144415476Y-80747200D02*
X144320238Y-80794819D01*
X144320238Y-80794819D02*
X144082143Y-80794819D01*
X144082143Y-80794819D02*
X143986905Y-80747200D01*
X143986905Y-80747200D02*
X143939286Y-80699580D01*
X146740833Y-89519580D02*
X146693214Y-89567200D01*
X146693214Y-89567200D02*
X146550357Y-89614819D01*
X146550357Y-89614819D02*
X146455119Y-89614819D01*
X146455119Y-89614819D02*
X146312262Y-89567200D01*
X146312262Y-89567200D02*
X146217024Y-89471961D01*
X146217024Y-89471961D02*
X146169405Y-89376723D01*
X146169405Y-89376723D02*
X146121786Y-89186247D01*
X146121786Y-89186247D02*
X146121786Y-89043390D01*
X146121786Y-89043390D02*
X146169405Y-88852914D01*
X146169405Y-88852914D02*
X146217024Y-88757676D01*
X146217024Y-88757676D02*
X146312262Y-88662438D01*
X146312262Y-88662438D02*
X146455119Y-88614819D01*
X146455119Y-88614819D02*
X146550357Y-88614819D01*
X146550357Y-88614819D02*
X146693214Y-88662438D01*
X146693214Y-88662438D02*
X146740833Y-88710057D01*
X147597976Y-88948152D02*
X147597976Y-89614819D01*
X147359881Y-88567200D02*
X147121786Y-89281485D01*
X147121786Y-89281485D02*
X147740833Y-89281485D01*
X146740833Y-87519580D02*
X146693214Y-87567200D01*
X146693214Y-87567200D02*
X146550357Y-87614819D01*
X146550357Y-87614819D02*
X146455119Y-87614819D01*
X146455119Y-87614819D02*
X146312262Y-87567200D01*
X146312262Y-87567200D02*
X146217024Y-87471961D01*
X146217024Y-87471961D02*
X146169405Y-87376723D01*
X146169405Y-87376723D02*
X146121786Y-87186247D01*
X146121786Y-87186247D02*
X146121786Y-87043390D01*
X146121786Y-87043390D02*
X146169405Y-86852914D01*
X146169405Y-86852914D02*
X146217024Y-86757676D01*
X146217024Y-86757676D02*
X146312262Y-86662438D01*
X146312262Y-86662438D02*
X146455119Y-86614819D01*
X146455119Y-86614819D02*
X146550357Y-86614819D01*
X146550357Y-86614819D02*
X146693214Y-86662438D01*
X146693214Y-86662438D02*
X146740833Y-86710057D01*
X147074167Y-86614819D02*
X147693214Y-86614819D01*
X147693214Y-86614819D02*
X147359881Y-86995771D01*
X147359881Y-86995771D02*
X147502738Y-86995771D01*
X147502738Y-86995771D02*
X147597976Y-87043390D01*
X147597976Y-87043390D02*
X147645595Y-87091009D01*
X147645595Y-87091009D02*
X147693214Y-87186247D01*
X147693214Y-87186247D02*
X147693214Y-87424342D01*
X147693214Y-87424342D02*
X147645595Y-87519580D01*
X147645595Y-87519580D02*
X147597976Y-87567200D01*
X147597976Y-87567200D02*
X147502738Y-87614819D01*
X147502738Y-87614819D02*
X147217024Y-87614819D01*
X147217024Y-87614819D02*
X147121786Y-87567200D01*
X147121786Y-87567200D02*
X147074167Y-87519580D01*
X146740833Y-85269580D02*
X146693214Y-85317200D01*
X146693214Y-85317200D02*
X146550357Y-85364819D01*
X146550357Y-85364819D02*
X146455119Y-85364819D01*
X146455119Y-85364819D02*
X146312262Y-85317200D01*
X146312262Y-85317200D02*
X146217024Y-85221961D01*
X146217024Y-85221961D02*
X146169405Y-85126723D01*
X146169405Y-85126723D02*
X146121786Y-84936247D01*
X146121786Y-84936247D02*
X146121786Y-84793390D01*
X146121786Y-84793390D02*
X146169405Y-84602914D01*
X146169405Y-84602914D02*
X146217024Y-84507676D01*
X146217024Y-84507676D02*
X146312262Y-84412438D01*
X146312262Y-84412438D02*
X146455119Y-84364819D01*
X146455119Y-84364819D02*
X146550357Y-84364819D01*
X146550357Y-84364819D02*
X146693214Y-84412438D01*
X146693214Y-84412438D02*
X146740833Y-84460057D01*
X147121786Y-84460057D02*
X147169405Y-84412438D01*
X147169405Y-84412438D02*
X147264643Y-84364819D01*
X147264643Y-84364819D02*
X147502738Y-84364819D01*
X147502738Y-84364819D02*
X147597976Y-84412438D01*
X147597976Y-84412438D02*
X147645595Y-84460057D01*
X147645595Y-84460057D02*
X147693214Y-84555295D01*
X147693214Y-84555295D02*
X147693214Y-84650533D01*
X147693214Y-84650533D02*
X147645595Y-84793390D01*
X147645595Y-84793390D02*
X147074167Y-85364819D01*
X147074167Y-85364819D02*
X147693214Y-85364819D01*
X146740833Y-83019580D02*
X146693214Y-83067200D01*
X146693214Y-83067200D02*
X146550357Y-83114819D01*
X146550357Y-83114819D02*
X146455119Y-83114819D01*
X146455119Y-83114819D02*
X146312262Y-83067200D01*
X146312262Y-83067200D02*
X146217024Y-82971961D01*
X146217024Y-82971961D02*
X146169405Y-82876723D01*
X146169405Y-82876723D02*
X146121786Y-82686247D01*
X146121786Y-82686247D02*
X146121786Y-82543390D01*
X146121786Y-82543390D02*
X146169405Y-82352914D01*
X146169405Y-82352914D02*
X146217024Y-82257676D01*
X146217024Y-82257676D02*
X146312262Y-82162438D01*
X146312262Y-82162438D02*
X146455119Y-82114819D01*
X146455119Y-82114819D02*
X146550357Y-82114819D01*
X146550357Y-82114819D02*
X146693214Y-82162438D01*
X146693214Y-82162438D02*
X146740833Y-82210057D01*
X147693214Y-83114819D02*
X147121786Y-83114819D01*
X147407500Y-83114819D02*
X147407500Y-82114819D01*
X147407500Y-82114819D02*
X147312262Y-82257676D01*
X147312262Y-82257676D02*
X147217024Y-82352914D01*
X147217024Y-82352914D02*
X147121786Y-82400533D01*
X157830714Y-64834819D02*
X157830714Y-63834819D01*
X157830714Y-64311009D02*
X158402142Y-64311009D01*
X158402142Y-64834819D02*
X158402142Y-63834819D01*
X158878333Y-64834819D02*
X158878333Y-63834819D01*
X158878333Y-63834819D02*
X159449761Y-64834819D01*
X159449761Y-64834819D02*
X159449761Y-63834819D01*
X160116428Y-63834819D02*
X160306904Y-63834819D01*
X160306904Y-63834819D02*
X160402142Y-63882438D01*
X160402142Y-63882438D02*
X160497380Y-63977676D01*
X160497380Y-63977676D02*
X160544999Y-64168152D01*
X160544999Y-64168152D02*
X160544999Y-64501485D01*
X160544999Y-64501485D02*
X160497380Y-64691961D01*
X160497380Y-64691961D02*
X160402142Y-64787200D01*
X160402142Y-64787200D02*
X160306904Y-64834819D01*
X160306904Y-64834819D02*
X160116428Y-64834819D01*
X160116428Y-64834819D02*
X160021190Y-64787200D01*
X160021190Y-64787200D02*
X159925952Y-64691961D01*
X159925952Y-64691961D02*
X159878333Y-64501485D01*
X159878333Y-64501485D02*
X159878333Y-64168152D01*
X159878333Y-64168152D02*
X159925952Y-63977676D01*
X159925952Y-63977676D02*
X160021190Y-63882438D01*
X160021190Y-63882438D02*
X160116428Y-63834819D01*
X160973571Y-63834819D02*
X160973571Y-64644342D01*
X160973571Y-64644342D02*
X161021190Y-64739580D01*
X161021190Y-64739580D02*
X161068809Y-64787200D01*
X161068809Y-64787200D02*
X161164047Y-64834819D01*
X161164047Y-64834819D02*
X161354523Y-64834819D01*
X161354523Y-64834819D02*
X161449761Y-64787200D01*
X161449761Y-64787200D02*
X161497380Y-64739580D01*
X161497380Y-64739580D02*
X161544999Y-64644342D01*
X161544999Y-64644342D02*
X161544999Y-63834819D01*
X161878333Y-63834819D02*
X162449761Y-63834819D01*
X162164047Y-64834819D02*
X162164047Y-63834819D01*
X162735476Y-63930057D02*
X162783095Y-63882438D01*
X162783095Y-63882438D02*
X162878333Y-63834819D01*
X162878333Y-63834819D02*
X163116428Y-63834819D01*
X163116428Y-63834819D02*
X163211666Y-63882438D01*
X163211666Y-63882438D02*
X163259285Y-63930057D01*
X163259285Y-63930057D02*
X163306904Y-64025295D01*
X163306904Y-64025295D02*
X163306904Y-64120533D01*
X163306904Y-64120533D02*
X163259285Y-64263390D01*
X163259285Y-64263390D02*
X162687857Y-64834819D01*
X162687857Y-64834819D02*
X163306904Y-64834819D01*
X150055714Y-64834819D02*
X150055714Y-63834819D01*
X150055714Y-64311009D02*
X150627142Y-64311009D01*
X150627142Y-64834819D02*
X150627142Y-63834819D01*
X151103333Y-64834819D02*
X151103333Y-63834819D01*
X151103333Y-63834819D02*
X151674761Y-64834819D01*
X151674761Y-64834819D02*
X151674761Y-63834819D01*
X152341428Y-63834819D02*
X152531904Y-63834819D01*
X152531904Y-63834819D02*
X152627142Y-63882438D01*
X152627142Y-63882438D02*
X152722380Y-63977676D01*
X152722380Y-63977676D02*
X152769999Y-64168152D01*
X152769999Y-64168152D02*
X152769999Y-64501485D01*
X152769999Y-64501485D02*
X152722380Y-64691961D01*
X152722380Y-64691961D02*
X152627142Y-64787200D01*
X152627142Y-64787200D02*
X152531904Y-64834819D01*
X152531904Y-64834819D02*
X152341428Y-64834819D01*
X152341428Y-64834819D02*
X152246190Y-64787200D01*
X152246190Y-64787200D02*
X152150952Y-64691961D01*
X152150952Y-64691961D02*
X152103333Y-64501485D01*
X152103333Y-64501485D02*
X152103333Y-64168152D01*
X152103333Y-64168152D02*
X152150952Y-63977676D01*
X152150952Y-63977676D02*
X152246190Y-63882438D01*
X152246190Y-63882438D02*
X152341428Y-63834819D01*
X153198571Y-63834819D02*
X153198571Y-64644342D01*
X153198571Y-64644342D02*
X153246190Y-64739580D01*
X153246190Y-64739580D02*
X153293809Y-64787200D01*
X153293809Y-64787200D02*
X153389047Y-64834819D01*
X153389047Y-64834819D02*
X153579523Y-64834819D01*
X153579523Y-64834819D02*
X153674761Y-64787200D01*
X153674761Y-64787200D02*
X153722380Y-64739580D01*
X153722380Y-64739580D02*
X153769999Y-64644342D01*
X153769999Y-64644342D02*
X153769999Y-63834819D01*
X154103333Y-63834819D02*
X154674761Y-63834819D01*
X154389047Y-64834819D02*
X154389047Y-63834819D01*
X155531904Y-64834819D02*
X154960476Y-64834819D01*
X155246190Y-64834819D02*
X155246190Y-63834819D01*
X155246190Y-63834819D02*
X155150952Y-63977676D01*
X155150952Y-63977676D02*
X155055714Y-64072914D01*
X155055714Y-64072914D02*
X154960476Y-64120533D01*
X141178571Y-79454819D02*
X141178571Y-78454819D01*
X141178571Y-78931009D02*
X141749999Y-78931009D01*
X141749999Y-79454819D02*
X141749999Y-78454819D01*
X142226190Y-79454819D02*
X142226190Y-78454819D01*
X142226190Y-78454819D02*
X142797618Y-79454819D01*
X142797618Y-79454819D02*
X142797618Y-78454819D01*
X143845237Y-79359580D02*
X143797618Y-79407200D01*
X143797618Y-79407200D02*
X143654761Y-79454819D01*
X143654761Y-79454819D02*
X143559523Y-79454819D01*
X143559523Y-79454819D02*
X143416666Y-79407200D01*
X143416666Y-79407200D02*
X143321428Y-79311961D01*
X143321428Y-79311961D02*
X143273809Y-79216723D01*
X143273809Y-79216723D02*
X143226190Y-79026247D01*
X143226190Y-79026247D02*
X143226190Y-78883390D01*
X143226190Y-78883390D02*
X143273809Y-78692914D01*
X143273809Y-78692914D02*
X143321428Y-78597676D01*
X143321428Y-78597676D02*
X143416666Y-78502438D01*
X143416666Y-78502438D02*
X143559523Y-78454819D01*
X143559523Y-78454819D02*
X143654761Y-78454819D01*
X143654761Y-78454819D02*
X143797618Y-78502438D01*
X143797618Y-78502438D02*
X143845237Y-78550057D01*
X144130952Y-78454819D02*
X144702380Y-78454819D01*
X144416666Y-79454819D02*
X144416666Y-78454819D01*
X145607142Y-79454819D02*
X145273809Y-78978628D01*
X145035714Y-79454819D02*
X145035714Y-78454819D01*
X145035714Y-78454819D02*
X145416666Y-78454819D01*
X145416666Y-78454819D02*
X145511904Y-78502438D01*
X145511904Y-78502438D02*
X145559523Y-78550057D01*
X145559523Y-78550057D02*
X145607142Y-78645295D01*
X145607142Y-78645295D02*
X145607142Y-78788152D01*
X145607142Y-78788152D02*
X145559523Y-78883390D01*
X145559523Y-78883390D02*
X145511904Y-78931009D01*
X145511904Y-78931009D02*
X145416666Y-78978628D01*
X145416666Y-78978628D02*
X145035714Y-78978628D01*
X146511904Y-79454819D02*
X146035714Y-79454819D01*
X146035714Y-79454819D02*
X146035714Y-78454819D01*
X147369047Y-79454819D02*
X146797619Y-79454819D01*
X147083333Y-79454819D02*
X147083333Y-78454819D01*
X147083333Y-78454819D02*
X146988095Y-78597676D01*
X146988095Y-78597676D02*
X146892857Y-78692914D01*
X146892857Y-78692914D02*
X146797619Y-78740533D01*
X150214286Y-89324819D02*
X150214286Y-88324819D01*
X150214286Y-88324819D02*
X150595238Y-88324819D01*
X150595238Y-88324819D02*
X150690476Y-88372438D01*
X150690476Y-88372438D02*
X150738095Y-88420057D01*
X150738095Y-88420057D02*
X150785714Y-88515295D01*
X150785714Y-88515295D02*
X150785714Y-88658152D01*
X150785714Y-88658152D02*
X150738095Y-88753390D01*
X150738095Y-88753390D02*
X150690476Y-88801009D01*
X150690476Y-88801009D02*
X150595238Y-88848628D01*
X150595238Y-88848628D02*
X150214286Y-88848628D01*
X151404762Y-88324819D02*
X151595238Y-88324819D01*
X151595238Y-88324819D02*
X151690476Y-88372438D01*
X151690476Y-88372438D02*
X151785714Y-88467676D01*
X151785714Y-88467676D02*
X151833333Y-88658152D01*
X151833333Y-88658152D02*
X151833333Y-88991485D01*
X151833333Y-88991485D02*
X151785714Y-89181961D01*
X151785714Y-89181961D02*
X151690476Y-89277200D01*
X151690476Y-89277200D02*
X151595238Y-89324819D01*
X151595238Y-89324819D02*
X151404762Y-89324819D01*
X151404762Y-89324819D02*
X151309524Y-89277200D01*
X151309524Y-89277200D02*
X151214286Y-89181961D01*
X151214286Y-89181961D02*
X151166667Y-88991485D01*
X151166667Y-88991485D02*
X151166667Y-88658152D01*
X151166667Y-88658152D02*
X151214286Y-88467676D01*
X151214286Y-88467676D02*
X151309524Y-88372438D01*
X151309524Y-88372438D02*
X151404762Y-88324819D01*
X152166667Y-88324819D02*
X152404762Y-89324819D01*
X152404762Y-89324819D02*
X152595238Y-88610533D01*
X152595238Y-88610533D02*
X152785714Y-89324819D01*
X152785714Y-89324819D02*
X153023810Y-88324819D01*
X153404762Y-88801009D02*
X153738095Y-88801009D01*
X153880952Y-89324819D02*
X153404762Y-89324819D01*
X153404762Y-89324819D02*
X153404762Y-88324819D01*
X153404762Y-88324819D02*
X153880952Y-88324819D01*
X154880952Y-89324819D02*
X154547619Y-88848628D01*
X154309524Y-89324819D02*
X154309524Y-88324819D01*
X154309524Y-88324819D02*
X154690476Y-88324819D01*
X154690476Y-88324819D02*
X154785714Y-88372438D01*
X154785714Y-88372438D02*
X154833333Y-88420057D01*
X154833333Y-88420057D02*
X154880952Y-88515295D01*
X154880952Y-88515295D02*
X154880952Y-88658152D01*
X154880952Y-88658152D02*
X154833333Y-88753390D01*
X154833333Y-88753390D02*
X154785714Y-88801009D01*
X154785714Y-88801009D02*
X154690476Y-88848628D01*
X154690476Y-88848628D02*
X154309524Y-88848628D01*
X155833333Y-89324819D02*
X155261905Y-89324819D01*
X155547619Y-89324819D02*
X155547619Y-88324819D01*
X155547619Y-88324819D02*
X155452381Y-88467676D01*
X155452381Y-88467676D02*
X155357143Y-88562914D01*
X155357143Y-88562914D02*
X155261905Y-88610533D01*
X143166666Y-71704819D02*
X142833333Y-71228628D01*
X142595238Y-71704819D02*
X142595238Y-70704819D01*
X142595238Y-70704819D02*
X142976190Y-70704819D01*
X142976190Y-70704819D02*
X143071428Y-70752438D01*
X143071428Y-70752438D02*
X143119047Y-70800057D01*
X143119047Y-70800057D02*
X143166666Y-70895295D01*
X143166666Y-70895295D02*
X143166666Y-71038152D01*
X143166666Y-71038152D02*
X143119047Y-71133390D01*
X143119047Y-71133390D02*
X143071428Y-71181009D01*
X143071428Y-71181009D02*
X142976190Y-71228628D01*
X142976190Y-71228628D02*
X142595238Y-71228628D01*
X143595238Y-71181009D02*
X143928571Y-71181009D01*
X144071428Y-71704819D02*
X143595238Y-71704819D01*
X143595238Y-71704819D02*
X143595238Y-70704819D01*
X143595238Y-70704819D02*
X144071428Y-70704819D01*
X144833333Y-71181009D02*
X144500000Y-71181009D01*
X144500000Y-71704819D02*
X144500000Y-70704819D01*
X144500000Y-70704819D02*
X144976190Y-70704819D01*
X145500000Y-70704819D02*
X145500000Y-70942914D01*
X145261905Y-70847676D02*
X145500000Y-70942914D01*
X145500000Y-70942914D02*
X145738095Y-70847676D01*
X145357143Y-71133390D02*
X145500000Y-70942914D01*
X145500000Y-70942914D02*
X145642857Y-71133390D01*
X146261905Y-70704819D02*
X146261905Y-70942914D01*
X146023810Y-70847676D02*
X146261905Y-70942914D01*
X146261905Y-70942914D02*
X146500000Y-70847676D01*
X146119048Y-71133390D02*
X146261905Y-70942914D01*
X146261905Y-70942914D02*
X146404762Y-71133390D01*
X149583333Y-75134819D02*
X149250000Y-74658628D01*
X149011905Y-75134819D02*
X149011905Y-74134819D01*
X149011905Y-74134819D02*
X149392857Y-74134819D01*
X149392857Y-74134819D02*
X149488095Y-74182438D01*
X149488095Y-74182438D02*
X149535714Y-74230057D01*
X149535714Y-74230057D02*
X149583333Y-74325295D01*
X149583333Y-74325295D02*
X149583333Y-74468152D01*
X149583333Y-74468152D02*
X149535714Y-74563390D01*
X149535714Y-74563390D02*
X149488095Y-74611009D01*
X149488095Y-74611009D02*
X149392857Y-74658628D01*
X149392857Y-74658628D02*
X149011905Y-74658628D01*
X150535714Y-75134819D02*
X149964286Y-75134819D01*
X150250000Y-75134819D02*
X150250000Y-74134819D01*
X150250000Y-74134819D02*
X150154762Y-74277676D01*
X150154762Y-74277676D02*
X150059524Y-74372914D01*
X150059524Y-74372914D02*
X149964286Y-74420533D01*
X160166666Y-82004819D02*
X159833333Y-81528628D01*
X159595238Y-82004819D02*
X159595238Y-81004819D01*
X159595238Y-81004819D02*
X159976190Y-81004819D01*
X159976190Y-81004819D02*
X160071428Y-81052438D01*
X160071428Y-81052438D02*
X160119047Y-81100057D01*
X160119047Y-81100057D02*
X160166666Y-81195295D01*
X160166666Y-81195295D02*
X160166666Y-81338152D01*
X160166666Y-81338152D02*
X160119047Y-81433390D01*
X160119047Y-81433390D02*
X160071428Y-81481009D01*
X160071428Y-81481009D02*
X159976190Y-81528628D01*
X159976190Y-81528628D02*
X159595238Y-81528628D01*
X160595238Y-81481009D02*
X160928571Y-81481009D01*
X161071428Y-82004819D02*
X160595238Y-82004819D01*
X160595238Y-82004819D02*
X160595238Y-81004819D01*
X160595238Y-81004819D02*
X161071428Y-81004819D01*
X161833333Y-81481009D02*
X161500000Y-81481009D01*
X161500000Y-82004819D02*
X161500000Y-81004819D01*
X161500000Y-81004819D02*
X161976190Y-81004819D01*
X162500000Y-81004819D02*
X162500000Y-81242914D01*
X162261905Y-81147676D02*
X162500000Y-81242914D01*
X162500000Y-81242914D02*
X162738095Y-81147676D01*
X162357143Y-81433390D02*
X162500000Y-81242914D01*
X162500000Y-81242914D02*
X162642857Y-81433390D01*
X163261905Y-81004819D02*
X163261905Y-81242914D01*
X163023810Y-81147676D02*
X163261905Y-81242914D01*
X163261905Y-81242914D02*
X163500000Y-81147676D01*
X163119048Y-81433390D02*
X163261905Y-81242914D01*
X163261905Y-81242914D02*
X163404762Y-81433390D01*
X152404761Y-76650057D02*
X152309523Y-76602438D01*
X152309523Y-76602438D02*
X152214285Y-76507200D01*
X152214285Y-76507200D02*
X152071428Y-76364342D01*
X152071428Y-76364342D02*
X151976190Y-76316723D01*
X151976190Y-76316723D02*
X151880952Y-76316723D01*
X151928571Y-76554819D02*
X151833333Y-76507200D01*
X151833333Y-76507200D02*
X151738095Y-76411961D01*
X151738095Y-76411961D02*
X151690476Y-76221485D01*
X151690476Y-76221485D02*
X151690476Y-75888152D01*
X151690476Y-75888152D02*
X151738095Y-75697676D01*
X151738095Y-75697676D02*
X151833333Y-75602438D01*
X151833333Y-75602438D02*
X151928571Y-75554819D01*
X151928571Y-75554819D02*
X152119047Y-75554819D01*
X152119047Y-75554819D02*
X152214285Y-75602438D01*
X152214285Y-75602438D02*
X152309523Y-75697676D01*
X152309523Y-75697676D02*
X152357142Y-75888152D01*
X152357142Y-75888152D02*
X152357142Y-76221485D01*
X152357142Y-76221485D02*
X152309523Y-76411961D01*
X152309523Y-76411961D02*
X152214285Y-76507200D01*
X152214285Y-76507200D02*
X152119047Y-76554819D01*
X152119047Y-76554819D02*
X151928571Y-76554819D01*
X153309523Y-76554819D02*
X152738095Y-76554819D01*
X153023809Y-76554819D02*
X153023809Y-75554819D01*
X153023809Y-75554819D02*
X152928571Y-75697676D01*
X152928571Y-75697676D02*
X152833333Y-75792914D01*
X152833333Y-75792914D02*
X152738095Y-75840533D01*
X159011905Y-79474819D02*
X159011905Y-78474819D01*
X159011905Y-78474819D02*
X159250000Y-78474819D01*
X159250000Y-78474819D02*
X159392857Y-78522438D01*
X159392857Y-78522438D02*
X159488095Y-78617676D01*
X159488095Y-78617676D02*
X159535714Y-78712914D01*
X159535714Y-78712914D02*
X159583333Y-78903390D01*
X159583333Y-78903390D02*
X159583333Y-79046247D01*
X159583333Y-79046247D02*
X159535714Y-79236723D01*
X159535714Y-79236723D02*
X159488095Y-79331961D01*
X159488095Y-79331961D02*
X159392857Y-79427200D01*
X159392857Y-79427200D02*
X159250000Y-79474819D01*
X159250000Y-79474819D02*
X159011905Y-79474819D01*
X160535714Y-79474819D02*
X159964286Y-79474819D01*
X160250000Y-79474819D02*
X160250000Y-78474819D01*
X160250000Y-78474819D02*
X160154762Y-78617676D01*
X160154762Y-78617676D02*
X160059524Y-78712914D01*
X160059524Y-78712914D02*
X159964286Y-78760533D01*
X152916666Y-74601009D02*
X152583333Y-74601009D01*
X152583333Y-75124819D02*
X152583333Y-74124819D01*
X152583333Y-74124819D02*
X153059523Y-74124819D01*
X153964285Y-75124819D02*
X153392857Y-75124819D01*
X153678571Y-75124819D02*
X153678571Y-74124819D01*
X153678571Y-74124819D02*
X153583333Y-74267676D01*
X153583333Y-74267676D02*
X153488095Y-74362914D01*
X153488095Y-74362914D02*
X153392857Y-74410533D01*
D11*
%TO.C,C9*%
X149615835Y-76360000D02*
X149384165Y-76360000D01*
X149615835Y-75640000D02*
X149384165Y-75640000D01*
%TO.C,C8*%
X143699165Y-87640000D02*
X143930835Y-87640000D01*
X143699165Y-88360000D02*
X143930835Y-88360000D01*
%TO.C,C7*%
X143699165Y-85640000D02*
X143930835Y-85640000D01*
X143699165Y-86360000D02*
X143930835Y-86360000D01*
%TO.C,C6*%
X143609165Y-83390000D02*
X143840835Y-83390000D01*
X143609165Y-84110000D02*
X143840835Y-84110000D01*
%TO.C,C5*%
X143609165Y-81140000D02*
X143840835Y-81140000D01*
X143609165Y-81860000D02*
X143840835Y-81860000D01*
%TO.C,C4*%
X147023335Y-88360000D02*
X146791665Y-88360000D01*
X147023335Y-87640000D02*
X146791665Y-87640000D01*
%TO.C,C3*%
X147023335Y-86360000D02*
X146791665Y-86360000D01*
X147023335Y-85640000D02*
X146791665Y-85640000D01*
%TO.C,C2*%
X147023335Y-84110000D02*
X146791665Y-84110000D01*
X147023335Y-83390000D02*
X146791665Y-83390000D01*
%TO.C,C1*%
X147023335Y-81860000D02*
X146791665Y-81860000D01*
X147023335Y-81140000D02*
X146791665Y-81140000D01*
%TO.C,HNOUT2*%
X157895000Y-71490000D02*
X163195000Y-71490000D01*
X160075000Y-66070000D02*
X160075000Y-65470000D01*
X157605000Y-66500000D02*
X157605000Y-70500000D01*
X157895000Y-65470000D02*
X157895000Y-71490000D01*
X161015000Y-65470000D02*
X161015000Y-66070000D01*
X161815000Y-70490000D02*
X161815000Y-71490000D01*
X161565000Y-71490000D02*
X161565000Y-70490000D01*
X158475000Y-66070000D02*
X160075000Y-66070000D01*
X161015000Y-66070000D02*
X162615000Y-66070000D01*
X161565000Y-69960000D02*
X161815000Y-70490000D01*
X159275000Y-70490000D02*
X161815000Y-70490000D01*
X159275000Y-71490000D02*
X159275000Y-70490000D01*
X159525000Y-71490000D02*
X159525000Y-70490000D01*
X159275000Y-70490000D02*
X159525000Y-69960000D01*
X163195000Y-65470000D02*
X157895000Y-65470000D01*
X158475000Y-65470000D02*
X158475000Y-66070000D01*
X163195000Y-71490000D02*
X163195000Y-65470000D01*
X162615000Y-66070000D02*
X162615000Y-65470000D01*
X159525000Y-69960000D02*
X161565000Y-69960000D01*
%TO.C,HNOUT1*%
X150120000Y-71490000D02*
X155420000Y-71490000D01*
X152300000Y-66070000D02*
X152300000Y-65470000D01*
X149830000Y-66500000D02*
X149830000Y-70500000D01*
X150120000Y-65470000D02*
X150120000Y-71490000D01*
X153240000Y-65470000D02*
X153240000Y-66070000D01*
X154040000Y-70490000D02*
X154040000Y-71490000D01*
X153790000Y-71490000D02*
X153790000Y-70490000D01*
X150700000Y-66070000D02*
X152300000Y-66070000D01*
X153240000Y-66070000D02*
X154840000Y-66070000D01*
X153790000Y-69960000D02*
X154040000Y-70490000D01*
X151500000Y-70490000D02*
X154040000Y-70490000D01*
X151500000Y-71490000D02*
X151500000Y-70490000D01*
X151750000Y-71490000D02*
X151750000Y-70490000D01*
X151500000Y-70490000D02*
X151750000Y-69960000D01*
X155420000Y-65470000D02*
X150120000Y-65470000D01*
X150700000Y-65470000D02*
X150700000Y-66070000D01*
X155420000Y-71490000D02*
X155420000Y-65470000D01*
X154840000Y-66070000D02*
X154840000Y-65470000D01*
X151750000Y-69960000D02*
X153790000Y-69960000D01*
%TO.C,HNCTRL1*%
X147290000Y-78005000D02*
X147290000Y-72705000D01*
X141870000Y-75825000D02*
X141270000Y-75825000D01*
X142300000Y-78295000D02*
X146300000Y-78295000D01*
X141270000Y-78005000D02*
X147290000Y-78005000D01*
X141270000Y-74885000D02*
X141870000Y-74885000D01*
X146290000Y-74085000D02*
X147290000Y-74085000D01*
X147290000Y-74335000D02*
X146290000Y-74335000D01*
X141870000Y-77425000D02*
X141870000Y-75825000D01*
X141870000Y-74885000D02*
X141870000Y-73285000D01*
X145760000Y-74335000D02*
X146290000Y-74085000D01*
X146290000Y-76625000D02*
X146290000Y-74085000D01*
X147290000Y-76625000D02*
X146290000Y-76625000D01*
X147290000Y-76375000D02*
X146290000Y-76375000D01*
X146290000Y-76625000D02*
X145760000Y-76375000D01*
X141270000Y-72705000D02*
X141270000Y-78005000D01*
X141270000Y-77425000D02*
X141870000Y-77425000D01*
X147290000Y-72705000D02*
X141270000Y-72705000D01*
X141870000Y-73285000D02*
X141270000Y-73285000D01*
X145760000Y-76375000D02*
X145760000Y-74335000D01*
%TO.C,POWER1*%
X150460000Y-82760000D02*
X150460000Y-81760000D01*
X151260000Y-87180000D02*
X149660000Y-87180000D01*
X153800000Y-87180000D02*
X152200000Y-87180000D01*
X155540000Y-82760000D02*
X150460000Y-82760000D01*
X157210000Y-86750000D02*
X157210000Y-82750000D01*
X151260000Y-87780000D02*
X151260000Y-87180000D01*
X156920000Y-87780000D02*
X156920000Y-81760000D01*
X155540000Y-82760000D02*
X155290000Y-83290000D01*
X155290000Y-83290000D02*
X150710000Y-83290000D01*
X149660000Y-87180000D02*
X149660000Y-87780000D01*
X153800000Y-87780000D02*
X153800000Y-87180000D01*
X150710000Y-81760000D02*
X150710000Y-82760000D01*
X149080000Y-87780000D02*
X156920000Y-87780000D01*
X150710000Y-83290000D02*
X150460000Y-82760000D01*
X155290000Y-81760000D02*
X155290000Y-82760000D01*
X156340000Y-87180000D02*
X154740000Y-87180000D01*
X156920000Y-81760000D02*
X149080000Y-81760000D01*
X156340000Y-87780000D02*
X156340000Y-87180000D01*
X152200000Y-87180000D02*
X152200000Y-87780000D01*
X154740000Y-87180000D02*
X154740000Y-87780000D01*
X149080000Y-81760000D02*
X149080000Y-87780000D01*
X155540000Y-81760000D02*
X155540000Y-82760000D01*
%TO.C,R1*%
X150004724Y-72727500D02*
X149495276Y-72727500D01*
X150004724Y-73772500D02*
X149495276Y-73772500D01*
%TO.C,Q1*%
X152500000Y-76940000D02*
X150825000Y-76940000D01*
X152500000Y-76940000D02*
X153150000Y-76940000D01*
X152500000Y-80060000D02*
X151850000Y-80060000D01*
X152500000Y-80060000D02*
X153150000Y-80060000D01*
%TO.C,D1*%
X155750000Y-78335000D02*
X164610000Y-78335000D01*
X164610000Y-72665000D02*
X155750000Y-72665000D01*
X164610000Y-78335000D02*
X164610000Y-72665000D01*
%TO.C,F1*%
X153350200Y-73140000D02*
X153149800Y-73140000D01*
X153350200Y-73860000D02*
X153149800Y-73860000D01*
%TD*%
M02*
