%TF.GenerationSoftware,KiCad,Pcbnew,9.0.9*%
%TF.CreationDate,2026-09-26T19:37:41-05:00*%
%TF.ProjectId,proj2,70726f6a-322e-46b6-9963-61645f706362,0.0*%
%TF.SameCoordinates,Original*%
%TF.FileFunction,Copper,L2,Bot*%
%TF.FilePolarity,Positive*%
%FSLAX46Y46*%
G04 Gerber Fmt 4.6, Leading zero omitted, Abs format (unit mm)*
G04 Created by KiCad (PCBNEW 9.0.9) date 2026-09-26 19:37:41*
%MOMM*%
%LPD*%
G01*
G04 APERTURE LIST*
G04 Aperture macros list*
%AMRoundRect*
0 Rectangle with rounded corners*
0 $1 Rounding radius*
0 $2 $3 $4 $5 $6 $7 $8 $9 X,Y pos of 4 corners*
0 Add a 4 corners polygon primitive as box body*
4,1,4,$2,$3,$4,$5,$6,$7,$8,$9,$2,$3,0*
0 Add four circle primitives for the rounded corners*
1,1,$1+$1,$2,$3*
1,1,$1+$1,$4,$5*
1,1,$1+$1,$6,$7*
1,1,$1+$1,$8,$9*
0 Add four rect primitives between the rounded corners*
20,1,$1+$1,$2,$3,$4,$5,0*
20,1,$1+$1,$4,$5,$6,$7,0*
20,1,$1+$1,$6,$7,$8,$9,0*
20,1,$1+$1,$8,$9,$2,$3,0*%
G04 Aperture macros list end*
%TA.AperFunction,ComponentPad*%
%ADD10RoundRect,0.250000X-0.620000X-0.845000X0.620000X-0.845000X0.620000X0.845000X-0.620000X0.845000X0*%
%TD*%
%TA.AperFunction,ComponentPad*%
%ADD11O,1.740000X2.190000*%
%TD*%
%TA.AperFunction,ComponentPad*%
%ADD12RoundRect,0.250000X0.845000X-0.620000X0.845000X0.620000X-0.845000X0.620000X-0.845000X-0.620000X0*%
%TD*%
%TA.AperFunction,ComponentPad*%
%ADD13O,2.190000X1.740000*%
%TD*%
%TA.AperFunction,ComponentPad*%
%ADD14RoundRect,0.250000X0.620000X0.845000X-0.620000X0.845000X-0.620000X-0.845000X0.620000X-0.845000X0*%
%TD*%
%TA.AperFunction,ViaPad*%
%ADD15C,0.800000*%
%TD*%
G04 APERTURE END LIST*
D10*
%TO.P,HNOUT2,1,Pin_1*%
%TO.N,Net-(HNOUT1-Pin_2)*%
X159275000Y-68500000D03*
D11*
%TO.P,HNOUT2,2,Pin_2*%
%TO.N,+24V*%
X161815000Y-68500000D03*
%TD*%
D10*
%TO.P,HNOUT1,1,Pin_1*%
%TO.N,/Horn-In*%
X151500000Y-68500000D03*
D11*
%TO.P,HNOUT1,2,Pin_2*%
%TO.N,Net-(HNOUT1-Pin_2)*%
X154040000Y-68500000D03*
%TD*%
D12*
%TO.P,HNCTRL1,1,Pin_1*%
%TO.N,GND*%
X144300000Y-76625000D03*
D13*
%TO.P,HNCTRL1,2,Pin_2*%
%TO.N,/Horn-Ctrl*%
X144300000Y-74085000D03*
%TD*%
D14*
%TO.P,POWER1,1,Pin_1*%
%TO.N,GND*%
X155540000Y-84750000D03*
D11*
%TO.P,POWER1,2,Pin_2*%
%TO.N,+24V*%
X153000000Y-84750000D03*
%TO.P,POWER1,3,Pin_3*%
%TO.N,GND*%
X150460000Y-84750000D03*
%TD*%
D15*
%TO.N,GND*%
X148750000Y-79500000D03*
%TD*%
%TA.AperFunction,Conductor*%
%TO.N,GND*%
G36*
X161512668Y-63286161D02*
G01*
X162977894Y-63595775D01*
X163024783Y-63616517D01*
X164229994Y-64485575D01*
X164262963Y-64520986D01*
X164954317Y-65640152D01*
X164970719Y-65682577D01*
X165214413Y-66988728D01*
X165216516Y-67011471D01*
X165216516Y-85737042D01*
X165213837Y-85762678D01*
X164904224Y-87227892D01*
X164883482Y-87274781D01*
X164014426Y-88479992D01*
X163979015Y-88512962D01*
X162859846Y-89204317D01*
X162817421Y-89220719D01*
X161511271Y-89464413D01*
X161488528Y-89466516D01*
X144012957Y-89466516D01*
X143987322Y-89463837D01*
X142836788Y-89220719D01*
X142522107Y-89154224D01*
X142475218Y-89133482D01*
X141596701Y-88500000D01*
X141266850Y-88262150D01*
X141238028Y-88233018D01*
X140734611Y-87518909D01*
X140715666Y-87477557D01*
X140699572Y-87413226D01*
X140352645Y-86026458D01*
X140287190Y-85764817D01*
X140283483Y-85734723D01*
X140283483Y-84417179D01*
X149090000Y-84417179D01*
X149090000Y-84500000D01*
X149917291Y-84500000D01*
X149905548Y-84520339D01*
X149865000Y-84671667D01*
X149865000Y-84828333D01*
X149905548Y-84979661D01*
X149917291Y-85000000D01*
X149090000Y-85000000D01*
X149090000Y-85082820D01*
X149123734Y-85295809D01*
X149190372Y-85500901D01*
X149288271Y-85693036D01*
X149415025Y-85867496D01*
X149415025Y-85867497D01*
X149567502Y-86019974D01*
X149741963Y-86146728D01*
X149934098Y-86244627D01*
X150139190Y-86311266D01*
X150210000Y-86322481D01*
X150210000Y-85292709D01*
X150230339Y-85304452D01*
X150381667Y-85345000D01*
X150538333Y-85345000D01*
X150689661Y-85304452D01*
X150710000Y-85292709D01*
X150710000Y-86322480D01*
X150780809Y-86311266D01*
X150985901Y-86244627D01*
X151178036Y-86146728D01*
X151352496Y-86019974D01*
X151352497Y-86019974D01*
X151504974Y-85867497D01*
X151504979Y-85867491D01*
X151624428Y-85703085D01*
X151679758Y-85660419D01*
X151749371Y-85654440D01*
X151811166Y-85687046D01*
X151825062Y-85703082D01*
X151948539Y-85873033D01*
X152101967Y-86026461D01*
X152277508Y-86153999D01*
X152470840Y-86252506D01*
X152677200Y-86319557D01*
X152757566Y-86332285D01*
X152891505Y-86353500D01*
X152891510Y-86353500D01*
X153108495Y-86353500D01*
X153228421Y-86334505D01*
X153322800Y-86319557D01*
X153529160Y-86252506D01*
X153722492Y-86153999D01*
X153898033Y-86026461D01*
X154038814Y-85885679D01*
X154100133Y-85852197D01*
X154169825Y-85857181D01*
X154225759Y-85899052D01*
X154232031Y-85908266D01*
X154327684Y-86063345D01*
X154451654Y-86187315D01*
X154600875Y-86279356D01*
X154600880Y-86279358D01*
X154767302Y-86334505D01*
X154767309Y-86334506D01*
X154870019Y-86344999D01*
X155289999Y-86344999D01*
X155290000Y-86344998D01*
X155290000Y-85292709D01*
X155310339Y-85304452D01*
X155461667Y-85345000D01*
X155618333Y-85345000D01*
X155769661Y-85304452D01*
X155790000Y-85292709D01*
X155790000Y-86344999D01*
X156209972Y-86344999D01*
X156209986Y-86344998D01*
X156312697Y-86334505D01*
X156479119Y-86279358D01*
X156479124Y-86279356D01*
X156628345Y-86187315D01*
X156752315Y-86063345D01*
X156844356Y-85914124D01*
X156844358Y-85914119D01*
X156899505Y-85747697D01*
X156899506Y-85747690D01*
X156909999Y-85644986D01*
X156910000Y-85644973D01*
X156910000Y-85628711D01*
X159649500Y-85628711D01*
X159649500Y-85871288D01*
X159669928Y-86026461D01*
X159681162Y-86111789D01*
X159690524Y-86146728D01*
X159743947Y-86346104D01*
X159747011Y-86353500D01*
X159836776Y-86570212D01*
X159958064Y-86780289D01*
X159958066Y-86780292D01*
X159958067Y-86780293D01*
X160105733Y-86972736D01*
X160105739Y-86972743D01*
X160277256Y-87144260D01*
X160277262Y-87144265D01*
X160469711Y-87291936D01*
X160679788Y-87413224D01*
X160903900Y-87506054D01*
X161138211Y-87568838D01*
X161318586Y-87592584D01*
X161378711Y-87600500D01*
X161378712Y-87600500D01*
X161621289Y-87600500D01*
X161669388Y-87594167D01*
X161861789Y-87568838D01*
X162096100Y-87506054D01*
X162320212Y-87413224D01*
X162530289Y-87291936D01*
X162722738Y-87144265D01*
X162894265Y-86972738D01*
X163041936Y-86780289D01*
X163163224Y-86570212D01*
X163256054Y-86346100D01*
X163318838Y-86111789D01*
X163350500Y-85871288D01*
X163350500Y-85628712D01*
X163318838Y-85388211D01*
X163256054Y-85153900D01*
X163163224Y-84929788D01*
X163041936Y-84719711D01*
X162894265Y-84527262D01*
X162894260Y-84527256D01*
X162722743Y-84355739D01*
X162722736Y-84355733D01*
X162530293Y-84208067D01*
X162530292Y-84208066D01*
X162530289Y-84208064D01*
X162320212Y-84086776D01*
X162320205Y-84086773D01*
X162096104Y-83993947D01*
X161861785Y-83931161D01*
X161621289Y-83899500D01*
X161621288Y-83899500D01*
X161378712Y-83899500D01*
X161378711Y-83899500D01*
X161138214Y-83931161D01*
X160903895Y-83993947D01*
X160679794Y-84086773D01*
X160679785Y-84086777D01*
X160469706Y-84208067D01*
X160277263Y-84355733D01*
X160277256Y-84355739D01*
X160105739Y-84527256D01*
X160105733Y-84527263D01*
X159958067Y-84719706D01*
X159836777Y-84929785D01*
X159836773Y-84929794D01*
X159743947Y-85153895D01*
X159681161Y-85388214D01*
X159649500Y-85628711D01*
X156910000Y-85628711D01*
X156910000Y-85000000D01*
X156082709Y-85000000D01*
X156094452Y-84979661D01*
X156135000Y-84828333D01*
X156135000Y-84671667D01*
X156094452Y-84520339D01*
X156082709Y-84500000D01*
X156909999Y-84500000D01*
X156909999Y-83855028D01*
X156909998Y-83855013D01*
X156899505Y-83752302D01*
X156844358Y-83585880D01*
X156844356Y-83585875D01*
X156752315Y-83436654D01*
X156628345Y-83312684D01*
X156479124Y-83220643D01*
X156479119Y-83220641D01*
X156312697Y-83165494D01*
X156312690Y-83165493D01*
X156209986Y-83155000D01*
X155790000Y-83155000D01*
X155790000Y-84207290D01*
X155769661Y-84195548D01*
X155618333Y-84155000D01*
X155461667Y-84155000D01*
X155310339Y-84195548D01*
X155290000Y-84207290D01*
X155290000Y-83155000D01*
X154870028Y-83155000D01*
X154870012Y-83155001D01*
X154767302Y-83165494D01*
X154600880Y-83220641D01*
X154600875Y-83220643D01*
X154451654Y-83312684D01*
X154327684Y-83436654D01*
X154232031Y-83591733D01*
X154180083Y-83638457D01*
X154111120Y-83649680D01*
X154047038Y-83621836D01*
X154038811Y-83614317D01*
X153898035Y-83473541D01*
X153898033Y-83473539D01*
X153722492Y-83346001D01*
X153529160Y-83247494D01*
X153322800Y-83180443D01*
X153322798Y-83180442D01*
X153322796Y-83180442D01*
X153108495Y-83146500D01*
X153108490Y-83146500D01*
X152891510Y-83146500D01*
X152891505Y-83146500D01*
X152677203Y-83180442D01*
X152470837Y-83247495D01*
X152277507Y-83346001D01*
X152177355Y-83418766D01*
X152101967Y-83473539D01*
X152101965Y-83473541D01*
X152101964Y-83473541D01*
X151948541Y-83626964D01*
X151948541Y-83626965D01*
X151948539Y-83626967D01*
X151944518Y-83632502D01*
X151825064Y-83796915D01*
X151769734Y-83839580D01*
X151700120Y-83845559D01*
X151638325Y-83812953D01*
X151624428Y-83796915D01*
X151504974Y-83632503D01*
X151504974Y-83632502D01*
X151352497Y-83480025D01*
X151178036Y-83353271D01*
X150985899Y-83255372D01*
X150780805Y-83188733D01*
X150710000Y-83177518D01*
X150710000Y-84207290D01*
X150689661Y-84195548D01*
X150538333Y-84155000D01*
X150381667Y-84155000D01*
X150230339Y-84195548D01*
X150210000Y-84207290D01*
X150210000Y-83177518D01*
X150209999Y-83177518D01*
X150139194Y-83188733D01*
X149934100Y-83255372D01*
X149741963Y-83353271D01*
X149567503Y-83480025D01*
X149567502Y-83480025D01*
X149415025Y-83632502D01*
X149415025Y-83632503D01*
X149288271Y-83806963D01*
X149190372Y-83999098D01*
X149123734Y-84204190D01*
X149090000Y-84417179D01*
X140283483Y-84417179D01*
X140283483Y-76375000D01*
X140283483Y-73976504D01*
X142696500Y-73976504D01*
X142696500Y-74193495D01*
X142730442Y-74407796D01*
X142730443Y-74407800D01*
X142797494Y-74614160D01*
X142896001Y-74807492D01*
X143023539Y-74983033D01*
X143023541Y-74983035D01*
X143164317Y-75123811D01*
X143197802Y-75185134D01*
X143192818Y-75254826D01*
X143150946Y-75310759D01*
X143141733Y-75317031D01*
X142986654Y-75412684D01*
X142862684Y-75536654D01*
X142770643Y-75685875D01*
X142770641Y-75685880D01*
X142715494Y-75852302D01*
X142715493Y-75852309D01*
X142705000Y-75955013D01*
X142705000Y-76375000D01*
X143757291Y-76375000D01*
X143745548Y-76395339D01*
X143705000Y-76546667D01*
X143705000Y-76703333D01*
X143745548Y-76854661D01*
X143757291Y-76875000D01*
X142705001Y-76875000D01*
X142705001Y-77294986D01*
X142715494Y-77397697D01*
X142770641Y-77564119D01*
X142770643Y-77564124D01*
X142862684Y-77713345D01*
X142986654Y-77837315D01*
X143135875Y-77929356D01*
X143135880Y-77929358D01*
X143302302Y-77984505D01*
X143302309Y-77984506D01*
X143405019Y-77994999D01*
X144049999Y-77994999D01*
X144050000Y-77994998D01*
X144050000Y-77167709D01*
X144070339Y-77179452D01*
X144221667Y-77220000D01*
X144378333Y-77220000D01*
X144529661Y-77179452D01*
X144550000Y-77167709D01*
X144550000Y-77994999D01*
X145194972Y-77994999D01*
X145194986Y-77994998D01*
X145297697Y-77984505D01*
X145464119Y-77929358D01*
X145464124Y-77929356D01*
X145613345Y-77837315D01*
X145737315Y-77713345D01*
X145829356Y-77564124D01*
X145829358Y-77564119D01*
X145884505Y-77397697D01*
X145884506Y-77397690D01*
X145894999Y-77294986D01*
X145895000Y-77294973D01*
X145895000Y-76875000D01*
X144842709Y-76875000D01*
X144854452Y-76854661D01*
X144895000Y-76703333D01*
X144895000Y-76546667D01*
X144854452Y-76395339D01*
X144842709Y-76375000D01*
X145894999Y-76375000D01*
X145894999Y-75955028D01*
X145894998Y-75955013D01*
X145884505Y-75852302D01*
X145829358Y-75685880D01*
X145829356Y-75685875D01*
X145737315Y-75536654D01*
X145613345Y-75412684D01*
X145458266Y-75317031D01*
X145411542Y-75265083D01*
X145400319Y-75196120D01*
X145428163Y-75132038D01*
X145435660Y-75123833D01*
X145576461Y-74983033D01*
X145703999Y-74807492D01*
X145802506Y-74614160D01*
X145869557Y-74407800D01*
X145884642Y-74312551D01*
X145903500Y-74193495D01*
X145903500Y-73976504D01*
X145869557Y-73762203D01*
X145869557Y-73762200D01*
X145802506Y-73555840D01*
X145703999Y-73362508D01*
X145576461Y-73186967D01*
X145423033Y-73033539D01*
X145247492Y-72906001D01*
X145054160Y-72807494D01*
X144847800Y-72740443D01*
X144847798Y-72740442D01*
X144847796Y-72740442D01*
X144633495Y-72706500D01*
X144633490Y-72706500D01*
X143966510Y-72706500D01*
X143966505Y-72706500D01*
X143752203Y-72740442D01*
X143545837Y-72807495D01*
X143352507Y-72906001D01*
X143252355Y-72978766D01*
X143176967Y-73033539D01*
X143176965Y-73033541D01*
X143176964Y-73033541D01*
X143023541Y-73186964D01*
X143023541Y-73186965D01*
X143023539Y-73186967D01*
X142968766Y-73262355D01*
X142896001Y-73362507D01*
X142797495Y-73555837D01*
X142730442Y-73762203D01*
X142696500Y-73976504D01*
X140283483Y-73976504D01*
X140283483Y-67012947D01*
X140286160Y-66987332D01*
X140309113Y-66878711D01*
X142149500Y-66878711D01*
X142149500Y-67121288D01*
X142181161Y-67361785D01*
X142243947Y-67596104D01*
X142269417Y-67657593D01*
X142336776Y-67820212D01*
X142458064Y-68030289D01*
X142458066Y-68030292D01*
X142458067Y-68030293D01*
X142605733Y-68222736D01*
X142605739Y-68222743D01*
X142777256Y-68394260D01*
X142777262Y-68394265D01*
X142969711Y-68541936D01*
X143179788Y-68663224D01*
X143403900Y-68756054D01*
X143638211Y-68818838D01*
X143818586Y-68842584D01*
X143878711Y-68850500D01*
X143878712Y-68850500D01*
X144121289Y-68850500D01*
X144169388Y-68844167D01*
X144361789Y-68818838D01*
X144596100Y-68756054D01*
X144820212Y-68663224D01*
X145030289Y-68541936D01*
X145222738Y-68394265D01*
X145394265Y-68222738D01*
X145541936Y-68030289D01*
X145663224Y-67820212D01*
X145752597Y-67604447D01*
X150121500Y-67604447D01*
X150121500Y-69395537D01*
X150121501Y-69395553D01*
X150132113Y-69499427D01*
X150179310Y-69641860D01*
X150187885Y-69667738D01*
X150280970Y-69818652D01*
X150406348Y-69944030D01*
X150557262Y-70037115D01*
X150725574Y-70092887D01*
X150829455Y-70103500D01*
X152170544Y-70103499D01*
X152274426Y-70092887D01*
X152442738Y-70037115D01*
X152593652Y-69944030D01*
X152719030Y-69818652D01*
X152812115Y-69667738D01*
X152812115Y-69667735D01*
X152814146Y-69664444D01*
X152866094Y-69617720D01*
X152935057Y-69606497D01*
X152999139Y-69634341D01*
X153007366Y-69641860D01*
X153141967Y-69776461D01*
X153317508Y-69903999D01*
X153510840Y-70002506D01*
X153717200Y-70069557D01*
X153797566Y-70082285D01*
X153931505Y-70103500D01*
X153931510Y-70103500D01*
X154148495Y-70103500D01*
X154267551Y-70084642D01*
X154362800Y-70069557D01*
X154569160Y-70002506D01*
X154762492Y-69903999D01*
X154938033Y-69776461D01*
X155091461Y-69623033D01*
X155218999Y-69447492D01*
X155317506Y-69254160D01*
X155384557Y-69047800D01*
X155399642Y-68952551D01*
X155418500Y-68833495D01*
X155418500Y-68166504D01*
X155384557Y-67952203D01*
X155384557Y-67952200D01*
X155317506Y-67745840D01*
X155245463Y-67604447D01*
X157896500Y-67604447D01*
X157896500Y-69395537D01*
X157896501Y-69395553D01*
X157907113Y-69499427D01*
X157954310Y-69641860D01*
X157962885Y-69667738D01*
X158055970Y-69818652D01*
X158181348Y-69944030D01*
X158332262Y-70037115D01*
X158500574Y-70092887D01*
X158604455Y-70103500D01*
X159945544Y-70103499D01*
X160049426Y-70092887D01*
X160217738Y-70037115D01*
X160368652Y-69944030D01*
X160494030Y-69818652D01*
X160587115Y-69667738D01*
X160587115Y-69667735D01*
X160589146Y-69664444D01*
X160641094Y-69617720D01*
X160710057Y-69606497D01*
X160774139Y-69634341D01*
X160782366Y-69641860D01*
X160916967Y-69776461D01*
X161092508Y-69903999D01*
X161285840Y-70002506D01*
X161492200Y-70069557D01*
X161572566Y-70082285D01*
X161706505Y-70103500D01*
X161706510Y-70103500D01*
X161923495Y-70103500D01*
X162042551Y-70084642D01*
X162137800Y-70069557D01*
X162344160Y-70002506D01*
X162537492Y-69903999D01*
X162713033Y-69776461D01*
X162866461Y-69623033D01*
X162993999Y-69447492D01*
X163092506Y-69254160D01*
X163159557Y-69047800D01*
X163174642Y-68952551D01*
X163193500Y-68833495D01*
X163193500Y-68166504D01*
X163159557Y-67952203D01*
X163159557Y-67952200D01*
X163092506Y-67745840D01*
X162993999Y-67552508D01*
X162866461Y-67376967D01*
X162713033Y-67223539D01*
X162537492Y-67096001D01*
X162344160Y-66997494D01*
X162137800Y-66930443D01*
X162137798Y-66930442D01*
X162137796Y-66930442D01*
X161923495Y-66896500D01*
X161923490Y-66896500D01*
X161706510Y-66896500D01*
X161706505Y-66896500D01*
X161492203Y-66930442D01*
X161285837Y-66997495D01*
X161092507Y-67096001D01*
X160916968Y-67223538D01*
X160782366Y-67358140D01*
X160721043Y-67391624D01*
X160651351Y-67386640D01*
X160595418Y-67344768D01*
X160589147Y-67335555D01*
X160494032Y-67181351D01*
X160494029Y-67181347D01*
X160368653Y-67055971D01*
X160368652Y-67055970D01*
X160217738Y-66962885D01*
X160119830Y-66930442D01*
X160049427Y-66907113D01*
X159945545Y-66896500D01*
X158604462Y-66896500D01*
X158604446Y-66896501D01*
X158500572Y-66907113D01*
X158332264Y-66962884D01*
X158332259Y-66962886D01*
X158181346Y-67055971D01*
X158055971Y-67181346D01*
X157962886Y-67332259D01*
X157962884Y-67332264D01*
X157907113Y-67500572D01*
X157896500Y-67604447D01*
X155245463Y-67604447D01*
X155218999Y-67552508D01*
X155091461Y-67376967D01*
X154938033Y-67223539D01*
X154762492Y-67096001D01*
X154569160Y-66997494D01*
X154362800Y-66930443D01*
X154362798Y-66930442D01*
X154362796Y-66930442D01*
X154148495Y-66896500D01*
X154148490Y-66896500D01*
X153931510Y-66896500D01*
X153931505Y-66896500D01*
X153717203Y-66930442D01*
X153510837Y-66997495D01*
X153317507Y-67096001D01*
X153141968Y-67223538D01*
X153007366Y-67358140D01*
X152946043Y-67391624D01*
X152876351Y-67386640D01*
X152820418Y-67344768D01*
X152814147Y-67335555D01*
X152719032Y-67181351D01*
X152719029Y-67181347D01*
X152593653Y-67055971D01*
X152593652Y-67055970D01*
X152442738Y-66962885D01*
X152344830Y-66930442D01*
X152274427Y-66907113D01*
X152170545Y-66896500D01*
X150829462Y-66896500D01*
X150829446Y-66896501D01*
X150725572Y-66907113D01*
X150557264Y-66962884D01*
X150557259Y-66962886D01*
X150406346Y-67055971D01*
X150280971Y-67181346D01*
X150187886Y-67332259D01*
X150187884Y-67332264D01*
X150132113Y-67500572D01*
X150121500Y-67604447D01*
X145752597Y-67604447D01*
X145756054Y-67596100D01*
X145818838Y-67361789D01*
X145850500Y-67121288D01*
X145850500Y-66878712D01*
X145818838Y-66638211D01*
X145756054Y-66403900D01*
X145663224Y-66179788D01*
X145541936Y-65969711D01*
X145394265Y-65777262D01*
X145394260Y-65777256D01*
X145222743Y-65605739D01*
X145222736Y-65605733D01*
X145030293Y-65458067D01*
X145030292Y-65458066D01*
X145030289Y-65458064D01*
X144820212Y-65336776D01*
X144820205Y-65336773D01*
X144596104Y-65243947D01*
X144361785Y-65181161D01*
X144121289Y-65149500D01*
X144121288Y-65149500D01*
X143878712Y-65149500D01*
X143878711Y-65149500D01*
X143638214Y-65181161D01*
X143403895Y-65243947D01*
X143179794Y-65336773D01*
X143179785Y-65336777D01*
X142969706Y-65458067D01*
X142777263Y-65605733D01*
X142777256Y-65605739D01*
X142605739Y-65777256D01*
X142605733Y-65777263D01*
X142458067Y-65969706D01*
X142336777Y-66179785D01*
X142336773Y-66179794D01*
X142243947Y-66403895D01*
X142181161Y-66638214D01*
X142149500Y-66878711D01*
X140309113Y-66878711D01*
X140595776Y-65522102D01*
X140616513Y-65475222D01*
X141485577Y-64270003D01*
X141520983Y-64237038D01*
X142640159Y-63545679D01*
X142682575Y-63529280D01*
X143988728Y-63285585D01*
X144011470Y-63283483D01*
X161487051Y-63283483D01*
X161512668Y-63286161D01*
G37*
%TD.AperFunction*%
%TD*%
M02*
