%TF.GenerationSoftware,KiCad,Pcbnew,9.0.9*%
%TF.CreationDate,2026-09-26T19:37:41-05:00*%
%TF.ProjectId,proj2,70726f6a-322e-46b6-9963-61645f706362,0.0*%
%TF.SameCoordinates,Original*%
%TF.FileFunction,Copper,L1,Top*%
%TF.FilePolarity,Positive*%
%FSLAX46Y46*%
G04 Gerber Fmt 4.6, Leading zero omitted, Abs format (unit mm)*
G04 Created by KiCad (PCBNEW 9.0.9) date 2026-09-26 19:37:41*
%MOMM*%
%LPD*%
G01*
G04 APERTURE LIST*
G04 Aperture macros list*
%AMRoundRect*
0 Rectangle with rounded corners*
0 $1 Rounding radius*
0 $2 $3 $4 $5 $6 $7 $8 $9 X,Y pos of 4 corners*
0 Add a 4 corners polygon primitive as box body*
4,1,4,$2,$3,$4,$5,$6,$7,$8,$9,$2,$3,0*
0 Add four circle primitives for the rounded corners*
1,1,$1+$1,$2,$3*
1,1,$1+$1,$4,$5*
1,1,$1+$1,$6,$7*
1,1,$1+$1,$8,$9*
0 Add four rect primitives between the rounded corners*
20,1,$1+$1,$2,$3,$4,$5,0*
20,1,$1+$1,$4,$5,$6,$7,0*
20,1,$1+$1,$6,$7,$8,$9,0*
20,1,$1+$1,$8,$9,$2,$3,0*%
G04 Aperture macros list end*
%TA.AperFunction,SMDPad,CuDef*%
%ADD10RoundRect,0.155000X0.212500X0.155000X-0.212500X0.155000X-0.212500X-0.155000X0.212500X-0.155000X0*%
%TD*%
%TA.AperFunction,SMDPad,CuDef*%
%ADD11RoundRect,0.155000X-0.212500X-0.155000X0.212500X-0.155000X0.212500X0.155000X-0.212500X0.155000X0*%
%TD*%
%TA.AperFunction,ComponentPad*%
%ADD12RoundRect,0.250000X-0.620000X-0.845000X0.620000X-0.845000X0.620000X0.845000X-0.620000X0.845000X0*%
%TD*%
%TA.AperFunction,ComponentPad*%
%ADD13O,1.740000X2.190000*%
%TD*%
%TA.AperFunction,ComponentPad*%
%ADD14RoundRect,0.250000X0.845000X-0.620000X0.845000X0.620000X-0.845000X0.620000X-0.845000X-0.620000X0*%
%TD*%
%TA.AperFunction,ComponentPad*%
%ADD15O,2.190000X1.740000*%
%TD*%
%TA.AperFunction,ComponentPad*%
%ADD16RoundRect,0.250000X0.620000X0.845000X-0.620000X0.845000X-0.620000X-0.845000X0.620000X-0.845000X0*%
%TD*%
%TA.AperFunction,SMDPad,CuDef*%
%ADD17RoundRect,0.237500X0.250000X0.237500X-0.250000X0.237500X-0.250000X-0.237500X0.250000X-0.237500X0*%
%TD*%
%TA.AperFunction,SMDPad,CuDef*%
%ADD18RoundRect,0.150000X-0.587500X-0.150000X0.587500X-0.150000X0.587500X0.150000X-0.587500X0.150000X0*%
%TD*%
%TA.AperFunction,SMDPad,CuDef*%
%ADD19RoundRect,0.250001X1.074999X2.324999X-1.074999X2.324999X-1.074999X-2.324999X1.074999X-2.324999X0*%
%TD*%
%TA.AperFunction,SMDPad,CuDef*%
%ADD20RoundRect,0.160000X0.222500X0.160000X-0.222500X0.160000X-0.222500X-0.160000X0.222500X-0.160000X0*%
%TD*%
%TA.AperFunction,ViaPad*%
%ADD21C,0.800000*%
%TD*%
%TA.AperFunction,Conductor*%
%ADD22C,0.250000*%
%TD*%
G04 APERTURE END LIST*
D10*
%TO.P,C9,1*%
%TO.N,Net-(C9-Pad1)*%
X150067500Y-76000000D03*
%TO.P,C9,2*%
%TO.N,GND*%
X148932500Y-76000000D03*
%TD*%
D11*
%TO.P,C8,1*%
%TO.N,+24V*%
X143247500Y-88000000D03*
%TO.P,C8,2*%
%TO.N,GND*%
X144382500Y-88000000D03*
%TD*%
%TO.P,C7,1*%
%TO.N,+24V*%
X143247500Y-86000000D03*
%TO.P,C7,2*%
%TO.N,GND*%
X144382500Y-86000000D03*
%TD*%
%TO.P,C6,1*%
%TO.N,+24V*%
X143157500Y-83750000D03*
%TO.P,C6,2*%
%TO.N,GND*%
X144292500Y-83750000D03*
%TD*%
%TO.P,C5,1*%
%TO.N,+24V*%
X143157500Y-81500000D03*
%TO.P,C5,2*%
%TO.N,GND*%
X144292500Y-81500000D03*
%TD*%
D10*
%TO.P,C4,1*%
%TO.N,+24V*%
X147475000Y-88000000D03*
%TO.P,C4,2*%
%TO.N,GND*%
X146340000Y-88000000D03*
%TD*%
%TO.P,C3,1*%
%TO.N,+24V*%
X147475000Y-86000000D03*
%TO.P,C3,2*%
%TO.N,GND*%
X146340000Y-86000000D03*
%TD*%
%TO.P,C2,1*%
%TO.N,+24V*%
X147475000Y-83750000D03*
%TO.P,C2,2*%
%TO.N,GND*%
X146340000Y-83750000D03*
%TD*%
%TO.P,C1,1*%
%TO.N,+24V*%
X147475000Y-81500000D03*
%TO.P,C1,2*%
%TO.N,GND*%
X146340000Y-81500000D03*
%TD*%
D12*
%TO.P,HNOUT2,1,Pin_1*%
%TO.N,Net-(HNOUT1-Pin_2)*%
X159275000Y-68500000D03*
D13*
%TO.P,HNOUT2,2,Pin_2*%
%TO.N,+24V*%
X161815000Y-68500000D03*
%TD*%
D12*
%TO.P,HNOUT1,1,Pin_1*%
%TO.N,/Horn-In*%
X151500000Y-68500000D03*
D13*
%TO.P,HNOUT1,2,Pin_2*%
%TO.N,Net-(HNOUT1-Pin_2)*%
X154040000Y-68500000D03*
%TD*%
D14*
%TO.P,HNCTRL1,1,Pin_1*%
%TO.N,GND*%
X144300000Y-76625000D03*
D15*
%TO.P,HNCTRL1,2,Pin_2*%
%TO.N,/Horn-Ctrl*%
X144300000Y-74085000D03*
%TD*%
D16*
%TO.P,POWER1,1,Pin_1*%
%TO.N,GND*%
X155540000Y-84750000D03*
D13*
%TO.P,POWER1,2,Pin_2*%
%TO.N,+24V*%
X153000000Y-84750000D03*
%TO.P,POWER1,3,Pin_3*%
%TO.N,GND*%
X150460000Y-84750000D03*
%TD*%
D17*
%TO.P,R1,1*%
%TO.N,/Horn-Ctrl*%
X150662500Y-73250000D03*
%TO.P,R1,2*%
%TO.N,Net-(C9-Pad1)*%
X148837500Y-73250000D03*
%TD*%
D18*
%TO.P,Q1,1,G*%
%TO.N,/Horn-Ctrl*%
X151562500Y-77550000D03*
%TO.P,Q1,2,S*%
%TO.N,GND*%
X151562500Y-79450000D03*
%TO.P,Q1,3,D*%
%TO.N,Net-(Q1-D)*%
X153437500Y-78500000D03*
%TD*%
D19*
%TO.P,D1,1,K*%
%TO.N,+24V*%
X163025000Y-75500000D03*
%TO.P,D1,2,A*%
%TO.N,/Horn-In*%
X156475000Y-75500000D03*
%TD*%
D20*
%TO.P,F1,1*%
%TO.N,/Horn-In*%
X153822500Y-73500000D03*
%TO.P,F1,2*%
%TO.N,Net-(Q1-D)*%
X152677500Y-73500000D03*
%TD*%
D21*
%TO.N,GND*%
X148750000Y-79500000D03*
%TD*%
D22*
%TO.N,GND*%
X145315000Y-80750000D02*
X148250000Y-80750000D01*
X145815000Y-88000000D02*
X145315000Y-87500000D01*
X146500000Y-88000000D02*
X145815000Y-88000000D01*
X145815000Y-86000000D02*
X145315000Y-85500000D01*
X146500000Y-86000000D02*
X145815000Y-86000000D01*
X145815000Y-83750000D02*
X145315000Y-83250000D01*
X146500000Y-83750000D02*
X145815000Y-83750000D01*
X146065000Y-81500000D02*
X145315000Y-80750000D01*
X146500000Y-81500000D02*
X146065000Y-81500000D01*
X144815000Y-88000000D02*
X145315000Y-87500000D01*
X144222500Y-88000000D02*
X144815000Y-88000000D01*
X145315000Y-87500000D02*
X145315000Y-85500000D01*
X145315000Y-85500000D02*
X145315000Y-83250000D01*
X144815000Y-86000000D02*
X145315000Y-85500000D01*
X144222500Y-86000000D02*
X144815000Y-86000000D01*
X145315000Y-83250000D02*
X145315000Y-80750000D01*
X144815000Y-83750000D02*
X145315000Y-83250000D01*
X144132500Y-83750000D02*
X144815000Y-83750000D01*
X144565000Y-81500000D02*
X145315000Y-80750000D01*
X144132500Y-81500000D02*
X144565000Y-81500000D01*
X148250000Y-80750000D02*
X148750000Y-80250000D01*
X148750000Y-80250000D02*
X148750000Y-79500000D01*
%TO.N,/Horn-Ctrl*%
X150000000Y-72000000D02*
X150662500Y-72662500D01*
X147500000Y-72000000D02*
X150000000Y-72000000D01*
X150662500Y-72662500D02*
X150662500Y-73250000D01*
X145415000Y-74085000D02*
X147500000Y-72000000D01*
X144300000Y-74085000D02*
X145415000Y-74085000D01*
%TO.N,Net-(C9-Pad1)*%
X149907500Y-74907500D02*
X149907500Y-76000000D01*
X148837500Y-73837500D02*
X149907500Y-74907500D01*
X148837500Y-73250000D02*
X148837500Y-73837500D01*
%TO.N,/Horn-Ctrl*%
X151562500Y-74812500D02*
X151562500Y-77550000D01*
X150662500Y-73912500D02*
X151562500Y-74812500D01*
X150662500Y-73250000D02*
X150662500Y-73912500D01*
%TO.N,Net-(Q1-D)*%
X152677500Y-73500000D02*
X152677500Y-75177500D01*
X152677500Y-75177500D02*
X153437500Y-75937500D01*
X153437500Y-75937500D02*
X153437500Y-78500000D01*
%TO.N,Net-(HNOUT1-Pin_2)*%
X159275000Y-68500000D02*
X154040000Y-68500000D01*
%TO.N,/Horn-In*%
X153822500Y-72822500D02*
X153822500Y-73500000D01*
X151500000Y-70250000D02*
X153750000Y-72500000D01*
X153750000Y-72500000D02*
X153750000Y-72750000D01*
X151500000Y-68500000D02*
X151500000Y-70250000D01*
X153750000Y-72750000D02*
X153822500Y-72822500D01*
X153822500Y-74822500D02*
X154500000Y-75500000D01*
X153822500Y-73500000D02*
X153822500Y-74822500D01*
X154500000Y-75500000D02*
X156475000Y-75500000D01*
%TO.N,GND*%
X149092500Y-77407500D02*
X148750000Y-77750000D01*
X148750000Y-77750000D02*
X148750000Y-79500000D01*
X149092500Y-76000000D02*
X149092500Y-77407500D01*
X149750000Y-79500000D02*
X148750000Y-79500000D01*
X149800000Y-79450000D02*
X149750000Y-79500000D01*
X151562500Y-79450000D02*
X149800000Y-79450000D01*
%TD*%
%TA.AperFunction,Conductor*%
%TO.N,+24V*%
G36*
X161512668Y-63286161D02*
G01*
X162977894Y-63595775D01*
X163024783Y-63616517D01*
X164229994Y-64485575D01*
X164262963Y-64520986D01*
X164954317Y-65640153D01*
X164970719Y-65682578D01*
X165214413Y-66988728D01*
X165216516Y-67011471D01*
X165216516Y-85737042D01*
X165213837Y-85762678D01*
X164904224Y-87227892D01*
X164883482Y-87274781D01*
X164014426Y-88479992D01*
X163979015Y-88512962D01*
X162859846Y-89204317D01*
X162817421Y-89220719D01*
X161511271Y-89464413D01*
X161488528Y-89466516D01*
X144012957Y-89466516D01*
X143987322Y-89463837D01*
X143454492Y-89351245D01*
X142522105Y-89154224D01*
X142475215Y-89133482D01*
X142026609Y-88810000D01*
X141327994Y-88306240D01*
X141327993Y-88306238D01*
X141268199Y-88263122D01*
X141255550Y-88250000D01*
X142382270Y-88250000D01*
X142382921Y-88258281D01*
X142429090Y-88417194D01*
X142429092Y-88417197D01*
X142513333Y-88559642D01*
X142513339Y-88559650D01*
X142630349Y-88676660D01*
X142630357Y-88676666D01*
X142772802Y-88760907D01*
X142772805Y-88760908D01*
X142931716Y-88807077D01*
X142931722Y-88807078D01*
X142968842Y-88809999D01*
X142968858Y-88810000D01*
X142997500Y-88810000D01*
X142997500Y-88250000D01*
X142382270Y-88250000D01*
X141255550Y-88250000D01*
X141237551Y-88231327D01*
X140992081Y-87863121D01*
X140916667Y-87750000D01*
X142382270Y-87750000D01*
X142997500Y-87750000D01*
X142997500Y-87190000D01*
X142968842Y-87190000D01*
X142931722Y-87192921D01*
X142931716Y-87192922D01*
X142772805Y-87239091D01*
X142772802Y-87239092D01*
X142630357Y-87323333D01*
X142630349Y-87323339D01*
X142513339Y-87440349D01*
X142513333Y-87440357D01*
X142429092Y-87582802D01*
X142429090Y-87582805D01*
X142382921Y-87741718D01*
X142382270Y-87750000D01*
X140916667Y-87750000D01*
X140761365Y-87517047D01*
X140744723Y-87480205D01*
X140416774Y-86250000D01*
X142382270Y-86250000D01*
X142382921Y-86258281D01*
X142429090Y-86417194D01*
X142429092Y-86417197D01*
X142513333Y-86559642D01*
X142513339Y-86559650D01*
X142630349Y-86676660D01*
X142630357Y-86676666D01*
X142772802Y-86760907D01*
X142772805Y-86760908D01*
X142931716Y-86807077D01*
X142931722Y-86807078D01*
X142968842Y-86809999D01*
X142968858Y-86810000D01*
X142997500Y-86810000D01*
X142997500Y-86250000D01*
X142382270Y-86250000D01*
X140416774Y-86250000D01*
X140413469Y-86237603D01*
X140303818Y-85826279D01*
X140303818Y-85826278D01*
X140287668Y-85765695D01*
X140285612Y-85750000D01*
X142382270Y-85750000D01*
X142997500Y-85750000D01*
X142997500Y-85190000D01*
X142968842Y-85190000D01*
X142931722Y-85192921D01*
X142931716Y-85192922D01*
X142772805Y-85239091D01*
X142772802Y-85239092D01*
X142630357Y-85323333D01*
X142630349Y-85323339D01*
X142513339Y-85440349D01*
X142513333Y-85440357D01*
X142429092Y-85582802D01*
X142429090Y-85582805D01*
X142382921Y-85741718D01*
X142382270Y-85750000D01*
X140285612Y-85750000D01*
X140283483Y-85733754D01*
X140283483Y-84000000D01*
X142292270Y-84000000D01*
X142292921Y-84008281D01*
X142339090Y-84167194D01*
X142339092Y-84167197D01*
X142423333Y-84309642D01*
X142423339Y-84309650D01*
X142540349Y-84426660D01*
X142540357Y-84426666D01*
X142682802Y-84510907D01*
X142682805Y-84510908D01*
X142841716Y-84557077D01*
X142841722Y-84557078D01*
X142878842Y-84559999D01*
X142878858Y-84560000D01*
X142907500Y-84560000D01*
X142907500Y-84000000D01*
X142292270Y-84000000D01*
X140283483Y-84000000D01*
X140283483Y-83500000D01*
X142292270Y-83500000D01*
X142907500Y-83500000D01*
X142907500Y-82940000D01*
X142878842Y-82940000D01*
X142841722Y-82942921D01*
X142841716Y-82942922D01*
X142682805Y-82989091D01*
X142682802Y-82989092D01*
X142540357Y-83073333D01*
X142540349Y-83073339D01*
X142423339Y-83190349D01*
X142423333Y-83190357D01*
X142339092Y-83332802D01*
X142339090Y-83332805D01*
X142292921Y-83491718D01*
X142292270Y-83500000D01*
X140283483Y-83500000D01*
X140283483Y-81750000D01*
X142292270Y-81750000D01*
X142292921Y-81758281D01*
X142339090Y-81917194D01*
X142339092Y-81917197D01*
X142423333Y-82059642D01*
X142423339Y-82059650D01*
X142540349Y-82176660D01*
X142540357Y-82176666D01*
X142682802Y-82260907D01*
X142682805Y-82260908D01*
X142841716Y-82307077D01*
X142841722Y-82307078D01*
X142878842Y-82309999D01*
X142878858Y-82310000D01*
X142907500Y-82310000D01*
X142907500Y-81750000D01*
X142292270Y-81750000D01*
X140283483Y-81750000D01*
X140283483Y-81250000D01*
X142292270Y-81250000D01*
X142907500Y-81250000D01*
X142907500Y-80690000D01*
X142878842Y-80690000D01*
X142841722Y-80692921D01*
X142841716Y-80692922D01*
X142682805Y-80739091D01*
X142682802Y-80739092D01*
X142540357Y-80823333D01*
X142540349Y-80823339D01*
X142423339Y-80940349D01*
X142423333Y-80940357D01*
X142339092Y-81082802D01*
X142339090Y-81082805D01*
X142292921Y-81241718D01*
X142292270Y-81250000D01*
X140283483Y-81250000D01*
X140283483Y-76429303D01*
X140283483Y-73976504D01*
X142696500Y-73976504D01*
X142696500Y-74193495D01*
X142728906Y-74398096D01*
X142730443Y-74407800D01*
X142797494Y-74614160D01*
X142896001Y-74807492D01*
X143023539Y-74983033D01*
X143023541Y-74983035D01*
X143158139Y-75117633D01*
X143191624Y-75178956D01*
X143186640Y-75248648D01*
X143144768Y-75304581D01*
X143135556Y-75310852D01*
X142981348Y-75405969D01*
X142855971Y-75531346D01*
X142762886Y-75682259D01*
X142762884Y-75682264D01*
X142707113Y-75850572D01*
X142696500Y-75954447D01*
X142696500Y-77295537D01*
X142696501Y-77295553D01*
X142707113Y-77399427D01*
X142762049Y-77565214D01*
X142762885Y-77567738D01*
X142855970Y-77718652D01*
X142981348Y-77844030D01*
X143132262Y-77937115D01*
X143300574Y-77992887D01*
X143404455Y-78003500D01*
X145195544Y-78003499D01*
X145299426Y-77992887D01*
X145467738Y-77937115D01*
X145618652Y-77844030D01*
X145744030Y-77718652D01*
X145837115Y-77567738D01*
X145892887Y-77399426D01*
X145903500Y-77295545D01*
X145903499Y-75954456D01*
X145892887Y-75850574D01*
X145837115Y-75682262D01*
X145744030Y-75531348D01*
X145618652Y-75405970D01*
X145618648Y-75405967D01*
X145464444Y-75310852D01*
X145417719Y-75258904D01*
X145406498Y-75189942D01*
X145434341Y-75125860D01*
X145441838Y-75117655D01*
X145576461Y-74983033D01*
X145703999Y-74807492D01*
X145802506Y-74614160D01*
X145803295Y-74611729D01*
X145803966Y-74610634D01*
X145804372Y-74609656D01*
X145804526Y-74609720D01*
X145833547Y-74562356D01*
X147641507Y-72754396D01*
X147702828Y-72720913D01*
X147772520Y-72725897D01*
X147828453Y-72767769D01*
X147852870Y-72833233D01*
X147852544Y-72854681D01*
X147841500Y-72962777D01*
X147841500Y-73537205D01*
X147841501Y-73537221D01*
X147851938Y-73639382D01*
X147906790Y-73804917D01*
X147906795Y-73804928D01*
X147998339Y-73953342D01*
X147998342Y-73953346D01*
X148121654Y-74076658D01*
X148270080Y-74168209D01*
X148270084Y-74168210D01*
X148276627Y-74171262D01*
X148275281Y-74174148D01*
X148321039Y-74205765D01*
X148327766Y-74214899D01*
X148345428Y-74241332D01*
X148345431Y-74241336D01*
X149073915Y-74969819D01*
X149107400Y-75031142D01*
X149102416Y-75100833D01*
X149060544Y-75156767D01*
X148995080Y-75181184D01*
X148986234Y-75181500D01*
X148666367Y-75181500D01*
X148599528Y-75187573D01*
X148599521Y-75187575D01*
X148445696Y-75235508D01*
X148445693Y-75235510D01*
X148307798Y-75318870D01*
X148193870Y-75432798D01*
X148110510Y-75570693D01*
X148110508Y-75570696D01*
X148062575Y-75724520D01*
X148056500Y-75791378D01*
X148056500Y-76208632D01*
X148062573Y-76275471D01*
X148062575Y-76275478D01*
X148110508Y-76429303D01*
X148110510Y-76429306D01*
X148110511Y-76429309D01*
X148193868Y-76567198D01*
X148193870Y-76567201D01*
X148307798Y-76681129D01*
X148307800Y-76681130D01*
X148307802Y-76681132D01*
X148399151Y-76736355D01*
X148446337Y-76787881D01*
X148459000Y-76842470D01*
X148459000Y-77093734D01*
X148450355Y-77123174D01*
X148443832Y-77153161D01*
X148440077Y-77158176D01*
X148439315Y-77160773D01*
X148422681Y-77181415D01*
X148346167Y-77257929D01*
X148313304Y-77290792D01*
X148257927Y-77346168D01*
X148188603Y-77449918D01*
X148188598Y-77449927D01*
X148140845Y-77565214D01*
X148140843Y-77565222D01*
X148116500Y-77687601D01*
X148116500Y-78797324D01*
X148096815Y-78864363D01*
X148080181Y-78885005D01*
X148044324Y-78920861D01*
X148044321Y-78920865D01*
X147944901Y-79069657D01*
X147944896Y-79069667D01*
X147876413Y-79234999D01*
X147876411Y-79235007D01*
X147841500Y-79410516D01*
X147841500Y-79589483D01*
X147876411Y-79764992D01*
X147876413Y-79765000D01*
X147944897Y-79930334D01*
X147946881Y-79934046D01*
X147961123Y-80002449D01*
X147936123Y-80067693D01*
X147879818Y-80109064D01*
X147837523Y-80116500D01*
X145252601Y-80116500D01*
X145130222Y-80140843D01*
X145130214Y-80140845D01*
X145014927Y-80188598D01*
X145014918Y-80188603D01*
X144911167Y-80257928D01*
X144911163Y-80257931D01*
X144523913Y-80645181D01*
X144462590Y-80678666D01*
X144436232Y-80681500D01*
X144026367Y-80681500D01*
X143959528Y-80687573D01*
X143959521Y-80687575D01*
X143805693Y-80735509D01*
X143805689Y-80735511D01*
X143780347Y-80750830D01*
X143712792Y-80768663D01*
X143653083Y-80751443D01*
X143632199Y-80739093D01*
X143632194Y-80739091D01*
X143473283Y-80692922D01*
X143473277Y-80692921D01*
X143436157Y-80690000D01*
X143407500Y-80690000D01*
X143407500Y-82310000D01*
X143436142Y-82310000D01*
X143436157Y-82309999D01*
X143473277Y-82307078D01*
X143473283Y-82307077D01*
X143632194Y-82260908D01*
X143632195Y-82260908D01*
X143653080Y-82248557D01*
X143720804Y-82231373D01*
X143780351Y-82249170D01*
X143805691Y-82264489D01*
X143805694Y-82264490D01*
X143805693Y-82264490D01*
X143860105Y-82281445D01*
X143959522Y-82312425D01*
X144026375Y-82318500D01*
X144557500Y-82318499D01*
X144624539Y-82338183D01*
X144670294Y-82390987D01*
X144681500Y-82442499D01*
X144681500Y-82807500D01*
X144661815Y-82874539D01*
X144609011Y-82920294D01*
X144557500Y-82931500D01*
X144026367Y-82931500D01*
X143959528Y-82937573D01*
X143959521Y-82937575D01*
X143805693Y-82985509D01*
X143805689Y-82985511D01*
X143780347Y-83000830D01*
X143712792Y-83018663D01*
X143653083Y-83001443D01*
X143632199Y-82989093D01*
X143632194Y-82989091D01*
X143473283Y-82942922D01*
X143473277Y-82942921D01*
X143436157Y-82940000D01*
X143407500Y-82940000D01*
X143407500Y-84560000D01*
X143436142Y-84560000D01*
X143436157Y-84559999D01*
X143473277Y-84557078D01*
X143473283Y-84557077D01*
X143632194Y-84510908D01*
X143632195Y-84510908D01*
X143653080Y-84498557D01*
X143720804Y-84481373D01*
X143780351Y-84499170D01*
X143805691Y-84514489D01*
X143805694Y-84514490D01*
X143805693Y-84514490D01*
X143846684Y-84527263D01*
X143959522Y-84562425D01*
X144026375Y-84568500D01*
X144557500Y-84568499D01*
X144624539Y-84588183D01*
X144670294Y-84640987D01*
X144681500Y-84692499D01*
X144681500Y-85057500D01*
X144661815Y-85124539D01*
X144609011Y-85170294D01*
X144557500Y-85181500D01*
X144116367Y-85181500D01*
X144049528Y-85187573D01*
X144049521Y-85187575D01*
X143895693Y-85235509D01*
X143895689Y-85235511D01*
X143870347Y-85250830D01*
X143802792Y-85268663D01*
X143743083Y-85251443D01*
X143722199Y-85239093D01*
X143722194Y-85239091D01*
X143563283Y-85192922D01*
X143563277Y-85192921D01*
X143526157Y-85190000D01*
X143497500Y-85190000D01*
X143497500Y-86810000D01*
X143526142Y-86810000D01*
X143526157Y-86809999D01*
X143563277Y-86807078D01*
X143563283Y-86807077D01*
X143722194Y-86760908D01*
X143722195Y-86760908D01*
X143743080Y-86748557D01*
X143810804Y-86731373D01*
X143870351Y-86749170D01*
X143895691Y-86764489D01*
X143895694Y-86764490D01*
X143895693Y-86764490D01*
X143946395Y-86780289D01*
X144049522Y-86812425D01*
X144116375Y-86818500D01*
X144557500Y-86818499D01*
X144566186Y-86821049D01*
X144575147Y-86819761D01*
X144599183Y-86830738D01*
X144624539Y-86838183D01*
X144630467Y-86845025D01*
X144638703Y-86848786D01*
X144652989Y-86871017D01*
X144670294Y-86890987D01*
X144672581Y-86901502D01*
X144676477Y-86907564D01*
X144681500Y-86942499D01*
X144681500Y-87057500D01*
X144661815Y-87124539D01*
X144609011Y-87170294D01*
X144557500Y-87181500D01*
X144116367Y-87181500D01*
X144049528Y-87187573D01*
X144049521Y-87187575D01*
X143895693Y-87235509D01*
X143895689Y-87235511D01*
X143870347Y-87250830D01*
X143802792Y-87268663D01*
X143743083Y-87251443D01*
X143722199Y-87239093D01*
X143722194Y-87239091D01*
X143563283Y-87192922D01*
X143563277Y-87192921D01*
X143526157Y-87190000D01*
X143497500Y-87190000D01*
X143497500Y-88810000D01*
X143526142Y-88810000D01*
X143526157Y-88809999D01*
X143563277Y-88807078D01*
X143563283Y-88807077D01*
X143722194Y-88760908D01*
X143722195Y-88760908D01*
X143743080Y-88748557D01*
X143810804Y-88731373D01*
X143870351Y-88749170D01*
X143895691Y-88764489D01*
X143895694Y-88764490D01*
X143895693Y-88764490D01*
X143950105Y-88781445D01*
X144049522Y-88812425D01*
X144116375Y-88818500D01*
X144648624Y-88818499D01*
X144648631Y-88818499D01*
X144715471Y-88812426D01*
X144715472Y-88812425D01*
X144715478Y-88812425D01*
X144869309Y-88764489D01*
X145007198Y-88681132D01*
X145121132Y-88567198D01*
X145121136Y-88567190D01*
X145125081Y-88562156D01*
X145149606Y-88538453D01*
X145151661Y-88536953D01*
X145218833Y-88492071D01*
X145234128Y-88476775D01*
X145241906Y-88471100D01*
X145266087Y-88462415D01*
X145288636Y-88450102D01*
X145298424Y-88450801D01*
X145307663Y-88447484D01*
X145332703Y-88453252D01*
X145358328Y-88455084D01*
X145368201Y-88461429D01*
X145375750Y-88463168D01*
X145383894Y-88471513D01*
X145402680Y-88483586D01*
X145411163Y-88492069D01*
X145411167Y-88492072D01*
X145514921Y-88561399D01*
X145514923Y-88561400D01*
X145514925Y-88561401D01*
X145528935Y-88567204D01*
X145629808Y-88608987D01*
X145670036Y-88635867D01*
X145715298Y-88681129D01*
X145715300Y-88681130D01*
X145715302Y-88681132D01*
X145853191Y-88764489D01*
X145853194Y-88764490D01*
X145853196Y-88764491D01*
X145913338Y-88783231D01*
X146007022Y-88812425D01*
X146073875Y-88818500D01*
X146606124Y-88818499D01*
X146606131Y-88818499D01*
X146672971Y-88812426D01*
X146672972Y-88812425D01*
X146672978Y-88812425D01*
X146826803Y-88764491D01*
X146826804Y-88764491D01*
X146826805Y-88764490D01*
X146826809Y-88764489D01*
X146852148Y-88749170D01*
X146919698Y-88731335D01*
X146979417Y-88748556D01*
X147000302Y-88760907D01*
X147000305Y-88760908D01*
X147159216Y-88807077D01*
X147159222Y-88807078D01*
X147196342Y-88809999D01*
X147196358Y-88810000D01*
X147225000Y-88810000D01*
X147725000Y-88810000D01*
X147753642Y-88810000D01*
X147753657Y-88809999D01*
X147790777Y-88807078D01*
X147790783Y-88807077D01*
X147949694Y-88760908D01*
X147949697Y-88760907D01*
X148092142Y-88676666D01*
X148092150Y-88676660D01*
X148209160Y-88559650D01*
X148209166Y-88559642D01*
X148293407Y-88417197D01*
X148293409Y-88417194D01*
X148339578Y-88258281D01*
X148340230Y-88250000D01*
X147725000Y-88250000D01*
X147725000Y-88810000D01*
X147225000Y-88810000D01*
X147225000Y-87750000D01*
X147725000Y-87750000D01*
X148340230Y-87750000D01*
X148339578Y-87741718D01*
X148293409Y-87582805D01*
X148293407Y-87582802D01*
X148209166Y-87440357D01*
X148209160Y-87440349D01*
X148092150Y-87323339D01*
X148092142Y-87323333D01*
X147949697Y-87239092D01*
X147949694Y-87239091D01*
X147790783Y-87192922D01*
X147790777Y-87192921D01*
X147753657Y-87190000D01*
X147725000Y-87190000D01*
X147725000Y-87750000D01*
X147225000Y-87750000D01*
X147225000Y-87190000D01*
X147196342Y-87190000D01*
X147159222Y-87192921D01*
X147159216Y-87192922D01*
X147000306Y-87239091D01*
X147000297Y-87239094D01*
X146979413Y-87251445D01*
X146911688Y-87268625D01*
X146852146Y-87250828D01*
X146826809Y-87235511D01*
X146826801Y-87235508D01*
X146672978Y-87187575D01*
X146672980Y-87187575D01*
X146650693Y-87185550D01*
X146606125Y-87181500D01*
X146606121Y-87181500D01*
X146072500Y-87181500D01*
X146063814Y-87178949D01*
X146054853Y-87180238D01*
X146030812Y-87169259D01*
X146005461Y-87161815D01*
X145999533Y-87154974D01*
X145991297Y-87151213D01*
X145977007Y-87128978D01*
X145959706Y-87109011D01*
X145957418Y-87098496D01*
X145953523Y-87092435D01*
X145948500Y-87057500D01*
X145948500Y-86942499D01*
X145968185Y-86875460D01*
X146020989Y-86829705D01*
X146072500Y-86818499D01*
X146073864Y-86818499D01*
X146073875Y-86818500D01*
X146606124Y-86818499D01*
X146606131Y-86818499D01*
X146672971Y-86812426D01*
X146672972Y-86812425D01*
X146672978Y-86812425D01*
X146826803Y-86764491D01*
X146826804Y-86764491D01*
X146826805Y-86764490D01*
X146826809Y-86764489D01*
X146852148Y-86749170D01*
X146919698Y-86731335D01*
X146979417Y-86748556D01*
X147000302Y-86760907D01*
X147000305Y-86760908D01*
X147159216Y-86807077D01*
X147159222Y-86807078D01*
X147196342Y-86809999D01*
X147196358Y-86810000D01*
X147225000Y-86810000D01*
X147725000Y-86810000D01*
X147753642Y-86810000D01*
X147753657Y-86809999D01*
X147790777Y-86807078D01*
X147790783Y-86807077D01*
X147949694Y-86760908D01*
X147949697Y-86760907D01*
X148092142Y-86676666D01*
X148092150Y-86676660D01*
X148209160Y-86559650D01*
X148209166Y-86559642D01*
X148293407Y-86417197D01*
X148293409Y-86417194D01*
X148339578Y-86258281D01*
X148340230Y-86250000D01*
X147725000Y-86250000D01*
X147725000Y-86810000D01*
X147225000Y-86810000D01*
X147225000Y-85750000D01*
X147725000Y-85750000D01*
X148340230Y-85750000D01*
X148339578Y-85741718D01*
X148293409Y-85582805D01*
X148293407Y-85582802D01*
X148209166Y-85440357D01*
X148209160Y-85440349D01*
X148092150Y-85323339D01*
X148092142Y-85323333D01*
X147949697Y-85239092D01*
X147949694Y-85239091D01*
X147790783Y-85192922D01*
X147790777Y-85192921D01*
X147753657Y-85190000D01*
X147725000Y-85190000D01*
X147725000Y-85750000D01*
X147225000Y-85750000D01*
X147225000Y-85190000D01*
X147196342Y-85190000D01*
X147159222Y-85192921D01*
X147159216Y-85192922D01*
X147000306Y-85239091D01*
X147000297Y-85239094D01*
X146979413Y-85251445D01*
X146911688Y-85268625D01*
X146852146Y-85250828D01*
X146826809Y-85235511D01*
X146826801Y-85235508D01*
X146672978Y-85187575D01*
X146672980Y-85187575D01*
X146650693Y-85185550D01*
X146606125Y-85181500D01*
X146606121Y-85181500D01*
X146072500Y-85181500D01*
X146005461Y-85161815D01*
X145959706Y-85109011D01*
X145948500Y-85057500D01*
X145948500Y-84692499D01*
X145968185Y-84625460D01*
X146020989Y-84579705D01*
X146072500Y-84568499D01*
X146073864Y-84568499D01*
X146073875Y-84568500D01*
X146606124Y-84568499D01*
X146606131Y-84568499D01*
X146672971Y-84562426D01*
X146672972Y-84562425D01*
X146672978Y-84562425D01*
X146826803Y-84514491D01*
X146826804Y-84514491D01*
X146826805Y-84514490D01*
X146826809Y-84514489D01*
X146852148Y-84499170D01*
X146919698Y-84481335D01*
X146979417Y-84498556D01*
X147000302Y-84510907D01*
X147000305Y-84510908D01*
X147159216Y-84557077D01*
X147159222Y-84557078D01*
X147196342Y-84559999D01*
X147196358Y-84560000D01*
X147225000Y-84560000D01*
X147725000Y-84560000D01*
X147753642Y-84560000D01*
X147753657Y-84559999D01*
X147790777Y-84557078D01*
X147790783Y-84557077D01*
X147949694Y-84510908D01*
X147949697Y-84510907D01*
X148092142Y-84426666D01*
X148092150Y-84426660D01*
X148102306Y-84416504D01*
X149081500Y-84416504D01*
X149081500Y-85083495D01*
X149108101Y-85251445D01*
X149115443Y-85297800D01*
X149182494Y-85504160D01*
X149281001Y-85697492D01*
X149408539Y-85873033D01*
X149561967Y-86026461D01*
X149737508Y-86153999D01*
X149930840Y-86252506D01*
X150137200Y-86319557D01*
X150217566Y-86332285D01*
X150351505Y-86353500D01*
X150351510Y-86353500D01*
X150568495Y-86353500D01*
X150687551Y-86334642D01*
X150782800Y-86319557D01*
X150989160Y-86252506D01*
X151182492Y-86153999D01*
X151358033Y-86026461D01*
X151511461Y-85873033D01*
X151634936Y-85703084D01*
X151690265Y-85660419D01*
X151759878Y-85654440D01*
X151821673Y-85687046D01*
X151835571Y-85703084D01*
X151955025Y-85867496D01*
X151955025Y-85867497D01*
X152107502Y-86019974D01*
X152281963Y-86146728D01*
X152474098Y-86244627D01*
X152679190Y-86311266D01*
X152750000Y-86322481D01*
X152750000Y-85292709D01*
X152770339Y-85304452D01*
X152921667Y-85345000D01*
X153078333Y-85345000D01*
X153229661Y-85304452D01*
X153250000Y-85292709D01*
X153250000Y-86322480D01*
X153320809Y-86311266D01*
X153525901Y-86244627D01*
X153718036Y-86146728D01*
X153892493Y-86019977D01*
X154028516Y-85883954D01*
X154089839Y-85850469D01*
X154159531Y-85855453D01*
X154215465Y-85897324D01*
X154224031Y-85911629D01*
X154224094Y-85911591D01*
X154227884Y-85917735D01*
X154227885Y-85917738D01*
X154320970Y-86068652D01*
X154446348Y-86194030D01*
X154597262Y-86287115D01*
X154765574Y-86342887D01*
X154869455Y-86353500D01*
X156210544Y-86353499D01*
X156314426Y-86342887D01*
X156482738Y-86287115D01*
X156633652Y-86194030D01*
X156759030Y-86068652D01*
X156852115Y-85917738D01*
X156907887Y-85749426D01*
X156918500Y-85645545D01*
X156918500Y-85628711D01*
X159649500Y-85628711D01*
X159649500Y-85871288D01*
X159669928Y-86026461D01*
X159681162Y-86111789D01*
X159690524Y-86146728D01*
X159743947Y-86346104D01*
X159836773Y-86570205D01*
X159836776Y-86570212D01*
X159958064Y-86780289D01*
X159958066Y-86780292D01*
X159958067Y-86780293D01*
X160105733Y-86972736D01*
X160105739Y-86972743D01*
X160277256Y-87144260D01*
X160277263Y-87144266D01*
X160309835Y-87169259D01*
X160469711Y-87291936D01*
X160679788Y-87413224D01*
X160903900Y-87506054D01*
X161138211Y-87568838D01*
X161318586Y-87592584D01*
X161378711Y-87600500D01*
X161378712Y-87600500D01*
X161621289Y-87600500D01*
X161669388Y-87594167D01*
X161861789Y-87568838D01*
X162096100Y-87506054D01*
X162320212Y-87413224D01*
X162530289Y-87291936D01*
X162722738Y-87144265D01*
X162894265Y-86972738D01*
X163041936Y-86780289D01*
X163163224Y-86570212D01*
X163256054Y-86346100D01*
X163318838Y-86111789D01*
X163350500Y-85871288D01*
X163350500Y-85628712D01*
X163318838Y-85388211D01*
X163256054Y-85153900D01*
X163163224Y-84929788D01*
X163041936Y-84719711D01*
X162921247Y-84562426D01*
X162894266Y-84527263D01*
X162894260Y-84527256D01*
X162722743Y-84355739D01*
X162722736Y-84355733D01*
X162530293Y-84208067D01*
X162530292Y-84208066D01*
X162530289Y-84208064D01*
X162320212Y-84086776D01*
X162320205Y-84086773D01*
X162096104Y-83993947D01*
X161861785Y-83931161D01*
X161621289Y-83899500D01*
X161621288Y-83899500D01*
X161378712Y-83899500D01*
X161378711Y-83899500D01*
X161138214Y-83931161D01*
X160903895Y-83993947D01*
X160679794Y-84086773D01*
X160679785Y-84086777D01*
X160469706Y-84208067D01*
X160277263Y-84355733D01*
X160277256Y-84355739D01*
X160105739Y-84527256D01*
X160105733Y-84527263D01*
X159958067Y-84719706D01*
X159836777Y-84929785D01*
X159836773Y-84929794D01*
X159743947Y-85153895D01*
X159681161Y-85388214D01*
X159649500Y-85628711D01*
X156918500Y-85628711D01*
X156918499Y-83854456D01*
X156907887Y-83750574D01*
X156852115Y-83582262D01*
X156759030Y-83431348D01*
X156633652Y-83305970D01*
X156482738Y-83212885D01*
X156384830Y-83180442D01*
X156314427Y-83157113D01*
X156210545Y-83146500D01*
X154869462Y-83146500D01*
X154869446Y-83146501D01*
X154765572Y-83157113D01*
X154597264Y-83212884D01*
X154597259Y-83212886D01*
X154446346Y-83305971D01*
X154320971Y-83431346D01*
X154320970Y-83431348D01*
X154253105Y-83541375D01*
X154224094Y-83588409D01*
X154222646Y-83587516D01*
X154182387Y-83633221D01*
X154115190Y-83652360D01*
X154048313Y-83632131D01*
X154028517Y-83616045D01*
X153892497Y-83480025D01*
X153718036Y-83353271D01*
X153525899Y-83255372D01*
X153320805Y-83188733D01*
X153250000Y-83177518D01*
X153250000Y-84207290D01*
X153229661Y-84195548D01*
X153078333Y-84155000D01*
X152921667Y-84155000D01*
X152770339Y-84195548D01*
X152750000Y-84207290D01*
X152750000Y-83177518D01*
X152749999Y-83177518D01*
X152679194Y-83188733D01*
X152474100Y-83255372D01*
X152281963Y-83353271D01*
X152107503Y-83480025D01*
X152107502Y-83480025D01*
X151955024Y-83632503D01*
X151835571Y-83796915D01*
X151780240Y-83839580D01*
X151710627Y-83845559D01*
X151648832Y-83812953D01*
X151634935Y-83796914D01*
X151511463Y-83626970D01*
X151511458Y-83626964D01*
X151358035Y-83473541D01*
X151358033Y-83473539D01*
X151182492Y-83346001D01*
X150989160Y-83247494D01*
X150782800Y-83180443D01*
X150782798Y-83180442D01*
X150782796Y-83180442D01*
X150568495Y-83146500D01*
X150568490Y-83146500D01*
X150351510Y-83146500D01*
X150351505Y-83146500D01*
X150137203Y-83180442D01*
X149930837Y-83247495D01*
X149737507Y-83346001D01*
X149637355Y-83418766D01*
X149561967Y-83473539D01*
X149561965Y-83473541D01*
X149561964Y-83473541D01*
X149408541Y-83626964D01*
X149408541Y-83626965D01*
X149408539Y-83626967D01*
X149390090Y-83652360D01*
X149281001Y-83802507D01*
X149182495Y-83995837D01*
X149115442Y-84202203D01*
X149081500Y-84416504D01*
X148102306Y-84416504D01*
X148194854Y-84323957D01*
X148209160Y-84309650D01*
X148209166Y-84309642D01*
X148293407Y-84167197D01*
X148293409Y-84167194D01*
X148339578Y-84008281D01*
X148340230Y-84000000D01*
X147725000Y-84000000D01*
X147725000Y-84560000D01*
X147225000Y-84560000D01*
X147225000Y-83500000D01*
X147725000Y-83500000D01*
X148340230Y-83500000D01*
X148339578Y-83491718D01*
X148293409Y-83332805D01*
X148293407Y-83332802D01*
X148209166Y-83190357D01*
X148209160Y-83190349D01*
X148092150Y-83073339D01*
X148092142Y-83073333D01*
X147949697Y-82989092D01*
X147949694Y-82989091D01*
X147790783Y-82942922D01*
X147790777Y-82942921D01*
X147753657Y-82940000D01*
X147725000Y-82940000D01*
X147725000Y-83500000D01*
X147225000Y-83500000D01*
X147225000Y-82940000D01*
X147196342Y-82940000D01*
X147159222Y-82942921D01*
X147159216Y-82942922D01*
X147000306Y-82989091D01*
X147000297Y-82989094D01*
X146979413Y-83001445D01*
X146911688Y-83018625D01*
X146852146Y-83000828D01*
X146826809Y-82985511D01*
X146826801Y-82985508D01*
X146672978Y-82937575D01*
X146672980Y-82937575D01*
X146650693Y-82935550D01*
X146606125Y-82931500D01*
X146606121Y-82931500D01*
X146072500Y-82931500D01*
X146005461Y-82911815D01*
X145959706Y-82859011D01*
X145948500Y-82807500D01*
X145948500Y-82442499D01*
X145968185Y-82375460D01*
X146020989Y-82329705D01*
X146072500Y-82318499D01*
X146073864Y-82318499D01*
X146073875Y-82318500D01*
X146606124Y-82318499D01*
X146606131Y-82318499D01*
X146672971Y-82312426D01*
X146672972Y-82312425D01*
X146672978Y-82312425D01*
X146826803Y-82264491D01*
X146826804Y-82264491D01*
X146826805Y-82264490D01*
X146826809Y-82264489D01*
X146852148Y-82249170D01*
X146919698Y-82231335D01*
X146979417Y-82248556D01*
X147000302Y-82260907D01*
X147000305Y-82260908D01*
X147159216Y-82307077D01*
X147159222Y-82307078D01*
X147196342Y-82309999D01*
X147196358Y-82310000D01*
X147225000Y-82310000D01*
X147725000Y-82310000D01*
X147753642Y-82310000D01*
X147753657Y-82309999D01*
X147790777Y-82307078D01*
X147790783Y-82307077D01*
X147949694Y-82260908D01*
X147949697Y-82260907D01*
X148092142Y-82176666D01*
X148092150Y-82176660D01*
X148209160Y-82059650D01*
X148209166Y-82059642D01*
X148293407Y-81917197D01*
X148293409Y-81917194D01*
X148339578Y-81758281D01*
X148340230Y-81750000D01*
X147725000Y-81750000D01*
X147725000Y-82310000D01*
X147225000Y-82310000D01*
X147225000Y-81624000D01*
X147244685Y-81556961D01*
X147297489Y-81511206D01*
X147349000Y-81500000D01*
X147475000Y-81500000D01*
X147478117Y-81496882D01*
X147494685Y-81440461D01*
X147547489Y-81394706D01*
X147599000Y-81383500D01*
X148312395Y-81383500D01*
X148312396Y-81383499D01*
X148434785Y-81359155D01*
X148550075Y-81311400D01*
X148653833Y-81242071D01*
X149242072Y-80653833D01*
X149311401Y-80550075D01*
X149359155Y-80434785D01*
X149383500Y-80312394D01*
X149383500Y-80257500D01*
X149403185Y-80190461D01*
X149455989Y-80144706D01*
X149507500Y-80133500D01*
X149812395Y-80133500D01*
X149812396Y-80133499D01*
X149934785Y-80109155D01*
X149973933Y-80092938D01*
X150021386Y-80083500D01*
X150475877Y-80083500D01*
X150542916Y-80103185D01*
X150563558Y-80119819D01*
X150568187Y-80124448D01*
X150568196Y-80124455D01*
X150595907Y-80140843D01*
X150711399Y-80209145D01*
X150753530Y-80221385D01*
X150871164Y-80255561D01*
X150871167Y-80255561D01*
X150871169Y-80255562D01*
X150908498Y-80258500D01*
X150908504Y-80258500D01*
X152216496Y-80258500D01*
X152216502Y-80258500D01*
X152253831Y-80255562D01*
X152253833Y-80255561D01*
X152253835Y-80255561D01*
X152295962Y-80243321D01*
X152413601Y-80209145D01*
X152556807Y-80124453D01*
X152674453Y-80006807D01*
X152759145Y-79863601D01*
X152805562Y-79703831D01*
X152808500Y-79666502D01*
X152808500Y-79432500D01*
X152828185Y-79365461D01*
X152880989Y-79319706D01*
X152932500Y-79308500D01*
X154091496Y-79308500D01*
X154091502Y-79308500D01*
X154128831Y-79305562D01*
X154128833Y-79305561D01*
X154128835Y-79305561D01*
X154170962Y-79293321D01*
X154288601Y-79259145D01*
X154431807Y-79174453D01*
X154549453Y-79056807D01*
X154634145Y-78913601D01*
X154680562Y-78753831D01*
X154683500Y-78716502D01*
X154683500Y-78480543D01*
X154703185Y-78413504D01*
X154755989Y-78367749D01*
X154825147Y-78357805D01*
X154888703Y-78386830D01*
X154895181Y-78392862D01*
X154926348Y-78424029D01*
X154926352Y-78424032D01*
X155077261Y-78517115D01*
X155077264Y-78517116D01*
X155245571Y-78572886D01*
X155245572Y-78572886D01*
X155245575Y-78572887D01*
X155349456Y-78583500D01*
X155349461Y-78583500D01*
X157600539Y-78583500D01*
X157600544Y-78583500D01*
X157704425Y-78572887D01*
X157872738Y-78517115D01*
X158023651Y-78424030D01*
X158149030Y-78298651D01*
X158242115Y-78147738D01*
X158297887Y-77979425D01*
X158308500Y-77875544D01*
X158308500Y-77874985D01*
X161200000Y-77874985D01*
X161210493Y-77977689D01*
X161210494Y-77977696D01*
X161265641Y-78144118D01*
X161265643Y-78144123D01*
X161357684Y-78293344D01*
X161481655Y-78417315D01*
X161630876Y-78509356D01*
X161630881Y-78509358D01*
X161797303Y-78564505D01*
X161797310Y-78564506D01*
X161900014Y-78574999D01*
X161900027Y-78575000D01*
X162775000Y-78575000D01*
X163275000Y-78575000D01*
X164149973Y-78575000D01*
X164149985Y-78574999D01*
X164252689Y-78564506D01*
X164252696Y-78564505D01*
X164419118Y-78509358D01*
X164419123Y-78509356D01*
X164568344Y-78417315D01*
X164692315Y-78293344D01*
X164784356Y-78144123D01*
X164784358Y-78144118D01*
X164839505Y-77977696D01*
X164839506Y-77977689D01*
X164849999Y-77874985D01*
X164850000Y-77874972D01*
X164850000Y-75750000D01*
X163275000Y-75750000D01*
X163275000Y-78575000D01*
X162775000Y-78575000D01*
X162775000Y-75750000D01*
X161200000Y-75750000D01*
X161200000Y-77874985D01*
X158308500Y-77874985D01*
X158308500Y-73125014D01*
X161200000Y-73125014D01*
X161200000Y-75250000D01*
X162775000Y-75250000D01*
X163275000Y-75250000D01*
X164850000Y-75250000D01*
X164850000Y-73125027D01*
X164849999Y-73125014D01*
X164839506Y-73022310D01*
X164839505Y-73022303D01*
X164784358Y-72855881D01*
X164784356Y-72855876D01*
X164692315Y-72706655D01*
X164568344Y-72582684D01*
X164419123Y-72490643D01*
X164419118Y-72490641D01*
X164252696Y-72435494D01*
X164252689Y-72435493D01*
X164149985Y-72425000D01*
X163275000Y-72425000D01*
X163275000Y-75250000D01*
X162775000Y-75250000D01*
X162775000Y-72425000D01*
X161900014Y-72425000D01*
X161797310Y-72435493D01*
X161797303Y-72435494D01*
X161630881Y-72490641D01*
X161630876Y-72490643D01*
X161481655Y-72582684D01*
X161357684Y-72706655D01*
X161265643Y-72855876D01*
X161265641Y-72855881D01*
X161210494Y-73022303D01*
X161210493Y-73022310D01*
X161200000Y-73125014D01*
X158308500Y-73125014D01*
X158308500Y-73124456D01*
X158297887Y-73020575D01*
X158297886Y-73020571D01*
X158242116Y-72852264D01*
X158242115Y-72852261D01*
X158149032Y-72701352D01*
X158149029Y-72701348D01*
X158023651Y-72575970D01*
X158023647Y-72575967D01*
X157872738Y-72482884D01*
X157872735Y-72482883D01*
X157704428Y-72427113D01*
X157600551Y-72416500D01*
X157600544Y-72416500D01*
X155349456Y-72416500D01*
X155349448Y-72416500D01*
X155245571Y-72427113D01*
X155077264Y-72482883D01*
X155077261Y-72482884D01*
X154926352Y-72575967D01*
X154926348Y-72575970D01*
X154800969Y-72701349D01*
X154711921Y-72845717D01*
X154694630Y-72861268D01*
X154680692Y-72879888D01*
X154669139Y-72884196D01*
X154659973Y-72892441D01*
X154637018Y-72896175D01*
X154615227Y-72904303D01*
X154603179Y-72901681D01*
X154591010Y-72903662D01*
X154569680Y-72894394D01*
X154546954Y-72889450D01*
X154531256Y-72877698D01*
X154526928Y-72875818D01*
X154518711Y-72868309D01*
X154492317Y-72841915D01*
X154458833Y-72780591D01*
X154457275Y-72766100D01*
X154456597Y-72766167D01*
X154456000Y-72760111D01*
X154456000Y-72760106D01*
X154431655Y-72637715D01*
X154392938Y-72544246D01*
X154383500Y-72496794D01*
X154383500Y-72437605D01*
X154383499Y-72437601D01*
X154381413Y-72427113D01*
X154359155Y-72315215D01*
X154338977Y-72266501D01*
X154335732Y-72258667D01*
X154311404Y-72199932D01*
X154311403Y-72199931D01*
X154311401Y-72199925D01*
X154311397Y-72199919D01*
X154242072Y-72096166D01*
X154242069Y-72096163D01*
X152389813Y-70243909D01*
X152356328Y-70182586D01*
X152361312Y-70112895D01*
X152403184Y-70056961D01*
X152438486Y-70038523D01*
X152442738Y-70037115D01*
X152593652Y-69944030D01*
X152719030Y-69818652D01*
X152812115Y-69667738D01*
X152812115Y-69667735D01*
X152814146Y-69664444D01*
X152866094Y-69617720D01*
X152935057Y-69606497D01*
X152999139Y-69634341D01*
X153007366Y-69641860D01*
X153141967Y-69776461D01*
X153317508Y-69903999D01*
X153510840Y-70002506D01*
X153717200Y-70069557D01*
X153797566Y-70082285D01*
X153931505Y-70103500D01*
X153931510Y-70103500D01*
X154148495Y-70103500D01*
X154267551Y-70084642D01*
X154362800Y-70069557D01*
X154569160Y-70002506D01*
X154762492Y-69903999D01*
X154938033Y-69776461D01*
X155091461Y-69623033D01*
X155218999Y-69447492D01*
X155317506Y-69254160D01*
X155328871Y-69219179D01*
X155368309Y-69161506D01*
X155432668Y-69134308D01*
X155446802Y-69133500D01*
X157772501Y-69133500D01*
X157839540Y-69153185D01*
X157885295Y-69205989D01*
X157896501Y-69257500D01*
X157896501Y-69395553D01*
X157907113Y-69499427D01*
X157954310Y-69641860D01*
X157962885Y-69667738D01*
X158055970Y-69818652D01*
X158181348Y-69944030D01*
X158332262Y-70037115D01*
X158500574Y-70092887D01*
X158604455Y-70103500D01*
X159945544Y-70103499D01*
X160049426Y-70092887D01*
X160217738Y-70037115D01*
X160368652Y-69944030D01*
X160494030Y-69818652D01*
X160587115Y-69667738D01*
X160587116Y-69667735D01*
X160590906Y-69661591D01*
X160592358Y-69662486D01*
X160632587Y-69616794D01*
X160699780Y-69597639D01*
X160766662Y-69617852D01*
X160786482Y-69633954D01*
X160922502Y-69769974D01*
X161096963Y-69896728D01*
X161289098Y-69994627D01*
X161494190Y-70061266D01*
X161565000Y-70072481D01*
X161565000Y-69042709D01*
X161585339Y-69054452D01*
X161736667Y-69095000D01*
X161893333Y-69095000D01*
X162044661Y-69054452D01*
X162065000Y-69042709D01*
X162065000Y-70072480D01*
X162135809Y-70061266D01*
X162340901Y-69994627D01*
X162533036Y-69896728D01*
X162707496Y-69769974D01*
X162707497Y-69769974D01*
X162859974Y-69617497D01*
X162859974Y-69617496D01*
X162986728Y-69443036D01*
X163084627Y-69250901D01*
X163151265Y-69045809D01*
X163185000Y-68832820D01*
X163185000Y-68750000D01*
X162357709Y-68750000D01*
X162369452Y-68729661D01*
X162410000Y-68578333D01*
X162410000Y-68421667D01*
X162369452Y-68270339D01*
X162357709Y-68250000D01*
X163185000Y-68250000D01*
X163185000Y-68167179D01*
X163151265Y-67954190D01*
X163084627Y-67749098D01*
X162986728Y-67556963D01*
X162859974Y-67382503D01*
X162859974Y-67382502D01*
X162707497Y-67230025D01*
X162533036Y-67103271D01*
X162340899Y-67005372D01*
X162135805Y-66938733D01*
X162065000Y-66927518D01*
X162065000Y-67957290D01*
X162044661Y-67945548D01*
X161893333Y-67905000D01*
X161736667Y-67905000D01*
X161585339Y-67945548D01*
X161565000Y-67957290D01*
X161565000Y-66927518D01*
X161564999Y-66927518D01*
X161494194Y-66938733D01*
X161289100Y-67005372D01*
X161096963Y-67103271D01*
X160922506Y-67230022D01*
X160786482Y-67366046D01*
X160725159Y-67399530D01*
X160655467Y-67394546D01*
X160599534Y-67352674D01*
X160590969Y-67338369D01*
X160590906Y-67338409D01*
X160587115Y-67332263D01*
X160587115Y-67332262D01*
X160494030Y-67181348D01*
X160368652Y-67055970D01*
X160217738Y-66962885D01*
X160119830Y-66930442D01*
X160049427Y-66907113D01*
X159945545Y-66896500D01*
X158604462Y-66896500D01*
X158604446Y-66896501D01*
X158500572Y-66907113D01*
X158332264Y-66962884D01*
X158332259Y-66962886D01*
X158181346Y-67055971D01*
X158055971Y-67181346D01*
X157962886Y-67332259D01*
X157962884Y-67332264D01*
X157907113Y-67500572D01*
X157896500Y-67604447D01*
X157896500Y-67742500D01*
X157876815Y-67809539D01*
X157824011Y-67855294D01*
X157772500Y-67866500D01*
X155446802Y-67866500D01*
X155379763Y-67846815D01*
X155334008Y-67794011D01*
X155328871Y-67780819D01*
X155318564Y-67749098D01*
X155317506Y-67745840D01*
X155317504Y-67745837D01*
X155317504Y-67745835D01*
X155265540Y-67643850D01*
X155218999Y-67552508D01*
X155091461Y-67376967D01*
X154938033Y-67223539D01*
X154762492Y-67096001D01*
X154569160Y-66997494D01*
X154362800Y-66930443D01*
X154362798Y-66930442D01*
X154362796Y-66930442D01*
X154148495Y-66896500D01*
X154148490Y-66896500D01*
X153931510Y-66896500D01*
X153931505Y-66896500D01*
X153717203Y-66930442D01*
X153510837Y-66997495D01*
X153317507Y-67096001D01*
X153141968Y-67223538D01*
X153007366Y-67358140D01*
X152946043Y-67391624D01*
X152876351Y-67386640D01*
X152820418Y-67344768D01*
X152814147Y-67335555D01*
X152719032Y-67181351D01*
X152719029Y-67181347D01*
X152593653Y-67055971D01*
X152593652Y-67055970D01*
X152442738Y-66962885D01*
X152344830Y-66930442D01*
X152274427Y-66907113D01*
X152170545Y-66896500D01*
X150829462Y-66896500D01*
X150829446Y-66896501D01*
X150725572Y-66907113D01*
X150557264Y-66962884D01*
X150557259Y-66962886D01*
X150406346Y-67055971D01*
X150280971Y-67181346D01*
X150187886Y-67332259D01*
X150187884Y-67332264D01*
X150132113Y-67500572D01*
X150121500Y-67604447D01*
X150121500Y-69395537D01*
X150121501Y-69395553D01*
X150132113Y-69499427D01*
X150179310Y-69641860D01*
X150187885Y-69667738D01*
X150280970Y-69818652D01*
X150406348Y-69944030D01*
X150557262Y-70037115D01*
X150725574Y-70092887D01*
X150725573Y-70092887D01*
X150730397Y-70093379D01*
X150755101Y-70095903D01*
X150819792Y-70122297D01*
X150859945Y-70179477D01*
X150866500Y-70219261D01*
X150866500Y-70312398D01*
X150890843Y-70434777D01*
X150890845Y-70434785D01*
X150938598Y-70550072D01*
X150938603Y-70550081D01*
X151007928Y-70653832D01*
X151007931Y-70653836D01*
X152813914Y-72459819D01*
X152847399Y-72521142D01*
X152842415Y-72590834D01*
X152800543Y-72646767D01*
X152735079Y-72671184D01*
X152726233Y-72671500D01*
X152400970Y-72671500D01*
X152360556Y-72675172D01*
X152333612Y-72677621D01*
X152178626Y-72725916D01*
X152178622Y-72725918D01*
X152039699Y-72809899D01*
X152039695Y-72809902D01*
X151924902Y-72924695D01*
X151924899Y-72924699D01*
X151885477Y-72989911D01*
X151833949Y-73037098D01*
X151765090Y-73048936D01*
X151700761Y-73021667D01*
X151661388Y-72963948D01*
X151656004Y-72938365D01*
X151648062Y-72860619D01*
X151646490Y-72855876D01*
X151614754Y-72760101D01*
X151593209Y-72695080D01*
X151593205Y-72695074D01*
X151593204Y-72695071D01*
X151501660Y-72546657D01*
X151501657Y-72546653D01*
X151378345Y-72423341D01*
X151229925Y-72331793D01*
X151223378Y-72328741D01*
X151224528Y-72326273D01*
X151183580Y-72299618D01*
X151177366Y-72292782D01*
X151154571Y-72258667D01*
X151066333Y-72170429D01*
X150992067Y-72096163D01*
X150403836Y-71507931D01*
X150403832Y-71507928D01*
X150300081Y-71438603D01*
X150300072Y-71438598D01*
X150184785Y-71390845D01*
X150184777Y-71390843D01*
X150062398Y-71366500D01*
X150062394Y-71366500D01*
X147562393Y-71366500D01*
X147437606Y-71366500D01*
X147437601Y-71366500D01*
X147315222Y-71390843D01*
X147315214Y-71390845D01*
X147199927Y-71438598D01*
X147199918Y-71438603D01*
X147096167Y-71507928D01*
X147096163Y-71507931D01*
X145583364Y-73020731D01*
X145522041Y-73054216D01*
X145452349Y-73049232D01*
X145422799Y-73033369D01*
X145247492Y-72906001D01*
X145054160Y-72807494D01*
X144847800Y-72740443D01*
X144847798Y-72740442D01*
X144847796Y-72740442D01*
X144633495Y-72706500D01*
X144633490Y-72706500D01*
X143966510Y-72706500D01*
X143966505Y-72706500D01*
X143752203Y-72740442D01*
X143545837Y-72807495D01*
X143352507Y-72906001D01*
X143274349Y-72962787D01*
X143176967Y-73033539D01*
X143176965Y-73033541D01*
X143176964Y-73033541D01*
X143023541Y-73186964D01*
X143023541Y-73186965D01*
X143023539Y-73186967D01*
X143000546Y-73218614D01*
X142896001Y-73362507D01*
X142797495Y-73555837D01*
X142730442Y-73762203D01*
X142696500Y-73976504D01*
X140283483Y-73976504D01*
X140283483Y-67012947D01*
X140286160Y-66987332D01*
X140309113Y-66878711D01*
X142149500Y-66878711D01*
X142149500Y-67121288D01*
X142181161Y-67361785D01*
X142243947Y-67596104D01*
X142320459Y-67780819D01*
X142336776Y-67820212D01*
X142458064Y-68030289D01*
X142458066Y-68030292D01*
X142458067Y-68030293D01*
X142605733Y-68222736D01*
X142605739Y-68222743D01*
X142777256Y-68394260D01*
X142777262Y-68394265D01*
X142969711Y-68541936D01*
X143179788Y-68663224D01*
X143403900Y-68756054D01*
X143638211Y-68818838D01*
X143818586Y-68842584D01*
X143878711Y-68850500D01*
X143878712Y-68850500D01*
X144121289Y-68850500D01*
X144169388Y-68844167D01*
X144361789Y-68818838D01*
X144596100Y-68756054D01*
X144820212Y-68663224D01*
X145030289Y-68541936D01*
X145222738Y-68394265D01*
X145394265Y-68222738D01*
X145541936Y-68030289D01*
X145663224Y-67820212D01*
X145756054Y-67596100D01*
X145818838Y-67361789D01*
X145850500Y-67121288D01*
X145850500Y-66878712D01*
X145818838Y-66638211D01*
X145756054Y-66403900D01*
X145663224Y-66179788D01*
X145541936Y-65969711D01*
X145394265Y-65777262D01*
X145394260Y-65777256D01*
X145222743Y-65605739D01*
X145222736Y-65605733D01*
X145030293Y-65458067D01*
X145030292Y-65458066D01*
X145030289Y-65458064D01*
X144820212Y-65336776D01*
X144820205Y-65336773D01*
X144596104Y-65243947D01*
X144361785Y-65181161D01*
X144121289Y-65149500D01*
X144121288Y-65149500D01*
X143878712Y-65149500D01*
X143878711Y-65149500D01*
X143638214Y-65181161D01*
X143403895Y-65243947D01*
X143179794Y-65336773D01*
X143179785Y-65336777D01*
X142969706Y-65458067D01*
X142777263Y-65605733D01*
X142777256Y-65605739D01*
X142605739Y-65777256D01*
X142605733Y-65777263D01*
X142458067Y-65969706D01*
X142336777Y-66179785D01*
X142336773Y-66179794D01*
X142243947Y-66403895D01*
X142181161Y-66638214D01*
X142149500Y-66878711D01*
X140309113Y-66878711D01*
X140595776Y-65522103D01*
X140616515Y-65475222D01*
X141485573Y-64270006D01*
X141520982Y-64237038D01*
X142640159Y-63545679D01*
X142682575Y-63529280D01*
X143988728Y-63285585D01*
X144011470Y-63283483D01*
X161487051Y-63283483D01*
X161512668Y-63286161D01*
G37*
%TD.AperFunction*%
%TD*%
M02*
