%TF.GenerationSoftware,KiCad,Pcbnew,9.0.9*%
%TF.CreationDate,2026-09-21T11:35:48-05:00*%
%TF.ProjectId,hw-horns,68772d68-6f72-46e7-932e-6b696361645f,1.0*%
%TF.SameCoordinates,Original*%
%TF.FileFunction,Legend,Top*%
%TF.FilePolarity,Positive*%
%FSLAX46Y46*%
G04 Gerber Fmt 4.6, Leading zero omitted, Abs format (unit mm)*
G04 Created by KiCad (PCBNEW 9.0.9) date 2026-09-21 11:35:48*
%MOMM*%
%LPD*%
G01*
G04 APERTURE LIST*
%ADD10C,0.150000*%
%ADD11C,0.120000*%
G04 APERTURE END LIST*
D10*
X180094819Y-109103333D02*
X180809104Y-109103333D01*
X180809104Y-109103333D02*
X180951961Y-109150952D01*
X180951961Y-109150952D02*
X181047200Y-109246190D01*
X181047200Y-109246190D02*
X181094819Y-109389047D01*
X181094819Y-109389047D02*
X181094819Y-109484285D01*
X180428152Y-108198571D02*
X181094819Y-108198571D01*
X180047200Y-108436666D02*
X180761485Y-108674761D01*
X180761485Y-108674761D02*
X180761485Y-108055714D01*
X164059166Y-108584819D02*
X164059166Y-109299104D01*
X164059166Y-109299104D02*
X164011547Y-109441961D01*
X164011547Y-109441961D02*
X163916309Y-109537200D01*
X163916309Y-109537200D02*
X163773452Y-109584819D01*
X163773452Y-109584819D02*
X163678214Y-109584819D01*
X164487738Y-108680057D02*
X164535357Y-108632438D01*
X164535357Y-108632438D02*
X164630595Y-108584819D01*
X164630595Y-108584819D02*
X164868690Y-108584819D01*
X164868690Y-108584819D02*
X164963928Y-108632438D01*
X164963928Y-108632438D02*
X165011547Y-108680057D01*
X165011547Y-108680057D02*
X165059166Y-108775295D01*
X165059166Y-108775295D02*
X165059166Y-108870533D01*
X165059166Y-108870533D02*
X165011547Y-109013390D01*
X165011547Y-109013390D02*
X164440119Y-109584819D01*
X164440119Y-109584819D02*
X165059166Y-109584819D01*
X180074819Y-99103333D02*
X180789104Y-99103333D01*
X180789104Y-99103333D02*
X180931961Y-99150952D01*
X180931961Y-99150952D02*
X181027200Y-99246190D01*
X181027200Y-99246190D02*
X181074819Y-99389047D01*
X181074819Y-99389047D02*
X181074819Y-99484285D01*
X180074819Y-98722380D02*
X180074819Y-98103333D01*
X180074819Y-98103333D02*
X180455771Y-98436666D01*
X180455771Y-98436666D02*
X180455771Y-98293809D01*
X180455771Y-98293809D02*
X180503390Y-98198571D01*
X180503390Y-98198571D02*
X180551009Y-98150952D01*
X180551009Y-98150952D02*
X180646247Y-98103333D01*
X180646247Y-98103333D02*
X180884342Y-98103333D01*
X180884342Y-98103333D02*
X180979580Y-98150952D01*
X180979580Y-98150952D02*
X181027200Y-98198571D01*
X181027200Y-98198571D02*
X181074819Y-98293809D01*
X181074819Y-98293809D02*
X181074819Y-98579523D01*
X181074819Y-98579523D02*
X181027200Y-98674761D01*
X181027200Y-98674761D02*
X180979580Y-98722380D01*
X188409580Y-89979166D02*
X188457200Y-90026785D01*
X188457200Y-90026785D02*
X188504819Y-90169642D01*
X188504819Y-90169642D02*
X188504819Y-90264880D01*
X188504819Y-90264880D02*
X188457200Y-90407737D01*
X188457200Y-90407737D02*
X188361961Y-90502975D01*
X188361961Y-90502975D02*
X188266723Y-90550594D01*
X188266723Y-90550594D02*
X188076247Y-90598213D01*
X188076247Y-90598213D02*
X187933390Y-90598213D01*
X187933390Y-90598213D02*
X187742914Y-90550594D01*
X187742914Y-90550594D02*
X187647676Y-90502975D01*
X187647676Y-90502975D02*
X187552438Y-90407737D01*
X187552438Y-90407737D02*
X187504819Y-90264880D01*
X187504819Y-90264880D02*
X187504819Y-90169642D01*
X187504819Y-90169642D02*
X187552438Y-90026785D01*
X187552438Y-90026785D02*
X187600057Y-89979166D01*
X187933390Y-89407737D02*
X187885771Y-89502975D01*
X187885771Y-89502975D02*
X187838152Y-89550594D01*
X187838152Y-89550594D02*
X187742914Y-89598213D01*
X187742914Y-89598213D02*
X187695295Y-89598213D01*
X187695295Y-89598213D02*
X187600057Y-89550594D01*
X187600057Y-89550594D02*
X187552438Y-89502975D01*
X187552438Y-89502975D02*
X187504819Y-89407737D01*
X187504819Y-89407737D02*
X187504819Y-89217261D01*
X187504819Y-89217261D02*
X187552438Y-89122023D01*
X187552438Y-89122023D02*
X187600057Y-89074404D01*
X187600057Y-89074404D02*
X187695295Y-89026785D01*
X187695295Y-89026785D02*
X187742914Y-89026785D01*
X187742914Y-89026785D02*
X187838152Y-89074404D01*
X187838152Y-89074404D02*
X187885771Y-89122023D01*
X187885771Y-89122023D02*
X187933390Y-89217261D01*
X187933390Y-89217261D02*
X187933390Y-89407737D01*
X187933390Y-89407737D02*
X187981009Y-89502975D01*
X187981009Y-89502975D02*
X188028628Y-89550594D01*
X188028628Y-89550594D02*
X188123866Y-89598213D01*
X188123866Y-89598213D02*
X188314342Y-89598213D01*
X188314342Y-89598213D02*
X188409580Y-89550594D01*
X188409580Y-89550594D02*
X188457200Y-89502975D01*
X188457200Y-89502975D02*
X188504819Y-89407737D01*
X188504819Y-89407737D02*
X188504819Y-89217261D01*
X188504819Y-89217261D02*
X188457200Y-89122023D01*
X188457200Y-89122023D02*
X188409580Y-89074404D01*
X188409580Y-89074404D02*
X188314342Y-89026785D01*
X188314342Y-89026785D02*
X188123866Y-89026785D01*
X188123866Y-89026785D02*
X188028628Y-89074404D01*
X188028628Y-89074404D02*
X187981009Y-89122023D01*
X187981009Y-89122023D02*
X187933390Y-89217261D01*
X156109580Y-89694067D02*
X156157200Y-89741686D01*
X156157200Y-89741686D02*
X156204819Y-89884543D01*
X156204819Y-89884543D02*
X156204819Y-89979781D01*
X156204819Y-89979781D02*
X156157200Y-90122638D01*
X156157200Y-90122638D02*
X156061961Y-90217876D01*
X156061961Y-90217876D02*
X155966723Y-90265495D01*
X155966723Y-90265495D02*
X155776247Y-90313114D01*
X155776247Y-90313114D02*
X155633390Y-90313114D01*
X155633390Y-90313114D02*
X155442914Y-90265495D01*
X155442914Y-90265495D02*
X155347676Y-90217876D01*
X155347676Y-90217876D02*
X155252438Y-90122638D01*
X155252438Y-90122638D02*
X155204819Y-89979781D01*
X155204819Y-89979781D02*
X155204819Y-89884543D01*
X155204819Y-89884543D02*
X155252438Y-89741686D01*
X155252438Y-89741686D02*
X155300057Y-89694067D01*
X156204819Y-88741686D02*
X156204819Y-89313114D01*
X156204819Y-89027400D02*
X155204819Y-89027400D01*
X155204819Y-89027400D02*
X155347676Y-89122638D01*
X155347676Y-89122638D02*
X155442914Y-89217876D01*
X155442914Y-89217876D02*
X155490533Y-89313114D01*
X149166666Y-111004819D02*
X148833333Y-110528628D01*
X148595238Y-111004819D02*
X148595238Y-110004819D01*
X148595238Y-110004819D02*
X148976190Y-110004819D01*
X148976190Y-110004819D02*
X149071428Y-110052438D01*
X149071428Y-110052438D02*
X149119047Y-110100057D01*
X149119047Y-110100057D02*
X149166666Y-110195295D01*
X149166666Y-110195295D02*
X149166666Y-110338152D01*
X149166666Y-110338152D02*
X149119047Y-110433390D01*
X149119047Y-110433390D02*
X149071428Y-110481009D01*
X149071428Y-110481009D02*
X148976190Y-110528628D01*
X148976190Y-110528628D02*
X148595238Y-110528628D01*
X149595238Y-110481009D02*
X149928571Y-110481009D01*
X150071428Y-111004819D02*
X149595238Y-111004819D01*
X149595238Y-111004819D02*
X149595238Y-110004819D01*
X149595238Y-110004819D02*
X150071428Y-110004819D01*
X150833333Y-110481009D02*
X150500000Y-110481009D01*
X150500000Y-111004819D02*
X150500000Y-110004819D01*
X150500000Y-110004819D02*
X150976190Y-110004819D01*
X151500000Y-110004819D02*
X151500000Y-110242914D01*
X151261905Y-110147676D02*
X151500000Y-110242914D01*
X151500000Y-110242914D02*
X151738095Y-110147676D01*
X151357143Y-110433390D02*
X151500000Y-110242914D01*
X151500000Y-110242914D02*
X151642857Y-110433390D01*
X152261905Y-110004819D02*
X152261905Y-110242914D01*
X152023810Y-110147676D02*
X152261905Y-110242914D01*
X152261905Y-110242914D02*
X152500000Y-110147676D01*
X152119048Y-110433390D02*
X152261905Y-110242914D01*
X152261905Y-110242914D02*
X152404762Y-110433390D01*
X146666666Y-91454819D02*
X146333333Y-90978628D01*
X146095238Y-91454819D02*
X146095238Y-90454819D01*
X146095238Y-90454819D02*
X146476190Y-90454819D01*
X146476190Y-90454819D02*
X146571428Y-90502438D01*
X146571428Y-90502438D02*
X146619047Y-90550057D01*
X146619047Y-90550057D02*
X146666666Y-90645295D01*
X146666666Y-90645295D02*
X146666666Y-90788152D01*
X146666666Y-90788152D02*
X146619047Y-90883390D01*
X146619047Y-90883390D02*
X146571428Y-90931009D01*
X146571428Y-90931009D02*
X146476190Y-90978628D01*
X146476190Y-90978628D02*
X146095238Y-90978628D01*
X147095238Y-90931009D02*
X147428571Y-90931009D01*
X147571428Y-91454819D02*
X147095238Y-91454819D01*
X147095238Y-91454819D02*
X147095238Y-90454819D01*
X147095238Y-90454819D02*
X147571428Y-90454819D01*
X148333333Y-90931009D02*
X148000000Y-90931009D01*
X148000000Y-91454819D02*
X148000000Y-90454819D01*
X148000000Y-90454819D02*
X148476190Y-90454819D01*
X149000000Y-90454819D02*
X149000000Y-90692914D01*
X148761905Y-90597676D02*
X149000000Y-90692914D01*
X149000000Y-90692914D02*
X149238095Y-90597676D01*
X148857143Y-90883390D02*
X149000000Y-90692914D01*
X149000000Y-90692914D02*
X149142857Y-90883390D01*
X149761905Y-90454819D02*
X149761905Y-90692914D01*
X149523810Y-90597676D02*
X149761905Y-90692914D01*
X149761905Y-90692914D02*
X150000000Y-90597676D01*
X149619048Y-90883390D02*
X149761905Y-90692914D01*
X149761905Y-90692914D02*
X149904762Y-90883390D01*
X149834819Y-101333333D02*
X150549104Y-101333333D01*
X150549104Y-101333333D02*
X150691961Y-101380952D01*
X150691961Y-101380952D02*
X150787200Y-101476190D01*
X150787200Y-101476190D02*
X150834819Y-101619047D01*
X150834819Y-101619047D02*
X150834819Y-101714285D01*
X150834819Y-100333333D02*
X150834819Y-100904761D01*
X150834819Y-100619047D02*
X149834819Y-100619047D01*
X149834819Y-100619047D02*
X149977676Y-100714285D01*
X149977676Y-100714285D02*
X150072914Y-100809523D01*
X150072914Y-100809523D02*
X150120533Y-100904761D01*
X160459580Y-90229166D02*
X160507200Y-90276785D01*
X160507200Y-90276785D02*
X160554819Y-90419642D01*
X160554819Y-90419642D02*
X160554819Y-90514880D01*
X160554819Y-90514880D02*
X160507200Y-90657737D01*
X160507200Y-90657737D02*
X160411961Y-90752975D01*
X160411961Y-90752975D02*
X160316723Y-90800594D01*
X160316723Y-90800594D02*
X160126247Y-90848213D01*
X160126247Y-90848213D02*
X159983390Y-90848213D01*
X159983390Y-90848213D02*
X159792914Y-90800594D01*
X159792914Y-90800594D02*
X159697676Y-90752975D01*
X159697676Y-90752975D02*
X159602438Y-90657737D01*
X159602438Y-90657737D02*
X159554819Y-90514880D01*
X159554819Y-90514880D02*
X159554819Y-90419642D01*
X159554819Y-90419642D02*
X159602438Y-90276785D01*
X159602438Y-90276785D02*
X159650057Y-90229166D01*
X159650057Y-89848213D02*
X159602438Y-89800594D01*
X159602438Y-89800594D02*
X159554819Y-89705356D01*
X159554819Y-89705356D02*
X159554819Y-89467261D01*
X159554819Y-89467261D02*
X159602438Y-89372023D01*
X159602438Y-89372023D02*
X159650057Y-89324404D01*
X159650057Y-89324404D02*
X159745295Y-89276785D01*
X159745295Y-89276785D02*
X159840533Y-89276785D01*
X159840533Y-89276785D02*
X159983390Y-89324404D01*
X159983390Y-89324404D02*
X160554819Y-89895832D01*
X160554819Y-89895832D02*
X160554819Y-89276785D01*
X164709580Y-90229166D02*
X164757200Y-90276785D01*
X164757200Y-90276785D02*
X164804819Y-90419642D01*
X164804819Y-90419642D02*
X164804819Y-90514880D01*
X164804819Y-90514880D02*
X164757200Y-90657737D01*
X164757200Y-90657737D02*
X164661961Y-90752975D01*
X164661961Y-90752975D02*
X164566723Y-90800594D01*
X164566723Y-90800594D02*
X164376247Y-90848213D01*
X164376247Y-90848213D02*
X164233390Y-90848213D01*
X164233390Y-90848213D02*
X164042914Y-90800594D01*
X164042914Y-90800594D02*
X163947676Y-90752975D01*
X163947676Y-90752975D02*
X163852438Y-90657737D01*
X163852438Y-90657737D02*
X163804819Y-90514880D01*
X163804819Y-90514880D02*
X163804819Y-90419642D01*
X163804819Y-90419642D02*
X163852438Y-90276785D01*
X163852438Y-90276785D02*
X163900057Y-90229166D01*
X163804819Y-89895832D02*
X163804819Y-89276785D01*
X163804819Y-89276785D02*
X164185771Y-89610118D01*
X164185771Y-89610118D02*
X164185771Y-89467261D01*
X164185771Y-89467261D02*
X164233390Y-89372023D01*
X164233390Y-89372023D02*
X164281009Y-89324404D01*
X164281009Y-89324404D02*
X164376247Y-89276785D01*
X164376247Y-89276785D02*
X164614342Y-89276785D01*
X164614342Y-89276785D02*
X164709580Y-89324404D01*
X164709580Y-89324404D02*
X164757200Y-89372023D01*
X164757200Y-89372023D02*
X164804819Y-89467261D01*
X164804819Y-89467261D02*
X164804819Y-89752975D01*
X164804819Y-89752975D02*
X164757200Y-89848213D01*
X164757200Y-89848213D02*
X164709580Y-89895832D01*
X173959580Y-90104166D02*
X174007200Y-90151785D01*
X174007200Y-90151785D02*
X174054819Y-90294642D01*
X174054819Y-90294642D02*
X174054819Y-90389880D01*
X174054819Y-90389880D02*
X174007200Y-90532737D01*
X174007200Y-90532737D02*
X173911961Y-90627975D01*
X173911961Y-90627975D02*
X173816723Y-90675594D01*
X173816723Y-90675594D02*
X173626247Y-90723213D01*
X173626247Y-90723213D02*
X173483390Y-90723213D01*
X173483390Y-90723213D02*
X173292914Y-90675594D01*
X173292914Y-90675594D02*
X173197676Y-90627975D01*
X173197676Y-90627975D02*
X173102438Y-90532737D01*
X173102438Y-90532737D02*
X173054819Y-90389880D01*
X173054819Y-90389880D02*
X173054819Y-90294642D01*
X173054819Y-90294642D02*
X173102438Y-90151785D01*
X173102438Y-90151785D02*
X173150057Y-90104166D01*
X173054819Y-89199404D02*
X173054819Y-89675594D01*
X173054819Y-89675594D02*
X173531009Y-89723213D01*
X173531009Y-89723213D02*
X173483390Y-89675594D01*
X173483390Y-89675594D02*
X173435771Y-89580356D01*
X173435771Y-89580356D02*
X173435771Y-89342261D01*
X173435771Y-89342261D02*
X173483390Y-89247023D01*
X173483390Y-89247023D02*
X173531009Y-89199404D01*
X173531009Y-89199404D02*
X173626247Y-89151785D01*
X173626247Y-89151785D02*
X173864342Y-89151785D01*
X173864342Y-89151785D02*
X173959580Y-89199404D01*
X173959580Y-89199404D02*
X174007200Y-89247023D01*
X174007200Y-89247023D02*
X174054819Y-89342261D01*
X174054819Y-89342261D02*
X174054819Y-89580356D01*
X174054819Y-89580356D02*
X174007200Y-89675594D01*
X174007200Y-89675594D02*
X173959580Y-89723213D01*
X155009580Y-114479166D02*
X155057200Y-114526785D01*
X155057200Y-114526785D02*
X155104819Y-114669642D01*
X155104819Y-114669642D02*
X155104819Y-114764880D01*
X155104819Y-114764880D02*
X155057200Y-114907737D01*
X155057200Y-114907737D02*
X154961961Y-115002975D01*
X154961961Y-115002975D02*
X154866723Y-115050594D01*
X154866723Y-115050594D02*
X154676247Y-115098213D01*
X154676247Y-115098213D02*
X154533390Y-115098213D01*
X154533390Y-115098213D02*
X154342914Y-115050594D01*
X154342914Y-115050594D02*
X154247676Y-115002975D01*
X154247676Y-115002975D02*
X154152438Y-114907737D01*
X154152438Y-114907737D02*
X154104819Y-114764880D01*
X154104819Y-114764880D02*
X154104819Y-114669642D01*
X154104819Y-114669642D02*
X154152438Y-114526785D01*
X154152438Y-114526785D02*
X154200057Y-114479166D01*
X155104819Y-114002975D02*
X155104819Y-113812499D01*
X155104819Y-113812499D02*
X155057200Y-113717261D01*
X155057200Y-113717261D02*
X155009580Y-113669642D01*
X155009580Y-113669642D02*
X154866723Y-113574404D01*
X154866723Y-113574404D02*
X154676247Y-113526785D01*
X154676247Y-113526785D02*
X154295295Y-113526785D01*
X154295295Y-113526785D02*
X154200057Y-113574404D01*
X154200057Y-113574404D02*
X154152438Y-113622023D01*
X154152438Y-113622023D02*
X154104819Y-113717261D01*
X154104819Y-113717261D02*
X154104819Y-113907737D01*
X154104819Y-113907737D02*
X154152438Y-114002975D01*
X154152438Y-114002975D02*
X154200057Y-114050594D01*
X154200057Y-114050594D02*
X154295295Y-114098213D01*
X154295295Y-114098213D02*
X154533390Y-114098213D01*
X154533390Y-114098213D02*
X154628628Y-114050594D01*
X154628628Y-114050594D02*
X154676247Y-114002975D01*
X154676247Y-114002975D02*
X154723866Y-113907737D01*
X154723866Y-113907737D02*
X154723866Y-113717261D01*
X154723866Y-113717261D02*
X154676247Y-113622023D01*
X154676247Y-113622023D02*
X154628628Y-113574404D01*
X154628628Y-113574404D02*
X154533390Y-113526785D01*
X183916666Y-111004819D02*
X183583333Y-110528628D01*
X183345238Y-111004819D02*
X183345238Y-110004819D01*
X183345238Y-110004819D02*
X183726190Y-110004819D01*
X183726190Y-110004819D02*
X183821428Y-110052438D01*
X183821428Y-110052438D02*
X183869047Y-110100057D01*
X183869047Y-110100057D02*
X183916666Y-110195295D01*
X183916666Y-110195295D02*
X183916666Y-110338152D01*
X183916666Y-110338152D02*
X183869047Y-110433390D01*
X183869047Y-110433390D02*
X183821428Y-110481009D01*
X183821428Y-110481009D02*
X183726190Y-110528628D01*
X183726190Y-110528628D02*
X183345238Y-110528628D01*
X184345238Y-110481009D02*
X184678571Y-110481009D01*
X184821428Y-111004819D02*
X184345238Y-111004819D01*
X184345238Y-111004819D02*
X184345238Y-110004819D01*
X184345238Y-110004819D02*
X184821428Y-110004819D01*
X185583333Y-110481009D02*
X185250000Y-110481009D01*
X185250000Y-111004819D02*
X185250000Y-110004819D01*
X185250000Y-110004819D02*
X185726190Y-110004819D01*
X186250000Y-110004819D02*
X186250000Y-110242914D01*
X186011905Y-110147676D02*
X186250000Y-110242914D01*
X186250000Y-110242914D02*
X186488095Y-110147676D01*
X186107143Y-110433390D02*
X186250000Y-110242914D01*
X186250000Y-110242914D02*
X186392857Y-110433390D01*
X187011905Y-110004819D02*
X187011905Y-110242914D01*
X186773810Y-110147676D02*
X187011905Y-110242914D01*
X187011905Y-110242914D02*
X187250000Y-110147676D01*
X186869048Y-110433390D02*
X187011905Y-110242914D01*
X187011905Y-110242914D02*
X187154762Y-110433390D01*
X169916666Y-116351009D02*
X169583333Y-116351009D01*
X169583333Y-116874819D02*
X169583333Y-115874819D01*
X169583333Y-115874819D02*
X170059523Y-115874819D01*
X170964285Y-116874819D02*
X170392857Y-116874819D01*
X170678571Y-116874819D02*
X170678571Y-115874819D01*
X170678571Y-115874819D02*
X170583333Y-116017676D01*
X170583333Y-116017676D02*
X170488095Y-116112914D01*
X170488095Y-116112914D02*
X170392857Y-116160533D01*
X158384819Y-109504166D02*
X157908628Y-109837499D01*
X158384819Y-110075594D02*
X157384819Y-110075594D01*
X157384819Y-110075594D02*
X157384819Y-109694642D01*
X157384819Y-109694642D02*
X157432438Y-109599404D01*
X157432438Y-109599404D02*
X157480057Y-109551785D01*
X157480057Y-109551785D02*
X157575295Y-109504166D01*
X157575295Y-109504166D02*
X157718152Y-109504166D01*
X157718152Y-109504166D02*
X157813390Y-109551785D01*
X157813390Y-109551785D02*
X157861009Y-109599404D01*
X157861009Y-109599404D02*
X157908628Y-109694642D01*
X157908628Y-109694642D02*
X157908628Y-110075594D01*
X158384819Y-108551785D02*
X158384819Y-109123213D01*
X158384819Y-108837499D02*
X157384819Y-108837499D01*
X157384819Y-108837499D02*
X157527676Y-108932737D01*
X157527676Y-108932737D02*
X157622914Y-109027975D01*
X157622914Y-109027975D02*
X157670533Y-109123213D01*
X185166666Y-98454819D02*
X184833333Y-97978628D01*
X184595238Y-98454819D02*
X184595238Y-97454819D01*
X184595238Y-97454819D02*
X184976190Y-97454819D01*
X184976190Y-97454819D02*
X185071428Y-97502438D01*
X185071428Y-97502438D02*
X185119047Y-97550057D01*
X185119047Y-97550057D02*
X185166666Y-97645295D01*
X185166666Y-97645295D02*
X185166666Y-97788152D01*
X185166666Y-97788152D02*
X185119047Y-97883390D01*
X185119047Y-97883390D02*
X185071428Y-97931009D01*
X185071428Y-97931009D02*
X184976190Y-97978628D01*
X184976190Y-97978628D02*
X184595238Y-97978628D01*
X185595238Y-97931009D02*
X185928571Y-97931009D01*
X186071428Y-98454819D02*
X185595238Y-98454819D01*
X185595238Y-98454819D02*
X185595238Y-97454819D01*
X185595238Y-97454819D02*
X186071428Y-97454819D01*
X186833333Y-97931009D02*
X186500000Y-97931009D01*
X186500000Y-98454819D02*
X186500000Y-97454819D01*
X186500000Y-97454819D02*
X186976190Y-97454819D01*
X187500000Y-97454819D02*
X187500000Y-97692914D01*
X187261905Y-97597676D02*
X187500000Y-97692914D01*
X187500000Y-97692914D02*
X187738095Y-97597676D01*
X187357143Y-97883390D02*
X187500000Y-97692914D01*
X187500000Y-97692914D02*
X187642857Y-97883390D01*
X188261905Y-97454819D02*
X188261905Y-97692914D01*
X188023810Y-97597676D02*
X188261905Y-97692914D01*
X188261905Y-97692914D02*
X188500000Y-97597676D01*
X188119048Y-97883390D02*
X188261905Y-97692914D01*
X188261905Y-97692914D02*
X188404762Y-97883390D01*
X183409580Y-89979166D02*
X183457200Y-90026785D01*
X183457200Y-90026785D02*
X183504819Y-90169642D01*
X183504819Y-90169642D02*
X183504819Y-90264880D01*
X183504819Y-90264880D02*
X183457200Y-90407737D01*
X183457200Y-90407737D02*
X183361961Y-90502975D01*
X183361961Y-90502975D02*
X183266723Y-90550594D01*
X183266723Y-90550594D02*
X183076247Y-90598213D01*
X183076247Y-90598213D02*
X182933390Y-90598213D01*
X182933390Y-90598213D02*
X182742914Y-90550594D01*
X182742914Y-90550594D02*
X182647676Y-90502975D01*
X182647676Y-90502975D02*
X182552438Y-90407737D01*
X182552438Y-90407737D02*
X182504819Y-90264880D01*
X182504819Y-90264880D02*
X182504819Y-90169642D01*
X182504819Y-90169642D02*
X182552438Y-90026785D01*
X182552438Y-90026785D02*
X182600057Y-89979166D01*
X182504819Y-89645832D02*
X182504819Y-88979166D01*
X182504819Y-88979166D02*
X183504819Y-89407737D01*
X178209580Y-90104166D02*
X178257200Y-90151785D01*
X178257200Y-90151785D02*
X178304819Y-90294642D01*
X178304819Y-90294642D02*
X178304819Y-90389880D01*
X178304819Y-90389880D02*
X178257200Y-90532737D01*
X178257200Y-90532737D02*
X178161961Y-90627975D01*
X178161961Y-90627975D02*
X178066723Y-90675594D01*
X178066723Y-90675594D02*
X177876247Y-90723213D01*
X177876247Y-90723213D02*
X177733390Y-90723213D01*
X177733390Y-90723213D02*
X177542914Y-90675594D01*
X177542914Y-90675594D02*
X177447676Y-90627975D01*
X177447676Y-90627975D02*
X177352438Y-90532737D01*
X177352438Y-90532737D02*
X177304819Y-90389880D01*
X177304819Y-90389880D02*
X177304819Y-90294642D01*
X177304819Y-90294642D02*
X177352438Y-90151785D01*
X177352438Y-90151785D02*
X177400057Y-90104166D01*
X177304819Y-89247023D02*
X177304819Y-89437499D01*
X177304819Y-89437499D02*
X177352438Y-89532737D01*
X177352438Y-89532737D02*
X177400057Y-89580356D01*
X177400057Y-89580356D02*
X177542914Y-89675594D01*
X177542914Y-89675594D02*
X177733390Y-89723213D01*
X177733390Y-89723213D02*
X178114342Y-89723213D01*
X178114342Y-89723213D02*
X178209580Y-89675594D01*
X178209580Y-89675594D02*
X178257200Y-89627975D01*
X178257200Y-89627975D02*
X178304819Y-89532737D01*
X178304819Y-89532737D02*
X178304819Y-89342261D01*
X178304819Y-89342261D02*
X178257200Y-89247023D01*
X178257200Y-89247023D02*
X178209580Y-89199404D01*
X178209580Y-89199404D02*
X178114342Y-89151785D01*
X178114342Y-89151785D02*
X177876247Y-89151785D01*
X177876247Y-89151785D02*
X177781009Y-89199404D01*
X177781009Y-89199404D02*
X177733390Y-89247023D01*
X177733390Y-89247023D02*
X177685771Y-89342261D01*
X177685771Y-89342261D02*
X177685771Y-89532737D01*
X177685771Y-89532737D02*
X177733390Y-89627975D01*
X177733390Y-89627975D02*
X177781009Y-89675594D01*
X177781009Y-89675594D02*
X177876247Y-89723213D01*
X161050057Y-103020238D02*
X161002438Y-103115476D01*
X161002438Y-103115476D02*
X160907200Y-103210714D01*
X160907200Y-103210714D02*
X160764342Y-103353571D01*
X160764342Y-103353571D02*
X160716723Y-103448809D01*
X160716723Y-103448809D02*
X160716723Y-103544047D01*
X160954819Y-103496428D02*
X160907200Y-103591666D01*
X160907200Y-103591666D02*
X160811961Y-103686904D01*
X160811961Y-103686904D02*
X160621485Y-103734523D01*
X160621485Y-103734523D02*
X160288152Y-103734523D01*
X160288152Y-103734523D02*
X160097676Y-103686904D01*
X160097676Y-103686904D02*
X160002438Y-103591666D01*
X160002438Y-103591666D02*
X159954819Y-103496428D01*
X159954819Y-103496428D02*
X159954819Y-103305952D01*
X159954819Y-103305952D02*
X160002438Y-103210714D01*
X160002438Y-103210714D02*
X160097676Y-103115476D01*
X160097676Y-103115476D02*
X160288152Y-103067857D01*
X160288152Y-103067857D02*
X160621485Y-103067857D01*
X160621485Y-103067857D02*
X160811961Y-103115476D01*
X160811961Y-103115476D02*
X160907200Y-103210714D01*
X160907200Y-103210714D02*
X160954819Y-103305952D01*
X160954819Y-103305952D02*
X160954819Y-103496428D01*
X160954819Y-102115476D02*
X160954819Y-102686904D01*
X160954819Y-102401190D02*
X159954819Y-102401190D01*
X159954819Y-102401190D02*
X160097676Y-102496428D01*
X160097676Y-102496428D02*
X160192914Y-102591666D01*
X160192914Y-102591666D02*
X160240533Y-102686904D01*
X186954819Y-103738094D02*
X185954819Y-103738094D01*
X185954819Y-103738094D02*
X185954819Y-103499999D01*
X185954819Y-103499999D02*
X186002438Y-103357142D01*
X186002438Y-103357142D02*
X186097676Y-103261904D01*
X186097676Y-103261904D02*
X186192914Y-103214285D01*
X186192914Y-103214285D02*
X186383390Y-103166666D01*
X186383390Y-103166666D02*
X186526247Y-103166666D01*
X186526247Y-103166666D02*
X186716723Y-103214285D01*
X186716723Y-103214285D02*
X186811961Y-103261904D01*
X186811961Y-103261904D02*
X186907200Y-103357142D01*
X186907200Y-103357142D02*
X186954819Y-103499999D01*
X186954819Y-103499999D02*
X186954819Y-103738094D01*
X186954819Y-102214285D02*
X186954819Y-102785713D01*
X186954819Y-102499999D02*
X185954819Y-102499999D01*
X185954819Y-102499999D02*
X186097676Y-102595237D01*
X186097676Y-102595237D02*
X186192914Y-102690475D01*
X186192914Y-102690475D02*
X186240533Y-102785713D01*
X169679580Y-90306666D02*
X169727200Y-90354285D01*
X169727200Y-90354285D02*
X169774819Y-90497142D01*
X169774819Y-90497142D02*
X169774819Y-90592380D01*
X169774819Y-90592380D02*
X169727200Y-90735237D01*
X169727200Y-90735237D02*
X169631961Y-90830475D01*
X169631961Y-90830475D02*
X169536723Y-90878094D01*
X169536723Y-90878094D02*
X169346247Y-90925713D01*
X169346247Y-90925713D02*
X169203390Y-90925713D01*
X169203390Y-90925713D02*
X169012914Y-90878094D01*
X169012914Y-90878094D02*
X168917676Y-90830475D01*
X168917676Y-90830475D02*
X168822438Y-90735237D01*
X168822438Y-90735237D02*
X168774819Y-90592380D01*
X168774819Y-90592380D02*
X168774819Y-90497142D01*
X168774819Y-90497142D02*
X168822438Y-90354285D01*
X168822438Y-90354285D02*
X168870057Y-90306666D01*
X169108152Y-89449523D02*
X169774819Y-89449523D01*
X168727200Y-89687618D02*
X169441485Y-89925713D01*
X169441485Y-89925713D02*
X169441485Y-89306666D01*
D11*
%TO.C,J4*%
X173530000Y-106120000D02*
X173530000Y-111420000D01*
X173530000Y-107500000D02*
X174530000Y-107500000D01*
X173530000Y-107750000D02*
X174530000Y-107750000D01*
X173530000Y-109790000D02*
X174530000Y-109790000D01*
X173530000Y-111420000D02*
X179550000Y-111420000D01*
X174530000Y-107500000D02*
X174530000Y-110040000D01*
X174530000Y-107500000D02*
X175060000Y-107750000D01*
X174530000Y-110040000D02*
X173530000Y-110040000D01*
X175060000Y-107750000D02*
X175060000Y-109790000D01*
X175060000Y-109790000D02*
X174530000Y-110040000D01*
X178520000Y-105830000D02*
X174520000Y-105830000D01*
X178950000Y-106700000D02*
X178950000Y-108300000D01*
X178950000Y-108300000D02*
X179550000Y-108300000D01*
X178950000Y-109240000D02*
X178950000Y-110840000D01*
X178950000Y-110840000D02*
X179550000Y-110840000D01*
X179550000Y-106120000D02*
X173530000Y-106120000D01*
X179550000Y-106700000D02*
X178950000Y-106700000D01*
X179550000Y-109240000D02*
X178950000Y-109240000D01*
X179550000Y-111420000D02*
X179550000Y-106120000D01*
%TO.C,J2*%
X162040000Y-111750000D02*
X162040000Y-115750000D01*
X162330000Y-110720000D02*
X162330000Y-116740000D01*
X162330000Y-116740000D02*
X167630000Y-116740000D01*
X162910000Y-110720000D02*
X162910000Y-111320000D01*
X162910000Y-111320000D02*
X164510000Y-111320000D01*
X163710000Y-115740000D02*
X163960000Y-115210000D01*
X163710000Y-115740000D02*
X166250000Y-115740000D01*
X163710000Y-116740000D02*
X163710000Y-115740000D01*
X163960000Y-115210000D02*
X166000000Y-115210000D01*
X163960000Y-116740000D02*
X163960000Y-115740000D01*
X164510000Y-111320000D02*
X164510000Y-110720000D01*
X165450000Y-110720000D02*
X165450000Y-111320000D01*
X165450000Y-111320000D02*
X167050000Y-111320000D01*
X166000000Y-115210000D02*
X166250000Y-115740000D01*
X166000000Y-116740000D02*
X166000000Y-115740000D01*
X166250000Y-115740000D02*
X166250000Y-116740000D01*
X167050000Y-111320000D02*
X167050000Y-110720000D01*
X167630000Y-110720000D02*
X162330000Y-110720000D01*
X167630000Y-116740000D02*
X167630000Y-110720000D01*
%TO.C,J3*%
X173510000Y-96120000D02*
X173510000Y-101420000D01*
X173510000Y-97500000D02*
X174510000Y-97500000D01*
X173510000Y-97750000D02*
X174510000Y-97750000D01*
X173510000Y-99790000D02*
X174510000Y-99790000D01*
X173510000Y-101420000D02*
X179530000Y-101420000D01*
X174510000Y-97500000D02*
X174510000Y-100040000D01*
X174510000Y-97500000D02*
X175040000Y-97750000D01*
X174510000Y-100040000D02*
X173510000Y-100040000D01*
X175040000Y-97750000D02*
X175040000Y-99790000D01*
X175040000Y-99790000D02*
X174510000Y-100040000D01*
X178500000Y-95830000D02*
X174500000Y-95830000D01*
X178930000Y-96700000D02*
X178930000Y-98300000D01*
X178930000Y-98300000D02*
X179530000Y-98300000D01*
X178930000Y-99240000D02*
X178930000Y-100840000D01*
X178930000Y-100840000D02*
X179530000Y-100840000D01*
X179530000Y-96120000D02*
X173510000Y-96120000D01*
X179530000Y-96700000D02*
X178930000Y-96700000D01*
X179530000Y-99240000D02*
X178930000Y-99240000D01*
X179530000Y-101420000D02*
X179530000Y-96120000D01*
%TO.C,C8*%
X184390000Y-89101248D02*
X184390000Y-90523752D01*
X187110000Y-89101248D02*
X187110000Y-90523752D01*
%TO.C,C1*%
X151660000Y-89727401D02*
X150429000Y-89727401D01*
X151660000Y-89767401D02*
X150433000Y-89767401D01*
X151660000Y-89807401D02*
X150438000Y-89807401D01*
X151660000Y-89847401D02*
X150444000Y-89847401D01*
X151660000Y-89887401D02*
X150450000Y-89887401D01*
X151660000Y-89927401D02*
X150458000Y-89927401D01*
X151660000Y-89967401D02*
X150466000Y-89967401D01*
X151660000Y-90007401D02*
X150475000Y-90007401D01*
X151660000Y-90047401D02*
X150484000Y-90047401D01*
X151660000Y-90087401D02*
X150495000Y-90087401D01*
X151660000Y-90127401D02*
X150506000Y-90127401D01*
X151660000Y-90167401D02*
X150518000Y-90167401D01*
X151660000Y-90207401D02*
X150532000Y-90207401D01*
X151660000Y-90248401D02*
X150546000Y-90248401D01*
X151660000Y-90288401D02*
X150560000Y-90288401D01*
X151660000Y-90328401D02*
X150576000Y-90328401D01*
X151660000Y-90368401D02*
X150593000Y-90368401D01*
X151660000Y-90408401D02*
X150611000Y-90408401D01*
X151660000Y-90448401D02*
X150630000Y-90448401D01*
X151660000Y-90488401D02*
X150649000Y-90488401D01*
X151660000Y-90528401D02*
X150670000Y-90528401D01*
X151660000Y-90568401D02*
X150692000Y-90568401D01*
X151660000Y-90608401D02*
X150715000Y-90608401D01*
X151660000Y-90648401D02*
X150740000Y-90648401D01*
X151660000Y-90688401D02*
X150765000Y-90688401D01*
X151660000Y-90728401D02*
X150792000Y-90728401D01*
X151660000Y-90768401D02*
X150820000Y-90768401D01*
X151660000Y-90808401D02*
X150850000Y-90808401D01*
X151660000Y-90848401D02*
X150881000Y-90848401D01*
X151660000Y-90888401D02*
X150913000Y-90888401D01*
X151660000Y-90928401D02*
X150948000Y-90928401D01*
X151660000Y-90968401D02*
X150984000Y-90968401D01*
X151660000Y-91008401D02*
X151022000Y-91008401D01*
X151660000Y-91048401D02*
X151062000Y-91048401D01*
X151660000Y-91088401D02*
X151104000Y-91088401D01*
X151660000Y-91128401D02*
X151149000Y-91128401D01*
X151660000Y-91168401D02*
X151196000Y-91168401D01*
X151660000Y-91208401D02*
X151246000Y-91208401D01*
X151660000Y-91248401D02*
X151300000Y-91248401D01*
X151660000Y-91288401D02*
X151358000Y-91288401D01*
X151660000Y-91328401D02*
X151420000Y-91328401D01*
X152870000Y-91608401D02*
X152130000Y-91608401D01*
X153037000Y-91568401D02*
X151963000Y-91568401D01*
X153164000Y-91528401D02*
X151836000Y-91528401D01*
X153268000Y-91488401D02*
X151732000Y-91488401D01*
X153359000Y-91448401D02*
X151641000Y-91448401D01*
X153440000Y-91408401D02*
X151560000Y-91408401D01*
X153513000Y-91368401D02*
X151487000Y-91368401D01*
X153580000Y-91328401D02*
X153340000Y-91328401D01*
X153642000Y-91288401D02*
X153340000Y-91288401D01*
X153695000Y-87257600D02*
X153695000Y-87657600D01*
X153700000Y-91248401D02*
X153340000Y-91248401D01*
X153754000Y-91208401D02*
X153340000Y-91208401D01*
X153804000Y-91168401D02*
X153340000Y-91168401D01*
X153851000Y-91128401D02*
X153340000Y-91128401D01*
X153895000Y-87457600D02*
X153495000Y-87457600D01*
X153896000Y-91088401D02*
X153340000Y-91088401D01*
X153938000Y-91048401D02*
X153340000Y-91048401D01*
X153978000Y-91008401D02*
X153340000Y-91008401D01*
X154016000Y-90968401D02*
X153340000Y-90968401D01*
X154052000Y-90928401D02*
X153340000Y-90928401D01*
X154087000Y-90888401D02*
X153340000Y-90888401D01*
X154119000Y-90848401D02*
X153340000Y-90848401D01*
X154150000Y-90808401D02*
X153340000Y-90808401D01*
X154180000Y-90768401D02*
X153340000Y-90768401D01*
X154208000Y-90728401D02*
X153340000Y-90728401D01*
X154235000Y-90688401D02*
X153340000Y-90688401D01*
X154260000Y-90648401D02*
X153340000Y-90648401D01*
X154285000Y-90608401D02*
X153340000Y-90608401D01*
X154308000Y-90568401D02*
X153340000Y-90568401D01*
X154330000Y-90528401D02*
X153340000Y-90528401D01*
X154351000Y-90488401D02*
X153340000Y-90488401D01*
X154370000Y-90448401D02*
X153340000Y-90448401D01*
X154389000Y-90408401D02*
X153340000Y-90408401D01*
X154407000Y-90368401D02*
X153340000Y-90368401D01*
X154424000Y-90328401D02*
X153340000Y-90328401D01*
X154440000Y-90288401D02*
X153340000Y-90288401D01*
X154454000Y-90248401D02*
X153340000Y-90248401D01*
X154468000Y-90207401D02*
X153340000Y-90207401D01*
X154482000Y-90167401D02*
X153340000Y-90167401D01*
X154494000Y-90127401D02*
X153340000Y-90127401D01*
X154505000Y-90087401D02*
X153340000Y-90087401D01*
X154516000Y-90047401D02*
X153340000Y-90047401D01*
X154525000Y-90007401D02*
X153340000Y-90007401D01*
X154534000Y-89967401D02*
X153340000Y-89967401D01*
X154542000Y-89927401D02*
X153340000Y-89927401D01*
X154550000Y-89887401D02*
X153340000Y-89887401D01*
X154556000Y-89847401D02*
X153340000Y-89847401D01*
X154562000Y-89807401D02*
X153340000Y-89807401D01*
X154567000Y-89767401D02*
X153340000Y-89767401D01*
X154571000Y-89727401D02*
X153340000Y-89727401D01*
X154574000Y-89687401D02*
X150426000Y-89687401D01*
X154577000Y-89647401D02*
X150423000Y-89647401D01*
X154579000Y-89607401D02*
X150421000Y-89607401D01*
X154580000Y-89527401D02*
X150420000Y-89527401D01*
X154580000Y-89567401D02*
X150420000Y-89567401D01*
X154620000Y-89527401D02*
G75*
G02*
X150380000Y-89527401I-2120000J0D01*
G01*
X150380000Y-89527401D02*
G75*
G02*
X154620000Y-89527401I2120000J0D01*
G01*
%TO.C,J1*%
X151470000Y-97080000D02*
X151470000Y-104920000D01*
X151470000Y-99260000D02*
X152070000Y-99260000D01*
X151470000Y-101800000D02*
X152070000Y-101800000D01*
X151470000Y-104340000D02*
X152070000Y-104340000D01*
X151470000Y-104920000D02*
X157490000Y-104920000D01*
X152070000Y-97660000D02*
X151470000Y-97660000D01*
X152070000Y-99260000D02*
X152070000Y-97660000D01*
X152070000Y-100200000D02*
X151470000Y-100200000D01*
X152070000Y-101800000D02*
X152070000Y-100200000D01*
X152070000Y-102740000D02*
X151470000Y-102740000D01*
X152070000Y-104340000D02*
X152070000Y-102740000D01*
X152500000Y-105210000D02*
X156500000Y-105210000D01*
X155960000Y-98710000D02*
X156490000Y-98460000D01*
X155960000Y-103290000D02*
X155960000Y-98710000D01*
X156490000Y-98460000D02*
X157490000Y-98460000D01*
X156490000Y-103540000D02*
X155960000Y-103290000D01*
X156490000Y-103540000D02*
X156490000Y-98460000D01*
X157490000Y-97080000D02*
X151470000Y-97080000D01*
X157490000Y-98710000D02*
X156490000Y-98710000D01*
X157490000Y-103290000D02*
X156490000Y-103290000D01*
X157490000Y-103540000D02*
X156490000Y-103540000D01*
X157490000Y-104920000D02*
X157490000Y-97080000D01*
%TO.C,C2*%
X157340000Y-89351248D02*
X157340000Y-90773752D01*
X159160000Y-89351248D02*
X159160000Y-90773752D01*
%TO.C,C3*%
X161590000Y-89351248D02*
X161590000Y-90773752D01*
X163410000Y-89351248D02*
X163410000Y-90773752D01*
%TO.C,C5*%
X170840000Y-89226248D02*
X170840000Y-90648752D01*
X172660000Y-89226248D02*
X172660000Y-90648752D01*
%TO.C,C9*%
X155590000Y-115023752D02*
X155590000Y-113601248D01*
X157410000Y-115023752D02*
X157410000Y-113601248D01*
%TO.C,F1*%
X170350200Y-114890000D02*
X170149800Y-114890000D01*
X170350200Y-115610000D02*
X170149800Y-115610000D01*
%TO.C,R1*%
X155977500Y-109082776D02*
X155977500Y-109592224D01*
X157022500Y-109082776D02*
X157022500Y-109592224D01*
%TO.C,C7*%
X179390000Y-89101248D02*
X179390000Y-90523752D01*
X182110000Y-89101248D02*
X182110000Y-90523752D01*
%TO.C,C6*%
X175090000Y-89226248D02*
X175090000Y-90648752D01*
X176910000Y-89226248D02*
X176910000Y-90648752D01*
%TO.C,Q1*%
X161550000Y-103895000D02*
X161550000Y-105395000D01*
X161550000Y-105395000D02*
X161820000Y-105395000D01*
X161820000Y-105395000D02*
X161820000Y-108225000D01*
X168180000Y-105395000D02*
X168180000Y-106495000D01*
X168450000Y-103895000D02*
X168450000Y-105395000D01*
X168450000Y-105395000D02*
X168180000Y-105395000D01*
%TO.C,D1*%
X182350000Y-99600000D02*
X182350000Y-105000000D01*
X185650000Y-99600000D02*
X182350000Y-99600000D01*
X185650000Y-99600000D02*
X185650000Y-105000000D01*
%TO.C,C4*%
X166590000Y-89226248D02*
X166590000Y-90648752D01*
X168410000Y-89226248D02*
X168410000Y-90648752D01*
%TD*%
M02*
