%TF.GenerationSoftware,KiCad,Pcbnew,9.0.9*%
%TF.CreationDate,2026-09-21T11:35:48-05:00*%
%TF.ProjectId,hw-horns,68772d68-6f72-46e7-932e-6b696361645f,1.0*%
%TF.SameCoordinates,Original*%
%TF.FileFunction,Copper,L2,Bot*%
%TF.FilePolarity,Positive*%
%FSLAX46Y46*%
G04 Gerber Fmt 4.6, Leading zero omitted, Abs format (unit mm)*
G04 Created by KiCad (PCBNEW 9.0.9) date 2026-09-21 11:35:48*
%MOMM*%
%LPD*%
G01*
G04 APERTURE LIST*
G04 Aperture macros list*
%AMRoundRect*
0 Rectangle with rounded corners*
0 $1 Rounding radius*
0 $2 $3 $4 $5 $6 $7 $8 $9 X,Y pos of 4 corners*
0 Add a 4 corners polygon primitive as box body*
4,1,4,$2,$3,$4,$5,$6,$7,$8,$9,$2,$3,0*
0 Add four circle primitives for the rounded corners*
1,1,$1+$1,$2,$3*
1,1,$1+$1,$4,$5*
1,1,$1+$1,$6,$7*
1,1,$1+$1,$8,$9*
0 Add four rect primitives between the rounded corners*
20,1,$1+$1,$2,$3,$4,$5,0*
20,1,$1+$1,$4,$5,$6,$7,0*
20,1,$1+$1,$6,$7,$8,$9,0*
20,1,$1+$1,$8,$9,$2,$3,0*%
G04 Aperture macros list end*
%TA.AperFunction,ComponentPad*%
%ADD10RoundRect,0.250000X-0.845000X0.620000X-0.845000X-0.620000X0.845000X-0.620000X0.845000X0.620000X0*%
%TD*%
%TA.AperFunction,ComponentPad*%
%ADD11O,2.190000X1.740000*%
%TD*%
%TA.AperFunction,ComponentPad*%
%ADD12RoundRect,0.250000X-0.620000X-0.845000X0.620000X-0.845000X0.620000X0.845000X-0.620000X0.845000X0*%
%TD*%
%TA.AperFunction,ComponentPad*%
%ADD13O,1.740000X2.190000*%
%TD*%
%TA.AperFunction,ComponentPad*%
%ADD14R,1.200000X1.200000*%
%TD*%
%TA.AperFunction,ComponentPad*%
%ADD15C,1.200000*%
%TD*%
%TA.AperFunction,ComponentPad*%
%ADD16RoundRect,0.250000X0.845000X-0.620000X0.845000X0.620000X-0.845000X0.620000X-0.845000X-0.620000X0*%
%TD*%
%TA.AperFunction,ViaPad*%
%ADD17C,0.800000*%
%TD*%
%TA.AperFunction,Conductor*%
%ADD18C,0.250000*%
%TD*%
G04 APERTURE END LIST*
D10*
%TO.P,J4,1,Pin_1*%
%TO.N,Net-(J3-Pin_2)*%
X176520000Y-107500000D03*
D11*
%TO.P,J4,2,Pin_2*%
%TO.N,/Horn In*%
X176520000Y-110040000D03*
%TD*%
D12*
%TO.P,J2,1,Pin_1*%
%TO.N,GND*%
X163710000Y-113750000D03*
D13*
%TO.P,J2,2,Pin_2*%
%TO.N,/Horn Control*%
X166250000Y-113750000D03*
%TD*%
D10*
%TO.P,J3,1,Pin_1*%
%TO.N,+24V*%
X176500000Y-97500000D03*
D11*
%TO.P,J3,2,Pin_2*%
%TO.N,Net-(J3-Pin_2)*%
X176500000Y-100040000D03*
%TD*%
D14*
%TO.P,C1,1*%
%TO.N,+24V*%
X152500000Y-88527401D03*
D15*
%TO.P,C1,2*%
%TO.N,GND*%
X152500000Y-90527401D03*
%TD*%
D16*
%TO.P,J1,1,Pin_1*%
%TO.N,GND*%
X154500000Y-103540000D03*
D11*
%TO.P,J1,2,Pin_2*%
%TO.N,+24V*%
X154500000Y-101000000D03*
%TO.P,J1,3,Pin_3*%
%TO.N,GND*%
X154500000Y-98460000D03*
%TD*%
D17*
%TO.N,GND*%
X167250000Y-109250000D03*
X158500000Y-115750000D03*
%TD*%
D18*
%TO.N,GND*%
X154500000Y-104000000D02*
X154500000Y-103540000D01*
X154500000Y-103540000D02*
X154500000Y-104500000D01*
%TO.N,Net-(J3-Pin_2)*%
X176500000Y-107480000D02*
X176520000Y-107500000D01*
%TD*%
%TA.AperFunction,Conductor*%
%TO.N,GND*%
G36*
X183002107Y-85303872D02*
G01*
X183461308Y-85319559D01*
X183465821Y-85319798D01*
X183567500Y-85327070D01*
X183571250Y-85327397D01*
X183977083Y-85369118D01*
X183981986Y-85369722D01*
X184079104Y-85383686D01*
X184082410Y-85384208D01*
X184488978Y-85454308D01*
X184494210Y-85455327D01*
X184583478Y-85474746D01*
X184586187Y-85475371D01*
X184994355Y-85574839D01*
X184999901Y-85576328D01*
X185077090Y-85598993D01*
X185079665Y-85599779D01*
X185490658Y-85730222D01*
X185496432Y-85732214D01*
X185556918Y-85754774D01*
X185558919Y-85755542D01*
X185975387Y-85919776D01*
X185981370Y-85922320D01*
X186018051Y-85939071D01*
X186019502Y-85939747D01*
X186446132Y-86142643D01*
X186452287Y-86145785D01*
X186453975Y-86146707D01*
X186455298Y-86147440D01*
X186892926Y-86393506D01*
X186900160Y-86397905D01*
X187321284Y-86674120D01*
X187328185Y-86678991D01*
X187729485Y-86983307D01*
X187736029Y-86988631D01*
X188115612Y-87319611D01*
X188121800Y-87325390D01*
X188477910Y-87681500D01*
X188483689Y-87687688D01*
X188814666Y-88067267D01*
X188820003Y-88073827D01*
X189124303Y-88475107D01*
X189129186Y-88482024D01*
X189405395Y-88903140D01*
X189409794Y-88910374D01*
X189655824Y-89347937D01*
X189656573Y-89349290D01*
X189657523Y-89351030D01*
X189660669Y-89357195D01*
X189863465Y-89783614D01*
X189864278Y-89785358D01*
X189880966Y-89821899D01*
X189883527Y-89827921D01*
X190047738Y-90244331D01*
X190048565Y-90246488D01*
X190071080Y-90306854D01*
X190073088Y-90312675D01*
X190203506Y-90723590D01*
X190204293Y-90726167D01*
X190226972Y-90803403D01*
X190228469Y-90808979D01*
X190327886Y-91216939D01*
X190328578Y-91219940D01*
X190347968Y-91309075D01*
X190348999Y-91314364D01*
X190419076Y-91720797D01*
X190419617Y-91724220D01*
X190433575Y-91821307D01*
X190434187Y-91826272D01*
X190475895Y-92231976D01*
X190476229Y-92235811D01*
X190483499Y-92337455D01*
X190483743Y-92342067D01*
X190499428Y-92801193D01*
X190499500Y-92805427D01*
X190499500Y-110694572D01*
X190499428Y-110698806D01*
X190483743Y-111157931D01*
X190483499Y-111162543D01*
X190476229Y-111264187D01*
X190475895Y-111268022D01*
X190434187Y-111673726D01*
X190433575Y-111678691D01*
X190419617Y-111775778D01*
X190419076Y-111779201D01*
X190348999Y-112185634D01*
X190347968Y-112190923D01*
X190328578Y-112280058D01*
X190327886Y-112283059D01*
X190228469Y-112691019D01*
X190226972Y-112696595D01*
X190204293Y-112773831D01*
X190203506Y-112776408D01*
X190073088Y-113187323D01*
X190071080Y-113193144D01*
X190048565Y-113253510D01*
X190047738Y-113255667D01*
X189883527Y-113672077D01*
X189880966Y-113678099D01*
X189864278Y-113714640D01*
X189863465Y-113716384D01*
X189660669Y-114142803D01*
X189657523Y-114148968D01*
X189656573Y-114150708D01*
X189655824Y-114152061D01*
X189409794Y-114589625D01*
X189405395Y-114596859D01*
X189129186Y-115017975D01*
X189124303Y-115024892D01*
X188820003Y-115426172D01*
X188814659Y-115432740D01*
X188483689Y-115812311D01*
X188477910Y-115818499D01*
X188121800Y-116174609D01*
X188115612Y-116180388D01*
X187736041Y-116511358D01*
X187729473Y-116516702D01*
X187328193Y-116821002D01*
X187321276Y-116825885D01*
X186900160Y-117102094D01*
X186892925Y-117106493D01*
X186455297Y-117352558D01*
X186453975Y-117353291D01*
X186452302Y-117354205D01*
X186446107Y-117357367D01*
X186019651Y-117560181D01*
X186017904Y-117560995D01*
X185981391Y-117577669D01*
X185975372Y-117580228D01*
X185558999Y-117744425D01*
X185556842Y-117745253D01*
X185496455Y-117767776D01*
X185490634Y-117769784D01*
X185079667Y-117900218D01*
X185077090Y-117901005D01*
X184999915Y-117923666D01*
X184994339Y-117925163D01*
X184586306Y-118024599D01*
X184583327Y-118025286D01*
X184562080Y-118029908D01*
X184494254Y-118044662D01*
X184488967Y-118045692D01*
X184082462Y-118115781D01*
X184079040Y-118116322D01*
X183982021Y-118130271D01*
X183977055Y-118130883D01*
X183571292Y-118172597D01*
X183567458Y-118172931D01*
X183465872Y-118180197D01*
X183461259Y-118180441D01*
X183002108Y-118196127D01*
X182997874Y-118196199D01*
X152805427Y-118196199D01*
X152801193Y-118196127D01*
X152342067Y-118180442D01*
X152337455Y-118180198D01*
X152235811Y-118172928D01*
X152231976Y-118172594D01*
X151826272Y-118130886D01*
X151821307Y-118130274D01*
X151724220Y-118116316D01*
X151720797Y-118115775D01*
X151314364Y-118045698D01*
X151309075Y-118044667D01*
X151219940Y-118025277D01*
X151216939Y-118024585D01*
X150808988Y-117925171D01*
X150803411Y-117923674D01*
X150726149Y-117900987D01*
X150723573Y-117900200D01*
X150312683Y-117769790D01*
X150306862Y-117767782D01*
X150246464Y-117745255D01*
X150244307Y-117744427D01*
X149827921Y-117580225D01*
X149821899Y-117577665D01*
X149785358Y-117560977D01*
X149783614Y-117560164D01*
X149357195Y-117357368D01*
X149351030Y-117354222D01*
X149349290Y-117353272D01*
X149347937Y-117352523D01*
X148910374Y-117106493D01*
X148903140Y-117102094D01*
X148482024Y-116825885D01*
X148475107Y-116821002D01*
X148073818Y-116516695D01*
X148067267Y-116511365D01*
X147687688Y-116180388D01*
X147681500Y-116174609D01*
X147325390Y-115818499D01*
X147319611Y-115812311D01*
X146988631Y-115432728D01*
X146983307Y-115426184D01*
X146678991Y-115024884D01*
X146674114Y-115017975D01*
X146605998Y-114914124D01*
X146397905Y-114596859D01*
X146393506Y-114589625D01*
X146304660Y-114431613D01*
X146147421Y-114151964D01*
X146146726Y-114150708D01*
X146145776Y-114148968D01*
X146142630Y-114142803D01*
X145939806Y-113716325D01*
X145939022Y-113714642D01*
X145922320Y-113678068D01*
X145919773Y-113672077D01*
X145910139Y-113647648D01*
X149199500Y-113647648D01*
X149199500Y-113852351D01*
X149231522Y-114054534D01*
X149294781Y-114249223D01*
X149387715Y-114431613D01*
X149508028Y-114597213D01*
X149652786Y-114741971D01*
X149801917Y-114850319D01*
X149818390Y-114862287D01*
X149908631Y-114908267D01*
X150000776Y-114955218D01*
X150000778Y-114955218D01*
X150000781Y-114955220D01*
X150105137Y-114989127D01*
X150195465Y-115018477D01*
X150245855Y-115026458D01*
X150397648Y-115050500D01*
X150397649Y-115050500D01*
X150602351Y-115050500D01*
X150602352Y-115050500D01*
X150804534Y-115018477D01*
X150999219Y-114955220D01*
X151181610Y-114862287D01*
X151274590Y-114794732D01*
X151347213Y-114741971D01*
X151347215Y-114741968D01*
X151347219Y-114741966D01*
X151491966Y-114597219D01*
X151491968Y-114597215D01*
X151491971Y-114597213D01*
X151559577Y-114504160D01*
X151612287Y-114431610D01*
X151705220Y-114249219D01*
X151768477Y-114054534D01*
X151788322Y-113929240D01*
X151800500Y-113852351D01*
X151800500Y-113647648D01*
X151768477Y-113445465D01*
X151706815Y-113255691D01*
X151705220Y-113250781D01*
X151705218Y-113250778D01*
X151705218Y-113250776D01*
X151612287Y-113068390D01*
X151507927Y-112924749D01*
X151507926Y-112924748D01*
X151491967Y-112902782D01*
X151444198Y-112855013D01*
X162340000Y-112855013D01*
X162340000Y-113500000D01*
X163167291Y-113500000D01*
X163155548Y-113520339D01*
X163115000Y-113671667D01*
X163115000Y-113828333D01*
X163155548Y-113979661D01*
X163167291Y-114000000D01*
X162340001Y-114000000D01*
X162340001Y-114644986D01*
X162350494Y-114747697D01*
X162405641Y-114914119D01*
X162405643Y-114914124D01*
X162497684Y-115063345D01*
X162621654Y-115187315D01*
X162770875Y-115279356D01*
X162770880Y-115279358D01*
X162937302Y-115334505D01*
X162937309Y-115334506D01*
X163040019Y-115344999D01*
X163459999Y-115344999D01*
X163460000Y-115344998D01*
X163460000Y-114292709D01*
X163480339Y-114304452D01*
X163631667Y-114345000D01*
X163788333Y-114345000D01*
X163939661Y-114304452D01*
X163960000Y-114292709D01*
X163960000Y-115344999D01*
X164379972Y-115344999D01*
X164379986Y-115344998D01*
X164482697Y-115334505D01*
X164649119Y-115279358D01*
X164649124Y-115279356D01*
X164798345Y-115187315D01*
X164922317Y-115063343D01*
X165017968Y-114908267D01*
X165069916Y-114861542D01*
X165138878Y-114850319D01*
X165202960Y-114878162D01*
X165211188Y-114885682D01*
X165351967Y-115026461D01*
X165527508Y-115153999D01*
X165720840Y-115252506D01*
X165927200Y-115319557D01*
X166007566Y-115332285D01*
X166141505Y-115353500D01*
X166141510Y-115353500D01*
X166358495Y-115353500D01*
X166478421Y-115334505D01*
X166572800Y-115319557D01*
X166779160Y-115252506D01*
X166972492Y-115153999D01*
X167148033Y-115026461D01*
X167301461Y-114873033D01*
X167428999Y-114697492D01*
X167527506Y-114504160D01*
X167594557Y-114297800D01*
X167617854Y-114150708D01*
X167628500Y-114083495D01*
X167628500Y-113647648D01*
X183949500Y-113647648D01*
X183949500Y-113852351D01*
X183981522Y-114054534D01*
X184044781Y-114249223D01*
X184137715Y-114431613D01*
X184258028Y-114597213D01*
X184402786Y-114741971D01*
X184551917Y-114850319D01*
X184568390Y-114862287D01*
X184658631Y-114908267D01*
X184750776Y-114955218D01*
X184750778Y-114955218D01*
X184750781Y-114955220D01*
X184855137Y-114989127D01*
X184945465Y-115018477D01*
X184995855Y-115026458D01*
X185147648Y-115050500D01*
X185147649Y-115050500D01*
X185352351Y-115050500D01*
X185352352Y-115050500D01*
X185554534Y-115018477D01*
X185749219Y-114955220D01*
X185931610Y-114862287D01*
X186024590Y-114794732D01*
X186097213Y-114741971D01*
X186097215Y-114741968D01*
X186097219Y-114741966D01*
X186241966Y-114597219D01*
X186241968Y-114597215D01*
X186241971Y-114597213D01*
X186309577Y-114504160D01*
X186362287Y-114431610D01*
X186455220Y-114249219D01*
X186518477Y-114054534D01*
X186550500Y-113852352D01*
X186550500Y-113647648D01*
X186530336Y-113520339D01*
X186518477Y-113445465D01*
X186456815Y-113255691D01*
X186455220Y-113250781D01*
X186455218Y-113250778D01*
X186455218Y-113250776D01*
X186406417Y-113155000D01*
X186362287Y-113068390D01*
X186309575Y-112995837D01*
X186241971Y-112902786D01*
X186097213Y-112758028D01*
X185931613Y-112637715D01*
X185931612Y-112637714D01*
X185931610Y-112637713D01*
X185859451Y-112600946D01*
X185749223Y-112544781D01*
X185554534Y-112481522D01*
X185379995Y-112453878D01*
X185352352Y-112449500D01*
X185147648Y-112449500D01*
X185123329Y-112453351D01*
X184945465Y-112481522D01*
X184750776Y-112544781D01*
X184568386Y-112637715D01*
X184402786Y-112758028D01*
X184258028Y-112902786D01*
X184137715Y-113068386D01*
X184044781Y-113250776D01*
X183981522Y-113445465D01*
X183949500Y-113647648D01*
X167628500Y-113647648D01*
X167628500Y-113416504D01*
X167602703Y-113253633D01*
X167594557Y-113202200D01*
X167527506Y-112995840D01*
X167428999Y-112802508D01*
X167301461Y-112626967D01*
X167148033Y-112473539D01*
X166972492Y-112346001D01*
X166779160Y-112247494D01*
X166572800Y-112180443D01*
X166572798Y-112180442D01*
X166572796Y-112180442D01*
X166358495Y-112146500D01*
X166358490Y-112146500D01*
X166141510Y-112146500D01*
X166141505Y-112146500D01*
X165927203Y-112180442D01*
X165720837Y-112247495D01*
X165527507Y-112346001D01*
X165351968Y-112473538D01*
X165211188Y-112614318D01*
X165149865Y-112647802D01*
X165080173Y-112642818D01*
X165024240Y-112600946D01*
X165017968Y-112591732D01*
X164922317Y-112436656D01*
X164798345Y-112312684D01*
X164649124Y-112220643D01*
X164649119Y-112220641D01*
X164482697Y-112165494D01*
X164482690Y-112165493D01*
X164379986Y-112155000D01*
X163960000Y-112155000D01*
X163960000Y-113207290D01*
X163939661Y-113195548D01*
X163788333Y-113155000D01*
X163631667Y-113155000D01*
X163480339Y-113195548D01*
X163460000Y-113207290D01*
X163460000Y-112155000D01*
X163040028Y-112155000D01*
X163040012Y-112155001D01*
X162937302Y-112165494D01*
X162770880Y-112220641D01*
X162770875Y-112220643D01*
X162621654Y-112312684D01*
X162497684Y-112436654D01*
X162405643Y-112585875D01*
X162405641Y-112585880D01*
X162350494Y-112752302D01*
X162350493Y-112752309D01*
X162340000Y-112855013D01*
X151444198Y-112855013D01*
X151347213Y-112758028D01*
X151181613Y-112637715D01*
X151181612Y-112637714D01*
X151181610Y-112637713D01*
X151109451Y-112600946D01*
X150999223Y-112544781D01*
X150804534Y-112481522D01*
X150629995Y-112453878D01*
X150602352Y-112449500D01*
X150397648Y-112449500D01*
X150373329Y-112453351D01*
X150195465Y-112481522D01*
X150000776Y-112544781D01*
X149818386Y-112637715D01*
X149652786Y-112758028D01*
X149508028Y-112902786D01*
X149387715Y-113068386D01*
X149294781Y-113250776D01*
X149231522Y-113445465D01*
X149199500Y-113647648D01*
X145910139Y-113647648D01*
X145755571Y-113255691D01*
X145754781Y-113253633D01*
X145732204Y-113193102D01*
X145730211Y-113187323D01*
X145599778Y-112776361D01*
X145599030Y-112773913D01*
X145576307Y-112696527D01*
X145574844Y-112691074D01*
X145475400Y-112283006D01*
X145474729Y-112280096D01*
X145455327Y-112190902D01*
X145454306Y-112185666D01*
X145384204Y-111779085D01*
X145383698Y-111775885D01*
X145369720Y-111678665D01*
X145369116Y-111673760D01*
X145327399Y-111267968D01*
X145327074Y-111264243D01*
X145319797Y-111162486D01*
X145319559Y-111157986D01*
X145303873Y-110698806D01*
X145303801Y-110694573D01*
X145303801Y-106829447D01*
X174916500Y-106829447D01*
X174916500Y-108170537D01*
X174916501Y-108170553D01*
X174927113Y-108274427D01*
X174982884Y-108442735D01*
X174982886Y-108442740D01*
X175075971Y-108593653D01*
X175201347Y-108719029D01*
X175201351Y-108719032D01*
X175355555Y-108814147D01*
X175402280Y-108866095D01*
X175413501Y-108935057D01*
X175385658Y-108999139D01*
X175378140Y-109007366D01*
X175243538Y-109141968D01*
X175116001Y-109317507D01*
X175017495Y-109510837D01*
X174950442Y-109717203D01*
X174916500Y-109931504D01*
X174916500Y-110148495D01*
X174950442Y-110362796D01*
X174950443Y-110362800D01*
X175017494Y-110569160D01*
X175116001Y-110762492D01*
X175243539Y-110938033D01*
X175396967Y-111091461D01*
X175572508Y-111218999D01*
X175765840Y-111317506D01*
X175972200Y-111384557D01*
X176052566Y-111397285D01*
X176186505Y-111418500D01*
X176186510Y-111418500D01*
X176853495Y-111418500D01*
X176972551Y-111399642D01*
X177067800Y-111384557D01*
X177274160Y-111317506D01*
X177467492Y-111218999D01*
X177643033Y-111091461D01*
X177796461Y-110938033D01*
X177923999Y-110762492D01*
X178022506Y-110569160D01*
X178089557Y-110362800D01*
X178104642Y-110267551D01*
X178123500Y-110148495D01*
X178123500Y-109931504D01*
X178089557Y-109717203D01*
X178089557Y-109717200D01*
X178022506Y-109510840D01*
X177923999Y-109317508D01*
X177796461Y-109141967D01*
X177661860Y-109007366D01*
X177628375Y-108946043D01*
X177633359Y-108876351D01*
X177675231Y-108820418D01*
X177684444Y-108814146D01*
X177687735Y-108812115D01*
X177687738Y-108812115D01*
X177838652Y-108719030D01*
X177964030Y-108593652D01*
X178057115Y-108442738D01*
X178112887Y-108274426D01*
X178123500Y-108170545D01*
X178123499Y-106829456D01*
X178112887Y-106725574D01*
X178057115Y-106557262D01*
X177964030Y-106406348D01*
X177838652Y-106280970D01*
X177687738Y-106187885D01*
X177687735Y-106187884D01*
X177519427Y-106132113D01*
X177415545Y-106121500D01*
X175624462Y-106121500D01*
X175624446Y-106121501D01*
X175520572Y-106132113D01*
X175352264Y-106187884D01*
X175352259Y-106187886D01*
X175201346Y-106280971D01*
X175075971Y-106406346D01*
X174982886Y-106557259D01*
X174982884Y-106557264D01*
X174927113Y-106725572D01*
X174916500Y-106829447D01*
X145303801Y-106829447D01*
X145303801Y-100891504D01*
X152896500Y-100891504D01*
X152896500Y-101108495D01*
X152930442Y-101322796D01*
X152930443Y-101322800D01*
X152997494Y-101529160D01*
X153096001Y-101722492D01*
X153223539Y-101898033D01*
X153223541Y-101898035D01*
X153364317Y-102038811D01*
X153397802Y-102100134D01*
X153392818Y-102169826D01*
X153350946Y-102225759D01*
X153341733Y-102232031D01*
X153186654Y-102327684D01*
X153062684Y-102451654D01*
X152970643Y-102600875D01*
X152970641Y-102600880D01*
X152915494Y-102767302D01*
X152915493Y-102767309D01*
X152905000Y-102870013D01*
X152905000Y-103290000D01*
X153957291Y-103290000D01*
X153945548Y-103310339D01*
X153905000Y-103461667D01*
X153905000Y-103618333D01*
X153945548Y-103769661D01*
X153957291Y-103790000D01*
X152905001Y-103790000D01*
X152905001Y-104209986D01*
X152915494Y-104312697D01*
X152970641Y-104479119D01*
X152970643Y-104479124D01*
X153062684Y-104628345D01*
X153186654Y-104752315D01*
X153335875Y-104844356D01*
X153335880Y-104844358D01*
X153502302Y-104899505D01*
X153502309Y-104899506D01*
X153605019Y-104909999D01*
X154249999Y-104909999D01*
X154250000Y-104909998D01*
X154250000Y-104082709D01*
X154270339Y-104094452D01*
X154421667Y-104135000D01*
X154578333Y-104135000D01*
X154729661Y-104094452D01*
X154750000Y-104082709D01*
X154750000Y-104909999D01*
X155394972Y-104909999D01*
X155394986Y-104909998D01*
X155497697Y-104899505D01*
X155664119Y-104844358D01*
X155664124Y-104844356D01*
X155813345Y-104752315D01*
X155937315Y-104628345D01*
X156029356Y-104479124D01*
X156029358Y-104479119D01*
X156084505Y-104312697D01*
X156084506Y-104312690D01*
X156094999Y-104209986D01*
X156095000Y-104209973D01*
X156095000Y-103790000D01*
X155042709Y-103790000D01*
X155054452Y-103769661D01*
X155095000Y-103618333D01*
X155095000Y-103461667D01*
X155054452Y-103310339D01*
X155042709Y-103290000D01*
X156094999Y-103290000D01*
X156094999Y-102870028D01*
X156094998Y-102870013D01*
X156084505Y-102767302D01*
X156029358Y-102600880D01*
X156029356Y-102600875D01*
X155937315Y-102451654D01*
X155813345Y-102327684D01*
X155658266Y-102232031D01*
X155611542Y-102180083D01*
X155600319Y-102111120D01*
X155628163Y-102047038D01*
X155635660Y-102038833D01*
X155776461Y-101898033D01*
X155903999Y-101722492D01*
X156002506Y-101529160D01*
X156069557Y-101322800D01*
X156085997Y-101218998D01*
X156103500Y-101108495D01*
X156103500Y-100891504D01*
X156069557Y-100677203D01*
X156069557Y-100677200D01*
X156002506Y-100470840D01*
X155903999Y-100277508D01*
X155776461Y-100101967D01*
X155623033Y-99948539D01*
X155453083Y-99825063D01*
X155410419Y-99769734D01*
X155404440Y-99700121D01*
X155437046Y-99638326D01*
X155453085Y-99624428D01*
X155617491Y-99504979D01*
X155617497Y-99504974D01*
X155769974Y-99352497D01*
X155769974Y-99352496D01*
X155896728Y-99178036D01*
X155994627Y-98985901D01*
X156061266Y-98780809D01*
X156072481Y-98710000D01*
X155042709Y-98710000D01*
X155054452Y-98689661D01*
X155095000Y-98538333D01*
X155095000Y-98381667D01*
X155054452Y-98230339D01*
X155042709Y-98210000D01*
X156072481Y-98210000D01*
X156061266Y-98139190D01*
X155994627Y-97934098D01*
X155896728Y-97741963D01*
X155769974Y-97567503D01*
X155769974Y-97567502D01*
X155617497Y-97415025D01*
X155443036Y-97288271D01*
X155250901Y-97190372D01*
X155045809Y-97123734D01*
X154832820Y-97090000D01*
X154750000Y-97090000D01*
X154750000Y-97917290D01*
X154729661Y-97905548D01*
X154578333Y-97865000D01*
X154421667Y-97865000D01*
X154270339Y-97905548D01*
X154250000Y-97917290D01*
X154250000Y-97090000D01*
X154167180Y-97090000D01*
X153954190Y-97123734D01*
X153749098Y-97190372D01*
X153556963Y-97288271D01*
X153382503Y-97415025D01*
X153382502Y-97415025D01*
X153230025Y-97567502D01*
X153230025Y-97567503D01*
X153103271Y-97741963D01*
X153005372Y-97934098D01*
X152938733Y-98139190D01*
X152927519Y-98210000D01*
X153957291Y-98210000D01*
X153945548Y-98230339D01*
X153905000Y-98381667D01*
X153905000Y-98538333D01*
X153945548Y-98689661D01*
X153957291Y-98710000D01*
X152927519Y-98710000D01*
X152938733Y-98780809D01*
X153005372Y-98985901D01*
X153103271Y-99178036D01*
X153230025Y-99352496D01*
X153230025Y-99352497D01*
X153382502Y-99504974D01*
X153546915Y-99624428D01*
X153589580Y-99679758D01*
X153595559Y-99749372D01*
X153562953Y-99811167D01*
X153546915Y-99825064D01*
X153461523Y-99887104D01*
X153376967Y-99948539D01*
X153376965Y-99948541D01*
X153376964Y-99948541D01*
X153223541Y-100101964D01*
X153223541Y-100101965D01*
X153223539Y-100101967D01*
X153168766Y-100177355D01*
X153096001Y-100277507D01*
X152997495Y-100470837D01*
X152930442Y-100677203D01*
X152896500Y-100891504D01*
X145303801Y-100891504D01*
X145303801Y-96829447D01*
X174896500Y-96829447D01*
X174896500Y-98170537D01*
X174896501Y-98170553D01*
X174907113Y-98274427D01*
X174962884Y-98442735D01*
X174962886Y-98442740D01*
X175055971Y-98593653D01*
X175181347Y-98719029D01*
X175181351Y-98719032D01*
X175335555Y-98814147D01*
X175382280Y-98866095D01*
X175393501Y-98935057D01*
X175365658Y-98999139D01*
X175358140Y-99007366D01*
X175223538Y-99141968D01*
X175096001Y-99317507D01*
X174997495Y-99510837D01*
X174930442Y-99717203D01*
X174896500Y-99931504D01*
X174896500Y-100148495D01*
X174916934Y-100277507D01*
X174930443Y-100362800D01*
X174997494Y-100569160D01*
X175096001Y-100762492D01*
X175223539Y-100938033D01*
X175376967Y-101091461D01*
X175552508Y-101218999D01*
X175745840Y-101317506D01*
X175952200Y-101384557D01*
X176032566Y-101397285D01*
X176166505Y-101418500D01*
X176166510Y-101418500D01*
X176833495Y-101418500D01*
X176952551Y-101399642D01*
X177047800Y-101384557D01*
X177254160Y-101317506D01*
X177447492Y-101218999D01*
X177623033Y-101091461D01*
X177776461Y-100938033D01*
X177903999Y-100762492D01*
X178002506Y-100569160D01*
X178069557Y-100362800D01*
X178084642Y-100267551D01*
X178103500Y-100148495D01*
X178103500Y-99931504D01*
X178069557Y-99717203D01*
X178069557Y-99717200D01*
X178002506Y-99510840D01*
X177903999Y-99317508D01*
X177776461Y-99141967D01*
X177641860Y-99007366D01*
X177608375Y-98946043D01*
X177613359Y-98876351D01*
X177655231Y-98820418D01*
X177664444Y-98814146D01*
X177667735Y-98812115D01*
X177667738Y-98812115D01*
X177818652Y-98719030D01*
X177944030Y-98593652D01*
X178037115Y-98442738D01*
X178092887Y-98274426D01*
X178103500Y-98170545D01*
X178103499Y-96829456D01*
X178092887Y-96725574D01*
X178037115Y-96557262D01*
X177944030Y-96406348D01*
X177818652Y-96280970D01*
X177724898Y-96223142D01*
X177667740Y-96187886D01*
X177667735Y-96187884D01*
X177499427Y-96132113D01*
X177395545Y-96121500D01*
X175604462Y-96121500D01*
X175604446Y-96121501D01*
X175500572Y-96132113D01*
X175332264Y-96187884D01*
X175332259Y-96187886D01*
X175181346Y-96280971D01*
X175055971Y-96406346D01*
X174962886Y-96557259D01*
X174962884Y-96557264D01*
X174907113Y-96725572D01*
X174896500Y-96829447D01*
X145303801Y-96829447D01*
X145303801Y-94397648D01*
X147699500Y-94397648D01*
X147699500Y-94602351D01*
X147731522Y-94804534D01*
X147794781Y-94999223D01*
X147887715Y-95181613D01*
X148008028Y-95347213D01*
X148152786Y-95491971D01*
X148307749Y-95604556D01*
X148318390Y-95612287D01*
X148434607Y-95671503D01*
X148500776Y-95705218D01*
X148500778Y-95705218D01*
X148500781Y-95705220D01*
X148605137Y-95739127D01*
X148695465Y-95768477D01*
X148796557Y-95784488D01*
X148897648Y-95800500D01*
X148897649Y-95800500D01*
X149102351Y-95800500D01*
X149102352Y-95800500D01*
X149304534Y-95768477D01*
X149499219Y-95705220D01*
X149681610Y-95612287D01*
X149837231Y-95499223D01*
X149847213Y-95491971D01*
X149847215Y-95491968D01*
X149847219Y-95491966D01*
X149991966Y-95347219D01*
X149991968Y-95347215D01*
X149991971Y-95347213D01*
X150044732Y-95274590D01*
X150112287Y-95181610D01*
X150205220Y-94999219D01*
X150238222Y-94897648D01*
X185199500Y-94897648D01*
X185199500Y-95102351D01*
X185231522Y-95304534D01*
X185294781Y-95499223D01*
X185387715Y-95681613D01*
X185508028Y-95847213D01*
X185652786Y-95991971D01*
X185807749Y-96104556D01*
X185818390Y-96112287D01*
X185934607Y-96171503D01*
X186000776Y-96205218D01*
X186000778Y-96205218D01*
X186000781Y-96205220D01*
X186105137Y-96239127D01*
X186195465Y-96268477D01*
X186274342Y-96280970D01*
X186397648Y-96300500D01*
X186397649Y-96300500D01*
X186602351Y-96300500D01*
X186602352Y-96300500D01*
X186804534Y-96268477D01*
X186999219Y-96205220D01*
X187181610Y-96112287D01*
X187274590Y-96044732D01*
X187347213Y-95991971D01*
X187347215Y-95991968D01*
X187347219Y-95991966D01*
X187491966Y-95847219D01*
X187491968Y-95847215D01*
X187491971Y-95847213D01*
X187595133Y-95705220D01*
X187612287Y-95681610D01*
X187705220Y-95499219D01*
X187768477Y-95304534D01*
X187800500Y-95102352D01*
X187800500Y-94897648D01*
X187768477Y-94695466D01*
X187705220Y-94500781D01*
X187705218Y-94500778D01*
X187705218Y-94500776D01*
X187652671Y-94397648D01*
X187612287Y-94318390D01*
X187604556Y-94307749D01*
X187491971Y-94152786D01*
X187347213Y-94008028D01*
X187181613Y-93887715D01*
X187181612Y-93887714D01*
X187181610Y-93887713D01*
X187124653Y-93858691D01*
X186999223Y-93794781D01*
X186804534Y-93731522D01*
X186629995Y-93703878D01*
X186602352Y-93699500D01*
X186397648Y-93699500D01*
X186373329Y-93703351D01*
X186195465Y-93731522D01*
X186000776Y-93794781D01*
X185818386Y-93887715D01*
X185652786Y-94008028D01*
X185508028Y-94152786D01*
X185387715Y-94318386D01*
X185294781Y-94500776D01*
X185231522Y-94695465D01*
X185199500Y-94897648D01*
X150238222Y-94897648D01*
X150268477Y-94804534D01*
X150300500Y-94602352D01*
X150300500Y-94397648D01*
X150268477Y-94195466D01*
X150254609Y-94152786D01*
X150239127Y-94105137D01*
X150205220Y-94000781D01*
X150205218Y-94000778D01*
X150205218Y-94000776D01*
X150147610Y-93887715D01*
X150112287Y-93818390D01*
X150095134Y-93794781D01*
X149991971Y-93652786D01*
X149847213Y-93508028D01*
X149681613Y-93387715D01*
X149681612Y-93387714D01*
X149681610Y-93387713D01*
X149624653Y-93358691D01*
X149499223Y-93294781D01*
X149304534Y-93231522D01*
X149129995Y-93203878D01*
X149102352Y-93199500D01*
X148897648Y-93199500D01*
X148873329Y-93203351D01*
X148695465Y-93231522D01*
X148500776Y-93294781D01*
X148318386Y-93387715D01*
X148152786Y-93508028D01*
X148008028Y-93652786D01*
X147887715Y-93818386D01*
X147794781Y-94000776D01*
X147731522Y-94195465D01*
X147699500Y-94397648D01*
X145303801Y-94397648D01*
X145303801Y-92805426D01*
X145303873Y-92801193D01*
X145319558Y-92342038D01*
X145319795Y-92337543D01*
X145327076Y-92235741D01*
X145327404Y-92231976D01*
X145369114Y-91826256D01*
X145369717Y-91821366D01*
X145383702Y-91724099D01*
X145384214Y-91720858D01*
X145428554Y-91463690D01*
X151917261Y-91463690D01*
X151917262Y-91463691D01*
X151923471Y-91468202D01*
X152077742Y-91546809D01*
X152242415Y-91600315D01*
X152413429Y-91627401D01*
X152586571Y-91627401D01*
X152757584Y-91600315D01*
X152922257Y-91546809D01*
X153076525Y-91468204D01*
X153082736Y-91463690D01*
X153082737Y-91463690D01*
X152500001Y-90880954D01*
X152500000Y-90880954D01*
X151917261Y-91463690D01*
X145428554Y-91463690D01*
X145454307Y-91314328D01*
X145455317Y-91309145D01*
X145474751Y-91219809D01*
X145475396Y-91217011D01*
X145574840Y-90808939D01*
X145576301Y-90803498D01*
X145599058Y-90725994D01*
X145599794Y-90723590D01*
X145689537Y-90440829D01*
X151400000Y-90440829D01*
X151400000Y-90613972D01*
X151427085Y-90784985D01*
X151480592Y-90949660D01*
X151559196Y-91103926D01*
X151563709Y-91110137D01*
X151563709Y-91110138D01*
X152146446Y-90527402D01*
X152146446Y-90527400D01*
X152106951Y-90487905D01*
X152200000Y-90487905D01*
X152200000Y-90566897D01*
X152220444Y-90643197D01*
X152259940Y-90711606D01*
X152315795Y-90767461D01*
X152384204Y-90806957D01*
X152460504Y-90827401D01*
X152539496Y-90827401D01*
X152615796Y-90806957D01*
X152684205Y-90767461D01*
X152740060Y-90711606D01*
X152779556Y-90643197D01*
X152800000Y-90566897D01*
X152800000Y-90527400D01*
X152853553Y-90527400D01*
X152853553Y-90527401D01*
X153436289Y-91110137D01*
X153440803Y-91103926D01*
X153519408Y-90949658D01*
X153572914Y-90784985D01*
X153600000Y-90613972D01*
X153600000Y-90440829D01*
X153572914Y-90269816D01*
X153519408Y-90105143D01*
X153440801Y-89950872D01*
X153436290Y-89944663D01*
X153436289Y-89944662D01*
X152853553Y-90527400D01*
X152800000Y-90527400D01*
X152800000Y-90487905D01*
X152779556Y-90411605D01*
X152740060Y-90343196D01*
X152684205Y-90287341D01*
X152615796Y-90247845D01*
X152539496Y-90227401D01*
X152460504Y-90227401D01*
X152384204Y-90247845D01*
X152315795Y-90287341D01*
X152259940Y-90343196D01*
X152220444Y-90411605D01*
X152200000Y-90487905D01*
X152106951Y-90487905D01*
X151563709Y-89944662D01*
X151563708Y-89944662D01*
X151559203Y-89950864D01*
X151559193Y-89950881D01*
X151480592Y-90105141D01*
X151427085Y-90269816D01*
X151400000Y-90440829D01*
X145689537Y-90440829D01*
X145730225Y-90312632D01*
X145732185Y-90306950D01*
X145754845Y-90246196D01*
X145755562Y-90244331D01*
X145919786Y-89827887D01*
X145922292Y-89821992D01*
X145939103Y-89785183D01*
X145939796Y-89783696D01*
X146142641Y-89357172D01*
X146145749Y-89351083D01*
X146146863Y-89349043D01*
X146147405Y-89348064D01*
X146393513Y-88910362D01*
X146397898Y-88903151D01*
X146674129Y-88482002D01*
X146678981Y-88475128D01*
X146983318Y-88073800D01*
X146988619Y-88067285D01*
X147153017Y-87878746D01*
X151391500Y-87878746D01*
X151391500Y-89176055D01*
X151398011Y-89236603D01*
X151398011Y-89236605D01*
X151441442Y-89353043D01*
X151449111Y-89373605D01*
X151536739Y-89490662D01*
X151653796Y-89578290D01*
X151790799Y-89629390D01*
X151818050Y-89632319D01*
X151851345Y-89635900D01*
X151851362Y-89635901D01*
X151910691Y-89635901D01*
X151977730Y-89655586D01*
X151998372Y-89672220D01*
X152500000Y-90173847D01*
X153001628Y-89672220D01*
X153062951Y-89638735D01*
X153089309Y-89635901D01*
X153148638Y-89635901D01*
X153148654Y-89635900D01*
X153175692Y-89632992D01*
X153209201Y-89629390D01*
X153346204Y-89578290D01*
X153463261Y-89490662D01*
X153550889Y-89373605D01*
X153601989Y-89236602D01*
X153605591Y-89203093D01*
X153608499Y-89176055D01*
X153608500Y-89176038D01*
X153608500Y-87878763D01*
X153608499Y-87878746D01*
X153605157Y-87847671D01*
X153601989Y-87818200D01*
X153550889Y-87681197D01*
X153463261Y-87564140D01*
X153346204Y-87476512D01*
X153209203Y-87425412D01*
X153148654Y-87418901D01*
X153148638Y-87418901D01*
X151851362Y-87418901D01*
X151851345Y-87418901D01*
X151790797Y-87425412D01*
X151790795Y-87425412D01*
X151653795Y-87476512D01*
X151536739Y-87564140D01*
X151449111Y-87681196D01*
X151398011Y-87818196D01*
X151398011Y-87818198D01*
X151391500Y-87878746D01*
X147153017Y-87878746D01*
X147319625Y-87687672D01*
X147325375Y-87681515D01*
X147681515Y-87325375D01*
X147687672Y-87319625D01*
X148067285Y-86988619D01*
X148073800Y-86983318D01*
X148475128Y-86678981D01*
X148482002Y-86674129D01*
X148903151Y-86397898D01*
X148910362Y-86393513D01*
X149348064Y-86147405D01*
X149349043Y-86146863D01*
X149351083Y-86145749D01*
X149357172Y-86142641D01*
X149783696Y-85939796D01*
X149785183Y-85939103D01*
X149821992Y-85922292D01*
X149827887Y-85919786D01*
X150244404Y-85755533D01*
X150246196Y-85754845D01*
X150306949Y-85732185D01*
X150312644Y-85730221D01*
X150723634Y-85599780D01*
X150725994Y-85599058D01*
X150803498Y-85576301D01*
X150808939Y-85574840D01*
X151217011Y-85475396D01*
X151219809Y-85474751D01*
X151309145Y-85455317D01*
X151314335Y-85454306D01*
X151720858Y-85384214D01*
X151724099Y-85383702D01*
X151821366Y-85369717D01*
X151826256Y-85369114D01*
X152231976Y-85327404D01*
X152235741Y-85327076D01*
X152337541Y-85319796D01*
X152342047Y-85319557D01*
X152792468Y-85304170D01*
X152801164Y-85303873D01*
X152805397Y-85303801D01*
X182997875Y-85303801D01*
X183002107Y-85303872D01*
G37*
%TD.AperFunction*%
%TD*%
M02*
