%TF.GenerationSoftware,KiCad,Pcbnew,9.0.9*%
%TF.CreationDate,2026-09-18T17:53:02-05:00*%
%TF.ProjectId,hw-horns,68772d68-6f72-46e7-932e-6b696361645f,1.0*%
%TF.SameCoordinates,Original*%
%TF.FileFunction,Copper,L1,Top*%
%TF.FilePolarity,Positive*%
%FSLAX46Y46*%
G04 Gerber Fmt 4.6, Leading zero omitted, Abs format (unit mm)*
G04 Created by KiCad (PCBNEW 9.0.9) date 2026-09-18 17:53:02*
%MOMM*%
%LPD*%
G01*
G04 APERTURE LIST*
G04 Aperture macros list*
%AMRoundRect*
0 Rectangle with rounded corners*
0 $1 Rounding radius*
0 $2 $3 $4 $5 $6 $7 $8 $9 X,Y pos of 4 corners*
0 Add a 4 corners polygon primitive as box body*
4,1,4,$2,$3,$4,$5,$6,$7,$8,$9,$2,$3,0*
0 Add four circle primitives for the rounded corners*
1,1,$1+$1,$2,$3*
1,1,$1+$1,$4,$5*
1,1,$1+$1,$6,$7*
1,1,$1+$1,$8,$9*
0 Add four rect primitives between the rounded corners*
20,1,$1+$1,$2,$3,$4,$5,0*
20,1,$1+$1,$4,$5,$6,$7,0*
20,1,$1+$1,$6,$7,$8,$9,0*
20,1,$1+$1,$8,$9,$2,$3,0*%
G04 Aperture macros list end*
%TA.AperFunction,ComponentPad*%
%ADD10RoundRect,0.250000X-0.845000X0.620000X-0.845000X-0.620000X0.845000X-0.620000X0.845000X0.620000X0*%
%TD*%
%TA.AperFunction,ComponentPad*%
%ADD11O,2.190000X1.740000*%
%TD*%
%TA.AperFunction,ComponentPad*%
%ADD12RoundRect,0.250000X-0.620000X-0.845000X0.620000X-0.845000X0.620000X0.845000X-0.620000X0.845000X0*%
%TD*%
%TA.AperFunction,ComponentPad*%
%ADD13O,1.740000X2.190000*%
%TD*%
%TA.AperFunction,SMDPad,CuDef*%
%ADD14RoundRect,0.250000X-1.100000X0.412500X-1.100000X-0.412500X1.100000X-0.412500X1.100000X0.412500X0*%
%TD*%
%TA.AperFunction,ComponentPad*%
%ADD15R,1.200000X1.200000*%
%TD*%
%TA.AperFunction,ComponentPad*%
%ADD16C,1.200000*%
%TD*%
%TA.AperFunction,ComponentPad*%
%ADD17RoundRect,0.250000X0.845000X-0.620000X0.845000X0.620000X-0.845000X0.620000X-0.845000X-0.620000X0*%
%TD*%
%TA.AperFunction,SMDPad,CuDef*%
%ADD18RoundRect,0.250000X-0.650000X0.412500X-0.650000X-0.412500X0.650000X-0.412500X0.650000X0.412500X0*%
%TD*%
%TA.AperFunction,SMDPad,CuDef*%
%ADD19RoundRect,0.250000X0.650000X-0.412500X0.650000X0.412500X-0.650000X0.412500X-0.650000X-0.412500X0*%
%TD*%
%TA.AperFunction,SMDPad,CuDef*%
%ADD20RoundRect,0.160000X0.222500X0.160000X-0.222500X0.160000X-0.222500X-0.160000X0.222500X-0.160000X0*%
%TD*%
%TA.AperFunction,SMDPad,CuDef*%
%ADD21RoundRect,0.237500X-0.237500X0.250000X-0.237500X-0.250000X0.237500X-0.250000X0.237500X0.250000X0*%
%TD*%
%TA.AperFunction,SMDPad,CuDef*%
%ADD22R,1.200000X2.200000*%
%TD*%
%TA.AperFunction,SMDPad,CuDef*%
%ADD23R,5.800000X6.400000*%
%TD*%
%TA.AperFunction,SMDPad,CuDef*%
%ADD24R,1.800000X2.500000*%
%TD*%
%TA.AperFunction,ViaPad*%
%ADD25C,0.800000*%
%TD*%
%TA.AperFunction,Conductor*%
%ADD26C,0.250000*%
%TD*%
G04 APERTURE END LIST*
D10*
%TO.P,J4,1,Pin_1*%
%TO.N,Net-(J3-Pin_2)*%
X176520000Y-107500000D03*
D11*
%TO.P,J4,2,Pin_2*%
%TO.N,/Horn In*%
X176520000Y-110040000D03*
%TD*%
D12*
%TO.P,J2,1,Pin_1*%
%TO.N,GND*%
X163710000Y-113750000D03*
D13*
%TO.P,J2,2,Pin_2*%
%TO.N,/Horn Control*%
X166250000Y-113750000D03*
%TD*%
D10*
%TO.P,J3,1,Pin_1*%
%TO.N,+24V*%
X176500000Y-97500000D03*
D11*
%TO.P,J3,2,Pin_2*%
%TO.N,Net-(J3-Pin_2)*%
X176500000Y-100040000D03*
%TD*%
D14*
%TO.P,C8,1*%
%TO.N,+24V*%
X185750000Y-88250000D03*
%TO.P,C8,2*%
%TO.N,GND*%
X185750000Y-91375000D03*
%TD*%
D15*
%TO.P,C1,1*%
%TO.N,+24V*%
X152500000Y-89027401D03*
D16*
%TO.P,C1,2*%
%TO.N,GND*%
X152500000Y-91027401D03*
%TD*%
D17*
%TO.P,J1,1,Pin_1*%
%TO.N,GND*%
X154500000Y-103540000D03*
D11*
%TO.P,J1,2,Pin_2*%
%TO.N,+24V*%
X154500000Y-101000000D03*
%TO.P,J1,3,Pin_3*%
%TO.N,GND*%
X154500000Y-98460000D03*
%TD*%
D18*
%TO.P,C2,1*%
%TO.N,+24V*%
X158250000Y-88500000D03*
%TO.P,C2,2*%
%TO.N,GND*%
X158250000Y-91625000D03*
%TD*%
%TO.P,C3,1*%
%TO.N,+24V*%
X162500000Y-88500000D03*
%TO.P,C3,2*%
%TO.N,GND*%
X162500000Y-91625000D03*
%TD*%
%TO.P,C5,1*%
%TO.N,+24V*%
X171750000Y-88375000D03*
%TO.P,C5,2*%
%TO.N,GND*%
X171750000Y-91500000D03*
%TD*%
D19*
%TO.P,C9,1*%
%TO.N,/Horn Control*%
X156500000Y-115875000D03*
%TO.P,C9,2*%
%TO.N,GND*%
X156500000Y-112750000D03*
%TD*%
D20*
%TO.P,F1,1*%
%TO.N,/Horn In*%
X170822500Y-115250000D03*
%TO.P,F1,2*%
%TO.N,Net-(Q1-D)*%
X169677500Y-115250000D03*
%TD*%
D21*
%TO.P,R1,1*%
%TO.N,/Horn Control*%
X156500000Y-108425000D03*
%TO.P,R1,2*%
%TO.N,GND*%
X156500000Y-110250000D03*
%TD*%
D14*
%TO.P,C7,1*%
%TO.N,+24V*%
X180750000Y-88250000D03*
%TO.P,C7,2*%
%TO.N,GND*%
X180750000Y-91375000D03*
%TD*%
D18*
%TO.P,C6,1*%
%TO.N,+24V*%
X176000000Y-88375000D03*
%TO.P,C6,2*%
%TO.N,GND*%
X176000000Y-91500000D03*
%TD*%
D22*
%TO.P,Q1,1,G*%
%TO.N,/Horn Control*%
X162720000Y-107125000D03*
%TO.P,Q1,2,D*%
%TO.N,Net-(Q1-D)*%
X165000000Y-107125000D03*
D23*
X165000000Y-100825000D03*
D22*
%TO.P,Q1,3,S*%
%TO.N,GND*%
X167280000Y-107125000D03*
%TD*%
D24*
%TO.P,D1,1,K*%
%TO.N,+24V*%
X184000000Y-101000000D03*
%TO.P,D1,2,A*%
%TO.N,/Horn In*%
X184000000Y-105000000D03*
%TD*%
D18*
%TO.P,C4,1*%
%TO.N,+24V*%
X167500000Y-88375000D03*
%TO.P,C4,2*%
%TO.N,GND*%
X167500000Y-91500000D03*
%TD*%
D25*
%TO.N,GND*%
X160500000Y-110000000D03*
X154500000Y-94000000D03*
%TD*%
D26*
%TO.N,Net-(Q1-D)*%
X166425000Y-102250000D02*
X165000000Y-100825000D01*
X166425000Y-105700000D02*
X166425000Y-102250000D01*
%TO.N,+24V*%
X162500000Y-88625000D02*
X163375000Y-88625000D01*
X176500000Y-97500000D02*
X180500000Y-97500000D01*
X158250000Y-88500000D02*
X162500000Y-88500000D01*
X162500000Y-88500000D02*
X167375000Y-88500000D01*
X180750000Y-88250000D02*
X185750000Y-88250000D01*
X176000000Y-88375000D02*
X176375000Y-88375000D01*
X167500000Y-88375000D02*
X171750000Y-88375000D01*
X176375000Y-88375000D02*
X176500000Y-88250000D01*
X167375000Y-88500000D02*
X167500000Y-88375000D01*
X163375000Y-88625000D02*
X163562500Y-88437500D01*
X171750000Y-88375000D02*
X176000000Y-88375000D01*
X180500000Y-97500000D02*
X184000000Y-101000000D01*
X154722599Y-89027401D02*
X155250000Y-88500000D01*
X155250000Y-88500000D02*
X158250000Y-88500000D01*
X176500000Y-88250000D02*
X180750000Y-88250000D01*
X171687500Y-88437500D02*
X171750000Y-88375000D01*
X152500000Y-89027401D02*
X154722599Y-89027401D01*
%TO.N,GND*%
X154500000Y-94000000D02*
X154500000Y-93027401D01*
X157652401Y-91027401D02*
X158250000Y-91625000D01*
X162500000Y-91625000D02*
X167375000Y-91625000D01*
X160500000Y-110500000D02*
X160500000Y-110540000D01*
X152500000Y-91027401D02*
X157652401Y-91027401D01*
X160500000Y-110000000D02*
X160500000Y-110500000D01*
X156500000Y-112750000D02*
X157250000Y-112750000D01*
X160500000Y-110540000D02*
X163710000Y-113750000D01*
X156500000Y-110250000D02*
X156500000Y-112750000D01*
X163710000Y-113750000D02*
X163710000Y-110695000D01*
X163710000Y-110695000D02*
X167280000Y-107125000D01*
X171750000Y-91500000D02*
X176000000Y-91500000D01*
X176000000Y-91500000D02*
X180625000Y-91500000D01*
X157250000Y-112750000D02*
X158250000Y-113750000D01*
X154500000Y-93027401D02*
X152500000Y-91027401D01*
X180625000Y-91500000D02*
X180750000Y-91375000D01*
X171687500Y-91562500D02*
X171750000Y-91500000D01*
X167375000Y-91625000D02*
X167500000Y-91500000D01*
X163250000Y-91750000D02*
X163437500Y-91562500D01*
X162500000Y-91750000D02*
X163250000Y-91750000D01*
X180750000Y-91375000D02*
X185750000Y-91375000D01*
X167500000Y-91500000D02*
X171750000Y-91500000D01*
X158250000Y-91625000D02*
X162500000Y-91625000D01*
X158250000Y-113750000D02*
X163710000Y-113750000D01*
%TO.N,/Horn Control*%
X155575000Y-108425000D02*
X154500000Y-109500000D01*
X154875000Y-115875000D02*
X156500000Y-115875000D01*
X156575000Y-108425000D02*
X157875000Y-107125000D01*
X156500000Y-108425000D02*
X155575000Y-108425000D01*
X156500000Y-108425000D02*
X156575000Y-108425000D01*
X154500000Y-109500000D02*
X154500000Y-115500000D01*
X164125000Y-115875000D02*
X166250000Y-113750000D01*
X157875000Y-107125000D02*
X162720000Y-107125000D01*
X156500000Y-115875000D02*
X164125000Y-115875000D01*
X154500000Y-115500000D02*
X154875000Y-115875000D01*
%TO.N,/Horn In*%
X184000000Y-108000000D02*
X181960000Y-110040000D01*
X176032500Y-110040000D02*
X170822500Y-115250000D01*
X184000000Y-105000000D02*
X184000000Y-108000000D01*
X181960000Y-110040000D02*
X176520000Y-110040000D01*
X176520000Y-110040000D02*
X176032500Y-110040000D01*
%TO.N,Net-(Q1-D)*%
X168205000Y-105700000D02*
X169677500Y-107172500D01*
X169677500Y-107172500D02*
X169677500Y-115250000D01*
X164525000Y-107125000D02*
X164525000Y-108025000D01*
X166425000Y-105700000D02*
X168205000Y-105700000D01*
X165000000Y-107125000D02*
X166425000Y-105700000D01*
%TD*%
%TA.AperFunction,Conductor*%
%TO.N,+24V*%
G36*
X183002107Y-85303872D02*
G01*
X183461287Y-85319559D01*
X183465787Y-85319797D01*
X183567544Y-85327074D01*
X183571269Y-85327399D01*
X183977061Y-85369116D01*
X183981966Y-85369720D01*
X184079186Y-85383698D01*
X184082386Y-85384204D01*
X184488967Y-85454306D01*
X184494203Y-85455327D01*
X184583397Y-85474729D01*
X184586307Y-85475400D01*
X184994375Y-85574844D01*
X184999828Y-85576307D01*
X185077214Y-85599030D01*
X185079662Y-85599778D01*
X185490645Y-85730218D01*
X185496387Y-85732198D01*
X185556951Y-85754787D01*
X185559027Y-85755585D01*
X185975372Y-85919771D01*
X185981376Y-85922323D01*
X186018098Y-85939094D01*
X186019566Y-85939778D01*
X186446099Y-86142628D01*
X186452242Y-86145762D01*
X186454008Y-86146726D01*
X186455294Y-86147437D01*
X186871170Y-86381273D01*
X186892926Y-86393506D01*
X186900160Y-86397905D01*
X187321284Y-86674120D01*
X187328185Y-86678991D01*
X187729485Y-86983307D01*
X187736029Y-86988631D01*
X188115612Y-87319611D01*
X188121800Y-87325390D01*
X188477910Y-87681500D01*
X188483689Y-87687688D01*
X188814666Y-88067267D01*
X188819996Y-88073818D01*
X189006703Y-88320028D01*
X189124303Y-88475107D01*
X189129186Y-88482024D01*
X189405395Y-88903140D01*
X189409794Y-88910374D01*
X189655807Y-89347907D01*
X189656568Y-89349282D01*
X189657541Y-89351065D01*
X189660675Y-89357208D01*
X189863440Y-89783562D01*
X189864252Y-89785304D01*
X189880979Y-89821929D01*
X189883527Y-89827920D01*
X190044011Y-90234878D01*
X190047697Y-90244225D01*
X190048523Y-90246380D01*
X190071086Y-90306872D01*
X190073095Y-90312695D01*
X190203497Y-90723561D01*
X190204284Y-90726138D01*
X190226976Y-90803419D01*
X190228473Y-90808995D01*
X190327877Y-91216901D01*
X190328569Y-91219902D01*
X190347972Y-91309097D01*
X190349003Y-91314386D01*
X190419070Y-91720766D01*
X190419611Y-91724189D01*
X190433577Y-91821328D01*
X190434189Y-91826293D01*
X190475891Y-92231942D01*
X190476225Y-92235776D01*
X190483500Y-92337483D01*
X190483744Y-92342096D01*
X190499428Y-92801193D01*
X190499500Y-92805427D01*
X190499500Y-110694572D01*
X190499428Y-110698806D01*
X190483793Y-111156464D01*
X190483549Y-111161076D01*
X190476049Y-111265935D01*
X190475715Y-111269770D01*
X190434324Y-111672391D01*
X190433712Y-111677357D01*
X190419286Y-111777693D01*
X190418745Y-111781115D01*
X190349212Y-112184396D01*
X190348181Y-112189684D01*
X190328056Y-112282200D01*
X190327364Y-112285202D01*
X190228748Y-112689871D01*
X190227252Y-112695445D01*
X190203531Y-112776235D01*
X190202743Y-112778814D01*
X190073424Y-113186265D01*
X190071416Y-113192087D01*
X190047458Y-113256320D01*
X190046631Y-113258476D01*
X189883920Y-113671084D01*
X189881358Y-113677108D01*
X189862747Y-113717858D01*
X189861935Y-113719600D01*
X189661090Y-114141919D01*
X189657938Y-114148095D01*
X189654426Y-114154526D01*
X189653683Y-114155868D01*
X189409794Y-114589625D01*
X189405395Y-114596859D01*
X189129186Y-115017975D01*
X189124303Y-115024892D01*
X188820003Y-115426172D01*
X188814659Y-115432740D01*
X188483689Y-115812311D01*
X188477910Y-115818499D01*
X188121800Y-116174609D01*
X188115612Y-116180388D01*
X187736041Y-116511358D01*
X187729473Y-116516702D01*
X187328193Y-116821002D01*
X187321276Y-116825885D01*
X186900155Y-117102098D01*
X186892920Y-117106497D01*
X186459218Y-117350354D01*
X186457876Y-117351098D01*
X186451388Y-117354641D01*
X186445213Y-117357792D01*
X186022901Y-117558634D01*
X186021157Y-117559447D01*
X185980407Y-117578057D01*
X185974385Y-117580617D01*
X185561736Y-117743345D01*
X185559580Y-117744173D01*
X185495403Y-117768110D01*
X185489581Y-117770118D01*
X185082097Y-117899447D01*
X185079521Y-117900234D01*
X184998757Y-117923949D01*
X184993180Y-117925446D01*
X184588481Y-118024068D01*
X184585480Y-118024760D01*
X184492999Y-118044878D01*
X184487710Y-118045909D01*
X184084391Y-118115449D01*
X184080968Y-118115990D01*
X183980674Y-118130409D01*
X183975709Y-118131021D01*
X183573041Y-118172417D01*
X183569206Y-118172751D01*
X183464402Y-118180247D01*
X183459790Y-118180491D01*
X183002108Y-118196127D01*
X182997874Y-118196199D01*
X152805427Y-118196199D01*
X152801193Y-118196127D01*
X152342067Y-118180442D01*
X152337455Y-118180198D01*
X152235811Y-118172928D01*
X152231976Y-118172594D01*
X151826272Y-118130886D01*
X151821307Y-118130274D01*
X151724220Y-118116316D01*
X151720797Y-118115775D01*
X151314364Y-118045698D01*
X151309075Y-118044667D01*
X151219940Y-118025277D01*
X151216939Y-118024585D01*
X150841418Y-117933073D01*
X150808985Y-117925170D01*
X150803411Y-117923674D01*
X150726149Y-117900987D01*
X150723573Y-117900200D01*
X150312683Y-117769790D01*
X150306862Y-117767782D01*
X150246464Y-117745255D01*
X150244307Y-117744427D01*
X149827921Y-117580225D01*
X149821899Y-117577665D01*
X149785358Y-117560977D01*
X149783614Y-117560164D01*
X149357195Y-117357368D01*
X149351030Y-117354222D01*
X149349290Y-117353272D01*
X149347937Y-117352523D01*
X148910374Y-117106493D01*
X148903140Y-117102094D01*
X148482024Y-116825885D01*
X148475107Y-116821002D01*
X148396183Y-116761152D01*
X148073818Y-116516695D01*
X148067267Y-116511365D01*
X147687688Y-116180388D01*
X147681500Y-116174609D01*
X147325390Y-115818499D01*
X147319611Y-115812311D01*
X147209801Y-115686376D01*
X146988631Y-115432728D01*
X146983307Y-115426184D01*
X146678991Y-115024884D01*
X146674114Y-115017975D01*
X146655008Y-114988846D01*
X146397905Y-114596859D01*
X146393506Y-114589625D01*
X146376794Y-114559903D01*
X146147421Y-114151964D01*
X146146726Y-114150708D01*
X146145776Y-114148968D01*
X146142630Y-114142803D01*
X146142210Y-114141919D01*
X145939806Y-113716325D01*
X145939022Y-113714642D01*
X145934733Y-113705250D01*
X145922320Y-113678068D01*
X145919773Y-113672077D01*
X145910139Y-113647648D01*
X149199500Y-113647648D01*
X149199500Y-113852352D01*
X149200411Y-113858106D01*
X149231522Y-114054534D01*
X149294781Y-114249223D01*
X149350795Y-114359154D01*
X149387334Y-114430867D01*
X149387715Y-114431613D01*
X149508028Y-114597213D01*
X149652786Y-114741971D01*
X149751413Y-114813626D01*
X149818390Y-114862287D01*
X149934607Y-114921503D01*
X150000776Y-114955218D01*
X150000778Y-114955218D01*
X150000781Y-114955220D01*
X150104271Y-114988846D01*
X150195465Y-115018477D01*
X150245855Y-115026458D01*
X150397648Y-115050500D01*
X150397649Y-115050500D01*
X150602351Y-115050500D01*
X150602352Y-115050500D01*
X150804534Y-115018477D01*
X150999219Y-114955220D01*
X151181610Y-114862287D01*
X151308102Y-114770386D01*
X151347213Y-114741971D01*
X151347215Y-114741968D01*
X151347219Y-114741966D01*
X151491966Y-114597219D01*
X151491968Y-114597215D01*
X151491971Y-114597213D01*
X151574551Y-114483549D01*
X151612287Y-114431610D01*
X151705220Y-114249219D01*
X151768477Y-114054534D01*
X151800500Y-113852352D01*
X151800500Y-113647648D01*
X151768477Y-113445466D01*
X151705220Y-113250781D01*
X151705218Y-113250778D01*
X151705218Y-113250776D01*
X151626770Y-113096815D01*
X151612287Y-113068390D01*
X151559575Y-112995837D01*
X151491971Y-112902786D01*
X151347213Y-112758028D01*
X151181613Y-112637715D01*
X151181612Y-112637714D01*
X151181610Y-112637713D01*
X151097326Y-112594768D01*
X150999223Y-112544781D01*
X150804534Y-112481522D01*
X150629995Y-112453878D01*
X150602352Y-112449500D01*
X150397648Y-112449500D01*
X150373329Y-112453351D01*
X150195465Y-112481522D01*
X150000776Y-112544781D01*
X149818386Y-112637715D01*
X149652786Y-112758028D01*
X149508028Y-112902786D01*
X149387715Y-113068386D01*
X149294781Y-113250776D01*
X149231522Y-113445465D01*
X149214159Y-113555095D01*
X149199500Y-113647648D01*
X145910139Y-113647648D01*
X145755571Y-113255691D01*
X145754781Y-113253633D01*
X145732204Y-113193102D01*
X145730219Y-113187349D01*
X145599778Y-112776361D01*
X145599030Y-112773913D01*
X145576307Y-112696527D01*
X145574844Y-112691074D01*
X145475400Y-112283006D01*
X145474729Y-112280096D01*
X145455327Y-112190902D01*
X145454306Y-112185666D01*
X145384204Y-111779085D01*
X145383698Y-111775885D01*
X145369720Y-111678665D01*
X145369116Y-111673760D01*
X145327399Y-111267968D01*
X145327074Y-111264243D01*
X145319797Y-111162486D01*
X145319559Y-111157986D01*
X145303873Y-110698806D01*
X145303801Y-110694573D01*
X145303801Y-109437601D01*
X153866500Y-109437601D01*
X153866500Y-115562398D01*
X153890843Y-115684777D01*
X153890845Y-115684785D01*
X153938598Y-115800072D01*
X153938603Y-115800081D01*
X154007928Y-115903832D01*
X154007931Y-115903836D01*
X154471163Y-116367068D01*
X154471167Y-116367071D01*
X154574918Y-116436396D01*
X154574924Y-116436399D01*
X154574925Y-116436400D01*
X154690215Y-116484155D01*
X154812601Y-116508499D01*
X154812605Y-116508500D01*
X154812606Y-116508500D01*
X154937394Y-116508500D01*
X155034632Y-116508500D01*
X155101671Y-116528185D01*
X155147426Y-116580989D01*
X155152335Y-116593491D01*
X155157885Y-116610238D01*
X155250970Y-116761152D01*
X155376348Y-116886530D01*
X155527262Y-116979615D01*
X155695574Y-117035387D01*
X155799455Y-117046000D01*
X157200544Y-117045999D01*
X157304426Y-117035387D01*
X157472738Y-116979615D01*
X157623652Y-116886530D01*
X157749030Y-116761152D01*
X157842115Y-116610238D01*
X157847662Y-116593496D01*
X157887434Y-116536052D01*
X157951949Y-116509228D01*
X157965368Y-116508500D01*
X164187395Y-116508500D01*
X164187396Y-116508499D01*
X164309785Y-116484155D01*
X164425075Y-116436400D01*
X164528833Y-116367071D01*
X165608659Y-115287243D01*
X165669980Y-115253760D01*
X165734655Y-115256994D01*
X165927200Y-115319557D01*
X166007566Y-115332285D01*
X166141505Y-115353500D01*
X166141510Y-115353500D01*
X166358495Y-115353500D01*
X166477551Y-115334642D01*
X166572800Y-115319557D01*
X166779160Y-115252506D01*
X166972492Y-115153999D01*
X167148033Y-115026461D01*
X167301461Y-114873033D01*
X167428999Y-114697492D01*
X167527506Y-114504160D01*
X167594557Y-114297800D01*
X167617854Y-114150708D01*
X167628500Y-114083495D01*
X167628500Y-113416504D01*
X167602251Y-113250781D01*
X167594557Y-113202200D01*
X167527506Y-112995840D01*
X167428999Y-112802508D01*
X167301461Y-112626967D01*
X167148033Y-112473539D01*
X166972492Y-112346001D01*
X166779160Y-112247494D01*
X166572800Y-112180443D01*
X166572798Y-112180442D01*
X166572796Y-112180442D01*
X166358495Y-112146500D01*
X166358490Y-112146500D01*
X166141510Y-112146500D01*
X166141505Y-112146500D01*
X165927203Y-112180442D01*
X165720837Y-112247495D01*
X165527507Y-112346001D01*
X165351968Y-112473538D01*
X165217366Y-112608140D01*
X165156043Y-112641624D01*
X165086351Y-112636640D01*
X165030418Y-112594768D01*
X165024147Y-112585555D01*
X164929032Y-112431351D01*
X164929029Y-112431347D01*
X164803653Y-112305971D01*
X164803652Y-112305970D01*
X164652738Y-112212885D01*
X164652735Y-112212884D01*
X164484426Y-112157112D01*
X164454897Y-112154096D01*
X164390205Y-112127699D01*
X164350054Y-112070518D01*
X164343500Y-112030738D01*
X164343500Y-111008765D01*
X164363185Y-110941726D01*
X164379814Y-110921089D01*
X166531664Y-108769238D01*
X166592985Y-108735755D01*
X166628023Y-108733885D01*
X166628041Y-108733564D01*
X166628041Y-108733500D01*
X166628044Y-108733500D01*
X166628054Y-108733322D01*
X166631353Y-108733499D01*
X166631362Y-108733500D01*
X166631371Y-108733500D01*
X167928638Y-108733500D01*
X167928654Y-108733499D01*
X167955692Y-108730591D01*
X167989201Y-108726989D01*
X167995285Y-108724720D01*
X168010545Y-108719028D01*
X168126204Y-108675889D01*
X168243261Y-108588261D01*
X168330889Y-108471204D01*
X168381989Y-108334201D01*
X168385658Y-108300071D01*
X168388499Y-108273654D01*
X168388500Y-108273637D01*
X168388500Y-107078766D01*
X168408185Y-107011727D01*
X168460989Y-106965972D01*
X168530147Y-106956028D01*
X168593703Y-106985053D01*
X168600181Y-106991085D01*
X169007681Y-107398585D01*
X169041166Y-107459908D01*
X169044000Y-107486266D01*
X169044000Y-114504235D01*
X169024315Y-114571274D01*
X169007682Y-114591916D01*
X168924899Y-114674699D01*
X168840918Y-114813622D01*
X168840916Y-114813626D01*
X168792621Y-114968612D01*
X168792621Y-114968614D01*
X168787365Y-115026458D01*
X168786500Y-115035972D01*
X168786500Y-115464027D01*
X168792621Y-115531387D01*
X168840916Y-115686373D01*
X168840918Y-115686377D01*
X168924899Y-115825300D01*
X168924902Y-115825304D01*
X169039695Y-115940097D01*
X169039699Y-115940100D01*
X169178622Y-116024081D01*
X169178626Y-116024083D01*
X169233448Y-116041166D01*
X169333614Y-116072379D01*
X169400970Y-116078500D01*
X169400973Y-116078500D01*
X169954027Y-116078500D01*
X169954030Y-116078500D01*
X170021386Y-116072379D01*
X170176376Y-116024082D01*
X170185850Y-116018354D01*
X170253403Y-116000518D01*
X170314148Y-116018354D01*
X170323624Y-116024082D01*
X170478614Y-116072379D01*
X170545970Y-116078500D01*
X170545973Y-116078500D01*
X171099027Y-116078500D01*
X171099030Y-116078500D01*
X171166386Y-116072379D01*
X171321376Y-116024082D01*
X171460305Y-115940097D01*
X171575097Y-115825305D01*
X171659082Y-115686376D01*
X171707379Y-115531386D01*
X171713500Y-115464030D01*
X171713500Y-115306265D01*
X171733185Y-115239226D01*
X171749814Y-115218589D01*
X173320755Y-113647648D01*
X183949500Y-113647648D01*
X183949500Y-113852352D01*
X183950411Y-113858106D01*
X183981522Y-114054534D01*
X184044781Y-114249223D01*
X184100795Y-114359154D01*
X184137334Y-114430867D01*
X184137715Y-114431613D01*
X184258028Y-114597213D01*
X184402786Y-114741971D01*
X184501413Y-114813626D01*
X184568390Y-114862287D01*
X184684607Y-114921503D01*
X184750776Y-114955218D01*
X184750778Y-114955218D01*
X184750781Y-114955220D01*
X184854271Y-114988846D01*
X184945465Y-115018477D01*
X184995855Y-115026458D01*
X185147648Y-115050500D01*
X185147649Y-115050500D01*
X185352351Y-115050500D01*
X185352352Y-115050500D01*
X185554534Y-115018477D01*
X185749219Y-114955220D01*
X185931610Y-114862287D01*
X186058102Y-114770386D01*
X186097213Y-114741971D01*
X186097215Y-114741968D01*
X186097219Y-114741966D01*
X186241966Y-114597219D01*
X186241968Y-114597215D01*
X186241971Y-114597213D01*
X186324551Y-114483549D01*
X186362287Y-114431610D01*
X186455220Y-114249219D01*
X186518477Y-114054534D01*
X186550500Y-113852352D01*
X186550500Y-113647648D01*
X186518477Y-113445466D01*
X186455220Y-113250781D01*
X186455218Y-113250778D01*
X186455218Y-113250776D01*
X186376770Y-113096815D01*
X186362287Y-113068390D01*
X186309575Y-112995837D01*
X186241971Y-112902786D01*
X186097213Y-112758028D01*
X185931613Y-112637715D01*
X185931612Y-112637714D01*
X185931610Y-112637713D01*
X185847326Y-112594768D01*
X185749223Y-112544781D01*
X185554534Y-112481522D01*
X185379995Y-112453878D01*
X185352352Y-112449500D01*
X185147648Y-112449500D01*
X185123329Y-112453351D01*
X184945465Y-112481522D01*
X184750776Y-112544781D01*
X184568386Y-112637715D01*
X184402786Y-112758028D01*
X184258028Y-112902786D01*
X184137715Y-113068386D01*
X184044781Y-113250776D01*
X183981522Y-113445465D01*
X183964159Y-113555095D01*
X183949500Y-113647648D01*
X173320755Y-113647648D01*
X175625992Y-111342410D01*
X175687313Y-111308927D01*
X175757005Y-111313911D01*
X175761268Y-111315789D01*
X175761331Y-111315639D01*
X175765833Y-111317503D01*
X175765836Y-111317503D01*
X175765840Y-111317506D01*
X175972200Y-111384557D01*
X176052566Y-111397285D01*
X176186505Y-111418500D01*
X176186510Y-111418500D01*
X176853495Y-111418500D01*
X176972551Y-111399642D01*
X177067800Y-111384557D01*
X177274160Y-111317506D01*
X177467492Y-111218999D01*
X177643033Y-111091461D01*
X177796461Y-110938033D01*
X177923999Y-110762492D01*
X177934845Y-110741204D01*
X177982817Y-110690410D01*
X178045329Y-110673500D01*
X182022395Y-110673500D01*
X182022396Y-110673499D01*
X182144785Y-110649155D01*
X182260075Y-110601400D01*
X182363833Y-110532071D01*
X184492072Y-108403833D01*
X184561401Y-108300075D01*
X184595168Y-108218552D01*
X184609155Y-108184785D01*
X184633500Y-108062394D01*
X184633500Y-106882500D01*
X184653185Y-106815461D01*
X184705989Y-106769706D01*
X184757500Y-106758500D01*
X184948638Y-106758500D01*
X184948654Y-106758499D01*
X184975692Y-106755591D01*
X185009201Y-106751989D01*
X185146204Y-106700889D01*
X185263261Y-106613261D01*
X185350889Y-106496204D01*
X185401989Y-106359201D01*
X185405591Y-106325692D01*
X185408499Y-106298654D01*
X185408500Y-106298637D01*
X185408500Y-103701362D01*
X185408499Y-103701345D01*
X185405157Y-103670270D01*
X185401989Y-103640799D01*
X185350889Y-103503796D01*
X185263261Y-103386739D01*
X185146204Y-103299111D01*
X185009203Y-103248011D01*
X184948654Y-103241500D01*
X184948638Y-103241500D01*
X183051362Y-103241500D01*
X183051345Y-103241500D01*
X182990797Y-103248011D01*
X182990795Y-103248011D01*
X182853795Y-103299111D01*
X182736739Y-103386739D01*
X182649111Y-103503795D01*
X182598011Y-103640795D01*
X182598011Y-103640797D01*
X182591500Y-103701345D01*
X182591500Y-106298654D01*
X182598011Y-106359202D01*
X182598011Y-106359204D01*
X182643177Y-106480294D01*
X182649111Y-106496204D01*
X182736739Y-106613261D01*
X182853796Y-106700889D01*
X182990799Y-106751989D01*
X183018050Y-106754918D01*
X183051345Y-106758499D01*
X183051362Y-106758500D01*
X183242500Y-106758500D01*
X183309539Y-106778185D01*
X183355294Y-106830989D01*
X183366500Y-106882500D01*
X183366500Y-107686233D01*
X183346815Y-107753272D01*
X183330181Y-107773914D01*
X181733915Y-109370181D01*
X181672592Y-109403666D01*
X181646234Y-109406500D01*
X178045329Y-109406500D01*
X177978290Y-109386815D01*
X177934845Y-109338795D01*
X177923999Y-109317508D01*
X177796461Y-109141967D01*
X177661860Y-109007366D01*
X177628375Y-108946043D01*
X177633359Y-108876351D01*
X177675231Y-108820418D01*
X177684444Y-108814146D01*
X177687735Y-108812115D01*
X177687738Y-108812115D01*
X177838652Y-108719030D01*
X177964030Y-108593652D01*
X178057115Y-108442738D01*
X178112887Y-108274426D01*
X178123500Y-108170545D01*
X178123499Y-106829456D01*
X178112887Y-106725574D01*
X178057115Y-106557262D01*
X177964030Y-106406348D01*
X177838652Y-106280970D01*
X177687738Y-106187885D01*
X177687735Y-106187884D01*
X177519427Y-106132113D01*
X177415545Y-106121500D01*
X175624462Y-106121500D01*
X175624446Y-106121501D01*
X175520572Y-106132113D01*
X175352264Y-106187884D01*
X175352259Y-106187886D01*
X175201346Y-106280971D01*
X175075971Y-106406346D01*
X174982886Y-106557259D01*
X174982884Y-106557264D01*
X174927113Y-106725572D01*
X174916500Y-106829447D01*
X174916500Y-108170537D01*
X174916501Y-108170553D01*
X174927113Y-108274427D01*
X174982884Y-108442735D01*
X174982886Y-108442740D01*
X175000443Y-108471204D01*
X175072644Y-108588260D01*
X175075971Y-108593653D01*
X175201347Y-108719029D01*
X175201351Y-108719032D01*
X175355555Y-108814147D01*
X175402280Y-108866095D01*
X175413501Y-108935057D01*
X175385658Y-108999139D01*
X175378140Y-109007366D01*
X175243538Y-109141968D01*
X175116001Y-109317507D01*
X175017495Y-109510837D01*
X174950442Y-109717203D01*
X174916500Y-109931504D01*
X174916500Y-110148494D01*
X174921875Y-110182431D01*
X174912920Y-110251725D01*
X174887083Y-110289510D01*
X170791415Y-114385181D01*
X170730092Y-114418666D01*
X170703734Y-114421500D01*
X170545970Y-114421500D01*
X170478614Y-114427621D01*
X170471887Y-114429717D01*
X170402028Y-114430867D01*
X170342636Y-114394065D01*
X170312569Y-114330996D01*
X170311000Y-114311331D01*
X170311000Y-107110105D01*
X170310999Y-107110101D01*
X170286656Y-106987722D01*
X170286655Y-106987715D01*
X170238900Y-106872425D01*
X170238899Y-106872424D01*
X170238896Y-106872418D01*
X170169572Y-106768668D01*
X170126476Y-106725572D01*
X170081333Y-106680429D01*
X169377249Y-105976345D01*
X168608836Y-105207931D01*
X168608832Y-105207928D01*
X168505081Y-105138603D01*
X168505072Y-105138598D01*
X168389785Y-105090845D01*
X168389777Y-105090843D01*
X168267398Y-105066500D01*
X168267394Y-105066500D01*
X167182500Y-105066500D01*
X167115461Y-105046815D01*
X167069706Y-104994011D01*
X167058500Y-104942500D01*
X167058500Y-104657500D01*
X167078185Y-104590461D01*
X167130989Y-104544706D01*
X167182500Y-104533500D01*
X167948638Y-104533500D01*
X167948654Y-104533499D01*
X167975692Y-104530591D01*
X168009201Y-104526989D01*
X168146204Y-104475889D01*
X168263261Y-104388261D01*
X168350889Y-104271204D01*
X168401989Y-104134201D01*
X168405591Y-104100692D01*
X168408499Y-104073654D01*
X168408500Y-104073637D01*
X168408500Y-102297844D01*
X182600000Y-102297844D01*
X182606401Y-102357372D01*
X182606403Y-102357379D01*
X182656645Y-102492086D01*
X182656649Y-102492093D01*
X182742809Y-102607187D01*
X182742812Y-102607190D01*
X182857906Y-102693350D01*
X182857913Y-102693354D01*
X182992620Y-102743596D01*
X182992627Y-102743598D01*
X183052155Y-102749999D01*
X183052172Y-102750000D01*
X183750000Y-102750000D01*
X184250000Y-102750000D01*
X184947828Y-102750000D01*
X184947844Y-102749999D01*
X185007372Y-102743598D01*
X185007379Y-102743596D01*
X185142086Y-102693354D01*
X185142093Y-102693350D01*
X185257187Y-102607190D01*
X185257190Y-102607187D01*
X185343350Y-102492093D01*
X185343354Y-102492086D01*
X185393596Y-102357379D01*
X185393598Y-102357372D01*
X185399999Y-102297844D01*
X185400000Y-102297827D01*
X185400000Y-101250000D01*
X184250000Y-101250000D01*
X184250000Y-102750000D01*
X183750000Y-102750000D01*
X183750000Y-101250000D01*
X182600000Y-101250000D01*
X182600000Y-102297844D01*
X168408500Y-102297844D01*
X168408500Y-99931504D01*
X174896500Y-99931504D01*
X174896500Y-100148495D01*
X174930442Y-100362796D01*
X174930443Y-100362800D01*
X174997494Y-100569160D01*
X175096001Y-100762492D01*
X175223539Y-100938033D01*
X175376967Y-101091461D01*
X175552508Y-101218999D01*
X175745840Y-101317506D01*
X175952200Y-101384557D01*
X176032566Y-101397285D01*
X176166505Y-101418500D01*
X176166510Y-101418500D01*
X176833495Y-101418500D01*
X176952551Y-101399642D01*
X177047800Y-101384557D01*
X177254160Y-101317506D01*
X177447492Y-101218999D01*
X177623033Y-101091461D01*
X177776461Y-100938033D01*
X177903999Y-100762492D01*
X178002506Y-100569160D01*
X178069557Y-100362800D01*
X178084642Y-100267551D01*
X178103500Y-100148495D01*
X178103500Y-99931504D01*
X178069723Y-99718249D01*
X178069723Y-99718247D01*
X178069722Y-99718243D01*
X178069557Y-99717201D01*
X178064674Y-99702172D01*
X178064668Y-99702155D01*
X182600000Y-99702155D01*
X182600000Y-100750000D01*
X183750000Y-100750000D01*
X184250000Y-100750000D01*
X185400000Y-100750000D01*
X185400000Y-99702172D01*
X185399999Y-99702155D01*
X185393598Y-99642627D01*
X185393596Y-99642620D01*
X185343354Y-99507913D01*
X185343350Y-99507906D01*
X185257190Y-99392812D01*
X185257187Y-99392809D01*
X185142093Y-99306649D01*
X185142086Y-99306645D01*
X185007379Y-99256403D01*
X185007372Y-99256401D01*
X184947844Y-99250000D01*
X184250000Y-99250000D01*
X184250000Y-100750000D01*
X183750000Y-100750000D01*
X183750000Y-99250000D01*
X183052155Y-99250000D01*
X182992627Y-99256401D01*
X182992620Y-99256403D01*
X182857913Y-99306645D01*
X182857906Y-99306649D01*
X182742812Y-99392809D01*
X182742809Y-99392812D01*
X182656649Y-99507906D01*
X182656645Y-99507913D01*
X182606403Y-99642620D01*
X182606401Y-99642627D01*
X182600000Y-99702155D01*
X178064668Y-99702155D01*
X178002506Y-99510840D01*
X177903999Y-99317508D01*
X177776461Y-99141967D01*
X177635682Y-99001188D01*
X177602197Y-98939865D01*
X177607181Y-98870173D01*
X177649053Y-98814240D01*
X177658267Y-98807968D01*
X177813343Y-98712317D01*
X177937315Y-98588345D01*
X178029356Y-98439124D01*
X178029358Y-98439119D01*
X178084505Y-98272697D01*
X178084506Y-98272690D01*
X178094999Y-98169986D01*
X178095000Y-98169973D01*
X178095000Y-97750000D01*
X177042709Y-97750000D01*
X177054452Y-97729661D01*
X177095000Y-97578333D01*
X177095000Y-97421667D01*
X177054452Y-97270339D01*
X177042709Y-97250000D01*
X178094999Y-97250000D01*
X178094999Y-96830028D01*
X178094998Y-96830013D01*
X178084505Y-96727302D01*
X178029358Y-96560880D01*
X178029356Y-96560875D01*
X177937315Y-96411654D01*
X177813345Y-96287684D01*
X177664124Y-96195643D01*
X177664119Y-96195641D01*
X177497697Y-96140494D01*
X177497690Y-96140493D01*
X177394986Y-96130000D01*
X176750000Y-96130000D01*
X176750000Y-96957290D01*
X176729661Y-96945548D01*
X176578333Y-96905000D01*
X176421667Y-96905000D01*
X176270339Y-96945548D01*
X176250000Y-96957290D01*
X176250000Y-96130000D01*
X175605028Y-96130000D01*
X175605012Y-96130001D01*
X175502302Y-96140494D01*
X175335880Y-96195641D01*
X175335875Y-96195643D01*
X175186654Y-96287684D01*
X175062684Y-96411654D01*
X174970643Y-96560875D01*
X174970641Y-96560880D01*
X174915494Y-96727302D01*
X174915493Y-96727309D01*
X174905000Y-96830013D01*
X174905000Y-97250000D01*
X175957291Y-97250000D01*
X175945548Y-97270339D01*
X175905000Y-97421667D01*
X175905000Y-97578333D01*
X175945548Y-97729661D01*
X175957291Y-97750000D01*
X174905001Y-97750000D01*
X174905001Y-98169986D01*
X174915494Y-98272697D01*
X174970641Y-98439119D01*
X174970643Y-98439124D01*
X175062684Y-98588345D01*
X175186656Y-98712317D01*
X175341732Y-98807968D01*
X175388457Y-98859916D01*
X175399680Y-98928878D01*
X175371836Y-98992961D01*
X175364318Y-99001188D01*
X175223538Y-99141968D01*
X175096001Y-99317507D01*
X174997495Y-99510837D01*
X174930442Y-99717203D01*
X174896500Y-99931504D01*
X168408500Y-99931504D01*
X168408500Y-97576362D01*
X168408499Y-97576345D01*
X168405157Y-97545270D01*
X168401989Y-97515799D01*
X168350889Y-97378796D01*
X168263261Y-97261739D01*
X168146204Y-97174111D01*
X168009203Y-97123011D01*
X167948654Y-97116500D01*
X167948638Y-97116500D01*
X162051362Y-97116500D01*
X162051345Y-97116500D01*
X161990797Y-97123011D01*
X161990795Y-97123011D01*
X161853795Y-97174111D01*
X161736739Y-97261739D01*
X161649111Y-97378795D01*
X161598011Y-97515795D01*
X161598011Y-97515797D01*
X161591500Y-97576345D01*
X161591500Y-104073654D01*
X161598011Y-104134202D01*
X161598011Y-104134204D01*
X161626489Y-104210553D01*
X161649111Y-104271204D01*
X161736739Y-104388261D01*
X161853796Y-104475889D01*
X161990799Y-104526989D01*
X162018050Y-104529918D01*
X162051345Y-104533499D01*
X162051362Y-104533500D01*
X165667500Y-104533500D01*
X165734539Y-104553185D01*
X165780294Y-104605989D01*
X165791500Y-104657500D01*
X165791500Y-105386232D01*
X165782855Y-105415672D01*
X165776332Y-105445659D01*
X165772577Y-105450674D01*
X165771815Y-105453271D01*
X165755181Y-105473913D01*
X165748336Y-105480758D01*
X165687013Y-105514243D01*
X165651990Y-105516120D01*
X165651961Y-105516678D01*
X165648639Y-105516500D01*
X165648638Y-105516500D01*
X164351362Y-105516500D01*
X164351345Y-105516500D01*
X164290797Y-105523011D01*
X164290795Y-105523011D01*
X164153795Y-105574111D01*
X164036739Y-105661739D01*
X163959267Y-105765229D01*
X163903333Y-105807100D01*
X163833641Y-105812084D01*
X163772318Y-105778599D01*
X163760733Y-105765229D01*
X163750316Y-105751314D01*
X163683261Y-105661739D01*
X163566204Y-105574111D01*
X163429203Y-105523011D01*
X163368654Y-105516500D01*
X163368638Y-105516500D01*
X162071362Y-105516500D01*
X162071345Y-105516500D01*
X162010797Y-105523011D01*
X162010795Y-105523011D01*
X161873795Y-105574111D01*
X161756739Y-105661739D01*
X161669111Y-105778795D01*
X161618011Y-105915795D01*
X161618011Y-105915797D01*
X161611500Y-105976345D01*
X161611500Y-106367500D01*
X161591815Y-106434539D01*
X161539011Y-106480294D01*
X161487500Y-106491500D01*
X157812602Y-106491500D01*
X157690219Y-106515843D01*
X157690214Y-106515845D01*
X157656448Y-106529829D01*
X157656449Y-106529830D01*
X157574926Y-106563598D01*
X157574922Y-106563600D01*
X157471171Y-106632924D01*
X157471163Y-106632930D01*
X156711413Y-107392681D01*
X156650090Y-107426166D01*
X156623732Y-107429000D01*
X156212794Y-107429000D01*
X156212778Y-107429001D01*
X156110617Y-107439438D01*
X155945082Y-107494290D01*
X155945071Y-107494295D01*
X155796657Y-107585839D01*
X155796653Y-107585842D01*
X155673341Y-107709154D01*
X155658883Y-107732596D01*
X155606936Y-107779321D01*
X155553344Y-107791500D01*
X155512602Y-107791500D01*
X155390219Y-107815843D01*
X155390214Y-107815845D01*
X155356448Y-107829829D01*
X155356449Y-107829830D01*
X155274926Y-107863598D01*
X155274922Y-107863600D01*
X155171171Y-107932924D01*
X155171163Y-107932930D01*
X154238001Y-108866095D01*
X154096167Y-109007929D01*
X154052047Y-109052049D01*
X154007927Y-109096168D01*
X153938603Y-109199918D01*
X153938598Y-109199927D01*
X153890845Y-109315214D01*
X153890843Y-109315222D01*
X153866500Y-109437601D01*
X145303801Y-109437601D01*
X145303801Y-98351504D01*
X152896500Y-98351504D01*
X152896500Y-98568495D01*
X152930442Y-98782796D01*
X152930443Y-98782800D01*
X152997494Y-98989160D01*
X153096001Y-99182492D01*
X153223539Y-99358033D01*
X153376967Y-99511461D01*
X153376970Y-99511463D01*
X153546914Y-99634935D01*
X153589580Y-99690265D01*
X153595559Y-99759878D01*
X153562953Y-99821673D01*
X153546915Y-99835571D01*
X153382503Y-99955024D01*
X153230025Y-100107502D01*
X153230025Y-100107503D01*
X153103271Y-100281963D01*
X153005372Y-100474098D01*
X152938733Y-100679190D01*
X152927519Y-100750000D01*
X153957291Y-100750000D01*
X153945548Y-100770339D01*
X153905000Y-100921667D01*
X153905000Y-101078333D01*
X153945548Y-101229661D01*
X153957291Y-101250000D01*
X152927519Y-101250000D01*
X152938733Y-101320809D01*
X153005372Y-101525901D01*
X153103271Y-101718036D01*
X153230025Y-101892496D01*
X153230025Y-101892497D01*
X153366045Y-102028517D01*
X153399530Y-102089840D01*
X153394546Y-102159532D01*
X153352674Y-102215465D01*
X153338370Y-102224031D01*
X153338409Y-102224094D01*
X153332263Y-102227884D01*
X153332262Y-102227885D01*
X153230015Y-102290951D01*
X153181346Y-102320971D01*
X153055971Y-102446346D01*
X152962886Y-102597259D01*
X152962884Y-102597264D01*
X152907113Y-102765572D01*
X152896500Y-102869447D01*
X152896500Y-104210537D01*
X152896501Y-104210553D01*
X152907113Y-104314427D01*
X152962884Y-104482735D01*
X152962885Y-104482738D01*
X153055970Y-104633652D01*
X153181348Y-104759030D01*
X153332262Y-104852115D01*
X153500574Y-104907887D01*
X153604455Y-104918500D01*
X155395544Y-104918499D01*
X155499426Y-104907887D01*
X155667738Y-104852115D01*
X155818652Y-104759030D01*
X155944030Y-104633652D01*
X156037115Y-104482738D01*
X156092887Y-104314426D01*
X156103500Y-104210545D01*
X156103499Y-102869456D01*
X156092887Y-102765574D01*
X156037115Y-102597262D01*
X155944030Y-102446348D01*
X155818652Y-102320970D01*
X155667738Y-102227885D01*
X155667736Y-102227884D01*
X155661591Y-102224094D01*
X155662484Y-102222644D01*
X155616783Y-102182395D01*
X155597639Y-102115199D01*
X155617863Y-102048320D01*
X155633954Y-102028516D01*
X155769977Y-101892493D01*
X155896728Y-101718036D01*
X155994627Y-101525901D01*
X156061266Y-101320809D01*
X156072481Y-101250000D01*
X155042709Y-101250000D01*
X155054452Y-101229661D01*
X155095000Y-101078333D01*
X155095000Y-100921667D01*
X155054452Y-100770339D01*
X155042709Y-100750000D01*
X156072481Y-100750000D01*
X156061266Y-100679190D01*
X155994627Y-100474098D01*
X155896728Y-100281963D01*
X155769974Y-100107503D01*
X155769974Y-100107502D01*
X155617497Y-99955025D01*
X155453084Y-99835571D01*
X155410419Y-99780241D01*
X155404440Y-99710627D01*
X155437046Y-99648832D01*
X155453081Y-99634937D01*
X155623033Y-99511461D01*
X155776461Y-99358033D01*
X155903999Y-99182492D01*
X156002506Y-98989160D01*
X156069557Y-98782800D01*
X156088769Y-98661500D01*
X156103500Y-98568495D01*
X156103500Y-98351504D01*
X156080871Y-98208636D01*
X156069557Y-98137200D01*
X156002506Y-97930840D01*
X155903999Y-97737508D01*
X155776461Y-97561967D01*
X155623033Y-97408539D01*
X155447492Y-97281001D01*
X155254160Y-97182494D01*
X155047800Y-97115443D01*
X155047798Y-97115442D01*
X155047796Y-97115442D01*
X154833495Y-97081500D01*
X154833490Y-97081500D01*
X154166510Y-97081500D01*
X154166505Y-97081500D01*
X153952203Y-97115442D01*
X153745837Y-97182495D01*
X153552507Y-97281001D01*
X153452355Y-97353766D01*
X153376967Y-97408539D01*
X153376965Y-97408541D01*
X153376964Y-97408541D01*
X153223541Y-97561964D01*
X153223541Y-97561965D01*
X153223539Y-97561967D01*
X153168766Y-97637355D01*
X153096001Y-97737507D01*
X152997495Y-97930837D01*
X152930442Y-98137203D01*
X152896500Y-98351504D01*
X145303801Y-98351504D01*
X145303801Y-94397648D01*
X147699500Y-94397648D01*
X147699500Y-94602351D01*
X147731522Y-94804534D01*
X147794781Y-94999223D01*
X147887715Y-95181613D01*
X148008028Y-95347213D01*
X148152786Y-95491971D01*
X148307749Y-95604556D01*
X148318390Y-95612287D01*
X148434607Y-95671503D01*
X148500776Y-95705218D01*
X148500778Y-95705218D01*
X148500781Y-95705220D01*
X148605137Y-95739127D01*
X148695465Y-95768477D01*
X148796557Y-95784488D01*
X148897648Y-95800500D01*
X148897649Y-95800500D01*
X149102351Y-95800500D01*
X149102352Y-95800500D01*
X149304534Y-95768477D01*
X149499219Y-95705220D01*
X149681610Y-95612287D01*
X149837231Y-95499223D01*
X149847213Y-95491971D01*
X149847215Y-95491968D01*
X149847219Y-95491966D01*
X149991966Y-95347219D01*
X149991968Y-95347215D01*
X149991971Y-95347213D01*
X150044732Y-95274590D01*
X150112287Y-95181610D01*
X150205220Y-94999219D01*
X150268477Y-94804534D01*
X150300500Y-94602352D01*
X150300500Y-94397648D01*
X150268477Y-94195466D01*
X150254609Y-94152786D01*
X150234040Y-94089479D01*
X150205220Y-94000781D01*
X150205218Y-94000778D01*
X150205218Y-94000776D01*
X150159230Y-93910521D01*
X150112287Y-93818390D01*
X150095134Y-93794781D01*
X149991971Y-93652786D01*
X149847213Y-93508028D01*
X149681613Y-93387715D01*
X149681612Y-93387714D01*
X149681610Y-93387713D01*
X149624653Y-93358691D01*
X149499223Y-93294781D01*
X149304534Y-93231522D01*
X149129995Y-93203878D01*
X149102352Y-93199500D01*
X148897648Y-93199500D01*
X148873329Y-93203351D01*
X148695465Y-93231522D01*
X148500776Y-93294781D01*
X148318386Y-93387715D01*
X148152786Y-93508028D01*
X148008028Y-93652786D01*
X147887715Y-93818386D01*
X147794781Y-94000776D01*
X147731522Y-94195465D01*
X147699500Y-94397648D01*
X145303801Y-94397648D01*
X145303801Y-92805426D01*
X145303873Y-92801193D01*
X145306396Y-92727326D01*
X145319559Y-92342007D01*
X145319799Y-92337483D01*
X145327075Y-92235744D01*
X145327398Y-92232042D01*
X145369117Y-91826227D01*
X145369719Y-91821346D01*
X145383702Y-91724092D01*
X145384201Y-91720935D01*
X145454309Y-91314316D01*
X145455327Y-91309097D01*
X145474737Y-91219868D01*
X145475396Y-91217011D01*
X145542863Y-90940160D01*
X151391500Y-90940160D01*
X151391500Y-91114641D01*
X151418795Y-91286976D01*
X151472710Y-91452914D01*
X151472711Y-91452917D01*
X151551928Y-91608385D01*
X151654477Y-91749533D01*
X151654481Y-91749538D01*
X151777862Y-91872919D01*
X151777867Y-91872923D01*
X151872844Y-91941927D01*
X151919019Y-91975475D01*
X152020646Y-92027257D01*
X152074483Y-92054689D01*
X152074486Y-92054690D01*
X152155428Y-92080989D01*
X152240426Y-92108606D01*
X152412759Y-92135901D01*
X152412760Y-92135901D01*
X152587237Y-92135901D01*
X152587241Y-92135901D01*
X152633054Y-92128644D01*
X152702343Y-92137598D01*
X152740131Y-92163436D01*
X153808259Y-93231564D01*
X153841744Y-93292887D01*
X153836760Y-93362579D01*
X153808262Y-93406924D01*
X153794321Y-93420865D01*
X153694901Y-93569657D01*
X153694896Y-93569667D01*
X153626413Y-93734999D01*
X153626411Y-93735007D01*
X153591500Y-93910516D01*
X153591500Y-94089483D01*
X153626411Y-94264992D01*
X153626413Y-94265000D01*
X153694896Y-94430332D01*
X153694901Y-94430342D01*
X153794321Y-94579134D01*
X153794324Y-94579138D01*
X153920861Y-94705675D01*
X153920865Y-94705678D01*
X154069657Y-94805098D01*
X154069661Y-94805100D01*
X154069664Y-94805102D01*
X154235000Y-94873587D01*
X154355964Y-94897648D01*
X154410516Y-94908499D01*
X154410520Y-94908500D01*
X154410521Y-94908500D01*
X154589480Y-94908500D01*
X154589481Y-94908499D01*
X154644034Y-94897648D01*
X185199500Y-94897648D01*
X185199500Y-95102351D01*
X185231522Y-95304534D01*
X185294781Y-95499223D01*
X185387715Y-95681613D01*
X185508028Y-95847213D01*
X185652786Y-95991971D01*
X185807749Y-96104556D01*
X185818390Y-96112287D01*
X185934607Y-96171503D01*
X186000776Y-96205218D01*
X186000778Y-96205218D01*
X186000781Y-96205220D01*
X186105137Y-96239127D01*
X186195465Y-96268477D01*
X186296557Y-96284488D01*
X186397648Y-96300500D01*
X186397649Y-96300500D01*
X186602351Y-96300500D01*
X186602352Y-96300500D01*
X186804534Y-96268477D01*
X186999219Y-96205220D01*
X187181610Y-96112287D01*
X187274590Y-96044732D01*
X187347213Y-95991971D01*
X187347215Y-95991968D01*
X187347219Y-95991966D01*
X187491966Y-95847219D01*
X187491968Y-95847215D01*
X187491971Y-95847213D01*
X187595133Y-95705220D01*
X187612287Y-95681610D01*
X187705220Y-95499219D01*
X187768477Y-95304534D01*
X187800500Y-95102352D01*
X187800500Y-94897648D01*
X187785842Y-94805102D01*
X187768477Y-94695465D01*
X187705218Y-94500776D01*
X187652671Y-94397648D01*
X187612287Y-94318390D01*
X187604556Y-94307749D01*
X187491971Y-94152786D01*
X187347213Y-94008028D01*
X187181613Y-93887715D01*
X187181612Y-93887714D01*
X187181610Y-93887713D01*
X187124653Y-93858691D01*
X186999223Y-93794781D01*
X186804534Y-93731522D01*
X186629995Y-93703878D01*
X186602352Y-93699500D01*
X186397648Y-93699500D01*
X186373329Y-93703351D01*
X186195465Y-93731522D01*
X186000776Y-93794781D01*
X185818386Y-93887715D01*
X185652786Y-94008028D01*
X185508028Y-94152786D01*
X185387715Y-94318386D01*
X185294781Y-94500776D01*
X185231522Y-94695465D01*
X185199500Y-94897648D01*
X154644034Y-94897648D01*
X154765000Y-94873587D01*
X154930336Y-94805102D01*
X154939128Y-94799226D01*
X154953428Y-94789673D01*
X154953428Y-94789672D01*
X155079135Y-94705678D01*
X155205678Y-94579135D01*
X155305102Y-94430336D01*
X155373587Y-94265000D01*
X155408500Y-94089479D01*
X155408500Y-93910521D01*
X155373587Y-93735000D01*
X155305102Y-93569664D01*
X155305100Y-93569661D01*
X155305098Y-93569657D01*
X155205678Y-93420865D01*
X155205675Y-93420861D01*
X155169819Y-93385005D01*
X155136334Y-93323682D01*
X155133500Y-93297324D01*
X155133500Y-92965006D01*
X155133499Y-92965002D01*
X155109156Y-92842623D01*
X155109155Y-92842616D01*
X155061400Y-92727326D01*
X155061399Y-92727325D01*
X155061396Y-92727319D01*
X154992072Y-92623569D01*
X154973116Y-92604613D01*
X154903833Y-92535330D01*
X154241085Y-91872582D01*
X154207600Y-91811259D01*
X154212584Y-91741567D01*
X154254456Y-91685634D01*
X154319920Y-91661217D01*
X154328766Y-91660901D01*
X156717501Y-91660901D01*
X156784540Y-91680586D01*
X156830295Y-91733390D01*
X156841501Y-91784901D01*
X156841501Y-92088053D01*
X156852113Y-92191927D01*
X156907884Y-92360235D01*
X156907886Y-92360240D01*
X156924101Y-92386528D01*
X157000970Y-92511152D01*
X157126348Y-92636530D01*
X157277262Y-92729615D01*
X157445574Y-92785387D01*
X157549455Y-92796000D01*
X158950544Y-92795999D01*
X159054426Y-92785387D01*
X159222738Y-92729615D01*
X159373652Y-92636530D01*
X159499030Y-92511152D01*
X159592115Y-92360238D01*
X159597662Y-92343496D01*
X159637434Y-92286052D01*
X159701949Y-92259228D01*
X159715368Y-92258500D01*
X161034632Y-92258500D01*
X161101671Y-92278185D01*
X161147426Y-92330989D01*
X161152338Y-92343497D01*
X161157883Y-92360233D01*
X161157886Y-92360240D01*
X161174101Y-92386528D01*
X161250970Y-92511152D01*
X161376348Y-92636530D01*
X161527262Y-92729615D01*
X161695574Y-92785387D01*
X161799455Y-92796000D01*
X163200544Y-92795999D01*
X163304426Y-92785387D01*
X163472738Y-92729615D01*
X163623652Y-92636530D01*
X163749030Y-92511152D01*
X163842115Y-92360238D01*
X163847662Y-92343496D01*
X163887434Y-92286052D01*
X163951949Y-92259228D01*
X163965368Y-92258500D01*
X166103027Y-92258500D01*
X166170066Y-92278185D01*
X166208563Y-92317400D01*
X166250970Y-92386152D01*
X166376348Y-92511530D01*
X166527262Y-92604615D01*
X166695574Y-92660387D01*
X166799455Y-92671000D01*
X168200544Y-92670999D01*
X168304426Y-92660387D01*
X168472738Y-92604615D01*
X168623652Y-92511530D01*
X168749030Y-92386152D01*
X168842115Y-92235238D01*
X168847662Y-92218496D01*
X168887434Y-92161052D01*
X168951949Y-92134228D01*
X168965368Y-92133500D01*
X170284632Y-92133500D01*
X170351671Y-92153185D01*
X170397426Y-92205989D01*
X170402338Y-92218497D01*
X170407883Y-92235233D01*
X170407886Y-92235240D01*
X170434375Y-92278185D01*
X170500970Y-92386152D01*
X170626348Y-92511530D01*
X170777262Y-92604615D01*
X170945574Y-92660387D01*
X171049455Y-92671000D01*
X172450544Y-92670999D01*
X172554426Y-92660387D01*
X172722738Y-92604615D01*
X172873652Y-92511530D01*
X172999030Y-92386152D01*
X173092115Y-92235238D01*
X173097662Y-92218496D01*
X173137434Y-92161052D01*
X173201949Y-92134228D01*
X173215368Y-92133500D01*
X174534632Y-92133500D01*
X174601671Y-92153185D01*
X174647426Y-92205989D01*
X174652338Y-92218497D01*
X174657883Y-92235233D01*
X174657886Y-92235240D01*
X174684375Y-92278185D01*
X174750970Y-92386152D01*
X174876348Y-92511530D01*
X175027262Y-92604615D01*
X175195574Y-92660387D01*
X175299455Y-92671000D01*
X176700544Y-92670999D01*
X176804426Y-92660387D01*
X176972738Y-92604615D01*
X177123652Y-92511530D01*
X177249030Y-92386152D01*
X177342115Y-92235238D01*
X177347662Y-92218496D01*
X177387434Y-92161052D01*
X177451949Y-92134228D01*
X177465368Y-92133500D01*
X178903027Y-92133500D01*
X178970066Y-92153185D01*
X179008563Y-92192400D01*
X179050970Y-92261152D01*
X179176348Y-92386530D01*
X179327262Y-92479615D01*
X179495574Y-92535387D01*
X179599455Y-92546000D01*
X181900544Y-92545999D01*
X182004426Y-92535387D01*
X182172738Y-92479615D01*
X182323652Y-92386530D01*
X182449030Y-92261152D01*
X182542115Y-92110238D01*
X182547662Y-92093496D01*
X182587434Y-92036052D01*
X182651949Y-92009228D01*
X182665368Y-92008500D01*
X183834632Y-92008500D01*
X183901671Y-92028185D01*
X183947426Y-92080989D01*
X183952335Y-92093491D01*
X183957885Y-92110238D01*
X184050970Y-92261152D01*
X184176348Y-92386530D01*
X184327262Y-92479615D01*
X184495574Y-92535387D01*
X184599455Y-92546000D01*
X186900544Y-92545999D01*
X187004426Y-92535387D01*
X187172738Y-92479615D01*
X187323652Y-92386530D01*
X187449030Y-92261152D01*
X187542115Y-92110238D01*
X187597887Y-91941926D01*
X187608500Y-91838045D01*
X187608499Y-90911956D01*
X187597887Y-90808074D01*
X187542115Y-90639762D01*
X187449030Y-90488848D01*
X187323652Y-90363470D01*
X187172738Y-90270385D01*
X187149289Y-90262615D01*
X187004427Y-90214613D01*
X186900545Y-90204000D01*
X184599462Y-90204000D01*
X184599446Y-90204001D01*
X184495572Y-90214613D01*
X184327264Y-90270384D01*
X184327259Y-90270386D01*
X184176346Y-90363471D01*
X184050971Y-90488846D01*
X183957886Y-90639759D01*
X183957883Y-90639766D01*
X183952338Y-90656503D01*
X183912566Y-90713948D01*
X183848051Y-90740772D01*
X183834632Y-90741500D01*
X182665368Y-90741500D01*
X182598329Y-90721815D01*
X182552574Y-90669011D01*
X182547662Y-90656503D01*
X182542116Y-90639766D01*
X182542115Y-90639762D01*
X182449030Y-90488848D01*
X182323652Y-90363470D01*
X182172738Y-90270385D01*
X182149289Y-90262615D01*
X182004427Y-90214613D01*
X181900545Y-90204000D01*
X179599462Y-90204000D01*
X179599446Y-90204001D01*
X179495572Y-90214613D01*
X179327264Y-90270384D01*
X179327259Y-90270386D01*
X179176346Y-90363471D01*
X179050971Y-90488846D01*
X178957886Y-90639759D01*
X178957884Y-90639764D01*
X178910917Y-90781504D01*
X178871145Y-90838949D01*
X178806629Y-90865772D01*
X178793211Y-90866500D01*
X177465368Y-90866500D01*
X177398329Y-90846815D01*
X177352574Y-90794011D01*
X177347664Y-90781508D01*
X177342115Y-90764762D01*
X177249030Y-90613848D01*
X177123652Y-90488470D01*
X177009803Y-90418247D01*
X176972740Y-90395386D01*
X176972735Y-90395384D01*
X176804427Y-90339613D01*
X176700545Y-90329000D01*
X175299462Y-90329000D01*
X175299446Y-90329001D01*
X175195572Y-90339613D01*
X175027264Y-90395384D01*
X175027259Y-90395386D01*
X174876346Y-90488471D01*
X174750971Y-90613846D01*
X174657886Y-90764759D01*
X174657883Y-90764766D01*
X174652338Y-90781503D01*
X174612566Y-90838948D01*
X174548051Y-90865772D01*
X174534632Y-90866500D01*
X173215368Y-90866500D01*
X173148329Y-90846815D01*
X173102574Y-90794011D01*
X173097664Y-90781508D01*
X173092115Y-90764762D01*
X172999030Y-90613848D01*
X172873652Y-90488470D01*
X172759803Y-90418247D01*
X172722740Y-90395386D01*
X172722735Y-90395384D01*
X172554427Y-90339613D01*
X172450545Y-90329000D01*
X171049462Y-90329000D01*
X171049446Y-90329001D01*
X170945572Y-90339613D01*
X170777264Y-90395384D01*
X170777259Y-90395386D01*
X170626346Y-90488471D01*
X170500971Y-90613846D01*
X170407886Y-90764759D01*
X170407883Y-90764766D01*
X170402338Y-90781503D01*
X170362566Y-90838948D01*
X170298051Y-90865772D01*
X170284632Y-90866500D01*
X168965368Y-90866500D01*
X168898329Y-90846815D01*
X168852574Y-90794011D01*
X168847664Y-90781508D01*
X168842115Y-90764762D01*
X168749030Y-90613848D01*
X168623652Y-90488470D01*
X168509803Y-90418247D01*
X168472740Y-90395386D01*
X168472735Y-90395384D01*
X168304427Y-90339613D01*
X168200545Y-90329000D01*
X166799462Y-90329000D01*
X166799446Y-90329001D01*
X166695572Y-90339613D01*
X166527264Y-90395384D01*
X166527259Y-90395386D01*
X166376346Y-90488471D01*
X166250971Y-90613846D01*
X166157886Y-90764759D01*
X166157884Y-90764764D01*
X166110917Y-90906504D01*
X166071145Y-90963949D01*
X166006629Y-90990772D01*
X165993211Y-90991500D01*
X163965368Y-90991500D01*
X163898329Y-90971815D01*
X163852574Y-90919011D01*
X163847664Y-90906508D01*
X163842115Y-90889762D01*
X163749030Y-90738848D01*
X163623652Y-90613470D01*
X163472738Y-90520385D01*
X163377558Y-90488846D01*
X163304427Y-90464613D01*
X163200545Y-90454000D01*
X161799462Y-90454000D01*
X161799446Y-90454001D01*
X161695572Y-90464613D01*
X161527264Y-90520384D01*
X161527259Y-90520386D01*
X161376346Y-90613471D01*
X161250971Y-90738846D01*
X161157886Y-90889759D01*
X161157883Y-90889766D01*
X161152338Y-90906503D01*
X161112566Y-90963948D01*
X161048051Y-90990772D01*
X161034632Y-90991500D01*
X159715368Y-90991500D01*
X159648329Y-90971815D01*
X159602574Y-90919011D01*
X159597664Y-90906508D01*
X159592115Y-90889762D01*
X159499030Y-90738848D01*
X159373652Y-90613470D01*
X159222738Y-90520385D01*
X159127558Y-90488846D01*
X159054427Y-90464613D01*
X158950552Y-90454000D01*
X158950545Y-90454000D01*
X157948169Y-90454000D01*
X157900717Y-90444561D01*
X157837190Y-90418247D01*
X157837178Y-90418244D01*
X157714799Y-90393901D01*
X157714795Y-90393901D01*
X153473098Y-90393901D01*
X153472831Y-90393822D01*
X153472564Y-90393900D01*
X153439232Y-90383956D01*
X153406059Y-90374216D01*
X153405787Y-90373980D01*
X153405610Y-90373927D01*
X153404310Y-90372693D01*
X153379037Y-90350700D01*
X153375746Y-90346869D01*
X153345517Y-90305262D01*
X153306430Y-90266175D01*
X153303372Y-90262615D01*
X153290848Y-90234878D01*
X153276267Y-90208174D01*
X153276612Y-90203347D01*
X153274620Y-90198935D01*
X153279080Y-90168831D01*
X153281251Y-90138482D01*
X153284151Y-90134607D01*
X153284861Y-90129820D01*
X153304887Y-90106907D01*
X153323123Y-90082549D01*
X153330096Y-90078066D01*
X153330843Y-90077213D01*
X153331900Y-90076907D01*
X153338005Y-90072984D01*
X153342093Y-90070751D01*
X153457187Y-89984591D01*
X153457190Y-89984588D01*
X153543350Y-89869494D01*
X153543354Y-89869487D01*
X153593596Y-89734780D01*
X153593598Y-89734773D01*
X153599999Y-89675245D01*
X153600000Y-89675228D01*
X153600000Y-89277401D01*
X152666988Y-89277401D01*
X152684205Y-89267461D01*
X152740060Y-89211606D01*
X152779556Y-89143197D01*
X152800000Y-89066897D01*
X152800000Y-88987905D01*
X152793189Y-88962486D01*
X156850001Y-88962486D01*
X156860494Y-89065197D01*
X156915641Y-89231619D01*
X156915643Y-89231624D01*
X157007684Y-89380845D01*
X157131654Y-89504815D01*
X157280875Y-89596856D01*
X157280880Y-89596858D01*
X157447302Y-89652005D01*
X157447309Y-89652006D01*
X157550019Y-89662499D01*
X157999999Y-89662499D01*
X158500000Y-89662499D01*
X158949972Y-89662499D01*
X158949986Y-89662498D01*
X159052697Y-89652005D01*
X159219119Y-89596858D01*
X159219124Y-89596856D01*
X159368345Y-89504815D01*
X159492315Y-89380845D01*
X159584356Y-89231624D01*
X159584358Y-89231619D01*
X159639505Y-89065197D01*
X159639506Y-89065190D01*
X159649999Y-88962486D01*
X161100001Y-88962486D01*
X161110494Y-89065197D01*
X161165641Y-89231619D01*
X161165643Y-89231624D01*
X161257684Y-89380845D01*
X161381654Y-89504815D01*
X161530875Y-89596856D01*
X161530880Y-89596858D01*
X161697302Y-89652005D01*
X161697309Y-89652006D01*
X161800019Y-89662499D01*
X162249999Y-89662499D01*
X162750000Y-89662499D01*
X163199972Y-89662499D01*
X163199986Y-89662498D01*
X163302697Y-89652005D01*
X163469119Y-89596858D01*
X163469124Y-89596856D01*
X163618345Y-89504815D01*
X163742315Y-89380845D01*
X163834356Y-89231624D01*
X163834358Y-89231619D01*
X163889505Y-89065197D01*
X163889506Y-89065190D01*
X163899999Y-88962486D01*
X163900000Y-88962473D01*
X163900000Y-88837486D01*
X166100001Y-88837486D01*
X166110494Y-88940197D01*
X166165641Y-89106619D01*
X166165643Y-89106624D01*
X166257684Y-89255845D01*
X166381654Y-89379815D01*
X166530875Y-89471856D01*
X166530880Y-89471858D01*
X166697302Y-89527005D01*
X166697309Y-89527006D01*
X166800019Y-89537499D01*
X167249999Y-89537499D01*
X167750000Y-89537499D01*
X168199972Y-89537499D01*
X168199986Y-89537498D01*
X168302697Y-89527005D01*
X168469119Y-89471858D01*
X168469124Y-89471856D01*
X168618345Y-89379815D01*
X168742315Y-89255845D01*
X168834356Y-89106624D01*
X168834358Y-89106619D01*
X168889505Y-88940197D01*
X168889506Y-88940190D01*
X168899999Y-88837486D01*
X170350001Y-88837486D01*
X170360494Y-88940197D01*
X170415641Y-89106619D01*
X170415643Y-89106624D01*
X170507684Y-89255845D01*
X170631654Y-89379815D01*
X170780875Y-89471856D01*
X170780880Y-89471858D01*
X170947302Y-89527005D01*
X170947309Y-89527006D01*
X171050019Y-89537499D01*
X171499999Y-89537499D01*
X172000000Y-89537499D01*
X172449972Y-89537499D01*
X172449986Y-89537498D01*
X172552697Y-89527005D01*
X172719119Y-89471858D01*
X172719124Y-89471856D01*
X172868345Y-89379815D01*
X172992315Y-89255845D01*
X173084356Y-89106624D01*
X173084358Y-89106619D01*
X173139505Y-88940197D01*
X173139506Y-88940190D01*
X173149999Y-88837486D01*
X174600001Y-88837486D01*
X174610494Y-88940197D01*
X174665641Y-89106619D01*
X174665643Y-89106624D01*
X174757684Y-89255845D01*
X174881654Y-89379815D01*
X175030875Y-89471856D01*
X175030880Y-89471858D01*
X175197302Y-89527005D01*
X175197309Y-89527006D01*
X175300019Y-89537499D01*
X175749999Y-89537499D01*
X176250000Y-89537499D01*
X176699972Y-89537499D01*
X176699986Y-89537498D01*
X176802697Y-89527005D01*
X176969119Y-89471858D01*
X176969124Y-89471856D01*
X177118345Y-89379815D01*
X177242315Y-89255845D01*
X177334356Y-89106624D01*
X177334358Y-89106619D01*
X177389505Y-88940197D01*
X177389506Y-88940190D01*
X177399999Y-88837486D01*
X177400000Y-88837473D01*
X177400000Y-88712486D01*
X178900001Y-88712486D01*
X178910494Y-88815197D01*
X178965641Y-88981619D01*
X178965643Y-88981624D01*
X179057684Y-89130845D01*
X179181654Y-89254815D01*
X179330875Y-89346856D01*
X179330880Y-89346858D01*
X179497302Y-89402005D01*
X179497309Y-89402006D01*
X179600019Y-89412499D01*
X180499999Y-89412499D01*
X181000000Y-89412499D01*
X181899972Y-89412499D01*
X181899986Y-89412498D01*
X182002697Y-89402005D01*
X182169119Y-89346858D01*
X182169124Y-89346856D01*
X182318345Y-89254815D01*
X182442315Y-89130845D01*
X182534356Y-88981624D01*
X182534358Y-88981619D01*
X182589505Y-88815197D01*
X182589506Y-88815190D01*
X182599999Y-88712486D01*
X183900001Y-88712486D01*
X183910494Y-88815197D01*
X183965641Y-88981619D01*
X183965643Y-88981624D01*
X184057684Y-89130845D01*
X184181654Y-89254815D01*
X184330875Y-89346856D01*
X184330880Y-89346858D01*
X184497302Y-89402005D01*
X184497309Y-89402006D01*
X184600019Y-89412499D01*
X185499999Y-89412499D01*
X186000000Y-89412499D01*
X186899972Y-89412499D01*
X186899986Y-89412498D01*
X187002697Y-89402005D01*
X187169119Y-89346858D01*
X187169124Y-89346856D01*
X187318345Y-89254815D01*
X187442315Y-89130845D01*
X187534356Y-88981624D01*
X187534358Y-88981619D01*
X187589505Y-88815197D01*
X187589506Y-88815190D01*
X187599999Y-88712486D01*
X187600000Y-88712473D01*
X187600000Y-88500000D01*
X186000000Y-88500000D01*
X186000000Y-89412499D01*
X185499999Y-89412499D01*
X185500000Y-89412498D01*
X185500000Y-88500000D01*
X183900001Y-88500000D01*
X183900001Y-88712486D01*
X182599999Y-88712486D01*
X182600000Y-88712473D01*
X182600000Y-88500000D01*
X181000000Y-88500000D01*
X181000000Y-89412499D01*
X180499999Y-89412499D01*
X180500000Y-89412498D01*
X180500000Y-88500000D01*
X178900001Y-88500000D01*
X178900001Y-88712486D01*
X177400000Y-88712486D01*
X177400000Y-88625000D01*
X176250000Y-88625000D01*
X176250000Y-89537499D01*
X175749999Y-89537499D01*
X175750000Y-89537498D01*
X175750000Y-88625000D01*
X174600001Y-88625000D01*
X174600001Y-88837486D01*
X173149999Y-88837486D01*
X173150000Y-88837473D01*
X173150000Y-88625000D01*
X172000000Y-88625000D01*
X172000000Y-89537499D01*
X171499999Y-89537499D01*
X171500000Y-89537498D01*
X171500000Y-88625000D01*
X170350001Y-88625000D01*
X170350001Y-88837486D01*
X168899999Y-88837486D01*
X168900000Y-88837473D01*
X168900000Y-88625000D01*
X167750000Y-88625000D01*
X167750000Y-89537499D01*
X167249999Y-89537499D01*
X167250000Y-89537498D01*
X167250000Y-88625000D01*
X166100001Y-88625000D01*
X166100001Y-88837486D01*
X163900000Y-88837486D01*
X163900000Y-88750000D01*
X162750000Y-88750000D01*
X162750000Y-89662499D01*
X162249999Y-89662499D01*
X162250000Y-89662498D01*
X162250000Y-88750000D01*
X161100001Y-88750000D01*
X161100001Y-88962486D01*
X159649999Y-88962486D01*
X159650000Y-88962473D01*
X159650000Y-88750000D01*
X158500000Y-88750000D01*
X158500000Y-89662499D01*
X157999999Y-89662499D01*
X158000000Y-89662498D01*
X158000000Y-88750000D01*
X156850001Y-88750000D01*
X156850001Y-88962486D01*
X152793189Y-88962486D01*
X152779556Y-88911605D01*
X152740060Y-88843196D01*
X152684205Y-88787341D01*
X152666988Y-88777401D01*
X152750000Y-88777401D01*
X153600000Y-88777401D01*
X153600000Y-88379573D01*
X153599999Y-88379556D01*
X153593598Y-88320028D01*
X153593596Y-88320021D01*
X153543354Y-88185314D01*
X153543350Y-88185307D01*
X153485983Y-88108675D01*
X153457190Y-88070213D01*
X153457187Y-88070210D01*
X153413510Y-88037513D01*
X156850000Y-88037513D01*
X156850000Y-88250000D01*
X158000000Y-88250000D01*
X158500000Y-88250000D01*
X159649999Y-88250000D01*
X159649999Y-88037529D01*
X159649998Y-88037513D01*
X161100000Y-88037513D01*
X161100000Y-88250000D01*
X162250000Y-88250000D01*
X162750000Y-88250000D01*
X163899999Y-88250000D01*
X163899999Y-88037528D01*
X163899998Y-88037513D01*
X163889505Y-87934802D01*
X163882119Y-87912513D01*
X166100000Y-87912513D01*
X166100000Y-88125000D01*
X167250000Y-88125000D01*
X167750000Y-88125000D01*
X168899999Y-88125000D01*
X168899999Y-87912529D01*
X168899998Y-87912513D01*
X170350000Y-87912513D01*
X170350000Y-88125000D01*
X171500000Y-88125000D01*
X172000000Y-88125000D01*
X173149999Y-88125000D01*
X173149999Y-87912529D01*
X173149998Y-87912513D01*
X174600000Y-87912513D01*
X174600000Y-88125000D01*
X175750000Y-88125000D01*
X176250000Y-88125000D01*
X177399999Y-88125000D01*
X177399999Y-87912528D01*
X177399998Y-87912513D01*
X177389505Y-87809802D01*
X177382119Y-87787513D01*
X178900000Y-87787513D01*
X178900000Y-88000000D01*
X180500000Y-88000000D01*
X181000000Y-88000000D01*
X182599999Y-88000000D01*
X182599999Y-87787529D01*
X182599998Y-87787513D01*
X183900000Y-87787513D01*
X183900000Y-88000000D01*
X185500000Y-88000000D01*
X186000000Y-88000000D01*
X187599999Y-88000000D01*
X187599999Y-87787528D01*
X187599998Y-87787513D01*
X187589505Y-87684802D01*
X187534358Y-87518380D01*
X187534356Y-87518375D01*
X187442315Y-87369154D01*
X187318345Y-87245184D01*
X187169124Y-87153143D01*
X187169119Y-87153141D01*
X187002697Y-87097994D01*
X187002690Y-87097993D01*
X186899986Y-87087500D01*
X186000000Y-87087500D01*
X186000000Y-88000000D01*
X185500000Y-88000000D01*
X185500000Y-87087500D01*
X184600028Y-87087500D01*
X184600012Y-87087501D01*
X184497302Y-87097994D01*
X184330880Y-87153141D01*
X184330875Y-87153143D01*
X184181654Y-87245184D01*
X184057684Y-87369154D01*
X183965643Y-87518375D01*
X183965641Y-87518380D01*
X183910494Y-87684802D01*
X183910493Y-87684809D01*
X183900000Y-87787513D01*
X182599998Y-87787513D01*
X182599998Y-87787512D01*
X182589505Y-87684802D01*
X182534358Y-87518380D01*
X182534356Y-87518375D01*
X182442315Y-87369154D01*
X182318345Y-87245184D01*
X182169124Y-87153143D01*
X182169119Y-87153141D01*
X182002697Y-87097994D01*
X182002690Y-87097993D01*
X181899986Y-87087500D01*
X181000000Y-87087500D01*
X181000000Y-88000000D01*
X180500000Y-88000000D01*
X180500000Y-87087500D01*
X179600028Y-87087500D01*
X179600012Y-87087501D01*
X179497302Y-87097994D01*
X179330880Y-87153141D01*
X179330875Y-87153143D01*
X179181654Y-87245184D01*
X179057684Y-87369154D01*
X178965643Y-87518375D01*
X178965641Y-87518380D01*
X178910494Y-87684802D01*
X178910493Y-87684809D01*
X178900000Y-87787513D01*
X177382119Y-87787513D01*
X177334358Y-87643380D01*
X177334356Y-87643375D01*
X177242315Y-87494154D01*
X177118345Y-87370184D01*
X176969124Y-87278143D01*
X176969119Y-87278141D01*
X176802697Y-87222994D01*
X176802690Y-87222993D01*
X176699986Y-87212500D01*
X176250000Y-87212500D01*
X176250000Y-88125000D01*
X175750000Y-88125000D01*
X175750000Y-87212500D01*
X175300028Y-87212500D01*
X175300012Y-87212501D01*
X175197302Y-87222994D01*
X175030880Y-87278141D01*
X175030875Y-87278143D01*
X174881654Y-87370184D01*
X174757684Y-87494154D01*
X174665643Y-87643375D01*
X174665641Y-87643380D01*
X174610494Y-87809802D01*
X174610493Y-87809809D01*
X174600000Y-87912513D01*
X173149998Y-87912513D01*
X173149998Y-87912512D01*
X173139505Y-87809802D01*
X173084358Y-87643380D01*
X173084356Y-87643375D01*
X172992315Y-87494154D01*
X172868345Y-87370184D01*
X172719124Y-87278143D01*
X172719119Y-87278141D01*
X172552697Y-87222994D01*
X172552690Y-87222993D01*
X172449986Y-87212500D01*
X172000000Y-87212500D01*
X172000000Y-88125000D01*
X171500000Y-88125000D01*
X171500000Y-87212500D01*
X171050028Y-87212500D01*
X171050012Y-87212501D01*
X170947302Y-87222994D01*
X170780880Y-87278141D01*
X170780875Y-87278143D01*
X170631654Y-87370184D01*
X170507684Y-87494154D01*
X170415643Y-87643375D01*
X170415641Y-87643380D01*
X170360494Y-87809802D01*
X170360493Y-87809809D01*
X170350000Y-87912513D01*
X168899998Y-87912513D01*
X168899998Y-87912512D01*
X168889505Y-87809802D01*
X168834358Y-87643380D01*
X168834356Y-87643375D01*
X168742315Y-87494154D01*
X168618345Y-87370184D01*
X168469124Y-87278143D01*
X168469119Y-87278141D01*
X168302697Y-87222994D01*
X168302690Y-87222993D01*
X168199986Y-87212500D01*
X167750000Y-87212500D01*
X167750000Y-88125000D01*
X167250000Y-88125000D01*
X167250000Y-87212500D01*
X166800028Y-87212500D01*
X166800012Y-87212501D01*
X166697302Y-87222994D01*
X166530880Y-87278141D01*
X166530875Y-87278143D01*
X166381654Y-87370184D01*
X166257684Y-87494154D01*
X166165643Y-87643375D01*
X166165641Y-87643380D01*
X166110494Y-87809802D01*
X166110493Y-87809809D01*
X166100000Y-87912513D01*
X163882119Y-87912513D01*
X163834358Y-87768380D01*
X163834356Y-87768375D01*
X163742315Y-87619154D01*
X163618345Y-87495184D01*
X163469124Y-87403143D01*
X163469119Y-87403141D01*
X163302697Y-87347994D01*
X163302690Y-87347993D01*
X163199986Y-87337500D01*
X162750000Y-87337500D01*
X162750000Y-88250000D01*
X162250000Y-88250000D01*
X162250000Y-87337500D01*
X161800028Y-87337500D01*
X161800012Y-87337501D01*
X161697302Y-87347994D01*
X161530880Y-87403141D01*
X161530875Y-87403143D01*
X161381654Y-87495184D01*
X161257684Y-87619154D01*
X161165643Y-87768375D01*
X161165641Y-87768380D01*
X161110494Y-87934802D01*
X161110493Y-87934809D01*
X161100000Y-88037513D01*
X159649998Y-88037513D01*
X159649998Y-88037512D01*
X159639505Y-87934802D01*
X159584358Y-87768380D01*
X159584356Y-87768375D01*
X159492315Y-87619154D01*
X159368345Y-87495184D01*
X159219124Y-87403143D01*
X159219119Y-87403141D01*
X159052697Y-87347994D01*
X159052690Y-87347993D01*
X158949986Y-87337500D01*
X158500000Y-87337500D01*
X158500000Y-88250000D01*
X158000000Y-88250000D01*
X158000000Y-87337500D01*
X157550028Y-87337500D01*
X157550012Y-87337501D01*
X157447302Y-87347994D01*
X157280880Y-87403141D01*
X157280875Y-87403143D01*
X157131654Y-87495184D01*
X157007684Y-87619154D01*
X156915643Y-87768375D01*
X156915641Y-87768380D01*
X156860494Y-87934802D01*
X156860493Y-87934809D01*
X156850000Y-88037513D01*
X153413510Y-88037513D01*
X153342093Y-87984050D01*
X153342086Y-87984046D01*
X153207379Y-87933804D01*
X153207372Y-87933802D01*
X153147844Y-87927401D01*
X152750000Y-87927401D01*
X152750000Y-88777401D01*
X152666988Y-88777401D01*
X152615796Y-88747845D01*
X152539496Y-88727401D01*
X152460504Y-88727401D01*
X152384204Y-88747845D01*
X152315795Y-88787341D01*
X152259940Y-88843196D01*
X152220444Y-88911605D01*
X152200000Y-88987905D01*
X152200000Y-89066897D01*
X152220444Y-89143197D01*
X152259940Y-89211606D01*
X152315795Y-89267461D01*
X152333012Y-89277401D01*
X151400000Y-89277401D01*
X151400000Y-89675245D01*
X151406401Y-89734773D01*
X151406403Y-89734780D01*
X151456645Y-89869487D01*
X151456649Y-89869494D01*
X151542809Y-89984588D01*
X151542812Y-89984591D01*
X151657907Y-90070751D01*
X151661998Y-90072986D01*
X151711401Y-90122394D01*
X151726250Y-90190667D01*
X151701830Y-90256131D01*
X151690248Y-90269496D01*
X151654481Y-90305263D01*
X151654477Y-90305268D01*
X151551928Y-90446416D01*
X151472711Y-90601884D01*
X151472710Y-90601887D01*
X151418795Y-90767825D01*
X151391500Y-90940160D01*
X145542863Y-90940160D01*
X145574849Y-90808903D01*
X145576301Y-90803494D01*
X145599045Y-90726034D01*
X145599761Y-90723693D01*
X145730227Y-90312625D01*
X145732195Y-90306921D01*
X145754807Y-90246295D01*
X145755538Y-90244392D01*
X145919781Y-89827900D01*
X145922309Y-89821953D01*
X145939093Y-89785202D01*
X145939755Y-89783782D01*
X146142650Y-89357154D01*
X146145758Y-89351065D01*
X146146836Y-89349089D01*
X146147331Y-89348195D01*
X146393513Y-88910362D01*
X146397898Y-88903151D01*
X146674129Y-88482002D01*
X146678981Y-88475128D01*
X146751456Y-88379556D01*
X151400000Y-88379556D01*
X151400000Y-88777401D01*
X152250000Y-88777401D01*
X152250000Y-87927401D01*
X151852155Y-87927401D01*
X151792627Y-87933802D01*
X151792620Y-87933804D01*
X151657913Y-87984046D01*
X151657906Y-87984050D01*
X151542812Y-88070210D01*
X151542809Y-88070213D01*
X151456649Y-88185307D01*
X151456645Y-88185314D01*
X151406403Y-88320021D01*
X151406401Y-88320028D01*
X151400000Y-88379556D01*
X146751456Y-88379556D01*
X146983318Y-88073800D01*
X146988619Y-88067285D01*
X147319625Y-87687672D01*
X147325375Y-87681515D01*
X147681515Y-87325375D01*
X147687672Y-87319625D01*
X148067285Y-86988619D01*
X148073800Y-86983318D01*
X148475128Y-86678981D01*
X148482002Y-86674129D01*
X148903151Y-86397898D01*
X148910362Y-86393513D01*
X149348195Y-86147331D01*
X149349089Y-86146836D01*
X149351069Y-86145755D01*
X149357154Y-86142650D01*
X149783782Y-85939755D01*
X149785202Y-85939093D01*
X149821953Y-85922309D01*
X149827900Y-85919781D01*
X150244392Y-85755538D01*
X150246295Y-85754807D01*
X150306921Y-85732195D01*
X150312625Y-85730227D01*
X150723693Y-85599761D01*
X150726034Y-85599045D01*
X150803494Y-85576301D01*
X150808903Y-85574849D01*
X151217029Y-85475392D01*
X151219868Y-85474737D01*
X151309114Y-85455323D01*
X151314316Y-85454309D01*
X151720935Y-85384201D01*
X151724092Y-85383702D01*
X151821346Y-85369719D01*
X151826227Y-85369117D01*
X152232047Y-85327397D01*
X152235739Y-85327076D01*
X152337510Y-85319797D01*
X152342021Y-85319558D01*
X152792068Y-85304183D01*
X152801164Y-85303873D01*
X152805397Y-85303801D01*
X182997875Y-85303801D01*
X183002107Y-85303872D01*
G37*
%TD.AperFunction*%
%TD*%
M02*
