%TF.GenerationSoftware,KiCad,Pcbnew,9.0.9*%
%TF.CreationDate,2026-09-18T17:53:03-05:00*%
%TF.ProjectId,hw-horns,68772d68-6f72-46e7-932e-6b696361645f,1.0*%
%TF.SameCoordinates,Original*%
%TF.FileFunction,Soldermask,Top*%
%TF.FilePolarity,Negative*%
%FSLAX46Y46*%
G04 Gerber Fmt 4.6, Leading zero omitted, Abs format (unit mm)*
G04 Created by KiCad (PCBNEW 9.0.9) date 2026-09-18 17:53:03*
%MOMM*%
%LPD*%
G01*
G04 APERTURE LIST*
G04 Aperture macros list*
%AMRoundRect*
0 Rectangle with rounded corners*
0 $1 Rounding radius*
0 $2 $3 $4 $5 $6 $7 $8 $9 X,Y pos of 4 corners*
0 Add a 4 corners polygon primitive as box body*
4,1,4,$2,$3,$4,$5,$6,$7,$8,$9,$2,$3,0*
0 Add four circle primitives for the rounded corners*
1,1,$1+$1,$2,$3*
1,1,$1+$1,$4,$5*
1,1,$1+$1,$6,$7*
1,1,$1+$1,$8,$9*
0 Add four rect primitives between the rounded corners*
20,1,$1+$1,$2,$3,$4,$5,0*
20,1,$1+$1,$4,$5,$6,$7,0*
20,1,$1+$1,$6,$7,$8,$9,0*
20,1,$1+$1,$8,$9,$2,$3,0*%
G04 Aperture macros list end*
%ADD10C,2.100000*%
%ADD11RoundRect,0.250000X-0.845000X0.620000X-0.845000X-0.620000X0.845000X-0.620000X0.845000X0.620000X0*%
%ADD12O,2.190000X1.740000*%
%ADD13RoundRect,0.250000X-0.620000X-0.845000X0.620000X-0.845000X0.620000X0.845000X-0.620000X0.845000X0*%
%ADD14O,1.740000X2.190000*%
%ADD15RoundRect,0.250000X-1.100000X0.412500X-1.100000X-0.412500X1.100000X-0.412500X1.100000X0.412500X0*%
%ADD16R,1.200000X1.200000*%
%ADD17C,1.200000*%
%ADD18RoundRect,0.250000X0.845000X-0.620000X0.845000X0.620000X-0.845000X0.620000X-0.845000X-0.620000X0*%
%ADD19RoundRect,0.250000X-0.650000X0.412500X-0.650000X-0.412500X0.650000X-0.412500X0.650000X0.412500X0*%
%ADD20RoundRect,0.250000X0.650000X-0.412500X0.650000X0.412500X-0.650000X0.412500X-0.650000X-0.412500X0*%
%ADD21RoundRect,0.160000X0.222500X0.160000X-0.222500X0.160000X-0.222500X-0.160000X0.222500X-0.160000X0*%
%ADD22RoundRect,0.237500X-0.237500X0.250000X-0.237500X-0.250000X0.237500X-0.250000X0.237500X0.250000X0*%
%ADD23R,1.200000X2.200000*%
%ADD24R,5.800000X6.400000*%
%ADD25R,1.800000X2.500000*%
G04 APERTURE END LIST*
D10*
%TO.C,REF\u002A\u002A*%
X186500000Y-95000000D03*
%TD*%
%TO.C,REF\u002A\u002A*%
X149000000Y-94500000D03*
%TD*%
%TO.C,REF\u002A\u002A*%
X150500000Y-113750000D03*
%TD*%
%TO.C,REF\u002A\u002A*%
X185250000Y-113750000D03*
%TD*%
D11*
%TO.C,J4*%
X176520000Y-107500000D03*
D12*
X176520000Y-110040000D03*
%TD*%
D13*
%TO.C,J2*%
X163710000Y-113750000D03*
D14*
X166250000Y-113750000D03*
%TD*%
D11*
%TO.C,J3*%
X176500000Y-97500000D03*
D12*
X176500000Y-100040000D03*
%TD*%
D15*
%TO.C,C8*%
X185750000Y-88250000D03*
X185750000Y-91375000D03*
%TD*%
D16*
%TO.C,C1*%
X152500000Y-89027401D03*
D17*
X152500000Y-91027401D03*
%TD*%
D18*
%TO.C,J1*%
X154500000Y-103540000D03*
D12*
X154500000Y-101000000D03*
X154500000Y-98460000D03*
%TD*%
D19*
%TO.C,C2*%
X158250000Y-88500000D03*
X158250000Y-91625000D03*
%TD*%
%TO.C,C3*%
X162500000Y-88500000D03*
X162500000Y-91625000D03*
%TD*%
%TO.C,C5*%
X171750000Y-88375000D03*
X171750000Y-91500000D03*
%TD*%
D20*
%TO.C,C9*%
X156500000Y-115875000D03*
X156500000Y-112750000D03*
%TD*%
D21*
%TO.C,F1*%
X170822500Y-115250000D03*
X169677500Y-115250000D03*
%TD*%
D22*
%TO.C,R1*%
X156500000Y-108425000D03*
X156500000Y-110250000D03*
%TD*%
D15*
%TO.C,C7*%
X180750000Y-88250000D03*
X180750000Y-91375000D03*
%TD*%
D19*
%TO.C,C6*%
X176000000Y-88375000D03*
X176000000Y-91500000D03*
%TD*%
D23*
%TO.C,Q1*%
X162720000Y-107125000D03*
X165000000Y-107125000D03*
D24*
X165000000Y-100825000D03*
D23*
X167280000Y-107125000D03*
%TD*%
D25*
%TO.C,D1*%
X184000000Y-101000000D03*
X184000000Y-105000000D03*
%TD*%
D19*
%TO.C,C4*%
X167500000Y-88375000D03*
X167500000Y-91500000D03*
%TD*%
M02*
