%TF.GenerationSoftware,KiCad,Pcbnew,9.0.9*%
%TF.CreationDate,2026-09-25T13:44:25-05:00*%
%TF.ProjectId,jacobtk5_Horns_v1.0,6a61636f-6274-46b3-955f-486f726e735f,0.0*%
%TF.SameCoordinates,Original*%
%TF.FileFunction,Soldermask,Top*%
%TF.FilePolarity,Negative*%
%FSLAX46Y46*%
G04 Gerber Fmt 4.6, Leading zero omitted, Abs format (unit mm)*
G04 Created by KiCad (PCBNEW 9.0.9) date 2026-09-25 13:44:25*
%MOMM*%
%LPD*%
G01*
G04 APERTURE LIST*
G04 Aperture macros list*
%AMRoundRect*
0 Rectangle with rounded corners*
0 $1 Rounding radius*
0 $2 $3 $4 $5 $6 $7 $8 $9 X,Y pos of 4 corners*
0 Add a 4 corners polygon primitive as box body*
4,1,4,$2,$3,$4,$5,$6,$7,$8,$9,$2,$3,0*
0 Add four circle primitives for the rounded corners*
1,1,$1+$1,$2,$3*
1,1,$1+$1,$4,$5*
1,1,$1+$1,$6,$7*
1,1,$1+$1,$8,$9*
0 Add four rect primitives between the rounded corners*
20,1,$1+$1,$2,$3,$4,$5,0*
20,1,$1+$1,$4,$5,$6,$7,0*
20,1,$1+$1,$6,$7,$8,$9,0*
20,1,$1+$1,$8,$9,$2,$3,0*%
G04 Aperture macros list end*
%ADD10R,2.500000X2.300000*%
%ADD11C,6.400000*%
%ADD12R,2.200000X1.200000*%
%ADD13R,6.400000X5.800000*%
%ADD14O,1.740000X2.190000*%
%ADD15RoundRect,0.250000X-0.620000X-0.845000X0.620000X-0.845000X0.620000X0.845000X-0.620000X0.845000X0*%
%ADD16RoundRect,0.237500X-0.250000X-0.237500X0.250000X-0.237500X0.250000X0.237500X-0.250000X0.237500X0*%
%ADD17R,2.200000X1.600000*%
%ADD18RoundRect,0.147500X0.147500X0.172500X-0.147500X0.172500X-0.147500X-0.172500X0.147500X-0.172500X0*%
%ADD19R,1.600000X1.600000*%
%ADD20C,1.600000*%
G04 APERTURE END LIST*
D10*
%TO.C,D1*%
X149850000Y-105000000D03*
X154150000Y-105000000D03*
%TD*%
D11*
%TO.C,REF\u002A\u002A*%
X124079000Y-114935000D03*
%TD*%
%TO.C,REF\u002A\u002A*%
X165608000Y-86233000D03*
%TD*%
%TO.C,REF\u002A\u002A*%
X165862000Y-114808000D03*
%TD*%
%TO.C,REF\u002A\u002A*%
X124714000Y-86233000D03*
%TD*%
D12*
%TO.C,Q1*%
X159205000Y-104006000D03*
D13*
X165505000Y-101726000D03*
D12*
X159205000Y-101726000D03*
X159205000Y-99446000D03*
%TD*%
D14*
%TO.C,J2*%
X133985000Y-95397000D03*
D15*
X131445000Y-95397000D03*
%TD*%
D16*
%TO.C,R1*%
X139469500Y-90297000D03*
X137644500Y-90297000D03*
%TD*%
D17*
%TO.C,C6*%
X138500000Y-111000000D03*
X135500000Y-111000000D03*
%TD*%
%TO.C,C5*%
X138500000Y-106150000D03*
X135500000Y-106150000D03*
%TD*%
%TO.C,C4*%
X138500000Y-101300000D03*
X135500000Y-101300000D03*
%TD*%
%TO.C,C2*%
X131750000Y-106150000D03*
X128750000Y-106150000D03*
%TD*%
%TO.C,C3*%
X131750000Y-111000000D03*
X128750000Y-111000000D03*
%TD*%
D15*
%TO.C,J4*%
X151638000Y-95377000D03*
D14*
X154178000Y-95377000D03*
%TD*%
D15*
%TO.C,J3*%
X143383000Y-95357000D03*
D14*
X145923000Y-95357000D03*
%TD*%
D15*
%TO.C,J1*%
X152908000Y-111379000D03*
D14*
X155448000Y-111379000D03*
X157988000Y-111379000D03*
%TD*%
D18*
%TO.C,F1*%
X156164000Y-101981000D03*
X155194000Y-101981000D03*
%TD*%
D17*
%TO.C,C8*%
X142250000Y-106150000D03*
X145250000Y-106150000D03*
%TD*%
%TO.C,C7*%
X142250000Y-101300000D03*
X145250000Y-101300000D03*
%TD*%
%TO.C,C1*%
X159028000Y-94107000D03*
X162028000Y-94107000D03*
%TD*%
D19*
%TO.C,C9*%
X143347349Y-113000000D03*
D20*
X146847349Y-113000000D03*
%TD*%
M02*
