%TF.GenerationSoftware,KiCad,Pcbnew,9.0.9-rc1*%
%TF.CreationDate,2026-09-26T21:47:48-05:00*%
%TF.ProjectId,proj2_kicad_v0.0,70726f6a-325f-46b6-9963-61645f76302e,1.0*%
%TF.SameCoordinates,Original*%
%TF.FileFunction,Legend,Top*%
%TF.FilePolarity,Positive*%
%FSLAX46Y46*%
G04 Gerber Fmt 4.6, Leading zero omitted, Abs format (unit mm)*
G04 Created by KiCad (PCBNEW 9.0.9-rc1) date 2026-09-26 21:47:48*
%MOMM*%
%LPD*%
G01*
G04 APERTURE LIST*
%ADD10C,0.150000*%
%ADD11C,0.120000*%
G04 APERTURE END LIST*
D10*
X132675333Y-105007580D02*
X132627714Y-105055200D01*
X132627714Y-105055200D02*
X132484857Y-105102819D01*
X132484857Y-105102819D02*
X132389619Y-105102819D01*
X132389619Y-105102819D02*
X132246762Y-105055200D01*
X132246762Y-105055200D02*
X132151524Y-104959961D01*
X132151524Y-104959961D02*
X132103905Y-104864723D01*
X132103905Y-104864723D02*
X132056286Y-104674247D01*
X132056286Y-104674247D02*
X132056286Y-104531390D01*
X132056286Y-104531390D02*
X132103905Y-104340914D01*
X132103905Y-104340914D02*
X132151524Y-104245676D01*
X132151524Y-104245676D02*
X132246762Y-104150438D01*
X132246762Y-104150438D02*
X132389619Y-104102819D01*
X132389619Y-104102819D02*
X132484857Y-104102819D01*
X132484857Y-104102819D02*
X132627714Y-104150438D01*
X132627714Y-104150438D02*
X132675333Y-104198057D01*
X133008667Y-104102819D02*
X133675333Y-104102819D01*
X133675333Y-104102819D02*
X133246762Y-105102819D01*
X139870833Y-103679580D02*
X139823214Y-103727200D01*
X139823214Y-103727200D02*
X139680357Y-103774819D01*
X139680357Y-103774819D02*
X139585119Y-103774819D01*
X139585119Y-103774819D02*
X139442262Y-103727200D01*
X139442262Y-103727200D02*
X139347024Y-103631961D01*
X139347024Y-103631961D02*
X139299405Y-103536723D01*
X139299405Y-103536723D02*
X139251786Y-103346247D01*
X139251786Y-103346247D02*
X139251786Y-103203390D01*
X139251786Y-103203390D02*
X139299405Y-103012914D01*
X139299405Y-103012914D02*
X139347024Y-102917676D01*
X139347024Y-102917676D02*
X139442262Y-102822438D01*
X139442262Y-102822438D02*
X139585119Y-102774819D01*
X139585119Y-102774819D02*
X139680357Y-102774819D01*
X139680357Y-102774819D02*
X139823214Y-102822438D01*
X139823214Y-102822438D02*
X139870833Y-102870057D01*
X140442262Y-103203390D02*
X140347024Y-103155771D01*
X140347024Y-103155771D02*
X140299405Y-103108152D01*
X140299405Y-103108152D02*
X140251786Y-103012914D01*
X140251786Y-103012914D02*
X140251786Y-102965295D01*
X140251786Y-102965295D02*
X140299405Y-102870057D01*
X140299405Y-102870057D02*
X140347024Y-102822438D01*
X140347024Y-102822438D02*
X140442262Y-102774819D01*
X140442262Y-102774819D02*
X140632738Y-102774819D01*
X140632738Y-102774819D02*
X140727976Y-102822438D01*
X140727976Y-102822438D02*
X140775595Y-102870057D01*
X140775595Y-102870057D02*
X140823214Y-102965295D01*
X140823214Y-102965295D02*
X140823214Y-103012914D01*
X140823214Y-103012914D02*
X140775595Y-103108152D01*
X140775595Y-103108152D02*
X140727976Y-103155771D01*
X140727976Y-103155771D02*
X140632738Y-103203390D01*
X140632738Y-103203390D02*
X140442262Y-103203390D01*
X140442262Y-103203390D02*
X140347024Y-103251009D01*
X140347024Y-103251009D02*
X140299405Y-103298628D01*
X140299405Y-103298628D02*
X140251786Y-103393866D01*
X140251786Y-103393866D02*
X140251786Y-103584342D01*
X140251786Y-103584342D02*
X140299405Y-103679580D01*
X140299405Y-103679580D02*
X140347024Y-103727200D01*
X140347024Y-103727200D02*
X140442262Y-103774819D01*
X140442262Y-103774819D02*
X140632738Y-103774819D01*
X140632738Y-103774819D02*
X140727976Y-103727200D01*
X140727976Y-103727200D02*
X140775595Y-103679580D01*
X140775595Y-103679580D02*
X140823214Y-103584342D01*
X140823214Y-103584342D02*
X140823214Y-103393866D01*
X140823214Y-103393866D02*
X140775595Y-103298628D01*
X140775595Y-103298628D02*
X140727976Y-103251009D01*
X140727976Y-103251009D02*
X140632738Y-103203390D01*
X146111905Y-100454819D02*
X146111905Y-99454819D01*
X146111905Y-99454819D02*
X146350000Y-99454819D01*
X146350000Y-99454819D02*
X146492857Y-99502438D01*
X146492857Y-99502438D02*
X146588095Y-99597676D01*
X146588095Y-99597676D02*
X146635714Y-99692914D01*
X146635714Y-99692914D02*
X146683333Y-99883390D01*
X146683333Y-99883390D02*
X146683333Y-100026247D01*
X146683333Y-100026247D02*
X146635714Y-100216723D01*
X146635714Y-100216723D02*
X146588095Y-100311961D01*
X146588095Y-100311961D02*
X146492857Y-100407200D01*
X146492857Y-100407200D02*
X146350000Y-100454819D01*
X146350000Y-100454819D02*
X146111905Y-100454819D01*
X147635714Y-100454819D02*
X147064286Y-100454819D01*
X147350000Y-100454819D02*
X147350000Y-99454819D01*
X147350000Y-99454819D02*
X147254762Y-99597676D01*
X147254762Y-99597676D02*
X147159524Y-99692914D01*
X147159524Y-99692914D02*
X147064286Y-99740533D01*
X143071427Y-95150057D02*
X142976189Y-95102438D01*
X142976189Y-95102438D02*
X142880951Y-95007200D01*
X142880951Y-95007200D02*
X142738094Y-94864342D01*
X142738094Y-94864342D02*
X142642856Y-94816723D01*
X142642856Y-94816723D02*
X142547618Y-94816723D01*
X142595237Y-95054819D02*
X142499999Y-95007200D01*
X142499999Y-95007200D02*
X142404761Y-94911961D01*
X142404761Y-94911961D02*
X142357142Y-94721485D01*
X142357142Y-94721485D02*
X142357142Y-94388152D01*
X142357142Y-94388152D02*
X142404761Y-94197676D01*
X142404761Y-94197676D02*
X142499999Y-94102438D01*
X142499999Y-94102438D02*
X142595237Y-94054819D01*
X142595237Y-94054819D02*
X142785713Y-94054819D01*
X142785713Y-94054819D02*
X142880951Y-94102438D01*
X142880951Y-94102438D02*
X142976189Y-94197676D01*
X142976189Y-94197676D02*
X143023808Y-94388152D01*
X143023808Y-94388152D02*
X143023808Y-94721485D01*
X143023808Y-94721485D02*
X142976189Y-94911961D01*
X142976189Y-94911961D02*
X142880951Y-95007200D01*
X142880951Y-95007200D02*
X142785713Y-95054819D01*
X142785713Y-95054819D02*
X142595237Y-95054819D01*
X143976189Y-95054819D02*
X143404761Y-95054819D01*
X143690475Y-95054819D02*
X143690475Y-94054819D01*
X143690475Y-94054819D02*
X143595237Y-94197676D01*
X143595237Y-94197676D02*
X143499999Y-94292914D01*
X143499999Y-94292914D02*
X143404761Y-94340533D01*
X144690475Y-95435771D02*
X144642856Y-95388152D01*
X144642856Y-95388152D02*
X144547618Y-95245295D01*
X144547618Y-95245295D02*
X144499999Y-95150057D01*
X144499999Y-95150057D02*
X144452380Y-95007200D01*
X144452380Y-95007200D02*
X144404761Y-94769104D01*
X144404761Y-94769104D02*
X144404761Y-94578628D01*
X144404761Y-94578628D02*
X144452380Y-94340533D01*
X144452380Y-94340533D02*
X144499999Y-94197676D01*
X144499999Y-94197676D02*
X144547618Y-94102438D01*
X144547618Y-94102438D02*
X144642856Y-93959580D01*
X144642856Y-93959580D02*
X144690475Y-93911961D01*
X145071428Y-95054819D02*
X145071428Y-94054819D01*
X145071428Y-94054819D02*
X145404761Y-94769104D01*
X145404761Y-94769104D02*
X145738094Y-94054819D01*
X145738094Y-94054819D02*
X145738094Y-95054819D01*
X146404761Y-94054819D02*
X146595237Y-94054819D01*
X146595237Y-94054819D02*
X146690475Y-94102438D01*
X146690475Y-94102438D02*
X146785713Y-94197676D01*
X146785713Y-94197676D02*
X146833332Y-94388152D01*
X146833332Y-94388152D02*
X146833332Y-94721485D01*
X146833332Y-94721485D02*
X146785713Y-94911961D01*
X146785713Y-94911961D02*
X146690475Y-95007200D01*
X146690475Y-95007200D02*
X146595237Y-95054819D01*
X146595237Y-95054819D02*
X146404761Y-95054819D01*
X146404761Y-95054819D02*
X146309523Y-95007200D01*
X146309523Y-95007200D02*
X146214285Y-94911961D01*
X146214285Y-94911961D02*
X146166666Y-94721485D01*
X146166666Y-94721485D02*
X146166666Y-94388152D01*
X146166666Y-94388152D02*
X146214285Y-94197676D01*
X146214285Y-94197676D02*
X146309523Y-94102438D01*
X146309523Y-94102438D02*
X146404761Y-94054819D01*
X147214285Y-95007200D02*
X147357142Y-95054819D01*
X147357142Y-95054819D02*
X147595237Y-95054819D01*
X147595237Y-95054819D02*
X147690475Y-95007200D01*
X147690475Y-95007200D02*
X147738094Y-94959580D01*
X147738094Y-94959580D02*
X147785713Y-94864342D01*
X147785713Y-94864342D02*
X147785713Y-94769104D01*
X147785713Y-94769104D02*
X147738094Y-94673866D01*
X147738094Y-94673866D02*
X147690475Y-94626247D01*
X147690475Y-94626247D02*
X147595237Y-94578628D01*
X147595237Y-94578628D02*
X147404761Y-94531009D01*
X147404761Y-94531009D02*
X147309523Y-94483390D01*
X147309523Y-94483390D02*
X147261904Y-94435771D01*
X147261904Y-94435771D02*
X147214285Y-94340533D01*
X147214285Y-94340533D02*
X147214285Y-94245295D01*
X147214285Y-94245295D02*
X147261904Y-94150057D01*
X147261904Y-94150057D02*
X147309523Y-94102438D01*
X147309523Y-94102438D02*
X147404761Y-94054819D01*
X147404761Y-94054819D02*
X147642856Y-94054819D01*
X147642856Y-94054819D02*
X147785713Y-94102438D01*
X148547618Y-94531009D02*
X148214285Y-94531009D01*
X148214285Y-95054819D02*
X148214285Y-94054819D01*
X148214285Y-94054819D02*
X148690475Y-94054819D01*
X149071428Y-94531009D02*
X149404761Y-94531009D01*
X149547618Y-95054819D02*
X149071428Y-95054819D01*
X149071428Y-95054819D02*
X149071428Y-94054819D01*
X149071428Y-94054819D02*
X149547618Y-94054819D01*
X149833333Y-94054819D02*
X150404761Y-94054819D01*
X150119047Y-95054819D02*
X150119047Y-94054819D01*
X150500000Y-95150057D02*
X151261904Y-95150057D01*
X151452381Y-95007200D02*
X151595238Y-95054819D01*
X151595238Y-95054819D02*
X151833333Y-95054819D01*
X151833333Y-95054819D02*
X151928571Y-95007200D01*
X151928571Y-95007200D02*
X151976190Y-94959580D01*
X151976190Y-94959580D02*
X152023809Y-94864342D01*
X152023809Y-94864342D02*
X152023809Y-94769104D01*
X152023809Y-94769104D02*
X151976190Y-94673866D01*
X151976190Y-94673866D02*
X151928571Y-94626247D01*
X151928571Y-94626247D02*
X151833333Y-94578628D01*
X151833333Y-94578628D02*
X151642857Y-94531009D01*
X151642857Y-94531009D02*
X151547619Y-94483390D01*
X151547619Y-94483390D02*
X151500000Y-94435771D01*
X151500000Y-94435771D02*
X151452381Y-94340533D01*
X151452381Y-94340533D02*
X151452381Y-94245295D01*
X151452381Y-94245295D02*
X151500000Y-94150057D01*
X151500000Y-94150057D02*
X151547619Y-94102438D01*
X151547619Y-94102438D02*
X151642857Y-94054819D01*
X151642857Y-94054819D02*
X151880952Y-94054819D01*
X151880952Y-94054819D02*
X152023809Y-94102438D01*
X152357143Y-94054819D02*
X152595238Y-95054819D01*
X152595238Y-95054819D02*
X152785714Y-94340533D01*
X152785714Y-94340533D02*
X152976190Y-95054819D01*
X152976190Y-95054819D02*
X153214286Y-94054819D01*
X153738095Y-94959580D02*
X153785714Y-95007200D01*
X153785714Y-95007200D02*
X153738095Y-95054819D01*
X153738095Y-95054819D02*
X153690476Y-95007200D01*
X153690476Y-95007200D02*
X153738095Y-94959580D01*
X153738095Y-94959580D02*
X153738095Y-95054819D01*
X153547619Y-94102438D02*
X153642857Y-94054819D01*
X153642857Y-94054819D02*
X153880952Y-94054819D01*
X153880952Y-94054819D02*
X153976190Y-94102438D01*
X153976190Y-94102438D02*
X154023809Y-94197676D01*
X154023809Y-94197676D02*
X154023809Y-94292914D01*
X154023809Y-94292914D02*
X153976190Y-94388152D01*
X153976190Y-94388152D02*
X153928571Y-94435771D01*
X153928571Y-94435771D02*
X153833333Y-94483390D01*
X153833333Y-94483390D02*
X153785714Y-94531009D01*
X153785714Y-94531009D02*
X153738095Y-94626247D01*
X153738095Y-94626247D02*
X153738095Y-94673866D01*
X154357143Y-95435771D02*
X154404762Y-95388152D01*
X154404762Y-95388152D02*
X154500000Y-95245295D01*
X154500000Y-95245295D02*
X154547619Y-95150057D01*
X154547619Y-95150057D02*
X154595238Y-95007200D01*
X154595238Y-95007200D02*
X154642857Y-94769104D01*
X154642857Y-94769104D02*
X154642857Y-94578628D01*
X154642857Y-94578628D02*
X154595238Y-94340533D01*
X154595238Y-94340533D02*
X154547619Y-94197676D01*
X154547619Y-94197676D02*
X154500000Y-94102438D01*
X154500000Y-94102438D02*
X154404762Y-93959580D01*
X154404762Y-93959580D02*
X154357143Y-93911961D01*
X155642857Y-95054819D02*
X155071429Y-95054819D01*
X155357143Y-95054819D02*
X155357143Y-94054819D01*
X155357143Y-94054819D02*
X155261905Y-94197676D01*
X155261905Y-94197676D02*
X155166667Y-94292914D01*
X155166667Y-94292914D02*
X155071429Y-94340533D01*
X153666666Y-99254819D02*
X153333333Y-98778628D01*
X153095238Y-99254819D02*
X153095238Y-98254819D01*
X153095238Y-98254819D02*
X153476190Y-98254819D01*
X153476190Y-98254819D02*
X153571428Y-98302438D01*
X153571428Y-98302438D02*
X153619047Y-98350057D01*
X153619047Y-98350057D02*
X153666666Y-98445295D01*
X153666666Y-98445295D02*
X153666666Y-98588152D01*
X153666666Y-98588152D02*
X153619047Y-98683390D01*
X153619047Y-98683390D02*
X153571428Y-98731009D01*
X153571428Y-98731009D02*
X153476190Y-98778628D01*
X153476190Y-98778628D02*
X153095238Y-98778628D01*
X154095238Y-98731009D02*
X154428571Y-98731009D01*
X154571428Y-99254819D02*
X154095238Y-99254819D01*
X154095238Y-99254819D02*
X154095238Y-98254819D01*
X154095238Y-98254819D02*
X154571428Y-98254819D01*
X155333333Y-98731009D02*
X155000000Y-98731009D01*
X155000000Y-99254819D02*
X155000000Y-98254819D01*
X155000000Y-98254819D02*
X155476190Y-98254819D01*
X156000000Y-98254819D02*
X156000000Y-98492914D01*
X155761905Y-98397676D02*
X156000000Y-98492914D01*
X156000000Y-98492914D02*
X156238095Y-98397676D01*
X155857143Y-98683390D02*
X156000000Y-98492914D01*
X156000000Y-98492914D02*
X156142857Y-98683390D01*
X156761905Y-98254819D02*
X156761905Y-98492914D01*
X156523810Y-98397676D02*
X156761905Y-98492914D01*
X156761905Y-98492914D02*
X157000000Y-98397676D01*
X156619048Y-98683390D02*
X156761905Y-98492914D01*
X156761905Y-98492914D02*
X156904762Y-98683390D01*
X120666666Y-82254819D02*
X120333333Y-81778628D01*
X120095238Y-82254819D02*
X120095238Y-81254819D01*
X120095238Y-81254819D02*
X120476190Y-81254819D01*
X120476190Y-81254819D02*
X120571428Y-81302438D01*
X120571428Y-81302438D02*
X120619047Y-81350057D01*
X120619047Y-81350057D02*
X120666666Y-81445295D01*
X120666666Y-81445295D02*
X120666666Y-81588152D01*
X120666666Y-81588152D02*
X120619047Y-81683390D01*
X120619047Y-81683390D02*
X120571428Y-81731009D01*
X120571428Y-81731009D02*
X120476190Y-81778628D01*
X120476190Y-81778628D02*
X120095238Y-81778628D01*
X121095238Y-81731009D02*
X121428571Y-81731009D01*
X121571428Y-82254819D02*
X121095238Y-82254819D01*
X121095238Y-82254819D02*
X121095238Y-81254819D01*
X121095238Y-81254819D02*
X121571428Y-81254819D01*
X122333333Y-81731009D02*
X122000000Y-81731009D01*
X122000000Y-82254819D02*
X122000000Y-81254819D01*
X122000000Y-81254819D02*
X122476190Y-81254819D01*
X123000000Y-81254819D02*
X123000000Y-81492914D01*
X122761905Y-81397676D02*
X123000000Y-81492914D01*
X123000000Y-81492914D02*
X123238095Y-81397676D01*
X122857143Y-81683390D02*
X123000000Y-81492914D01*
X123000000Y-81492914D02*
X123142857Y-81683390D01*
X123761905Y-81254819D02*
X123761905Y-81492914D01*
X123523810Y-81397676D02*
X123761905Y-81492914D01*
X123761905Y-81492914D02*
X124000000Y-81397676D01*
X123619048Y-81683390D02*
X123761905Y-81492914D01*
X123761905Y-81492914D02*
X123904762Y-81683390D01*
X125281323Y-82242819D02*
X125281323Y-81242819D01*
X125281323Y-81719009D02*
X125852751Y-81719009D01*
X125852751Y-82242819D02*
X125852751Y-81242819D01*
X126471799Y-82242819D02*
X126376561Y-82195200D01*
X126376561Y-82195200D02*
X126328942Y-82147580D01*
X126328942Y-82147580D02*
X126281323Y-82052342D01*
X126281323Y-82052342D02*
X126281323Y-81766628D01*
X126281323Y-81766628D02*
X126328942Y-81671390D01*
X126328942Y-81671390D02*
X126376561Y-81623771D01*
X126376561Y-81623771D02*
X126471799Y-81576152D01*
X126471799Y-81576152D02*
X126614656Y-81576152D01*
X126614656Y-81576152D02*
X126709894Y-81623771D01*
X126709894Y-81623771D02*
X126757513Y-81671390D01*
X126757513Y-81671390D02*
X126805132Y-81766628D01*
X126805132Y-81766628D02*
X126805132Y-82052342D01*
X126805132Y-82052342D02*
X126757513Y-82147580D01*
X126757513Y-82147580D02*
X126709894Y-82195200D01*
X126709894Y-82195200D02*
X126614656Y-82242819D01*
X126614656Y-82242819D02*
X126471799Y-82242819D01*
X127233704Y-82242819D02*
X127233704Y-81576152D01*
X127233704Y-81766628D02*
X127281323Y-81671390D01*
X127281323Y-81671390D02*
X127328942Y-81623771D01*
X127328942Y-81623771D02*
X127424180Y-81576152D01*
X127424180Y-81576152D02*
X127519418Y-81576152D01*
X127852752Y-81576152D02*
X127852752Y-82242819D01*
X127852752Y-81671390D02*
X127900371Y-81623771D01*
X127900371Y-81623771D02*
X127995609Y-81576152D01*
X127995609Y-81576152D02*
X128138466Y-81576152D01*
X128138466Y-81576152D02*
X128233704Y-81623771D01*
X128233704Y-81623771D02*
X128281323Y-81719009D01*
X128281323Y-81719009D02*
X128281323Y-82242819D01*
X129328942Y-82147580D02*
X129281323Y-82195200D01*
X129281323Y-82195200D02*
X129138466Y-82242819D01*
X129138466Y-82242819D02*
X129043228Y-82242819D01*
X129043228Y-82242819D02*
X128900371Y-82195200D01*
X128900371Y-82195200D02*
X128805133Y-82099961D01*
X128805133Y-82099961D02*
X128757514Y-82004723D01*
X128757514Y-82004723D02*
X128709895Y-81814247D01*
X128709895Y-81814247D02*
X128709895Y-81671390D01*
X128709895Y-81671390D02*
X128757514Y-81480914D01*
X128757514Y-81480914D02*
X128805133Y-81385676D01*
X128805133Y-81385676D02*
X128900371Y-81290438D01*
X128900371Y-81290438D02*
X129043228Y-81242819D01*
X129043228Y-81242819D02*
X129138466Y-81242819D01*
X129138466Y-81242819D02*
X129281323Y-81290438D01*
X129281323Y-81290438D02*
X129328942Y-81338057D01*
X129900371Y-82242819D02*
X129805133Y-82195200D01*
X129805133Y-82195200D02*
X129757514Y-82147580D01*
X129757514Y-82147580D02*
X129709895Y-82052342D01*
X129709895Y-82052342D02*
X129709895Y-81766628D01*
X129709895Y-81766628D02*
X129757514Y-81671390D01*
X129757514Y-81671390D02*
X129805133Y-81623771D01*
X129805133Y-81623771D02*
X129900371Y-81576152D01*
X129900371Y-81576152D02*
X130043228Y-81576152D01*
X130043228Y-81576152D02*
X130138466Y-81623771D01*
X130138466Y-81623771D02*
X130186085Y-81671390D01*
X130186085Y-81671390D02*
X130233704Y-81766628D01*
X130233704Y-81766628D02*
X130233704Y-82052342D01*
X130233704Y-82052342D02*
X130186085Y-82147580D01*
X130186085Y-82147580D02*
X130138466Y-82195200D01*
X130138466Y-82195200D02*
X130043228Y-82242819D01*
X130043228Y-82242819D02*
X129900371Y-82242819D01*
X130662276Y-81576152D02*
X130662276Y-82242819D01*
X130662276Y-81671390D02*
X130709895Y-81623771D01*
X130709895Y-81623771D02*
X130805133Y-81576152D01*
X130805133Y-81576152D02*
X130947990Y-81576152D01*
X130947990Y-81576152D02*
X131043228Y-81623771D01*
X131043228Y-81623771D02*
X131090847Y-81719009D01*
X131090847Y-81719009D02*
X131090847Y-82242819D01*
X131424181Y-81576152D02*
X131805133Y-81576152D01*
X131567038Y-81242819D02*
X131567038Y-82099961D01*
X131567038Y-82099961D02*
X131614657Y-82195200D01*
X131614657Y-82195200D02*
X131709895Y-82242819D01*
X131709895Y-82242819D02*
X131805133Y-82242819D01*
X132138467Y-82242819D02*
X132138467Y-81576152D01*
X132138467Y-81766628D02*
X132186086Y-81671390D01*
X132186086Y-81671390D02*
X132233705Y-81623771D01*
X132233705Y-81623771D02*
X132328943Y-81576152D01*
X132328943Y-81576152D02*
X132424181Y-81576152D01*
X132900372Y-82242819D02*
X132805134Y-82195200D01*
X132805134Y-82195200D02*
X132757515Y-82147580D01*
X132757515Y-82147580D02*
X132709896Y-82052342D01*
X132709896Y-82052342D02*
X132709896Y-81766628D01*
X132709896Y-81766628D02*
X132757515Y-81671390D01*
X132757515Y-81671390D02*
X132805134Y-81623771D01*
X132805134Y-81623771D02*
X132900372Y-81576152D01*
X132900372Y-81576152D02*
X133043229Y-81576152D01*
X133043229Y-81576152D02*
X133138467Y-81623771D01*
X133138467Y-81623771D02*
X133186086Y-81671390D01*
X133186086Y-81671390D02*
X133233705Y-81766628D01*
X133233705Y-81766628D02*
X133233705Y-82052342D01*
X133233705Y-82052342D02*
X133186086Y-82147580D01*
X133186086Y-82147580D02*
X133138467Y-82195200D01*
X133138467Y-82195200D02*
X133043229Y-82242819D01*
X133043229Y-82242819D02*
X132900372Y-82242819D01*
X133805134Y-82242819D02*
X133709896Y-82195200D01*
X133709896Y-82195200D02*
X133662277Y-82099961D01*
X133662277Y-82099961D02*
X133662277Y-81242819D01*
X134709896Y-82242819D02*
X134138468Y-82242819D01*
X134424182Y-82242819D02*
X134424182Y-81242819D01*
X134424182Y-81242819D02*
X134328944Y-81385676D01*
X134328944Y-81385676D02*
X134233706Y-81480914D01*
X134233706Y-81480914D02*
X134138468Y-81528533D01*
X139870833Y-99679580D02*
X139823214Y-99727200D01*
X139823214Y-99727200D02*
X139680357Y-99774819D01*
X139680357Y-99774819D02*
X139585119Y-99774819D01*
X139585119Y-99774819D02*
X139442262Y-99727200D01*
X139442262Y-99727200D02*
X139347024Y-99631961D01*
X139347024Y-99631961D02*
X139299405Y-99536723D01*
X139299405Y-99536723D02*
X139251786Y-99346247D01*
X139251786Y-99346247D02*
X139251786Y-99203390D01*
X139251786Y-99203390D02*
X139299405Y-99012914D01*
X139299405Y-99012914D02*
X139347024Y-98917676D01*
X139347024Y-98917676D02*
X139442262Y-98822438D01*
X139442262Y-98822438D02*
X139585119Y-98774819D01*
X139585119Y-98774819D02*
X139680357Y-98774819D01*
X139680357Y-98774819D02*
X139823214Y-98822438D01*
X139823214Y-98822438D02*
X139870833Y-98870057D01*
X140347024Y-99774819D02*
X140537500Y-99774819D01*
X140537500Y-99774819D02*
X140632738Y-99727200D01*
X140632738Y-99727200D02*
X140680357Y-99679580D01*
X140680357Y-99679580D02*
X140775595Y-99536723D01*
X140775595Y-99536723D02*
X140823214Y-99346247D01*
X140823214Y-99346247D02*
X140823214Y-98965295D01*
X140823214Y-98965295D02*
X140775595Y-98870057D01*
X140775595Y-98870057D02*
X140727976Y-98822438D01*
X140727976Y-98822438D02*
X140632738Y-98774819D01*
X140632738Y-98774819D02*
X140442262Y-98774819D01*
X140442262Y-98774819D02*
X140347024Y-98822438D01*
X140347024Y-98822438D02*
X140299405Y-98870057D01*
X140299405Y-98870057D02*
X140251786Y-98965295D01*
X140251786Y-98965295D02*
X140251786Y-99203390D01*
X140251786Y-99203390D02*
X140299405Y-99298628D01*
X140299405Y-99298628D02*
X140347024Y-99346247D01*
X140347024Y-99346247D02*
X140442262Y-99393866D01*
X140442262Y-99393866D02*
X140632738Y-99393866D01*
X140632738Y-99393866D02*
X140727976Y-99346247D01*
X140727976Y-99346247D02*
X140775595Y-99298628D01*
X140775595Y-99298628D02*
X140823214Y-99203390D01*
X146641666Y-90281009D02*
X146308333Y-90281009D01*
X146308333Y-90804819D02*
X146308333Y-89804819D01*
X146308333Y-89804819D02*
X146784523Y-89804819D01*
X147117857Y-89900057D02*
X147165476Y-89852438D01*
X147165476Y-89852438D02*
X147260714Y-89804819D01*
X147260714Y-89804819D02*
X147498809Y-89804819D01*
X147498809Y-89804819D02*
X147594047Y-89852438D01*
X147594047Y-89852438D02*
X147641666Y-89900057D01*
X147641666Y-89900057D02*
X147689285Y-89995295D01*
X147689285Y-89995295D02*
X147689285Y-90090533D01*
X147689285Y-90090533D02*
X147641666Y-90233390D01*
X147641666Y-90233390D02*
X147070238Y-90804819D01*
X147070238Y-90804819D02*
X147689285Y-90804819D01*
X129833333Y-99359580D02*
X129785714Y-99407200D01*
X129785714Y-99407200D02*
X129642857Y-99454819D01*
X129642857Y-99454819D02*
X129547619Y-99454819D01*
X129547619Y-99454819D02*
X129404762Y-99407200D01*
X129404762Y-99407200D02*
X129309524Y-99311961D01*
X129309524Y-99311961D02*
X129261905Y-99216723D01*
X129261905Y-99216723D02*
X129214286Y-99026247D01*
X129214286Y-99026247D02*
X129214286Y-98883390D01*
X129214286Y-98883390D02*
X129261905Y-98692914D01*
X129261905Y-98692914D02*
X129309524Y-98597676D01*
X129309524Y-98597676D02*
X129404762Y-98502438D01*
X129404762Y-98502438D02*
X129547619Y-98454819D01*
X129547619Y-98454819D02*
X129642857Y-98454819D01*
X129642857Y-98454819D02*
X129785714Y-98502438D01*
X129785714Y-98502438D02*
X129833333Y-98550057D01*
X130690476Y-98788152D02*
X130690476Y-99454819D01*
X130452381Y-98407200D02*
X130214286Y-99121485D01*
X130214286Y-99121485D02*
X130833333Y-99121485D01*
X134795833Y-99359580D02*
X134748214Y-99407200D01*
X134748214Y-99407200D02*
X134605357Y-99454819D01*
X134605357Y-99454819D02*
X134510119Y-99454819D01*
X134510119Y-99454819D02*
X134367262Y-99407200D01*
X134367262Y-99407200D02*
X134272024Y-99311961D01*
X134272024Y-99311961D02*
X134224405Y-99216723D01*
X134224405Y-99216723D02*
X134176786Y-99026247D01*
X134176786Y-99026247D02*
X134176786Y-98883390D01*
X134176786Y-98883390D02*
X134224405Y-98692914D01*
X134224405Y-98692914D02*
X134272024Y-98597676D01*
X134272024Y-98597676D02*
X134367262Y-98502438D01*
X134367262Y-98502438D02*
X134510119Y-98454819D01*
X134510119Y-98454819D02*
X134605357Y-98454819D01*
X134605357Y-98454819D02*
X134748214Y-98502438D01*
X134748214Y-98502438D02*
X134795833Y-98550057D01*
X135652976Y-98454819D02*
X135462500Y-98454819D01*
X135462500Y-98454819D02*
X135367262Y-98502438D01*
X135367262Y-98502438D02*
X135319643Y-98550057D01*
X135319643Y-98550057D02*
X135224405Y-98692914D01*
X135224405Y-98692914D02*
X135176786Y-98883390D01*
X135176786Y-98883390D02*
X135176786Y-99264342D01*
X135176786Y-99264342D02*
X135224405Y-99359580D01*
X135224405Y-99359580D02*
X135272024Y-99407200D01*
X135272024Y-99407200D02*
X135367262Y-99454819D01*
X135367262Y-99454819D02*
X135557738Y-99454819D01*
X135557738Y-99454819D02*
X135652976Y-99407200D01*
X135652976Y-99407200D02*
X135700595Y-99359580D01*
X135700595Y-99359580D02*
X135748214Y-99264342D01*
X135748214Y-99264342D02*
X135748214Y-99026247D01*
X135748214Y-99026247D02*
X135700595Y-98931009D01*
X135700595Y-98931009D02*
X135652976Y-98883390D01*
X135652976Y-98883390D02*
X135557738Y-98835771D01*
X135557738Y-98835771D02*
X135367262Y-98835771D01*
X135367262Y-98835771D02*
X135272024Y-98883390D01*
X135272024Y-98883390D02*
X135224405Y-98931009D01*
X135224405Y-98931009D02*
X135176786Y-99026247D01*
X151641666Y-90281009D02*
X151308333Y-90281009D01*
X151308333Y-90804819D02*
X151308333Y-89804819D01*
X151308333Y-89804819D02*
X151784523Y-89804819D01*
X152689285Y-90804819D02*
X152117857Y-90804819D01*
X152403571Y-90804819D02*
X152403571Y-89804819D01*
X152403571Y-89804819D02*
X152308333Y-89947676D01*
X152308333Y-89947676D02*
X152213095Y-90042914D01*
X152213095Y-90042914D02*
X152117857Y-90090533D01*
X129795833Y-91679580D02*
X129748214Y-91727200D01*
X129748214Y-91727200D02*
X129605357Y-91774819D01*
X129605357Y-91774819D02*
X129510119Y-91774819D01*
X129510119Y-91774819D02*
X129367262Y-91727200D01*
X129367262Y-91727200D02*
X129272024Y-91631961D01*
X129272024Y-91631961D02*
X129224405Y-91536723D01*
X129224405Y-91536723D02*
X129176786Y-91346247D01*
X129176786Y-91346247D02*
X129176786Y-91203390D01*
X129176786Y-91203390D02*
X129224405Y-91012914D01*
X129224405Y-91012914D02*
X129272024Y-90917676D01*
X129272024Y-90917676D02*
X129367262Y-90822438D01*
X129367262Y-90822438D02*
X129510119Y-90774819D01*
X129510119Y-90774819D02*
X129605357Y-90774819D01*
X129605357Y-90774819D02*
X129748214Y-90822438D01*
X129748214Y-90822438D02*
X129795833Y-90870057D01*
X130176786Y-90870057D02*
X130224405Y-90822438D01*
X130224405Y-90822438D02*
X130319643Y-90774819D01*
X130319643Y-90774819D02*
X130557738Y-90774819D01*
X130557738Y-90774819D02*
X130652976Y-90822438D01*
X130652976Y-90822438D02*
X130700595Y-90870057D01*
X130700595Y-90870057D02*
X130748214Y-90965295D01*
X130748214Y-90965295D02*
X130748214Y-91060533D01*
X130748214Y-91060533D02*
X130700595Y-91203390D01*
X130700595Y-91203390D02*
X130129167Y-91774819D01*
X130129167Y-91774819D02*
X130748214Y-91774819D01*
X135273452Y-82204819D02*
X135273452Y-81204819D01*
X135273452Y-81681009D02*
X135844880Y-81681009D01*
X135844880Y-82204819D02*
X135844880Y-81204819D01*
X136463928Y-82204819D02*
X136368690Y-82157200D01*
X136368690Y-82157200D02*
X136321071Y-82109580D01*
X136321071Y-82109580D02*
X136273452Y-82014342D01*
X136273452Y-82014342D02*
X136273452Y-81728628D01*
X136273452Y-81728628D02*
X136321071Y-81633390D01*
X136321071Y-81633390D02*
X136368690Y-81585771D01*
X136368690Y-81585771D02*
X136463928Y-81538152D01*
X136463928Y-81538152D02*
X136606785Y-81538152D01*
X136606785Y-81538152D02*
X136702023Y-81585771D01*
X136702023Y-81585771D02*
X136749642Y-81633390D01*
X136749642Y-81633390D02*
X136797261Y-81728628D01*
X136797261Y-81728628D02*
X136797261Y-82014342D01*
X136797261Y-82014342D02*
X136749642Y-82109580D01*
X136749642Y-82109580D02*
X136702023Y-82157200D01*
X136702023Y-82157200D02*
X136606785Y-82204819D01*
X136606785Y-82204819D02*
X136463928Y-82204819D01*
X137225833Y-82204819D02*
X137225833Y-81538152D01*
X137225833Y-81728628D02*
X137273452Y-81633390D01*
X137273452Y-81633390D02*
X137321071Y-81585771D01*
X137321071Y-81585771D02*
X137416309Y-81538152D01*
X137416309Y-81538152D02*
X137511547Y-81538152D01*
X137844881Y-81538152D02*
X137844881Y-82204819D01*
X137844881Y-81633390D02*
X137892500Y-81585771D01*
X137892500Y-81585771D02*
X137987738Y-81538152D01*
X137987738Y-81538152D02*
X138130595Y-81538152D01*
X138130595Y-81538152D02*
X138225833Y-81585771D01*
X138225833Y-81585771D02*
X138273452Y-81681009D01*
X138273452Y-81681009D02*
X138273452Y-82204819D01*
X138511548Y-82300057D02*
X139273452Y-82300057D01*
X139702024Y-81204819D02*
X139892500Y-81204819D01*
X139892500Y-81204819D02*
X139987738Y-81252438D01*
X139987738Y-81252438D02*
X140082976Y-81347676D01*
X140082976Y-81347676D02*
X140130595Y-81538152D01*
X140130595Y-81538152D02*
X140130595Y-81871485D01*
X140130595Y-81871485D02*
X140082976Y-82061961D01*
X140082976Y-82061961D02*
X139987738Y-82157200D01*
X139987738Y-82157200D02*
X139892500Y-82204819D01*
X139892500Y-82204819D02*
X139702024Y-82204819D01*
X139702024Y-82204819D02*
X139606786Y-82157200D01*
X139606786Y-82157200D02*
X139511548Y-82061961D01*
X139511548Y-82061961D02*
X139463929Y-81871485D01*
X139463929Y-81871485D02*
X139463929Y-81538152D01*
X139463929Y-81538152D02*
X139511548Y-81347676D01*
X139511548Y-81347676D02*
X139606786Y-81252438D01*
X139606786Y-81252438D02*
X139702024Y-81204819D01*
X140987738Y-81538152D02*
X140987738Y-82204819D01*
X140559167Y-81538152D02*
X140559167Y-82061961D01*
X140559167Y-82061961D02*
X140606786Y-82157200D01*
X140606786Y-82157200D02*
X140702024Y-82204819D01*
X140702024Y-82204819D02*
X140844881Y-82204819D01*
X140844881Y-82204819D02*
X140940119Y-82157200D01*
X140940119Y-82157200D02*
X140987738Y-82109580D01*
X141321072Y-81538152D02*
X141702024Y-81538152D01*
X141463929Y-81204819D02*
X141463929Y-82061961D01*
X141463929Y-82061961D02*
X141511548Y-82157200D01*
X141511548Y-82157200D02*
X141606786Y-82204819D01*
X141606786Y-82204819D02*
X141702024Y-82204819D01*
X142559167Y-82204819D02*
X141987739Y-82204819D01*
X142273453Y-82204819D02*
X142273453Y-81204819D01*
X142273453Y-81204819D02*
X142178215Y-81347676D01*
X142178215Y-81347676D02*
X142082977Y-81442914D01*
X142082977Y-81442914D02*
X141987739Y-81490533D01*
X153666666Y-82254819D02*
X153333333Y-81778628D01*
X153095238Y-82254819D02*
X153095238Y-81254819D01*
X153095238Y-81254819D02*
X153476190Y-81254819D01*
X153476190Y-81254819D02*
X153571428Y-81302438D01*
X153571428Y-81302438D02*
X153619047Y-81350057D01*
X153619047Y-81350057D02*
X153666666Y-81445295D01*
X153666666Y-81445295D02*
X153666666Y-81588152D01*
X153666666Y-81588152D02*
X153619047Y-81683390D01*
X153619047Y-81683390D02*
X153571428Y-81731009D01*
X153571428Y-81731009D02*
X153476190Y-81778628D01*
X153476190Y-81778628D02*
X153095238Y-81778628D01*
X154095238Y-81731009D02*
X154428571Y-81731009D01*
X154571428Y-82254819D02*
X154095238Y-82254819D01*
X154095238Y-82254819D02*
X154095238Y-81254819D01*
X154095238Y-81254819D02*
X154571428Y-81254819D01*
X155333333Y-81731009D02*
X155000000Y-81731009D01*
X155000000Y-82254819D02*
X155000000Y-81254819D01*
X155000000Y-81254819D02*
X155476190Y-81254819D01*
X156000000Y-81254819D02*
X156000000Y-81492914D01*
X155761905Y-81397676D02*
X156000000Y-81492914D01*
X156000000Y-81492914D02*
X156238095Y-81397676D01*
X155857143Y-81683390D02*
X156000000Y-81492914D01*
X156000000Y-81492914D02*
X156142857Y-81683390D01*
X156761905Y-81254819D02*
X156761905Y-81492914D01*
X156523810Y-81397676D02*
X156761905Y-81492914D01*
X156761905Y-81492914D02*
X157000000Y-81397676D01*
X156619048Y-81683390D02*
X156761905Y-81492914D01*
X156761905Y-81492914D02*
X156904762Y-81683390D01*
X136666666Y-90334819D02*
X136666666Y-91049104D01*
X136666666Y-91049104D02*
X136619047Y-91191961D01*
X136619047Y-91191961D02*
X136523809Y-91287200D01*
X136523809Y-91287200D02*
X136380952Y-91334819D01*
X136380952Y-91334819D02*
X136285714Y-91334819D01*
X137666666Y-91334819D02*
X137095238Y-91334819D01*
X137380952Y-91334819D02*
X137380952Y-90334819D01*
X137380952Y-90334819D02*
X137285714Y-90477676D01*
X137285714Y-90477676D02*
X137190476Y-90572914D01*
X137190476Y-90572914D02*
X137095238Y-90620533D01*
X143110952Y-82334819D02*
X143110952Y-81334819D01*
X143110952Y-81811009D02*
X143682380Y-81811009D01*
X143682380Y-82334819D02*
X143682380Y-81334819D01*
X144301428Y-82334819D02*
X144206190Y-82287200D01*
X144206190Y-82287200D02*
X144158571Y-82239580D01*
X144158571Y-82239580D02*
X144110952Y-82144342D01*
X144110952Y-82144342D02*
X144110952Y-81858628D01*
X144110952Y-81858628D02*
X144158571Y-81763390D01*
X144158571Y-81763390D02*
X144206190Y-81715771D01*
X144206190Y-81715771D02*
X144301428Y-81668152D01*
X144301428Y-81668152D02*
X144444285Y-81668152D01*
X144444285Y-81668152D02*
X144539523Y-81715771D01*
X144539523Y-81715771D02*
X144587142Y-81763390D01*
X144587142Y-81763390D02*
X144634761Y-81858628D01*
X144634761Y-81858628D02*
X144634761Y-82144342D01*
X144634761Y-82144342D02*
X144587142Y-82239580D01*
X144587142Y-82239580D02*
X144539523Y-82287200D01*
X144539523Y-82287200D02*
X144444285Y-82334819D01*
X144444285Y-82334819D02*
X144301428Y-82334819D01*
X145063333Y-82334819D02*
X145063333Y-81668152D01*
X145063333Y-81858628D02*
X145110952Y-81763390D01*
X145110952Y-81763390D02*
X145158571Y-81715771D01*
X145158571Y-81715771D02*
X145253809Y-81668152D01*
X145253809Y-81668152D02*
X145349047Y-81668152D01*
X145682381Y-81668152D02*
X145682381Y-82334819D01*
X145682381Y-81763390D02*
X145730000Y-81715771D01*
X145730000Y-81715771D02*
X145825238Y-81668152D01*
X145825238Y-81668152D02*
X145968095Y-81668152D01*
X145968095Y-81668152D02*
X146063333Y-81715771D01*
X146063333Y-81715771D02*
X146110952Y-81811009D01*
X146110952Y-81811009D02*
X146110952Y-82334819D01*
X146349048Y-82430057D02*
X147110952Y-82430057D01*
X147539524Y-81334819D02*
X147730000Y-81334819D01*
X147730000Y-81334819D02*
X147825238Y-81382438D01*
X147825238Y-81382438D02*
X147920476Y-81477676D01*
X147920476Y-81477676D02*
X147968095Y-81668152D01*
X147968095Y-81668152D02*
X147968095Y-82001485D01*
X147968095Y-82001485D02*
X147920476Y-82191961D01*
X147920476Y-82191961D02*
X147825238Y-82287200D01*
X147825238Y-82287200D02*
X147730000Y-82334819D01*
X147730000Y-82334819D02*
X147539524Y-82334819D01*
X147539524Y-82334819D02*
X147444286Y-82287200D01*
X147444286Y-82287200D02*
X147349048Y-82191961D01*
X147349048Y-82191961D02*
X147301429Y-82001485D01*
X147301429Y-82001485D02*
X147301429Y-81668152D01*
X147301429Y-81668152D02*
X147349048Y-81477676D01*
X147349048Y-81477676D02*
X147444286Y-81382438D01*
X147444286Y-81382438D02*
X147539524Y-81334819D01*
X148825238Y-81668152D02*
X148825238Y-82334819D01*
X148396667Y-81668152D02*
X148396667Y-82191961D01*
X148396667Y-82191961D02*
X148444286Y-82287200D01*
X148444286Y-82287200D02*
X148539524Y-82334819D01*
X148539524Y-82334819D02*
X148682381Y-82334819D01*
X148682381Y-82334819D02*
X148777619Y-82287200D01*
X148777619Y-82287200D02*
X148825238Y-82239580D01*
X149158572Y-81668152D02*
X149539524Y-81668152D01*
X149301429Y-81334819D02*
X149301429Y-82191961D01*
X149301429Y-82191961D02*
X149349048Y-82287200D01*
X149349048Y-82287200D02*
X149444286Y-82334819D01*
X149444286Y-82334819D02*
X149539524Y-82334819D01*
X149825239Y-81430057D02*
X149872858Y-81382438D01*
X149872858Y-81382438D02*
X149968096Y-81334819D01*
X149968096Y-81334819D02*
X150206191Y-81334819D01*
X150206191Y-81334819D02*
X150301429Y-81382438D01*
X150301429Y-81382438D02*
X150349048Y-81430057D01*
X150349048Y-81430057D02*
X150396667Y-81525295D01*
X150396667Y-81525295D02*
X150396667Y-81620533D01*
X150396667Y-81620533D02*
X150349048Y-81763390D01*
X150349048Y-81763390D02*
X149777620Y-82334819D01*
X149777620Y-82334819D02*
X150396667Y-82334819D01*
X125833333Y-92359580D02*
X125785714Y-92407200D01*
X125785714Y-92407200D02*
X125642857Y-92454819D01*
X125642857Y-92454819D02*
X125547619Y-92454819D01*
X125547619Y-92454819D02*
X125404762Y-92407200D01*
X125404762Y-92407200D02*
X125309524Y-92311961D01*
X125309524Y-92311961D02*
X125261905Y-92216723D01*
X125261905Y-92216723D02*
X125214286Y-92026247D01*
X125214286Y-92026247D02*
X125214286Y-91883390D01*
X125214286Y-91883390D02*
X125261905Y-91692914D01*
X125261905Y-91692914D02*
X125309524Y-91597676D01*
X125309524Y-91597676D02*
X125404762Y-91502438D01*
X125404762Y-91502438D02*
X125547619Y-91454819D01*
X125547619Y-91454819D02*
X125642857Y-91454819D01*
X125642857Y-91454819D02*
X125785714Y-91502438D01*
X125785714Y-91502438D02*
X125833333Y-91550057D01*
X126785714Y-92454819D02*
X126214286Y-92454819D01*
X126500000Y-92454819D02*
X126500000Y-91454819D01*
X126500000Y-91454819D02*
X126404762Y-91597676D01*
X126404762Y-91597676D02*
X126309524Y-91692914D01*
X126309524Y-91692914D02*
X126214286Y-91740533D01*
X144833333Y-97024819D02*
X144500000Y-96548628D01*
X144261905Y-97024819D02*
X144261905Y-96024819D01*
X144261905Y-96024819D02*
X144642857Y-96024819D01*
X144642857Y-96024819D02*
X144738095Y-96072438D01*
X144738095Y-96072438D02*
X144785714Y-96120057D01*
X144785714Y-96120057D02*
X144833333Y-96215295D01*
X144833333Y-96215295D02*
X144833333Y-96358152D01*
X144833333Y-96358152D02*
X144785714Y-96453390D01*
X144785714Y-96453390D02*
X144738095Y-96501009D01*
X144738095Y-96501009D02*
X144642857Y-96548628D01*
X144642857Y-96548628D02*
X144261905Y-96548628D01*
X145785714Y-97024819D02*
X145214286Y-97024819D01*
X145500000Y-97024819D02*
X145500000Y-96024819D01*
X145500000Y-96024819D02*
X145404762Y-96167676D01*
X145404762Y-96167676D02*
X145309524Y-96262914D01*
X145309524Y-96262914D02*
X145214286Y-96310533D01*
X120666666Y-99254819D02*
X120333333Y-98778628D01*
X120095238Y-99254819D02*
X120095238Y-98254819D01*
X120095238Y-98254819D02*
X120476190Y-98254819D01*
X120476190Y-98254819D02*
X120571428Y-98302438D01*
X120571428Y-98302438D02*
X120619047Y-98350057D01*
X120619047Y-98350057D02*
X120666666Y-98445295D01*
X120666666Y-98445295D02*
X120666666Y-98588152D01*
X120666666Y-98588152D02*
X120619047Y-98683390D01*
X120619047Y-98683390D02*
X120571428Y-98731009D01*
X120571428Y-98731009D02*
X120476190Y-98778628D01*
X120476190Y-98778628D02*
X120095238Y-98778628D01*
X121095238Y-98731009D02*
X121428571Y-98731009D01*
X121571428Y-99254819D02*
X121095238Y-99254819D01*
X121095238Y-99254819D02*
X121095238Y-98254819D01*
X121095238Y-98254819D02*
X121571428Y-98254819D01*
X122333333Y-98731009D02*
X122000000Y-98731009D01*
X122000000Y-99254819D02*
X122000000Y-98254819D01*
X122000000Y-98254819D02*
X122476190Y-98254819D01*
X123000000Y-98254819D02*
X123000000Y-98492914D01*
X122761905Y-98397676D02*
X123000000Y-98492914D01*
X123000000Y-98492914D02*
X123238095Y-98397676D01*
X122857143Y-98683390D02*
X123000000Y-98492914D01*
X123000000Y-98492914D02*
X123142857Y-98683390D01*
X123761905Y-98254819D02*
X123761905Y-98492914D01*
X123523810Y-98397676D02*
X123761905Y-98492914D01*
X123761905Y-98492914D02*
X124000000Y-98397676D01*
X123619048Y-98683390D02*
X123761905Y-98492914D01*
X123761905Y-98492914D02*
X123904762Y-98683390D01*
X129795833Y-95679580D02*
X129748214Y-95727200D01*
X129748214Y-95727200D02*
X129605357Y-95774819D01*
X129605357Y-95774819D02*
X129510119Y-95774819D01*
X129510119Y-95774819D02*
X129367262Y-95727200D01*
X129367262Y-95727200D02*
X129272024Y-95631961D01*
X129272024Y-95631961D02*
X129224405Y-95536723D01*
X129224405Y-95536723D02*
X129176786Y-95346247D01*
X129176786Y-95346247D02*
X129176786Y-95203390D01*
X129176786Y-95203390D02*
X129224405Y-95012914D01*
X129224405Y-95012914D02*
X129272024Y-94917676D01*
X129272024Y-94917676D02*
X129367262Y-94822438D01*
X129367262Y-94822438D02*
X129510119Y-94774819D01*
X129510119Y-94774819D02*
X129605357Y-94774819D01*
X129605357Y-94774819D02*
X129748214Y-94822438D01*
X129748214Y-94822438D02*
X129795833Y-94870057D01*
X130129167Y-94774819D02*
X130748214Y-94774819D01*
X130748214Y-94774819D02*
X130414881Y-95155771D01*
X130414881Y-95155771D02*
X130557738Y-95155771D01*
X130557738Y-95155771D02*
X130652976Y-95203390D01*
X130652976Y-95203390D02*
X130700595Y-95251009D01*
X130700595Y-95251009D02*
X130748214Y-95346247D01*
X130748214Y-95346247D02*
X130748214Y-95584342D01*
X130748214Y-95584342D02*
X130700595Y-95679580D01*
X130700595Y-95679580D02*
X130652976Y-95727200D01*
X130652976Y-95727200D02*
X130557738Y-95774819D01*
X130557738Y-95774819D02*
X130272024Y-95774819D01*
X130272024Y-95774819D02*
X130176786Y-95727200D01*
X130176786Y-95727200D02*
X130129167Y-95679580D01*
X127595333Y-105007580D02*
X127547714Y-105055200D01*
X127547714Y-105055200D02*
X127404857Y-105102819D01*
X127404857Y-105102819D02*
X127309619Y-105102819D01*
X127309619Y-105102819D02*
X127166762Y-105055200D01*
X127166762Y-105055200D02*
X127071524Y-104959961D01*
X127071524Y-104959961D02*
X127023905Y-104864723D01*
X127023905Y-104864723D02*
X126976286Y-104674247D01*
X126976286Y-104674247D02*
X126976286Y-104531390D01*
X126976286Y-104531390D02*
X127023905Y-104340914D01*
X127023905Y-104340914D02*
X127071524Y-104245676D01*
X127071524Y-104245676D02*
X127166762Y-104150438D01*
X127166762Y-104150438D02*
X127309619Y-104102819D01*
X127309619Y-104102819D02*
X127404857Y-104102819D01*
X127404857Y-104102819D02*
X127547714Y-104150438D01*
X127547714Y-104150438D02*
X127595333Y-104198057D01*
X128500095Y-104102819D02*
X128023905Y-104102819D01*
X128023905Y-104102819D02*
X127976286Y-104579009D01*
X127976286Y-104579009D02*
X128023905Y-104531390D01*
X128023905Y-104531390D02*
X128119143Y-104483771D01*
X128119143Y-104483771D02*
X128357238Y-104483771D01*
X128357238Y-104483771D02*
X128452476Y-104531390D01*
X128452476Y-104531390D02*
X128500095Y-104579009D01*
X128500095Y-104579009D02*
X128547714Y-104674247D01*
X128547714Y-104674247D02*
X128547714Y-104912342D01*
X128547714Y-104912342D02*
X128500095Y-105007580D01*
X128500095Y-105007580D02*
X128452476Y-105055200D01*
X128452476Y-105055200D02*
X128357238Y-105102819D01*
X128357238Y-105102819D02*
X128119143Y-105102819D01*
X128119143Y-105102819D02*
X128023905Y-105055200D01*
X128023905Y-105055200D02*
X127976286Y-105007580D01*
D11*
%TO.C,C7*%
X133342748Y-106907000D02*
X133865252Y-106907000D01*
X133342748Y-105437000D02*
X133865252Y-105437000D01*
%TO.C,C8*%
X139776248Y-104265000D02*
X140298752Y-104265000D01*
X139776248Y-105735000D02*
X140298752Y-105735000D01*
%TO.C,D1*%
X143300000Y-100850000D02*
X143300000Y-105150000D01*
X143300000Y-100850000D02*
X149000000Y-100850000D01*
X143300000Y-105150000D02*
X149000000Y-105150000D01*
%TO.C,Q1(MOSFET_SW?)1*%
X149000000Y-95440000D02*
X147325000Y-95440000D01*
X149000000Y-95440000D02*
X149650000Y-95440000D01*
X149000000Y-98560000D02*
X148350000Y-98560000D01*
X149000000Y-98560000D02*
X149650000Y-98560000D01*
%TO.C,HornControl1*%
X127880600Y-82892800D02*
X127880600Y-88912800D01*
X127880600Y-88912800D02*
X133180600Y-88912800D01*
X128460600Y-88312800D02*
X128460600Y-88912800D01*
X129260600Y-83892800D02*
X129260600Y-82892800D01*
X129510600Y-82892800D02*
X129510600Y-83892800D01*
X129510600Y-84422800D02*
X129260600Y-83892800D01*
X130060600Y-88312800D02*
X128460600Y-88312800D01*
X130060600Y-88912800D02*
X130060600Y-88312800D01*
X131000600Y-88312800D02*
X131000600Y-88912800D01*
X131550600Y-82892800D02*
X131550600Y-83892800D01*
X131550600Y-84422800D02*
X129510600Y-84422800D01*
X131800600Y-82892800D02*
X131800600Y-83892800D01*
X131800600Y-83892800D02*
X129260600Y-83892800D01*
X131800600Y-83892800D02*
X131550600Y-84422800D01*
X132600600Y-88312800D02*
X131000600Y-88312800D01*
X132600600Y-88912800D02*
X132600600Y-88312800D01*
X133180600Y-82892800D02*
X127880600Y-82892800D01*
X133180600Y-88912800D02*
X133180600Y-82892800D01*
X133470600Y-87882800D02*
X133470600Y-83882800D01*
%TO.C,C9*%
X139776248Y-100265000D02*
X140298752Y-100265000D01*
X139776248Y-101735000D02*
X140298752Y-101735000D01*
%TO.C,F2*%
X146713748Y-91290000D02*
X147236252Y-91290000D01*
X146713748Y-92710000D02*
X147236252Y-92710000D01*
%TO.C,C4*%
X130735000Y-101701248D02*
X130735000Y-102223752D01*
X129265000Y-101701248D02*
X129265000Y-102223752D01*
%TO.C,C6*%
X135735000Y-101738748D02*
X135735000Y-102261252D01*
X134265000Y-101738748D02*
X134265000Y-102261252D01*
%TO.C,F1*%
X151713748Y-91290000D02*
X152236252Y-91290000D01*
X151713748Y-92710000D02*
X152236252Y-92710000D01*
%TO.C,C2*%
X129701248Y-92265000D02*
X130223752Y-92265000D01*
X129701248Y-93735000D02*
X130223752Y-93735000D01*
%TO.C,Horn_Out1*%
X135952500Y-83870000D02*
X135952500Y-87870000D01*
X136242500Y-82840000D02*
X136242500Y-88860000D01*
X136242500Y-88860000D02*
X141542500Y-88860000D01*
X136822500Y-82840000D02*
X136822500Y-83440000D01*
X136822500Y-83440000D02*
X138422500Y-83440000D01*
X137622500Y-87860000D02*
X137872500Y-87330000D01*
X137622500Y-87860000D02*
X140162500Y-87860000D01*
X137622500Y-88860000D02*
X137622500Y-87860000D01*
X137872500Y-87330000D02*
X139912500Y-87330000D01*
X137872500Y-88860000D02*
X137872500Y-87860000D01*
X138422500Y-83440000D02*
X138422500Y-82840000D01*
X139362500Y-82840000D02*
X139362500Y-83440000D01*
X139362500Y-83440000D02*
X140962500Y-83440000D01*
X139912500Y-87330000D02*
X140162500Y-87860000D01*
X139912500Y-88860000D02*
X139912500Y-87860000D01*
X140162500Y-87860000D02*
X140162500Y-88860000D01*
X140962500Y-83440000D02*
X140962500Y-82840000D01*
X141542500Y-82840000D02*
X136242500Y-82840000D01*
X141542500Y-88860000D02*
X141542500Y-82840000D01*
%TO.C,J1*%
X132790000Y-93000000D02*
X132790000Y-97000000D01*
X133080000Y-91970000D02*
X133080000Y-97990000D01*
X133080000Y-97990000D02*
X140920000Y-97990000D01*
X133660000Y-91970000D02*
X133660000Y-92570000D01*
X133660000Y-92570000D02*
X135260000Y-92570000D01*
X134460000Y-96990000D02*
X134710000Y-96460000D01*
X134460000Y-96990000D02*
X139540000Y-96990000D01*
X134460000Y-97990000D02*
X134460000Y-96990000D01*
X134710000Y-96460000D02*
X139290000Y-96460000D01*
X134710000Y-97990000D02*
X134710000Y-96990000D01*
X135260000Y-92570000D02*
X135260000Y-91970000D01*
X136200000Y-91970000D02*
X136200000Y-92570000D01*
X136200000Y-92570000D02*
X137800000Y-92570000D01*
X137800000Y-92570000D02*
X137800000Y-91970000D01*
X138740000Y-91970000D02*
X138740000Y-92570000D01*
X138740000Y-92570000D02*
X140340000Y-92570000D01*
X139290000Y-96460000D02*
X139540000Y-96990000D01*
X139290000Y-97990000D02*
X139290000Y-96990000D01*
X139540000Y-96990000D02*
X139540000Y-97990000D01*
X140340000Y-92570000D02*
X140340000Y-91970000D01*
X140920000Y-91970000D02*
X133080000Y-91970000D01*
X140920000Y-97990000D02*
X140920000Y-91970000D01*
%TO.C,Horn_Out2*%
X143790000Y-84000000D02*
X143790000Y-88000000D01*
X144080000Y-82970000D02*
X144080000Y-88990000D01*
X144080000Y-88990000D02*
X149380000Y-88990000D01*
X144660000Y-82970000D02*
X144660000Y-83570000D01*
X144660000Y-83570000D02*
X146260000Y-83570000D01*
X145460000Y-87990000D02*
X145710000Y-87460000D01*
X145460000Y-87990000D02*
X148000000Y-87990000D01*
X145460000Y-88990000D02*
X145460000Y-87990000D01*
X145710000Y-87460000D02*
X147750000Y-87460000D01*
X145710000Y-88990000D02*
X145710000Y-87990000D01*
X146260000Y-83570000D02*
X146260000Y-82970000D01*
X147200000Y-82970000D02*
X147200000Y-83570000D01*
X147200000Y-83570000D02*
X148800000Y-83570000D01*
X147750000Y-87460000D02*
X148000000Y-87990000D01*
X147750000Y-88990000D02*
X147750000Y-87990000D01*
X148000000Y-87990000D02*
X148000000Y-88990000D01*
X148800000Y-83570000D02*
X148800000Y-82970000D01*
X149380000Y-82970000D02*
X144080000Y-82970000D01*
X149380000Y-88990000D02*
X149380000Y-82970000D01*
%TO.C,C1*%
X125265000Y-94701248D02*
X125265000Y-95223752D01*
X126735000Y-94701248D02*
X126735000Y-95223752D01*
%TO.C,R1*%
X144745276Y-97477500D02*
X145254724Y-97477500D01*
X144745276Y-98522500D02*
X145254724Y-98522500D01*
%TO.C,C3*%
X129701248Y-96265000D02*
X130223752Y-96265000D01*
X129701248Y-97735000D02*
X130223752Y-97735000D01*
%TO.C,C5*%
X128516748Y-105691000D02*
X129039252Y-105691000D01*
X128516748Y-107161000D02*
X129039252Y-107161000D01*
%TD*%
M02*
